<svg width="195" height="30" viewBox="0 0 195 30" fill="none" xmlns="http://www.w3.org/2000/svg">
<path d="M11.2239 9.98403C11.0987 9.15099 10.8735 8.50445 10.5357 8.04442C10.2103 7.59682 9.74736 7.29841 9.14675 7.14921C8.54613 7.00001 7.75782 6.93785 6.79434 6.93785C5.31782 6.93785 3.84131 6.92541 2.37731 7.04975C1.92685 7.08705 1.41383 7.14921 0.838236 7.22381V9.22559C1.41383 9.15099 1.93936 9.08882 2.38983 9.03909C2.84029 8.98936 3.26572 8.95206 3.64111 8.93962C4.65465 8.88989 5.76829 8.74069 6.76931 8.96449C7.78285 9.18829 8.07065 10.0586 8.18326 10.9911C8.24583 11.5755 8.29588 12.3588 8.30839 13.3535C7.68275 13.2789 7.08213 13.2043 6.48152 13.1172C5.8809 13.0426 5.20521 13.0053 4.45444 13.0053C3.60357 13.0053 2.89034 13.0675 2.33977 13.2043C1.7767 13.341 1.32624 13.5648 0.975877 13.8881C0.625518 14.2114 0.375261 14.6341 0.23762 15.1563C0.0874664 15.691 0.0249023 16.3499 0.0249023 17.1332V17.5684C0.0249023 18.3517 0.0999793 19.0107 0.23762 19.5453C0.387774 20.0799 0.625518 20.5027 0.975877 20.8135C1.32624 21.1368 1.7767 21.3606 2.33977 21.4974C2.90285 21.6341 3.60357 21.6963 4.45444 21.6963C5.20521 21.6963 5.8809 21.659 6.48152 21.5844C7.08213 21.5098 7.69526 21.4228 8.30839 21.3482V21.3979H11.4491V13.341C11.4241 11.9361 11.349 10.8171 11.2239 9.98403ZM8.30839 19.6696H5.14265C4.36685 19.6696 3.84131 19.4956 3.55352 19.135C3.27824 18.7744 3.12808 18.1155 3.12808 17.1332C3.16562 16.3126 3.32829 15.7407 3.60357 15.4299C3.87885 15.119 4.39188 14.9698 5.13013 14.9698H8.29588V19.6696H8.30839Z" fill="#7279D8"/>
<path d="M34.1097 10.3819C33.9971 9.43694 33.7844 8.71581 33.4716 8.19361C33.1462 7.68384 32.6833 7.34813 32.0576 7.1865C31.432 7.02487 30.6187 6.93783 29.6051 6.93783C28.6166 6.93783 27.7032 6.98757 26.8648 7.08703C26.0265 7.1865 25.3132 7.31083 24.7376 7.4849V0H21.5969V21.373H24.7376C25.3383 21.4725 26.0139 21.5471 26.7522 21.6092C27.4905 21.659 28.2663 21.6838 29.0921 21.6838C30.2183 21.6838 31.1317 21.5968 31.8199 21.4352C32.5081 21.2735 33.0336 20.9254 33.3965 20.3908C33.7594 19.8561 33.9971 19.1101 34.1097 18.1155C34.2224 17.1332 34.2849 15.8153 34.2849 14.1492C34.2724 12.5826 34.2098 11.3268 34.1097 10.3819ZM31.0691 17.5684C31.0316 18.2025 30.9315 18.6874 30.7563 18.9982C30.5936 19.3215 30.3434 19.5204 30.0306 19.595C29.7052 19.6696 29.2673 19.7069 28.7042 19.7069C28.1161 19.7069 27.5906 19.6821 27.1151 19.6448C26.6396 19.6075 26.1891 19.5577 25.7512 19.4956C25.4384 19.4334 25.1881 19.2966 25.0004 19.0728C24.8127 18.849 24.7251 18.5755 24.7251 18.2522V10.5062C24.7251 10.1829 24.8127 9.89698 25.0004 9.66075C25.1881 9.42451 25.4384 9.28774 25.7512 9.22558C26.2767 9.11368 26.7647 9.02664 27.2152 8.97691C27.6656 8.92718 28.1411 8.90231 28.6542 8.90231C29.2172 8.90231 29.6677 8.96448 30.0055 9.07638C30.3309 9.18828 30.5811 9.46181 30.7563 9.87211C30.919 10.2824 31.0316 10.8917 31.0816 11.6998C31.1317 12.4956 31.1567 13.5897 31.1567 14.9574C31.1317 16.0639 31.1067 16.9343 31.0691 17.5684Z" fill="#7279D8"/>
<path d="M54.3556 7.2485C54.218 8.45454 53.9677 9.72275 53.5798 11.0531C53.2044 12.3835 52.8165 13.602 52.4286 14.721C51.9406 16.0265 51.4276 17.2947 50.8895 18.5256C50.3265 17.2947 49.8134 16.0265 49.3505 14.721C48.9375 13.602 48.5622 12.3835 48.1868 11.0531C47.8239 9.72275 47.5611 8.45454 47.436 7.2485H44.4204C44.4579 7.87017 44.558 8.52914 44.7082 9.25028C44.8584 9.97141 45.046 10.7174 45.2713 11.5007C45.4965 12.284 45.7468 13.0673 46.0095 13.8506C46.2848 14.6339 46.5476 15.4048 46.8229 16.1259C47.461 17.8542 48.1743 19.6073 48.9751 21.3728L49.413 22.3799C49.5131 22.6659 49.5006 23.014 49.4005 23.4368C49.2879 23.8471 49.1252 24.2449 48.8875 24.6304C48.6497 25.0158 48.3745 25.3391 48.0616 25.6126C47.7363 25.8862 47.411 26.0229 47.0856 26.0229C46.8104 26.0229 46.5226 25.9856 46.2097 25.911C45.8969 25.8364 45.6091 25.7618 45.3338 25.6748L45.0711 27.6766C45.2087 27.776 45.4965 27.8506 45.9219 27.9004C46.3599 27.9625 46.8104 27.9874 47.2733 27.9874C47.8489 27.9874 48.362 27.8879 48.8124 27.7014C49.2629 27.5025 49.6508 27.229 50.0011 26.8808C50.3515 26.5203 50.6643 26.0851 50.9646 25.5629C51.2524 25.0407 51.5402 24.4439 51.803 23.7725L52.7915 21.348C53.5798 19.5824 54.3055 17.8293 54.9437 16.1011C55.219 15.3675 55.4817 14.6091 55.757 13.8258C56.0323 13.0425 56.2701 12.2592 56.4828 11.4759C56.6955 10.6926 56.8832 9.94655 57.0333 9.22541C57.1835 8.50427 57.2961 7.83287 57.3587 7.22363H54.3556V7.2485Z" fill="#7279D8"/>
<path d="M40.9168 0H37.7761V21.373H40.9168V0Z" fill="#7279D8"/>
<path d="M18.0936 7.24854H14.9529V21.3853H18.0936V7.24854Z" fill="#7279D8"/>
<path d="M13.2886 3.20782C13.2886 4.06572 13.6264 4.87389 14.2395 5.48313C14.8527 6.09236 15.666 6.42806 16.5294 6.42806C17.3928 6.42806 18.2061 6.09236 18.8067 5.48313C19.4199 4.87389 19.7577 4.06572 19.7577 3.20782C19.7452 1.44227 18.2937 0 16.5169 0C14.7401 0 13.2886 1.44227 13.2886 3.20782Z" fill="#7279D8"/>
<path d="M14.9027 4.81161C14.4772 4.38887 14.2395 3.81694 14.2395 3.2077C14.2395 2.59847 14.4772 2.03896 14.9027 1.60379C15.3281 1.18106 15.9037 0.944824 16.5168 0.944824C17.7806 0.944824 18.7942 1.96436 18.7942 3.2077C18.7942 3.81694 18.5564 4.37644 18.131 4.81161C17.7056 5.23435 17.13 5.47058 16.5168 5.47058C15.9037 5.47058 15.3281 5.23435 14.9027 4.81161Z" fill="#FFCF33"/>
<path d="M56.5328 18.4761V19.0356H57.1459V19.3588H56.5328V20.6146C56.5328 20.9006 56.6204 21.0747 56.8581 21.0747C56.9708 21.0747 57.0458 21.0622 57.1084 21.0498L57.1334 21.3731C57.0458 21.3979 56.9207 21.4352 56.758 21.4352C56.5578 21.4352 56.3952 21.3731 56.2951 21.2612C56.1825 21.1244 56.1324 20.9255 56.1324 20.6519V19.3837H55.7695V19.0604H56.1324V18.6253L56.5328 18.4761Z" fill="#7279D8"/>
<path d="M57.6215 19.6694C57.6215 19.4207 57.6089 19.2342 57.5964 19.0353H57.9718L57.9968 19.4083H58.0094C58.1345 19.1845 58.3597 18.9731 58.7601 18.9731C59.0729 18.9731 59.3232 19.1721 59.4233 19.4456H59.4358C59.5109 19.3088 59.611 19.2094 59.6986 19.1472C59.8362 19.0353 59.9864 18.9856 60.2116 18.9856C60.5244 18.9856 60.9874 19.1845 60.9874 20.0051V21.3852H60.5745V20.0548C60.5745 19.5948 60.3993 19.3337 60.0615 19.3337C59.8112 19.3337 59.6235 19.5078 59.5484 19.7191C59.5234 19.7813 59.5109 19.8559 59.5109 19.9305V21.3852H59.098V19.9802C59.098 19.6072 58.9353 19.3461 58.61 19.3461C58.3472 19.3461 58.147 19.5575 58.0844 19.7689C58.0594 19.831 58.0469 19.9056 58.0469 19.9802V21.3977H57.634V19.6694H57.6215Z" fill="#7279D8"/>
<path d="M68.904 15.4C69.1867 15.4 69.448 15.4773 69.688 15.632C69.928 15.7813 70.1173 15.9867 70.256 16.248C70.4 16.5093 70.472 16.7973 70.472 17.112C70.472 17.4267 70.4 17.7173 70.256 17.984C70.1173 18.2507 69.928 18.4613 69.688 18.616C69.448 18.7707 69.1867 18.848 68.904 18.848H67.4V20.616C67.4 20.7227 67.3653 20.8133 67.296 20.888C67.2267 20.9627 67.1387 21 67.032 21C66.92 21 66.8293 20.9653 66.76 20.896C66.696 20.8213 66.664 20.728 66.664 20.616V15.784C66.664 15.6773 66.7013 15.5867 66.776 15.512C66.8507 15.4373 66.9413 15.4 67.048 15.4H68.904ZM68.904 18.12C69.048 18.12 69.1813 18.0747 69.304 17.984C69.4267 17.888 69.5227 17.7627 69.592 17.608C69.6667 17.4533 69.704 17.288 69.704 17.112C69.704 16.84 69.624 16.6107 69.464 16.424C69.3093 16.232 69.1227 16.136 68.904 16.136H67.4V18.12H68.904ZM76.9489 18.2C76.9489 18.7387 76.8315 19.2267 76.5969 19.664C76.3675 20.1013 76.0475 20.448 75.6369 20.704C75.2262 20.9547 74.7622 21.08 74.2449 21.08C73.7275 21.08 73.2635 20.9547 72.8529 20.704C72.4422 20.448 72.1195 20.1013 71.8849 19.664C71.6555 19.2267 71.5409 18.7387 71.5409 18.2C71.5409 17.6613 71.6555 17.1733 71.8849 16.736C72.1195 16.2987 72.4422 15.9547 72.8529 15.704C73.2635 15.448 73.7275 15.32 74.2449 15.32C74.7622 15.32 75.2262 15.448 75.6369 15.704C76.0475 15.9547 76.3675 16.2987 76.5969 16.736C76.8315 17.1733 76.9489 17.6613 76.9489 18.2ZM76.1249 18.2C76.1249 17.8 76.0449 17.44 75.8849 17.12C75.7249 16.7947 75.5009 16.5413 75.2129 16.36C74.9302 16.1733 74.6075 16.08 74.2449 16.08C73.8822 16.08 73.5569 16.1707 73.2689 16.352C72.9862 16.5333 72.7649 16.7867 72.6049 17.112C72.4449 17.432 72.3649 17.7947 72.3649 18.2C72.3649 18.6 72.4449 18.9627 72.6049 19.288C72.7649 19.608 72.9862 19.8613 73.2689 20.048C73.5569 20.2293 73.8822 20.32 74.2449 20.32C74.6075 20.32 74.9302 20.2293 75.2129 20.048C75.5009 19.8613 75.7249 19.608 75.8849 19.288C76.0449 18.9627 76.1249 18.6 76.1249 18.2ZM84.6916 15.376C84.7929 15.376 84.8862 15.4133 84.9716 15.488C85.0569 15.5627 85.0996 15.6613 85.0996 15.784C85.0996 15.8267 85.0916 15.872 85.0756 15.92L83.4196 20.76C83.3982 20.8347 83.3529 20.8933 83.2836 20.936C83.2196 20.9733 83.1502 20.9947 83.0756 21C83.0009 21 82.9289 20.9787 82.8596 20.936C82.7902 20.8933 82.7396 20.832 82.7076 20.752L81.4596 17.832L80.2196 20.752C80.1876 20.832 80.1369 20.8933 80.0676 20.936C79.9982 20.9787 79.9236 21 79.8436 21C79.7689 20.9947 79.6996 20.9707 79.6356 20.928C79.5716 20.8853 79.5289 20.8293 79.5076 20.76L77.8516 15.92C77.8356 15.872 77.8276 15.8267 77.8276 15.784C77.8276 15.6667 77.8702 15.5707 77.9556 15.496C78.0462 15.416 78.1422 15.376 78.2436 15.376C78.3289 15.376 78.4062 15.4 78.4756 15.448C78.5449 15.4907 78.5902 15.5493 78.6116 15.624L79.9636 19.632L81.1236 16.784C81.1556 16.7093 81.2036 16.6507 81.2676 16.608C81.3316 16.5653 81.4036 16.544 81.4836 16.544C81.5636 16.544 81.6356 16.5653 81.6996 16.608C81.7636 16.6507 81.8116 16.7093 81.8436 16.784L82.9716 19.632L84.3156 15.624C84.3369 15.544 84.3822 15.4827 84.4516 15.44C84.5209 15.3973 84.6009 15.376 84.6916 15.376ZM89.5086 20.264C89.6206 20.264 89.7112 20.3013 89.7806 20.376C89.8552 20.4507 89.8926 20.5387 89.8926 20.64C89.8926 20.7467 89.8552 20.8347 89.7806 20.904C89.7112 20.968 89.6206 21 89.5086 21H86.7246C86.6179 21 86.5272 20.9627 86.4526 20.888C86.3779 20.8133 86.3406 20.7227 86.3406 20.616V15.784C86.3406 15.6773 86.3779 15.5867 86.4526 15.512C86.5272 15.4373 86.6179 15.4 86.7246 15.4H89.5086C89.6206 15.4 89.7112 15.4347 89.7806 15.504C89.8552 15.5733 89.8926 15.664 89.8926 15.776C89.8926 15.8827 89.8552 15.9707 89.7806 16.04C89.7112 16.104 89.6206 16.136 89.5086 16.136H87.1326V17.768H89.1486C89.2606 17.768 89.3512 17.8027 89.4206 17.872C89.4952 17.9413 89.5326 18.0293 89.5326 18.136C89.5326 18.248 89.4952 18.336 89.4206 18.4C89.3512 18.464 89.2606 18.496 89.1486 18.496H87.1326V20.264H89.5086ZM95.5671 20.36C95.6204 20.3973 95.6631 20.4453 95.6951 20.504C95.7271 20.5573 95.7431 20.6133 95.7431 20.672C95.7431 20.784 95.7057 20.8667 95.6311 20.92C95.5617 20.9733 95.4764 21 95.3751 21C95.2737 21 95.1884 20.9787 95.1191 20.936C94.9591 20.8453 94.8284 20.6987 94.7271 20.496C94.6257 20.2933 94.5751 19.9947 94.5751 19.6C94.5751 19.3333 94.4951 19.136 94.3351 19.008C94.1751 18.88 93.9671 18.816 93.7111 18.816H92.0951V20.616C92.0951 20.728 92.0631 20.8213 91.9991 20.896C91.9351 20.9653 91.8524 21 91.7511 21C91.6284 21 91.5217 20.9627 91.4311 20.888C91.3457 20.8133 91.3031 20.7227 91.3031 20.616V15.784C91.3031 15.6773 91.3404 15.5867 91.4151 15.512C91.4897 15.4373 91.5804 15.4 91.6871 15.4H93.9351C94.2231 15.4 94.4871 15.472 94.7271 15.616C94.9671 15.7547 95.1591 15.9493 95.3031 16.2C95.4471 16.4453 95.5191 16.7227 95.5191 17.032C95.5191 17.3307 95.4391 17.6107 95.2791 17.872C95.1191 18.128 94.9137 18.32 94.6631 18.448C94.8604 18.5493 95.0151 18.6907 95.1271 18.872C95.2444 19.0533 95.3084 19.264 95.3191 19.504C95.3404 19.808 95.3644 20.016 95.3911 20.128C95.4177 20.2347 95.4764 20.312 95.5671 20.36ZM93.9191 18.152C94.0524 18.1413 94.1777 18.088 94.2951 17.992C94.4177 17.896 94.5164 17.768 94.5911 17.608C94.6657 17.4427 94.7031 17.2587 94.7031 17.056C94.7031 16.8 94.6231 16.584 94.4631 16.408C94.3084 16.2267 94.1191 16.136 93.8951 16.136H92.0951V18.152H93.9191ZM100.309 20.264C100.421 20.264 100.511 20.3013 100.581 20.376C100.655 20.4507 100.693 20.5387 100.693 20.64C100.693 20.7467 100.655 20.8347 100.581 20.904C100.511 20.968 100.421 21 100.309 21H97.5246C97.4179 21 97.3272 20.9627 97.2526 20.888C97.1779 20.8133 97.1406 20.7227 97.1406 20.616V15.784C97.1406 15.6773 97.1779 15.5867 97.2526 15.512C97.3272 15.4373 97.4179 15.4 97.5246 15.4H100.309C100.421 15.4 100.511 15.4347 100.581 15.504C100.655 15.5733 100.693 15.664 100.693 15.776C100.693 15.8827 100.655 15.9707 100.581 16.04C100.511 16.104 100.421 16.136 100.309 16.136H97.9326V17.768H99.9486C100.061 17.768 100.151 17.8027 100.221 17.872C100.295 17.9413 100.333 18.0293 100.333 18.136C100.333 18.248 100.295 18.336 100.221 18.4C100.151 18.464 100.061 18.496 99.9486 18.496H97.9326V20.264H100.309ZM104.455 15.4C104.956 15.4 105.386 15.5253 105.743 15.776C106.1 16.0267 106.37 16.3653 106.551 16.792C106.732 17.2133 106.823 17.6827 106.823 18.2C106.823 18.7227 106.732 19.1973 106.551 19.624C106.37 20.0453 106.1 20.3813 105.743 20.632C105.386 20.8773 104.956 21 104.455 21H102.487C102.38 21 102.29 20.9627 102.215 20.888C102.14 20.8133 102.103 20.7227 102.103 20.616V15.784C102.103 15.6773 102.14 15.5867 102.215 15.512C102.29 15.4373 102.38 15.4 102.487 15.4H104.455ZM104.375 20.264C104.919 20.264 105.327 20.072 105.599 19.688C105.871 19.2987 106.007 18.8027 106.007 18.2C106.007 17.6027 105.868 17.1093 105.591 16.72C105.319 16.3307 104.914 16.136 104.375 16.136H102.895V20.264H104.375ZM114.064 17.944C114.358 18.0453 114.598 18.2133 114.784 18.448C114.976 18.6773 115.072 18.9787 115.072 19.352C115.072 19.944 114.899 20.368 114.552 20.624C114.211 20.8747 113.792 21 113.296 21H111.24C111.134 21 111.043 20.9627 110.968 20.888C110.894 20.8133 110.856 20.7227 110.856 20.616V15.784C110.856 15.6773 110.894 15.5867 110.968 15.512C111.043 15.4373 111.134 15.4 111.24 15.4H113.296C113.782 15.4 114.15 15.52 114.4 15.76C114.656 16 114.784 16.3467 114.784 16.8C114.784 17.056 114.723 17.2853 114.6 17.488C114.478 17.6853 114.299 17.8373 114.064 17.944ZM113.96 16.92C113.96 16.6693 113.891 16.48 113.752 16.352C113.619 16.2187 113.43 16.152 113.184 16.152H111.672V17.712H113.2C113.419 17.7067 113.6 17.6373 113.744 17.504C113.888 17.3653 113.96 17.1707 113.96 16.92ZM113.288 20.264C113.582 20.264 113.816 20.1893 113.992 20.04C114.168 19.8853 114.256 19.656 114.256 19.352C114.256 18.76 113.92 18.464 113.248 18.464H111.672V20.264H113.288ZM120.143 15.76C120.143 15.84 120.119 15.92 120.071 16L118.351 18.424V20.616C118.351 20.7227 118.314 20.8133 118.239 20.888C118.17 20.9627 118.085 21 117.983 21C117.877 21 117.786 20.9627 117.711 20.888C117.637 20.8133 117.599 20.7227 117.599 20.616V18.36L115.887 16.048C115.813 15.952 115.775 15.856 115.775 15.76C115.775 15.6533 115.818 15.5627 115.903 15.488C115.989 15.4133 116.082 15.376 116.183 15.376C116.306 15.376 116.41 15.4347 116.495 15.552L117.999 17.632L119.447 15.56C119.533 15.4373 119.639 15.376 119.767 15.376C119.869 15.376 119.957 15.4133 120.031 15.488C120.106 15.5627 120.143 15.6533 120.143 15.76Z" fill="#77699D"/>
<path d="M128.826 15.392C128.933 15.3973 129.024 15.4373 129.098 15.512C129.173 15.5813 129.21 15.6693 129.21 15.776V20.616C129.21 20.7227 129.173 20.8133 129.098 20.888C129.029 20.9627 128.936 21 128.818 21C128.701 21 128.605 20.9653 128.53 20.896C128.456 20.8213 128.418 20.728 128.418 20.616V16.912L126.866 19.264C126.829 19.312 126.781 19.352 126.722 19.384C126.669 19.416 126.613 19.4293 126.554 19.424C126.501 19.4293 126.445 19.416 126.386 19.384C126.333 19.352 126.288 19.312 126.25 19.264L124.69 16.84V20.616C124.69 20.728 124.656 20.8213 124.586 20.896C124.522 20.9653 124.434 21 124.322 21C124.216 21 124.128 20.9653 124.058 20.896C123.994 20.8213 123.962 20.728 123.962 20.616V15.776C123.962 15.6747 124 15.5867 124.074 15.512C124.149 15.432 124.242 15.392 124.354 15.392C124.418 15.392 124.48 15.408 124.538 15.44C124.602 15.472 124.653 15.5147 124.69 15.568L126.586 18.44L128.506 15.568C128.592 15.4507 128.698 15.392 128.826 15.392ZM135.245 20.504C135.261 20.552 135.269 20.6027 135.269 20.656C135.269 20.7627 135.231 20.8507 135.157 20.92C135.087 20.9893 135.005 21.024 134.909 21.024C134.834 21.024 134.765 21.0027 134.701 20.96C134.642 20.912 134.594 20.848 134.557 20.768L134.061 19.592H131.589L131.101 20.776C131.074 20.856 131.029 20.9173 130.965 20.96C130.906 21.0027 130.839 21.024 130.765 21.024C130.653 21.024 130.567 20.9947 130.509 20.936C130.45 20.8773 130.421 20.7973 130.421 20.696C130.421 20.6747 130.426 20.632 130.437 20.568L132.477 15.624C132.514 15.5387 132.565 15.4747 132.629 15.432C132.698 15.384 132.775 15.3653 132.861 15.376C132.941 15.376 133.013 15.3973 133.077 15.44C133.141 15.4827 133.186 15.544 133.213 15.624L135.245 20.504ZM133.757 18.864L132.821 16.624L131.893 18.864H133.757ZM138.169 21.08C137.78 21.08 137.436 21.0267 137.137 20.92C136.839 20.808 136.553 20.6293 136.281 20.384C136.169 20.288 136.113 20.1787 136.113 20.056C136.113 19.96 136.151 19.8747 136.225 19.8C136.3 19.72 136.388 19.68 136.489 19.68C136.58 19.68 136.657 19.7093 136.721 19.768C136.935 19.9653 137.153 20.112 137.377 20.208C137.607 20.2987 137.865 20.344 138.153 20.344C138.489 20.344 138.772 20.2667 139.001 20.112C139.236 19.9573 139.353 19.7627 139.353 19.528C139.348 19.2507 139.231 19.0373 139.001 18.888C138.777 18.7333 138.433 18.6053 137.969 18.504C137.42 18.392 136.996 18.208 136.697 17.952C136.404 17.696 136.257 17.3413 136.257 16.888C136.257 16.5733 136.34 16.2987 136.505 16.064C136.671 15.824 136.9 15.64 137.193 15.512C137.487 15.384 137.817 15.32 138.185 15.32C138.516 15.32 138.828 15.3733 139.121 15.48C139.415 15.5867 139.652 15.728 139.833 15.904C139.956 16.0107 140.017 16.1253 140.017 16.248C140.017 16.344 139.98 16.4293 139.905 16.504C139.836 16.5787 139.751 16.616 139.649 16.616C139.575 16.616 139.513 16.5947 139.465 16.552C139.327 16.4133 139.135 16.296 138.889 16.2C138.644 16.104 138.409 16.056 138.185 16.056C137.828 16.056 137.543 16.1307 137.329 16.28C137.121 16.424 137.017 16.616 137.017 16.856C137.017 17.1173 137.121 17.3173 137.329 17.456C137.543 17.5947 137.857 17.712 138.273 17.808C138.689 17.8987 139.028 18.0053 139.289 18.128C139.556 18.2507 139.761 18.4213 139.905 18.64C140.049 18.8587 140.121 19.144 140.121 19.496C140.121 19.8053 140.033 20.08 139.857 20.32C139.687 20.56 139.452 20.7467 139.153 20.88C138.855 21.0133 138.527 21.08 138.169 21.08ZM144.618 20.256C144.73 20.256 144.82 20.2907 144.89 20.36C144.964 20.4293 145.002 20.52 145.002 20.632C145.002 20.7387 144.964 20.8267 144.89 20.896C144.82 20.9653 144.73 21 144.618 21H141.914C141.802 21 141.708 20.9627 141.634 20.888C141.564 20.8133 141.53 20.7227 141.53 20.616V15.784C141.53 15.6773 141.567 15.5867 141.642 15.512C141.716 15.4373 141.812 15.4 141.93 15.4C142.036 15.4 142.127 15.4373 142.202 15.512C142.282 15.5867 142.322 15.6773 142.322 15.784V20.256H144.618ZM151.338 18.2C151.338 18.7387 151.221 19.2267 150.986 19.664C150.757 20.1013 150.437 20.448 150.026 20.704C149.615 20.9547 149.151 21.08 148.634 21.08C148.117 21.08 147.653 20.9547 147.242 20.704C146.831 20.448 146.509 20.1013 146.274 19.664C146.045 19.2267 145.93 18.7387 145.93 18.2C145.93 17.6613 146.045 17.1733 146.274 16.736C146.509 16.2987 146.831 15.9547 147.242 15.704C147.653 15.448 148.117 15.32 148.634 15.32C149.151 15.32 149.615 15.448 150.026 15.704C150.437 15.9547 150.757 16.2987 150.986 16.736C151.221 17.1733 151.338 17.6613 151.338 18.2ZM150.514 18.2C150.514 17.8 150.434 17.44 150.274 17.12C150.114 16.7947 149.89 16.5413 149.602 16.36C149.319 16.1733 148.997 16.08 148.634 16.08C148.271 16.08 147.946 16.1707 147.658 16.352C147.375 16.5333 147.154 16.7867 146.994 17.112C146.834 17.432 146.754 17.7947 146.754 18.2C146.754 18.6 146.834 18.9627 146.994 19.288C147.154 19.608 147.375 19.8613 147.658 20.048C147.946 20.2293 148.271 20.32 148.634 20.32C148.997 20.32 149.319 20.2293 149.602 20.048C149.89 19.8613 150.114 19.608 150.274 19.288C150.434 18.9627 150.514 18.6 150.514 18.2Z" fill="white"/>
</svg>
