<svg width="12" height="12" viewBox="0 0 12 12" fill="none" xmlns="http://www.w3.org/2000/svg">
<path d="M7.85524 6.35482C8.34543 5.96915 8.70323 5.44028 8.87886 4.84179C9.05448 4.2433 9.0392 3.60495 8.83513 3.01555C8.63106 2.42615 8.24837 1.91501 7.74027 1.55325C7.23218 1.19148 6.62396 0.99707 6.00024 0.99707C5.37651 0.99707 4.76829 1.19148 4.2602 1.55325C3.75211 1.91501 3.36941 2.42615 3.16534 3.01555C2.96128 3.60495 2.94599 4.2433 3.12162 4.84179C3.29724 5.44028 3.65504 5.96915 4.14524 6.35482C3.30528 6.69134 2.57238 7.24949 2.02468 7.96978C1.47699 8.69006 1.13502 9.54547 1.03524 10.4448C1.02802 10.5105 1.0338 10.5769 1.05225 10.6403C1.07071 10.7038 1.10147 10.7629 1.14279 10.8145C1.22625 10.9186 1.34763 10.9852 1.48024 10.9998C1.61285 11.0144 1.74582 10.9757 1.8499 10.8923C1.95398 10.8088 2.02065 10.6874 2.03524 10.5548C2.14503 9.57741 2.61108 8.67472 3.34435 8.01921C4.07761 7.3637 5.02669 7.00133 6.01024 7.00133C6.99379 7.00133 7.94286 7.3637 8.67613 8.01921C9.40939 8.67472 9.87544 9.57741 9.98524 10.5548C9.99883 10.6777 10.0574 10.7911 10.1498 10.8733C10.2421 10.9555 10.3616 11.0006 10.4852 10.9998H10.5402C10.6713 10.9847 10.7911 10.9185 10.8735 10.8154C10.9559 10.7124 10.9943 10.581 10.9802 10.4498C10.8799 9.54792 10.5361 8.69031 9.98566 7.96892C9.43515 7.24753 8.69869 6.68956 7.85524 6.35482ZM6.00024 5.99982C5.60468 5.99982 5.218 5.88252 4.8891 5.66276C4.5602 5.44299 4.30385 5.13064 4.15248 4.76518C4.0011 4.39973 3.9615 3.9976 4.03867 3.60964C4.11584 3.22168 4.30632 2.86531 4.58602 2.5856C4.86573 2.3059 5.2221 2.11542 5.61006 2.03825C5.99802 1.96108 6.40015 2.00068 6.76561 2.15206C7.13106 2.30343 7.44341 2.55978 7.66318 2.88868C7.88294 3.21758 8.00024 3.60426 8.00024 3.99982C8.00024 4.53025 7.78952 5.03896 7.41445 5.41403C7.03938 5.7891 6.53067 5.99982 6.00024 5.99982Z" fill="#FCFCFC"/>
</svg>
