<svg width="16" height="16" viewBox="0 0 16 16" fill="none" xmlns="http://www.w3.org/2000/svg">
<path d="M8 8.66667C11.4977 8.66667 14.3333 11.5023 14.3333 15H15C15 11.134 11.866 8 8 8C4.134 8 1 11.134 1 15H1.66667C1.66667 11.5023 4.50217 8.66667 8 8.66667Z" fill="#BABFBF" stroke="#BABFBF"/>
<path d="M7.99983 1C5.88266 1 4.1665 2.71617 4.1665 4.83333C4.1665 6.9505 5.88266 8.66667 7.99983 8.66667C10.117 8.66667 11.8332 6.9505 11.8332 4.83333C11.8332 2.71617 10.117 1 7.99983 1ZM7.99983 8C6.25083 8 4.83316 6.58233 4.83316 4.83333C4.83316 3.08433 6.25083 1.66667 7.99983 1.66667C9.74883 1.66667 11.1665 3.08433 11.1665 4.83333C11.1665 6.58233 9.74883 8 7.99983 8Z" fill="#BABFBF" stroke="#BABFBF"/>
</svg>
