<svg width="30" height="26" viewBox="0 0 30 26" fill="none" xmlns="http://www.w3.org/2000/svg">
<path d="M1.75781 0C0.788437 0 0 0.795127 0 1.77273V14.7727C0 15.7503 0.788437 16.5455 1.75781 16.5455H3.86719V24.2273C3.86719 25.2049 4.65562 26 5.625 26H28.2422C29.2116 26 30 25.2049 30 24.2273V11.2273C30 10.2497 29.2116 9.45455 28.2422 9.45455H26.1328V1.77273C26.1328 0.795127 25.3444 0 24.375 0H1.75781ZM1.75781 1.18182H24.375C24.698 1.18182 24.9609 1.44702 24.9609 1.77273V3.54545H1.17188V1.77273C1.17188 1.44702 1.43484 1.18182 1.75781 1.18182ZM1.17188 7.09091H24.9609V9.45455H5.625C4.65562 9.45455 3.86719 10.2497 3.86719 11.2273V15.3636H1.75781C1.43484 15.3636 1.17188 15.0984 1.17188 14.7727V7.09091ZM5.625 10.6364H28.2422C28.5652 10.6364 28.8281 10.9016 28.8281 11.2273V24.2273C28.8281 24.553 28.5652 24.8182 28.2422 24.8182H5.625C5.30203 24.8182 5.03906 24.553 5.03906 24.2273V11.2273C5.03906 10.9016 5.30203 10.6364 5.625 10.6364ZM19.6875 13C18.0722 13 16.7578 14.3255 16.7578 15.9545C16.7578 17.5836 18.0722 18.9091 19.6875 18.9091C20.3264 18.9091 20.9423 18.6978 21.4448 18.3172C21.9483 18.6978 22.5642 18.9091 23.2031 18.9091C24.8184 18.9091 26.1328 17.5836 26.1328 15.9545C26.1328 14.3255 24.8184 13 23.2031 13C22.5642 13 21.9483 13.2113 21.4448 13.5919C20.9419 13.2113 20.3264 13 19.6875 13ZM19.6875 14.1818C20.1914 14.1818 20.6719 14.4007 21.0052 14.7822C21.0052 14.7827 21.0056 14.7827 21.0056 14.7827C21.2892 15.106 21.4453 15.522 21.4453 15.9541C21.4453 16.3861 21.2892 16.8021 21.0052 17.1264C20.6719 17.5079 20.1914 17.7268 19.6875 17.7268C18.7181 17.7268 17.9297 16.9317 17.9297 15.9541C17.9297 14.9765 18.7181 14.1813 19.6875 14.1813V14.1818ZM23.2031 14.1818C24.1725 14.1818 24.9609 14.9769 24.9609 15.9545C24.9609 16.9321 24.1725 17.7273 23.2031 17.7273C22.852 17.7273 22.5127 17.6209 22.2262 17.4276C22.4803 16.9827 22.6172 16.4755 22.6172 15.9545C22.6172 15.4336 22.4803 14.9264 22.2262 14.4815C22.5131 14.2882 22.8525 14.1818 23.2031 14.1818Z" fill="#FCFCFC"/>
</svg>
