<svg width="303" height="272" viewBox="0 0 303 272" fill="none" xmlns="http://www.w3.org/2000/svg">
<path d="M151.381 270.52H103.075" stroke="white" stroke-width="2" stroke-linecap="round"/>
<path d="M8.83594 270.484H301.192" stroke="white" stroke-width="2" stroke-linecap="round"/>
<path d="M23.5894 269.936L28.2297 264.153L33.2308 264.778L35.1062 269.779L23.5894 269.936Z" fill="white"/>
<path d="M225.917 270.357L230.037 257.574L241.881 259.089L254.052 270.875L225.917 270.357Z" fill="white"/>
<path d="M108.815 256.964L107.531 270.429" stroke="white" stroke-width="2" stroke-linecap="round"/>
<path d="M145.788 256.964L147.073 270.429" stroke="white" stroke-width="2" stroke-linecap="round"/>
<path opacity="0.5" fill-rule="evenodd" clip-rule="evenodd" d="M239.263 67.9615C245.999 59.645 249.184 48.538 247.067 37.1923C243.234 16.6515 223.475 3.10701 202.935 6.93979C186.205 10.0614 174.117 23.7471 172.277 39.8154L145.609 183.145L239.674 68.1535L239.263 67.9615Z" fill="#9D90D5"/>
<rect x="50.8389" y="155.015" width="152.778" height="101.034" stroke="white" stroke-width="2" stroke-linecap="round"/>
<circle cx="127.228" cy="247.375" r="4.08545" stroke="white" stroke-width="2" stroke-linecap="round"/>
<path d="M203.617 237.769H50.8389" stroke="white" stroke-width="2" stroke-linecap="round"/>
<ellipse cx="83.2895" cy="212.496" rx="2.52139" ry="2.66227" fill="#5C5096"/>
<path d="M249.069 203.103L261.165 203.621" stroke="white" stroke-width="2" stroke-linecap="round"/>
<path d="M273.656 202.642L261.107 203.665" stroke="white" stroke-width="2" stroke-linecap="round"/>
<path d="M261.067 183.912L261.067 201.857L247.428 199.08L247.428 181.135L261.067 183.912Z" fill="#FA7171"/>
<path d="M261.067 183.912L261.067 201.857L247.428 199.08L247.428 181.135L261.067 183.912Z" stroke="#241846" stroke-width="2" stroke-linecap="round" stroke-linejoin="round"/>
<path d="M261.095 183.912L261.095 201.857L274.734 199.08L274.734 181.135L261.095 183.912Z" fill="white"/>
<path d="M261.095 183.912L261.095 201.857L274.734 199.08L274.734 181.135L261.095 183.912Z" stroke="#241846" stroke-width="2" stroke-linecap="round" stroke-linejoin="round"/>
<path d="M57.078 228.648C61.1881 222.029 54.7122 209.254 42.7351 211.435C30.758 213.617 31.595 231.387 40.0694 229.073C48.5438 226.759 45.104 202.511 27.1758 203.211C9.24752 203.91 1.60108 230.583 12.2588 232.593C22.9165 234.603 23.8092 201.498 1 198.991" stroke="white" stroke-width="2" stroke-linecap="round"/>
<ellipse cx="83.2895" cy="195.711" rx="2.52139" ry="2.66227" fill="#5C5096"/>
<ellipse cx="83.2895" cy="178.925" rx="2.52139" ry="2.66227" fill="#FA7171"/>
<path d="M14.1524 128.826L43.7717 147.184" stroke="white" stroke-width="2" stroke-linecap="round"/>
<path d="M246.652 123.671L231.814 136.872" stroke="white" stroke-width="2" stroke-linecap="round"/>
<path d="M278.715 134.937L224.949 151.252" stroke="white" stroke-width="2" stroke-linecap="round"/>
<path d="M181.992 66.8131L205.424 54.3941" stroke="white" stroke-width="2" stroke-linecap="round"/>
<path d="M190.493 53.1666L213.925 40.7476" stroke="white" stroke-width="2" stroke-linecap="round"/>
<circle cx="82.7699" cy="112.162" r="2.35281" transform="rotate(14.6401 82.7699 112.162)" fill="#7266AB"/>
<circle cx="69.7285" cy="108.753" r="2.35281" transform="rotate(14.6401 69.7285 108.753)" fill="#7266AB"/>
<circle cx="56.6886" cy="105.345" r="2.35281" transform="rotate(14.6401 56.6886 105.345)" fill="#7266AB"/>
<circle cx="43.6456" cy="101.941" r="2.35281" transform="rotate(14.6401 43.6456 101.941)" fill="#7266AB"/>
<circle cx="86.2602" cy="98.8018" r="2.35281" transform="rotate(14.6401 86.2602 98.8018)" fill="#7266AB"/>
<circle cx="30.6058" cy="98.5327" r="2.35281" transform="rotate(14.6401 30.6058 98.5327)" fill="#7266AB"/>
<circle cx="73.2187" cy="95.3979" r="2.35281" transform="rotate(14.6401 73.2187 95.3979)" fill="#7266AB"/>
<circle cx="17.5675" cy="95.1245" r="2.35281" transform="rotate(14.6401 17.5675 95.1245)" fill="#7266AB"/>
<circle cx="60.1774" cy="91.9902" r="2.35281" transform="rotate(14.6401 60.1774 91.9902)" fill="#7266AB"/>
<circle cx="4.52453" cy="91.7158" r="2.35281" transform="rotate(14.6401 4.52453 91.7158)" fill="#7266AB"/>
<circle cx="47.1391" cy="88.582" r="2.35281" transform="rotate(14.6401 47.1391 88.582)" fill="#7266AB"/>
<circle cx="89.7505" cy="85.4468" r="2.35281" transform="rotate(14.6401 89.7505 85.4468)" fill="#7266AB"/>
<circle cx="34.0945" cy="85.1782" r="2.35281" transform="rotate(14.6401 34.0945 85.1782)" fill="#7266AB"/>
<circle cx="76.7107" cy="82.0381" r="2.35281" transform="rotate(14.6401 76.7107 82.0381)" fill="#7266AB"/>
<circle cx="21.0547" cy="81.7695" r="2.35281" transform="rotate(14.6401 21.0547 81.7695)" fill="#7266AB"/>
<circle cx="63.6677" cy="78.6348" r="2.35281" transform="rotate(14.6401 63.6677 78.6348)" fill="#7266AB"/>
<circle cx="8.0133" cy="78.3608" r="2.35281" transform="rotate(14.6401 8.0133 78.3608)" fill="#7266AB"/>
<circle cx="50.6262" cy="75.2261" r="2.35281" transform="rotate(14.6401 50.6262 75.2261)" fill="#7266AB"/>
<circle cx="93.2393" cy="72.0913" r="2.35281" transform="rotate(14.6401 93.2393 72.0913)" fill="#7266AB"/>
<circle cx="37.5832" cy="71.8223" r="2.35281" transform="rotate(14.6401 37.5832 71.8223)" fill="#7266AB"/>
<circle cx="80.1963" cy="68.6875" r="2.35281" transform="rotate(14.6401 80.1963 68.6875)" fill="#7266AB"/>
<circle cx="24.5434" cy="68.4145" r="2.35281" transform="rotate(14.6401 24.5434 68.4145)" fill="#7266AB"/>
<circle cx="67.1548" cy="65.2793" r="2.35281" transform="rotate(14.6401 67.1548 65.2793)" fill="#7266AB"/>
<circle cx="11.5035" cy="65.0059" r="2.35281" transform="rotate(14.6401 11.5035 65.0059)" fill="#7266AB"/>
<circle cx="54.115" cy="61.8711" r="2.35281" transform="rotate(14.6401 54.115 61.8711)" fill="#7266AB"/>
<circle cx="96.7264" cy="58.7363" r="2.35281" transform="rotate(14.6401 96.7264 58.7363)" fill="#7266AB"/>
<circle cx="41.0736" cy="58.4673" r="2.35281" transform="rotate(14.6401 41.0736 58.4673)" fill="#7266AB"/>
<circle cx="83.6849" cy="55.3281" r="2.35281" transform="rotate(14.6401 83.6849 55.3281)" fill="#7266AB"/>
<circle cx="28.0321" cy="55.0591" r="2.35281" transform="rotate(14.6401 28.0321 55.0591)" fill="#7266AB"/>
<circle cx="70.6451" cy="51.9238" r="2.35281" transform="rotate(14.6401 70.6451 51.9238)" fill="#7266AB"/>
<circle cx="14.9907" cy="51.6509" r="2.35281" transform="rotate(14.6401 14.9907 51.6509)" fill="#7266AB"/>
<circle cx="57.6037" cy="48.5151" r="2.35281" transform="rotate(14.6401 57.6037 48.5151)" fill="#7266AB"/>
<circle cx="44.5638" cy="45.1069" r="2.35281" transform="rotate(14.6401 44.5638 45.1069)" fill="#7266AB"/>
<circle cx="31.5209" cy="41.7041" r="2.35281" transform="rotate(14.6401 31.5209 41.7041)" fill="#7266AB"/>
<circle cx="18.4786" cy="38.2969" r="2.35281" transform="rotate(14.6401 18.4786 38.2969)" fill="#7266AB"/>
</svg>
