<svg width="80" height="80" viewBox="0 0 80 80" fill="none" xmlns="http://www.w3.org/2000/svg">
<path opacity="0.1" d="M40 80C62.0914 80 80 62.0914 80 40C80 17.9086 62.0914 0 40 0C17.9086 0 0 17.9086 0 40C0 62.0914 17.9086 80 40 80Z" fill="#BABFBF"/>
<path d="M31 30.0179C31 28.9064 31.9062 28.0081 33.0177 28.0179L42.3236 28.1002C42.8187 28.1046 43.2946 28.2924 43.6591 28.6274L48.3532 32.9406C48.7654 33.3194 49 33.8536 49 34.4133V40.0001V50.0001C49 51.1047 48.1046 52.0001 47 52.0001H33C31.8954 52.0001 31 51.1047 31 50.0001V30.0179Z" stroke="#BABFBF"/>
<path d="M43 28V34H49" stroke="#BABFBF" stroke-linejoin="round"/>
<path d="M39.79 44.6755C41.9992 44.6755 43.79 42.8847 43.79 40.6755C43.79 38.4664 41.9992 36.6755 39.79 36.6755C37.5809 36.6755 35.79 38.4664 35.79 40.6755C35.79 42.8847 37.5809 44.6755 39.79 44.6755Z" stroke="#BABFBF"/>
<path d="M38.7998 39.0479L39.0658 38.6245C38.9117 38.5277 38.7172 38.5222 38.5579 38.6103C38.3987 38.6983 38.2998 38.8659 38.2998 39.0479H38.7998ZM41.4918 40.7389L41.7414 41.1721C41.8934 41.0846 41.9884 40.9238 41.9917 40.7484C41.9951 40.5731 41.9063 40.4088 41.7578 40.3155L41.4918 40.7389ZM38.7998 42.2895H38.2998C38.2998 42.468 38.395 42.633 38.5496 42.7224C38.7042 42.8117 38.8947 42.8119 39.0494 42.7227L38.7998 42.2895ZM38.5338 39.4712L41.2259 41.1623L41.7578 40.3155L39.0658 38.6245L38.5338 39.4712ZM41.2423 40.3056L38.5502 41.8562L39.0494 42.7227L41.7414 41.1721L41.2423 40.3056ZM39.2998 42.2895V39.0479H38.2998V42.2895H39.2998Z" fill="#BABFBF"/>
</svg>
