<svg width="280" height="240" viewBox="0 0 280 240" fill="none" xmlns="http://www.w3.org/2000/svg">
<path d="M102.263 159.531L65.042 80.0178L126.915 56.0069L164.135 135.52L102.263 159.531Z" fill="#3F3C44" stroke="#3F3C44" stroke-width="3" stroke-linecap="round" stroke-linejoin="round"/>
<path d="M105.658 155.289L64.752 77.6077L125.432 50.7233L166.338 128.404L105.658 155.289Z" fill="#FCFCFC" stroke="#3F3C44" stroke-width="3" stroke-linecap="round" stroke-linejoin="round"/>
<path d="M75.2445 79.5467L77.4481 83.9534C78.0363 85.1295 79.4567 85.6198 80.6451 85.0569V85.0569C81.891 84.4667 82.3919 82.9556 81.7451 81.7381L76.1468 71.2002C75.5083 69.9983 74.0468 69.4981 72.8057 70.0566V70.0566C71.4673 70.659 70.8992 72.2542 71.5555 73.567L71.9831 74.4222" stroke="#3F3C44" stroke-width="3" stroke-linecap="round" stroke-linejoin="round"/>
<path d="M86.8027 93.0718L127.114 76.1252" stroke="#344A5D" stroke-width="2" stroke-linecap="round"/>
<path d="M90.585 101.325L115.605 90.5833" stroke="#344A5D" stroke-width="2" stroke-linecap="round"/>
<path d="M94.532 172.804L78.2314 204.13" stroke="#3F3C44" stroke-width="2" stroke-linecap="round"/>
<path d="M85.2877 164.804L67.6713 170.346" stroke="#3F3C44" stroke-width="2" stroke-linecap="round"/>
<path d="M108.512 171.15L114.299 179.429" stroke="#3F3C44" stroke-width="2" stroke-linecap="round"/>
<path d="M122.222 87.9139L130.564 84.3928" stroke="#344A5D" stroke-width="2" stroke-linecap="round"/>
<circle cx="143.453" cy="118.126" r="6.98834" fill="#BABFBF"/>
<circle cx="151.541" cy="120.513" r="35.7913" transform="rotate(93.4978 151.541 120.513)" stroke="#3F3C44" stroke-width="3" stroke-linecap="round" stroke-linejoin="round"/>
<path d="M181.222 142.155L216.534 167.167" stroke="#3F3C44" stroke-width="3" stroke-linecap="round" stroke-linejoin="round"/>
<path d="M149.769 39.0714C154.886 34.4065 167.565 26.4005 177.354 31.696C189.59 38.3154 175.167 61.7669 166.671 57.7487C158.174 53.7305 178.995 32.903 191.02 42.6394C203.045 52.3758 193.907 69.4514 185.68 66.0777C177.453 62.704 195.216 45.4278 207.135 56.7228" stroke="#3F3C44" stroke-width="2" stroke-linecap="round"/>
<path d="M40.2227 217.379H249.347" stroke="#BABFBF" stroke-width="3" stroke-linecap="round"/>
<path d="M172.515 185.041C167.991 185.607 156.495 206.951 151.312 217.552L208.559 216.139L195.849 181.618C188.458 182.673 177.038 184.476 172.515 185.041Z" fill="#BABFBF"/>
<path d="M98.6922 206.799L102.323 217.173L87.7998 216.915L90.6524 205.503L98.6922 206.799Z" fill="#BABFBF"/>
<path d="M73.9092 29.9558C81.0171 40.1094 93.6783 64.1272 93.6783 64.1272" stroke="#3F3C44" stroke-width="2" stroke-linecap="round"/>
<path d="M42.0842 140.296L44.4062 116.29L62.2923 121.77L59.9703 145.776L42.0842 140.296Z" stroke="#3F3C44" stroke-width="2" stroke-linecap="round" stroke-linejoin="round"/>
<path d="M42.4384 142.012L58.8257 147.097" stroke="#3F3C44" stroke-width="3" stroke-linecap="round"/>
</svg>
