<svg width="23" height="23" viewBox="0 0 23 23" fill="none" xmlns="http://www.w3.org/2000/svg">
<g clip-path="url(#clip0)">
<path d="M17.1632 0.00506194C16.9706 0.0281782 16.7868 0.118437 16.6508 0.256638L1.69268 15.2074C1.57838 15.3199 1.49641 15.4648 1.45896 15.6207L0.0206802 21.9461C-0.0441235 22.2293 0.0462241 22.543 0.251735 22.7484C0.457246 22.9538 0.771123 23.0441 1.05444 22.9793L7.38287 21.5418C7.54199 21.5059 7.69041 21.4238 7.80536 21.3081L22.7635 6.35735C23.0788 6.03849 23.0788 5.46326 22.7635 5.1444L17.8733 0.256638C17.6908 0.0716893 17.4214 -0.0237342 17.1632 0.00506194ZM17.262 2.08056L20.9296 5.75537L19.2756 7.40858L15.608 3.74276L17.262 2.08056ZM14.3855 4.95572L18.0531 8.63052L7.48175 19.1967L3.81414 15.5309L14.3855 4.95572ZM2.90623 17.0583L5.95358 20.1042L2.01629 20.9937L2.90623 17.0583Z" fill="#FCFCFC"/>
</g>
<defs>
<clipPath id="clip0">
<rect width="23" height="23" fill="white"/>
</clipPath>
</defs>
</svg>
