<svg width="16" height="16" viewBox="0 0 16 16" fill="none" xmlns="http://www.w3.org/2000/svg">
<g clip-path="url(#clip0)">
<path d="M13.9973 6.83145C13.5858 6.49503 13.003 6.38736 12.5124 6.55704C12.381 6.60257 12.2589 6.66641 12.1495 6.74686C11.8706 6.95206 11.2513 7.56802 10.7606 8.17764V3.47854C10.7606 3.07913 10.5964 2.68875 10.3102 2.40737C10.026 2.12808 9.65272 1.97744 9.26099 1.98477C9.08314 1.98794 8.91273 2.02322 8.75525 2.08486V1.62588C8.75525 1.19119 8.57654 0.766259 8.26478 0.459863C7.95582 0.156151 7.55152 -0.00754525 7.12391 0.000267279C6.27137 0.0150378 5.57532 0.708032 5.54981 1.5552C5.36511 1.47146 5.16455 1.42446 4.95691 1.41824C4.5238 1.40554 4.09485 1.57314 3.7804 1.87844C3.47241 2.17739 3.30273 2.57205 3.30273 2.98855L3.30164 3.43362C3.1687 3.38992 3.02698 3.36599 2.87964 3.36599C2.13611 3.36599 1.53125 3.97085 1.53125 4.71426L1.53174 11.5451L1.53283 11.5774C1.59497 12.4739 1.78259 13.2415 2.0907 13.8589C2.37952 14.4378 2.78247 14.9038 3.28833 15.2442C4.28381 15.9141 5.51355 16 6.47364 16C8.35901 16 10.0552 15.0627 10.9034 13.5529C11.0066 13.3866 11.2784 12.9591 11.572 12.4981C11.8579 12.0489 12.1239 11.6349 12.3584 11.2697C12.4873 11.0689 12.6046 10.8863 12.7064 10.7271C13.0857 10.1339 13.4899 9.55887 13.9078 9.01773C14.0629 8.81705 14.1106 8.76261 14.1215 8.75064C14.3171 8.53714 14.4404 8.27579 14.478 7.99466C14.5372 7.55362 14.3619 7.12955 13.9973 6.83145ZM13.5478 7.87015C13.5358 7.95999 13.4949 8.0452 13.4296 8.11649C13.3955 8.15372 13.3346 8.22452 13.1652 8.444C12.7302 9.00699 12.3098 9.60501 11.9156 10.2215C11.8141 10.3803 11.6973 10.5622 11.5686 10.7625C11.3336 11.1285 11.0672 11.5434 10.7803 11.9941C10.4798 12.466 10.2018 12.9031 10.1 13.0675L10.0893 13.0856C9.40858 14.3044 8.0232 15.0614 6.47376 15.0614C5.64697 15.0614 4.59717 14.9937 3.81238 14.4656C3.0116 13.9268 2.57263 12.9661 2.47034 11.5286L2.46985 4.71438C2.46985 4.48843 2.65369 4.30459 2.87964 4.30459C3.10693 4.30459 3.29187 4.48843 3.29187 4.71438V7.27066C3.29187 7.27823 3.29272 7.28555 3.29297 7.29312C3.29346 7.30142 3.29346 7.30985 3.29431 7.31815C3.29504 7.32559 3.29651 7.3328 3.29761 7.34012C3.29883 7.3483 3.29968 7.3566 3.30127 7.36478C3.30286 7.3721 3.30505 7.3793 3.30688 7.38651C3.30884 7.3942 3.31042 7.40213 3.31287 7.4097C3.31506 7.41702 3.31799 7.4241 3.32068 7.43118C3.32324 7.43839 3.32556 7.44571 3.32861 7.45279C3.33154 7.45987 3.33508 7.46658 3.33838 7.47342C3.34167 7.48026 3.34473 7.48721 3.34827 7.49393C3.35181 7.50052 3.35608 7.50687 3.35999 7.51334C3.36389 7.51981 3.36755 7.5264 3.3717 7.53262C3.37598 7.53885 3.38074 7.54471 3.38525 7.55069C3.38977 7.55679 3.39392 7.56302 3.39868 7.56876C3.40344 7.57449 3.40869 7.57974 3.41357 7.58524C3.4187 7.59085 3.42358 7.59683 3.42896 7.6022C3.4342 7.60733 3.4397 7.61197 3.44519 7.61697C3.45081 7.6221 3.4563 7.62759 3.46228 7.63248C3.4679 7.63712 3.47388 7.64127 3.47974 7.64566C3.48596 7.6503 3.49194 7.65518 3.49829 7.65958C3.50427 7.66361 3.51062 7.66702 3.51672 7.67069C3.52344 7.67484 3.53003 7.67923 3.53699 7.68314C3.54334 7.68655 3.55005 7.68936 3.55652 7.69254C3.5636 7.69608 3.57068 7.69974 3.578 7.70291C3.58472 7.70584 3.59192 7.70804 3.59875 7.7106C3.6062 7.71329 3.61353 7.71634 3.62109 7.71878C3.6283 7.72098 3.63586 7.72257 3.64319 7.72452C3.65088 7.72647 3.65833 7.72879 3.66602 7.73038C3.67383 7.73197 3.68164 7.73282 3.68945 7.73404C3.69727 7.73514 3.70483 7.73673 3.71265 7.73758C3.72046 7.73831 3.72852 7.73843 3.73645 7.7388C3.74426 7.73917 3.75208 7.74002 3.76001 7.74002C3.76038 7.74002 3.76086 7.74002 3.76123 7.74002C3.77747 7.74002 3.79346 7.73917 3.8092 7.73758C3.81604 7.73697 3.82275 7.73551 3.82959 7.73453C3.83826 7.73331 3.84717 7.73233 3.85571 7.7305C3.86475 7.72867 3.87341 7.72611 3.8822 7.72379C3.88831 7.72208 3.89465 7.72086 3.90064 7.71903C3.9104 7.71597 3.91992 7.71219 3.92944 7.70853C3.93408 7.7067 3.93909 7.70523 3.94373 7.70328C3.95325 7.69925 3.96228 7.69449 3.97144 7.68997C3.97583 7.68778 3.98035 7.68594 3.98474 7.68363C3.99329 7.67899 4.00134 7.67362 4.00952 7.66849C4.01416 7.66568 4.01892 7.66312 4.02332 7.66007C4.03088 7.65506 4.03809 7.64932 4.04529 7.64371C4.05005 7.64017 4.05493 7.63687 4.05945 7.63309C4.06616 7.62772 4.07227 7.62161 4.07861 7.61575C4.08337 7.61148 4.08826 7.60733 4.0929 7.60294C4.09876 7.59708 4.104 7.59073 4.1095 7.58463C4.11401 7.57962 4.1189 7.57474 4.12317 7.56961C4.12805 7.56363 4.13245 7.55728 4.13709 7.55106C4.14148 7.5452 4.14612 7.53958 4.15015 7.53348C4.15442 7.52725 4.15796 7.52078 4.16187 7.51431C4.16577 7.50784 4.17004 7.5015 4.17371 7.4949C4.17725 7.48831 4.18018 7.48148 4.18347 7.47476C4.18677 7.4678 4.19043 7.46097 4.19348 7.45389C4.19641 7.44705 4.19861 7.43985 4.20117 7.43289C4.20398 7.42557 4.20691 7.41837 4.20935 7.4108C4.21155 7.4036 4.21314 7.39627 4.21497 7.38895C4.21692 7.38126 4.21924 7.37369 4.22095 7.36588C4.22241 7.35855 4.22327 7.35086 4.22437 7.34329C4.22571 7.33536 4.22717 7.32742 4.22803 7.31937C4.22888 7.3118 4.22888 7.30399 4.22925 7.2963C4.22974 7.28812 4.23059 7.28018 4.23059 7.272L4.24146 2.98977C4.24146 2.82815 4.30994 2.67263 4.43421 2.55191C4.56775 2.42239 4.74841 2.35086 4.9292 2.35647C5.26782 2.3666 5.54334 2.66116 5.54334 3.01382L5.54871 7.24588C5.54871 7.25443 5.54956 7.26273 5.55005 7.27103C5.55042 7.27847 5.55042 7.28616 5.55115 7.29349C5.552 7.30228 5.55371 7.3107 5.55506 7.31924C5.55615 7.3262 5.55689 7.33328 5.55823 7.34012C5.56018 7.3494 5.56287 7.35843 5.56531 7.36746C5.5669 7.37332 5.56812 7.3793 5.56983 7.38504C5.57288 7.39481 5.57678 7.40433 5.58045 7.41385C5.58228 7.41861 5.58362 7.42349 5.58557 7.42813C5.58997 7.43826 5.59497 7.44815 5.59998 7.45792C5.60193 7.46158 5.6034 7.46549 5.60535 7.46903C5.61084 7.47916 5.61707 7.4888 5.62317 7.49832C5.62512 7.5015 5.62683 7.50467 5.62891 7.50772C5.63538 7.51737 5.64246 7.5264 5.64954 7.53543C5.65174 7.53824 5.65369 7.54117 5.65589 7.54385C5.66382 7.5535 5.67237 7.56253 5.68103 7.57144C5.68286 7.5734 5.68433 7.57535 5.68616 7.57718C5.69507 7.58609 5.70459 7.59439 5.71424 7.60257C5.71607 7.60416 5.71765 7.60587 5.71948 7.60745C5.72913 7.61539 5.73914 7.62259 5.74927 7.62967C5.75147 7.63126 5.75342 7.63297 5.75562 7.63443C5.76587 7.64139 5.77661 7.64761 5.78736 7.65372C5.78968 7.65506 5.79187 7.65665 5.79431 7.65799C5.80554 7.66397 5.81714 7.66934 5.82886 7.67459C5.83106 7.67557 5.83313 7.67679 5.83533 7.67777C5.84729 7.68277 5.85962 7.68704 5.87207 7.69119C5.87427 7.6918 5.87622 7.69278 5.87842 7.69351C5.89075 7.6973 5.90332 7.70035 5.9159 7.70316C5.91846 7.70364 5.9209 7.7045 5.92346 7.70511C5.95398 7.71134 5.9856 7.71463 6.01795 7.71463C6.01819 7.71463 6.01844 7.71463 6.01868 7.71463C6.02686 7.71463 6.03491 7.71378 6.04297 7.71341C6.05078 7.71292 6.0586 7.71292 6.06629 7.71219C6.07483 7.71121 6.08301 7.70963 6.09143 7.70828C6.09851 7.70718 6.10584 7.70645 6.11292 7.70499C6.12134 7.70328 6.12952 7.70084 6.13782 7.69864C6.14453 7.69681 6.15125 7.69547 6.15784 7.69339C6.16626 7.69083 6.17432 7.68753 6.1825 7.68436C6.1886 7.68204 6.19495 7.68021 6.20093 7.67764C6.20935 7.67398 6.21753 7.66971 6.22571 7.66568C6.23108 7.663 6.2367 7.66068 6.24195 7.65787C6.25 7.65347 6.25769 7.64835 6.26551 7.64359C6.27051 7.64041 6.27576 7.6376 6.28064 7.63431C6.28809 7.6293 6.29505 7.62369 6.30213 7.6182C6.30701 7.61453 6.31201 7.61112 6.31678 7.60721C6.32349 7.60172 6.32984 7.59549 6.33631 7.58951C6.34082 7.58536 6.34558 7.58133 6.3501 7.57694C6.35608 7.57083 6.3617 7.56424 6.36743 7.55789C6.37171 7.55313 6.37622 7.54862 6.38037 7.54361C6.3855 7.53726 6.39014 7.53055 6.3949 7.52408C6.39905 7.51846 6.40345 7.51309 6.40735 7.50748C6.41175 7.50101 6.41541 7.49417 6.41944 7.48746C6.42322 7.48123 6.42737 7.47513 6.43079 7.46878C6.43445 7.46207 6.43738 7.45499 6.44068 7.44815C6.44397 7.44132 6.44764 7.43472 6.45056 7.42764C6.45337 7.42093 6.45569 7.41385 6.45813 7.40689C6.46094 7.39945 6.46399 7.39212 6.46631 7.38455C6.46851 7.37723 6.4701 7.36978 6.47205 7.36234C6.474 7.35477 6.47632 7.34732 6.47779 7.33963C6.47937 7.33194 6.48023 7.32401 6.48145 7.31632C6.48255 7.3085 6.48413 7.30081 6.48487 7.293C6.48572 7.28507 6.48572 7.27701 6.48609 7.26895C6.48658 7.26102 6.48731 7.25333 6.48731 7.24527V1.60342C6.48731 1.24307 6.78028 0.94497 7.14026 0.938745C7.31397 0.936303 7.47901 1.00344 7.60706 1.1293C7.74036 1.26028 7.81678 1.44131 7.81678 1.62588V7.27115C7.81678 7.27969 7.81763 7.28799 7.81812 7.29642C7.81849 7.30386 7.81849 7.31143 7.81922 7.31888C7.82007 7.32718 7.82178 7.33524 7.823 7.34342C7.82422 7.35086 7.82496 7.35831 7.82642 7.36551C7.82813 7.37369 7.83057 7.38162 7.83265 7.38968C7.83448 7.39664 7.83582 7.4036 7.83802 7.41043C7.8407 7.4191 7.84412 7.42752 7.84729 7.43594C7.84949 7.4418 7.85132 7.44779 7.85376 7.45352C7.85755 7.46231 7.86194 7.47073 7.86622 7.47928C7.86866 7.48428 7.87085 7.48953 7.87354 7.49454C7.87818 7.50321 7.88355 7.51138 7.8888 7.51968C7.89161 7.52408 7.89405 7.52884 7.8971 7.53323C7.90271 7.54154 7.90894 7.54947 7.91517 7.5574C7.91822 7.56131 7.9209 7.56546 7.92408 7.56925C7.93091 7.57767 7.93848 7.58548 7.94593 7.59342C7.94886 7.59634 7.95142 7.59964 7.95435 7.60257C7.96204 7.61038 7.97034 7.61746 7.97864 7.62467C7.98169 7.62735 7.9845 7.63028 7.98768 7.63284C7.99695 7.64053 8.00672 7.64749 8.01648 7.65445C8.01893 7.65616 8.02125 7.65811 8.02381 7.65994C8.03431 7.66702 8.04529 7.67349 8.0564 7.67972C8.05848 7.68082 8.06031 7.68228 8.06238 7.68338C8.07459 7.68997 8.08704 7.69583 8.09986 7.70145C8.10108 7.70194 8.10218 7.70267 8.1034 7.70316C8.1167 7.70877 8.13038 7.71365 8.14429 7.71805C8.14502 7.71842 8.14576 7.71866 8.14661 7.7189C8.17579 7.72806 8.20618 7.73428 8.23755 7.73758C8.2378 7.73758 8.23792 7.73758 8.23816 7.73758C8.25391 7.73917 8.2699 7.74002 8.28614 7.74002C8.28626 7.74002 8.28638 7.74002 8.28663 7.74002C8.29493 7.74002 8.30311 7.73917 8.31141 7.7388C8.3191 7.73831 8.32679 7.73831 8.33436 7.73758C8.34302 7.73673 8.35145 7.73502 8.35999 7.73367C8.36695 7.73258 8.37403 7.73184 8.38099 7.73038C8.39014 7.72855 8.39893 7.72586 8.40784 7.72354C8.41382 7.72196 8.42005 7.72073 8.42591 7.7189C8.43543 7.71585 8.44459 7.71219 8.45386 7.70865C8.45887 7.7067 8.46399 7.70511 8.469 7.70303C8.4784 7.69901 8.48743 7.69437 8.49659 7.68973C8.50098 7.68753 8.50562 7.6857 8.51002 7.68326C8.51893 7.67838 8.52747 7.67288 8.53614 7.66739C8.54029 7.66483 8.54456 7.66251 8.54871 7.6597C8.5575 7.65384 8.56568 7.64725 8.57398 7.64078C8.57752 7.63809 8.5813 7.63553 8.58484 7.63272C8.59302 7.62589 8.60071 7.61844 8.60853 7.61112C8.6117 7.60819 8.61512 7.6055 8.61805 7.60245C8.62562 7.59488 8.6327 7.58682 8.63965 7.57864C8.64258 7.57547 8.64564 7.57242 8.64844 7.56912C8.65516 7.56094 8.66126 7.55228 8.66736 7.54373C8.66993 7.54007 8.67286 7.53665 8.67542 7.53299C8.68116 7.52445 8.68628 7.51553 8.69141 7.50662C8.69385 7.50247 8.69666 7.49857 8.69898 7.49429C8.70386 7.48526 8.70801 7.47586 8.71229 7.46646C8.71436 7.46207 8.7168 7.4578 8.71863 7.45328C8.72254 7.44412 8.72571 7.4346 8.72901 7.4252C8.73072 7.4202 8.73292 7.41531 8.7345 7.41007C8.73719 7.40115 8.73926 7.39176 8.74158 7.3826C8.74293 7.37674 8.74476 7.371 8.74598 7.36514C8.74781 7.35611 8.74891 7.34671 8.75025 7.33756C8.7511 7.33121 8.75245 7.32498 8.75306 7.31851C8.75403 7.30997 8.75403 7.30118 8.7544 7.29239C8.75477 7.28519 8.7555 7.27811 8.7555 7.27066V3.39712C8.78602 3.13528 9.00831 2.92788 9.27747 2.92324C9.41578 2.92092 9.54932 2.97537 9.65247 3.07681C9.76038 3.18277 9.82227 3.32925 9.82227 3.47854V9.01798L9.82252 9.03897C9.82508 9.34305 10.0248 9.60001 10.3193 9.67838C10.6119 9.75614 10.9109 9.63321 11.0647 9.36978L11.0676 9.36454C11.4355 8.72171 12.4189 7.71414 12.706 7.50296C12.7392 7.47843 12.7775 7.45877 12.8196 7.44412C13.0066 7.37955 13.2411 7.42532 13.4034 7.55814C13.4798 7.62076 13.5671 7.72574 13.5478 7.87015Z" fill="#3F3C44"/>
</g>
<defs>
<clipPath id="clip0">
<rect width="16" height="16" fill="white"/>
</clipPath>
</defs>
</svg>
