<svg width="320" height="270" viewBox="0 0 320 270" fill="none" xmlns="http://www.w3.org/2000/svg">
<path d="M65.078 227.649C69.1881 221.03 62.7122 208.255 50.7351 210.436C38.758 212.618 39.595 230.388 48.0694 228.074C56.5438 225.76 53.104 201.512 35.1758 202.212C17.2475 202.911 9.60108 229.584 20.2588 231.594C30.9165 233.604 31.8092 200.499 9 197.992" stroke="#FCFCFC" stroke-width="2" stroke-linecap="round"/>
<path d="M22.1536 127.828L51.7729 146.186" stroke="#FCFCFC" stroke-width="2" stroke-linecap="round"/>
<path opacity="0.5" fill-rule="evenodd" clip-rule="evenodd" d="M257.527 72.121C262.793 65.6206 265.282 56.9393 263.627 48.0714C260.631 32.016 245.187 21.4292 229.132 24.425C216.04 26.8678 206.584 37.5874 205.164 50.1663L184.327 162.154L257.852 72.2723L257.527 72.121Z" fill="#BABFBF"/>
<path d="M211.299 65.8163L234.731 53.3973" stroke="#FCFCFC" stroke-width="2" stroke-linecap="round"/>
<path d="M219.799 52.1679L243.231 39.7488" stroke="#FCFCFC" stroke-width="2" stroke-linecap="round"/>
<circle cx="90.7677" cy="111.16" r="2.35281" transform="rotate(14.6401 90.7677 111.16)" fill="#BABFBF"/>
<circle cx="77.7286" cy="107.754" r="2.35281" transform="rotate(14.6401 77.7286 107.754)" fill="#BABFBF"/>
<circle cx="64.6896" cy="104.344" r="2.35281" transform="rotate(14.6401 64.6896 104.344)" fill="#BABFBF"/>
<circle cx="51.6466" cy="100.941" r="2.35281" transform="rotate(14.6401 51.6466 100.941)" fill="#BABFBF"/>
<circle cx="94.2599" cy="97.8007" r="2.35281" transform="rotate(14.6401 94.2599 97.8007)" fill="#BABFBF"/>
<circle cx="38.6036" cy="97.5311" r="2.35281" transform="rotate(14.6401 38.6036 97.5311)" fill="#BABFBF"/>
<circle cx="81.2169" cy="94.3983" r="2.35281" transform="rotate(14.6401 81.2169 94.3983)" fill="#BABFBF"/>
<circle cx="25.5685" cy="94.125" r="2.35281" transform="rotate(14.6401 25.5685 94.125)" fill="#BABFBF"/>
<circle cx="68.1778" cy="90.9921" r="2.35281" transform="rotate(14.6401 68.1778 90.9921)" fill="#BABFBF"/>
<circle cx="12.5255" cy="90.7147" r="2.35281" transform="rotate(14.6401 12.5255 90.7147)" fill="#BABFBF"/>
<circle cx="55.1388" cy="87.582" r="2.35281" transform="rotate(14.6401 55.1388 87.582)" fill="#BABFBF"/>
<circle cx="97.7482" cy="84.4452" r="2.35281" transform="rotate(14.6401 97.7482 84.4452)" fill="#BABFBF"/>
<circle cx="42.0919" cy="84.1797" r="2.35281" transform="rotate(14.6401 42.0919 84.1797)" fill="#BABFBF"/>
<circle cx="84.7091" cy="81.0391" r="2.35281" transform="rotate(14.6401 84.7091 81.0391)" fill="#BABFBF"/>
<circle cx="29.0528" cy="80.7695" r="2.35281" transform="rotate(14.6401 29.0528 80.7695)" fill="#BABFBF"/>
<circle cx="71.6661" cy="77.6327" r="2.35281" transform="rotate(14.6401 71.6661 77.6327)" fill="#BABFBF"/>
<circle cx="16.0138" cy="77.3592" r="2.35281" transform="rotate(14.6401 16.0138 77.3592)" fill="#BABFBF"/>
<circle cx="58.6271" cy="74.2264" r="2.35281" transform="rotate(14.6401 58.6271 74.2264)" fill="#BABFBF"/>
<circle cx="101.236" cy="71.0897" r="2.35281" transform="rotate(14.6401 101.236 71.0897)" fill="#BABFBF"/>
<circle cx="45.5841" cy="70.8241" r="2.35281" transform="rotate(14.6401 45.5841 70.8241)" fill="#BABFBF"/>
<circle cx="88.1935" cy="67.6874" r="2.35281" transform="rotate(14.6401 88.1935 67.6874)" fill="#BABFBF"/>
<circle cx="32.5411" cy="67.4139" r="2.35281" transform="rotate(14.6401 32.5411 67.4139)" fill="#BABFBF"/>
<circle cx="75.1544" cy="64.2772" r="2.35281" transform="rotate(14.6401 75.1544 64.2772)" fill="#BABFBF"/>
<circle cx="19.5021" cy="64.0077" r="2.35281" transform="rotate(14.6401 19.5021 64.0077)" fill="#BABFBF"/>
<circle cx="62.1153" cy="60.871" r="2.35281" transform="rotate(14.6401 62.1153 60.871)" fill="#BABFBF"/>
<circle cx="104.725" cy="57.7344" r="2.35281" transform="rotate(14.6401 104.725 57.7344)" fill="#BABFBF"/>
<circle cx="49.0724" cy="57.4686" r="2.35281" transform="rotate(14.6401 49.0724 57.4686)" fill="#BABFBF"/>
<circle cx="91.6857" cy="54.328" r="2.35281" transform="rotate(14.6401 91.6857 54.328)" fill="#BABFBF"/>
<circle cx="36.0294" cy="54.0585" r="2.35281" transform="rotate(14.6401 36.0294 54.0585)" fill="#BABFBF"/>
<circle cx="78.6427" cy="50.9257" r="2.35281" transform="rotate(14.6401 78.6427 50.9257)" fill="#BABFBF"/>
<circle cx="22.9903" cy="50.6522" r="2.35281" transform="rotate(14.6401 22.9903 50.6522)" fill="#BABFBF"/>
<circle cx="65.6036" cy="47.5155" r="2.35281" transform="rotate(14.6401 65.6036 47.5155)" fill="#BABFBF"/>
<circle cx="52.5646" cy="44.1053" r="2.35281" transform="rotate(14.6401 52.5646 44.1053)" fill="#BABFBF"/>
<circle cx="39.5216" cy="40.703" r="2.35281" transform="rotate(14.6401 39.5216 40.703)" fill="#BABFBF"/>
<circle cx="26.4786" cy="37.2967" r="2.35281" transform="rotate(14.6401 26.4786 37.2967)" fill="#BABFBF"/>
<circle cx="151.5" cy="190.5" r="56.5" stroke="#FCFCFC" stroke-width="2" stroke-linecap="round"/>
<path d="M171 180L146.25 204.75L135 193.5" stroke="#FCFCFC" stroke-width="2" stroke-linecap="round" stroke-linejoin="round"/>
<circle cx="257.085" cy="201.085" r="4.08545" stroke="#FCFCFC" stroke-width="2" stroke-linecap="round"/>
<path d="M278.702 136.581L263.864 149.782" stroke="#FCFCFC" stroke-width="2" stroke-linecap="round"/>
<path d="M310.766 147.848L257 164.162" stroke="#FCFCFC" stroke-width="2" stroke-linecap="round"/>
</svg>
