<svg width="94" height="120" viewBox="0 0 94 120" fill="none" xmlns="http://www.w3.org/2000/svg">
<path d="M20.9407 43.8214C21.1098 41.0108 21.2112 37.5289 21.3446 34.4839H21.4104C21.9478 37.4295 22.7181 40.6433 23.4566 43.287L25.8729 52.0208H29.8638L32.6145 43.2177C33.4882 40.5739 34.4258 37.3602 35.1304 34.4839H35.2319C35.2319 37.7633 35.3334 41.0445 35.4348 43.7558L35.7711 52.3902H40.7691L39.5234 29.832H32.8494L30.435 37.3302C29.6984 39.8408 28.9243 42.8183 28.2892 45.4302H28.1877C27.6861 42.7864 26.9815 39.9739 26.2769 37.3639L24.0653 29.8339H17.2542L15.813 52.392H20.5423L20.9407 43.8214Z" fill="#FCFCFC"/>
<path d="M49.433 44.3189C49.9027 44.3864 50.5059 44.4202 51.1785 44.4202C54.1961 44.4202 56.7797 43.6852 58.5214 42.0445C59.863 40.7752 60.6033 38.9002 60.6033 36.6895C60.6033 34.4827 59.6319 32.6077 58.187 31.4677C56.6801 30.2639 54.431 29.6602 51.2781 29.6602C48.1591 29.6602 45.9476 29.8627 44.3711 30.1289V52.387H49.4349V44.3189H49.433ZM49.433 33.7102C49.8013 33.6089 50.5059 33.5114 51.5468 33.5114C54.0947 33.5114 55.5377 34.7489 55.5377 36.8227C55.5377 39.1345 53.8617 40.5052 51.1428 40.5052C50.4063 40.5052 49.8708 40.4733 49.433 40.372V33.7102Z" fill="#FCFCFC"/>
<path d="M68.6961 48.7419C66.6142 48.7419 64.5361 47.87 63.6304 47.4012L62.5933 51.2169C63.8653 52.0212 66.2478 52.7562 69.0662 52.7562C74.5997 52.7562 77.9893 49.9456 77.9893 46.0962C77.9893 43.2519 75.8755 41.2775 73.26 40.8087V40.7413C75.945 39.8038 77.2528 37.9963 77.2528 35.6881C77.2528 32.7088 74.6692 30.2656 70.0076 30.2656C67.1892 30.2656 64.5737 31.07 63.264 31.9062L64.305 35.5888C65.2125 35.0544 67.0877 34.2837 68.8652 34.2837C71.0109 34.2837 72.0857 35.2531 72.0857 36.56C72.0857 38.4031 69.9061 39.0369 68.1963 39.0706H66.214V42.7194H68.2921C70.5393 42.7194 72.6869 43.6888 72.6869 45.8319C72.6851 47.4688 71.3454 48.7419 68.6961 48.7419Z" fill="#FCFCFC"/>
<path d="M93.9471 106.164V0H13.8647C6.20802 0 0 6.195 0 13.8356V120H80.0824C87.739 120 93.9471 113.805 93.9471 106.164ZM1.87894 13.8356C1.87894 7.24125 7.25647 1.875 13.8647 1.875H92.0681V106.164C92.0681 112.759 86.6906 118.125 80.0824 118.125H1.87894V13.8356Z" fill="#BABFBF"/>
<path d="M80.0016 76.7422H13.7031V78.6172H80.0016V76.7422Z" fill="#BABFBF"/>
<path d="M80.0016 85.9336H13.7031V87.8086H80.0016V85.9336Z" fill="#BABFBF"/>
<path d="M80.0016 95.1289H13.7031V97.0039H80.0016V95.1289Z" fill="#BABFBF"/>
</svg>
