<svg width="36" height="36" viewBox="0 0 36 36" fill="none" xmlns="http://www.w3.org/2000/svg">
<path d="M34.0773 20.01C35.0754 10.7881 26.85 2.29943 19.5786 2.01158C10.051 1.63441 1.05355 10.5303 2.08018 20.01C3.0037 28.5375 10.0054 34.7754 18.5787 34.5087C26.8629 34.2509 33.1855 28.2499 34.0773 20.01Z" stroke="#D3DADA" stroke-width="2" stroke-linecap="round"/>
<path d="M20.498 23.998H14.9985" stroke="#D3DADA" stroke-width="2" stroke-linecap="round"/>
<path d="M13.5789 14.5107C13.5789 15.339 13.1313 15.5106 12.579 15.5106C12.0268 15.5106 11.5791 15.339 11.5791 14.5107C11.5791 13.6823 12.0268 13.5107 12.579 13.5107C13.1313 13.5107 13.5789 13.6823 13.5789 14.5107Z" fill="#D3DADA"/>
<path d="M24.4477 14.8565C24.0384 15.5768 23.5644 15.5048 23.0843 15.2319C22.6041 14.9591 22.2997 14.5888 22.7089 13.8685C23.1182 13.1484 23.5921 13.2204 24.0723 13.4933C24.5525 13.766 24.8569 14.1364 24.4477 14.8565Z" fill="#D3DADA"/>
</svg>
