<svg width="18" height="18" viewBox="0 0 18 18" fill="none" xmlns="http://www.w3.org/2000/svg">
<path d="M14.6562 4.98125H14.2688V3.34375C14.2688 2.02379 13.195 0.95 11.875 0.95H6.125C4.80504 0.95 3.73125 2.02379 3.73125 3.34375V4.98125H3.34375C2.02379 4.98125 0.95 6.05504 0.95 7.375V11.125C0.95 12.445 2.02379 13.5188 3.34375 13.5188H3.73125V15.5938C3.73125 16.3968 4.38448 17.05 5.1875 17.05H12.8125C13.6155 17.05 14.2688 16.3968 14.2688 15.5938V13.5188H14.6562C15.9762 13.5188 17.05 12.445 17.05 11.125V7.375C17.05 6.05504 15.9762 4.98125 14.6562 4.98125ZM4.76875 3.34375C4.76875 2.59596 5.37721 1.9875 6.125 1.9875H11.875C12.6228 1.9875 13.2312 2.59596 13.2312 3.34375V4.98125H4.76875V3.34375ZM13.2312 15.5938C13.2312 15.8246 13.0434 16.0125 12.8125 16.0125H5.1875C4.95665 16.0125 4.76875 15.8246 4.76875 15.5938V11.0188H13.2312V15.5938ZM16.0125 11.125C16.0125 11.8728 15.404 12.4812 14.6562 12.4812H14.2688V11.0188H14.5C14.7865 11.0188 15.0188 10.7865 15.0188 10.5C15.0188 10.2135 14.7865 9.98125 14.5 9.98125H3.5C3.21351 9.98125 2.98125 10.2135 2.98125 10.5C2.98125 10.7865 3.21351 11.0188 3.5 11.0188H3.73125V12.4812H3.34375C2.59596 12.4812 1.9875 11.8728 1.9875 11.125V7.375C1.9875 6.62721 2.59596 6.01875 3.34375 6.01875H14.6562C15.404 6.01875 16.0125 6.62721 16.0125 7.375V11.125Z" fill="#3F3C44" stroke="#3F3C44" stroke-width="0.1"/>
<path d="M10.25 11.9812H7.75C7.46351 11.9812 7.23125 12.2135 7.23125 12.5C7.23125 12.7865 7.46351 13.0188 7.75 13.0188H10.25C10.5365 13.0188 10.7687 12.7865 10.7687 12.5C10.7687 12.2135 10.5365 11.9812 10.25 11.9812Z" fill="#3F3C44" stroke="#3F3C44" stroke-width="0.1"/>
<path d="M10.25 13.9812H7.75C7.46351 13.9812 7.23125 14.2135 7.23125 14.5C7.23125 14.7865 7.46351 15.0188 7.75 15.0188H10.25C10.5365 15.0188 10.7687 14.7865 10.7687 14.5C10.7687 14.2135 10.5365 13.9812 10.25 13.9812Z" fill="#3F3C44" stroke="#3F3C44" stroke-width="0.1"/>
<path d="M5 6.98125H3.5C3.21351 6.98125 2.98125 7.21351 2.98125 7.5C2.98125 7.78649 3.21351 8.01875 3.5 8.01875H5C5.28649 8.01875 5.51875 7.78649 5.51875 7.5C5.51875 7.21351 5.28649 6.98125 5 6.98125Z" fill="#3F3C44" stroke="#3F3C44" stroke-width="0.1"/>
</svg>
