<svg width="400" height="276" viewBox="0 0 400 276" fill="none" xmlns="http://www.w3.org/2000/svg">
<path d="M0.881348 274.444H398.69" stroke="#FCFCFC" stroke-width="1.76211" stroke-linecap="round"/>
<path d="M58.9239 273.962L62.6834 262.062L73.492 263.472L84.5995 274.444L58.9239 273.962Z" fill="#FCFCFC"/>
<path d="M193.651 274.445V256.392" stroke="white" stroke-width="1.76211" stroke-linecap="round"/>
<path d="M111.501 274.445V256.392" stroke="#FCFCFC" stroke-width="1.76211" stroke-linecap="round"/>
<path d="M111.567 256.292H206.997" stroke="#FCFCFC" stroke-width="1.76211" stroke-linecap="round"/>
<path d="M273.927 273.691L287.352 254.429L318.288 247.15L334.665 274.446L273.927 273.691Z" fill="#FCFCFC"/>
<path d="M207.141 255.912V237.86" stroke="white" stroke-width="1.76211" stroke-linecap="round"/>
<path d="M124.99 255.912V237.86" stroke="#FCFCFC" stroke-width="1.76211" stroke-linecap="round"/>
<path d="M125.055 237.758H222.316" stroke="#FCFCFC" stroke-width="1.76211" stroke-linecap="round"/>
<path d="M222.298 236.712V218.66" stroke="white" stroke-width="1.76211" stroke-linecap="round"/>
<path d="M140.146 236.712V218.66" stroke="#FCFCFC" stroke-width="1.76211" stroke-linecap="round"/>
<path d="M249.081 273.506V218.618" stroke="white" stroke-width="1.76211" stroke-linecap="round"/>
<path d="M140.753 218.557H248.765" stroke="#FCFCFC" stroke-width="1.76211" stroke-linecap="round"/>
<rect x="182.472" y="133.812" width="61.9048" height="75.6614" transform="rotate(-17.4949 182.472 133.812)" stroke="#FCFCFC" stroke-width="1.76211" stroke-linecap="round"/>
<path d="M207.729 169.389L164.187 223.941" stroke="#FCFCFC" stroke-width="1.76211" stroke-linecap="round"/>
<path d="M194.264 256.513L193.744 274.441L249.081 274.441V218.913L222.275 218.281L222.528 237.713L207.134 237.965L207.008 256.134L194.264 256.513Z" fill="#FCFCFC"/>
<path d="M211.533 273.062V260.699" stroke="#3F3C44" stroke-width="1.76211" stroke-linecap="round"/>
<path d="M231.961 272.167V259.805" stroke="#3F3C44" stroke-width="1.76211" stroke-linecap="round"/>
<path d="M202.554 259.762L246.382 259.701" stroke="#3F3C44" stroke-width="1.76211" stroke-linecap="round"/>
<path d="M220.736 258.585V246.223" stroke="#3F3C44" stroke-width="1.76211" stroke-linecap="round"/>
<path d="M241.771 259.283L241.272 245.525" stroke="#3F3C44" stroke-width="1.76211" stroke-linecap="round"/>
<path d="M218.705 245.442C226.81 245.231 243.021 244.808 243.021 244.808" stroke="#3F3C44" stroke-width="1.76211" stroke-linecap="round"/>
<path d="M230.408 244.924V232.561" stroke="#3F3C44" stroke-width="1.76211" stroke-linecap="round"/>
<path d="M361.855 215.146C366.667 210.125 369.703 193.742 361.855 183.04C352.045 169.663 334.51 168.664 323.898 179.98C313.287 191.297 321.853 219.732 335.1 219.605C348.348 219.477 337.36 188.163 315.48 198.201C296.752 209.795 300.557 236.044 311.913 236.55C323.269 237.055 311.11 207.554 285.03 222.295" stroke="#FCFCFC" stroke-width="0.881057" stroke-linecap="round"/>
<path d="M184.836 178.146L159.774 179.425" stroke="#FCFCFC" stroke-width="1.76211" stroke-linecap="round"/>
<path d="M301.48 119.433L283.314 126.835" stroke="#FCFCFC" stroke-width="1.76211" stroke-linecap="round"/>
<path d="M208.683 125.219L207.534 113.677L269.085 107.073L277.157 182.302L263.174 183.694" stroke="#FCFCFC" stroke-width="1.76211" stroke-linecap="round"/>
<path d="M241.969 114.286L208.792 120.463L209.316 125.73L241.652 115.581L263.517 184.138L268.363 183.655L241.969 114.286Z" fill="#FCFCFC"/>
<circle cx="208.915" cy="167.901" r="3.1836" transform="rotate(17.1441 208.915 167.901)" fill="#FCFCFC"/>
<circle cx="127.792" cy="197.557" r="2.19154" transform="rotate(14.6401 127.792 197.557)" fill="#D6D1D8"/>
<circle cx="115.643" cy="194.383" r="2.19154" transform="rotate(14.6401 115.643 194.383)" fill="#D6D1D8"/>
<circle cx="103.499" cy="191.207" r="2.19154" transform="rotate(14.6401 103.499 191.207)" fill="#D6D1D8"/>
<circle cx="91.3487" cy="188.04" r="2.19154" transform="rotate(14.6401 91.3487 188.04)" fill="#D6D1D8"/>
<circle cx="131.043" cy="185.112" r="2.19154" transform="rotate(14.6401 131.043 185.112)" fill="#D6D1D8"/>
<circle cx="79.2027" cy="184.864" r="2.19154" transform="rotate(14.6401 79.2027 184.864)" fill="#D6D1D8"/>
<circle cx="118.895" cy="181.942" r="2.19154" transform="rotate(14.6401 118.895 181.942)" fill="#D6D1D8"/>
<circle cx="67.0601" cy="181.686" r="2.19154" transform="rotate(14.6401 67.0601 181.686)" fill="#D6D1D8"/>
<circle cx="106.749" cy="178.768" r="2.19154" transform="rotate(14.6401 106.749 178.768)" fill="#D6D1D8"/>
<circle cx="54.9093" cy="178.514" r="2.19154" transform="rotate(14.6401 54.9093 178.514)" fill="#D6D1D8"/>
<circle cx="94.6046" cy="175.593" r="2.19154" transform="rotate(14.6401 94.6046 175.593)" fill="#D6D1D8"/>
<circle cx="134.293" cy="172.675" r="2.19154" transform="rotate(14.6401 134.293 172.675)" fill="#D6D1D8"/>
<circle cx="82.4522" cy="172.421" r="2.19154" transform="rotate(14.6401 82.4522 172.421)" fill="#D6D1D8"/>
<circle cx="122.149" cy="169.497" r="2.19154" transform="rotate(14.6401 122.149 169.497)" fill="#D6D1D8"/>
<circle cx="70.3072" cy="169.249" r="2.19154" transform="rotate(14.6401 70.3072 169.249)" fill="#D6D1D8"/>
<circle cx="110.001" cy="166.326" r="2.19154" transform="rotate(14.6401 110.001 166.326)" fill="#D6D1D8"/>
<circle cx="58.1588" cy="166.075" r="2.19154" transform="rotate(14.6401 58.1588 166.075)" fill="#D6D1D8"/>
<circle cx="97.8502" cy="163.156" r="2.19154" transform="rotate(14.6401 97.8502 163.156)" fill="#D6D1D8"/>
<circle cx="137.543" cy="160.231" r="2.19154" transform="rotate(14.6401 137.543 160.231)" fill="#D6D1D8"/>
<circle cx="85.7022" cy="159.983" r="2.19154" transform="rotate(14.6401 85.7022 159.983)" fill="#D6D1D8"/>
<circle cx="125.393" cy="157.066" r="2.19154" transform="rotate(14.6401 125.393 157.066)" fill="#D6D1D8"/>
<circle cx="73.5543" cy="156.806" r="2.19154" transform="rotate(14.6401 73.5543 156.806)" fill="#D6D1D8"/>
<circle cx="113.247" cy="153.889" r="2.19154" transform="rotate(14.6401 113.247 153.889)" fill="#D6D1D8"/>
<circle cx="61.4097" cy="153.633" r="2.19154" transform="rotate(14.6401 61.4097 153.633)" fill="#D6D1D8"/>
<circle cx="101.1" cy="150.714" r="2.19154" transform="rotate(14.6401 101.1 150.714)" fill="#D6D1D8"/>
<circle cx="140.791" cy="147.792" r="2.19154" transform="rotate(14.6401 140.791 147.792)" fill="#D6D1D8"/>
<circle cx="88.9542" cy="147.544" r="2.19154" transform="rotate(14.6401 88.9542 147.544)" fill="#D6D1D8"/>
<circle cx="128.645" cy="144.619" r="2.19154" transform="rotate(14.6401 128.645 144.619)" fill="#D6D1D8"/>
<circle cx="76.8057" cy="144.37" r="2.19154" transform="rotate(14.6401 76.8057 144.37)" fill="#D6D1D8"/>
<circle cx="116.496" cy="141.447" r="2.19154" transform="rotate(14.6401 116.496 141.447)" fill="#D6D1D8"/>
<circle cx="64.6578" cy="141.192" r="2.19154" transform="rotate(14.6401 64.6578 141.192)" fill="#D6D1D8"/>
<circle cx="104.352" cy="138.273" r="2.19154" transform="rotate(14.6401 104.352 138.273)" fill="#D6D1D8"/>
<circle cx="92.2037" cy="135.095" r="2.19154" transform="rotate(14.6401 92.2037 135.095)" fill="#D6D1D8"/>
<circle cx="80.0538" cy="131.928" r="2.19154" transform="rotate(14.6401 80.0538 131.928)" fill="#D6D1D8"/>
<circle cx="67.9093" cy="128.754" r="2.19154" transform="rotate(14.6401 67.9093 128.754)" fill="#D6D1D8"/>
<path d="M317.193 82.2188L301.453 85.0127L285.031 81.814" stroke="#FCFCFC" stroke-width="0.881057" stroke-linecap="round"/>
<path d="M317.125 78.7249L317.125 57.7579L301.189 61.0034L301.189 81.9704L317.125 78.7249Z" fill="#BABFBF"/>
<path d="M317.125 78.7249L317.125 57.7579L301.189 61.0034L301.189 81.9704L317.125 78.7249Z" stroke="#BABFBF" stroke-width="1.76211" stroke-linecap="round" stroke-linejoin="round"/>
<path d="M285.254 78.7249L285.254 57.7579L301.19 61.0034L301.19 81.9704L285.254 78.7249Z" fill="#FCFCFC"/>
<path d="M285.254 78.7249L285.254 57.7579L301.19 61.0034L301.19 81.9704L285.254 78.7249Z" stroke="#BABFBF" stroke-width="1.76211" stroke-linecap="round" stroke-linejoin="round"/>
<path opacity="0.5" fill-rule="evenodd" clip-rule="evenodd" d="M135.748 29.9492C140.119 31.3762 144.768 32.4758 149.077 32.6621C155.029 32.9194 160.129 31.4364 163.091 26.9013C162.054 26.2458 158.049 24.2106 149.66 25.3349C141.961 26.3667 137.404 28.8765 135.748 29.9492ZM163.348 29.4698C159.829 33.4612 154.563 34.663 149.001 34.4225C142.58 34.1449 135.549 31.9483 129.764 29.6515C120.823 26.102 115.027 28.8318 110.936 30.758L110.936 30.758C110.73 30.8551 110.528 30.9502 110.331 31.0423C110.82 45.2589 122.499 56.6336 136.835 56.6336C151.482 56.6336 163.355 44.76 163.355 30.1132C163.355 29.8981 163.353 29.6836 163.348 29.4698Z" fill="#EAE8EB"/>
<circle cx="136.832" cy="30.2616" r="29.6919" stroke="#FCFCFC" stroke-width="0.881057" stroke-linecap="round"/>
<path d="M151 56.5964L199.784 128.451" stroke="#FCFCFC" stroke-width="0.881057" stroke-linecap="round"/>
</svg>
