<svg width="33" height="30" viewBox="0 0 33 30" fill="none" xmlns="http://www.w3.org/2000/svg">
<g clip-path="url(#clip0)">
<path d="M29.5792 9.76518L29.194 9.88756C27.9841 10.272 26.6574 9.79807 25.9662 8.73522C25.2751 7.67237 25.3809 6.26679 26.2237 5.31783L26.4918 5.01542L23.7871 0.854215C23.5144 0.434734 23.0935 0.146473 22.6015 0.0421338C22.1096 -0.0629132 21.6073 0.0301081 21.1882 0.302806L0.924025 13.4751C0.504544 13.7478 0.21593 14.169 0.11159 14.661C0.00725101 15.153 0.0999188 15.6549 0.372617 16.074L3.07731 20.2352L3.46248 20.1128C4.67176 19.7277 5.99918 20.2023 6.69029 21.2652C7.38141 22.328 7.27566 23.7336 6.4328 24.6826L6.16471 24.985L8.8694 29.1462C9.1421 29.5657 9.56299 29.8539 10.055 29.9583C10.1869 29.9862 10.3195 30 10.4507 30C10.8101 30 11.1613 29.8971 11.468 29.6976L31.7318 16.5253C32.1513 16.2526 32.4399 15.8314 32.5442 15.3394C32.6486 14.8474 32.5559 14.3455 32.2832 13.9264L29.5792 9.76518ZM31.5069 15.119C31.4616 15.3334 31.3364 15.5169 31.1542 15.6351L15.892 25.5562L14.8907 24.0155C14.7308 23.7697 14.4022 23.7 14.1567 23.8599C13.9109 24.0194 13.8416 24.3483 14.0011 24.5938L15.0024 26.1345L10.8904 28.8077C10.7086 28.9258 10.4911 28.9665 10.2757 28.9202C10.061 28.8745 9.87778 28.7497 9.75965 28.5679L7.48292 25.0656C8.40146 23.7785 8.45558 22.033 7.58019 20.6869C6.7048 19.3404 5.08806 18.6825 3.53853 18.998L1.2618 15.4961C1.14367 15.3139 1.1037 15.0961 1.14933 14.8814C1.1946 14.667 1.31981 14.4835 1.50196 14.3653L5.63664 11.6776C5.65079 11.7289 5.67024 11.7791 5.70101 11.8262L6.9255 13.7099C7.02736 13.8663 7.19749 13.9515 7.3708 13.9515C7.46984 13.9515 7.56993 13.9239 7.65942 13.8659C7.90523 13.7064 7.97456 13.3775 7.81504 13.132L6.59055 11.2482C6.56013 11.2012 6.52194 11.1626 6.48091 11.129L21.7661 1.19305C21.9479 1.07492 22.1654 1.03424 22.3808 1.08058C22.5955 1.12621 22.7787 1.25106 22.8969 1.43286L25.1736 4.93513C24.2551 6.22223 24.2009 7.9677 25.0763 9.31386C25.9517 10.6607 27.5685 11.3182 29.118 11.0028L31.3947 14.5047C31.5125 14.6861 31.5525 14.9043 31.5069 15.119Z" fill="#FCFCFC"/>
<path d="M10.5817 17.388L9.35714 15.5042C9.19762 15.2584 8.86904 15.1887 8.62322 15.3486C8.3774 15.5081 8.30808 15.8371 8.46759 16.0825L9.69208 17.9663C9.79395 18.1226 9.96407 18.2079 10.1374 18.2079C10.2365 18.2079 10.3366 18.1803 10.426 18.1223C10.6719 17.962 10.7412 17.6335 10.5817 17.388Z" fill="#FCFCFC"/>
<path d="M13.3483 21.6434L12.1238 19.7596C11.9639 19.5138 11.6357 19.4441 11.3899 19.604C11.144 19.7635 11.0747 20.0924 11.2342 20.3379L12.4587 22.2217C12.5606 22.378 12.7307 22.4632 12.904 22.4632C13.0031 22.4632 13.1032 22.4356 13.1926 22.3776C13.4385 22.2174 13.5078 21.8888 13.3483 21.6434Z" fill="#FCFCFC"/>
<path d="M19.6213 10.2819L16.9463 8.67969L15.487 11.435L13.1367 13.4836L15.3063 15.7228L16.5286 18.5909L19.3288 17.22L22.4346 16.9441L21.9957 13.8571L22.6928 10.8181L19.6213 10.2819ZM21.2264 15.9863L19.0388 16.1808L17.0662 17.1468L16.2053 15.1261L14.677 13.5486L16.3327 12.1056L17.3609 10.1648L19.245 11.2931L21.4085 11.6709L20.9173 13.8118L21.2264 15.9863Z" fill="#FCFCFC"/>
</g>
<defs>
<clipPath id="clip0">
<rect width="33" height="30" fill="white"/>
</clipPath>
</defs>
</svg>
