<svg width="280" height="242" viewBox="0 0 280 242" fill="none" xmlns="http://www.w3.org/2000/svg">
<path d="M18.0352 240.148H259.173" stroke="#BABFBF" stroke-width="3" stroke-linecap="round"/>
<path d="M141.606 74.1733L149.226 42.9725" stroke="#3F3C44" stroke-width="2" stroke-linecap="round"/>
<path d="M82.1955 90.7414L55.4902 72.8987" stroke="#3F3C44" stroke-width="2" stroke-linecap="round"/>
<circle cx="249.664" cy="105.097" r="1.23101" transform="rotate(-5.46053 249.664 105.097)" fill="#BABFBF"/>
<circle cx="242.644" cy="105.766" r="1.23101" transform="rotate(-5.46053 242.644 105.766)" fill="#BABFBF"/>
<circle cx="235.625" cy="106.44" r="1.23101" transform="rotate(-5.46053 235.625 106.44)" fill="#BABFBF"/>
<circle cx="228.601" cy="107.109" r="1.23101" transform="rotate(-5.46053 228.601 107.109)" fill="#BABFBF"/>
<circle cx="248.976" cy="97.9105" r="1.23101" transform="rotate(-5.46053 248.976 97.9105)" fill="#BABFBF"/>
<circle cx="221.585" cy="107.778" r="1.23101" transform="rotate(-5.46053 221.585 107.778)" fill="#BABFBF"/>
<circle cx="241.96" cy="98.5801" r="1.23101" transform="rotate(-5.46053 241.96 98.5801)" fill="#BABFBF"/>
<circle cx="214.561" cy="108.452" r="1.23101" transform="rotate(-5.46053 214.561 108.452)" fill="#BABFBF"/>
<circle cx="234.932" cy="99.2457" r="1.23101" transform="rotate(-5.46053 234.932 99.2457)" fill="#BABFBF"/>
<circle cx="207.538" cy="109.125" r="1.23101" transform="rotate(-5.46053 207.538 109.125)" fill="#BABFBF"/>
<circle cx="227.916" cy="99.9189" r="1.23101" transform="rotate(-5.46053 227.916 99.9189)" fill="#BABFBF"/>
<circle cx="248.291" cy="90.7168" r="1.23101" transform="rotate(-5.46053 248.291 90.7168)" fill="#BABFBF"/>
<circle cx="220.893" cy="100.592" r="1.23101" transform="rotate(-5.46053 220.893 100.592)" fill="#BABFBF"/>
<circle cx="241.272" cy="91.3862" r="1.23101" transform="rotate(-5.46053 241.272 91.3862)" fill="#BABFBF"/>
<circle cx="213.877" cy="101.262" r="1.23101" transform="rotate(-5.46053 213.877 101.262)" fill="#BABFBF"/>
<circle cx="234.248" cy="92.0557" r="1.23101" transform="rotate(-5.46053 234.248 92.0557)" fill="#BABFBF"/>
<circle cx="206.853" cy="101.931" r="1.23101" transform="rotate(-5.46053 206.853 101.931)" fill="#BABFBF"/>
<circle cx="227.228" cy="92.7251" r="1.23101" transform="rotate(-5.46053 227.228 92.7251)" fill="#BABFBF"/>
<circle cx="247.599" cy="83.5267" r="1.23101" transform="rotate(-5.46053 247.599 83.5267)" fill="#BABFBF"/>
<circle cx="220.208" cy="93.4021" r="1.23101" transform="rotate(-5.46053 220.208 93.4021)" fill="#BABFBF"/>
<circle cx="240.579" cy="84.1962" r="1.23101" transform="rotate(-5.46053 240.579 84.1962)" fill="#BABFBF"/>
<circle cx="213.185" cy="94.0717" r="1.23101" transform="rotate(-5.46053 213.185 94.0717)" fill="#BABFBF"/>
<circle cx="233.559" cy="84.8694" r="1.23101" transform="rotate(-5.46053 233.559 84.8694)" fill="#BABFBF"/>
<circle cx="206.165" cy="94.7411" r="1.23101" transform="rotate(-5.46053 206.165 94.7411)" fill="#BABFBF"/>
<circle cx="226.54" cy="85.5427" r="1.23101" transform="rotate(-5.46053 226.54 85.5427)" fill="#BABFBF"/>
<circle cx="246.915" cy="76.3405" r="1.23101" transform="rotate(-5.46053 246.915 76.3405)" fill="#BABFBF"/>
<circle cx="219.52" cy="86.2122" r="1.23101" transform="rotate(-5.46053 219.52 86.2122)" fill="#BABFBF"/>
<circle cx="239.895" cy="77.0062" r="1.23101" transform="rotate(-5.46053 239.895 77.0062)" fill="#BABFBF"/>
<circle cx="212.5" cy="86.8854" r="1.23101" transform="rotate(-5.46053 212.5 86.8854)" fill="#BABFBF"/>
<circle cx="232.871" cy="77.6794" r="1.23101" transform="rotate(-5.46053 232.871 77.6794)" fill="#BABFBF"/>
<circle cx="205.48" cy="87.551" r="1.23101" transform="rotate(-5.46053 205.48 87.551)" fill="#BABFBF"/>
<circle cx="225.855" cy="78.3527" r="1.23101" transform="rotate(-5.46053 225.855 78.3527)" fill="#BABFBF"/>
<circle cx="218.831" cy="79.0221" r="1.23101" transform="rotate(-5.46053 218.831 79.0221)" fill="#BABFBF"/>
<circle cx="211.812" cy="79.6953" r="1.23101" transform="rotate(-5.46053 211.812 79.6953)" fill="#BABFBF"/>
<circle cx="204.788" cy="80.3647" r="1.23101" transform="rotate(-5.46053 204.788 80.3647)" fill="#BABFBF"/>
<circle cx="70.9799" cy="120.903" r="7.36056" transform="rotate(1.72154 70.9799 120.903)" stroke="#3F3C44" stroke-width="2" stroke-linecap="round"/>
<path d="M122.778 59.8578C122.865 59.5067 122.916 59.141 122.928 58.7646C122.948 58.0959 122.839 57.4532 122.625 56.8601C123.458 56.7905 124.294 56.7389 125.133 56.7053C136.621 56.2451 147.987 59.2018 157.795 65.2016C167.602 71.2014 175.411 79.9748 180.232 90.4122C185.054 100.85 186.672 112.482 184.882 123.84C183.092 135.197 177.974 145.768 170.177 154.217C169.615 154.825 168.666 154.863 168.057 154.302C167.448 153.74 167.41 152.791 167.972 152.182C175.368 144.169 180.221 134.143 181.918 123.373C183.616 112.602 182.081 101.569 177.509 91.6703C172.936 81.7715 165.531 73.4509 156.229 67.7607C146.928 62.0706 136.148 59.2664 125.253 59.7029C124.425 59.736 123.6 59.7877 122.778 59.8578Z" fill="#3F3C44"/>
<path d="M113.491 61.4576C106.875 63.1904 100.605 66.148 95.0198 70.2127C86.2033 76.6286 79.4873 85.5149 75.7211 95.7477C73.5956 101.523 72.4635 107.58 72.3396 113.668C71.9693 113.598 71.589 113.557 71.2008 113.545C70.5597 113.526 69.9354 113.589 69.3379 113.725C69.4562 107.267 70.6507 100.838 72.9057 94.7115C76.8769 83.9218 83.9583 74.552 93.2546 67.787C99.1164 63.5213 105.693 60.412 112.632 58.5814C112.626 59.6419 112.942 60.6326 113.491 61.4576Z" fill="#3F3C44"/>
<path d="M70.911 128.263C71.9543 128.273 72.9509 128.064 73.8561 127.68L73.8613 127.701C76.4149 138.302 82.0546 147.907 90.0673 155.303C90.6761 155.864 90.7141 156.813 90.1522 157.422C89.5903 158.031 88.6414 158.069 88.0326 157.507C79.5839 149.709 73.6373 139.581 70.9447 128.404L70.911 128.263Z" fill="#3F3C44"/>
<circle cx="117.781" cy="58.6099" r="5.14893" transform="rotate(1.72154 117.781 58.6099)" stroke="#3F3C44" stroke-width="2" stroke-linecap="round"/>
<circle cx="209.174" cy="202.474" r="10.3918" fill="#BABFBF"/>
<path d="M106.84 223.887L95.5117 239.783L149.821 239.376L135.881 217.691L106.84 223.887Z" fill="#BABFBF"/>
<path d="M199.525 204.668C199.691 205.852 218.616 206.146 218.667 204.782C218.717 203.418 199.359 203.484 199.525 204.668Z" fill="#3F3C44"/>
<rect width="27.0911" height="38.9" transform="matrix(-0.82285 -0.568259 -0.568259 0.82285 150.496 112.887)" stroke="#3F3C44" stroke-width="3" stroke-linecap="round" stroke-linejoin="round"/>
<path fill-rule="evenodd" clip-rule="evenodd" d="M96.4777 161.711C96.8326 149.905 103.285 139.717 112.726 134.077L115.468 135.971C106.225 140.934 99.8142 150.562 99.4764 161.801C98.9731 178.547 112.14 192.529 128.885 193.032C136.368 193.257 143.3 190.752 148.724 186.417L149.044 189.929C143.339 193.97 136.321 196.257 128.795 196.031C110.393 195.478 95.9247 180.113 96.4777 161.711ZM161.106 174.175C162.303 170.903 163.004 167.387 163.114 163.714C163.589 147.917 152.993 134.357 138.342 130.486L136.517 133.128C150.393 136.264 160.559 148.872 160.116 163.624C160 167.473 159.172 171.132 157.763 174.48L161.106 174.175Z" fill="#3F3C44"/>
<rect width="20.782" height="29.8408" transform="matrix(-0.995861 0.0908857 0.0908857 0.995861 168.414 173.508)" stroke="#3F3C44" stroke-width="3" stroke-linecap="round" stroke-linejoin="round"/>
<rect width="21.7509" height="31.2321" transform="matrix(-0.761668 -0.647968 -0.647968 0.761668 79.2852 174.923)" stroke="#3F3C44" stroke-width="3" stroke-linecap="round" stroke-linejoin="round"/>
<path d="M120.482 104.595L67.7422 20.3929" stroke="#3F3C44" stroke-width="2" stroke-linecap="round"/>
<circle cx="121.294" cy="105.794" r="2.72022" transform="rotate(-12.5358 121.294 105.794)" fill="#3F3C44"/>
<path d="M150.98 139.602C138.965 137.885 131.136 143.355 128.723 146.305L137.037 133.167C138.646 133.077 143.687 134.238 150.98 139.602Z" fill="#3F3C44"/>
<path d="M139.922 192.168C145.179 187.703 146.672 179.506 146.762 175.965L149.284 187.757C148.983 187.937 146.691 189.071 139.922 192.168Z" fill="#3F3C44"/>
</svg>
