<svg width="16" height="16" viewBox="0 0 16 16" fill="none" xmlns="http://www.w3.org/2000/svg">
<path d="M7.9998 10.3943C8.16908 10.3943 8.33142 10.3235 8.45112 10.1975C8.57082 10.0715 8.63807 9.90057 8.63807 9.72237V2.28681L11.2337 5.01916C11.2914 5.08285 11.3607 5.13356 11.4375 5.16821C11.5143 5.20286 11.597 5.22072 11.6805 5.22072C11.7641 5.22072 11.8468 5.20286 11.9236 5.16821C12.0004 5.13356 12.0697 5.08285 12.1273 5.01916C12.1884 4.95655 12.237 4.88168 12.2702 4.79898C12.3033 4.71627 12.3204 4.62741 12.3204 4.53764C12.3204 4.44786 12.3033 4.359 12.2702 4.2763C12.237 4.19359 12.1884 4.11873 12.1273 4.05612L8.44659 0.181564C8.38914 0.116526 8.31538 0.0699363 8.23383 0.0471866C8.16145 0.00913955 8.08027 -0.00639866 7.9998 0.00239395C7.91933 -0.00639866 7.83815 0.00913955 7.76577 0.0471866C7.68422 0.0699363 7.61046 0.116526 7.55301 0.181564L3.87233 4.05612C3.81122 4.11873 3.76264 4.19359 3.72946 4.2763C3.69629 4.359 3.6792 4.44786 3.6792 4.53764C3.6792 4.62741 3.69629 4.71627 3.72946 4.79898C3.76264 4.88168 3.81122 4.95655 3.87233 5.01916C3.92996 5.08285 3.99927 5.13356 4.07608 5.16821C4.15288 5.20286 4.23556 5.22072 4.31912 5.22072C4.40268 5.22072 4.48536 5.20286 4.56217 5.16821C4.63897 5.13356 4.70828 5.08285 4.76591 5.01916L7.36153 2.28681V9.72237C7.36153 9.90057 7.42878 10.0715 7.54848 10.1975C7.66817 10.3235 7.83052 10.3943 7.9998 10.3943Z" fill="#3F3C44"/>
<path d="M15.3614 8.6027C15.1921 8.6027 15.0297 8.67348 14.91 8.79949C14.7903 8.92549 14.7231 9.09639 14.7231 9.27458V13.9778C14.7231 14.0966 14.6783 14.2105 14.5985 14.2945C14.5187 14.3785 14.4104 14.4257 14.2976 14.4257H1.70243C1.58957 14.4257 1.48134 14.3785 1.40154 14.2945C1.32175 14.2105 1.27692 14.0966 1.27692 13.9778V9.27458C1.27692 9.09639 1.20967 8.92549 1.08997 8.79949C0.970273 8.67348 0.807927 8.6027 0.638648 8.6027C0.554029 8.59957 0.469704 8.61481 0.390921 8.64746C0.312138 8.68012 0.240584 8.7295 0.180713 8.79253C0.120841 8.85555 0.0739336 8.93088 0.0429094 9.01381C0.0118852 9.09674 -0.00259168 9.18551 0.000380184 9.27458V13.9778C0.000380184 14.453 0.179703 14.9087 0.498898 15.2447C0.818094 15.5807 1.25102 15.7695 1.70243 15.7695H14.2976C14.749 15.7695 15.1819 15.5807 15.5011 15.2447C15.8203 14.9087 15.9996 14.453 15.9996 13.9778V9.27458C16.0026 9.18551 15.9881 9.09674 15.9571 9.01381C15.9261 8.93088 15.8792 8.85555 15.8193 8.79253C15.7594 8.7295 15.6879 8.68012 15.6091 8.64746C15.5303 8.61481 15.446 8.59957 15.3614 8.6027Z" fill="#3F3C44"/>
</svg>
