<svg width="280" height="240" viewBox="0 0 280 240" fill="none" xmlns="http://www.w3.org/2000/svg">
<path d="M139.498 130.777C133.047 127.293 124.333 127.636 120.782 128.242C120.635 129.241 120.889 132.366 123.078 136.877C125.268 141.388 135.858 148.692 140.878 151.78L145.984 152.182C151.881 149.447 156.563 146.566 161.695 141.793C166.828 137.021 167.905 129.208 167.778 126.333C165.395 134.382 147.563 135.131 139.498 130.777Z" fill="#BABFBF"/>
<path d="M140.213 180.415L142.112 151.406L144.476 151.765L145.921 180.697L168.578 190.196L168.294 199.372L119.593 198.513L120.215 189.958L140.213 180.415Z" fill="#BABFBF"/>
<path d="M114.188 198.345L171.4 198.311" stroke="#3F3C44" stroke-width="3" stroke-linecap="round"/>
<path d="M115.167 105.765L172.379 105.731" stroke="#3F3C44" stroke-width="3" stroke-linecap="round"/>
<path d="M119.16 197.794C119.537 182.804 118.283 174.494 122.843 167.475C127.403 160.456 141.197 152.522 141.197 152.522" stroke="#3F3C44" stroke-width="3" stroke-linecap="round"/>
<path d="M167.158 189.903C167.158 189.903 168.091 174.754 163.605 167.688C159.119 160.622 145.408 152.544 145.408 152.544" stroke="#3F3C44" stroke-width="3" stroke-linecap="round"/>
<path d="M119.634 106.875C119.855 121.868 118.515 130.164 123.001 137.23C127.487 144.297 141.198 152.374 141.198 152.374" stroke="#3F3C44" stroke-width="3" stroke-linecap="round"/>
<path d="M167.446 107.124L167.521 128.57" stroke="#3F3C44" stroke-width="3" stroke-linecap="round"/>
<path d="M167.902 127.919C159.023 122.32 143.542 126.734 137.649 129.067L145.851 133.033L155.44 133.837C157.269 133.444 163.502 130.793 167.902 127.919Z" fill="#3F3C44"/>
<path d="M120.956 128.449C124.526 126.944 130.397 127.353 134.926 129.198C140.586 131.505 155.546 139.83 167.335 128.643" stroke="#3F3C44" stroke-width="3" stroke-linecap="round"/>
<circle opacity="0.3" r="27.3784" transform="matrix(-0.764739 -0.64434 -0.64434 0.764739 96.2493 50.535)" fill="#BABFBF"/>
<path d="M98.5575 63.8022L133.175 113.198" stroke="#3F3C44" stroke-width="2" stroke-linecap="round"/>
<path d="M118.907 24.2696L111.688 33.6134" stroke="#3F3C44" stroke-width="2" stroke-linecap="round"/>
<path d="M79.3829 57.6744L59.1062 61.488" stroke="#3F3C44" stroke-width="2" stroke-linecap="round"/>
<circle r="2.95026" transform="matrix(-0.984557 0.175062 0.175062 0.984557 133.102 113.271)" fill="#3F3C44"/>
<path d="M69.189 3.80371L88.1847 47.4343" stroke="#3F3C44" stroke-width="2" stroke-linecap="round"/>
<path d="M222.13 142.309L221.913 126.411L235.366 128.689L235.583 144.587L222.13 142.309Z" fill="#E6ECEC"/>
<circle r="2.95026" transform="matrix(-0.950215 0.311594 0.311594 0.950215 254.605 110.782)" fill="#3F3C44"/>
<circle r="3.86637" transform="matrix(0.858514 -0.512791 -0.512791 -0.858514 114.124 228.951)" fill="#3F3C44"/>
<path d="M221.992 141.81L221.774 125.862L208.045 128.518L208.263 144.467L221.992 141.81Z" stroke="#3F3C44" stroke-width="2" stroke-linecap="round" stroke-linejoin="round"/>
<path d="M221.992 141.81L221.774 125.862L235.571 128.142L235.789 144.09L221.992 141.81Z" stroke="#3F3C44" stroke-width="2" stroke-linecap="round" stroke-linejoin="round"/>
<path d="M194.467 142.186L194.249 126.238L208.045 128.518L208.263 144.467L194.467 142.186Z" stroke="#3F3C44" stroke-width="2" stroke-linecap="round" stroke-linejoin="round"/>
<path d="M235.954 148.88L221.84 146.454C217.351 147.492 208.65 149.422 208.65 149.422L194.636 146.981" stroke="#3F3C44" stroke-width="2" stroke-linecap="round" stroke-linejoin="round"/>
<path d="M228.971 134.205L253.386 111.851" stroke="#3F3C44" stroke-width="2" stroke-linecap="round" stroke-linejoin="round"/>
<path d="M140.151 191.622L115.374 227.232" stroke="#3F3C44" stroke-width="2" stroke-linecap="round" stroke-linejoin="round"/>
<path d="M191.396 203.131L203.258 211.897" stroke="#3F3C44" stroke-width="2" stroke-linecap="round" stroke-linejoin="round"/>
<circle r="1.65825" transform="matrix(-0.954314 -0.298805 -0.298805 0.954314 89.278 138.008)" fill="#BABFBF"/>
<circle r="1.65825" transform="matrix(-0.954314 -0.298805 -0.298805 0.954314 80.212 135.169)" fill="#BABFBF"/>
<circle r="1.65825" transform="matrix(-0.954314 -0.298805 -0.298805 0.954314 71.1471 132.327)" fill="#BABFBF"/>
<circle r="1.65825" transform="matrix(-0.954314 -0.298805 -0.298805 0.954314 62.0787 129.49)" fill="#BABFBF"/>
<circle r="1.65825" transform="matrix(-0.954314 -0.298805 -0.298805 0.954314 53.0138 126.652)" fill="#BABFBF"/>
<circle r="1.65825" transform="matrix(-0.954314 -0.298805 -0.298805 0.954314 43.9469 123.812)" fill="#BABFBF"/>
<circle r="1.65825" transform="matrix(-0.954314 -0.298805 -0.298805 0.954314 34.882 120.974)" fill="#BABFBF"/>
<circle r="1.65825" transform="matrix(-0.954314 -0.298805 -0.298805 0.954314 86.3707 147.289)" fill="#BABFBF"/>
<circle r="1.65825" transform="matrix(-0.954314 -0.298805 -0.298805 0.954314 77.3038 144.453)" fill="#BABFBF"/>
<circle r="1.65825" transform="matrix(-0.954314 -0.298805 -0.298805 0.954314 68.2374 141.614)" fill="#BABFBF"/>
<circle r="1.65825" transform="matrix(-0.954314 -0.298805 -0.298805 0.954314 59.172 138.778)" fill="#BABFBF"/>
<circle r="1.65825" transform="matrix(-0.954314 -0.298805 -0.298805 0.954314 50.1066 135.939)" fill="#BABFBF"/>
<circle r="1.65825" transform="matrix(-0.954314 -0.298805 -0.298805 0.954314 41.0416 133.101)" fill="#BABFBF"/>
<circle r="1.65825" transform="matrix(-0.954314 -0.298805 -0.298805 0.954314 31.9752 130.259)" fill="#BABFBF"/>
<circle r="1.65825" transform="matrix(-0.954314 -0.298805 -0.298805 0.954314 83.463 156.573)" fill="#BABFBF"/>
<circle r="1.65825" transform="matrix(-0.954314 -0.298805 -0.298805 0.954314 74.3976 153.737)" fill="#BABFBF"/>
<circle r="1.65825" transform="matrix(-0.954314 -0.298805 -0.298805 0.954314 65.3307 150.902)" fill="#BABFBF"/>
<circle r="1.65825" transform="matrix(-0.954314 -0.298805 -0.298805 0.954314 56.2672 148.057)" fill="#BABFBF"/>
<circle r="1.65825" transform="matrix(-0.954314 -0.298805 -0.298805 0.954314 47.2003 145.221)" fill="#BABFBF"/>
<circle r="1.65825" transform="matrix(-0.954314 -0.298805 -0.298805 0.954314 38.1354 142.379)" fill="#BABFBF"/>
<circle r="1.65825" transform="matrix(-0.954314 -0.298805 -0.298805 0.954314 29.067 139.545)" fill="#BABFBF"/>
<circle r="1.65825" transform="matrix(-0.954314 -0.298805 -0.298805 0.954314 80.5558 165.86)" fill="#BABFBF"/>
<circle r="1.65825" transform="matrix(-0.954314 -0.298805 -0.298805 0.954314 71.4894 163.021)" fill="#BABFBF"/>
<circle r="1.65825" transform="matrix(-0.954314 -0.298805 -0.298805 0.954314 62.424 160.185)" fill="#BABFBF"/>
<circle r="1.65825" transform="matrix(-0.954314 -0.298805 -0.298805 0.954314 53.359 157.343)" fill="#BABFBF"/>
<circle r="1.65825" transform="matrix(-0.954314 -0.298805 -0.298805 0.954314 44.2936 154.505)" fill="#BABFBF"/>
<circle r="1.65825" transform="matrix(-0.954314 -0.298805 -0.298805 0.954314 35.2243 151.668)" fill="#BABFBF"/>
<circle r="1.65825" transform="matrix(-0.954314 -0.298805 -0.298805 0.954314 26.1618 148.83)" fill="#BABFBF"/>
<circle r="1.65825" transform="matrix(-0.954314 -0.298805 -0.298805 0.954314 77.6491 175.145)" fill="#BABFBF"/>
<circle r="1.65825" transform="matrix(-0.954314 -0.298805 -0.298805 0.954314 68.5827 172.306)" fill="#BABFBF"/>
<circle r="1.65825" transform="matrix(-0.954314 -0.298805 -0.298805 0.954314 59.5162 169.466)" fill="#BABFBF"/>
<circle r="1.65825" transform="matrix(-0.954314 -0.298805 -0.298805 0.954314 50.4523 166.631)" fill="#BABFBF"/>
<circle r="1.65825" transform="matrix(-0.954314 -0.298805 -0.298805 0.954314 41.3873 163.789)" fill="#BABFBF"/>
<circle r="1.65825" transform="matrix(-0.954314 -0.298805 -0.298805 0.954314 32.3204 160.954)" fill="#BABFBF"/>
<circle r="1.65825" transform="matrix(-0.954314 -0.298805 -0.298805 0.954314 23.2521 158.117)" fill="#BABFBF"/>
<circle opacity="0.3" r="11.8199" transform="matrix(-0.990668 0.136301 0.136301 0.990668 200.838 38.9052)" fill="#BABFBF"/>
<path d="M191.088 43.2526C191.24 45.0093 210.548 45.1603 210.62 43.1325C210.693 41.1047 190.937 41.4959 191.088 43.2526Z" fill="#3F3C44"/>
</svg>
