<svg width="125" height="24" viewBox="0 0 125 24" fill="none" xmlns="http://www.w3.org/2000/svg">
<path d="M14.6707 14.4912L15.0224 14.7147V14.7147L14.6707 14.4912ZM11.0292 16.1138C8.86528 16.1138 7.08268 14.2826 7.08268 11.9879H6.24935C6.24935 14.7108 8.37372 16.9471 11.0292 16.9471V16.1138ZM7.08268 11.9879C7.08268 9.69324 8.86528 7.86198 11.0292 7.86198V7.02865C8.37372 7.02865 6.24935 9.26496 6.24935 11.9879H7.08268ZM11.0292 7.86198C12.4537 7.86198 13.7092 8.65198 14.4049 9.84928L15.1254 9.4306C14.2925 7.99711 12.7736 7.02865 11.0292 7.02865V7.86198ZM14.3191 14.2677C13.6086 15.3856 12.3971 16.1138 11.0292 16.1138V16.9471C12.7038 16.9471 14.171 16.0544 15.0224 14.7147L14.3191 14.2677ZM14.4783 13.9949C14.4285 14.0881 14.3754 14.1791 14.3191 14.2677L15.0224 14.7147C15.09 14.6083 15.1537 14.4991 15.2134 14.3873L14.4783 13.9949Z" fill="#4B54B9"/>
<path d="M19.5332 12.7202L19.8434 12.7583C19.8567 12.6497 19.8123 12.5421 19.7263 12.4745C19.6403 12.4069 19.5253 12.3892 19.4229 12.4278L19.5332 12.7202ZM16.7146 12.7202L16.8249 12.4278C16.7226 12.3892 16.6075 12.4069 16.5215 12.4745C16.4355 12.5421 16.3911 12.6497 16.4044 12.7583L16.7146 12.7202ZM19.5332 12.7202C19.223 12.6821 19.2231 12.682 19.2231 12.6819C19.2231 12.6818 19.2231 12.6818 19.2231 12.6817C19.2231 12.6816 19.2231 12.6815 19.2231 12.6815C19.2231 12.6814 19.2231 12.6814 19.2231 12.6815C19.2231 12.6818 19.223 12.6824 19.2229 12.6833C19.2226 12.6853 19.2221 12.6888 19.2214 12.6936C19.22 12.7034 19.2176 12.7187 19.2141 12.7387C19.2071 12.7789 19.1957 12.8377 19.1785 12.9088C19.1437 13.0524 19.0867 13.2398 18.9981 13.4238C18.8165 13.801 18.5464 14.0861 18.1239 14.0861L18.1239 14.7111C18.9044 14.7111 19.3389 14.1569 19.5613 13.6949C19.6747 13.4593 19.7444 13.2271 19.7859 13.056C19.8068 12.9699 19.8209 12.8975 19.8299 12.8459C19.8344 12.8201 19.8376 12.7993 19.8398 12.7844C19.8409 12.777 19.8417 12.771 19.8423 12.7666C19.8426 12.7645 19.8428 12.7627 19.843 12.7613C19.8431 12.7606 19.8432 12.76 19.8432 12.7595C19.8433 12.7592 19.8433 12.759 19.8433 12.7588C19.8433 12.7587 19.8433 12.7586 19.8433 12.7585C19.8434 12.7584 19.8434 12.7583 19.5332 12.7202ZM18.1239 14.0861C17.7014 14.0861 17.4313 13.801 17.2497 13.4238C17.1612 13.2398 17.1042 13.0524 17.0694 12.9088C17.0521 12.8377 17.0407 12.7789 17.0337 12.7387C17.0302 12.7187 17.0278 12.7034 17.0264 12.6936C17.0257 12.6888 17.0252 12.6853 17.025 12.6833C17.0248 12.6824 17.0247 12.6818 17.0247 12.6815C17.0247 12.6814 17.0247 12.6814 17.0247 12.6815C17.0247 12.6815 17.0247 12.6816 17.0247 12.6817C17.0247 12.6818 17.0248 12.6818 17.0248 12.6819C17.0248 12.682 17.0248 12.6821 16.7146 12.7202C16.4044 12.7583 16.4045 12.7584 16.4045 12.7585C16.4045 12.7586 16.4045 12.7587 16.4045 12.7588C16.4045 12.759 16.4046 12.7592 16.4046 12.7595C16.4047 12.76 16.4047 12.7606 16.4048 12.7613C16.405 12.7627 16.4052 12.7645 16.4055 12.7666C16.4061 12.771 16.4069 12.777 16.408 12.7844C16.4102 12.7993 16.4135 12.8201 16.418 12.8459C16.427 12.8975 16.441 12.9699 16.4619 13.056C16.5034 13.2271 16.5732 13.4593 16.6866 13.6949C16.9089 14.1569 17.3435 14.7111 18.1239 14.7111L18.1239 14.0861ZM16.7146 12.7202C16.6043 13.0126 16.6045 13.0126 16.6046 13.0127C16.6047 13.0127 16.6049 13.0128 16.605 13.0128C16.6052 13.0129 16.6054 13.013 16.6056 13.0131C16.6061 13.0132 16.6066 13.0134 16.6071 13.0136C16.6081 13.014 16.6091 13.0143 16.6103 13.0148C16.6126 13.0156 16.6152 13.0165 16.6181 13.0175C16.6239 13.0195 16.6311 13.0218 16.6396 13.0244C16.6567 13.0296 16.6795 13.036 16.7087 13.043C16.7671 13.0572 16.8516 13.0743 16.9688 13.0909C17.203 13.1239 17.5703 13.1552 18.1239 13.1552L18.1239 12.5302C17.593 12.5302 17.2556 12.5002 17.0563 12.472C16.9568 12.4579 16.8923 12.4444 16.8559 12.4356C16.8377 12.4312 16.8266 12.428 16.8217 12.4265C16.8193 12.4258 16.8184 12.4255 16.819 12.4256C16.8192 12.4257 16.8199 12.426 16.8209 12.4263C16.8214 12.4265 16.822 12.4267 16.8226 12.427C16.823 12.4271 16.8233 12.4272 16.8237 12.4273C16.8239 12.4274 16.8241 12.4275 16.8243 12.4276C16.8244 12.4276 16.8245 12.4277 16.8246 12.4277C16.8247 12.4277 16.8249 12.4278 16.7146 12.7202ZM18.1239 13.1552C18.6775 13.1552 19.0448 13.1239 19.279 13.0909C19.3962 13.0743 19.4808 13.0572 19.5391 13.043C19.5683 13.036 19.5911 13.0296 19.6082 13.0244C19.6167 13.0218 19.6239 13.0195 19.6297 13.0175C19.6327 13.0165 19.6353 13.0156 19.6375 13.0148C19.6387 13.0143 19.6398 13.014 19.6407 13.0136C19.6412 13.0134 19.6417 13.0132 19.6422 13.0131C19.6424 13.013 19.6426 13.0129 19.6428 13.0128C19.643 13.0128 19.6431 13.0127 19.6432 13.0127C19.6433 13.0126 19.6435 13.0126 19.5332 12.7202C19.4229 12.4278 19.4231 12.4277 19.4232 12.4277C19.4233 12.4277 19.4234 12.4276 19.4235 12.4276C19.4237 12.4275 19.4239 12.4274 19.4241 12.4273C19.4245 12.4272 19.4248 12.4271 19.4252 12.427C19.4258 12.4267 19.4264 12.4265 19.4269 12.4263C19.4279 12.426 19.4286 12.4257 19.4289 12.4256C19.4294 12.4255 19.4285 12.4258 19.4261 12.4265C19.4212 12.428 19.4101 12.4312 19.3919 12.4356C19.3555 12.4444 19.2911 12.4579 19.1915 12.472C18.9922 12.5002 18.6548 12.5302 18.1239 12.5302L18.1239 13.1552Z" fill="#4B54B9"/>
<path d="M12.5816 13.0894C12.6531 12.8706 12.5336 12.6354 12.3149 12.5639C12.0961 12.4925 11.8609 12.6119 11.7895 12.8307L12.5816 13.0894ZM10.3284 12.7767C10.2271 12.5701 9.97754 12.4846 9.77088 12.5858C9.56422 12.6871 9.47875 12.9366 9.57997 13.1433L10.3284 12.7767ZM12.1855 12.96C11.7895 12.8307 11.7895 12.8305 11.7896 12.8303C11.7896 12.8302 11.7897 12.83 11.7897 12.8299C11.7898 12.8297 11.7899 12.8294 11.7899 12.8292C11.7901 12.8288 11.7902 12.8283 11.7904 12.828C11.7906 12.8272 11.7908 12.8266 11.791 12.8262C11.7913 12.8253 11.7914 12.8251 11.7913 12.8254C11.791 12.826 11.79 12.8288 11.7881 12.8335C11.7842 12.8429 11.777 12.8596 11.7659 12.881C11.7433 12.9247 11.7073 12.9834 11.6553 13.0413C11.5576 13.1501 11.4003 13.2627 11.1286 13.2627L11.1286 14.096C11.6789 14.096 12.0501 13.8489 12.2754 13.5981C12.3849 13.4761 12.459 13.355 12.5061 13.2638C12.5299 13.2178 12.5474 13.1782 12.5596 13.1484C12.5657 13.1334 12.5705 13.1208 12.5742 13.1108C12.576 13.1059 12.5775 13.1016 12.5787 13.098C12.5794 13.0962 12.5799 13.0945 12.5804 13.0931C12.5806 13.0924 12.5809 13.0917 12.5811 13.0911C12.5812 13.0908 12.5813 13.0905 12.5814 13.0902C12.5814 13.09 12.5815 13.0898 12.5815 13.0898C12.5816 13.0896 12.5816 13.0894 12.1855 12.96ZM11.1286 13.2627C10.8507 13.2627 10.6545 13.1443 10.5188 13.0164C10.45 12.9516 10.3994 12.8862 10.3666 12.838C10.3504 12.8142 10.3391 12.7955 10.3327 12.7842C10.3295 12.7786 10.3275 12.7749 10.3268 12.7736C10.3264 12.7729 10.3264 12.7728 10.3266 12.7733C10.3268 12.7736 10.327 12.774 10.3273 12.7745C10.3274 12.7748 10.3276 12.7751 10.3278 12.7755C10.3278 12.7757 10.3279 12.7759 10.328 12.7761C10.3281 12.7762 10.3282 12.7764 10.3282 12.7764C10.3283 12.7766 10.3284 12.7767 9.95416 12.96C9.57997 13.1433 9.58006 13.1435 9.58014 13.1436C9.58017 13.1437 9.58026 13.1439 9.58032 13.144C9.58044 13.1443 9.58057 13.1445 9.5807 13.1448C9.58097 13.1453 9.58126 13.1459 9.58158 13.1465C9.58221 13.1478 9.58293 13.1492 9.58376 13.1509C9.5854 13.1541 9.58743 13.158 9.58985 13.1626C9.59469 13.1718 9.6011 13.1836 9.60914 13.1977C9.62519 13.2257 9.64788 13.2632 9.67755 13.3068C9.73652 13.3934 9.82532 13.5079 9.94734 13.6229C10.1933 13.8547 10.5843 14.096 11.1286 14.096L11.1286 13.2627Z" fill="#4B54B9"/>
<ellipse cx="9.60232" cy="10.9222" rx="0.352324" ry="0.359652" fill="#4B54B9"/>
<ellipse cx="12.4207" cy="10.9222" rx="0.352324" ry="0.359652" fill="#4B54B9"/>
<path d="M15.6873 10.7848C15.5641 10.9056 15.5621 11.1035 15.6829 11.2267C15.8037 11.35 16.0015 11.352 16.1248 11.2312L15.6873 10.7848ZM16.8862 11.2103C17.008 11.3325 17.2059 11.3327 17.3281 11.2108C17.4503 11.0889 17.4505 10.8911 17.3286 10.7689L16.8862 11.2103ZM15.9061 11.008C16.1248 11.2312 16.1247 11.2313 16.1246 11.2313C16.1246 11.2314 16.1246 11.2314 16.1245 11.2315C16.1244 11.2316 16.1243 11.2317 16.1242 11.2317C16.1241 11.2319 16.1239 11.2321 16.1237 11.2322C16.1234 11.2325 16.1232 11.2327 16.123 11.2329C16.1226 11.2333 16.1225 11.2334 16.1225 11.2334C16.1226 11.2333 16.1235 11.2324 16.1253 11.2309C16.1287 11.2278 16.1353 11.2221 16.1447 11.2147C16.1637 11.1996 16.193 11.1781 16.2307 11.1561C16.3079 11.1111 16.4074 11.0715 16.5173 11.0679L16.4973 10.4433C16.2519 10.4511 16.0508 10.5376 15.9162 10.616C15.848 10.6558 15.7937 10.6952 15.7554 10.7257C15.7362 10.741 15.7208 10.7542 15.7094 10.7643C15.7037 10.7694 15.699 10.7737 15.6953 10.7772C15.6935 10.7789 15.6919 10.7804 15.6906 10.7817C15.6899 10.7823 15.6893 10.7829 15.6888 10.7834C15.6885 10.7837 15.6882 10.7839 15.688 10.7842C15.6879 10.7843 15.6878 10.7844 15.6877 10.7845C15.6876 10.7845 15.6875 10.7846 15.6875 10.7846C15.6874 10.7847 15.6873 10.7848 15.9061 11.008ZM16.5173 11.0679C16.6202 11.0646 16.7131 11.0986 16.7864 11.1401C16.8222 11.1604 16.8502 11.1809 16.8682 11.1953C16.8772 11.2025 16.8833 11.2079 16.8865 11.2107C16.888 11.2121 16.8888 11.2129 16.8888 11.2129C16.8888 11.2128 16.8885 11.2126 16.8881 11.2122C16.8879 11.212 16.8876 11.2117 16.8873 11.2114C16.8871 11.2112 16.887 11.2111 16.8868 11.2109C16.8867 11.2108 16.8866 11.2107 16.8865 11.2106C16.8864 11.2105 16.8863 11.2105 16.8863 11.2104C16.8862 11.2104 16.8862 11.2103 17.1074 10.9896C17.3286 10.7689 17.3286 10.7688 17.3285 10.7687C17.3284 10.7687 17.3284 10.7686 17.3283 10.7685C17.3282 10.7684 17.3281 10.7683 17.3279 10.7682C17.3277 10.7679 17.3274 10.7677 17.3271 10.7674C17.3266 10.7668 17.326 10.7662 17.3253 10.7655C17.3239 10.7642 17.3222 10.7626 17.3204 10.7608C17.3166 10.7572 17.3117 10.7527 17.3059 10.7474C17.2943 10.7369 17.2785 10.7232 17.259 10.7075C17.22 10.6763 17.1646 10.6361 17.0948 10.5965C16.9569 10.5183 16.7497 10.4352 16.4973 10.4433L16.5173 11.0679Z" fill="#4B54B9"/>
<path d="M18.4839 10.7932C18.3619 10.9152 18.3619 11.1131 18.484 11.2351C18.606 11.3571 18.8039 11.3571 18.9259 11.235L18.4839 10.7932ZM19.6582 11.2145C19.7788 11.3379 19.9767 11.3402 20.1001 11.2196C20.2236 11.0989 20.2258 10.9011 20.1052 10.7776L19.6582 11.2145ZM18.7049 11.0141C18.9259 11.235 18.9258 11.2351 18.9258 11.2352C18.9257 11.2352 18.9257 11.2353 18.9256 11.2353C18.9255 11.2354 18.9254 11.2355 18.9253 11.2356C18.9252 11.2358 18.925 11.2359 18.9249 11.2361C18.9246 11.2364 18.9243 11.2366 18.9241 11.2368C18.9238 11.2372 18.9236 11.2373 18.9236 11.2373C18.9237 11.2372 18.9246 11.2364 18.9262 11.2349C18.9296 11.2318 18.9359 11.2262 18.945 11.2188C18.9635 11.2038 18.992 11.1826 19.0285 11.1609C19.1035 11.1163 19.1991 11.0776 19.3039 11.0742L19.2837 10.4496C19.0405 10.4574 18.8416 10.5449 18.7092 10.6236C18.642 10.6635 18.5885 10.7032 18.5509 10.7337C18.532 10.7491 18.5168 10.7624 18.5056 10.7726C18.5 10.7777 18.4954 10.782 18.4918 10.7855C18.4899 10.7872 18.4884 10.7887 18.4871 10.79C18.4864 10.7907 18.4858 10.7913 18.4853 10.7918C18.485 10.792 18.4848 10.7923 18.4845 10.7925C18.4844 10.7926 18.4843 10.7927 18.4842 10.7929C18.4841 10.7929 18.4841 10.793 18.484 10.793C18.484 10.7931 18.4839 10.7932 18.7049 11.0141ZM19.3039 11.0742C19.4016 11.0711 19.4905 11.104 19.5616 11.1451C19.5963 11.1652 19.6234 11.1855 19.641 11.1998C19.6496 11.2069 19.6556 11.2122 19.6586 11.215C19.6601 11.2164 19.6609 11.2171 19.6608 11.2171C19.6608 11.2171 19.6606 11.2169 19.6601 11.2164C19.6599 11.2162 19.6597 11.2159 19.6593 11.2156C19.6592 11.2154 19.659 11.2153 19.6588 11.2151C19.6587 11.215 19.6586 11.2149 19.6585 11.2148C19.6585 11.2147 19.6584 11.2147 19.6584 11.2146C19.6583 11.2145 19.6582 11.2145 19.8817 10.9961C20.1052 10.7776 20.1051 10.7776 20.105 10.7775C20.105 10.7774 20.1049 10.7774 20.1049 10.7773C20.1048 10.7772 20.1046 10.7771 20.1045 10.7769C20.1043 10.7767 20.104 10.7764 20.1037 10.7762C20.1032 10.7756 20.1026 10.775 20.1019 10.7743C20.1005 10.7729 20.0989 10.7713 20.097 10.7695C20.0933 10.7659 20.0886 10.7613 20.0828 10.756C20.0714 10.7454 20.0559 10.7317 20.0366 10.716C19.9983 10.6846 19.9437 10.6442 19.8749 10.6044C19.7391 10.5256 19.5341 10.4414 19.2837 10.4496L19.3039 11.0742Z" fill="#4B54B9"/>
<path d="M22.9151 12.0001C22.9151 14.5479 20.938 16.5835 18.535 16.5835C16.1321 16.5835 14.1549 14.5479 14.1549 12.0001C14.1549 9.45236 16.1321 7.41679 18.535 7.41679C20.938 7.41679 22.9151 9.45236 22.9151 12.0001Z" stroke="#4B54B9" stroke-width="0.833333"/>
<path d="M29.9842 17C29.8322 17 29.7002 16.952 29.5882 16.856C29.4842 16.76 29.4322 16.644 29.4322 16.508V9.08C29.4322 8.944 29.4762 8.832 29.5642 8.744C29.6602 8.648 29.7762 8.6 29.9122 8.6H33.2242C33.6722 8.6 34.0762 8.704 34.4362 8.912C34.7962 9.112 35.0802 9.392 35.2882 9.752C35.5042 10.104 35.6122 10.512 35.6122 10.976C35.6122 11.312 35.5482 11.628 35.4202 11.924C35.2922 12.212 35.1162 12.464 34.8922 12.68C34.6682 12.888 34.4122 13.048 34.1242 13.16L33.8602 12.968C34.1322 13.032 34.3762 13.148 34.5922 13.316C34.8082 13.476 34.9842 13.684 35.1202 13.94C35.2562 14.188 35.3282 14.48 35.3362 14.816C35.3522 15.112 35.3722 15.348 35.3962 15.524C35.4202 15.7 35.4562 15.84 35.5042 15.944C35.5522 16.04 35.6202 16.116 35.7082 16.172C35.8202 16.244 35.8922 16.34 35.9242 16.46C35.9642 16.58 35.9442 16.696 35.8642 16.808C35.8162 16.88 35.7482 16.932 35.6602 16.964C35.5722 16.988 35.4842 16.996 35.3962 16.988C35.3082 16.98 35.2322 16.956 35.1682 16.916C35.0402 16.844 34.9162 16.74 34.7962 16.604C34.6762 16.46 34.5762 16.256 34.4962 15.992C34.4162 15.728 34.3762 15.368 34.3762 14.912C34.3762 14.656 34.3362 14.444 34.2562 14.276C34.1762 14.108 34.0682 13.972 33.9322 13.868C33.7962 13.764 33.6442 13.692 33.4762 13.652C33.3082 13.612 33.1362 13.592 32.9602 13.592H30.2842L30.4282 13.376V16.508C30.4282 16.644 30.3882 16.76 30.3082 16.856C30.2282 16.952 30.1202 17 29.9842 17ZM30.2842 12.728H33.2242C33.4562 12.712 33.6722 12.632 33.8722 12.488C34.0802 12.344 34.2482 12.144 34.3762 11.888C34.5122 11.624 34.5802 11.328 34.5802 11C34.5802 10.576 34.4442 10.224 34.1722 9.944C33.9082 9.664 33.5722 9.524 33.1642 9.524H30.3322L30.4282 9.296V12.944L30.2842 12.728ZM41.383 17.12C40.743 17.12 40.183 16.984 39.703 16.712C39.223 16.44 38.847 16.068 38.575 15.596C38.311 15.116 38.179 14.564 38.179 13.94C38.179 13.244 38.315 12.652 38.587 12.164C38.867 11.668 39.227 11.292 39.667 11.036C40.115 10.772 40.587 10.64 41.083 10.64C41.451 10.64 41.807 10.708 42.151 10.844C42.495 10.98 42.799 11.18 43.063 11.444C43.327 11.7 43.539 12.012 43.699 12.38C43.859 12.74 43.943 13.144 43.951 13.592C43.951 13.72 43.903 13.828 43.807 13.916C43.711 14.004 43.599 14.048 43.471 14.048H38.731L38.515 13.22H43.135L42.943 13.388V13.124C42.911 12.796 42.799 12.516 42.607 12.284C42.423 12.044 42.195 11.86 41.923 11.732C41.659 11.604 41.379 11.54 41.083 11.54C40.843 11.54 40.603 11.584 40.363 11.672C40.131 11.752 39.919 11.888 39.727 12.08C39.543 12.264 39.391 12.504 39.271 12.8C39.159 13.096 39.103 13.452 39.103 13.868C39.103 14.332 39.195 14.74 39.379 15.092C39.571 15.444 39.835 15.724 40.171 15.932C40.507 16.132 40.899 16.232 41.347 16.232C41.627 16.232 41.871 16.196 42.079 16.124C42.287 16.052 42.467 15.964 42.619 15.86C42.771 15.748 42.899 15.636 43.003 15.524C43.107 15.452 43.207 15.416 43.303 15.416C43.423 15.416 43.519 15.456 43.591 15.536C43.671 15.616 43.711 15.712 43.711 15.824C43.711 15.96 43.647 16.08 43.519 16.184C43.295 16.432 42.991 16.652 42.607 16.844C42.223 17.028 41.815 17.12 41.383 17.12ZM47.6499 16.508C47.6499 16.644 47.6019 16.76 47.5059 16.856C47.4099 16.952 47.2939 17 47.1579 17C47.0219 17 46.9099 16.952 46.8219 16.856C46.7339 16.76 46.6899 16.644 46.6899 16.508V8.6C46.6899 8.464 46.7339 8.352 46.8219 8.264C46.9179 8.168 47.0339 8.12 47.1699 8.12C47.3139 8.12 47.4299 8.168 47.5179 8.264C47.6059 8.352 47.6499 8.464 47.6499 8.6V16.508ZM55.8238 10.736C55.9598 10.736 56.0718 10.784 56.1598 10.88C56.2558 10.968 56.3038 11.08 56.3038 11.216V16.508C56.3038 16.644 56.2558 16.76 56.1598 16.856C56.0718 16.952 55.9598 17 55.8238 17C55.6798 17 55.5638 16.952 55.4758 16.856C55.3878 16.76 55.3438 16.644 55.3438 16.508V15.368L55.5718 15.344C55.5718 15.52 55.5118 15.712 55.3918 15.92C55.2718 16.128 55.1078 16.324 54.8998 16.508C54.6918 16.684 54.4438 16.832 54.1558 16.952C53.8758 17.064 53.5718 17.12 53.2438 17.12C52.6998 17.12 52.2118 16.98 51.7798 16.7C51.3478 16.412 51.0038 16.024 50.7478 15.536C50.4998 15.048 50.3758 14.492 50.3758 13.868C50.3758 13.236 50.4998 12.68 50.7478 12.2C51.0038 11.712 51.3478 11.332 51.7798 11.06C52.2118 10.78 52.6918 10.64 53.2198 10.64C53.5638 10.64 53.8838 10.696 54.1798 10.808C54.4758 10.92 54.7318 11.072 54.9478 11.264C55.1718 11.456 55.3438 11.668 55.4638 11.9C55.5918 12.132 55.6558 12.364 55.6558 12.596L55.3438 12.524V11.216C55.3438 11.08 55.3878 10.968 55.4758 10.88C55.5638 10.784 55.6798 10.736 55.8238 10.736ZM53.3518 16.232C53.7518 16.232 54.1038 16.128 54.4078 15.92C54.7198 15.712 54.9598 15.432 55.1278 15.08C55.3038 14.72 55.3918 14.316 55.3918 13.868C55.3918 13.428 55.3038 13.032 55.1278 12.68C54.9598 12.32 54.7198 12.04 54.4078 11.84C54.1038 11.632 53.7518 11.528 53.3518 11.528C52.9598 11.528 52.6078 11.628 52.2958 11.828C51.9918 12.028 51.7518 12.304 51.5758 12.656C51.3998 13.008 51.3118 13.412 51.3118 13.868C51.3118 14.316 51.3958 14.72 51.5638 15.08C51.7398 15.432 51.9798 15.712 52.2838 15.92C52.5958 16.128 52.9518 16.232 53.3518 16.232ZM59.0429 10.832H61.8629C61.9909 10.832 62.0949 10.876 62.1749 10.964C62.2629 11.052 62.3069 11.156 62.3069 11.276C62.3069 11.404 62.2629 11.512 62.1749 11.6C62.0949 11.68 61.9909 11.72 61.8629 11.72H59.0429C58.9229 11.72 58.8189 11.676 58.7309 11.588C58.6429 11.5 58.5989 11.392 58.5989 11.264C58.5989 11.144 58.6429 11.044 58.7309 10.964C58.8189 10.876 58.9229 10.832 59.0429 10.832ZM60.3029 9.2C60.4389 9.2 60.5509 9.248 60.6389 9.344C60.7269 9.432 60.7709 9.544 60.7709 9.68V15.476C60.7709 15.668 60.7989 15.812 60.8549 15.908C60.9109 16.004 60.9829 16.072 61.0709 16.112C61.1669 16.144 61.2589 16.16 61.3469 16.16C61.4269 16.16 61.4949 16.148 61.5509 16.124C61.6149 16.092 61.6869 16.076 61.7669 16.076C61.8469 16.076 61.9189 16.116 61.9829 16.196C62.0549 16.268 62.0909 16.364 62.0909 16.484C62.0909 16.628 62.0069 16.752 61.8389 16.856C61.6709 16.952 61.4829 17 61.2749 17C61.1629 17 61.0229 16.992 60.8549 16.976C60.6949 16.96 60.5349 16.908 60.3749 16.82C60.2149 16.732 60.0789 16.588 59.9669 16.388C59.8629 16.18 59.8109 15.892 59.8109 15.524V9.68C59.8109 9.544 59.8589 9.432 59.9549 9.344C60.0509 9.248 60.1669 9.2 60.3029 9.2ZM65.7663 16.508C65.7663 16.644 65.7183 16.76 65.6223 16.856C65.5343 16.952 65.4223 17 65.2863 17C65.1423 17 65.0263 16.952 64.9383 16.856C64.8503 16.76 64.8063 16.644 64.8063 16.508V11.18C64.8063 11.044 64.8503 10.932 64.9383 10.844C65.0343 10.748 65.1503 10.7 65.2863 10.7C65.4223 10.7 65.5343 10.748 65.6223 10.844C65.7183 10.932 65.7663 11.044 65.7663 11.18V16.508ZM65.2863 9.896C65.0863 9.896 64.9383 9.856 64.8423 9.776C64.7463 9.696 64.6983 9.572 64.6983 9.404V9.236C64.6983 9.068 64.7503 8.944 64.8543 8.864C64.9583 8.784 65.1063 8.744 65.2983 8.744C65.4903 8.744 65.6343 8.784 65.7303 8.864C65.8263 8.944 65.8743 9.068 65.8743 9.236V9.404C65.8743 9.572 65.8223 9.696 65.7183 9.776C65.6223 9.856 65.4783 9.896 65.2863 9.896ZM74.5827 13.88C74.5827 14.504 74.4427 15.06 74.1627 15.548C73.8907 16.036 73.5187 16.42 73.0467 16.7C72.5827 16.98 72.0587 17.12 71.4747 17.12C70.8907 17.12 70.3627 16.98 69.8907 16.7C69.4187 16.42 69.0427 16.036 68.7627 15.548C68.4907 15.06 68.3547 14.504 68.3547 13.88C68.3547 13.256 68.4907 12.7 68.7627 12.212C69.0427 11.724 69.4187 11.34 69.8907 11.06C70.3627 10.78 70.8907 10.64 71.4747 10.64C72.0587 10.64 72.5827 10.78 73.0467 11.06C73.5187 11.34 73.8907 11.724 74.1627 12.212C74.4427 12.7 74.5827 13.256 74.5827 13.88ZM73.6227 13.88C73.6227 13.416 73.5267 13.008 73.3347 12.656C73.1507 12.304 72.8947 12.028 72.5667 11.828C72.2467 11.628 71.8827 11.528 71.4747 11.528C71.0667 11.528 70.6987 11.628 70.3707 11.828C70.0507 12.028 69.7947 12.304 69.6027 12.656C69.4107 13.008 69.3147 13.416 69.3147 13.88C69.3147 14.336 69.4107 14.74 69.6027 15.092C69.7947 15.444 70.0507 15.724 70.3707 15.932C70.6987 16.132 71.0667 16.232 71.4747 16.232C71.8827 16.232 72.2467 16.132 72.5667 15.932C72.8947 15.724 73.1507 15.444 73.3347 15.092C73.5267 14.74 73.6227 14.336 73.6227 13.88ZM80.3107 10.64C80.8547 10.64 81.2827 10.752 81.5947 10.976C81.9067 11.2 82.1267 11.5 82.2547 11.876C82.3907 12.252 82.4587 12.672 82.4587 13.136V16.508C82.4587 16.644 82.4107 16.76 82.3147 16.856C82.2267 16.952 82.1147 17 81.9787 17C81.8427 17 81.7267 16.952 81.6307 16.856C81.5427 16.76 81.4987 16.644 81.4987 16.508V13.16C81.4987 12.856 81.4507 12.584 81.3547 12.344C81.2667 12.096 81.1147 11.9 80.8987 11.756C80.6907 11.604 80.4027 11.528 80.0347 11.528C79.6987 11.528 79.3907 11.604 79.1107 11.756C78.8307 11.9 78.6067 12.096 78.4387 12.344C78.2707 12.584 78.1867 12.856 78.1867 13.16V16.508C78.1867 16.644 78.1387 16.76 78.0427 16.856C77.9547 16.952 77.8427 17 77.7067 17C77.5707 17 77.4547 16.952 77.3587 16.856C77.2707 16.76 77.2267 16.644 77.2267 16.508V11.276C77.2267 11.14 77.2707 11.028 77.3587 10.94C77.4547 10.844 77.5707 10.796 77.7067 10.796C77.8507 10.796 77.9667 10.844 78.0547 10.94C78.1427 11.028 78.1867 11.14 78.1867 11.276V12.128L77.9467 12.392C77.9867 12.184 78.0787 11.976 78.2227 11.768C78.3667 11.552 78.5467 11.36 78.7627 11.192C78.9787 11.024 79.2187 10.892 79.4827 10.796C79.7467 10.692 80.0227 10.64 80.3107 10.64ZM85.0865 16.016C85.0145 15.912 84.9825 15.804 84.9905 15.692C84.9985 15.572 85.0665 15.468 85.1945 15.38C85.2745 15.324 85.3665 15.3 85.4705 15.308C85.5825 15.316 85.6825 15.368 85.7705 15.464C85.9945 15.728 86.2505 15.94 86.5385 16.1C86.8265 16.252 87.1785 16.328 87.5945 16.328C87.7865 16.32 87.9785 16.288 88.1705 16.232C88.3625 16.176 88.5225 16.08 88.6505 15.944C88.7865 15.8 88.8545 15.612 88.8545 15.38C88.8545 15.156 88.7865 14.98 88.6505 14.852C88.5145 14.716 88.3385 14.608 88.1225 14.528C87.9065 14.44 87.6705 14.364 87.4145 14.3C87.1505 14.228 86.8905 14.148 86.6345 14.06C86.3785 13.964 86.1465 13.848 85.9385 13.712C85.7385 13.568 85.5745 13.392 85.4465 13.184C85.3265 12.968 85.2665 12.708 85.2665 12.404C85.2665 12.044 85.3625 11.732 85.5545 11.468C85.7545 11.204 86.0185 11 86.3465 10.856C86.6825 10.712 87.0465 10.64 87.4385 10.64C87.6625 10.64 87.8945 10.668 88.1345 10.724C88.3825 10.772 88.6225 10.86 88.8545 10.988C89.0865 11.108 89.2905 11.276 89.4665 11.492C89.5385 11.572 89.5785 11.672 89.5865 11.792C89.5945 11.912 89.5425 12.02 89.4305 12.116C89.3425 12.18 89.2425 12.208 89.1305 12.2C89.0265 12.192 88.9385 12.152 88.8665 12.08C88.6985 11.88 88.4865 11.728 88.2305 11.624C87.9825 11.512 87.7065 11.456 87.4025 11.456C87.2105 11.456 87.0225 11.484 86.8385 11.54C86.6545 11.596 86.4985 11.692 86.3705 11.828C86.2505 11.956 86.1905 12.136 86.1905 12.368C86.1985 12.584 86.2705 12.76 86.4065 12.896C86.5425 13.032 86.7265 13.144 86.9585 13.232C87.1905 13.312 87.4465 13.392 87.7265 13.472C87.9825 13.536 88.2265 13.612 88.4585 13.7C88.6985 13.78 88.9145 13.888 89.1065 14.024C89.2985 14.16 89.4505 14.336 89.5625 14.552C89.6745 14.76 89.7305 15.024 89.7305 15.344C89.7305 15.712 89.6265 16.032 89.4185 16.304C89.2105 16.568 88.9345 16.772 88.5905 16.916C88.2545 17.052 87.8905 17.12 87.4985 17.12C87.0585 17.12 86.6225 17.036 86.1905 16.868C85.7665 16.7 85.3985 16.416 85.0865 16.016ZM95.3181 10.7C95.8461 10.7 96.2621 10.816 96.5661 11.048C96.8781 11.272 97.0981 11.576 97.2261 11.96C97.3621 12.336 97.4301 12.756 97.4301 13.22V16.508C97.4301 16.644 97.3821 16.76 97.2861 16.856C97.1981 16.952 97.0861 17 96.9501 17C96.8141 17 96.6981 16.952 96.6021 16.856C96.5141 16.76 96.4701 16.644 96.4701 16.508V13.22C96.4701 12.916 96.4261 12.644 96.3381 12.404C96.2501 12.156 96.1021 11.96 95.8941 11.816C95.6941 11.664 95.4181 11.588 95.0661 11.588C94.7381 11.588 94.4381 11.664 94.1661 11.816C93.8941 11.96 93.6781 12.156 93.5181 12.404C93.3581 12.644 93.2781 12.916 93.2781 13.22V16.508C93.2781 16.644 93.2301 16.76 93.1341 16.856C93.0461 16.952 92.9341 17 92.7981 17C92.6621 17 92.5461 16.952 92.4501 16.856C92.3621 16.76 92.3181 16.644 92.3181 16.508V8.6C92.3181 8.464 92.3621 8.352 92.4501 8.264C92.5461 8.168 92.6621 8.12 92.7981 8.12C92.9421 8.12 93.0581 8.168 93.1461 8.264C93.2341 8.352 93.2781 8.464 93.2781 8.6V12.188L93.0381 12.452C93.0781 12.244 93.1661 12.036 93.3021 11.828C93.4381 11.612 93.6101 11.42 93.8181 11.252C94.0261 11.084 94.2581 10.952 94.5141 10.856C94.7701 10.752 95.0381 10.7 95.3181 10.7ZM101.333 16.508C101.333 16.644 101.285 16.76 101.189 16.856C101.101 16.952 100.989 17 100.853 17C100.709 17 100.593 16.952 100.505 16.856C100.417 16.76 100.373 16.644 100.373 16.508V11.18C100.373 11.044 100.417 10.932 100.505 10.844C100.601 10.748 100.717 10.7 100.853 10.7C100.989 10.7 101.101 10.748 101.189 10.844C101.285 10.932 101.333 11.044 101.333 11.18V16.508ZM100.853 9.896C100.653 9.896 100.505 9.856 100.409 9.776C100.313 9.696 100.265 9.572 100.265 9.404V9.236C100.265 9.068 100.317 8.944 100.421 8.864C100.525 8.784 100.673 8.744 100.865 8.744C101.057 8.744 101.201 8.784 101.297 8.864C101.393 8.944 101.441 9.068 101.441 9.236V9.404C101.441 9.572 101.389 9.696 101.285 9.776C101.189 9.856 101.045 9.896 100.853 9.896ZM107.317 10.7C107.861 10.7 108.349 10.836 108.781 11.108C109.213 11.38 109.553 11.756 109.801 12.236C110.057 12.716 110.185 13.268 110.185 13.892C110.185 14.508 110.057 15.06 109.801 15.548C109.553 16.028 109.213 16.408 108.781 16.688C108.357 16.96 107.877 17.096 107.341 17.096C107.045 17.096 106.765 17.052 106.501 16.964C106.245 16.868 106.009 16.748 105.793 16.604C105.585 16.452 105.409 16.284 105.265 16.1C105.121 15.908 105.017 15.72 104.953 15.536L105.217 15.368V18.908C105.217 19.044 105.173 19.16 105.085 19.256C104.997 19.352 104.881 19.4 104.737 19.4C104.601 19.4 104.485 19.352 104.389 19.256C104.301 19.168 104.257 19.052 104.257 18.908V11.24C104.257 11.104 104.301 10.992 104.389 10.904C104.485 10.808 104.601 10.76 104.737 10.76C104.881 10.76 104.997 10.808 105.085 10.904C105.173 10.992 105.217 11.104 105.217 11.24V12.308L105.037 12.212C105.093 12.012 105.189 11.82 105.325 11.636C105.469 11.452 105.641 11.292 105.841 11.156C106.049 11.012 106.277 10.9 106.525 10.82C106.781 10.74 107.045 10.7 107.317 10.7ZM107.209 11.588C106.809 11.588 106.453 11.688 106.141 11.888C105.837 12.088 105.597 12.36 105.421 12.704C105.253 13.048 105.169 13.444 105.169 13.892C105.169 14.332 105.253 14.728 105.421 15.08C105.597 15.432 105.837 15.708 106.141 15.908C106.453 16.108 106.809 16.208 107.209 16.208C107.609 16.208 107.961 16.108 108.265 15.908C108.569 15.708 108.809 15.432 108.985 15.08C109.161 14.728 109.249 14.332 109.249 13.892C109.249 13.444 109.161 13.048 108.985 12.704C108.809 12.36 108.569 12.088 108.265 11.888C107.961 11.688 107.609 11.588 107.209 11.588ZM112.48 16.016C112.408 15.912 112.376 15.804 112.384 15.692C112.392 15.572 112.46 15.468 112.588 15.38C112.668 15.324 112.76 15.3 112.864 15.308C112.976 15.316 113.076 15.368 113.164 15.464C113.388 15.728 113.644 15.94 113.932 16.1C114.22 16.252 114.572 16.328 114.988 16.328C115.18 16.32 115.372 16.288 115.564 16.232C115.756 16.176 115.916 16.08 116.044 15.944C116.18 15.8 116.248 15.612 116.248 15.38C116.248 15.156 116.18 14.98 116.044 14.852C115.908 14.716 115.732 14.608 115.516 14.528C115.3 14.44 115.064 14.364 114.808 14.3C114.544 14.228 114.284 14.148 114.028 14.06C113.772 13.964 113.54 13.848 113.332 13.712C113.132 13.568 112.968 13.392 112.84 13.184C112.72 12.968 112.66 12.708 112.66 12.404C112.66 12.044 112.756 11.732 112.948 11.468C113.148 11.204 113.412 11 113.74 10.856C114.076 10.712 114.44 10.64 114.832 10.64C115.056 10.64 115.288 10.668 115.528 10.724C115.776 10.772 116.016 10.86 116.248 10.988C116.48 11.108 116.684 11.276 116.86 11.492C116.932 11.572 116.972 11.672 116.98 11.792C116.988 11.912 116.936 12.02 116.824 12.116C116.736 12.18 116.636 12.208 116.524 12.2C116.42 12.192 116.332 12.152 116.26 12.08C116.092 11.88 115.88 11.728 115.624 11.624C115.376 11.512 115.1 11.456 114.796 11.456C114.604 11.456 114.416 11.484 114.232 11.54C114.048 11.596 113.892 11.692 113.764 11.828C113.644 11.956 113.584 12.136 113.584 12.368C113.592 12.584 113.664 12.76 113.8 12.896C113.936 13.032 114.12 13.144 114.352 13.232C114.584 13.312 114.84 13.392 115.12 13.472C115.376 13.536 115.62 13.612 115.852 13.7C116.092 13.78 116.308 13.888 116.5 14.024C116.692 14.16 116.844 14.336 116.956 14.552C117.068 14.76 117.124 15.024 117.124 15.344C117.124 15.712 117.02 16.032 116.812 16.304C116.604 16.568 116.328 16.772 115.984 16.916C115.648 17.052 115.284 17.12 114.892 17.12C114.452 17.12 114.016 17.036 113.584 16.868C113.16 16.7 112.792 16.416 112.48 16.016Z" fill="#4B54B9"/>
<rect x="0.625" y="0.625" width="123.75" height="22.75" rx="11.375" stroke="#4B54B9" stroke-width="0.75"/>
</svg>
