<svg width="91" height="24" viewBox="0 0 91 24" fill="none" xmlns="http://www.w3.org/2000/svg">
<path d="M19.2556 8.72507L21.4531 6.88696" stroke="#4B54B9" stroke-width="0.834277" stroke-linecap="round"/>
<path d="M10.4202 8.72507L8.22266 6.88696" stroke="#4B54B9" stroke-width="0.834277" stroke-linecap="round"/>
<path d="M14.8373 4.50001L14.7891 7.3645" stroke="#4B54B9" stroke-width="0.834277" stroke-linecap="round"/>
<path d="M14.8486 20.3174L14.5414 20.5995C14.6233 20.6887 14.7399 20.7379 14.861 20.7343C14.982 20.7308 15.0956 20.6747 15.1721 20.5808L14.8486 20.3174ZM17.0732 15.3564L16.6561 15.3641L17.0732 15.3564ZM14.8484 10.4758L15.1718 10.2123C15.0958 10.1189 14.9831 10.063 14.8628 10.0589C14.7425 10.0547 14.6262 10.1028 14.5439 10.1906L14.8484 10.4758ZM12.4893 15.3564L12.9064 15.3539L12.4893 15.3564ZM14.8486 20.3174C15.1721 20.5808 15.1721 20.5807 15.1722 20.5807C15.1722 20.5806 15.1723 20.5805 15.1724 20.5804C15.1725 20.5803 15.1727 20.5801 15.1729 20.5798C15.1733 20.5793 15.1738 20.5786 15.1745 20.5778C15.1759 20.5761 15.1778 20.5738 15.1802 20.5707C15.1851 20.5647 15.192 20.5561 15.2009 20.5449C15.2186 20.5225 15.2441 20.49 15.2763 20.4482C15.3407 20.3647 15.4318 20.2438 15.5406 20.0923C15.758 19.7896 16.0477 19.3623 16.3367 18.864C16.9035 17.8865 17.5124 16.561 17.4902 15.3488L16.6561 15.3641C16.6738 16.3327 16.1704 17.4877 15.615 18.4455C15.3429 18.9147 15.069 19.3188 14.863 19.6056C14.7602 19.7487 14.6747 19.8621 14.6154 19.9391C14.5857 19.9776 14.5627 20.007 14.5473 20.0264C14.5396 20.0361 14.5338 20.0433 14.5301 20.048C14.5282 20.0503 14.5268 20.0519 14.526 20.0529C14.5256 20.0534 14.5254 20.0538 14.5252 20.0539C14.5251 20.054 14.5251 20.0541 14.5251 20.0541C14.5251 20.0541 14.5251 20.054 14.5251 20.054C14.5252 20.054 14.5252 20.054 14.8486 20.3174ZM17.4902 15.3488C17.4681 14.1366 16.8641 12.8382 16.3061 11.8811C16.0222 11.3943 15.7402 10.9792 15.5291 10.6855C15.4234 10.5385 15.3351 10.4215 15.2728 10.3406C15.2416 10.3002 15.2169 10.2687 15.1997 10.2471C15.1911 10.2363 15.1844 10.2279 15.1797 10.2221C15.1774 10.2191 15.1755 10.2169 15.1742 10.2152C15.1736 10.2144 15.173 10.2137 15.1726 10.2133C15.1724 10.213 15.1723 10.2128 15.1721 10.2126C15.1721 10.2126 15.172 10.2125 15.172 10.2124C15.1719 10.2123 15.1718 10.2123 14.8484 10.4758C14.5251 10.7392 14.525 10.7392 14.525 10.7391C14.525 10.7391 14.525 10.7391 14.525 10.7391C14.5249 10.7391 14.525 10.7392 14.525 10.7392C14.5252 10.7394 14.5254 10.7397 14.5258 10.7402C14.5266 10.7411 14.5279 10.7427 14.5297 10.745C14.5332 10.7494 14.5388 10.7564 14.5462 10.7657C14.5611 10.7844 14.5833 10.8127 14.612 10.8499C14.6693 10.9242 14.752 11.0338 14.8517 11.1725C15.0514 11.4504 15.318 11.8429 15.5854 12.3014C16.1296 13.2347 16.638 14.3767 16.6561 15.3641L17.4902 15.3488ZM14.8484 10.4758C14.5439 10.1906 14.5439 10.1907 14.5438 10.1908C14.5438 10.1908 14.5437 10.1909 14.5436 10.191C14.5434 10.1912 14.5432 10.1914 14.543 10.1917C14.5425 10.1922 14.5419 10.1928 14.5412 10.1936C14.5397 10.1952 14.5376 10.1974 14.535 10.2003C14.5298 10.2059 14.5224 10.214 14.513 10.2243C14.4941 10.2451 14.4671 10.2752 14.433 10.314C14.3649 10.3916 14.2687 10.504 14.1538 10.6458C13.9242 10.9291 13.6181 11.3321 13.3119 11.8119C12.7093 12.7562 12.0643 14.0615 12.0722 15.359L12.9064 15.3539C12.9001 14.3052 13.4347 13.1703 14.0152 12.2607C14.3005 11.8136 14.5869 11.4364 14.8019 11.1711C14.9092 11.0386 14.9983 10.9347 15.06 10.8645C15.0908 10.8294 15.1147 10.8027 15.1306 10.7852C15.1385 10.7765 15.1445 10.77 15.1482 10.7659C15.1501 10.7639 15.1515 10.7624 15.1523 10.7616C15.1526 10.7612 15.1529 10.7609 15.153 10.7608C15.1531 10.7607 15.1531 10.7607 15.1531 10.7607C15.1531 10.7607 15.153 10.7608 15.153 10.7608C15.153 10.7608 15.1529 10.7609 14.8484 10.4758ZM12.0722 15.359C12.0802 16.6811 12.7213 18.0029 13.3208 18.9608C13.625 19.4467 13.9282 19.854 14.1554 20.1401C14.2692 20.2834 14.3643 20.3968 14.4317 20.475C14.4653 20.5142 14.4921 20.5445 14.5107 20.5655C14.5201 20.576 14.5274 20.5841 14.5325 20.5898C14.5351 20.5926 14.5371 20.5949 14.5386 20.5965C14.5394 20.5973 14.54 20.598 14.5404 20.5985C14.5406 20.5987 14.5408 20.5989 14.541 20.5991C14.5411 20.5992 14.5412 20.5993 14.5412 20.5993C14.5413 20.5994 14.5414 20.5995 14.8486 20.3174C15.1559 20.0353 15.156 20.0353 15.156 20.0354C15.156 20.0354 15.1561 20.0354 15.1561 20.0355C15.1561 20.0355 15.1561 20.0354 15.156 20.0354C15.1559 20.0353 15.1557 20.035 15.1553 20.0346C15.1545 20.0337 15.1532 20.0322 15.1513 20.0302C15.1476 20.0261 15.1417 20.0196 15.1339 20.0107C15.1182 19.9931 15.0945 19.9663 15.064 19.9309C15.0031 19.86 14.915 19.7551 14.8087 19.6213C14.5958 19.3532 14.3119 18.9716 14.028 18.5181C13.4516 17.5972 12.913 16.4386 12.9064 15.3539L12.0722 15.359Z" fill="#4B54B9"/>
<path d="M15.1449 19.8585C14.9156 19.8803 14.7473 20.0839 14.7691 20.3132C14.7909 20.5426 14.9945 20.7108 15.2238 20.689L15.1449 19.8585ZM20.279 18.3752L19.9807 18.0835L20.279 18.3752ZM22.1929 13.3644L22.6075 13.4097C22.62 13.2952 22.5846 13.1806 22.5097 13.093C22.4347 13.0055 22.3268 12.9529 22.2117 12.9477L22.1929 13.3644ZM17.2314 14.3171C17.0448 14.4522 17.0031 14.713 17.1382 14.8996C17.2733 15.0862 17.5341 15.1279 17.7207 14.9928L17.2314 14.3171ZM15.1844 20.2738C15.2238 20.689 15.2239 20.689 15.224 20.689C15.2241 20.689 15.2242 20.689 15.2243 20.689C15.2245 20.689 15.2248 20.6889 15.2251 20.6889C15.2258 20.6889 15.2266 20.6888 15.2277 20.6887C15.2299 20.6885 15.2329 20.6882 15.2367 20.6878C15.2444 20.687 15.2555 20.6858 15.2697 20.6843C15.298 20.6812 15.3391 20.6766 15.3915 20.6702C15.4961 20.6574 15.6462 20.6374 15.8305 20.6085C16.1987 20.5508 16.7063 20.4572 17.2641 20.3131C18.3581 20.0306 19.7295 19.5336 20.5772 18.6668L19.9807 18.0835C19.3034 18.7761 18.1275 19.2285 17.0555 19.5054C16.5303 19.641 16.0502 19.7296 15.7014 19.7843C15.5273 19.8116 15.3865 19.8303 15.29 19.8421C15.2418 19.848 15.2047 19.8522 15.18 19.8549C15.1677 19.8562 15.1585 19.8571 15.1526 19.8577C15.1496 19.858 15.1475 19.8582 15.1462 19.8584C15.1456 19.8584 15.1452 19.8585 15.1449 19.8585C15.1448 19.8585 15.1448 19.8585 15.1448 19.8585C15.1448 19.8585 15.1448 19.8585 15.1448 19.8585C15.1449 19.8585 15.1449 19.8585 15.1844 20.2738ZM20.5772 18.6668C21.4249 17.8 21.9256 16.4584 22.2154 15.3891C22.3627 14.8452 22.4604 14.3529 22.5213 13.9964C22.5518 13.8179 22.5732 13.6729 22.587 13.5717C22.5939 13.5212 22.599 13.4815 22.6023 13.4541C22.604 13.4404 22.6053 13.4297 22.6061 13.4223C22.6065 13.4185 22.6069 13.4156 22.6071 13.4135C22.6072 13.4125 22.6073 13.4116 22.6074 13.411C22.6074 13.4107 22.6075 13.4104 22.6075 13.4102C22.6075 13.4101 22.6075 13.41 22.6075 13.4099C22.6075 13.4098 22.6075 13.4097 22.1929 13.3644C21.7782 13.3191 21.7782 13.319 21.7782 13.319C21.7782 13.319 21.7782 13.3189 21.7782 13.3189C21.7782 13.3189 21.7782 13.319 21.7782 13.3191C21.7782 13.3193 21.7781 13.3197 21.7781 13.3203C21.7779 13.3215 21.7777 13.3236 21.7774 13.3264C21.7767 13.3321 21.7757 13.3409 21.7742 13.3528C21.7713 13.3765 21.7668 13.4122 21.7604 13.4587C21.7477 13.5517 21.7277 13.6875 21.6989 13.8559C21.6413 14.1932 21.5489 14.6586 21.4101 15.1709C21.1275 16.2137 20.6712 17.3775 19.9807 18.0835L20.5772 18.6668ZM22.1929 13.3644C22.2117 12.9477 22.2116 12.9477 22.2115 12.9477C22.2114 12.9477 22.2113 12.9477 22.2112 12.9477C22.2109 12.9477 22.2107 12.9477 22.2103 12.9477C22.2097 12.9476 22.2089 12.9476 22.2079 12.9475C22.206 12.9475 22.2034 12.9474 22.2001 12.9472C22.1936 12.947 22.1845 12.9467 22.1729 12.9464C22.1496 12.9457 22.1163 12.945 22.0738 12.9447C21.9889 12.944 21.8672 12.9447 21.7158 12.9501C21.4133 12.961 20.9902 12.9908 20.5033 13.0667C19.5366 13.2173 18.2841 13.5547 17.2314 14.3171L17.7207 14.9928C18.6228 14.3395 19.7287 14.0317 20.6318 13.891C21.0797 13.8212 21.4692 13.7938 21.7457 13.7839C21.8838 13.7789 21.9931 13.7783 22.0669 13.7789C22.1038 13.7792 22.1317 13.7798 22.1499 13.7803C22.1589 13.7806 22.1656 13.7808 22.1696 13.781C22.1716 13.781 22.173 13.7811 22.1738 13.7811C22.1741 13.7811 22.1743 13.7812 22.1744 13.7812C22.1744 13.7812 22.1744 13.7812 22.1743 13.7811C22.1743 13.7811 22.1742 13.7811 22.1742 13.7811C22.1741 13.7811 22.174 13.7811 22.1929 13.3644Z" fill="#4B54B9"/>
<path d="M14.5484 19.8605C14.7778 19.8822 14.946 20.0858 14.9242 20.3152C14.9024 20.5445 14.6989 20.7128 14.4695 20.691L14.5484 19.8605ZM9.41439 18.3771L9.71262 18.0855L9.41439 18.3771ZM7.5005 13.3664L7.08583 13.4117C7.07331 13.2971 7.10874 13.1825 7.18371 13.095C7.25868 13.0075 7.36651 12.9549 7.48163 12.9497L7.5005 13.3664ZM12.462 14.319C12.6486 14.4542 12.6903 14.715 12.5552 14.9016C12.42 15.0882 12.1592 15.1299 11.9726 14.9948L12.462 14.319ZM14.509 20.2757C14.4695 20.691 14.4694 20.691 14.4693 20.691C14.4693 20.691 14.4691 20.691 14.469 20.6909C14.4688 20.6909 14.4685 20.6909 14.4682 20.6909C14.4676 20.6908 14.4667 20.6907 14.4656 20.6906C14.4635 20.6904 14.4605 20.6901 14.4566 20.6897C14.4489 20.6889 14.4379 20.6878 14.4237 20.6863C14.3953 20.6832 14.3543 20.6786 14.3019 20.6721C14.1972 20.6593 14.0472 20.6394 13.8628 20.6105C13.4947 20.5528 12.987 20.4592 12.4293 20.3151C11.3352 20.0325 9.96383 19.5356 9.11616 18.6688L9.71262 18.0855C10.39 18.7781 11.5659 19.2304 12.6379 19.5073C13.1631 19.643 13.6432 19.7316 13.992 19.7862C14.1661 19.8135 14.3069 19.8322 14.4033 19.8441C14.4516 19.85 14.4887 19.8541 14.5133 19.8568C14.5256 19.8581 14.5348 19.8591 14.5408 19.8597C14.5437 19.86 14.5458 19.8602 14.5471 19.8603C14.5478 19.8604 14.5482 19.8604 14.5484 19.8605C14.5485 19.8605 14.5486 19.8605 14.5486 19.8605C14.5486 19.8605 14.5486 19.8605 14.5486 19.8605C14.5485 19.8605 14.5484 19.8605 14.509 20.2757ZM9.11616 18.6688C8.26843 17.8019 7.76779 16.4604 7.47801 15.391C7.33062 14.8472 7.23295 14.3548 7.17205 13.9984C7.14157 13.8199 7.12019 13.6748 7.10636 13.5737C7.09944 13.5231 7.0944 13.4834 7.09104 13.456C7.08937 13.4423 7.08811 13.4316 7.08725 13.4242C7.08682 13.4205 7.08649 13.4176 7.08625 13.4155C7.08613 13.4144 7.08604 13.4136 7.08597 13.413C7.08593 13.4126 7.08591 13.4124 7.08588 13.4122C7.08587 13.4121 7.08586 13.4119 7.08585 13.4119C7.08584 13.4118 7.08583 13.4117 7.5005 13.3664C7.91517 13.3211 7.91516 13.321 7.91516 13.3209C7.91516 13.3209 7.91515 13.3209 7.91515 13.3209C7.91515 13.3209 7.91516 13.3209 7.91517 13.321C7.91519 13.3213 7.91524 13.3217 7.91531 13.3223C7.91544 13.3235 7.91567 13.3255 7.916 13.3284C7.91666 13.334 7.9177 13.3429 7.91915 13.3547C7.92205 13.3784 7.92658 13.4142 7.93294 13.4606C7.94566 13.5536 7.96565 13.6895 7.99442 13.8579C8.05204 14.1952 8.14443 14.6606 8.28324 15.1728C8.56584 16.2156 9.02215 17.3794 9.71262 18.0855L9.11616 18.6688ZM7.5005 13.3664C7.48163 12.9497 7.48175 12.9497 7.48188 12.9497C7.48194 12.9497 7.48208 12.9496 7.4822 12.9496C7.48243 12.9496 7.4827 12.9496 7.48302 12.9496C7.48365 12.9496 7.48446 12.9495 7.48542 12.9495C7.48736 12.9494 7.48997 12.9493 7.49322 12.9492C7.49974 12.949 7.50887 12.9487 7.52051 12.9483C7.54378 12.9477 7.57708 12.947 7.61955 12.9466C7.70446 12.9459 7.82614 12.9466 7.97757 12.9521C8.28003 12.9629 8.70319 12.9928 9.19006 13.0686C10.1567 13.2193 11.4092 13.5567 12.462 14.319L11.9726 14.9948C11.0705 14.3415 9.96463 14.0337 9.06161 13.8929C8.61363 13.8231 8.22412 13.7957 7.94764 13.7858C7.80958 13.7809 7.70022 13.7803 7.62644 13.7809C7.58957 13.7812 7.56163 13.7818 7.54348 13.7823C7.53441 13.7825 7.5278 13.7828 7.52374 13.7829C7.52171 13.783 7.52033 13.7831 7.51959 13.7831C7.51923 13.7831 7.51902 13.7831 7.51899 13.7831C7.51897 13.7831 7.51899 13.7831 7.51906 13.7831C7.51909 13.7831 7.51917 13.7831 7.51918 13.7831C7.51927 13.7831 7.51937 13.7831 7.5005 13.3664Z" fill="#4B54B9"/>
<path d="M31.7411 17.12C31.1491 17.12 30.6291 17.032 30.1811 16.856C29.7331 16.68 29.3011 16.4 28.8851 16.016C28.8291 15.96 28.7811 15.9 28.7411 15.836C28.7091 15.764 28.6931 15.688 28.6931 15.608C28.6931 15.48 28.7371 15.368 28.8251 15.272C28.9211 15.168 29.0371 15.116 29.1731 15.116C29.2851 15.116 29.3851 15.16 29.4731 15.248C29.7851 15.552 30.1211 15.784 30.4811 15.944C30.8491 16.104 31.2611 16.184 31.7171 16.184C32.0691 16.184 32.3851 16.128 32.6651 16.016C32.9531 15.904 33.1811 15.748 33.3491 15.548C33.5171 15.348 33.6011 15.116 33.6011 14.852C33.5931 14.532 33.4971 14.268 33.3131 14.06C33.1371 13.852 32.8891 13.68 32.5691 13.544C32.2571 13.4 31.8931 13.28 31.4771 13.184C31.1091 13.096 30.7691 12.988 30.4571 12.86C30.1531 12.732 29.8891 12.576 29.6651 12.392C29.4411 12.2 29.2651 11.972 29.1371 11.708C29.0171 11.436 28.9571 11.12 28.9571 10.76C28.9571 10.304 29.0771 9.904 29.3171 9.56C29.5571 9.216 29.8891 8.952 30.3131 8.768C30.7371 8.576 31.2251 8.48 31.7771 8.48C32.2651 8.48 32.7251 8.56 33.1571 8.72C33.5971 8.88 33.9491 9.1 34.2131 9.38C34.3731 9.532 34.4531 9.68 34.4531 9.824C34.4531 9.944 34.4011 10.056 34.2971 10.16C34.2011 10.256 34.0891 10.304 33.9611 10.304C33.8731 10.304 33.7931 10.272 33.7211 10.208C33.5851 10.056 33.4131 9.92 33.2051 9.8C32.9971 9.68 32.7691 9.584 32.5211 9.512C32.2731 9.44 32.0251 9.404 31.7771 9.404C31.4091 9.404 31.0851 9.46 30.8051 9.572C30.5251 9.676 30.3051 9.828 30.1451 10.028C29.9931 10.22 29.9171 10.452 29.9171 10.724C29.9171 11.028 30.0051 11.28 30.1811 11.48C30.3571 11.672 30.5931 11.832 30.8891 11.96C31.1851 12.08 31.5131 12.188 31.8731 12.284C32.2651 12.38 32.6251 12.492 32.9531 12.62C33.2891 12.74 33.5771 12.892 33.8171 13.076C34.0571 13.26 34.2411 13.496 34.3691 13.784C34.5051 14.064 34.5731 14.412 34.5731 14.828C34.5731 15.268 34.4491 15.66 34.2011 16.004C33.9531 16.348 33.6131 16.62 33.1811 16.82C32.7571 17.012 32.2771 17.112 31.7411 17.12ZM40.2757 10.7C40.8197 10.7 41.3077 10.836 41.7397 11.108C42.1717 11.38 42.5117 11.756 42.7597 12.236C43.0157 12.716 43.1437 13.268 43.1437 13.892C43.1437 14.508 43.0157 15.06 42.7597 15.548C42.5117 16.028 42.1717 16.408 41.7397 16.688C41.3157 16.96 40.8357 17.096 40.2997 17.096C40.0037 17.096 39.7237 17.052 39.4597 16.964C39.2037 16.868 38.9677 16.748 38.7517 16.604C38.5437 16.452 38.3677 16.284 38.2237 16.1C38.0797 15.908 37.9757 15.72 37.9117 15.536L38.1757 15.368V18.908C38.1757 19.044 38.1317 19.16 38.0437 19.256C37.9557 19.352 37.8397 19.4 37.6957 19.4C37.5597 19.4 37.4437 19.352 37.3477 19.256C37.2597 19.168 37.2157 19.052 37.2157 18.908V11.24C37.2157 11.104 37.2597 10.992 37.3477 10.904C37.4437 10.808 37.5597 10.76 37.6957 10.76C37.8397 10.76 37.9557 10.808 38.0437 10.904C38.1317 10.992 38.1757 11.104 38.1757 11.24V12.308L37.9957 12.212C38.0517 12.012 38.1477 11.82 38.2837 11.636C38.4277 11.452 38.5997 11.292 38.7997 11.156C39.0077 11.012 39.2357 10.9 39.4837 10.82C39.7397 10.74 40.0037 10.7 40.2757 10.7ZM40.1677 11.588C39.7677 11.588 39.4117 11.688 39.0997 11.888C38.7957 12.088 38.5557 12.36 38.3797 12.704C38.2117 13.048 38.1277 13.444 38.1277 13.892C38.1277 14.332 38.2117 14.728 38.3797 15.08C38.5557 15.432 38.7957 15.708 39.0997 15.908C39.4117 16.108 39.7677 16.208 40.1677 16.208C40.5677 16.208 40.9197 16.108 41.2237 15.908C41.5277 15.708 41.7677 15.432 41.9437 15.08C42.1197 14.728 42.2077 14.332 42.2077 13.892C42.2077 13.444 42.1197 13.048 41.9437 12.704C41.7677 12.36 41.5277 12.088 41.2237 11.888C40.9197 11.688 40.5677 11.588 40.1677 11.588ZM46.7108 16.508C46.7108 16.644 46.6628 16.76 46.5668 16.856C46.4788 16.952 46.3668 17 46.2308 17C46.0868 17 45.9708 16.952 45.8828 16.856C45.7948 16.76 45.7508 16.644 45.7508 16.508V11.18C45.7508 11.044 45.7948 10.932 45.8828 10.844C45.9788 10.748 46.0948 10.7 46.2308 10.7C46.3668 10.7 46.4788 10.748 46.5668 10.844C46.6628 10.932 46.7108 11.044 46.7108 11.18V16.508ZM46.2308 9.896C46.0308 9.896 45.8828 9.856 45.7868 9.776C45.6908 9.696 45.6428 9.572 45.6428 9.404V9.236C45.6428 9.068 45.6948 8.944 45.7988 8.864C45.9028 8.784 46.0508 8.744 46.2428 8.744C46.4348 8.744 46.5788 8.784 46.6748 8.864C46.7708 8.944 46.8188 9.068 46.8188 9.236V9.404C46.8188 9.572 46.7668 9.696 46.6628 9.776C46.5668 9.856 46.4228 9.896 46.2308 9.896ZM50.1153 17C49.9793 17 49.8633 16.952 49.7673 16.856C49.6793 16.76 49.6353 16.644 49.6353 16.508V11.276C49.6353 11.14 49.6793 11.028 49.7673 10.94C49.8633 10.844 49.9793 10.796 50.1153 10.796C50.2593 10.796 50.3753 10.844 50.4633 10.94C50.5513 11.028 50.5953 11.14 50.5953 11.276V12.86L50.4513 12.608C50.4993 12.36 50.5833 12.12 50.7033 11.888C50.8313 11.648 50.9913 11.436 51.1833 11.252C51.3753 11.06 51.5953 10.912 51.8433 10.808C52.0913 10.696 52.3633 10.64 52.6593 10.64C52.8353 10.64 52.9953 10.684 53.1393 10.772C53.2913 10.852 53.3673 10.968 53.3673 11.12C53.3673 11.288 53.3233 11.412 53.2353 11.492C53.1473 11.572 53.0473 11.612 52.9353 11.612C52.8313 11.612 52.7313 11.592 52.6353 11.552C52.5393 11.504 52.4193 11.48 52.2753 11.48C52.0753 11.48 51.8753 11.536 51.6753 11.648C51.4833 11.752 51.3033 11.904 51.1353 12.104C50.9753 12.304 50.8433 12.532 50.7393 12.788C50.6433 13.036 50.5953 13.304 50.5953 13.592V16.508C50.5953 16.644 50.5473 16.76 50.4513 16.856C50.3633 16.952 50.2513 17 50.1153 17ZM56.5757 16.508C56.5757 16.644 56.5277 16.76 56.4317 16.856C56.3437 16.952 56.2317 17 56.0957 17C55.9517 17 55.8357 16.952 55.7477 16.856C55.6597 16.76 55.6157 16.644 55.6157 16.508V11.18C55.6157 11.044 55.6597 10.932 55.7477 10.844C55.8437 10.748 55.9597 10.7 56.0957 10.7C56.2317 10.7 56.3437 10.748 56.4317 10.844C56.5277 10.932 56.5757 11.044 56.5757 11.18V16.508ZM56.0957 9.896C55.8957 9.896 55.7477 9.856 55.6517 9.776C55.5557 9.696 55.5077 9.572 55.5077 9.404V9.236C55.5077 9.068 55.5597 8.944 55.6637 8.864C55.7677 8.784 55.9157 8.744 56.1077 8.744C56.2997 8.744 56.4437 8.784 56.5397 8.864C56.6357 8.944 56.6837 9.068 56.6837 9.236V9.404C56.6837 9.572 56.6317 9.696 56.5277 9.776C56.4317 9.856 56.2877 9.896 56.0957 9.896ZM59.2601 10.832H62.0801C62.2081 10.832 62.3121 10.876 62.3921 10.964C62.4801 11.052 62.5241 11.156 62.5241 11.276C62.5241 11.404 62.4801 11.512 62.3921 11.6C62.3121 11.68 62.2081 11.72 62.0801 11.72H59.2601C59.1401 11.72 59.0361 11.676 58.9481 11.588C58.8601 11.5 58.8161 11.392 58.8161 11.264C58.8161 11.144 58.8601 11.044 58.9481 10.964C59.0361 10.876 59.1401 10.832 59.2601 10.832ZM60.5201 9.2C60.6561 9.2 60.7681 9.248 60.8561 9.344C60.9441 9.432 60.9881 9.544 60.9881 9.68V15.476C60.9881 15.668 61.0161 15.812 61.0721 15.908C61.1281 16.004 61.2001 16.072 61.2881 16.112C61.3841 16.144 61.4761 16.16 61.5641 16.16C61.6441 16.16 61.7121 16.148 61.7681 16.124C61.8321 16.092 61.9041 16.076 61.9841 16.076C62.0641 16.076 62.1361 16.116 62.2001 16.196C62.2721 16.268 62.3081 16.364 62.3081 16.484C62.3081 16.628 62.2241 16.752 62.0561 16.856C61.8881 16.952 61.7001 17 61.4921 17C61.3801 17 61.2401 16.992 61.0721 16.976C60.9121 16.96 60.7521 16.908 60.5921 16.82C60.4321 16.732 60.2961 16.588 60.1841 16.388C60.0801 16.18 60.0281 15.892 60.0281 15.524V9.68C60.0281 9.544 60.0761 9.432 60.1721 9.344C60.2681 9.248 60.3841 9.2 60.5201 9.2ZM69.7035 10.796C69.8475 10.796 69.9635 10.844 70.0515 10.94C70.1395 11.028 70.1835 11.14 70.1835 11.276V14.552C70.1835 15.36 69.9555 15.988 69.4995 16.436C69.0515 16.876 68.4235 17.096 67.6155 17.096C66.8155 17.096 66.1875 16.876 65.7315 16.436C65.2835 15.988 65.0595 15.36 65.0595 14.552V11.276C65.0595 11.14 65.1035 11.028 65.1915 10.94C65.2875 10.844 65.4035 10.796 65.5395 10.796C65.6835 10.796 65.7995 10.844 65.8875 10.94C65.9755 11.028 66.0195 11.14 66.0195 11.276V14.552C66.0195 15.096 66.1595 15.508 66.4395 15.788C66.7195 16.068 67.1115 16.208 67.6155 16.208C68.1355 16.208 68.5315 16.068 68.8035 15.788C69.0835 15.508 69.2235 15.096 69.2235 14.552V11.276C69.2235 11.14 69.2675 11.028 69.3555 10.94C69.4515 10.844 69.5675 10.796 69.7035 10.796ZM78.2738 10.736C78.4098 10.736 78.5218 10.784 78.6098 10.88C78.7058 10.968 78.7538 11.08 78.7538 11.216V16.508C78.7538 16.644 78.7058 16.76 78.6098 16.856C78.5218 16.952 78.4098 17 78.2738 17C78.1298 17 78.0138 16.952 77.9258 16.856C77.8378 16.76 77.7938 16.644 77.7938 16.508V15.368L78.0218 15.344C78.0218 15.52 77.9618 15.712 77.8418 15.92C77.7218 16.128 77.5578 16.324 77.3498 16.508C77.1418 16.684 76.8938 16.832 76.6058 16.952C76.3258 17.064 76.0218 17.12 75.6938 17.12C75.1498 17.12 74.6618 16.98 74.2298 16.7C73.7978 16.412 73.4538 16.024 73.1978 15.536C72.9498 15.048 72.8258 14.492 72.8258 13.868C72.8258 13.236 72.9498 12.68 73.1978 12.2C73.4538 11.712 73.7978 11.332 74.2298 11.06C74.6618 10.78 75.1418 10.64 75.6698 10.64C76.0138 10.64 76.3338 10.696 76.6298 10.808C76.9258 10.92 77.1818 11.072 77.3978 11.264C77.6218 11.456 77.7938 11.668 77.9138 11.9C78.0418 12.132 78.1058 12.364 78.1058 12.596L77.7938 12.524V11.216C77.7938 11.08 77.8378 10.968 77.9258 10.88C78.0138 10.784 78.1298 10.736 78.2738 10.736ZM75.8018 16.232C76.2018 16.232 76.5538 16.128 76.8578 15.92C77.1698 15.712 77.4098 15.432 77.5778 15.08C77.7538 14.72 77.8418 14.316 77.8418 13.868C77.8418 13.428 77.7538 13.032 77.5778 12.68C77.4098 12.32 77.1698 12.04 76.8578 11.84C76.5538 11.632 76.2018 11.528 75.8018 11.528C75.4098 11.528 75.0578 11.628 74.7458 11.828C74.4418 12.028 74.2018 12.304 74.0258 12.656C73.8498 13.008 73.7618 13.412 73.7618 13.868C73.7618 14.316 73.8458 14.72 74.0138 15.08C74.1898 15.432 74.4298 15.712 74.7338 15.92C75.0458 16.128 75.4018 16.232 75.8018 16.232ZM82.7889 16.508C82.7889 16.644 82.7409 16.76 82.6449 16.856C82.5489 16.952 82.4329 17 82.2969 17C82.1609 17 82.0489 16.952 81.9609 16.856C81.8729 16.76 81.8289 16.644 81.8289 16.508V8.6C81.8289 8.464 81.8729 8.352 81.9609 8.264C82.0569 8.168 82.1729 8.12 82.3089 8.12C82.4529 8.12 82.5689 8.168 82.6569 8.264C82.7449 8.352 82.7889 8.464 82.7889 8.6V16.508Z" fill="#4B54B9"/>
<rect x="0.625" y="0.625" width="89.75" height="22.75" rx="11.375" stroke="#4B54B9" stroke-width="0.75"/>
</svg>
