<svg width="70" height="24" viewBox="0 0 70 24" fill="none" xmlns="http://www.w3.org/2000/svg">
<path d="M15.8149 13.3627L15.3988 13.3849C15.3996 13.3985 15.401 13.4121 15.403 13.4256L15.8149 13.3627ZM14.1436 13.3627L14.5555 13.4256C14.5576 13.4121 14.559 13.3985 14.5597 13.3849L14.1436 13.3627ZM15.5762 14.4421L15.2677 14.1619L15.5762 14.4421ZM14.3824 14.4421L14.6908 14.1619L14.3824 14.4421ZM14.3824 12.6431L14.7264 12.8781L14.3824 12.6431ZM15.5762 12.6431L15.2321 12.8781L15.5762 12.6431ZM9.01044 12.2833L9.11659 11.8803L9.01044 12.2833ZM21.1675 12.2703L21.0635 11.8668L21.1675 12.2703ZM17.1281 7.70508L16.7114 7.70508L17.1281 7.70508ZM9.20928 17.7371H20.8686V16.9038H9.20928V17.7371ZM12.7111 7.3091H8.65385V8.14243H12.7111V7.3091ZM13.1278 7.72576V7.7051L12.2945 7.7051V7.72577L13.1278 7.72576ZM14.2496 6.58329H15.5896V5.74996H14.2496V6.58329ZM21.3462 7.3091H17.1281V8.14243H21.3462V7.3091ZM17.1281 7.3091H12.7111V8.14243H17.1281V7.3091ZM16.7114 7.70508V7.72577L17.5447 7.72576V7.70507L16.7114 7.70508ZM14.9793 14.9787C15.0929 14.9787 15.26 14.9853 15.3912 14.9687C15.5544 14.9481 15.7344 14.8876 15.8846 14.7222L15.2677 14.1619C15.2727 14.1564 15.2833 14.1478 15.2963 14.1418C15.3065 14.1372 15.3071 14.1394 15.2866 14.142C15.2645 14.1448 15.2317 14.1465 15.1768 14.1466C15.15 14.1466 15.1213 14.1464 15.0877 14.146C15.0549 14.1457 15.0182 14.1453 14.9793 14.1453V14.9787ZM15.8846 14.7222C16.1514 14.4285 16.2218 14.0443 16.2406 13.7905C16.2506 13.6557 16.2475 13.5366 16.242 13.451C16.2392 13.4079 16.2358 13.3724 16.2329 13.3466C16.2314 13.3337 16.2301 13.3232 16.229 13.3153C16.2285 13.3114 16.228 13.3081 16.2276 13.3055C16.2275 13.3042 16.2273 13.303 16.2272 13.3021C16.2271 13.3016 16.227 13.3012 16.227 13.3008C16.2269 13.3006 16.2269 13.3004 16.2269 13.3002C16.2269 13.3001 16.2268 13.3 16.2268 13.3C16.2268 13.2999 16.2268 13.2997 15.8149 13.3627C15.403 13.4256 15.403 13.4255 15.403 13.4254C15.403 13.4253 15.403 13.4252 15.403 13.4251C15.4029 13.425 15.4029 13.4249 15.4029 13.4248C15.4029 13.4246 15.4028 13.4244 15.4028 13.4242C15.4028 13.424 15.4028 13.4238 15.4028 13.4239C15.4028 13.4239 15.4029 13.4246 15.403 13.4259C15.4034 13.4284 15.404 13.4333 15.4048 13.4402C15.4064 13.4542 15.4086 13.4763 15.4104 13.5046C15.4141 13.562 15.4161 13.6414 15.4096 13.7289C15.3954 13.9197 15.3464 14.0752 15.2677 14.1619L15.8846 14.7222ZM14.1436 13.3627C13.7317 13.2997 13.7317 13.2999 13.7317 13.3C13.7317 13.3 13.7317 13.3001 13.7317 13.3002C13.7316 13.3004 13.7316 13.3006 13.7316 13.3008C13.7315 13.3012 13.7315 13.3016 13.7314 13.3021C13.7313 13.303 13.7311 13.3042 13.7309 13.3055C13.7305 13.3081 13.7301 13.3114 13.7295 13.3153C13.7285 13.3232 13.7272 13.3337 13.7257 13.3466C13.7228 13.3724 13.7193 13.4079 13.7166 13.451C13.711 13.5366 13.7079 13.6557 13.7179 13.7905C13.7368 14.0443 13.8072 14.4285 14.074 14.7222L14.6908 14.1619C14.6121 14.0752 14.5631 13.9197 14.549 13.7289C14.5425 13.6414 14.5445 13.562 14.5482 13.5046C14.55 13.4763 14.5522 13.4542 14.5538 13.4402C14.5545 13.4333 14.5552 13.4284 14.5555 13.4259C14.5557 13.4246 14.5558 13.4239 14.5558 13.4239C14.5558 13.4238 14.5558 13.424 14.5557 13.4242C14.5557 13.4244 14.5557 13.4246 14.5556 13.4248C14.5556 13.4249 14.5556 13.425 14.5556 13.4251C14.5556 13.4252 14.5556 13.4253 14.5556 13.4254C14.5555 13.4255 14.5555 13.4256 14.1436 13.3627ZM14.074 14.7222C14.2242 14.8876 14.4042 14.9481 14.5674 14.9687C14.6986 14.9853 14.8656 14.9787 14.9793 14.9787V14.1453C14.9403 14.1453 14.9036 14.1457 14.8708 14.146C14.8372 14.1464 14.8085 14.1466 14.7818 14.1466C14.7268 14.1465 14.6941 14.1448 14.6719 14.142C14.6515 14.1394 14.6521 14.1372 14.6623 14.1418C14.6752 14.1478 14.6858 14.1564 14.6908 14.1619L14.074 14.7222ZM14.9793 11.9865C14.638 11.9865 14.2779 12.0575 14.0384 12.408L14.7264 12.8781C14.7406 12.8574 14.7496 12.8513 14.7678 12.8444C14.7976 12.833 14.8581 12.8199 14.9793 12.8199V11.9865ZM14.0384 12.408C13.8899 12.6253 13.8147 12.8599 13.7757 13.0279C13.7557 13.1141 13.7439 13.1884 13.737 13.2425C13.7336 13.2696 13.7313 13.292 13.7299 13.3086C13.7292 13.3169 13.7286 13.3238 13.7283 13.3291C13.7281 13.3318 13.7279 13.334 13.7278 13.3359C13.7278 13.3369 13.7277 13.3377 13.7277 13.3385C13.7277 13.3388 13.7276 13.3392 13.7276 13.3395C13.7276 13.3397 13.7276 13.3398 13.7276 13.34C13.7276 13.34 13.7276 13.3401 13.7276 13.3402C13.7276 13.3403 13.7276 13.3404 14.1436 13.3627C14.5597 13.3849 14.5597 13.385 14.5597 13.3851C14.5597 13.3852 14.5597 13.3852 14.5597 13.3853C14.5597 13.3854 14.5597 13.3856 14.5597 13.3857C14.5597 13.3859 14.5596 13.3861 14.5596 13.3863C14.5596 13.3866 14.5596 13.3869 14.5596 13.3871C14.5596 13.3874 14.5596 13.3874 14.5596 13.387C14.5596 13.3863 14.5598 13.3843 14.5601 13.381C14.5607 13.3744 14.5618 13.3629 14.5637 13.3474C14.5677 13.3162 14.5749 13.2703 14.5874 13.2163C14.6135 13.104 14.6577 12.9787 14.7264 12.8781L14.0384 12.408ZM15.8149 13.3627C16.231 13.3404 16.231 13.3403 16.231 13.3402C16.231 13.3401 16.231 13.34 16.231 13.34C16.231 13.3398 16.2309 13.3397 16.2309 13.3395C16.2309 13.3392 16.2309 13.3388 16.2309 13.3385C16.2308 13.3377 16.2308 13.3369 16.2307 13.3359C16.2306 13.334 16.2305 13.3318 16.2303 13.3291C16.2299 13.3238 16.2294 13.3169 16.2287 13.3086C16.2272 13.292 16.225 13.2696 16.2215 13.2425C16.2146 13.1884 16.2029 13.1141 16.1829 13.0279C16.1439 12.8599 16.0687 12.6253 15.9202 12.408L15.2321 12.8781C15.3009 12.9787 15.3451 13.104 15.3711 13.2163C15.3837 13.2703 15.3908 13.3162 15.3948 13.3474C15.3968 13.3629 15.3979 13.3744 15.3985 13.381C15.3988 13.3843 15.3989 13.3863 15.399 13.387C15.399 13.3874 15.399 13.3874 15.399 13.3871C15.3989 13.3869 15.3989 13.3866 15.3989 13.3863C15.3989 13.3861 15.3989 13.3859 15.3989 13.3857C15.3989 13.3856 15.3989 13.3854 15.3989 13.3853C15.3989 13.3852 15.3989 13.3852 15.3988 13.3851C15.3988 13.385 15.3988 13.3849 15.8149 13.3627ZM15.9202 12.408C15.6807 12.0575 15.3205 11.9865 14.9793 11.9865V12.8199C15.1005 12.8199 15.1609 12.833 15.1907 12.8444C15.2089 12.8513 15.218 12.8574 15.2321 12.8781L15.9202 12.408ZM7.63876 12.0434V12.8829H8.4721V12.0434H7.63876ZM7.63876 12.8829V16.1666H8.4721V12.8829H7.63876ZM22.4392 16.1666V12.8829H21.6058V16.1666H22.4392ZM22.4392 12.8829V12.0434H21.6058V12.8829H22.4392ZM8.05543 12.0434C7.95942 12.4488 7.95942 12.4488 7.95942 12.4488C7.95942 12.4488 7.95942 12.4488 7.95942 12.4488C7.95943 12.4488 7.95944 12.4488 7.95946 12.4488C7.9595 12.4489 7.95956 12.4489 7.95965 12.4489C7.95983 12.4489 7.96012 12.449 7.96051 12.4491C7.9613 12.4493 7.9625 12.4496 7.96411 12.45C7.96732 12.4507 7.97216 12.4519 7.97854 12.4534C7.9913 12.4564 8.0102 12.461 8.03453 12.4668C8.08321 12.4786 8.15358 12.4957 8.23998 12.517C8.41289 12.5596 8.64942 12.619 8.9043 12.6862L9.11659 11.8803C8.85631 11.8118 8.61534 11.7512 8.43953 11.7079C8.35157 11.6862 8.27978 11.6688 8.22988 11.6567C8.20493 11.6507 8.18544 11.646 8.17213 11.6429C8.16548 11.6413 8.16037 11.6401 8.15689 11.6392C8.15515 11.6388 8.15382 11.6385 8.15291 11.6383C8.15245 11.6382 8.1521 11.6381 8.15185 11.638C8.15173 11.638 8.15164 11.638 8.15157 11.638C8.15153 11.638 8.1515 11.6379 8.15148 11.6379C8.15147 11.6379 8.15146 11.6379 8.15146 11.6379C8.15145 11.6379 8.15144 11.6379 8.05543 12.0434ZM8.9043 12.6862C10.1186 13.0061 12.3303 13.5701 14.0952 13.7765L14.192 12.9488C12.494 12.7502 10.3366 12.2017 9.11659 11.8803L8.9043 12.6862ZM15.8627 13.7766C17.6484 13.5704 20.027 12.9943 21.2714 12.6738L21.0635 11.8668C19.8184 12.1875 17.4897 12.7499 15.7671 12.9487L15.8627 13.7766ZM21.2714 12.6738C21.5364 12.6055 21.7516 12.5484 21.9007 12.5083C21.9753 12.4883 22.0334 12.4725 22.0729 12.4617C22.0927 12.4562 22.1079 12.4521 22.1181 12.4492C22.1233 12.4478 22.1272 12.4467 22.1298 12.446C22.1312 12.4456 22.1322 12.4454 22.1329 12.4452C22.1332 12.4451 22.1335 12.445 22.1337 12.4449C22.1338 12.4449 22.1339 12.4449 22.1339 12.4449C22.134 12.4449 22.134 12.4449 22.134 12.4449C22.134 12.4449 22.134 12.4448 22.134 12.4448C22.134 12.4448 22.134 12.4448 22.0225 12.0434C21.9109 11.6419 21.911 11.6419 21.911 11.6419C21.911 11.6419 21.911 11.6419 21.911 11.6419C21.911 11.6419 21.9109 11.6419 21.9109 11.6419C21.9109 11.6419 21.9109 11.6419 21.9108 11.642C21.9107 11.642 21.9105 11.6421 21.9102 11.6421C21.9096 11.6423 21.9087 11.6425 21.9075 11.6429C21.9051 11.6435 21.9015 11.6446 21.8966 11.6459C21.8869 11.6486 21.8723 11.6526 21.853 11.6579C21.8146 11.6684 21.7577 11.6838 21.6844 11.7036C21.5377 11.743 21.3254 11.7993 21.0635 11.8668L21.2714 12.6738ZM7.08333 8.87961V11.2978H7.91667V8.87961H7.08333ZM7.79906 12.3865L7.89024 12.4259L8.22063 11.6609L8.12945 11.6215L7.79906 12.3865ZM22.9167 11.3455V8.87961H22.0833V11.3455H22.9167ZM22.1734 12.4318C22.6215 12.2576 22.9167 11.8262 22.9167 11.3455H22.0833C22.0833 11.4825 21.9992 11.6054 21.8716 11.655L22.1734 12.4318ZM15.5896 6.58329C16.2091 6.58329 16.7114 7.08553 16.7114 7.70508L17.5447 7.70507C17.5447 6.62529 16.6694 5.74996 15.5896 5.74996V6.58329ZM13.1278 7.7051C13.1278 7.08554 13.63 6.58329 14.2496 6.58329V5.74996C13.1698 5.74996 12.2945 6.62531 12.2945 7.7051L13.1278 7.7051ZM9.20928 16.9038C8.80215 16.9038 8.4721 16.5738 8.4721 16.1666H7.63876C7.63876 17.034 8.34191 17.7371 9.20928 17.7371V16.9038ZM21.3462 8.14243C21.7533 8.14243 22.0833 8.47248 22.0833 8.87961H22.9167C22.9167 8.01224 22.2135 7.3091 21.3462 7.3091V8.14243ZM20.8686 17.7371C21.736 17.7371 22.4392 17.034 22.4392 16.1666H21.6058C21.6058 16.5738 21.2758 16.9038 20.8686 16.9038V17.7371ZM7.08333 11.2978C7.08333 11.771 7.36464 12.1989 7.79906 12.3865L8.12945 11.6215C8.0003 11.5657 7.91667 11.4385 7.91667 11.2978H7.08333ZM8.65385 7.3091C7.78648 7.3091 7.08333 8.01224 7.08333 8.87961H7.91667C7.91667 8.47248 8.24671 8.14243 8.65385 8.14243V7.3091Z" fill="#4B54B9"/>
<path d="M39.8566 8.564C39.9846 8.564 40.1006 8.608 40.2046 8.696C40.3166 8.784 40.3726 8.908 40.3726 9.068C40.3726 9.124 40.3646 9.184 40.3486 9.248L37.7926 16.688C37.7606 16.784 37.7006 16.86 37.6126 16.916C37.5326 16.964 37.4486 16.992 37.3606 17C37.2646 17 37.1726 16.976 37.0846 16.928C36.9966 16.872 36.9286 16.792 36.8806 16.688L34.8766 11.84L34.9726 11.876L32.9806 16.688C32.9326 16.792 32.8646 16.872 32.7766 16.928C32.6886 16.976 32.5966 17 32.5006 17C32.4126 16.992 32.3246 16.964 32.2366 16.916C32.1566 16.86 32.1006 16.784 32.0686 16.688L29.5126 9.248C29.4966 9.184 29.4886 9.128 29.4886 9.08C29.4886 8.92 29.5446 8.796 29.6566 8.708C29.7766 8.612 29.8966 8.564 30.0166 8.564C30.1126 8.564 30.2046 8.592 30.2926 8.648C30.3806 8.704 30.4406 8.78 30.4726 8.876L32.7166 15.5H32.5486L34.5046 10.664C34.5446 10.568 34.6046 10.492 34.6846 10.436C34.7646 10.38 34.8566 10.352 34.9606 10.352C35.0566 10.352 35.1446 10.38 35.2246 10.436C35.3126 10.492 35.3726 10.568 35.4046 10.664L37.3006 15.428L37.1566 15.488L39.3886 8.876C39.4206 8.78 39.4806 8.704 39.5686 8.648C39.6566 8.592 39.7526 8.564 39.8566 8.564ZM48.4886 13.88C48.4886 14.504 48.3486 15.06 48.0686 15.548C47.7966 16.036 47.4246 16.42 46.9526 16.7C46.4886 16.98 45.9646 17.12 45.3806 17.12C44.7966 17.12 44.2686 16.98 43.7966 16.7C43.3246 16.42 42.9486 16.036 42.6686 15.548C42.3966 15.06 42.2606 14.504 42.2606 13.88C42.2606 13.256 42.3966 12.7 42.6686 12.212C42.9486 11.724 43.3246 11.34 43.7966 11.06C44.2686 10.78 44.7966 10.64 45.3806 10.64C45.9646 10.64 46.4886 10.78 46.9526 11.06C47.4246 11.34 47.7966 11.724 48.0686 12.212C48.3486 12.7 48.4886 13.256 48.4886 13.88ZM47.5286 13.88C47.5286 13.416 47.4326 13.008 47.2406 12.656C47.0566 12.304 46.8006 12.028 46.4726 11.828C46.1526 11.628 45.7886 11.528 45.3806 11.528C44.9726 11.528 44.6046 11.628 44.2766 11.828C43.9566 12.028 43.7006 12.304 43.5086 12.656C43.3166 13.008 43.2206 13.416 43.2206 13.88C43.2206 14.336 43.3166 14.74 43.5086 15.092C43.7006 15.444 43.9566 15.724 44.2766 15.932C44.6046 16.132 44.9726 16.232 45.3806 16.232C45.7886 16.232 46.1526 16.132 46.4726 15.932C46.8006 15.724 47.0566 15.444 47.2406 15.092C47.4326 14.74 47.5286 14.336 47.5286 13.88ZM51.6125 17C51.4765 17 51.3605 16.952 51.2645 16.856C51.1765 16.76 51.1325 16.644 51.1325 16.508V11.276C51.1325 11.14 51.1765 11.028 51.2645 10.94C51.3605 10.844 51.4765 10.796 51.6125 10.796C51.7565 10.796 51.8725 10.844 51.9605 10.94C52.0485 11.028 52.0925 11.14 52.0925 11.276V12.86L51.9485 12.608C51.9965 12.36 52.0805 12.12 52.2005 11.888C52.3285 11.648 52.4885 11.436 52.6805 11.252C52.8725 11.06 53.0925 10.912 53.3405 10.808C53.5885 10.696 53.8605 10.64 54.1565 10.64C54.3325 10.64 54.4925 10.684 54.6365 10.772C54.7885 10.852 54.8645 10.968 54.8645 11.12C54.8645 11.288 54.8205 11.412 54.7325 11.492C54.6445 11.572 54.5445 11.612 54.4325 11.612C54.3285 11.612 54.2285 11.592 54.1325 11.552C54.0365 11.504 53.9165 11.48 53.7725 11.48C53.5725 11.48 53.3725 11.536 53.1725 11.648C52.9805 11.752 52.8005 11.904 52.6325 12.104C52.4725 12.304 52.3405 12.532 52.2365 12.788C52.1405 13.036 52.0925 13.304 52.0925 13.592V16.508C52.0925 16.644 52.0445 16.76 51.9485 16.856C51.8605 16.952 51.7485 17 51.6125 17ZM57.7249 17C57.5809 17 57.4649 16.952 57.3769 16.856C57.2889 16.76 57.2449 16.644 57.2449 16.508V8.6C57.2449 8.464 57.2889 8.352 57.3769 8.264C57.4649 8.168 57.5809 8.12 57.7249 8.12C57.8609 8.12 57.9729 8.168 58.0609 8.264C58.1569 8.352 58.2049 8.464 58.2049 8.6V16.508C58.2049 16.644 58.1569 16.76 58.0609 16.856C57.9729 16.952 57.8609 17 57.7249 17ZM61.7089 10.76C61.8369 10.76 61.9449 10.812 62.0329 10.916C62.1289 11.012 62.1769 11.112 62.1769 11.216C62.1769 11.352 62.1129 11.472 61.9849 11.576L58.0969 14.972L58.0609 13.856L61.3729 10.904C61.4689 10.808 61.5809 10.76 61.7089 10.76ZM61.8409 16.988C61.7049 16.988 61.5849 16.936 61.4809 16.832L58.9249 14.108L59.6449 13.448L62.1769 16.16C62.2729 16.264 62.3209 16.384 62.3209 16.52C62.3209 16.664 62.2649 16.78 62.1529 16.868C62.0409 16.948 61.9369 16.988 61.8409 16.988Z" fill="#4B54B9"/>
<rect x="0.625" y="0.625" width="68.75" height="22.75" rx="11.375" stroke="#4B54B9" stroke-width="0.75"/>
</svg>
