<svg width="71" height="24" viewBox="0 0 71 24" fill="none" xmlns="http://www.w3.org/2000/svg">
<path d="M17.9147 8.97624C17.9254 9.04272 17.9061 9.11398 17.8571 9.19003L15.8357 12.1409L17.8772 11.8137C17.9924 11.7952 18.0907 11.8081 18.1722 11.8525C18.2532 11.8934 18.3009 11.9593 18.3155 12.0502C18.3295 12.1377 18.3029 12.2173 18.2357 12.2891C18.1721 12.3567 18.0849 12.3994 17.9739 12.4172L15.1644 12.8675C15.0535 12.8853 14.9525 12.8692 14.8613 12.8192C14.7702 12.7692 14.7181 12.704 14.7052 12.6235C14.6946 12.5571 14.7138 12.4858 14.7629 12.4098L16.7779 9.45991L14.9283 9.75637C14.8131 9.77483 14.7148 9.76189 14.6333 9.71753C14.5518 9.67318 14.5037 9.60552 14.4892 9.51455C14.4751 9.42708 14.4999 9.34955 14.5635 9.28194C14.6313 9.21365 14.7207 9.17062 14.8316 9.15284L17.4491 8.73328C17.5515 8.71687 17.6501 8.73156 17.745 8.77737C17.8441 8.82248 17.9007 8.88877 17.9147 8.97624Z" fill="#4B54B9"/>
<path d="M19.3003 6.70216C19.407 6.69597 19.4975 6.71884 19.5719 6.77076C19.6461 6.81918 19.6856 6.88542 19.6905 6.96949C19.6952 7.05006 19.6636 7.12043 19.5957 7.1806C19.5278 7.24077 19.4405 7.27395 19.3338 7.28014L17.1861 7.40464C17.0838 7.41057 16.9955 7.38757 16.9211 7.33565C16.851 7.27997 16.814 7.21885 16.8101 7.15229C16.8066 7.09274 16.8127 7.04319 16.8282 7.00363C16.8436 6.96056 16.8742 6.91134 16.9201 6.85596L18.4136 5.1456L17.1197 5.22061C17.013 5.2268 16.9224 5.20393 16.8481 5.15201C16.7737 5.10008 16.734 5.03209 16.7292 4.94802C16.7245 4.86745 16.7562 4.79884 16.8243 4.74217C16.8922 4.682 16.9795 4.64882 17.0862 4.64263L19.1405 4.52354C19.2383 4.51787 19.3222 4.54113 19.3921 4.5933C19.4663 4.64172 19.5058 4.70622 19.5104 4.78678C19.5135 4.83933 19.5095 4.88525 19.4983 4.92456C19.487 4.96036 19.4584 5.0042 19.4123 5.05607L17.9063 6.78297L19.3003 6.70216Z" fill="#4B54B9"/>
<path d="M22.6342 10.0355C22.741 10.0293 22.8315 10.0522 22.9059 10.1041C22.9801 10.1526 23.0196 10.2188 23.0245 10.3029C23.0292 10.3834 22.9976 10.4538 22.9297 10.514C22.8618 10.5741 22.7745 10.6073 22.6677 10.6135L20.5201 10.738C20.4178 10.7439 20.3295 10.7209 20.2551 10.669C20.1849 10.6133 20.1479 10.5522 20.1441 10.4857C20.1406 10.4261 20.1467 10.3766 20.1622 10.337C20.1776 10.2939 20.2082 10.2447 20.254 10.1893L21.7476 8.47897L20.4537 8.55398C20.347 8.56017 20.2564 8.5373 20.182 8.48538C20.1076 8.43346 20.068 8.36546 20.0631 8.28139C20.0585 8.20083 20.0902 8.13221 20.1583 8.07554C20.2262 8.01537 20.3135 7.98219 20.4202 7.97601L22.4745 7.85692C22.5723 7.85124 22.6562 7.8745 22.7261 7.92668C22.8003 7.9751 22.8398 8.03959 22.8444 8.12016C22.8475 8.1727 22.8434 8.21862 22.8323 8.25793C22.821 8.29373 22.7923 8.33757 22.7463 8.38945L21.2403 10.1163L22.6342 10.0355Z" fill="#4B54B9"/>
<mask id="path-5-inside-1_4048_32528" fill="white">
<path d="M15.7213 14.8517C16.3308 14.7007 16.9168 15.2086 16.6783 15.7894C15.8347 17.8438 13.9182 19.1387 11.6347 18.7637C8.89016 18.313 7.03709 15.6835 7.49573 12.8905C7.87923 10.5551 9.75756 8.84493 11.9672 8.61069C12.5795 8.54579 12.8825 9.23686 12.5697 9.76715C10.5677 13.1614 10.742 16.0851 15.7213 14.8517Z"/>
</mask>
<path d="M15.9075 15.4729C15.1886 17.2235 13.6144 18.2443 11.7697 17.9414L11.4997 19.586C14.222 20.0331 16.4809 18.464 17.4492 16.106L15.9075 15.4729ZM11.7697 17.9414C9.49286 17.5675 7.93175 15.378 8.31805 13.0256L6.67341 12.7555C6.14243 15.989 8.28746 19.0586 11.4997 19.586L11.7697 17.9414ZM8.31805 13.0256C8.64063 11.0611 10.2177 9.63416 12.0551 9.43938L11.8794 7.782C9.29747 8.0557 7.11782 10.0491 6.67341 12.7555L8.31805 13.0256ZM11.8519 9.34378C11.3256 10.2361 10.9228 11.1293 10.71 11.9604C10.5009 12.7775 10.4521 13.6282 10.7579 14.3644C11.0858 15.154 11.7587 15.6649 12.6644 15.868C13.5297 16.0621 14.619 15.9833 15.9217 15.6606L15.521 14.0428C14.334 14.3368 13.5343 14.3551 13.0291 14.2418C12.5642 14.1375 12.385 13.9367 12.2971 13.7252C12.1872 13.4604 12.159 13.0208 12.3246 12.3736C12.4867 11.7405 12.8128 10.9953 13.2875 10.1905L11.8519 9.34378ZM12.0551 9.43938C12.0399 9.44099 11.9945 9.43887 11.9437 9.40924C11.8974 9.38223 11.8752 9.34914 11.8671 9.33247C11.8542 9.30624 11.869 9.31485 11.8519 9.34378L13.2875 10.1905C13.5832 9.68915 13.6029 9.08709 13.3636 8.59898C13.1106 8.08266 12.5646 7.70937 11.8794 7.782L12.0551 9.43938ZM17.4492 16.106C17.7124 15.4651 17.5081 14.832 17.0876 14.438C16.6871 14.0628 16.0979 13.8999 15.521 14.0428L15.9217 15.6606C15.9543 15.6525 15.9628 15.668 15.9481 15.6543C15.9381 15.6449 15.9165 15.6193 15.9055 15.5739C15.8932 15.5234 15.9027 15.4844 15.9075 15.4729L17.4492 16.106Z" fill="#4B54B9" mask="url(#path-5-inside-1_4048_32528)"/>
<path d="M31.6938 17.12C31.1018 17.12 30.5818 17.032 30.1338 16.856C29.6858 16.68 29.2538 16.4 28.8378 16.016C28.7818 15.96 28.7338 15.9 28.6938 15.836C28.6618 15.764 28.6458 15.688 28.6458 15.608C28.6458 15.48 28.6898 15.368 28.7778 15.272C28.8738 15.168 28.9898 15.116 29.1258 15.116C29.2378 15.116 29.3378 15.16 29.4258 15.248C29.7378 15.552 30.0738 15.784 30.4338 15.944C30.8018 16.104 31.2138 16.184 31.6698 16.184C32.0218 16.184 32.3378 16.128 32.6178 16.016C32.9058 15.904 33.1338 15.748 33.3018 15.548C33.4698 15.348 33.5538 15.116 33.5538 14.852C33.5458 14.532 33.4498 14.268 33.2658 14.06C33.0898 13.852 32.8418 13.68 32.5218 13.544C32.2098 13.4 31.8458 13.28 31.4298 13.184C31.0618 13.096 30.7218 12.988 30.4098 12.86C30.1058 12.732 29.8418 12.576 29.6178 12.392C29.3938 12.2 29.2178 11.972 29.0898 11.708C28.9698 11.436 28.9098 11.12 28.9098 10.76C28.9098 10.304 29.0298 9.904 29.2698 9.56C29.5098 9.216 29.8418 8.952 30.2658 8.768C30.6898 8.576 31.1778 8.48 31.7298 8.48C32.2178 8.48 32.6778 8.56 33.1098 8.72C33.5498 8.88 33.9018 9.1 34.1658 9.38C34.3258 9.532 34.4058 9.68 34.4058 9.824C34.4058 9.944 34.3538 10.056 34.2498 10.16C34.1538 10.256 34.0418 10.304 33.9138 10.304C33.8258 10.304 33.7458 10.272 33.6738 10.208C33.5378 10.056 33.3658 9.92 33.1578 9.8C32.9498 9.68 32.7218 9.584 32.4738 9.512C32.2258 9.44 31.9778 9.404 31.7298 9.404C31.3618 9.404 31.0378 9.46 30.7578 9.572C30.4778 9.676 30.2578 9.828 30.0978 10.028C29.9458 10.22 29.8698 10.452 29.8698 10.724C29.8698 11.028 29.9578 11.28 30.1338 11.48C30.3098 11.672 30.5458 11.832 30.8418 11.96C31.1378 12.08 31.4658 12.188 31.8258 12.284C32.2178 12.38 32.5778 12.492 32.9058 12.62C33.2418 12.74 33.5298 12.892 33.7698 13.076C34.0098 13.26 34.1938 13.496 34.3218 13.784C34.4578 14.064 34.5258 14.412 34.5258 14.828C34.5258 15.268 34.4018 15.66 34.1538 16.004C33.9058 16.348 33.5658 16.62 33.1338 16.82C32.7098 17.012 32.2298 17.112 31.6938 17.12ZM38.2245 16.508C38.2245 16.644 38.1765 16.76 38.0805 16.856C37.9845 16.952 37.8685 17 37.7325 17C37.5965 17 37.4845 16.952 37.3965 16.856C37.3085 16.76 37.2645 16.644 37.2645 16.508V8.6C37.2645 8.464 37.3085 8.352 37.3965 8.264C37.4925 8.168 37.6085 8.12 37.7445 8.12C37.8885 8.12 38.0045 8.168 38.0925 8.264C38.1805 8.352 38.2245 8.464 38.2245 8.6V16.508ZM44.0373 17.12C43.3973 17.12 42.8373 16.984 42.3573 16.712C41.8773 16.44 41.5013 16.068 41.2293 15.596C40.9653 15.116 40.8333 14.564 40.8333 13.94C40.8333 13.244 40.9693 12.652 41.2413 12.164C41.5213 11.668 41.8813 11.292 42.3213 11.036C42.7693 10.772 43.2413 10.64 43.7373 10.64C44.1053 10.64 44.4613 10.708 44.8053 10.844C45.1493 10.98 45.4533 11.18 45.7173 11.444C45.9813 11.7 46.1933 12.012 46.3533 12.38C46.5133 12.74 46.5973 13.144 46.6053 13.592C46.6053 13.72 46.5573 13.828 46.4613 13.916C46.3653 14.004 46.2533 14.048 46.1253 14.048H41.3853L41.1693 13.22H45.7893L45.5973 13.388V13.124C45.5653 12.796 45.4533 12.516 45.2613 12.284C45.0773 12.044 44.8493 11.86 44.5773 11.732C44.3133 11.604 44.0333 11.54 43.7373 11.54C43.4973 11.54 43.2573 11.584 43.0173 11.672C42.7853 11.752 42.5733 11.888 42.3813 12.08C42.1973 12.264 42.0453 12.504 41.9253 12.8C41.8133 13.096 41.7573 13.452 41.7573 13.868C41.7573 14.332 41.8493 14.74 42.0333 15.092C42.2253 15.444 42.4893 15.724 42.8253 15.932C43.1613 16.132 43.5533 16.232 44.0013 16.232C44.2813 16.232 44.5253 16.196 44.7333 16.124C44.9413 16.052 45.1213 15.964 45.2733 15.86C45.4253 15.748 45.5533 15.636 45.6573 15.524C45.7613 15.452 45.8613 15.416 45.9573 15.416C46.0773 15.416 46.1733 15.456 46.2453 15.536C46.3253 15.616 46.3653 15.712 46.3653 15.824C46.3653 15.96 46.3013 16.08 46.1733 16.184C45.9493 16.432 45.6453 16.652 45.2613 16.844C44.8773 17.028 44.4693 17.12 44.0373 17.12ZM52.1162 17.12C51.4762 17.12 50.9162 16.984 50.4362 16.712C49.9562 16.44 49.5802 16.068 49.3082 15.596C49.0442 15.116 48.9122 14.564 48.9122 13.94C48.9122 13.244 49.0482 12.652 49.3202 12.164C49.6002 11.668 49.9602 11.292 50.4002 11.036C50.8482 10.772 51.3202 10.64 51.8162 10.64C52.1842 10.64 52.5402 10.708 52.8842 10.844C53.2282 10.98 53.5322 11.18 53.7962 11.444C54.0602 11.7 54.2722 12.012 54.4322 12.38C54.5922 12.74 54.6762 13.144 54.6842 13.592C54.6842 13.72 54.6362 13.828 54.5402 13.916C54.4442 14.004 54.3322 14.048 54.2042 14.048H49.4642L49.2482 13.22H53.8682L53.6762 13.388V13.124C53.6442 12.796 53.5322 12.516 53.3402 12.284C53.1562 12.044 52.9282 11.86 52.6562 11.732C52.3922 11.604 52.1122 11.54 51.8162 11.54C51.5762 11.54 51.3362 11.584 51.0962 11.672C50.8642 11.752 50.6522 11.888 50.4602 12.08C50.2762 12.264 50.1242 12.504 50.0042 12.8C49.8922 13.096 49.8362 13.452 49.8362 13.868C49.8362 14.332 49.9282 14.74 50.1122 15.092C50.3042 15.444 50.5682 15.724 50.9042 15.932C51.2402 16.132 51.6322 16.232 52.0802 16.232C52.3602 16.232 52.6042 16.196 52.8122 16.124C53.0202 16.052 53.2002 15.964 53.3522 15.86C53.5042 15.748 53.6322 15.636 53.7362 15.524C53.8402 15.452 53.9402 15.416 54.0362 15.416C54.1562 15.416 54.2522 15.456 54.3242 15.536C54.4042 15.616 54.4442 15.712 54.4442 15.824C54.4442 15.96 54.3802 16.08 54.2522 16.184C54.0282 16.432 53.7242 16.652 53.3402 16.844C52.9562 17.028 52.5482 17.12 52.1162 17.12ZM60.3871 10.7C60.9311 10.7 61.4191 10.836 61.8511 11.108C62.2831 11.38 62.6231 11.756 62.8711 12.236C63.1271 12.716 63.2551 13.268 63.2551 13.892C63.2551 14.508 63.1271 15.06 62.8711 15.548C62.6231 16.028 62.2831 16.408 61.8511 16.688C61.4271 16.96 60.9471 17.096 60.4111 17.096C60.1151 17.096 59.8351 17.052 59.5711 16.964C59.3151 16.868 59.0791 16.748 58.8631 16.604C58.6551 16.452 58.4791 16.284 58.3351 16.1C58.1911 15.908 58.0871 15.72 58.0231 15.536L58.2871 15.368V18.908C58.2871 19.044 58.2431 19.16 58.1551 19.256C58.0671 19.352 57.9511 19.4 57.8071 19.4C57.6711 19.4 57.5551 19.352 57.4591 19.256C57.3711 19.168 57.3271 19.052 57.3271 18.908V11.24C57.3271 11.104 57.3711 10.992 57.4591 10.904C57.5551 10.808 57.6711 10.76 57.8071 10.76C57.9511 10.76 58.0671 10.808 58.1551 10.904C58.2431 10.992 58.2871 11.104 58.2871 11.24V12.308L58.1071 12.212C58.1631 12.012 58.2591 11.82 58.3951 11.636C58.5391 11.452 58.7111 11.292 58.9111 11.156C59.1191 11.012 59.3471 10.9 59.5951 10.82C59.8511 10.74 60.1151 10.7 60.3871 10.7ZM60.2791 11.588C59.8791 11.588 59.5231 11.688 59.2111 11.888C58.9071 12.088 58.6671 12.36 58.4911 12.704C58.3231 13.048 58.2391 13.444 58.2391 13.892C58.2391 14.332 58.3231 14.728 58.4911 15.08C58.6671 15.432 58.9071 15.708 59.2111 15.908C59.5231 16.108 59.8791 16.208 60.2791 16.208C60.6791 16.208 61.0311 16.108 61.3351 15.908C61.6391 15.708 61.8791 15.432 62.0551 15.08C62.2311 14.728 62.3191 14.332 62.3191 13.892C62.3191 13.444 62.2311 13.048 62.0551 12.704C61.8791 12.36 61.6391 12.088 61.3351 11.888C61.0311 11.688 60.6791 11.588 60.2791 11.588Z" fill="#4B54B9"/>
<rect x="0.625" y="0.625" width="69.75" height="22.75" rx="11.375" stroke="#4B54B9" stroke-width="0.75"/>
</svg>
