<svg width="88" height="24" viewBox="0 0 88 24" fill="none" xmlns="http://www.w3.org/2000/svg">
<path d="M18.2709 4.68345L18.4256 5.07032L18.2709 4.68345ZM15.6323 6.40866L15.3383 6.11342L15.6323 6.40866ZM13.8564 8.69203L14.21 8.91237L13.8564 8.69203ZM11.0236 15.3859L11.4178 15.521L11.0236 15.3859ZM10.0492 18.3184L10.4535 18.4191L10.0492 18.3184ZM10.374 19.4045L10.2188 19.7912H10.2188L10.374 19.4045ZM11.4567 19.0787L11.0992 18.8648L11.4567 19.0787ZM13.0808 15.0601L13.4498 14.8665C13.3734 14.721 13.2187 14.6339 13.0547 14.6442C12.8907 14.6545 12.7481 14.7603 12.6905 14.9142L13.0808 15.0601ZM16.1125 19.4045L15.9522 19.0199L16.1125 19.4045ZM16.5455 18.427L16.9463 18.3128L16.5455 18.427ZM14.5966 13.974L14.2368 13.764C14.1677 13.8823 14.1613 14.027 14.2194 14.151L14.5966 13.974ZM16.7621 10.064L16.4479 10.3378L16.7621 10.064ZM15.6323 8.84426L15.2857 8.61304C15.1774 8.77542 15.1963 8.99123 15.3312 9.13228L15.6323 8.84426ZM16.7621 7.37275L16.4675 7.07813L16.7621 7.37275ZM16.1125 11.476L16.3987 11.1732C16.3078 11.0873 16.1831 11.0467 16.0591 11.0627C15.935 11.0788 15.8248 11.1497 15.7587 11.2559L16.1125 11.476ZM15.1756 12.9818L14.8217 12.7616L14.8158 12.7718L15.1756 12.9818ZM17.256 12.8021L17.663 12.8916L17.256 12.8021ZM19.7713 4.53493C19.6341 4.35203 19.4681 4.2239 19.28 4.15173C19.0947 4.08062 18.9134 4.0735 18.7574 4.09213C18.473 4.1261 18.1916 4.26639 18.1161 4.29658L18.4256 5.07032C18.6038 4.99903 18.7158 4.93635 18.8562 4.91958C18.9127 4.91283 18.9519 4.9184 18.9814 4.92974C19.0082 4.94002 19.0515 4.96412 19.1046 5.03493L19.7713 4.53493ZM18.1161 4.29658C17.5855 4.50884 16.2567 5.19878 15.3383 6.11342L15.9263 6.70389C16.7402 5.89332 17.9606 5.25631 18.4256 5.07032L18.1161 4.29658ZM15.3383 6.11342C14.8679 6.58193 14.5822 6.88871 14.3246 7.22631C14.0701 7.55991 13.8483 7.91709 13.5027 8.47169L14.21 8.91237C14.5624 8.34677 14.7616 8.02731 14.9871 7.7318C15.2095 7.44028 15.4628 7.16548 15.9263 6.70389L15.3383 6.11342ZM13.5027 8.47169C11.847 11.129 11.5769 12.4871 10.6295 15.2508L11.4178 15.521C12.381 12.7111 12.6175 11.4683 14.21 8.91237L13.5027 8.47169ZM10.6295 15.2508C10.201 16.5009 9.75894 17.7601 9.64493 18.2176L10.4535 18.4191C10.556 18.0078 10.9769 16.8071 11.4178 15.521L10.6295 15.2508ZM9.64493 18.2176C9.5917 18.4312 9.55619 18.7244 9.61028 19.0083C9.66588 19.3003 9.83142 19.6357 10.2188 19.7912L10.5292 19.0178C10.4927 19.0032 10.4518 18.9725 10.4289 18.8524C10.4045 18.7244 10.4186 18.5595 10.4535 18.4191L9.64493 18.2176ZM10.2188 19.7912C10.5491 19.9237 10.8736 19.9617 11.1746 19.8548C11.4736 19.7486 11.6748 19.5259 11.8143 19.2925L11.0992 18.8648C11.0169 19.0023 10.9474 19.0511 10.8958 19.0695C10.8462 19.0871 10.7402 19.1025 10.5292 19.0178L10.2188 19.7912ZM11.8143 19.2925C11.9143 19.1254 12.0684 18.7752 12.2322 18.3818C12.4014 17.9754 12.5956 17.4867 12.7788 17.0172C12.9621 16.5472 13.1351 16.0945 13.2623 15.7595C13.3259 15.5919 13.3781 15.4536 13.4143 15.3572C13.4325 15.309 13.4466 15.2713 13.4563 15.2456C13.4611 15.2327 13.4648 15.2228 13.4673 15.2162C13.4685 15.2128 13.4695 15.2103 13.4701 15.2086C13.4705 15.2078 13.4707 15.2071 13.4709 15.2067C13.4709 15.2065 13.471 15.2063 13.471 15.2062C13.4711 15.2061 13.4711 15.2061 13.4711 15.206C13.4711 15.206 13.4711 15.206 13.0808 15.0601C12.6905 14.9142 12.6905 14.9142 12.6905 14.9142C12.6905 14.9142 12.6905 14.9143 12.6905 14.9143C12.6905 14.9144 12.6904 14.9146 12.6903 14.9148C12.6902 14.9152 12.6899 14.9158 12.6896 14.9166C12.689 14.9183 12.6881 14.9207 12.6869 14.924C12.6844 14.9305 12.6808 14.9402 12.676 14.953C12.6665 14.9784 12.6524 15.0158 12.6344 15.0637C12.5984 15.1595 12.5465 15.297 12.4832 15.4638C12.3566 15.7973 12.1845 16.2475 12.0024 16.7143C11.8201 17.1815 11.6286 17.6635 11.4629 18.0615C11.2917 18.4725 11.1616 18.7604 11.0992 18.8648L11.8143 19.2925ZM12.7119 15.2537C13.1299 16.0504 13.5859 17.0189 13.969 17.8254C14.1593 18.2262 14.3326 18.5888 14.4722 18.8652C14.5419 19.0032 14.6055 19.1244 14.6603 19.2204C14.7059 19.3 14.7705 19.4088 14.8429 19.4814L15.4331 18.8931C15.4514 18.9114 15.4375 18.9008 15.3839 18.807C15.3396 18.7294 15.2834 18.6228 15.2161 18.4896C15.0818 18.2237 14.9128 17.8702 14.7217 17.4679C14.3418 16.6681 13.8774 15.6815 13.4498 14.8665L12.7119 15.2537ZM14.8429 19.4814C15.0152 19.6543 15.2531 19.7732 15.4889 19.8312C15.7247 19.8891 16.01 19.8986 16.2728 19.7891L15.9522 19.0199C15.9001 19.0416 15.8065 19.0511 15.6878 19.0219C15.5693 18.9928 15.4773 18.9374 15.4331 18.8931L14.8429 19.4814ZM16.2728 19.7891C16.5689 19.6657 16.7675 19.4097 16.8752 19.1595C16.9834 18.9082 17.0279 18.5993 16.9463 18.3128L16.1448 18.5411C16.1632 18.6055 16.1591 18.7154 16.1097 18.8301C16.0598 18.946 15.9919 19.0033 15.9522 19.0199L16.2728 19.7891ZM16.9463 18.3128C16.8836 18.0929 16.7234 17.6945 16.533 17.2473C16.3384 16.7901 16.1002 16.2541 15.8696 15.7438C15.6388 15.2332 15.4149 14.7466 15.2488 14.3878C15.1657 14.2084 15.097 14.0608 15.0491 13.958C15.0251 13.9066 15.0064 13.8664 14.9936 13.8391C14.9872 13.8254 14.9822 13.8149 14.9789 13.8078C14.9773 13.8043 14.976 13.8016 14.9752 13.7998C14.9747 13.7989 14.9744 13.7982 14.9742 13.7978C14.9741 13.7975 14.974 13.7973 14.974 13.7972C14.9739 13.7972 14.9739 13.7971 14.9739 13.7971C14.9739 13.7971 14.9739 13.797 14.5966 13.974C14.2194 14.151 14.2194 14.151 14.2194 14.151C14.2195 14.151 14.2195 14.151 14.2195 14.1511C14.2195 14.1512 14.2196 14.1514 14.2197 14.1516C14.2199 14.152 14.2202 14.1527 14.2206 14.1535C14.2215 14.1553 14.2227 14.1579 14.2243 14.1614C14.2276 14.1683 14.2324 14.1787 14.2388 14.1922C14.2514 14.2193 14.2701 14.2592 14.2939 14.3103C14.3415 14.4124 14.4099 14.5593 14.4926 14.7379C14.6581 15.0953 14.8808 15.5794 15.1102 16.087C15.3397 16.5949 15.5752 17.1246 15.7663 17.5737C15.9616 18.0326 16.0992 18.3809 16.1448 18.5411L16.9463 18.3128ZM14.5966 13.974C14.5332 14.3858 14.5333 14.3858 14.5334 14.3858C14.5334 14.3858 14.5335 14.3859 14.5336 14.3859C14.5338 14.3859 14.5341 14.3859 14.5344 14.386C14.535 14.3861 14.5358 14.3862 14.5369 14.3864C14.539 14.3867 14.542 14.3871 14.5459 14.3877C14.5537 14.3889 14.565 14.3905 14.5795 14.3927C14.6086 14.3969 14.6508 14.4028 14.7044 14.41C14.8115 14.4244 14.9644 14.4437 15.149 14.4636C15.5172 14.5034 16.0162 14.5463 16.5327 14.5573C17.0446 14.5682 17.5952 14.5484 18.0581 14.4543C18.2895 14.4073 18.5176 14.338 18.7135 14.2327C18.9092 14.1274 19.1002 13.9707 19.2075 13.7374L18.4505 13.389C18.4437 13.4039 18.4168 13.446 18.3186 13.4988C18.2206 13.5516 18.0788 13.5997 17.8921 13.6377C17.5186 13.7136 17.0396 13.7346 16.5505 13.7241C16.066 13.7138 15.5925 13.6733 15.2385 13.6351C15.062 13.616 14.9163 13.5976 14.8151 13.5841C14.7646 13.5773 14.7252 13.5717 14.6988 13.5679C14.6856 13.566 14.6756 13.5645 14.6691 13.5635C14.6658 13.5631 14.6634 13.5627 14.6619 13.5625C14.6612 13.5623 14.6606 13.5623 14.6603 13.5622C14.6602 13.5622 14.6601 13.5622 14.66 13.5622C14.66 13.5622 14.66 13.5622 14.66 13.5622C14.66 13.5622 14.6601 13.5622 14.5966 13.974ZM18.3775 11.1898C18.0958 10.8617 17.9622 10.7334 17.8028 10.5755C17.6532 10.4274 17.4707 10.2431 17.0762 9.79034L16.4479 10.3378C16.8557 10.8058 17.0522 11.005 17.2164 11.1676C17.3707 11.3204 17.4856 11.4302 17.7453 11.7327L18.3775 11.1898ZM17.0762 9.79034C16.8815 9.56678 16.5943 9.25688 16.3592 9.00618C16.2409 8.88011 16.1346 8.76774 16.0578 8.68688C16.0194 8.64644 15.9884 8.61385 15.9669 8.59134C15.9562 8.58009 15.9478 8.57135 15.9422 8.56541C15.9393 8.56244 15.9372 8.56016 15.9357 8.55862C15.9349 8.55785 15.9344 8.55727 15.934 8.55687C15.9338 8.55667 15.9337 8.55651 15.9336 8.55641C15.9335 8.55636 15.9335 8.55632 15.9335 8.55629C15.9334 8.55627 15.9334 8.55626 15.9334 8.55625C15.9334 8.55624 15.9334 8.55624 15.6323 8.84426C15.3312 9.13228 15.3312 9.13228 15.3312 9.13228C15.3312 9.13229 15.3312 9.1323 15.3313 9.1323C15.3313 9.13232 15.3313 9.13235 15.3313 9.1324C15.3314 9.13248 15.3315 9.13262 15.3317 9.1328C15.3321 9.13315 15.3326 9.1337 15.3333 9.13443C15.3347 9.13589 15.3368 9.13808 15.3395 9.14097C15.345 9.14674 15.3532 9.1553 15.3638 9.16637C15.3849 9.18851 15.4155 9.22067 15.4535 9.26065C15.5294 9.34063 15.6345 9.45176 15.7514 9.57633C15.9865 9.82693 16.2642 10.1269 16.4479 10.3378L17.0762 9.79034ZM15.6323 8.84426C15.9789 9.07549 15.9789 9.0755 15.9789 9.07551C15.9789 9.07551 15.9789 9.07551 15.9789 9.07551C15.9789 9.0755 15.9789 9.07547 15.979 9.07543C15.979 9.07536 15.9791 9.07521 15.9793 9.07501C15.9795 9.07461 15.98 9.07396 15.9805 9.07308C15.9817 9.07131 15.9835 9.0686 15.986 9.06498C15.9908 9.05775 15.9981 9.04692 16.0076 9.03289C16.0266 9.00482 16.0545 8.96396 16.0893 8.91344C16.159 8.81228 16.2565 8.67296 16.3674 8.52026C16.5945 8.20761 16.86 7.86414 17.0567 7.66738L16.4675 7.07813C16.2192 7.32638 15.9197 7.71866 15.6932 8.03051C15.5773 8.19007 15.4758 8.33518 15.4032 8.44039C15.3669 8.49306 15.3378 8.53587 15.3176 8.56568C15.3075 8.58058 15.2996 8.59224 15.2943 8.60026C15.2916 8.60428 15.2895 8.60738 15.288 8.60952C15.2873 8.6106 15.2868 8.61143 15.2864 8.61202C15.2862 8.61231 15.286 8.61254 15.2859 8.61271C15.2859 8.6128 15.2858 8.61287 15.2858 8.61292C15.2858 8.61295 15.2857 8.61298 15.2857 8.61299C15.2857 8.61301 15.2857 8.61304 15.6323 8.84426ZM17.0567 7.66738C17.4297 7.29439 18.18 6.75585 18.6484 6.4547L18.1978 5.75372C17.7191 6.06148 16.9063 6.63926 16.4675 7.07813L17.0567 7.66738ZM15.7587 11.2559L14.8219 12.7617L15.5294 13.2019L16.4663 11.6961L15.7587 11.2559ZM15.1756 12.9818C15.1499 13.3976 15.1499 13.3976 15.15 13.3976C15.15 13.3976 15.15 13.3976 15.1501 13.3976C15.1502 13.3976 15.1503 13.3977 15.1505 13.3977C15.1508 13.3977 15.1513 13.3977 15.1518 13.3977C15.153 13.3978 15.1546 13.3979 15.1567 13.398C15.1608 13.3983 15.1669 13.3986 15.1746 13.3991C15.1901 13.4 15.2126 13.4012 15.241 13.4026C15.2979 13.4056 15.3789 13.4093 15.4761 13.4129C15.6698 13.42 15.9311 13.4263 16.1963 13.4227C16.4576 13.4192 16.7393 13.406 16.9674 13.3702C17.0787 13.3528 17.2012 13.3264 17.3083 13.2816C17.384 13.2499 17.6068 13.1471 17.663 12.8916L16.8491 12.7126C16.8886 12.5333 17.0337 12.4931 16.9866 12.5129C16.9707 12.5195 16.925 12.5333 16.8381 12.547C16.6698 12.5734 16.4356 12.5861 16.1852 12.5895C15.9387 12.5928 15.6924 12.5869 15.5065 12.5801C15.4139 12.5767 15.337 12.5731 15.2835 12.5704C15.2568 12.569 15.2359 12.5679 15.2219 12.5671C15.2149 12.5667 15.2096 12.5664 15.2062 12.5662C15.2044 12.5661 15.2032 12.566 15.2024 12.5659C15.202 12.5659 15.2017 12.5659 15.2015 12.5659C15.2015 12.5659 15.2014 12.5659 15.2014 12.5659C15.2014 12.5659 15.2014 12.5659 15.2014 12.5659C15.2014 12.5659 15.2014 12.5659 15.1756 12.9818ZM17.663 12.8916C17.689 12.7734 17.6625 12.6736 17.6471 12.6258C17.6291 12.5701 17.6044 12.5208 17.5828 12.4825C17.5393 12.4052 17.4816 12.3254 17.4239 12.2519C17.3064 12.1024 17.1513 11.9316 17.0028 11.7756C16.8526 11.6178 16.7018 11.4675 16.589 11.357C16.5325 11.3017 16.4853 11.256 16.452 11.2241C16.4354 11.2081 16.4222 11.1955 16.4131 11.1869C16.4086 11.1825 16.4051 11.1792 16.4026 11.1769C16.4014 11.1757 16.4005 11.1749 16.3998 11.1742C16.3995 11.1739 16.3992 11.1737 16.399 11.1735C16.3989 11.1734 16.3989 11.1733 16.3988 11.1733C16.3988 11.1733 16.3988 11.1732 16.3987 11.1732C16.3987 11.1732 16.3987 11.1732 16.1125 11.476C15.8262 11.7788 15.8262 11.7788 15.8262 11.7788C15.8262 11.7788 15.8262 11.7788 15.8262 11.7788C15.8263 11.7788 15.8263 11.7788 15.8263 11.7789C15.8264 11.7789 15.8266 11.7791 15.8268 11.7793C15.8273 11.7798 15.8281 11.7805 15.8291 11.7815C15.8312 11.7835 15.8343 11.7864 15.8385 11.7904C15.8468 11.7983 15.8591 11.8101 15.8749 11.8252C15.9064 11.8555 15.9516 11.8991 16.0058 11.9522C16.1145 12.0587 16.258 12.2018 16.3992 12.3502C16.5422 12.5004 16.6757 12.6485 16.7685 12.7666C16.8159 12.827 16.8437 12.8682 16.8566 12.8912C16.8633 12.903 16.8595 12.8987 16.854 12.8817C16.8511 12.8726 16.8287 12.8054 16.8491 12.7126L17.663 12.8916ZM14.8158 12.7718L14.2368 13.764L14.9565 14.184L15.5355 13.1918L14.8158 12.7718ZM19.2075 13.7374C19.344 13.441 19.4057 13.1593 19.3942 12.8871C19.3826 12.6143 19.2984 12.3783 19.1827 12.1724C19.0696 11.9712 18.9237 11.7943 18.7848 11.6387C18.6301 11.4653 18.5149 11.3498 18.3775 11.1898L17.7453 11.7327C17.8785 11.8879 18.0517 12.0688 18.163 12.1935C18.2902 12.3361 18.388 12.4593 18.4562 12.5807C18.5219 12.6975 18.5567 12.8068 18.5616 12.9226C18.5665 13.0391 18.5424 13.1894 18.4505 13.389L19.2075 13.7374ZM19.1046 5.03493C19.117 5.05147 19.1136 5.05328 19.1118 5.04195C19.11 5.03075 19.1128 5.02586 19.1104 5.03323C19.1019 5.05913 19.0665 5.12177 18.9649 5.21758C18.7596 5.41124 18.462 5.58389 18.1978 5.75372L18.6484 6.4547C18.8578 6.32008 19.2579 6.08679 19.5367 5.82379C19.6772 5.69126 19.8305 5.51287 19.9027 5.29141C19.9846 5.04011 19.9488 4.77157 19.7713 4.53493L19.1046 5.03493Z" fill="#4B54B9"/>
<circle cx="18.2855" cy="8.72984" r="0.974302" stroke="#4B54B9" stroke-width="0.833333"/>
<path d="M28.6133 8.6H32.8853C33.0213 8.6 33.1373 8.644 33.2333 8.732C33.3293 8.82 33.3773 8.932 33.3773 9.068C33.3773 9.204 33.3293 9.316 33.2333 9.404C33.1373 9.484 33.0213 9.524 32.8853 9.524H29.0213L29.1293 9.32V12.356L29.0093 12.224H32.3453C32.4813 12.224 32.5973 12.268 32.6933 12.356C32.7893 12.444 32.8373 12.556 32.8373 12.692C32.8373 12.828 32.7893 12.94 32.6933 13.028C32.5973 13.108 32.4813 13.148 32.3453 13.148H29.0453L29.1293 13.04V16.148L29.0573 16.064H32.8853C33.0213 16.064 33.1373 16.112 33.2333 16.208C33.3293 16.304 33.3773 16.412 33.3773 16.532C33.3773 16.668 33.3293 16.78 33.2333 16.868C33.1373 16.956 33.0213 17 32.8853 17H28.6133C28.4773 17 28.3613 16.952 28.2653 16.856C28.1773 16.76 28.1333 16.644 28.1333 16.508V9.08C28.1333 8.944 28.1773 8.832 28.2653 8.744C28.3613 8.648 28.4773 8.6 28.6133 8.6ZM35.9491 10.724C36.1011 10.724 36.2291 10.792 36.3331 10.928L40.5091 16.256C40.5731 16.344 40.6051 16.44 40.6051 16.544C40.6051 16.68 40.5571 16.796 40.4611 16.892C40.3651 16.988 40.2531 17.036 40.1251 17.036C39.9731 17.036 39.8411 16.964 39.7291 16.82L35.5531 11.504C35.4891 11.416 35.4571 11.32 35.4571 11.216C35.4571 11.072 35.5051 10.956 35.6011 10.868C35.7051 10.772 35.8211 10.724 35.9491 10.724ZM35.9491 17.024C35.8451 17.024 35.7411 16.984 35.6371 16.904C35.5331 16.824 35.4811 16.72 35.4811 16.592C35.4811 16.488 35.5211 16.388 35.6011 16.292L37.5691 13.808L38.0731 14.6L36.3331 16.832C36.2371 16.96 36.1091 17.024 35.9491 17.024ZM40.1251 10.724C40.2611 10.724 40.3691 10.768 40.4491 10.856C40.5371 10.944 40.5811 11.044 40.5811 11.156C40.5811 11.204 40.5691 11.256 40.5451 11.312C40.5291 11.368 40.5011 11.42 40.4611 11.468L38.5051 13.976L38.0011 13.244L39.7291 10.94C39.8411 10.796 39.9731 10.724 40.1251 10.724ZM45.8193 17.12C45.1793 17.12 44.6193 16.984 44.1393 16.712C43.6593 16.44 43.2833 16.068 43.0113 15.596C42.7473 15.116 42.6153 14.564 42.6153 13.94C42.6153 13.244 42.7513 12.652 43.0233 12.164C43.3033 11.668 43.6633 11.292 44.1033 11.036C44.5513 10.772 45.0233 10.64 45.5193 10.64C45.8873 10.64 46.2433 10.708 46.5873 10.844C46.9313 10.98 47.2353 11.18 47.4993 11.444C47.7633 11.7 47.9753 12.012 48.1353 12.38C48.2953 12.74 48.3793 13.144 48.3873 13.592C48.3873 13.72 48.3393 13.828 48.2433 13.916C48.1473 14.004 48.0353 14.048 47.9073 14.048H43.1673L42.9513 13.22H47.5713L47.3793 13.388V13.124C47.3473 12.796 47.2353 12.516 47.0433 12.284C46.8593 12.044 46.6313 11.86 46.3593 11.732C46.0953 11.604 45.8153 11.54 45.5193 11.54C45.2793 11.54 45.0393 11.584 44.7993 11.672C44.5673 11.752 44.3553 11.888 44.1633 12.08C43.9793 12.264 43.8273 12.504 43.7073 12.8C43.5953 13.096 43.5393 13.452 43.5393 13.868C43.5393 14.332 43.6313 14.74 43.8153 15.092C44.0073 15.444 44.2713 15.724 44.6073 15.932C44.9433 16.132 45.3353 16.232 45.7833 16.232C46.0633 16.232 46.3073 16.196 46.5153 16.124C46.7233 16.052 46.9033 15.964 47.0553 15.86C47.2073 15.748 47.3353 15.636 47.4393 15.524C47.5433 15.452 47.6433 15.416 47.7393 15.416C47.8593 15.416 47.9553 15.456 48.0273 15.536C48.1073 15.616 48.1473 15.712 48.1473 15.824C48.1473 15.96 48.0833 16.08 47.9553 16.184C47.7313 16.432 47.4273 16.652 47.0433 16.844C46.6593 17.028 46.2513 17.12 45.8193 17.12ZM51.5102 17C51.3742 17 51.2582 16.952 51.1622 16.856C51.0742 16.76 51.0302 16.644 51.0302 16.508V11.276C51.0302 11.14 51.0742 11.028 51.1622 10.94C51.2582 10.844 51.3742 10.796 51.5102 10.796C51.6542 10.796 51.7702 10.844 51.8582 10.94C51.9462 11.028 51.9902 11.14 51.9902 11.276V12.86L51.8462 12.608C51.8942 12.36 51.9782 12.12 52.0982 11.888C52.2262 11.648 52.3862 11.436 52.5782 11.252C52.7702 11.06 52.9902 10.912 53.2382 10.808C53.4862 10.696 53.7582 10.64 54.0542 10.64C54.2302 10.64 54.3902 10.684 54.5342 10.772C54.6862 10.852 54.7622 10.968 54.7622 11.12C54.7622 11.288 54.7182 11.412 54.6302 11.492C54.5422 11.572 54.4422 11.612 54.3302 11.612C54.2262 11.612 54.1262 11.592 54.0302 11.552C53.9342 11.504 53.8142 11.48 53.6702 11.48C53.4702 11.48 53.2702 11.536 53.0702 11.648C52.8782 11.752 52.6982 11.904 52.5302 12.104C52.3702 12.304 52.2382 12.532 52.1342 12.788C52.0382 13.036 51.9902 13.304 51.9902 13.592V16.508C51.9902 16.644 51.9422 16.76 51.8462 16.856C51.7582 16.952 51.6462 17 51.5102 17ZM59.5371 10.64C59.9451 10.64 60.3131 10.684 60.6411 10.772C60.9691 10.86 61.2291 10.98 61.4211 11.132C61.6131 11.284 61.7091 11.456 61.7091 11.648C61.7091 11.752 61.6731 11.852 61.6011 11.948C61.5291 12.044 61.4331 12.092 61.3131 12.092C61.2011 12.092 61.1091 12.072 61.0371 12.032C60.9731 11.992 60.9091 11.94 60.8451 11.876C60.7891 11.812 60.7091 11.756 60.6051 11.708C60.5091 11.652 60.3691 11.608 60.1851 11.576C60.0011 11.544 59.8171 11.528 59.6331 11.528C59.1931 11.528 58.8051 11.632 58.4691 11.84C58.1411 12.048 57.8811 12.328 57.6891 12.68C57.4971 13.032 57.4011 13.432 57.4011 13.88C57.4011 14.328 57.4931 14.728 57.6771 15.08C57.8611 15.432 58.1171 15.712 58.4451 15.92C58.7731 16.128 59.1531 16.232 59.5851 16.232C59.8651 16.232 60.0891 16.208 60.2571 16.16C60.4251 16.112 60.5651 16.056 60.6771 15.992C60.8211 15.912 60.9291 15.832 61.0011 15.752C61.0811 15.672 61.1851 15.632 61.3131 15.632C61.4491 15.632 61.5531 15.676 61.6251 15.764C61.7051 15.852 61.7451 15.96 61.7451 16.088C61.7451 16.232 61.6451 16.384 61.4451 16.544C61.2451 16.704 60.9731 16.84 60.6291 16.952C60.2931 17.064 59.9091 17.12 59.4771 17.12C58.8691 17.12 58.3371 16.98 57.8811 16.7C57.4251 16.412 57.0691 16.024 56.8131 15.536C56.5651 15.04 56.4411 14.488 56.4411 13.88C56.4411 13.272 56.5691 12.724 56.8251 12.236C57.0891 11.748 57.4531 11.36 57.9171 11.072C58.3811 10.784 58.9211 10.64 59.5371 10.64ZM65.1237 16.508C65.1237 16.644 65.0757 16.76 64.9797 16.856C64.8917 16.952 64.7797 17 64.6437 17C64.4997 17 64.3837 16.952 64.2957 16.856C64.2077 16.76 64.1637 16.644 64.1637 16.508V11.18C64.1637 11.044 64.2077 10.932 64.2957 10.844C64.3917 10.748 64.5077 10.7 64.6437 10.7C64.7797 10.7 64.8917 10.748 64.9797 10.844C65.0757 10.932 65.1237 11.044 65.1237 11.18V16.508ZM64.6437 9.896C64.4437 9.896 64.2957 9.856 64.1997 9.776C64.1037 9.696 64.0557 9.572 64.0557 9.404V9.236C64.0557 9.068 64.1077 8.944 64.2117 8.864C64.3157 8.784 64.4637 8.744 64.6557 8.744C64.8477 8.744 64.9917 8.784 65.0877 8.864C65.1837 8.944 65.2317 9.068 65.2317 9.236V9.404C65.2317 9.572 65.1797 9.696 65.0757 9.776C64.9797 9.856 64.8357 9.896 64.6437 9.896ZM67.7002 16.016C67.6282 15.912 67.5962 15.804 67.6042 15.692C67.6122 15.572 67.6802 15.468 67.8082 15.38C67.8882 15.324 67.9802 15.3 68.0842 15.308C68.1962 15.316 68.2962 15.368 68.3842 15.464C68.6082 15.728 68.8642 15.94 69.1522 16.1C69.4402 16.252 69.7922 16.328 70.2082 16.328C70.4002 16.32 70.5922 16.288 70.7842 16.232C70.9762 16.176 71.1362 16.08 71.2642 15.944C71.4002 15.8 71.4682 15.612 71.4682 15.38C71.4682 15.156 71.4002 14.98 71.2642 14.852C71.1282 14.716 70.9522 14.608 70.7362 14.528C70.5202 14.44 70.2842 14.364 70.0282 14.3C69.7642 14.228 69.5042 14.148 69.2482 14.06C68.9922 13.964 68.7602 13.848 68.5522 13.712C68.3522 13.568 68.1882 13.392 68.0602 13.184C67.9402 12.968 67.8802 12.708 67.8802 12.404C67.8802 12.044 67.9762 11.732 68.1682 11.468C68.3682 11.204 68.6322 11 68.9602 10.856C69.2962 10.712 69.6602 10.64 70.0522 10.64C70.2762 10.64 70.5082 10.668 70.7482 10.724C70.9962 10.772 71.2362 10.86 71.4682 10.988C71.7002 11.108 71.9042 11.276 72.0802 11.492C72.1522 11.572 72.1922 11.672 72.2002 11.792C72.2082 11.912 72.1562 12.02 72.0442 12.116C71.9562 12.18 71.8562 12.208 71.7442 12.2C71.6402 12.192 71.5522 12.152 71.4802 12.08C71.3122 11.88 71.1002 11.728 70.8442 11.624C70.5962 11.512 70.3202 11.456 70.0162 11.456C69.8242 11.456 69.6362 11.484 69.4522 11.54C69.2682 11.596 69.1122 11.692 68.9842 11.828C68.8642 11.956 68.8042 12.136 68.8042 12.368C68.8122 12.584 68.8842 12.76 69.0202 12.896C69.1562 13.032 69.3402 13.144 69.5722 13.232C69.8042 13.312 70.0602 13.392 70.3402 13.472C70.5962 13.536 70.8402 13.612 71.0722 13.7C71.3122 13.78 71.5282 13.888 71.7202 14.024C71.9122 14.16 72.0642 14.336 72.1762 14.552C72.2882 14.76 72.3442 15.024 72.3442 15.344C72.3442 15.712 72.2402 16.032 72.0322 16.304C71.8242 16.568 71.5482 16.772 71.2042 16.916C70.8682 17.052 70.5042 17.12 70.1122 17.12C69.6722 17.12 69.2362 17.036 68.8042 16.868C68.3802 16.7 68.0122 16.416 67.7002 16.016ZM77.7998 17.12C77.1598 17.12 76.5998 16.984 76.1198 16.712C75.6398 16.44 75.2638 16.068 74.9918 15.596C74.7278 15.116 74.5958 14.564 74.5958 13.94C74.5958 13.244 74.7318 12.652 75.0038 12.164C75.2838 11.668 75.6438 11.292 76.0838 11.036C76.5318 10.772 77.0038 10.64 77.4998 10.64C77.8678 10.64 78.2238 10.708 78.5678 10.844C78.9118 10.98 79.2158 11.18 79.4798 11.444C79.7438 11.7 79.9558 12.012 80.1158 12.38C80.2758 12.74 80.3598 13.144 80.3678 13.592C80.3678 13.72 80.3198 13.828 80.2238 13.916C80.1278 14.004 80.0158 14.048 79.8878 14.048H75.1478L74.9318 13.22H79.5518L79.3598 13.388V13.124C79.3278 12.796 79.2158 12.516 79.0238 12.284C78.8398 12.044 78.6118 11.86 78.3398 11.732C78.0758 11.604 77.7958 11.54 77.4998 11.54C77.2598 11.54 77.0198 11.584 76.7798 11.672C76.5478 11.752 76.3358 11.888 76.1438 12.08C75.9598 12.264 75.8078 12.504 75.6878 12.8C75.5758 13.096 75.5198 13.452 75.5198 13.868C75.5198 14.332 75.6118 14.74 75.7958 15.092C75.9878 15.444 76.2518 15.724 76.5878 15.932C76.9238 16.132 77.3158 16.232 77.7638 16.232C78.0438 16.232 78.2878 16.196 78.4958 16.124C78.7038 16.052 78.8838 15.964 79.0358 15.86C79.1878 15.748 79.3158 15.636 79.4198 15.524C79.5238 15.452 79.6238 15.416 79.7198 15.416C79.8398 15.416 79.9358 15.456 80.0078 15.536C80.0878 15.616 80.1278 15.712 80.1278 15.824C80.1278 15.96 80.0638 16.08 79.9358 16.184C79.7118 16.432 79.4078 16.652 79.0238 16.844C78.6398 17.028 78.2318 17.12 77.7998 17.12Z" fill="#4B54B9"/>
<rect x="0.625" y="0.625" width="86.75" height="22.75" rx="11.375" stroke="#4B54B9" stroke-width="0.75"/>
</svg>
