<svg width="79" height="24" viewBox="0 0 79 24" fill="none" xmlns="http://www.w3.org/2000/svg">
<path d="M22.8532 11.4699C22.8535 9.80322 23.3341 8.66676 22.0841 8.66676C20.8364 8.66676 18.4971 8.85404 16.0491 7.82488C12.7391 6.43334 11.7357 6.10065 9.37844 5.52508C8.93609 5.41707 8.48446 5.69403 8.37082 6.14089L6.88973 11.965C6.75287 12.5032 7.16604 13.0331 7.71381 13.0794C7.90806 13.0958 8.12531 13.1182 8.36329 13.1489L8.48983 12.3249L8.48354 12.3241C8.23326 12.2919 8.00412 12.2682 7.79841 12.2508C7.77021 12.2484 7.73437 12.2313 7.70893 12.1975C7.69754 12.1824 7.69324 12.1701 7.6919 12.164C7.69092 12.1596 7.69168 12.1567 7.69168 12.1567L9.17236 6.33412C11.4738 6.89614 12.4359 7.21325 15.7174 8.59278C18.2304 9.64929 21.7358 9.64868 21.9246 9.64148C22.1133 9.63428 21.9246 11.0532 21.9246 11.0532L22.8532 11.4699Z" fill="#4B54B9"/>
<mask id="path-3-inside-1_4048_32328" fill="white">
<path d="M8.23828 11.1654C8.23828 10.7051 8.61202 10.3314 9.07225 10.3338C11.4465 10.3462 12.4892 10.4377 15.9756 11.0191C18.3565 11.4161 20.4117 11.0643 21.6404 10.7349C22.2224 10.5789 22.8533 11.0098 22.8533 11.6124L22.8533 17.6477C22.8533 18.0171 22.6107 18.3391 22.248 18.4088C21.1628 18.6172 18.7019 18.9227 15.5458 18.2706C12.7952 17.7023 10.5727 17.8613 9.32861 18.0495C8.7782 18.1328 8.23828 17.7124 8.23828 17.1558V11.1654Z"/>
</mask>
<path d="M22.8533 11.6124L23.6866 11.6124L22.8533 11.6124ZM22.0199 11.6124L22.0199 17.6477H23.6866L23.6866 11.6124L22.0199 11.6124ZM9.07161 17.1558V11.1654H7.40495V17.1558H9.07161ZM22.0908 17.5904C21.0835 17.7839 18.7369 18.079 15.7144 17.4545L15.3772 19.0867C18.6669 19.7664 21.2422 19.4506 22.4052 19.2272L22.0908 17.5904ZM15.7144 17.4545C12.847 16.8621 10.5226 17.0261 9.20395 17.2256L9.45327 18.8735C10.6227 18.6965 12.7434 18.5425 15.3772 19.0867L15.7144 17.4545ZM9.0679 11.1671C11.3851 11.1792 12.3816 11.2646 15.8386 11.8411L16.1127 10.1971C12.5969 9.61078 11.5079 9.51318 9.0766 9.50048L9.0679 11.1671ZM15.8386 11.8411C18.3719 12.2636 20.5525 11.8893 21.8561 11.5398L21.4246 9.93C20.2709 10.2393 18.341 10.5687 16.1127 10.1971L15.8386 11.8411ZM7.40495 17.1558C7.40495 18.2759 8.45314 19.0248 9.45327 18.8735L9.20395 17.2256C9.17482 17.23 9.13432 17.2215 9.10002 17.1938C9.08463 17.1814 9.07701 17.1701 9.07397 17.1641C9.07165 17.1595 9.07161 17.1579 9.07161 17.1558H7.40495ZM22.0199 17.6477C22.0199 17.6499 22.0194 17.6411 22.0305 17.627C22.0361 17.6198 22.0446 17.6116 22.0562 17.6043C22.0683 17.5969 22.0806 17.5924 22.0908 17.5904L22.4052 19.2272C23.1971 19.0751 23.6866 18.3782 23.6866 17.6477H22.0199ZM23.6866 11.6124C23.6866 10.3947 22.4692 9.65 21.4246 9.93L21.8561 11.5398C21.887 11.5316 21.9368 11.5362 21.9828 11.5688C22.0033 11.5833 22.0134 11.5972 22.0173 11.6042C22.0201 11.6092 22.0199 11.6104 22.0199 11.6124L23.6866 11.6124ZM9.07161 11.1654C9.07161 11.164 9.07173 11.1647 9.07123 11.1659C9.07097 11.1665 9.07091 11.1664 9.07135 11.1659C9.07177 11.1655 9.07165 11.1658 9.07042 11.1663C9.06976 11.1666 9.06898 11.1669 9.06822 11.167C9.0674 11.1672 9.0672 11.1671 9.0679 11.1671L9.0766 9.50048C8.1519 9.49565 7.40495 10.2457 7.40495 11.1654H9.07161Z" fill="#4B54B9" mask="url(#path-3-inside-1_4048_32328)"/>
<path d="M16.753 14.4987C16.753 15.1993 16.2023 15.7487 15.5458 15.7487C14.8892 15.7487 14.3385 15.1993 14.3385 14.4987C14.3385 13.7981 14.8892 13.2487 15.5458 13.2487C16.2023 13.2487 16.753 13.7981 16.753 14.4987Z" stroke="#4B54B9" stroke-width="0.833333"/>
<path d="M18.7943 14.9096C18.7943 14.9096 19.595 15.0472 20.4629 14.7739" stroke="#4B54B9" stroke-width="0.833333" stroke-linecap="round"/>
<path d="M10.6732 14.195C11.4977 14.0826 12.291 14.3392 12.291 14.3392" stroke="#4B54B9" stroke-width="0.833333" stroke-linecap="round"/>
<path d="M10.4171 9.50018C11.2506 9.50022 12.0838 9.91688 12.0838 9.91688" stroke="#4B54B9" stroke-width="0.833333" stroke-linecap="round"/>
<path d="M15.6649 10.747C16.0653 10.8613 16.3284 11.303 16.1965 11.7653L16.9979 11.994C17.2504 11.1088 16.756 10.1918 15.8936 9.94569C15.0312 9.69961 14.1273 10.2177 13.8747 11.1028L14.6761 11.3315C14.808 10.8691 15.2646 10.6328 15.6649 10.747Z" fill="#4B54B9"/>
<path d="M30.6695 8.588C30.7415 8.588 30.8175 8.608 30.8975 8.648C30.9855 8.688 31.0535 8.74 31.1015 8.804L34.2815 13.616L33.8615 13.604L37.0775 8.804C37.1815 8.652 37.3175 8.58 37.4855 8.588C37.6135 8.596 37.7255 8.644 37.8215 8.732C37.9175 8.82 37.9655 8.936 37.9655 9.08V16.508C37.9655 16.644 37.9175 16.76 37.8215 16.856C37.7255 16.952 37.6055 17 37.4615 17C37.3175 17 37.1975 16.952 37.1015 16.856C37.0055 16.76 36.9575 16.644 36.9575 16.508V9.992L37.2575 10.052L34.4255 14.36C34.3775 14.416 34.3175 14.464 34.2455 14.504C34.1815 14.544 34.1135 14.564 34.0415 14.564C33.9695 14.564 33.8975 14.544 33.8255 14.504C33.7535 14.464 33.6935 14.416 33.6455 14.36L30.8495 10.052L31.1015 9.74V16.508C31.1015 16.644 31.0575 16.76 30.9695 16.856C30.8815 16.952 30.7695 17 30.6335 17C30.4975 17 30.3855 16.952 30.2975 16.856C30.2175 16.76 30.1775 16.644 30.1775 16.508V9.08C30.1775 8.952 30.2215 8.84 30.3095 8.744C30.4055 8.64 30.5255 8.588 30.6695 8.588ZM46.9921 13.88C46.9921 14.504 46.8521 15.06 46.5721 15.548C46.3001 16.036 45.9281 16.42 45.4561 16.7C44.9921 16.98 44.4681 17.12 43.8841 17.12C43.3001 17.12 42.7721 16.98 42.3001 16.7C41.8281 16.42 41.4521 16.036 41.1721 15.548C40.9001 15.06 40.7641 14.504 40.7641 13.88C40.7641 13.256 40.9001 12.7 41.1721 12.212C41.4521 11.724 41.8281 11.34 42.3001 11.06C42.7721 10.78 43.3001 10.64 43.8841 10.64C44.4681 10.64 44.9921 10.78 45.4561 11.06C45.9281 11.34 46.3001 11.724 46.5721 12.212C46.8521 12.7 46.9921 13.256 46.9921 13.88ZM46.0321 13.88C46.0321 13.416 45.9361 13.008 45.7441 12.656C45.5601 12.304 45.3041 12.028 44.9761 11.828C44.6561 11.628 44.2921 11.528 43.8841 11.528C43.4761 11.528 43.1081 11.628 42.7801 11.828C42.4601 12.028 42.2041 12.304 42.0121 12.656C41.8201 13.008 41.7241 13.416 41.7241 13.88C41.7241 14.336 41.8201 14.74 42.0121 15.092C42.2041 15.444 42.4601 15.724 42.7801 15.932C43.1081 16.132 43.4761 16.232 43.8841 16.232C44.2921 16.232 44.6561 16.132 44.9761 15.932C45.3041 15.724 45.5601 15.444 45.7441 15.092C45.9361 14.74 46.0321 14.336 46.0321 13.88ZM52.72 10.64C53.264 10.64 53.692 10.752 54.004 10.976C54.316 11.2 54.536 11.5 54.664 11.876C54.8 12.252 54.868 12.672 54.868 13.136V16.508C54.868 16.644 54.82 16.76 54.724 16.856C54.636 16.952 54.524 17 54.388 17C54.252 17 54.136 16.952 54.04 16.856C53.952 16.76 53.908 16.644 53.908 16.508V13.16C53.908 12.856 53.86 12.584 53.764 12.344C53.676 12.096 53.524 11.9 53.308 11.756C53.1 11.604 52.812 11.528 52.444 11.528C52.108 11.528 51.8 11.604 51.52 11.756C51.24 11.9 51.016 12.096 50.848 12.344C50.68 12.584 50.596 12.856 50.596 13.16V16.508C50.596 16.644 50.548 16.76 50.452 16.856C50.364 16.952 50.252 17 50.116 17C49.98 17 49.864 16.952 49.768 16.856C49.68 16.76 49.636 16.644 49.636 16.508V11.276C49.636 11.14 49.68 11.028 49.768 10.94C49.864 10.844 49.98 10.796 50.116 10.796C50.26 10.796 50.376 10.844 50.464 10.94C50.552 11.028 50.596 11.14 50.596 11.276V12.128L50.356 12.392C50.396 12.184 50.488 11.976 50.632 11.768C50.776 11.552 50.956 11.36 51.172 11.192C51.388 11.024 51.628 10.892 51.892 10.796C52.156 10.692 52.432 10.64 52.72 10.64ZM60.7119 17.12C60.0719 17.12 59.5119 16.984 59.0319 16.712C58.5519 16.44 58.1759 16.068 57.9039 15.596C57.6399 15.116 57.5079 14.564 57.5079 13.94C57.5079 13.244 57.6439 12.652 57.9159 12.164C58.1959 11.668 58.5559 11.292 58.9959 11.036C59.4439 10.772 59.9159 10.64 60.4119 10.64C60.7799 10.64 61.1359 10.708 61.4799 10.844C61.8239 10.98 62.1279 11.18 62.3919 11.444C62.6559 11.7 62.8679 12.012 63.0279 12.38C63.1879 12.74 63.2719 13.144 63.2799 13.592C63.2799 13.72 63.2319 13.828 63.1359 13.916C63.0399 14.004 62.9279 14.048 62.7999 14.048H58.0599L57.8439 13.22H62.4639L62.2719 13.388V13.124C62.2399 12.796 62.1279 12.516 61.9359 12.284C61.7519 12.044 61.5239 11.86 61.2519 11.732C60.9879 11.604 60.7079 11.54 60.4119 11.54C60.1719 11.54 59.9319 11.584 59.6919 11.672C59.4599 11.752 59.2479 11.888 59.0559 12.08C58.8719 12.264 58.7199 12.504 58.5999 12.8C58.4879 13.096 58.4319 13.452 58.4319 13.868C58.4319 14.332 58.5239 14.74 58.7079 15.092C58.8999 15.444 59.1639 15.724 59.4999 15.932C59.8359 16.132 60.2279 16.232 60.6759 16.232C60.9559 16.232 61.1999 16.196 61.4079 16.124C61.6159 16.052 61.7959 15.964 61.9479 15.86C62.0999 15.748 62.2279 15.636 62.3319 15.524C62.4359 15.452 62.5359 15.416 62.6319 15.416C62.7519 15.416 62.8479 15.456 62.9199 15.536C62.9999 15.616 63.0399 15.712 63.0399 15.824C63.0399 15.96 62.9759 16.08 62.8479 16.184C62.6239 16.432 62.3199 16.652 61.9359 16.844C61.5519 17.028 61.1439 17.12 60.7119 17.12ZM70.5082 10.7C70.6442 10.7 70.7562 10.748 70.8442 10.844C70.9402 10.932 70.9882 11.044 70.9882 11.18V16.412C70.9882 17.084 70.8562 17.64 70.5922 18.08C70.3282 18.528 69.9722 18.86 69.5242 19.076C69.0842 19.292 68.5842 19.4 68.0242 19.4C67.7122 19.4 67.4122 19.368 67.1242 19.304C66.8362 19.24 66.6002 19.156 66.4162 19.052C66.2642 18.98 66.1562 18.888 66.0922 18.776C66.0362 18.672 66.0282 18.56 66.0682 18.44C66.1242 18.296 66.2042 18.196 66.3082 18.14C66.4202 18.084 66.5362 18.084 66.6562 18.14C66.7842 18.196 66.9682 18.272 67.2082 18.368C67.4562 18.472 67.7322 18.524 68.0362 18.524C68.4522 18.524 68.8082 18.444 69.1042 18.284C69.4002 18.124 69.6282 17.888 69.7882 17.576C69.9482 17.272 70.0282 16.892 70.0282 16.436V15.584L70.1722 15.884C70.0442 16.132 69.8722 16.348 69.6562 16.532C69.4402 16.716 69.1922 16.86 68.9122 16.964C68.6322 17.068 68.3242 17.12 67.9882 17.12C67.5322 17.12 67.1442 17.024 66.8242 16.832C66.5122 16.632 66.2722 16.36 66.1042 16.016C65.9442 15.664 65.8642 15.26 65.8642 14.804V11.18C65.8642 11.044 65.9082 10.932 65.9962 10.844C66.0922 10.748 66.2082 10.7 66.3442 10.7C66.4882 10.7 66.6042 10.748 66.6922 10.844C66.7802 10.932 66.8242 11.044 66.8242 11.18V14.588C66.8242 15.132 66.9442 15.544 67.1842 15.824C67.4242 16.096 67.7962 16.232 68.3002 16.232C68.6202 16.232 68.9082 16.16 69.1642 16.016C69.4282 15.872 69.6362 15.676 69.7882 15.428C69.9482 15.172 70.0282 14.892 70.0282 14.588V11.18C70.0282 11.044 70.0722 10.932 70.1602 10.844C70.2482 10.748 70.3642 10.7 70.5082 10.7Z" fill="#4B54B9"/>
<rect x="0.625" y="0.625" width="77.75" height="22.75" rx="11.375" stroke="#4B54B9" stroke-width="0.75"/>
</svg>
