<svg width="72" height="24" viewBox="0 0 72 24" fill="none" xmlns="http://www.w3.org/2000/svg">
<circle cx="14.9993" cy="12.0001" r="7.91667" stroke="#4B54B9" stroke-width="0.833333"/>
<path d="M11.5685 9.54907L11.5685 9.96573L11.5685 9.54907ZM6.762 12.3585C6.68924 12.5768 6.80722 12.8127 7.02554 12.8855C7.24385 12.9583 7.47981 12.8403 7.55258 12.622L6.762 12.3585ZM16.4704 14.451L16.4809 14.8676L16.4704 14.451ZM19.4121 12.0001L19.7068 12.2947L19.4121 12.0001ZM22.6569 11.8825C22.8628 11.9854 23.113 11.902 23.216 11.6962C23.3189 11.4903 23.2355 11.2401 23.0296 11.1371L22.6569 11.8825ZM14.4361 11.9752C14.3495 10.529 13.3101 9.13243 11.5685 9.1324L11.5685 9.96573C12.7691 9.96576 13.5376 10.9115 13.6043 12.025L14.4361 11.9752ZM11.5685 9.1324C10.4876 9.13238 9.42621 9.53586 8.57443 10.1256C7.72674 10.7125 7.0433 11.5145 6.762 12.3585L7.55258 12.622C7.76143 11.9953 8.30348 11.3268 9.0488 10.8107C9.79004 10.2975 10.6891 9.96572 11.5685 9.96573L11.5685 9.1324ZM13.6043 12.025C13.6619 12.9875 13.9189 13.7323 14.4394 14.2249C14.963 14.7202 15.676 14.8879 16.4809 14.8676L16.4599 14.0345C15.7704 14.0519 15.3129 13.9041 15.0122 13.6195C14.7084 13.3322 14.4875 12.8327 14.4361 11.9752L13.6043 12.025ZM16.4809 14.8676C17.2225 14.8489 17.8658 14.3116 18.3623 13.8018C18.6221 13.5351 18.8692 13.2456 19.0935 12.9825C19.3226 12.7138 19.5236 12.4779 19.7068 12.2947L19.1175 11.7055C18.9059 11.9171 18.6814 12.1814 18.4593 12.4418C18.2324 12.708 18.0028 12.9766 17.7653 13.2204C17.2673 13.7316 16.8345 14.025 16.4599 14.0345L16.4809 14.8676ZM19.7068 12.2947C20.3298 11.6717 21.0507 11.5647 21.6414 11.6184C21.9388 11.6454 22.1976 11.7134 22.3822 11.7749C22.474 11.8055 22.546 11.834 22.5936 11.8542C22.6174 11.8643 22.6349 11.8722 22.6457 11.8772C22.6511 11.8797 22.6548 11.8815 22.6567 11.8824C22.6576 11.8828 22.6581 11.8831 22.6582 11.8831C22.6582 11.8831 22.6581 11.8831 22.6579 11.883C22.6578 11.8829 22.6577 11.8828 22.6575 11.8828C22.6574 11.8827 22.6573 11.8827 22.6572 11.8826C22.6571 11.8826 22.6569 11.8825 22.8433 11.5098C23.0296 11.1371 23.0295 11.1371 23.0293 11.137C23.0292 11.1369 23.029 11.1368 23.0289 11.1368C23.0286 11.1366 23.0283 11.1365 23.028 11.1363C23.0273 11.136 23.0265 11.1356 23.0256 11.1351C23.0237 11.1342 23.0214 11.1331 23.0186 11.1317C23.013 11.129 23.0054 11.1254 22.9961 11.1211C22.9775 11.1125 22.9515 11.1008 22.9187 11.0869C22.8534 11.0592 22.7607 11.0227 22.6457 10.9843C22.4167 10.908 22.0935 10.8227 21.7169 10.7885C20.9596 10.7197 19.965 10.8579 19.1175 11.7055L19.7068 12.2947Z" fill="#4B54B9"/>
<path d="M13.039 14.1437L13.4384 14.0252L13.039 14.1437ZM11.0782 11.0197L11.0782 11.4364L11.0782 11.0197ZM7.07352 13.4224C6.94588 13.6139 6.99762 13.8726 7.18909 14.0002C7.38056 14.1279 7.63926 14.0761 7.7669 13.8847L7.07352 13.4224ZM15.9807 16.902L15.9912 17.3185L15.9807 16.902ZM19.9017 13.9608L20.1963 14.2554L19.9017 13.9608ZM22.7114 13.3757C22.9297 13.4485 23.1657 13.3305 23.2385 13.1122C23.3112 12.8939 23.1932 12.6579 22.9749 12.5851L22.7114 13.3757ZM13.4384 14.0252C13.3194 13.6238 13.2313 13.2375 13.1371 12.8577C13.0453 12.4876 12.9467 12.1194 12.8097 11.7982C12.6717 11.4748 12.4821 11.1678 12.189 10.9441C11.8892 10.7153 11.5199 10.6031 11.0782 10.6031L11.0782 11.4364C11.372 11.4364 11.5543 11.508 11.6834 11.6066C11.8194 11.7103 11.9361 11.8743 12.0432 12.1252C12.1512 12.3783 12.2363 12.6877 12.3282 13.0584C12.4178 13.4193 12.5134 13.8368 12.6395 14.2621L13.4384 14.0252ZM11.0782 10.6031C10.0003 10.603 9.23324 10.9284 8.60865 11.4704C8.00965 11.9903 7.55176 12.7051 7.07352 13.4224L7.7669 13.8847C8.26907 13.1314 8.66003 12.5292 9.15485 12.0998C9.62407 11.6926 10.1958 11.4364 11.0782 11.4364L11.0782 10.6031ZM12.6395 14.2621C12.9096 15.1732 13.2987 15.9459 13.8517 16.4896C14.4164 17.0448 15.1316 17.3402 15.9912 17.3185L15.9702 16.4854C15.3355 16.5015 14.839 16.2917 14.4359 15.8954C14.0211 15.4875 13.6866 14.8622 13.4384 14.0252L12.6395 14.2621ZM15.9912 17.3185C16.3816 17.3087 16.7938 17.1236 17.1679 16.8987C17.5539 16.6666 17.9547 16.3576 18.3342 16.0339C19.0923 15.3871 19.8091 14.6427 20.1963 14.2554L19.6071 13.6662C19.2048 14.0685 18.5193 14.7806 17.7933 15.3999C17.4307 15.7093 17.0691 15.9858 16.7386 16.1845C16.3962 16.3903 16.1379 16.4812 15.9702 16.4854L15.9912 17.3185ZM20.1963 14.2554C20.86 13.5917 21.5056 13.3848 21.9699 13.3332C22.2054 13.3071 22.3995 13.3204 22.5314 13.3393C22.5973 13.3487 22.6471 13.3594 22.6782 13.367C22.6937 13.3708 22.7044 13.3738 22.7101 13.3754C22.713 13.3762 22.7145 13.3767 22.7148 13.3768C22.7149 13.3768 22.7147 13.3768 22.7141 13.3766C22.7138 13.3765 22.7135 13.3764 22.713 13.3762C22.7128 13.3762 22.7125 13.3761 22.7123 13.376C22.7121 13.376 22.7119 13.3759 22.7119 13.3759C22.7116 13.3758 22.7114 13.3757 22.8432 12.9804C22.9749 12.5851 22.9747 12.5851 22.9744 12.585C22.9743 12.5849 22.9741 12.5849 22.9739 12.5848C22.9736 12.5847 22.9732 12.5846 22.9728 12.5844C22.972 12.5842 22.9711 12.5839 22.9701 12.5836C22.9681 12.5829 22.9658 12.5822 22.9631 12.5813C22.9576 12.5796 22.9507 12.5775 22.9424 12.5751C22.9259 12.5703 22.9036 12.5642 22.876 12.5575C22.8209 12.544 22.7443 12.5279 22.6493 12.5143C22.4594 12.4872 22.1939 12.4699 21.8779 12.505C21.2391 12.576 20.4139 12.8593 19.6071 13.6662L20.1963 14.2554Z" fill="#4B54B9"/>
<path d="M30.7812 8.588C30.8532 8.588 30.9292 8.608 31.0092 8.648C31.0972 8.688 31.1652 8.74 31.2132 8.804L34.3932 13.616L33.9732 13.604L37.1892 8.804C37.2932 8.652 37.4292 8.58 37.5972 8.588C37.7252 8.596 37.8372 8.644 37.9332 8.732C38.0292 8.82 38.0772 8.936 38.0772 9.08V16.508C38.0772 16.644 38.0292 16.76 37.9332 16.856C37.8372 16.952 37.7172 17 37.5732 17C37.4292 17 37.3092 16.952 37.2132 16.856C37.1172 16.76 37.0692 16.644 37.0692 16.508V9.992L37.3692 10.052L34.5372 14.36C34.4892 14.416 34.4292 14.464 34.3572 14.504C34.2932 14.544 34.2252 14.564 34.1532 14.564C34.0812 14.564 34.0092 14.544 33.9372 14.504C33.8652 14.464 33.8052 14.416 33.7572 14.36L30.9612 10.052L31.2132 9.74V16.508C31.2132 16.644 31.1692 16.76 31.0812 16.856C30.9932 16.952 30.8812 17 30.7452 17C30.6092 17 30.4972 16.952 30.4092 16.856C30.3292 16.76 30.2892 16.644 30.2892 16.508V9.08C30.2892 8.952 30.3332 8.84 30.4212 8.744C30.5172 8.64 30.6372 8.588 30.7812 8.588ZM47.1038 13.88C47.1038 14.504 46.9638 15.06 46.6838 15.548C46.4118 16.036 46.0398 16.42 45.5678 16.7C45.1038 16.98 44.5798 17.12 43.9958 17.12C43.4118 17.12 42.8838 16.98 42.4118 16.7C41.9398 16.42 41.5638 16.036 41.2838 15.548C41.0118 15.06 40.8758 14.504 40.8758 13.88C40.8758 13.256 41.0118 12.7 41.2838 12.212C41.5638 11.724 41.9398 11.34 42.4118 11.06C42.8838 10.78 43.4118 10.64 43.9958 10.64C44.5798 10.64 45.1038 10.78 45.5678 11.06C46.0398 11.34 46.4118 11.724 46.6838 12.212C46.9638 12.7 47.1038 13.256 47.1038 13.88ZM46.1438 13.88C46.1438 13.416 46.0478 13.008 45.8558 12.656C45.6718 12.304 45.4158 12.028 45.0878 11.828C44.7678 11.628 44.4038 11.528 43.9958 11.528C43.5878 11.528 43.2198 11.628 42.8918 11.828C42.5718 12.028 42.3158 12.304 42.1238 12.656C41.9318 13.008 41.8358 13.416 41.8358 13.88C41.8358 14.336 41.9318 14.74 42.1238 15.092C42.3158 15.444 42.5718 15.724 42.8918 15.932C43.2198 16.132 43.5878 16.232 43.9958 16.232C44.4038 16.232 44.7678 16.132 45.0878 15.932C45.4158 15.724 45.6718 15.444 45.8558 15.092C46.0478 14.74 46.1438 14.336 46.1438 13.88ZM55.6398 13.88C55.6398 14.504 55.4998 15.06 55.2198 15.548C54.9478 16.036 54.5758 16.42 54.1038 16.7C53.6398 16.98 53.1158 17.12 52.5318 17.12C51.9478 17.12 51.4198 16.98 50.9478 16.7C50.4758 16.42 50.0998 16.036 49.8198 15.548C49.5478 15.06 49.4118 14.504 49.4118 13.88C49.4118 13.256 49.5478 12.7 49.8198 12.212C50.0998 11.724 50.4758 11.34 50.9478 11.06C51.4198 10.78 51.9478 10.64 52.5318 10.64C53.1158 10.64 53.6398 10.78 54.1038 11.06C54.5758 11.34 54.9478 11.724 55.2198 12.212C55.4998 12.7 55.6398 13.256 55.6398 13.88ZM54.6798 13.88C54.6798 13.416 54.5838 13.008 54.3918 12.656C54.2078 12.304 53.9518 12.028 53.6238 11.828C53.3038 11.628 52.9398 11.528 52.5318 11.528C52.1238 11.528 51.7558 11.628 51.4278 11.828C51.1078 12.028 50.8518 12.304 50.6598 12.656C50.4678 13.008 50.3718 13.416 50.3718 13.88C50.3718 14.336 50.4678 14.74 50.6598 15.092C50.8518 15.444 51.1078 15.724 51.4278 15.932C51.7558 16.132 52.1238 16.232 52.5318 16.232C52.9398 16.232 53.3038 16.132 53.6238 15.932C53.9518 15.724 54.2078 15.444 54.3918 15.092C54.5838 14.74 54.6798 14.336 54.6798 13.88ZM63.3957 8.12C63.5317 8.12 63.6437 8.168 63.7317 8.264C63.8277 8.352 63.8757 8.464 63.8757 8.6V16.508C63.8757 16.644 63.8277 16.76 63.7317 16.856C63.6437 16.952 63.5317 17 63.3957 17C63.2517 17 63.1357 16.952 63.0477 16.856C62.9597 16.76 62.9157 16.644 62.9157 16.508V15.368L63.1437 15.284C63.1437 15.476 63.0837 15.68 62.9637 15.896C62.8437 16.104 62.6797 16.3 62.4717 16.484C62.2637 16.668 62.0157 16.82 61.7277 16.94C61.4477 17.06 61.1437 17.12 60.8157 17.12C60.2797 17.12 59.7917 16.98 59.3517 16.7C58.9197 16.42 58.5757 16.036 58.3197 15.548C58.0717 15.06 57.9477 14.504 57.9477 13.88C57.9477 13.248 58.0717 12.688 58.3197 12.2C58.5757 11.712 58.9197 11.332 59.3517 11.06C59.7837 10.78 60.2637 10.64 60.7917 10.64C61.1277 10.64 61.4437 10.696 61.7397 10.808C62.0357 10.92 62.2917 11.072 62.5077 11.264C62.7317 11.456 62.9077 11.668 63.0357 11.9C63.1637 12.132 63.2277 12.364 63.2277 12.596L62.9157 12.524V8.6C62.9157 8.464 62.9597 8.352 63.0477 8.264C63.1357 8.168 63.2517 8.12 63.3957 8.12ZM60.9237 16.232C61.3237 16.232 61.6757 16.132 61.9797 15.932C62.2917 15.724 62.5317 15.444 62.6997 15.092C62.8757 14.732 62.9637 14.328 62.9637 13.88C62.9637 13.424 62.8757 13.02 62.6997 12.668C62.5317 12.316 62.2917 12.04 61.9797 11.84C61.6757 11.632 61.3237 11.528 60.9237 11.528C60.5317 11.528 60.1797 11.632 59.8677 11.84C59.5637 12.04 59.3237 12.316 59.1477 12.668C58.9717 13.02 58.8837 13.424 58.8837 13.88C58.8837 14.32 58.9717 14.72 59.1477 15.08C59.3237 15.432 59.5637 15.712 59.8677 15.92C60.1797 16.128 60.5317 16.232 60.9237 16.232Z" fill="#4B54B9"/>
<rect x="0.625" y="0.625" width="70.75" height="22.75" rx="11.375" stroke="#4B54B9" stroke-width="0.75"/>
</svg>
