<svg width="139" height="24" viewBox="0 0 139 24" fill="none" xmlns="http://www.w3.org/2000/svg">
<path d="M13.472 8.25263L13.0708 8.14032L13.472 8.25263ZM10.1387 8.2474L9.74774 8.3917L9.74774 8.3917L10.1387 8.2474ZM10.6294 4.8048L10.2226 4.89529L10.6294 4.8048ZM11.2978 7.07817L11.7063 7.1598L11.2978 7.07817ZM11.7351 4.89314L11.3266 4.81151L11.7351 4.89314ZM12.5478 7.08013L12.1392 6.9985L12.5478 7.08013ZM12.3847 7.0819L11.978 7.17239L12.3847 7.0819ZM12.6044 18.4313L12.1878 18.4379L12.6044 18.4313ZM12.4964 9.50115L12.2251 9.18499L12.4964 9.50115ZM13.156 4.78695L13.5534 4.66166L13.156 4.78695ZM13.0047 4.79716L13.4133 4.87878L13.0047 4.79716ZM11.2151 9.56785L10.7986 9.55664L11.2151 9.56785ZM11.1823 9.4985L10.925 9.82632L11.1823 9.4985ZM12.0503 9.57334L12.1878 18.4379L13.021 18.4247L12.8835 9.56011L12.0503 9.57334ZM11.3899 18.4335L11.6316 9.57907L10.7986 9.55664L10.5569 18.4111L11.3899 18.4335ZM12.7677 9.8173C12.8505 9.74621 13.0738 9.54877 13.298 9.2977C13.5107 9.05951 13.7738 8.71949 13.8732 8.36495L13.0708 8.14032C13.0265 8.29837 12.8778 8.51745 12.6765 8.74278C12.4868 8.95524 12.2942 9.12576 12.2251 9.18499L12.7677 9.8173ZM13.8732 8.36495C14.0616 7.6928 14.0243 6.91971 13.9264 6.2601C13.8273 5.59232 13.6591 4.99736 13.5534 4.66166L12.7586 4.91224C12.8569 5.22442 13.0117 5.77387 13.1021 6.38274C13.1936 6.99978 13.2123 7.63559 13.0708 8.14032L13.8732 8.36495ZM12.5962 4.71553L12.1392 6.9985L12.9563 7.16176L13.4133 4.87878L12.5962 4.71553ZM12.7915 6.99142L12.3049 4.80088L11.4914 4.98186L11.978 7.17239L12.7915 6.99142ZM11.3266 4.81151L10.8892 6.99654L11.7063 7.1598L12.1437 4.97477L11.3266 4.81151ZM11.5415 6.98945L11.0362 4.71432L10.2226 4.89529L10.728 7.17043L11.5415 6.98945ZM10.0743 4.68442C9.97047 5.05006 9.79873 5.70795 9.69507 6.39391C9.64324 6.73693 9.60716 7.09502 9.60693 7.43192C9.60671 7.76383 9.641 8.10225 9.74774 8.3917L10.5296 8.10309C10.4715 7.94565 10.4401 7.71895 10.4403 7.43217C10.4405 7.15038 10.471 6.83623 10.519 6.51812C10.6152 5.88184 10.7765 5.26198 10.8759 4.91182L10.0743 4.68442ZM9.74774 8.3917C9.88317 8.75892 10.1514 9.09007 10.3783 9.32851C10.6118 9.57389 10.8368 9.75707 10.925 9.82632L11.4397 9.17068C11.3688 9.11508 11.1777 8.95946 10.982 8.75389C10.7798 8.54137 10.6057 8.3094 10.5296 8.10309L9.74774 8.3917ZM11.0362 4.71432C10.9322 4.24637 10.2262 4.14981 10.0743 4.68442L10.8759 4.91182C10.8305 5.07198 10.6787 5.16244 10.5349 5.15588C10.3942 5.14946 10.2571 5.05065 10.2226 4.89529L11.0362 4.71432ZM10.8892 6.99654C10.96 6.6431 11.4633 6.63764 11.5415 6.98945L10.728 7.17043C10.8452 7.69815 11.6002 7.68995 11.7063 7.1598L10.8892 6.99654ZM12.3049 4.80088C12.1877 4.27317 11.4327 4.28136 11.3266 4.81151L12.1437 4.97477C12.0729 5.32821 11.5696 5.33366 11.4914 4.98186L12.3049 4.80088ZM12.1392 6.9985C12.21 6.64508 12.7133 6.63959 12.7915 6.99142L11.978 7.17239C12.0952 7.70012 12.8502 7.6919 12.9563 7.16176L12.1392 6.9985ZM11.788 18.8433C11.5637 18.8429 11.3838 18.6578 11.3899 18.4335L10.5569 18.4111C10.538 19.1037 11.0936 19.6755 11.7864 19.6766L11.788 18.8433ZM12.1878 18.4379C12.1912 18.661 12.0111 18.8436 11.788 18.8433L11.7864 19.6766C12.4754 19.6777 13.0317 19.1136 13.021 18.4247L12.1878 18.4379ZM12.8835 9.56011C12.8851 9.65832 12.8427 9.75296 12.7677 9.8173L12.2251 9.18499C12.1117 9.28234 12.048 9.42446 12.0503 9.57334L12.8835 9.56011ZM13.5534 4.66166C13.4794 4.42649 13.2609 4.30062 13.0483 4.31542C12.8386 4.33001 12.6433 4.48016 12.5962 4.71553L13.4133 4.87878C13.3827 5.03172 13.2503 5.13668 13.1059 5.14674C12.9585 5.157 12.8074 5.06724 12.7586 4.91224L13.5534 4.66166ZM11.6316 9.57907C11.636 9.41801 11.563 9.26749 11.4397 9.17068L10.925 9.82632C10.8443 9.76294 10.7957 9.66355 10.7986 9.55664L11.6316 9.57907Z" fill="#4B54B9"/>
<path d="M18.7513 11.6168L18.3346 11.617L18.7513 11.6168ZM16.668 9.37042L17.0845 9.35941L17.0845 9.35941L16.668 9.37042ZM18.7513 4.72046L18.3346 4.72061L18.7513 4.72046ZM17.1567 18.2387L16.7415 18.2042L17.1567 18.2387ZM18.7513 18.3045L18.3346 18.3047L18.7513 18.3045ZM17.7074 11.641L17.2922 11.6065L17.7074 11.641ZM17.6946 11.5945L17.3585 11.8409L17.6946 11.5945ZM18.3346 11.617L18.3346 18.3047L19.1679 18.3044L19.1679 11.6167L18.3346 11.617ZM17.5719 18.2732L18.1227 11.6755L17.2922 11.6065L16.7415 18.2042L17.5719 18.2732ZM19.1679 11.6167L19.1679 4.7203L18.3346 4.72061L18.3346 11.617L19.1679 11.6167ZM18.2885 4.40516C18.0397 4.70916 17.5211 5.38645 17.07 6.26261C16.6213 7.13415 16.2216 8.23654 16.2514 9.38143L17.0845 9.35941C17.0598 8.41193 17.3935 7.45449 17.8109 6.64385C18.2258 5.83784 18.706 5.2106 18.9333 4.93282L18.2885 4.40516ZM16.2514 9.38143C16.265 9.90319 16.5371 10.4937 16.7771 10.9285C17.0275 11.382 17.2903 11.748 17.3585 11.8409L18.0306 11.348C17.9724 11.2687 17.7327 10.9349 17.5067 10.5255C17.2704 10.0975 17.0924 9.66211 17.0845 9.35941L16.2514 9.38143ZM19.1679 4.7203C19.1679 4.26994 18.596 4.0295 18.2885 4.40516L18.9333 4.93282C18.7226 5.19025 18.3346 5.01822 18.3346 4.72061L19.1679 4.7203ZM17.9518 18.6868C17.7286 18.6865 17.5533 18.4957 17.5719 18.2732L16.7415 18.2042C16.6824 18.9119 17.2401 19.5191 17.9502 19.5202L17.9518 18.6868ZM18.3346 18.3047C18.3346 18.516 18.1631 18.6872 17.9518 18.6868L17.9502 19.5202C18.6224 19.5212 19.1679 18.9765 19.1679 18.3044L18.3346 18.3047ZM18.1227 11.6755C18.1321 11.5627 18.1025 11.446 18.0306 11.348L17.3585 11.8409C17.3066 11.7702 17.2856 11.6856 17.2922 11.6065L18.1227 11.6755Z" fill="#4B54B9"/>
<path d="M31.9227 8.6C32.5067 8.6 33.0187 8.712 33.4587 8.936C33.9067 9.152 34.2787 9.456 34.5747 9.848C34.8707 10.24 35.0907 10.692 35.2347 11.204C35.3867 11.708 35.4627 12.24 35.4627 12.8C35.4627 13.568 35.3307 14.272 35.0667 14.912C34.8027 15.544 34.4107 16.052 33.8907 16.436C33.3707 16.812 32.7147 17 31.9227 17H28.9227C28.7867 17 28.6707 16.952 28.5747 16.856C28.4867 16.76 28.4427 16.644 28.4427 16.508V9.08C28.4427 8.944 28.4867 8.832 28.5747 8.744C28.6707 8.648 28.7867 8.6 28.9227 8.6H31.9227ZM31.8027 16.064C32.4187 16.064 32.9187 15.916 33.3027 15.62C33.6947 15.324 33.9787 14.928 34.1547 14.432C34.3387 13.936 34.4307 13.392 34.4307 12.8C34.4307 12.368 34.3787 11.956 34.2747 11.564C34.1787 11.164 34.0227 10.812 33.8067 10.508C33.5987 10.204 33.3267 9.964 32.9907 9.788C32.6627 9.612 32.2667 9.524 31.8027 9.524H29.3427L29.4387 9.428V16.184L29.3667 16.064H31.8027ZM39.012 16.508C39.012 16.644 38.964 16.76 38.868 16.856C38.78 16.952 38.668 17 38.532 17C38.388 17 38.272 16.952 38.184 16.856C38.096 16.76 38.052 16.644 38.052 16.508V11.18C38.052 11.044 38.096 10.932 38.184 10.844C38.28 10.748 38.396 10.7 38.532 10.7C38.668 10.7 38.78 10.748 38.868 10.844C38.964 10.932 39.012 11.044 39.012 11.18V16.508ZM38.532 9.896C38.332 9.896 38.184 9.856 38.088 9.776C37.992 9.696 37.944 9.572 37.944 9.404V9.236C37.944 9.068 37.996 8.944 38.1 8.864C38.204 8.784 38.352 8.744 38.544 8.744C38.736 8.744 38.88 8.784 38.976 8.864C39.072 8.944 39.12 9.068 39.12 9.236V9.404C39.12 9.572 39.068 9.696 38.964 9.776C38.868 9.856 38.724 9.896 38.532 9.896ZM44.8044 17.12C44.1644 17.12 43.6044 16.984 43.1244 16.712C42.6444 16.44 42.2684 16.068 41.9964 15.596C41.7324 15.116 41.6004 14.564 41.6004 13.94C41.6004 13.244 41.7364 12.652 42.0084 12.164C42.2884 11.668 42.6484 11.292 43.0884 11.036C43.5364 10.772 44.0084 10.64 44.5044 10.64C44.8724 10.64 45.2284 10.708 45.5724 10.844C45.9164 10.98 46.2204 11.18 46.4844 11.444C46.7484 11.7 46.9604 12.012 47.1204 12.38C47.2804 12.74 47.3644 13.144 47.3724 13.592C47.3724 13.72 47.3244 13.828 47.2284 13.916C47.1324 14.004 47.0204 14.048 46.8924 14.048H42.1524L41.9364 13.22H46.5564L46.3644 13.388V13.124C46.3324 12.796 46.2204 12.516 46.0284 12.284C45.8444 12.044 45.6164 11.86 45.3444 11.732C45.0804 11.604 44.8004 11.54 44.5044 11.54C44.2644 11.54 44.0244 11.584 43.7844 11.672C43.5524 11.752 43.3404 11.888 43.1484 12.08C42.9644 12.264 42.8124 12.504 42.6924 12.8C42.5804 13.096 42.5244 13.452 42.5244 13.868C42.5244 14.332 42.6164 14.74 42.8004 15.092C42.9924 15.444 43.2564 15.724 43.5924 15.932C43.9284 16.132 44.3204 16.232 44.7684 16.232C45.0484 16.232 45.2924 16.196 45.5004 16.124C45.7084 16.052 45.8884 15.964 46.0404 15.86C46.1924 15.748 46.3204 15.636 46.4244 15.524C46.5284 15.452 46.6284 15.416 46.7244 15.416C46.8444 15.416 46.9404 15.456 47.0124 15.536C47.0924 15.616 47.1324 15.712 47.1324 15.824C47.1324 15.96 47.0684 16.08 46.9404 16.184C46.7164 16.432 46.4124 16.652 46.0284 16.844C45.6444 17.028 45.2364 17.12 44.8044 17.12ZM49.7753 10.832H52.5953C52.7233 10.832 52.8273 10.876 52.9073 10.964C52.9953 11.052 53.0393 11.156 53.0393 11.276C53.0393 11.404 52.9953 11.512 52.9073 11.6C52.8273 11.68 52.7233 11.72 52.5953 11.72H49.7753C49.6553 11.72 49.5513 11.676 49.4633 11.588C49.3753 11.5 49.3313 11.392 49.3313 11.264C49.3313 11.144 49.3753 11.044 49.4633 10.964C49.5513 10.876 49.6553 10.832 49.7753 10.832ZM51.0353 9.2C51.1713 9.2 51.2833 9.248 51.3713 9.344C51.4593 9.432 51.5033 9.544 51.5033 9.68V15.476C51.5033 15.668 51.5313 15.812 51.5873 15.908C51.6433 16.004 51.7153 16.072 51.8033 16.112C51.8993 16.144 51.9913 16.16 52.0793 16.16C52.1593 16.16 52.2273 16.148 52.2833 16.124C52.3473 16.092 52.4193 16.076 52.4993 16.076C52.5793 16.076 52.6513 16.116 52.7153 16.196C52.7873 16.268 52.8233 16.364 52.8233 16.484C52.8233 16.628 52.7393 16.752 52.5713 16.856C52.4033 16.952 52.2153 17 52.0073 17C51.8953 17 51.7553 16.992 51.5873 16.976C51.4273 16.96 51.2673 16.908 51.1073 16.82C50.9473 16.732 50.8113 16.588 50.6993 16.388C50.5953 16.18 50.5433 15.892 50.5433 15.524V9.68C50.5433 9.544 50.5913 9.432 50.6873 9.344C50.7833 9.248 50.8993 9.2 51.0353 9.2ZM62.4794 17.12C61.9114 17.12 61.4074 16.992 60.9674 16.736C60.5274 16.472 60.1794 16.136 59.9234 15.728C59.6754 15.312 59.5514 14.876 59.5514 14.42C59.5514 14.052 59.6194 13.704 59.7554 13.376C59.8994 13.048 60.1114 12.756 60.3914 12.5C60.6794 12.236 61.0434 12.024 61.4834 11.864L62.1434 12.536C61.5434 12.664 61.1234 12.888 60.8834 13.208C60.6514 13.52 60.5354 13.876 60.5354 14.276C60.5354 14.596 60.6114 14.904 60.7634 15.2C60.9154 15.496 61.1474 15.736 61.4594 15.92C61.7794 16.104 62.1754 16.196 62.6474 16.196C63.1194 16.196 63.5314 16.112 63.8834 15.944C64.2354 15.776 64.5314 15.548 64.7714 15.26C65.0114 14.972 65.2074 14.652 65.3594 14.3C65.5114 13.948 65.6154 13.592 65.6714 13.232C65.6874 13.136 65.7274 13.06 65.7914 13.004C65.8554 12.948 65.9554 12.92 66.0914 12.92C66.2274 12.92 66.3354 12.976 66.4154 13.088C66.5034 13.2 66.5354 13.332 66.5114 13.484C66.4474 13.932 66.3154 14.372 66.1154 14.804C65.9154 15.236 65.6514 15.628 65.3234 15.98C64.9954 16.324 64.5954 16.6 64.1234 16.808C63.6514 17.016 63.1034 17.12 62.4794 17.12ZM66.7514 16.988C66.6874 16.988 66.6314 16.98 66.5834 16.964C66.5434 16.94 66.5074 16.92 66.4754 16.904C65.9554 16.48 65.4634 16.08 64.9994 15.704C64.5434 15.328 64.0994 14.94 63.6674 14.54C63.2354 14.132 62.7994 13.676 62.3594 13.172C62.0794 12.852 61.8234 12.548 61.5914 12.26C61.3674 11.972 61.1874 11.688 61.0514 11.408C60.9154 11.128 60.8474 10.84 60.8474 10.544C60.8474 10.16 60.9434 9.812 61.1354 9.5C61.3274 9.188 61.5994 8.94 61.9514 8.756C62.3114 8.572 62.7354 8.48 63.2234 8.48C63.7914 8.48 64.2754 8.584 64.6754 8.792C65.0754 8.992 65.3514 9.244 65.5034 9.548C65.5114 9.556 65.5234 9.592 65.5394 9.656C65.5634 9.712 65.5754 9.776 65.5754 9.848C65.5754 9.944 65.5354 10.036 65.4554 10.124C65.3834 10.204 65.2794 10.244 65.1434 10.244C65.0634 10.244 64.9954 10.228 64.9394 10.196C64.8834 10.156 64.8394 10.116 64.8074 10.076C64.6474 9.844 64.4434 9.66 64.1954 9.524C63.9474 9.388 63.6234 9.32 63.2234 9.32C62.7754 9.32 62.4354 9.432 62.2034 9.656C61.9714 9.88 61.8554 10.168 61.8554 10.52C61.8554 10.76 61.9274 11.016 62.0714 11.288C62.2234 11.552 62.4074 11.816 62.6234 12.08C62.8474 12.336 63.0634 12.58 63.2714 12.812C63.5674 13.14 63.8834 13.468 64.2194 13.796C64.5554 14.116 64.8914 14.424 65.2274 14.72C65.5634 15.008 65.8794 15.276 66.1754 15.524C66.4794 15.764 66.7394 15.968 66.9554 16.136C67.0274 16.2 67.0794 16.264 67.1114 16.328C67.1434 16.392 67.1594 16.468 67.1594 16.556C67.1594 16.636 67.1234 16.728 67.0514 16.832C66.9874 16.936 66.8874 16.988 66.7514 16.988ZM80.4415 8.6C80.5775 8.6 80.6855 8.644 80.7655 8.732C80.8455 8.812 80.8855 8.916 80.8855 9.044V16.496C80.8855 16.648 80.8375 16.772 80.7415 16.868C80.6455 16.956 80.5295 17 80.3935 17C80.3215 17 80.2495 16.988 80.1775 16.964C80.1055 16.932 80.0495 16.892 80.0095 16.844L74.8735 10.052L75.1135 9.908V16.556C75.1135 16.684 75.0695 16.792 74.9815 16.88C74.9015 16.96 74.7935 17 74.6575 17C74.5295 17 74.4255 16.96 74.3455 16.88C74.2655 16.792 74.2255 16.684 74.2255 16.556V9.08C74.2255 8.936 74.2695 8.82 74.3575 8.732C74.4535 8.644 74.5655 8.6 74.6935 8.6C74.7655 8.6 74.8375 8.616 74.9095 8.648C74.9895 8.672 75.0495 8.712 75.0895 8.768L80.1535 15.464L79.9975 15.656V9.044C79.9975 8.916 80.0375 8.812 80.1175 8.732C80.2055 8.644 80.3135 8.6 80.4415 8.6ZM88.6672 10.796C88.8112 10.796 88.9272 10.844 89.0152 10.94C89.1032 11.028 89.1472 11.14 89.1472 11.276V14.552C89.1472 15.36 88.9192 15.988 88.4632 16.436C88.0152 16.876 87.3872 17.096 86.5792 17.096C85.7792 17.096 85.1512 16.876 84.6952 16.436C84.2472 15.988 84.0232 15.36 84.0232 14.552V11.276C84.0232 11.14 84.0672 11.028 84.1552 10.94C84.2512 10.844 84.3672 10.796 84.5032 10.796C84.6472 10.796 84.7632 10.844 84.8512 10.94C84.9392 11.028 84.9832 11.14 84.9832 11.276V14.552C84.9832 15.096 85.1232 15.508 85.4032 15.788C85.6832 16.068 86.0752 16.208 86.5792 16.208C87.0992 16.208 87.4952 16.068 87.7672 15.788C88.0472 15.508 88.1872 15.096 88.1872 14.552V11.276C88.1872 11.14 88.2312 11.028 88.3192 10.94C88.4152 10.844 88.5312 10.796 88.6672 10.796ZM91.8855 10.832H94.7055C94.8335 10.832 94.9375 10.876 95.0175 10.964C95.1055 11.052 95.1495 11.156 95.1495 11.276C95.1495 11.404 95.1055 11.512 95.0175 11.6C94.9375 11.68 94.8335 11.72 94.7055 11.72H91.8855C91.7655 11.72 91.6615 11.676 91.5735 11.588C91.4855 11.5 91.4415 11.392 91.4415 11.264C91.4415 11.144 91.4855 11.044 91.5735 10.964C91.6615 10.876 91.7655 10.832 91.8855 10.832ZM93.1455 9.2C93.2815 9.2 93.3935 9.248 93.4815 9.344C93.5695 9.432 93.6135 9.544 93.6135 9.68V15.476C93.6135 15.668 93.6415 15.812 93.6975 15.908C93.7535 16.004 93.8255 16.072 93.9135 16.112C94.0095 16.144 94.1015 16.16 94.1895 16.16C94.2695 16.16 94.3375 16.148 94.3935 16.124C94.4575 16.092 94.5295 16.076 94.6095 16.076C94.6895 16.076 94.7615 16.116 94.8255 16.196C94.8975 16.268 94.9335 16.364 94.9335 16.484C94.9335 16.628 94.8495 16.752 94.6815 16.856C94.5135 16.952 94.3255 17 94.1175 17C94.0055 17 93.8655 16.992 93.6975 16.976C93.5375 16.96 93.3775 16.908 93.2175 16.82C93.0575 16.732 92.9215 16.588 92.8095 16.388C92.7055 16.18 92.6535 15.892 92.6535 15.524V9.68C92.6535 9.544 92.7015 9.432 92.7975 9.344C92.8935 9.248 93.0095 9.2 93.1455 9.2ZM98.1649 17C98.0289 17 97.9129 16.952 97.8169 16.856C97.7289 16.76 97.6849 16.644 97.6849 16.508V11.276C97.6849 11.14 97.7289 11.028 97.8169 10.94C97.9129 10.844 98.0289 10.796 98.1649 10.796C98.3089 10.796 98.4249 10.844 98.5129 10.94C98.6009 11.028 98.6449 11.14 98.6449 11.276V12.86L98.5009 12.608C98.5489 12.36 98.6329 12.12 98.7529 11.888C98.8809 11.648 99.0409 11.436 99.2329 11.252C99.4249 11.06 99.6449 10.912 99.8929 10.808C100.141 10.696 100.413 10.64 100.709 10.64C100.885 10.64 101.045 10.684 101.189 10.772C101.341 10.852 101.417 10.968 101.417 11.12C101.417 11.288 101.373 11.412 101.285 11.492C101.197 11.572 101.097 11.612 100.985 11.612C100.881 11.612 100.781 11.592 100.685 11.552C100.589 11.504 100.469 11.48 100.325 11.48C100.125 11.48 99.9249 11.536 99.7249 11.648C99.5329 11.752 99.3529 11.904 99.1849 12.104C99.0249 12.304 98.8929 12.532 98.7889 12.788C98.6929 13.036 98.6449 13.304 98.6449 13.592V16.508C98.6449 16.644 98.5969 16.76 98.5009 16.856C98.4129 16.952 98.3009 17 98.1649 17ZM104.625 16.508C104.625 16.644 104.577 16.76 104.481 16.856C104.393 16.952 104.281 17 104.145 17C104.001 17 103.885 16.952 103.797 16.856C103.709 16.76 103.665 16.644 103.665 16.508V11.18C103.665 11.044 103.709 10.932 103.797 10.844C103.893 10.748 104.009 10.7 104.145 10.7C104.281 10.7 104.393 10.748 104.481 10.844C104.577 10.932 104.625 11.044 104.625 11.18V16.508ZM104.145 9.896C103.945 9.896 103.797 9.856 103.701 9.776C103.605 9.696 103.557 9.572 103.557 9.404V9.236C103.557 9.068 103.609 8.944 103.713 8.864C103.817 8.784 103.965 8.744 104.157 8.744C104.349 8.744 104.493 8.784 104.589 8.864C104.685 8.944 104.733 9.068 104.733 9.236V9.404C104.733 9.572 104.681 9.696 104.577 9.776C104.481 9.856 104.337 9.896 104.145 9.896ZM107.31 10.832H110.13C110.258 10.832 110.362 10.876 110.442 10.964C110.53 11.052 110.574 11.156 110.574 11.276C110.574 11.404 110.53 11.512 110.442 11.6C110.362 11.68 110.258 11.72 110.13 11.72H107.31C107.19 11.72 107.086 11.676 106.998 11.588C106.91 11.5 106.866 11.392 106.866 11.264C106.866 11.144 106.91 11.044 106.998 10.964C107.086 10.876 107.19 10.832 107.31 10.832ZM108.57 9.2C108.706 9.2 108.818 9.248 108.906 9.344C108.994 9.432 109.038 9.544 109.038 9.68V15.476C109.038 15.668 109.066 15.812 109.122 15.908C109.178 16.004 109.25 16.072 109.338 16.112C109.434 16.144 109.526 16.16 109.614 16.16C109.694 16.16 109.762 16.148 109.818 16.124C109.882 16.092 109.954 16.076 110.034 16.076C110.114 16.076 110.186 16.116 110.25 16.196C110.322 16.268 110.358 16.364 110.358 16.484C110.358 16.628 110.274 16.752 110.106 16.856C109.938 16.952 109.75 17 109.542 17C109.43 17 109.29 16.992 109.122 16.976C108.962 16.96 108.802 16.908 108.642 16.82C108.482 16.732 108.346 16.588 108.234 16.388C108.13 16.18 108.078 15.892 108.078 15.524V9.68C108.078 9.544 108.126 9.432 108.222 9.344C108.318 9.248 108.434 9.2 108.57 9.2ZM114.033 16.508C114.033 16.644 113.985 16.76 113.889 16.856C113.801 16.952 113.689 17 113.553 17C113.409 17 113.293 16.952 113.205 16.856C113.117 16.76 113.073 16.644 113.073 16.508V11.18C113.073 11.044 113.117 10.932 113.205 10.844C113.301 10.748 113.417 10.7 113.553 10.7C113.689 10.7 113.801 10.748 113.889 10.844C113.985 10.932 114.033 11.044 114.033 11.18V16.508ZM113.553 9.896C113.353 9.896 113.205 9.856 113.109 9.776C113.013 9.696 112.965 9.572 112.965 9.404V9.236C112.965 9.068 113.017 8.944 113.121 8.864C113.225 8.784 113.373 8.744 113.565 8.744C113.757 8.744 113.901 8.784 113.997 8.864C114.093 8.944 114.141 9.068 114.141 9.236V9.404C114.141 9.572 114.089 9.696 113.985 9.776C113.889 9.856 113.745 9.896 113.553 9.896ZM122.85 13.88C122.85 14.504 122.71 15.06 122.43 15.548C122.158 16.036 121.786 16.42 121.314 16.7C120.85 16.98 120.326 17.12 119.742 17.12C119.158 17.12 118.63 16.98 118.158 16.7C117.686 16.42 117.31 16.036 117.03 15.548C116.758 15.06 116.622 14.504 116.622 13.88C116.622 13.256 116.758 12.7 117.03 12.212C117.31 11.724 117.686 11.34 118.158 11.06C118.63 10.78 119.158 10.64 119.742 10.64C120.326 10.64 120.85 10.78 121.314 11.06C121.786 11.34 122.158 11.724 122.43 12.212C122.71 12.7 122.85 13.256 122.85 13.88ZM121.89 13.88C121.89 13.416 121.794 13.008 121.602 12.656C121.418 12.304 121.162 12.028 120.834 11.828C120.514 11.628 120.15 11.528 119.742 11.528C119.334 11.528 118.966 11.628 118.638 11.828C118.318 12.028 118.062 12.304 117.87 12.656C117.678 13.008 117.582 13.416 117.582 13.88C117.582 14.336 117.678 14.74 117.87 15.092C118.062 15.444 118.318 15.724 118.638 15.932C118.966 16.132 119.334 16.232 119.742 16.232C120.15 16.232 120.514 16.132 120.834 15.932C121.162 15.724 121.418 15.444 121.602 15.092C121.794 14.74 121.89 14.336 121.89 13.88ZM128.577 10.64C129.121 10.64 129.549 10.752 129.861 10.976C130.173 11.2 130.393 11.5 130.521 11.876C130.657 12.252 130.725 12.672 130.725 13.136V16.508C130.725 16.644 130.677 16.76 130.581 16.856C130.493 16.952 130.381 17 130.245 17C130.109 17 129.993 16.952 129.897 16.856C129.809 16.76 129.765 16.644 129.765 16.508V13.16C129.765 12.856 129.717 12.584 129.621 12.344C129.533 12.096 129.381 11.9 129.165 11.756C128.957 11.604 128.669 11.528 128.301 11.528C127.965 11.528 127.657 11.604 127.377 11.756C127.097 11.9 126.873 12.096 126.705 12.344C126.537 12.584 126.453 12.856 126.453 13.16V16.508C126.453 16.644 126.405 16.76 126.309 16.856C126.221 16.952 126.109 17 125.973 17C125.837 17 125.721 16.952 125.625 16.856C125.537 16.76 125.493 16.644 125.493 16.508V11.276C125.493 11.14 125.537 11.028 125.625 10.94C125.721 10.844 125.837 10.796 125.973 10.796C126.117 10.796 126.233 10.844 126.321 10.94C126.409 11.028 126.453 11.14 126.453 11.276V12.128L126.213 12.392C126.253 12.184 126.345 11.976 126.489 11.768C126.633 11.552 126.813 11.36 127.029 11.192C127.245 11.024 127.485 10.892 127.749 10.796C128.013 10.692 128.289 10.64 128.577 10.64Z" fill="#4B54B9"/>
<rect x="0.625" y="0.625" width="137.75" height="22.75" rx="11.375" stroke="#4B54B9" stroke-width="0.75"/>
</svg>
