<svg width="89" height="24" viewBox="0 0 89 24" fill="none" xmlns="http://www.w3.org/2000/svg">
<path d="M16.6683 10.2607L17.085 10.2561V10.2561L16.6683 10.2607ZM17.5867 18.4067L17.9988 18.4681C18.0019 18.4478 18.0034 18.4273 18.0034 18.4067H17.5867ZM10.0421 5.31026L9.74834 5.01474L9.74834 5.01474L10.0421 5.31026ZM11.5143 5.60938L11.835 5.34337L11.823 5.32894L11.8098 5.31564L11.5143 5.60938ZM13.092 9.67257L12.7948 9.96462L13.092 9.67257ZM10.3321 6.7843L10.0234 7.06413H10.0234L10.3321 6.7843ZM19.9574 5.31026L20.2511 5.01474V5.01474L19.9574 5.31026ZM18.4852 5.60938L18.1896 5.31564L18.1764 5.32894L18.1645 5.34337L18.4852 5.60938ZM16.9075 9.67257L16.6104 9.38053L16.6104 9.38053L16.9075 9.67257ZM19.6673 6.7843L19.3586 6.50448V6.50448L19.6673 6.7843ZM14.9997 14.0833L15.4082 14.001C15.3689 13.8063 15.1977 13.6663 14.999 13.6667C14.8003 13.667 14.6295 13.8076 14.591 14.0025L14.9997 14.0833ZM15.8937 18.5184L15.4853 18.6008L15.4918 18.6334L15.5035 18.6646L15.8937 18.5184ZM13.332 10.2613L13.7486 10.2659L13.7486 10.2641L13.332 10.2613ZM16.7889 19.1184L16.78 19.535H16.78L16.7889 19.1184ZM12.4153 18.4794H11.9986C11.9986 18.4999 12.0001 18.5204 12.0032 18.5408L12.4153 18.4794ZM14.1083 18.591L14.4985 18.7372L14.5104 18.7053L14.517 18.6719L14.1083 18.591ZM13.2131 19.191L13.2043 18.7745H13.2043L13.2131 19.191ZM16.2517 10.2653C16.2739 12.2861 16.5068 14.0415 16.7326 15.4382C16.789 15.7872 16.845 16.114 16.897 16.4162C16.9492 16.7192 16.9971 16.9959 17.0381 17.2481C17.1211 17.76 17.17 18.1409 17.17 18.4067H18.0034C18.0034 18.0649 17.9429 17.6217 17.8606 17.1146C17.8189 16.8574 17.7701 16.5759 17.7183 16.2748C17.6663 15.9728 17.6109 15.6496 17.5552 15.3052C17.3327 13.9286 17.1065 12.2186 17.085 10.2561L16.2517 10.2653ZM10.3358 5.60579C10.4059 5.53609 10.4624 5.51388 10.5039 5.50608C10.5492 5.4976 10.6083 5.50068 10.6868 5.5275C10.8554 5.58515 11.0456 5.72887 11.2188 5.90311L11.8098 5.31564C11.605 5.10959 11.3059 4.85846 10.9563 4.73896C10.7757 4.67722 10.5684 4.64616 10.3505 4.68701C10.1288 4.72855 9.92502 4.83913 9.74834 5.01474L10.3358 5.60579ZM11.5143 5.60938C11.1936 5.87538 11.1936 5.87544 11.1937 5.8755C11.1937 5.87554 11.1938 5.87561 11.1938 5.87568C11.1939 5.87582 11.1941 5.87601 11.1943 5.87623C11.1947 5.87667 11.1952 5.87727 11.1958 5.87803C11.1971 5.87955 11.1988 5.8817 11.2011 5.88445C11.2058 5.88996 11.2124 5.8979 11.2211 5.9081C11.2383 5.92852 11.2635 5.95803 11.2957 5.99533C11.3602 6.06991 11.4532 6.17581 11.5688 6.30261C11.7994 6.55569 12.1219 6.89454 12.4875 7.23473C12.8513 7.57331 13.2672 7.922 13.6844 8.18853C14.0883 8.44658 14.5524 8.66667 14.9997 8.66667V7.83334C14.7994 7.83334 14.5041 7.72335 14.133 7.48629C13.7753 7.2577 13.4007 6.94623 13.0551 6.62465C12.7113 6.30468 12.4053 5.98338 12.1847 5.74134C12.0747 5.62058 11.9865 5.52018 11.9261 5.45035C11.896 5.41545 11.8728 5.38822 11.8573 5.36996C11.8496 5.36083 11.8438 5.35394 11.8401 5.34945C11.8382 5.34721 11.8368 5.34557 11.836 5.34455C11.8355 5.34404 11.8353 5.34368 11.8351 5.34349C11.835 5.34339 11.835 5.34333 11.8349 5.34331C11.8349 5.3433 11.8349 5.34332 11.8349 5.34331C11.835 5.34334 11.835 5.34337 11.5143 5.60938ZM13.3892 9.38053C12.4707 8.44588 11.0185 6.92105 10.6409 6.50448L10.0234 7.06413C10.4121 7.49297 11.8734 9.02704 12.7948 9.96462L13.3892 9.38053ZM9.74834 5.01474C9.57923 5.18281 9.4633 5.37484 9.41411 5.58956C9.36511 5.80348 9.3898 6.00736 9.44909 6.18798C9.56131 6.52983 9.81409 6.83317 10.0234 7.06413L10.6409 6.50448C10.4315 6.27347 10.2924 6.08509 10.2409 5.92807C10.2183 5.85926 10.2181 5.81191 10.2264 5.77564C10.2345 5.74015 10.2581 5.68302 10.3358 5.60579L9.74834 5.01474ZM20.2511 5.01474C20.0744 4.83913 19.8707 4.72855 19.649 4.68701C19.431 4.64616 19.2238 4.67722 19.0431 4.73896C18.6936 4.85846 18.3944 5.10959 18.1896 5.31564L18.7807 5.90311C18.9539 5.72887 19.144 5.58515 19.3127 5.5275C19.3912 5.50068 19.4502 5.4976 19.4955 5.50608C19.5371 5.51388 19.5935 5.53609 19.6637 5.60579L20.2511 5.01474ZM18.4852 5.60938C18.1645 5.34337 18.1645 5.34334 18.1645 5.34331C18.1645 5.34332 18.1645 5.3433 18.1645 5.34331C18.1645 5.34333 18.1644 5.34339 18.1644 5.34349C18.1642 5.34369 18.1639 5.34404 18.1635 5.34455C18.1626 5.34557 18.1613 5.34721 18.1594 5.34946C18.1556 5.35394 18.1498 5.36083 18.1421 5.36996C18.1267 5.38823 18.1035 5.41545 18.0733 5.45035C18.0129 5.52018 17.9248 5.62059 17.8147 5.74134C17.5942 5.98338 17.2882 6.30468 16.9443 6.62466C16.5987 6.94623 16.2242 7.2577 15.8664 7.48629C15.4954 7.72335 15.2001 7.83334 14.9997 7.83334V8.66667C15.447 8.66667 15.9112 8.44658 16.3151 8.18853C16.7323 7.92199 17.1482 7.5733 17.512 7.23472C17.8776 6.89454 18.2001 6.55569 18.4307 6.3026C18.5462 6.1758 18.6393 6.06991 18.7037 5.99533C18.736 5.95803 18.7611 5.92852 18.7784 5.9081C18.787 5.89789 18.7937 5.88995 18.7983 5.88445C18.8006 5.88169 18.8024 5.87955 18.8037 5.87803C18.8043 5.87727 18.8048 5.87667 18.8052 5.87622C18.8054 5.876 18.8055 5.87582 18.8056 5.87568C18.8057 5.87561 18.8057 5.87553 18.8058 5.8755C18.8058 5.87543 18.8059 5.87538 18.4852 5.60938ZM17.2047 9.96461C18.1261 9.02703 19.5873 7.49297 19.976 7.06413L19.3586 6.50448C18.981 6.92105 17.5288 8.44589 16.6104 9.38053L17.2047 9.96461ZM19.6637 5.60579C19.7414 5.68302 19.7649 5.74015 19.773 5.77564C19.7814 5.81191 19.7812 5.85926 19.7586 5.92807C19.7071 6.08509 19.568 6.27347 19.3586 6.50448L19.976 7.06413C20.1854 6.83317 20.4381 6.52983 20.5504 6.18798C20.6097 6.00736 20.6343 5.80348 20.5853 5.58956C20.5362 5.37484 20.4202 5.18281 20.2511 5.01474L19.6637 5.60579ZM14.5913 14.1657L15.4853 18.6008L16.3022 18.4361L15.4082 14.001L14.5913 14.1657ZM17.085 10.2561C17.0838 10.1499 17.126 10.0448 17.2047 9.96461L16.6104 9.38053C16.3805 9.61439 16.248 9.9313 16.2517 10.2653L17.085 10.2561ZM13.7486 10.2641C13.7509 9.9319 13.6194 9.61482 13.3892 9.38053L12.7948 9.96462C12.8731 10.0443 12.916 10.1504 12.9153 10.2585L13.7486 10.2641ZM15.5035 18.6646C15.6646 19.0946 16.1137 19.5208 16.78 19.535L16.7977 18.7018C16.5071 18.6957 16.338 18.5167 16.2839 18.3723L15.5035 18.6646ZM16.78 19.535C17.0979 19.5417 17.3828 19.3921 17.5842 19.2092C17.7865 19.0254 17.9549 18.7632 17.9988 18.4681L17.1746 18.3454C17.1648 18.4111 17.1162 18.5085 17.0239 18.5924C16.9308 18.677 16.8436 18.7028 16.7977 18.7018L16.78 19.535ZM12.9153 10.2567C12.8938 12.2194 12.6679 13.9476 12.4457 15.3428C12.3902 15.6917 12.3349 16.0195 12.283 16.3257C12.2312 16.6311 12.1826 16.9164 12.1409 17.177C12.0588 17.6905 11.9986 18.138 11.9986 18.4794H12.8319C12.8319 18.2131 12.8809 17.8274 12.9638 17.3085C13.0047 17.0528 13.0525 16.7721 13.1046 16.465C13.1565 16.1586 13.2124 15.8272 13.2687 15.4738C13.4939 14.0596 13.7264 12.2864 13.7486 10.2659L12.9153 10.2567ZM14.591 14.0025L13.6995 18.5102L14.517 18.6719L15.4085 14.1642L14.591 14.0025ZM13.7181 18.4449C13.664 18.5893 13.4949 18.7683 13.2043 18.7745L13.222 19.6076C13.8883 19.5935 14.3374 19.1672 14.4985 18.7372L13.7181 18.4449ZM13.2043 18.7745C13.1584 18.7754 13.0712 18.7496 12.9781 18.665C12.8858 18.5812 12.8372 18.4837 12.8274 18.418L12.0032 18.5408C12.0471 18.8358 12.2155 19.0981 12.4178 19.2818C12.6192 19.4648 12.9041 19.6143 13.222 19.6076L13.2043 18.7745Z" fill="#4B54B9"/>
<circle cx="14.932" cy="5.89097" r="0.974302" stroke="#4B54B9" stroke-width="0.833333"/>
<path d="M31.8217 8.6C32.2617 8.6 32.6577 8.708 33.0097 8.924C33.3617 9.14 33.6377 9.436 33.8377 9.812C34.0457 10.188 34.1497 10.616 34.1497 11.096C34.1497 11.568 34.0457 11.996 33.8377 12.38C33.6377 12.764 33.3617 13.068 33.0097 13.292C32.6577 13.516 32.2617 13.628 31.8217 13.628H29.3857L29.4697 13.484V16.508C29.4697 16.644 29.4257 16.76 29.3377 16.856C29.2497 16.952 29.1377 17 29.0017 17C28.8577 17 28.7417 16.952 28.6537 16.856C28.5737 16.76 28.5337 16.644 28.5337 16.508V9.08C28.5337 8.944 28.5777 8.832 28.6657 8.744C28.7617 8.648 28.8777 8.6 29.0137 8.6H31.8217ZM31.8217 12.704C32.0857 12.704 32.3177 12.632 32.5177 12.488C32.7177 12.344 32.8777 12.148 32.9977 11.9C33.1177 11.652 33.1777 11.384 33.1777 11.096C33.1777 10.792 33.1177 10.524 32.9977 10.292C32.8777 10.06 32.7177 9.876 32.5177 9.74C32.3177 9.596 32.0857 9.524 31.8217 9.524H29.3857L29.4697 9.392V12.824L29.3857 12.704H31.8217ZM39.7493 10.7C40.2773 10.7 40.6933 10.816 40.9973 11.048C41.3093 11.272 41.5293 11.576 41.6573 11.96C41.7933 12.336 41.8613 12.756 41.8613 13.22V16.508C41.8613 16.644 41.8133 16.76 41.7173 16.856C41.6293 16.952 41.5173 17 41.3813 17C41.2453 17 41.1293 16.952 41.0333 16.856C40.9453 16.76 40.9013 16.644 40.9013 16.508V13.22C40.9013 12.916 40.8573 12.644 40.7693 12.404C40.6813 12.156 40.5333 11.96 40.3253 11.816C40.1253 11.664 39.8493 11.588 39.4973 11.588C39.1693 11.588 38.8693 11.664 38.5973 11.816C38.3253 11.96 38.1093 12.156 37.9493 12.404C37.7893 12.644 37.7093 12.916 37.7093 13.22V16.508C37.7093 16.644 37.6613 16.76 37.5653 16.856C37.4773 16.952 37.3653 17 37.2293 17C37.0933 17 36.9773 16.952 36.8813 16.856C36.7933 16.76 36.7493 16.644 36.7493 16.508V8.6C36.7493 8.464 36.7933 8.352 36.8813 8.264C36.9773 8.168 37.0933 8.12 37.2293 8.12C37.3733 8.12 37.4893 8.168 37.5773 8.264C37.6653 8.352 37.7093 8.464 37.7093 8.6V12.188L37.4693 12.452C37.5093 12.244 37.5973 12.036 37.7333 11.828C37.8693 11.612 38.0413 11.42 38.2493 11.252C38.4573 11.084 38.6893 10.952 38.9453 10.856C39.2013 10.752 39.4693 10.7 39.7493 10.7ZM49.4254 10.7C49.5614 10.7 49.6734 10.748 49.7614 10.844C49.8574 10.932 49.9054 11.044 49.9054 11.18V16.412C49.9054 17.084 49.7734 17.64 49.5094 18.08C49.2454 18.528 48.8894 18.86 48.4414 19.076C48.0014 19.292 47.5014 19.4 46.9414 19.4C46.6294 19.4 46.3294 19.368 46.0414 19.304C45.7534 19.24 45.5174 19.156 45.3334 19.052C45.1814 18.98 45.0734 18.888 45.0094 18.776C44.9534 18.672 44.9454 18.56 44.9854 18.44C45.0414 18.296 45.1214 18.196 45.2254 18.14C45.3374 18.084 45.4534 18.084 45.5734 18.14C45.7014 18.196 45.8854 18.272 46.1254 18.368C46.3734 18.472 46.6494 18.524 46.9534 18.524C47.3694 18.524 47.7254 18.444 48.0214 18.284C48.3174 18.124 48.5454 17.888 48.7054 17.576C48.8654 17.272 48.9454 16.892 48.9454 16.436V15.584L49.0894 15.884C48.9614 16.132 48.7894 16.348 48.5734 16.532C48.3574 16.716 48.1094 16.86 47.8294 16.964C47.5494 17.068 47.2414 17.12 46.9054 17.12C46.4494 17.12 46.0614 17.024 45.7414 16.832C45.4294 16.632 45.1894 16.36 45.0214 16.016C44.8614 15.664 44.7814 15.26 44.7814 14.804V11.18C44.7814 11.044 44.8254 10.932 44.9134 10.844C45.0094 10.748 45.1254 10.7 45.2614 10.7C45.4054 10.7 45.5214 10.748 45.6094 10.844C45.6974 10.932 45.7414 11.044 45.7414 11.18V14.588C45.7414 15.132 45.8614 15.544 46.1014 15.824C46.3414 16.096 46.7134 16.232 47.2174 16.232C47.5374 16.232 47.8254 16.16 48.0814 16.016C48.3454 15.872 48.5534 15.676 48.7054 15.428C48.8654 15.172 48.9454 14.892 48.9454 14.588V11.18C48.9454 11.044 48.9894 10.932 49.0774 10.844C49.1654 10.748 49.2814 10.7 49.4254 10.7ZM52.4185 16.016C52.3465 15.912 52.3145 15.804 52.3225 15.692C52.3305 15.572 52.3985 15.468 52.5265 15.38C52.6065 15.324 52.6985 15.3 52.8025 15.308C52.9145 15.316 53.0145 15.368 53.1025 15.464C53.3265 15.728 53.5825 15.94 53.8705 16.1C54.1585 16.252 54.5105 16.328 54.9265 16.328C55.1185 16.32 55.3105 16.288 55.5025 16.232C55.6945 16.176 55.8545 16.08 55.9825 15.944C56.1185 15.8 56.1865 15.612 56.1865 15.38C56.1865 15.156 56.1185 14.98 55.9825 14.852C55.8465 14.716 55.6705 14.608 55.4545 14.528C55.2385 14.44 55.0025 14.364 54.7465 14.3C54.4825 14.228 54.2225 14.148 53.9665 14.06C53.7105 13.964 53.4785 13.848 53.2705 13.712C53.0705 13.568 52.9065 13.392 52.7785 13.184C52.6585 12.968 52.5985 12.708 52.5985 12.404C52.5985 12.044 52.6945 11.732 52.8865 11.468C53.0865 11.204 53.3505 11 53.6785 10.856C54.0145 10.712 54.3785 10.64 54.7705 10.64C54.9945 10.64 55.2265 10.668 55.4665 10.724C55.7145 10.772 55.9545 10.86 56.1865 10.988C56.4185 11.108 56.6225 11.276 56.7985 11.492C56.8705 11.572 56.9105 11.672 56.9185 11.792C56.9265 11.912 56.8745 12.02 56.7625 12.116C56.6745 12.18 56.5745 12.208 56.4625 12.2C56.3585 12.192 56.2705 12.152 56.1985 12.08C56.0305 11.88 55.8185 11.728 55.5625 11.624C55.3145 11.512 55.0385 11.456 54.7345 11.456C54.5425 11.456 54.3545 11.484 54.1705 11.54C53.9865 11.596 53.8305 11.692 53.7025 11.828C53.5825 11.956 53.5225 12.136 53.5225 12.368C53.5305 12.584 53.6025 12.76 53.7385 12.896C53.8745 13.032 54.0585 13.144 54.2905 13.232C54.5225 13.312 54.7785 13.392 55.0585 13.472C55.3145 13.536 55.5585 13.612 55.7905 13.7C56.0305 13.78 56.2465 13.888 56.4385 14.024C56.6305 14.16 56.7825 14.336 56.8945 14.552C57.0065 14.76 57.0625 15.024 57.0625 15.344C57.0625 15.712 56.9585 16.032 56.7505 16.304C56.5425 16.568 56.2665 16.772 55.9225 16.916C55.5865 17.052 55.2225 17.12 54.8305 17.12C54.3905 17.12 53.9545 17.036 53.5225 16.868C53.0985 16.7 52.7305 16.416 52.4185 16.016ZM60.5741 16.508C60.5741 16.644 60.5261 16.76 60.4301 16.856C60.3421 16.952 60.2301 17 60.0941 17C59.9501 17 59.8341 16.952 59.7461 16.856C59.6581 16.76 59.6141 16.644 59.6141 16.508V11.18C59.6141 11.044 59.6581 10.932 59.7461 10.844C59.8421 10.748 59.9581 10.7 60.0941 10.7C60.2301 10.7 60.3421 10.748 60.4301 10.844C60.5261 10.932 60.5741 11.044 60.5741 11.18V16.508ZM60.0941 9.896C59.8941 9.896 59.7461 9.856 59.6501 9.776C59.5541 9.696 59.5061 9.572 59.5061 9.404V9.236C59.5061 9.068 59.5581 8.944 59.6621 8.864C59.7661 8.784 59.9141 8.744 60.1061 8.744C60.2981 8.744 60.4421 8.784 60.5381 8.864C60.6341 8.944 60.6821 9.068 60.6821 9.236V9.404C60.6821 9.572 60.6301 9.696 60.5261 9.776C60.4301 9.856 60.2861 9.896 60.0941 9.896ZM66.2585 10.64C66.6665 10.64 67.0345 10.684 67.3625 10.772C67.6905 10.86 67.9505 10.98 68.1425 11.132C68.3345 11.284 68.4305 11.456 68.4305 11.648C68.4305 11.752 68.3945 11.852 68.3225 11.948C68.2505 12.044 68.1545 12.092 68.0345 12.092C67.9225 12.092 67.8305 12.072 67.7585 12.032C67.6945 11.992 67.6305 11.94 67.5665 11.876C67.5105 11.812 67.4305 11.756 67.3265 11.708C67.2305 11.652 67.0905 11.608 66.9065 11.576C66.7225 11.544 66.5385 11.528 66.3545 11.528C65.9145 11.528 65.5265 11.632 65.1905 11.84C64.8625 12.048 64.6025 12.328 64.4105 12.68C64.2185 13.032 64.1225 13.432 64.1225 13.88C64.1225 14.328 64.2145 14.728 64.3985 15.08C64.5825 15.432 64.8385 15.712 65.1665 15.92C65.4945 16.128 65.8745 16.232 66.3065 16.232C66.5865 16.232 66.8105 16.208 66.9785 16.16C67.1465 16.112 67.2865 16.056 67.3985 15.992C67.5425 15.912 67.6505 15.832 67.7225 15.752C67.8025 15.672 67.9065 15.632 68.0345 15.632C68.1705 15.632 68.2745 15.676 68.3465 15.764C68.4265 15.852 68.4665 15.96 68.4665 16.088C68.4665 16.232 68.3665 16.384 68.1665 16.544C67.9665 16.704 67.6945 16.84 67.3505 16.952C67.0145 17.064 66.6305 17.12 66.1985 17.12C65.5905 17.12 65.0585 16.98 64.6025 16.7C64.1465 16.412 63.7905 16.024 63.5345 15.536C63.2865 15.04 63.1625 14.488 63.1625 13.88C63.1625 13.272 63.2905 12.724 63.5465 12.236C63.8105 11.748 64.1745 11.36 64.6385 11.072C65.1025 10.784 65.6425 10.64 66.2585 10.64ZM76.0332 10.736C76.1692 10.736 76.2812 10.784 76.3692 10.88C76.4652 10.968 76.5132 11.08 76.5132 11.216V16.508C76.5132 16.644 76.4652 16.76 76.3692 16.856C76.2812 16.952 76.1692 17 76.0332 17C75.8892 17 75.7732 16.952 75.6852 16.856C75.5972 16.76 75.5532 16.644 75.5532 16.508V15.368L75.7812 15.344C75.7812 15.52 75.7212 15.712 75.6012 15.92C75.4812 16.128 75.3172 16.324 75.1092 16.508C74.9012 16.684 74.6532 16.832 74.3652 16.952C74.0852 17.064 73.7812 17.12 73.4532 17.12C72.9092 17.12 72.4212 16.98 71.9892 16.7C71.5572 16.412 71.2132 16.024 70.9572 15.536C70.7092 15.048 70.5852 14.492 70.5852 13.868C70.5852 13.236 70.7092 12.68 70.9572 12.2C71.2132 11.712 71.5572 11.332 71.9892 11.06C72.4212 10.78 72.9012 10.64 73.4292 10.64C73.7732 10.64 74.0932 10.696 74.3892 10.808C74.6852 10.92 74.9412 11.072 75.1572 11.264C75.3812 11.456 75.5532 11.668 75.6732 11.9C75.8012 12.132 75.8652 12.364 75.8652 12.596L75.5532 12.524V11.216C75.5532 11.08 75.5972 10.968 75.6852 10.88C75.7732 10.784 75.8892 10.736 76.0332 10.736ZM73.5612 16.232C73.9612 16.232 74.3132 16.128 74.6172 15.92C74.9292 15.712 75.1692 15.432 75.3372 15.08C75.5132 14.72 75.6012 14.316 75.6012 13.868C75.6012 13.428 75.5132 13.032 75.3372 12.68C75.1692 12.32 74.9292 12.04 74.6172 11.84C74.3132 11.632 73.9612 11.528 73.5612 11.528C73.1692 11.528 72.8172 11.628 72.5052 11.828C72.2012 12.028 71.9612 12.304 71.7852 12.656C71.6092 13.008 71.5212 13.412 71.5212 13.868C71.5212 14.316 71.6052 14.72 71.7732 15.08C71.9492 15.432 72.1892 15.712 72.4932 15.92C72.8052 16.128 73.1612 16.232 73.5612 16.232ZM80.5483 16.508C80.5483 16.644 80.5003 16.76 80.4043 16.856C80.3083 16.952 80.1923 17 80.0563 17C79.9203 17 79.8083 16.952 79.7203 16.856C79.6323 16.76 79.5883 16.644 79.5883 16.508V8.6C79.5883 8.464 79.6323 8.352 79.7203 8.264C79.8163 8.168 79.9323 8.12 80.0683 8.12C80.2123 8.12 80.3283 8.168 80.4163 8.264C80.5043 8.352 80.5483 8.464 80.5483 8.6V16.508Z" fill="#4B54B9"/>
<rect x="0.625" y="0.625" width="87.75" height="22.75" rx="11.375" stroke="#4B54B9" stroke-width="0.75"/>
</svg>
