<svg width="87" height="24" viewBox="0 0 87 24" fill="none" xmlns="http://www.w3.org/2000/svg">
<path d="M8.33398 18.6666V19.0922C8.09896 19.0922 7.90843 18.9017 7.90843 18.6666H8.33398ZM12.3052 18.2411C12.5402 18.2411 12.7307 18.4316 12.7307 18.6666C12.7307 18.9017 12.5402 19.0922 12.3052 19.0922V18.2411ZM7.90843 14.6955C7.90843 14.4604 8.09896 14.2699 8.33398 14.2699C8.56901 14.2699 8.75954 14.4604 8.75954 14.6955H7.90843ZM8.33398 18.2411H12.3052V19.0922H8.33398V18.2411ZM8.75954 14.6955V18.6666H7.90843V14.6955H8.75954Z" fill="#4B54B9"/>
<path d="M17.6977 13.8667C17.8142 13.6626 17.7433 13.4026 17.5392 13.2861C17.3351 13.1695 17.0751 13.2405 16.9586 13.4446L17.6977 13.8667ZM12.8654 13.4446C12.7488 13.2405 12.4889 13.1695 12.2848 13.2861C12.0807 13.4026 12.0097 13.6626 12.1263 13.8667L12.8654 13.4446ZM17.3281 13.6556C16.9586 13.4446 16.9587 13.4444 16.9588 13.4443C16.9588 13.4442 16.9589 13.4441 16.9589 13.444C16.959 13.4438 16.9591 13.4436 16.9592 13.4435C16.9594 13.4432 16.9595 13.443 16.9596 13.4428C16.9597 13.4426 16.9597 13.4426 16.9595 13.443C16.9591 13.4437 16.958 13.4455 16.9561 13.4485C16.9525 13.4545 16.946 13.4649 16.9366 13.4792C16.9178 13.5076 16.8878 13.5511 16.8464 13.6045C16.7631 13.7118 16.636 13.8566 16.4643 14.0015C16.1225 14.2897 15.6123 14.5724 14.912 14.5724L14.912 15.4235C15.8613 15.4235 16.5591 15.035 17.013 14.6521C17.2392 14.4613 17.4068 14.2706 17.5188 14.1262C17.575 14.0538 17.6177 13.9924 17.6473 13.9474C17.6621 13.9249 17.6737 13.9065 17.6821 13.8928C17.6863 13.886 17.6897 13.8803 17.6922 13.876C17.6935 13.8738 17.6946 13.8719 17.6955 13.8703C17.696 13.8696 17.6964 13.8689 17.6968 13.8682C17.6969 13.8679 17.6971 13.8677 17.6972 13.8674C17.6973 13.8673 17.6974 13.8671 17.6975 13.867C17.6976 13.8668 17.6977 13.8667 17.3281 13.6556ZM14.912 14.5724C14.2117 14.5724 13.7014 14.2897 13.3597 14.0015C13.188 13.8566 13.0608 13.7118 12.9776 13.6045C12.9361 13.5511 12.9061 13.5076 12.8873 13.4792C12.878 13.4649 12.8715 13.4545 12.8678 13.4485C12.866 13.4455 12.8648 13.4437 12.8644 13.443C12.8642 13.4426 12.8642 13.4426 12.8644 13.4428C12.8644 13.443 12.8646 13.4432 12.8647 13.4435C12.8648 13.4436 12.8649 13.4438 12.865 13.444C12.8651 13.4441 12.8651 13.4442 12.8652 13.4443C12.8653 13.4444 12.8654 13.4446 12.4958 13.6556C12.1263 13.8667 12.1264 13.8668 12.1265 13.867C12.1265 13.8671 12.1266 13.8673 12.1267 13.8674C12.1268 13.8677 12.127 13.8679 12.1272 13.8682C12.1275 13.8689 12.1279 13.8696 12.1284 13.8703C12.1293 13.8719 12.1304 13.8738 12.1317 13.876C12.1343 13.8803 12.1377 13.886 12.1419 13.8928C12.1502 13.9065 12.1618 13.9249 12.1766 13.9474C12.2062 13.9924 12.249 14.0538 12.3051 14.1262C12.4172 14.2706 12.5848 14.4613 12.8109 14.6521C13.2649 15.035 13.9627 15.4235 14.912 15.4235L14.912 14.5724Z" fill="#4B54B9"/>
<circle cx="12.7301" cy="10.267" r="0.638334" fill="#4B54B9"/>
<circle r="0.638334" transform="matrix(-1 0 0 1 17.0257 10.267)" fill="#4B54B9"/>
<path d="M8.33398 5.33325V4.9077C8.09896 4.9077 7.90843 5.09822 7.90843 5.33325H8.33398ZM12.3052 5.75881C12.5402 5.75881 12.7307 5.56828 12.7307 5.33325C12.7307 5.09822 12.5402 4.9077 12.3052 4.9077V5.75881ZM7.90843 9.30442C7.90843 9.53945 8.09896 9.72998 8.33398 9.72998C8.56901 9.72998 8.75954 9.53945 8.75954 9.30442H7.90843ZM8.33398 5.75881H12.3052V4.9077H8.33398V5.75881ZM8.75954 9.30442V5.33325H7.90843V9.30442H8.75954Z" fill="#4B54B9"/>
<path d="M21.668 5.33325V4.9077C21.903 4.9077 22.0935 5.09822 22.0935 5.33325H21.668ZM17.6968 5.75881C17.4618 5.75881 17.2712 5.56828 17.2712 5.33325C17.2712 5.09822 17.4618 4.9077 17.6968 4.9077V5.75881ZM22.0935 9.30442C22.0935 9.53945 21.903 9.72998 21.668 9.72998C21.4329 9.72998 21.2424 9.53945 21.2424 9.30442H22.0935ZM21.668 5.75881H17.6968V4.9077H21.668V5.75881ZM21.2424 9.30442V5.33325H22.0935V9.30442H21.2424Z" fill="#4B54B9"/>
<path d="M21.668 18.6666V19.0922C21.903 19.0922 22.0935 18.9017 22.0935 18.6666H21.668ZM17.6968 18.2411C17.4618 18.2411 17.2712 18.4316 17.2712 18.6666C17.2712 18.9017 17.4618 19.0922 17.6968 19.0922V18.2411ZM22.0935 14.6955C22.0935 14.4604 21.903 14.2699 21.668 14.2699C21.4329 14.2699 21.2424 14.4604 21.2424 14.6955H22.0935ZM21.668 18.2411H17.6968V19.0922H21.668V18.2411ZM21.2424 14.6955V18.6666H22.0935V14.6955H21.2424Z" fill="#4B54B9"/>
<path d="M30.5356 16.508C30.5356 16.644 30.4836 16.76 30.3796 16.856C30.2836 16.952 30.1676 17 30.0316 17C29.8796 17 29.7596 16.952 29.6716 16.856C29.5836 16.76 29.5396 16.644 29.5396 16.508V9.092C29.5396 8.948 29.5876 8.832 29.6836 8.744C29.7796 8.648 29.8996 8.6 30.0436 8.6C30.1796 8.6 30.2956 8.648 30.3916 8.744C30.4876 8.832 30.5356 8.948 30.5356 9.092V16.508ZM38.7891 8.12C38.9251 8.12 39.0371 8.168 39.1251 8.264C39.2211 8.352 39.2691 8.464 39.2691 8.6V16.508C39.2691 16.644 39.2211 16.76 39.1251 16.856C39.0371 16.952 38.9251 17 38.7891 17C38.6451 17 38.5291 16.952 38.4411 16.856C38.3531 16.76 38.3091 16.644 38.3091 16.508V15.368L38.5371 15.284C38.5371 15.476 38.4771 15.68 38.3571 15.896C38.2371 16.104 38.0731 16.3 37.8651 16.484C37.6571 16.668 37.4091 16.82 37.1211 16.94C36.8411 17.06 36.5371 17.12 36.2091 17.12C35.6731 17.12 35.1851 16.98 34.7451 16.7C34.3131 16.42 33.9691 16.036 33.7131 15.548C33.4651 15.06 33.3411 14.504 33.3411 13.88C33.3411 13.248 33.4651 12.688 33.7131 12.2C33.9691 11.712 34.3131 11.332 34.7451 11.06C35.1771 10.78 35.6571 10.64 36.1851 10.64C36.5211 10.64 36.8371 10.696 37.1331 10.808C37.4291 10.92 37.6851 11.072 37.9011 11.264C38.1251 11.456 38.3011 11.668 38.4291 11.9C38.5571 12.132 38.6211 12.364 38.6211 12.596L38.3091 12.524V8.6C38.3091 8.464 38.3531 8.352 38.4411 8.264C38.5291 8.168 38.6451 8.12 38.7891 8.12ZM36.3171 16.232C36.7171 16.232 37.0691 16.132 37.3731 15.932C37.6851 15.724 37.9251 15.444 38.0931 15.092C38.2691 14.732 38.3571 14.328 38.3571 13.88C38.3571 13.424 38.2691 13.02 38.0931 12.668C37.9251 12.316 37.6851 12.04 37.3731 11.84C37.0691 11.632 36.7171 11.528 36.3171 11.528C35.9251 11.528 35.5731 11.632 35.2611 11.84C34.9571 12.04 34.7171 12.316 34.5411 12.668C34.3651 13.02 34.2771 13.424 34.2771 13.88C34.2771 14.32 34.3651 14.72 34.5411 15.08C34.7171 15.432 34.9571 15.712 35.2611 15.92C35.5731 16.128 35.9251 16.232 36.3171 16.232ZM45.1162 17.12C44.4762 17.12 43.9162 16.984 43.4362 16.712C42.9562 16.44 42.5802 16.068 42.3082 15.596C42.0442 15.116 41.9122 14.564 41.9122 13.94C41.9122 13.244 42.0482 12.652 42.3202 12.164C42.6002 11.668 42.9602 11.292 43.4002 11.036C43.8482 10.772 44.3202 10.64 44.8162 10.64C45.1842 10.64 45.5402 10.708 45.8842 10.844C46.2282 10.98 46.5322 11.18 46.7962 11.444C47.0602 11.7 47.2722 12.012 47.4322 12.38C47.5922 12.74 47.6762 13.144 47.6842 13.592C47.6842 13.72 47.6362 13.828 47.5402 13.916C47.4442 14.004 47.3322 14.048 47.2042 14.048H42.4642L42.2482 13.22H46.8682L46.6762 13.388V13.124C46.6442 12.796 46.5322 12.516 46.3402 12.284C46.1562 12.044 45.9282 11.86 45.6562 11.732C45.3922 11.604 45.1122 11.54 44.8162 11.54C44.5762 11.54 44.3362 11.584 44.0962 11.672C43.8642 11.752 43.6522 11.888 43.4602 12.08C43.2762 12.264 43.1242 12.504 43.0042 12.8C42.8922 13.096 42.8362 13.452 42.8362 13.868C42.8362 14.332 42.9282 14.74 43.1122 15.092C43.3042 15.444 43.5682 15.724 43.9042 15.932C44.2402 16.132 44.6322 16.232 45.0802 16.232C45.3602 16.232 45.6042 16.196 45.8122 16.124C46.0202 16.052 46.2002 15.964 46.3522 15.86C46.5042 15.748 46.6322 15.636 46.7362 15.524C46.8402 15.452 46.9402 15.416 47.0362 15.416C47.1562 15.416 47.2522 15.456 47.3242 15.536C47.4042 15.616 47.4442 15.712 47.4442 15.824C47.4442 15.96 47.3802 16.08 47.2522 16.184C47.0282 16.432 46.7242 16.652 46.3402 16.844C45.9562 17.028 45.5482 17.12 45.1162 17.12ZM53.4111 10.64C53.9551 10.64 54.3831 10.752 54.6951 10.976C55.0071 11.2 55.2271 11.5 55.3551 11.876C55.4911 12.252 55.5591 12.672 55.5591 13.136V16.508C55.5591 16.644 55.5111 16.76 55.4151 16.856C55.3271 16.952 55.2151 17 55.0791 17C54.9431 17 54.8271 16.952 54.7311 16.856C54.6431 16.76 54.5991 16.644 54.5991 16.508V13.16C54.5991 12.856 54.5511 12.584 54.4551 12.344C54.3671 12.096 54.2151 11.9 53.9991 11.756C53.7911 11.604 53.5031 11.528 53.1351 11.528C52.7991 11.528 52.4911 11.604 52.2111 11.756C51.9311 11.9 51.7071 12.096 51.5391 12.344C51.3711 12.584 51.2871 12.856 51.2871 13.16V16.508C51.2871 16.644 51.2391 16.76 51.1431 16.856C51.0551 16.952 50.9431 17 50.8071 17C50.6711 17 50.5551 16.952 50.4591 16.856C50.3711 16.76 50.3271 16.644 50.3271 16.508V11.276C50.3271 11.14 50.3711 11.028 50.4591 10.94C50.5551 10.844 50.6711 10.796 50.8071 10.796C50.9511 10.796 51.0671 10.844 51.1551 10.94C51.2431 11.028 51.2871 11.14 51.2871 11.276V12.128L51.0471 12.392C51.0871 12.184 51.1791 11.976 51.3231 11.768C51.4671 11.552 51.6471 11.36 51.8631 11.192C52.0791 11.024 52.3191 10.892 52.5831 10.796C52.8471 10.692 53.1231 10.64 53.4111 10.64ZM58.2949 10.832H61.1149C61.2429 10.832 61.3469 10.876 61.4269 10.964C61.5149 11.052 61.5589 11.156 61.5589 11.276C61.5589 11.404 61.5149 11.512 61.4269 11.6C61.3469 11.68 61.2429 11.72 61.1149 11.72H58.2949C58.1749 11.72 58.0709 11.676 57.9829 11.588C57.8949 11.5 57.8509 11.392 57.8509 11.264C57.8509 11.144 57.8949 11.044 57.9829 10.964C58.0709 10.876 58.1749 10.832 58.2949 10.832ZM59.5549 9.2C59.6909 9.2 59.8029 9.248 59.8909 9.344C59.9789 9.432 60.0229 9.544 60.0229 9.68V15.476C60.0229 15.668 60.0509 15.812 60.1069 15.908C60.1629 16.004 60.2349 16.072 60.3229 16.112C60.4189 16.144 60.5109 16.16 60.5989 16.16C60.6789 16.16 60.7469 16.148 60.8029 16.124C60.8669 16.092 60.9389 16.076 61.0189 16.076C61.0989 16.076 61.1709 16.116 61.2349 16.196C61.3069 16.268 61.3429 16.364 61.3429 16.484C61.3429 16.628 61.2589 16.752 61.0909 16.856C60.9229 16.952 60.7349 17 60.5269 17C60.4149 17 60.2749 16.992 60.1069 16.976C59.9469 16.96 59.7869 16.908 59.6269 16.82C59.4669 16.732 59.3309 16.588 59.2189 16.388C59.1149 16.18 59.0629 15.892 59.0629 15.524V9.68C59.0629 9.544 59.1109 9.432 59.2069 9.344C59.3029 9.248 59.4189 9.2 59.5549 9.2ZM65.0182 16.508C65.0182 16.644 64.9702 16.76 64.8742 16.856C64.7862 16.952 64.6742 17 64.5382 17C64.3942 17 64.2782 16.952 64.1902 16.856C64.1022 16.76 64.0582 16.644 64.0582 16.508V11.18C64.0582 11.044 64.1022 10.932 64.1902 10.844C64.2862 10.748 64.4022 10.7 64.5382 10.7C64.6742 10.7 64.7862 10.748 64.8742 10.844C64.9702 10.932 65.0182 11.044 65.0182 11.18V16.508ZM64.5382 9.896C64.3382 9.896 64.1902 9.856 64.0942 9.776C63.9982 9.696 63.9502 9.572 63.9502 9.404V9.236C63.9502 9.068 64.0022 8.944 64.1062 8.864C64.2102 8.784 64.3582 8.744 64.5502 8.744C64.7422 8.744 64.8862 8.784 64.9822 8.864C65.0782 8.944 65.1262 9.068 65.1262 9.236V9.404C65.1262 9.572 65.0742 9.696 64.9702 9.776C64.8742 9.856 64.7302 9.896 64.5382 9.896ZM67.7027 10.832H70.5227C70.6507 10.832 70.7547 10.876 70.8347 10.964C70.9227 11.052 70.9667 11.156 70.9667 11.276C70.9667 11.404 70.9227 11.512 70.8347 11.6C70.7547 11.68 70.6507 11.72 70.5227 11.72H67.7027C67.5827 11.72 67.4787 11.676 67.3907 11.588C67.3027 11.5 67.2587 11.392 67.2587 11.264C67.2587 11.144 67.3027 11.044 67.3907 10.964C67.4787 10.876 67.5827 10.832 67.7027 10.832ZM68.9627 9.2C69.0987 9.2 69.2107 9.248 69.2987 9.344C69.3867 9.432 69.4307 9.544 69.4307 9.68V15.476C69.4307 15.668 69.4587 15.812 69.5147 15.908C69.5707 16.004 69.6427 16.072 69.7307 16.112C69.8267 16.144 69.9187 16.16 70.0067 16.16C70.0867 16.16 70.1547 16.148 70.2107 16.124C70.2747 16.092 70.3467 16.076 70.4267 16.076C70.5067 16.076 70.5787 16.116 70.6427 16.196C70.7147 16.268 70.7507 16.364 70.7507 16.484C70.7507 16.628 70.6667 16.752 70.4987 16.856C70.3307 16.952 70.1427 17 69.9347 17C69.8227 17 69.6827 16.992 69.5147 16.976C69.3547 16.96 69.1947 16.908 69.0347 16.82C68.8747 16.732 68.7387 16.588 68.6267 16.388C68.5227 16.18 68.4707 15.892 68.4707 15.524V9.68C68.4707 9.544 68.5187 9.432 68.6147 9.344C68.7107 9.248 68.8267 9.2 68.9627 9.2ZM78.1461 10.7C78.2821 10.7 78.3941 10.748 78.4821 10.844C78.5781 10.932 78.6261 11.044 78.6261 11.18V16.412C78.6261 17.084 78.4941 17.64 78.2301 18.08C77.9661 18.528 77.6101 18.86 77.1621 19.076C76.7221 19.292 76.2221 19.4 75.6621 19.4C75.3501 19.4 75.0501 19.368 74.7621 19.304C74.4741 19.24 74.2381 19.156 74.0541 19.052C73.9021 18.98 73.7941 18.888 73.7301 18.776C73.6741 18.672 73.6661 18.56 73.7061 18.44C73.7621 18.296 73.8421 18.196 73.9461 18.14C74.0581 18.084 74.1741 18.084 74.2941 18.14C74.4221 18.196 74.6061 18.272 74.8461 18.368C75.0941 18.472 75.3701 18.524 75.6741 18.524C76.0901 18.524 76.4461 18.444 76.7421 18.284C77.0381 18.124 77.2661 17.888 77.4261 17.576C77.5861 17.272 77.6661 16.892 77.6661 16.436V15.584L77.8101 15.884C77.6821 16.132 77.5101 16.348 77.2941 16.532C77.0781 16.716 76.8301 16.86 76.5501 16.964C76.2701 17.068 75.9621 17.12 75.6261 17.12C75.1701 17.12 74.7821 17.024 74.4621 16.832C74.1501 16.632 73.9101 16.36 73.7421 16.016C73.5821 15.664 73.5021 15.26 73.5021 14.804V11.18C73.5021 11.044 73.5461 10.932 73.6341 10.844C73.7301 10.748 73.8461 10.7 73.9821 10.7C74.1261 10.7 74.2421 10.748 74.3301 10.844C74.4181 10.932 74.4621 11.044 74.4621 11.18V14.588C74.4621 15.132 74.5821 15.544 74.8221 15.824C75.0621 16.096 75.4341 16.232 75.9381 16.232C76.2581 16.232 76.5461 16.16 76.8021 16.016C77.0661 15.872 77.2741 15.676 77.4261 15.428C77.5861 15.172 77.6661 14.892 77.6661 14.588V11.18C77.6661 11.044 77.7101 10.932 77.7981 10.844C77.8861 10.748 78.0021 10.7 78.1461 10.7Z" fill="#4B54B9"/>
<rect x="0.625" y="0.625" width="85.75" height="22.75" rx="11.375" stroke="#4B54B9" stroke-width="0.75"/>
</svg>
