<svg width="73" height="24" viewBox="0 0 73 24" fill="none" xmlns="http://www.w3.org/2000/svg">
<mask id="path-2-inside-1_4048_32228" fill="white">
<path d="M16.2494 18.6667H19.5827C20.0429 18.6667 20.416 18.2936 20.416 17.8333V13.1394C20.416 12.7247 20.721 12.3731 21.1315 12.3145L21.5683 12.2521C22.2682 12.1521 22.5335 11.2807 22.0079 10.8077L15.5569 5.00173C15.24 4.7165 14.7589 4.71649 14.442 5.00172L7.99082 10.8077C7.46527 11.2807 7.73049 12.1521 8.43044 12.2521L8.8672 12.3145C9.27774 12.3731 9.58268 12.7247 9.58268 13.1394V17.8333C9.58268 18.2936 9.95578 18.6667 10.416 18.6667H13.8193H16.2494Z"/>
</mask>
<path d="M7.99082 10.8077L7.43336 10.1883H7.43336L7.99082 10.8077ZM14.442 5.00172L14.9994 5.62114L14.9994 5.62113L14.442 5.00172ZM15.5569 5.00173L14.9994 5.62113L14.9994 5.62114L15.5569 5.00173ZM22.0079 10.8077L21.4504 11.4271L22.0079 10.8077ZM8.8672 12.3145L8.98505 11.4895H8.98505L8.8672 12.3145ZM8.43044 12.2521L8.31259 13.077H8.31259L8.43044 12.2521ZM21.5683 12.2521L21.6861 13.077L21.5683 12.2521ZM21.1315 12.3145L21.2493 13.1394L21.1315 12.3145ZM19.5827 17.8333H16.2494V19.5H19.5827V17.8333ZM13.8193 17.8333H10.416V19.5H13.8193V17.8333ZM8.54829 11.4271L14.9994 5.62114L13.8845 4.3823L7.43336 10.1883L8.54829 11.4271ZM14.9994 5.62114L21.4504 11.4271L22.5654 10.1883L16.1144 4.38232L14.9994 5.62114ZM10.416 17.8333V13.1394H8.74935V17.8333H10.416ZM8.98505 11.4895L8.54829 11.4271L8.31259 13.077L8.74935 13.1394L8.98505 11.4895ZM21.4504 11.4271L21.0136 11.4895L21.2493 13.1394L21.6861 13.077L21.4504 11.4271ZM19.5827 13.1394V17.8333H21.2493V13.1394H19.5827ZM13.8193 19.5H16.2494V17.8333H13.8193V19.5ZM21.0136 11.4895C20.1926 11.6068 19.5827 12.31 19.5827 13.1394H21.2493H21.2493L21.0136 11.4895ZM10.416 13.1394C10.416 12.31 9.80613 11.6068 8.98505 11.4895L8.74935 13.1394H8.74935H10.416ZM10.416 17.8333H10.416H8.74935C8.74935 18.7538 9.49554 19.5 10.416 19.5V17.8333ZM19.5827 19.5C20.5032 19.5 21.2493 18.7538 21.2493 17.8333H19.5827H19.5827V19.5ZM14.9994 5.62113L14.9994 5.62113L16.1144 4.38232C15.4806 3.81186 14.5184 3.81185 13.8845 4.38231L14.9994 5.62113ZM21.4504 11.4271V11.4271L21.6861 13.077C23.086 12.877 23.6165 11.1343 22.5654 10.1883L21.4504 11.4271ZM7.43336 10.1883C6.38225 11.1343 6.91268 12.877 8.31259 13.077L8.54829 11.4271H8.54829L7.43336 10.1883Z" fill="#4B54B9" mask="url(#path-2-inside-1_4048_32228)"/>
<mask id="path-4-inside-2_4048_32228" fill="white">
<path d="M12.916 14.0833C12.916 12.9327 13.8488 12 14.9993 12C16.1499 12 17.0827 12.9327 17.0827 14.0833V18.6667H14.9993H12.916V14.0833Z"/>
</mask>
<path d="M17.0827 18.6667V19.5H17.916V18.6667H17.0827ZM12.916 18.6667H12.0827V19.5H12.916V18.6667ZM16.2493 14.0833V18.6667H17.916V14.0833H16.2493ZM13.7493 18.6667V14.0833H12.0827V18.6667H13.7493ZM17.0827 17.8333H14.9993V19.5H17.0827V17.8333ZM14.9993 17.8333H12.916V19.5H14.9993V17.8333ZM17.916 14.0833C17.916 12.4725 16.6102 11.1667 14.9993 11.1667V12.8333C15.6897 12.8333 16.2493 13.393 16.2493 14.0833H17.916ZM13.7493 14.0833C13.7493 13.393 14.309 12.8333 14.9993 12.8333V11.1667C13.3885 11.1667 12.0827 12.4725 12.0827 14.0833H13.7493Z" fill="#4B54B9" mask="url(#path-4-inside-2_4048_32228)"/>
<path d="M29.8381 8.6C29.9741 8.6 30.0901 8.648 30.1861 8.744C30.2821 8.832 30.3301 8.948 30.3301 9.092V16.508C30.3301 16.644 30.2781 16.76 30.1741 16.856C30.0781 16.952 29.9621 17 29.8261 17C29.6741 17 29.5541 16.952 29.4661 16.856C29.3781 16.76 29.3341 16.644 29.3341 16.508V9.092C29.3341 8.948 29.3821 8.832 29.4781 8.744C29.5741 8.648 29.6941 8.6 29.8381 8.6ZM35.3701 8.6C35.5141 8.6 35.6301 8.648 35.7181 8.744C35.8141 8.832 35.8621 8.948 35.8621 9.092V16.508C35.8621 16.644 35.8141 16.76 35.7181 16.856C35.6221 16.952 35.5021 17 35.3581 17C35.2221 17 35.1061 16.952 35.0101 16.856C34.9141 16.76 34.8661 16.644 34.8661 16.508V9.092C34.8661 8.948 34.9141 8.832 35.0101 8.744C35.1141 8.648 35.2341 8.6 35.3701 8.6ZM29.7901 12.26H35.3821L35.3701 13.196H29.7541L29.7901 12.26ZM44.8948 13.88C44.8948 14.504 44.7548 15.06 44.4748 15.548C44.2028 16.036 43.8308 16.42 43.3588 16.7C42.8948 16.98 42.3708 17.12 41.7868 17.12C41.2028 17.12 40.6748 16.98 40.2028 16.7C39.7308 16.42 39.3548 16.036 39.0748 15.548C38.8028 15.06 38.6668 14.504 38.6668 13.88C38.6668 13.256 38.8028 12.7 39.0748 12.212C39.3548 11.724 39.7308 11.34 40.2028 11.06C40.6748 10.78 41.2028 10.64 41.7868 10.64C42.3708 10.64 42.8948 10.78 43.3588 11.06C43.8308 11.34 44.2028 11.724 44.4748 12.212C44.7548 12.7 44.8948 13.256 44.8948 13.88ZM43.9348 13.88C43.9348 13.416 43.8388 13.008 43.6468 12.656C43.4628 12.304 43.2068 12.028 42.8788 11.828C42.5588 11.628 42.1948 11.528 41.7868 11.528C41.3788 11.528 41.0108 11.628 40.6828 11.828C40.3628 12.028 40.1068 12.304 39.9148 12.656C39.7228 13.008 39.6268 13.416 39.6268 13.88C39.6268 14.336 39.7228 14.74 39.9148 15.092C40.1068 15.444 40.3628 15.724 40.6828 15.932C41.0108 16.132 41.3788 16.232 41.7868 16.232C42.1948 16.232 42.5588 16.132 42.8788 15.932C43.2068 15.724 43.4628 15.444 43.6468 15.092C43.8388 14.74 43.9348 14.336 43.9348 13.88ZM50.5028 10.7C51.0468 10.7 51.4868 10.84 51.8228 11.12C52.1668 11.392 52.3948 11.78 52.5068 12.284H52.3268L52.4108 12.068C52.5068 11.844 52.6708 11.628 52.9028 11.42C53.1348 11.212 53.4028 11.04 53.7068 10.904C54.0108 10.768 54.3268 10.7 54.6548 10.7C55.1828 10.7 55.5988 10.816 55.9028 11.048C56.2068 11.272 56.4228 11.576 56.5508 11.96C56.6868 12.336 56.7548 12.76 56.7548 13.232V16.508C56.7548 16.644 56.7068 16.76 56.6108 16.856C56.5228 16.952 56.4108 17 56.2748 17C56.1308 17 56.0148 16.952 55.9268 16.856C55.8388 16.76 55.7948 16.644 55.7948 16.508V13.256C55.7948 12.944 55.7468 12.664 55.6508 12.416C55.5628 12.16 55.4148 11.96 55.2068 11.816C55.0068 11.664 54.7308 11.588 54.3788 11.588C54.0508 11.588 53.7508 11.664 53.4788 11.816C53.2068 11.96 52.9908 12.16 52.8308 12.416C52.6708 12.664 52.5908 12.944 52.5908 13.256V16.508C52.5908 16.644 52.5468 16.76 52.4588 16.856C52.3708 16.952 52.2548 17 52.1108 17C51.9748 17 51.8588 16.952 51.7628 16.856C51.6748 16.76 51.6308 16.644 51.6308 16.508V13.22C51.6308 12.916 51.5868 12.644 51.4988 12.404C51.4188 12.156 51.2788 11.96 51.0788 11.816C50.8788 11.664 50.6028 11.588 50.2508 11.588C49.9308 11.588 49.6388 11.664 49.3748 11.816C49.1108 11.96 48.8988 12.156 48.7388 12.404C48.5788 12.644 48.4988 12.916 48.4988 13.22V16.508C48.4988 16.644 48.4508 16.76 48.3548 16.856C48.2668 16.952 48.1548 17 48.0188 17C47.8828 17 47.7668 16.952 47.6708 16.856C47.5828 16.76 47.5388 16.644 47.5388 16.508V11.276C47.5388 11.14 47.5828 11.028 47.6708 10.94C47.7668 10.844 47.8828 10.796 48.0188 10.796C48.1628 10.796 48.2788 10.844 48.3668 10.94C48.4548 11.028 48.4988 11.14 48.4988 11.276V12.188L48.2348 12.476C48.2668 12.268 48.3468 12.06 48.4748 11.852C48.6108 11.644 48.7828 11.452 48.9908 11.276C49.1988 11.1 49.4308 10.96 49.6868 10.856C49.9428 10.752 50.2148 10.7 50.5028 10.7ZM62.599 17.12C61.959 17.12 61.399 16.984 60.919 16.712C60.439 16.44 60.063 16.068 59.791 15.596C59.527 15.116 59.395 14.564 59.395 13.94C59.395 13.244 59.531 12.652 59.803 12.164C60.083 11.668 60.443 11.292 60.883 11.036C61.331 10.772 61.803 10.64 62.299 10.64C62.667 10.64 63.023 10.708 63.367 10.844C63.711 10.98 64.015 11.18 64.279 11.444C64.543 11.7 64.755 12.012 64.915 12.38C65.075 12.74 65.159 13.144 65.167 13.592C65.167 13.72 65.119 13.828 65.023 13.916C64.927 14.004 64.815 14.048 64.687 14.048H59.947L59.731 13.22H64.351L64.159 13.388V13.124C64.127 12.796 64.015 12.516 63.823 12.284C63.639 12.044 63.411 11.86 63.139 11.732C62.875 11.604 62.595 11.54 62.299 11.54C62.059 11.54 61.819 11.584 61.579 11.672C61.347 11.752 61.135 11.888 60.943 12.08C60.759 12.264 60.607 12.504 60.487 12.8C60.375 13.096 60.319 13.452 60.319 13.868C60.319 14.332 60.411 14.74 60.595 15.092C60.787 15.444 61.051 15.724 61.387 15.932C61.723 16.132 62.115 16.232 62.563 16.232C62.843 16.232 63.087 16.196 63.295 16.124C63.503 16.052 63.683 15.964 63.835 15.86C63.987 15.748 64.115 15.636 64.219 15.524C64.323 15.452 64.423 15.416 64.519 15.416C64.639 15.416 64.735 15.456 64.807 15.536C64.887 15.616 64.927 15.712 64.927 15.824C64.927 15.96 64.863 16.08 64.735 16.184C64.511 16.432 64.207 16.652 63.823 16.844C63.439 17.028 63.031 17.12 62.599 17.12Z" fill="#4B54B9"/>
<rect x="0.625" y="0.625" width="71.75" height="22.75" rx="11.375" stroke="#4B54B9" stroke-width="0.75"/>
</svg>
