<svg width="99" height="24" viewBox="0 0 99 24" fill="none" xmlns="http://www.w3.org/2000/svg">
<path d="M14.9957 5.48264L15.4123 5.48562C15.4127 5.43094 15.4023 5.37672 15.3818 5.32605L14.9957 5.48264ZM14.8391 17.7929L14.4231 17.7687L14.8391 17.7929ZM12.8814 19.3447L12.8837 18.928L12.8814 19.3447ZM11.0804 18.1291L11.4172 17.8838C11.3572 17.8015 11.2691 17.744 11.1696 17.7221L11.0804 18.1291ZM9.80131 17.405L10.1574 17.1886L9.80131 17.405ZM9.6186 15.8533L10.0304 15.9168C10.0609 15.719 9.94654 15.5276 9.75804 15.4606L9.6186 15.8533ZM8.44402 14.6895L8.83701 14.551L8.44402 14.6895ZM8.33963 11.5602L7.92586 11.5111L8.33963 11.5602ZM9.09655 10.474L9.22248 10.8712C9.33925 10.8342 9.43381 10.7476 9.48102 10.6346C9.52824 10.5216 9.52332 10.3935 9.46758 10.2844L9.09655 10.474ZM9.30537 8.43091L9.61296 8.71198L9.30537 8.43091ZM10.6888 6.31024L10.3759 6.03513L10.6888 6.31024ZM13.8472 4.52575L13.9084 4.11361L13.8472 4.52575ZM9.6186 13.6292L9.74634 13.2326L9.6186 13.6292ZM10.472 14.123C10.7019 14.113 10.8802 13.9186 10.8702 13.6887C10.8602 13.4587 10.6657 13.2805 10.4358 13.2905L10.472 14.123ZM11.9678 8.32747L11.6907 8.63859L11.9678 8.32747ZM12.1536 9.92119C12.1768 10.1501 12.3813 10.3169 12.6102 10.2937C12.8391 10.2705 13.0059 10.0661 12.9827 9.83718L12.1536 9.92119ZM12.2289 5.89645L12.3253 5.4911L12.2289 5.89645ZM12.5158 6.69449C12.5772 6.91626 12.8067 7.04626 13.0285 6.98485C13.2503 6.92343 13.3803 6.69387 13.3189 6.47209L12.5158 6.69449ZM14.9722 8.40506L15.3889 8.40867L14.9722 8.40506ZM13.6523 7.47616C13.4249 7.51172 13.2695 7.72486 13.305 7.95222C13.3406 8.17957 13.5537 8.33504 13.7811 8.29948L13.6523 7.47616ZM11.5032 10.9853C11.2857 10.9103 11.0485 11.0259 10.9736 11.2434C10.8986 11.461 11.0142 11.6981 11.2317 11.7731L11.5032 10.9853ZM13.7792 11.1538C13.9403 10.9895 13.9378 10.7257 13.7736 10.5645C13.6093 10.4034 13.3455 10.4059 13.1844 10.5701L13.7792 11.1538ZM11.6673 12.4166L11.3351 12.1651L11.6673 12.4166ZM11.0982 12.3824C10.9226 12.5311 10.9008 12.7941 11.0495 12.9697C11.1982 13.1453 11.4611 13.1671 11.6367 13.0184L11.0982 12.3824ZM11.1224 15.2319C10.8935 15.2086 10.689 15.3754 10.6658 15.6044C10.6426 15.8333 10.8094 16.0377 11.0383 16.0609L11.1224 15.2319ZM12.3855 16.1119L12.6734 15.8108L12.3855 16.1119ZM12.5084 17.0798C12.5525 17.3057 12.7713 17.453 12.9972 17.4089C13.223 17.3648 13.3704 17.146 13.3263 16.9201L12.5084 17.0798ZM11.9417 14.2499L12.2586 14.5204L11.9417 14.2499ZM12.4008 14.3539C12.5503 14.1789 12.5296 13.9159 12.3546 13.7664C12.1796 13.617 11.9166 13.6377 11.7671 13.8127L12.4008 14.3539ZM14.4231 17.7687C14.4052 18.076 14.2318 18.3613 13.9389 18.5803C13.6442 18.8006 13.2564 18.9301 12.8837 18.928L12.879 19.7613C13.4346 19.7645 13.999 19.5758 14.4378 19.2478C14.8783 18.9185 15.2196 18.4253 15.2551 17.8172L14.4231 17.7687ZM12.8837 18.928C12.5879 18.9263 12.2381 18.7176 11.9155 18.4259C11.7645 18.2894 11.6381 18.1517 11.5493 18.0477C11.5051 17.996 11.4709 17.9534 11.4482 17.9244C11.4369 17.91 11.4285 17.899 11.4233 17.892C11.4206 17.8885 11.4188 17.886 11.4178 17.8847C11.4173 17.884 11.4169 17.8835 11.4168 17.8834C11.4168 17.8833 11.4168 17.8833 11.4169 17.8834C11.4169 17.8835 11.4169 17.8835 11.417 17.8836C11.417 17.8836 11.417 17.8837 11.4171 17.8837C11.4171 17.8838 11.4172 17.8838 11.0804 18.1291C10.7436 18.3744 10.7436 18.3745 10.7437 18.3746C10.7437 18.3747 10.7438 18.3748 10.7438 18.3748C10.7439 18.375 10.7441 18.3751 10.7442 18.3753C10.7445 18.3757 10.7448 18.3761 10.7452 18.3766C10.7459 18.3777 10.7469 18.379 10.7481 18.3806C10.7504 18.3838 10.7537 18.3881 10.7577 18.3935C10.7658 18.4043 10.7773 18.4193 10.7919 18.4379C10.821 18.4752 10.8628 18.5271 10.9157 18.589C11.0208 18.7121 11.1722 18.8773 11.3566 19.044C11.7046 19.3587 12.2553 19.7578 12.879 19.7613L12.8837 18.928ZM11.0804 18.1291C11.1696 17.7221 11.1697 17.7222 11.1697 17.7222C11.1698 17.7222 11.1698 17.7222 11.1699 17.7222C11.17 17.7222 11.17 17.7222 11.1701 17.7223C11.1702 17.7223 11.1703 17.7223 11.1703 17.7223C11.1703 17.7223 11.1701 17.7223 11.1696 17.7222C11.1688 17.722 11.167 17.7216 11.1645 17.721C11.1594 17.7198 11.151 17.7178 11.1397 17.7149C11.1171 17.7092 11.0832 17.7003 11.041 17.688C10.9559 17.6632 10.8404 17.6256 10.7178 17.5745C10.4488 17.4624 10.2394 17.3235 10.1574 17.1886L9.44524 17.6214C9.67438 17.9984 10.1044 18.2217 10.3972 18.3437C10.5555 18.4096 10.7014 18.457 10.8076 18.488C10.861 18.5036 10.9051 18.5152 10.9366 18.5231C10.9524 18.5271 10.9651 18.5302 10.9743 18.5323C10.979 18.5334 10.9827 18.5343 10.9855 18.5349C10.9869 18.5352 10.9881 18.5355 10.989 18.5357C10.9895 18.5358 10.9899 18.5359 10.9903 18.536C10.9904 18.536 10.9906 18.536 10.9907 18.5361C10.9908 18.5361 10.9909 18.5361 10.991 18.5361C10.991 18.5361 10.9911 18.5362 11.0804 18.1291ZM10.1574 17.1886C10.0502 17.0123 10.0038 16.7203 10.0004 16.4168C9.99879 16.2747 10.0066 16.1471 10.0148 16.0551C10.0189 16.0093 10.0231 15.973 10.0261 15.949C10.0276 15.9369 10.0288 15.928 10.0296 15.9225C10.03 15.9198 10.0302 15.9179 10.0304 15.9169C10.0305 15.9164 10.0305 15.9162 10.0305 15.9161C10.0305 15.9161 10.0305 15.9162 10.0305 15.9163C10.0305 15.9163 10.0305 15.9164 10.0304 15.9165C10.0304 15.9165 10.0304 15.9166 10.0304 15.9166C10.0304 15.9167 10.0304 15.9168 9.6186 15.8533C9.20679 15.7898 9.20678 15.7899 9.20677 15.79C9.20676 15.79 9.20675 15.7901 9.20673 15.7902C9.20671 15.7903 9.20669 15.7905 9.20666 15.7907C9.20661 15.791 9.20655 15.7914 9.20648 15.7919C9.20634 15.7928 9.20616 15.794 9.20595 15.7954C9.20553 15.7983 9.20498 15.802 9.20433 15.8067C9.20301 15.8161 9.20125 15.8292 9.1992 15.8455C9.19512 15.8782 9.18988 15.9242 9.18482 15.9807C9.17475 16.0931 9.16512 16.2496 9.16712 16.4262C9.17091 16.7601 9.2159 17.244 9.44524 17.6214L10.1574 17.1886ZM9.6186 15.8533C9.75804 15.4606 9.75818 15.4607 9.75832 15.4607C9.75836 15.4608 9.75849 15.4608 9.75858 15.4608C9.75875 15.4609 9.7589 15.461 9.75905 15.461C9.75933 15.4611 9.75957 15.4612 9.75975 15.4613C9.76012 15.4614 9.76029 15.4615 9.76027 15.4614C9.76022 15.4614 9.75939 15.4611 9.75783 15.4605C9.75471 15.4593 9.74868 15.457 9.74007 15.4534C9.72281 15.4462 9.69545 15.4343 9.66063 15.4173C9.59057 15.383 9.49285 15.3291 9.38744 15.2532C9.17407 15.0997 8.94989 14.8714 8.83701 14.551L8.05103 14.828C8.23884 15.361 8.60194 15.7147 8.90069 15.9296C9.05134 16.038 9.19089 16.1151 9.29407 16.1657C9.34588 16.191 9.38914 16.21 9.42085 16.2232C9.43672 16.2298 9.44976 16.2349 9.45959 16.2387C9.4645 16.2405 9.46862 16.2421 9.4719 16.2433C9.47353 16.2439 9.47496 16.2444 9.47617 16.2449C9.47678 16.2451 9.47733 16.2453 9.47783 16.2455C9.47808 16.2455 9.47831 16.2456 9.47854 16.2457C9.47865 16.2457 9.4788 16.2458 9.47886 16.2458C9.47901 16.2459 9.47916 16.2459 9.6186 15.8533ZM8.83701 14.551C8.7102 14.1911 8.7684 13.8923 8.85856 13.6769C8.9044 13.5674 8.9584 13.4806 8.99996 13.4224C9.02057 13.3935 9.03759 13.3725 9.04815 13.36C9.05342 13.3537 9.05702 13.3497 9.05859 13.348C9.05938 13.3471 9.05965 13.3468 9.05936 13.3471C9.05921 13.3473 9.05893 13.3476 9.05849 13.3481C9.05828 13.3483 9.05802 13.3486 9.05773 13.3489C9.05759 13.349 9.05743 13.3492 9.05727 13.3493C9.05719 13.3494 9.05706 13.3496 9.05702 13.3496C9.05689 13.3497 9.05675 13.3499 8.75725 13.0602C8.45776 12.7705 8.45762 12.7707 8.45748 12.7708C8.45743 12.7709 8.45728 12.771 8.45718 12.7711C8.45698 12.7713 8.45676 12.7716 8.45654 12.7718C8.45609 12.7723 8.4556 12.7728 8.45508 12.7733C8.45402 12.7744 8.45281 12.7757 8.45144 12.7772C8.44871 12.7801 8.44537 12.7837 8.44147 12.788C8.43368 12.7966 8.42364 12.8079 8.41178 12.8219C8.3881 12.85 8.35694 12.8889 8.32184 12.938C8.252 13.0358 8.16447 13.1769 8.08987 13.3551C7.93912 13.7152 7.8407 14.231 8.05103 14.828L8.83701 14.551ZM8.75725 13.0602C9.13081 12.8756 9.13083 12.8757 9.13085 12.8757C9.13086 12.8757 9.13088 12.8758 9.13088 12.8758C9.1309 12.8758 9.13091 12.8758 9.13092 12.8758C9.13092 12.8759 9.1309 12.8758 9.13085 12.8757C9.13075 12.8755 9.13054 12.8751 9.13022 12.8744C9.12958 12.8731 9.12851 12.8709 9.12704 12.8679C9.1241 12.8618 9.11955 12.8523 9.11366 12.8398C9.10185 12.8147 9.08469 12.7776 9.06411 12.7312C9.02278 12.638 8.96858 12.5091 8.91657 12.3659C8.86418 12.2217 8.81639 12.0694 8.78546 11.9282C8.75326 11.7811 8.74571 11.674 8.75339 11.6093L7.92586 11.5111C7.9022 11.7104 7.93119 11.9227 7.97142 12.1064C8.01292 12.2959 8.07345 12.4856 8.13331 12.6504C8.19353 12.8162 8.25549 12.9634 8.30226 13.0689C8.32573 13.1219 8.34561 13.1648 8.35982 13.195C8.36694 13.2101 8.37265 13.222 8.37671 13.2304C8.37874 13.2346 8.38036 13.238 8.38154 13.2404C8.38212 13.2416 8.3826 13.2425 8.38296 13.2433C8.38314 13.2436 8.3833 13.244 8.38342 13.2442C8.38348 13.2443 8.38353 13.2444 8.38358 13.2445C8.3836 13.2446 8.38363 13.2446 8.38365 13.2447C8.38367 13.2447 8.3837 13.2448 8.75725 13.0602ZM8.75339 11.6093C8.79285 11.2769 8.92985 11.0945 9.03892 10.9944C9.0963 10.9417 9.15045 10.9081 9.18739 10.8886C9.20571 10.8789 9.21922 10.8731 9.22593 10.8703C9.22926 10.869 9.23082 10.8684 9.23035 10.8686C9.23012 10.8687 9.22937 10.8689 9.22807 10.8694C9.22742 10.8696 9.22663 10.8698 9.2257 10.8701C9.22524 10.8703 9.22474 10.8705 9.2242 10.8706C9.22393 10.8707 9.22366 10.8708 9.22337 10.8709C9.22323 10.8709 9.22301 10.871 9.22293 10.871C9.22271 10.8711 9.22248 10.8712 9.09655 10.474C8.97062 10.0768 8.97039 10.0769 8.97015 10.077C8.97007 10.077 8.96983 10.0771 8.96967 10.0771C8.96935 10.0772 8.96901 10.0773 8.96866 10.0774C8.96797 10.0777 8.96723 10.0779 8.96645 10.0782C8.96489 10.0787 8.96317 10.0792 8.96128 10.0799C8.95751 10.0812 8.95308 10.0827 8.94804 10.0845C8.93797 10.0881 8.92541 10.0929 8.91069 10.0989C8.8813 10.1109 8.84302 10.1281 8.79853 10.1515C8.70986 10.1983 8.59436 10.2713 8.47555 10.3803C8.23226 10.6035 7.99079 10.9642 7.92586 11.5111L8.75339 11.6093ZM9.09655 10.474C9.46758 10.2844 9.46766 10.2846 9.46774 10.2847C9.46776 10.2847 9.46783 10.2849 9.46787 10.285C9.46796 10.2851 9.46804 10.2853 9.46811 10.2854C9.46825 10.2857 9.46836 10.2859 9.46843 10.2861C9.46857 10.2864 9.46858 10.2864 9.46847 10.2861C9.46823 10.2857 9.46749 10.2842 9.46629 10.2816C9.4639 10.2766 9.45973 10.2677 9.45423 10.2551C9.4432 10.2299 9.42702 10.1907 9.40926 10.1402C9.3734 10.0382 9.33295 9.89549 9.31333 9.73242C9.27417 9.40692 9.31941 9.03322 9.61296 8.71198L8.99778 8.14984C8.48783 8.7079 8.42867 9.35575 8.48597 9.83197C8.51458 10.0698 8.57258 10.2729 8.62311 10.4166C8.64855 10.489 8.67256 10.5476 8.69091 10.5895C8.7001 10.6104 8.70792 10.6273 8.71385 10.6398C8.71681 10.646 8.71931 10.6511 8.72127 10.6551C8.72226 10.6571 8.72311 10.6588 8.72382 10.6602C8.72417 10.6609 8.72449 10.6616 8.72478 10.6621C8.72492 10.6624 8.72505 10.6627 8.72517 10.6629C8.72524 10.663 8.72532 10.6632 8.72535 10.6633C8.72544 10.6634 8.72552 10.6636 9.09655 10.474ZM9.61296 8.71198C9.72299 8.59156 9.96149 8.47559 10.2392 8.38774C10.3669 8.34734 10.485 8.31828 10.5712 8.29937C10.6141 8.28996 10.6485 8.28321 10.6715 8.27891C10.683 8.27677 10.6916 8.27524 10.6969 8.27432C10.6996 8.27385 10.7015 8.27354 10.7025 8.27337C10.703 8.27329 10.7032 8.27325 10.7033 8.27324C10.7033 8.27323 10.7033 8.27323 10.7032 8.27325C10.7032 8.27325 10.7031 8.27326 10.7031 8.27327C10.703 8.27328 10.703 8.27329 10.7029 8.27329C10.7029 8.2733 10.7028 8.27331 10.6366 7.86194C10.5704 7.45057 10.5703 7.45058 10.5702 7.4506C10.5702 7.4506 10.5701 7.45062 10.57 7.45063C10.5699 7.45065 10.5698 7.45067 10.5696 7.45069C10.5693 7.45075 10.5689 7.45081 10.5685 7.45088C10.5676 7.45102 10.5666 7.4512 10.5652 7.45142C10.5626 7.45185 10.5591 7.45245 10.5547 7.45321C10.5459 7.45473 10.5337 7.4569 10.5184 7.45976C10.4879 7.46546 10.445 7.47391 10.3928 7.48536C10.2888 7.50816 10.1454 7.54336 9.9878 7.59322C9.69486 7.68589 9.26774 7.8544 8.99778 8.14984L9.61296 8.71198ZM10.6366 7.86194C11.0248 7.7106 11.0248 7.7107 11.0249 7.7108C11.0249 7.71083 11.0249 7.71092 11.0249 7.71097C11.025 7.71108 11.025 7.71118 11.0251 7.71126C11.0251 7.71141 11.0251 7.71151 11.0252 7.71155C11.0252 7.71162 11.0251 7.71146 11.025 7.71107C11.0247 7.71028 11.024 7.70856 11.0231 7.70596C11.0212 7.70077 11.018 7.69208 11.0139 7.68026C11.0057 7.65658 10.9939 7.62069 10.9807 7.5755C10.954 7.48414 10.9232 7.35973 10.9049 7.22428C10.8641 6.92348 10.9014 6.69951 11.0018 6.58534L10.3759 6.03513C10.021 6.43885 10.0322 6.99073 10.0791 7.33631C10.1046 7.52405 10.1461 7.69046 10.1808 7.80913C10.1982 7.86895 10.2143 7.91787 10.2264 7.95275C10.2324 7.97022 10.2375 7.98425 10.2413 7.99445C10.2432 7.99955 10.2447 8.0037 10.2459 8.00686C10.2465 8.00843 10.247 8.00976 10.2474 8.01084C10.2476 8.01137 10.2478 8.01184 10.248 8.01225C10.2481 8.01246 10.2481 8.01265 10.2482 8.01282C10.2482 8.0129 10.2483 8.01302 10.2483 8.01306C10.2483 8.01318 10.2484 8.01328 10.6366 7.86194ZM11.0018 6.58534C11.3075 6.23753 11.9179 5.79955 12.5398 5.45197C12.8457 5.28101 13.1393 5.14041 13.3807 5.04854C13.5017 5.00251 13.6026 4.97142 13.6808 4.95403C13.7667 4.93495 13.7954 4.9393 13.7859 4.93789L13.9084 4.11361C13.7684 4.09281 13.6225 4.11333 13.5001 4.14052C13.3701 4.1694 13.2289 4.21468 13.0844 4.26968C12.7948 4.37986 12.4636 4.5399 12.1333 4.72455C11.4827 5.08817 10.7749 5.58123 10.3759 6.03513L11.0018 6.58534ZM13.7859 4.93789C14.0531 4.9776 14.2562 5.13687 14.4042 5.31532C14.477 5.40304 14.5305 5.48866 14.5655 5.55182C14.5828 5.58308 14.595 5.60795 14.6024 5.62364C14.6061 5.63145 14.6085 5.63691 14.6097 5.63965C14.6103 5.64102 14.6106 5.6417 14.6105 5.64164C14.6105 5.64162 14.6104 5.64141 14.6103 5.64101C14.6102 5.64081 14.6101 5.64056 14.61 5.64027C14.6099 5.64012 14.6098 5.63996 14.6098 5.63979C14.6097 5.6397 14.6097 5.63956 14.6097 5.63952C14.6096 5.63938 14.6095 5.63924 14.9957 5.48264C15.3818 5.32605 15.3817 5.3259 15.3817 5.32575C15.3816 5.32569 15.3816 5.32554 15.3815 5.32543C15.3814 5.3252 15.3814 5.32497 15.3812 5.32472C15.381 5.32422 15.3808 5.32367 15.3806 5.32307C15.3801 5.32186 15.3795 5.32045 15.3788 5.31884C15.3775 5.31561 15.3757 5.31158 15.3736 5.30679C15.3695 5.29721 15.3638 5.28458 15.3566 5.26929C15.3423 5.23875 15.3217 5.19732 15.2946 5.14827C15.2406 5.05079 15.1588 4.91974 15.0456 4.78327C14.8216 4.51333 14.4504 4.19416 13.9084 4.11361L13.7859 4.93789ZM8.75725 13.0602C8.47294 13.3648 8.47298 13.3648 8.47302 13.3649C8.47304 13.3649 8.47308 13.3649 8.47312 13.365C8.47318 13.365 8.47326 13.3651 8.47334 13.3652C8.4735 13.3653 8.4737 13.3655 8.47392 13.3657C8.47436 13.3661 8.47493 13.3666 8.4756 13.3673C8.47696 13.3685 8.47877 13.3702 8.48102 13.3723C8.48553 13.3764 8.49182 13.3821 8.49973 13.3892C8.51556 13.4035 8.53799 13.4234 8.5659 13.4474C8.6215 13.4953 8.69998 13.5605 8.79209 13.6303C8.96537 13.7616 9.22766 13.941 9.49085 14.0258L9.74634 13.2326C9.62506 13.1935 9.45668 13.0884 9.2954 12.9662C9.22024 12.9092 9.15548 12.8554 9.10964 12.8159C9.08684 12.7963 9.06901 12.7805 9.05726 12.7699C9.05139 12.7646 9.04705 12.7606 9.04439 12.7582C9.04305 12.757 9.04214 12.7561 9.04167 12.7557C9.04143 12.7555 9.0413 12.7554 9.04128 12.7553C9.04128 12.7553 9.0413 12.7554 9.04134 12.7554C9.04137 12.7554 9.0414 12.7554 9.04144 12.7555C9.04146 12.7555 9.04149 12.7555 9.0415 12.7555C9.04153 12.7556 9.04157 12.7556 8.75725 13.0602ZM9.49085 14.0258C9.70358 14.0943 9.96014 14.1148 10.1363 14.1219C10.2299 14.1257 10.3123 14.126 10.3716 14.1254C10.4013 14.1251 10.4255 14.1245 10.4427 14.124C10.4513 14.1238 10.4582 14.1236 10.4631 14.1234C10.4656 14.1233 10.4676 14.1232 10.4691 14.1232C10.4698 14.1231 10.4704 14.1231 10.4709 14.1231C10.4712 14.1231 10.4714 14.1231 10.4716 14.123C10.4716 14.123 10.4717 14.123 10.4718 14.123C10.4718 14.123 10.4719 14.123 10.4719 14.123C10.472 14.123 10.472 14.123 10.4539 13.7068C10.4358 13.2905 10.4358 13.2905 10.4359 13.2905C10.4359 13.2905 10.4359 13.2905 10.436 13.2905C10.436 13.2905 10.436 13.2905 10.4361 13.2905C10.4361 13.2905 10.4361 13.2905 10.4361 13.2905C10.4361 13.2905 10.436 13.2905 10.4357 13.2905C10.4352 13.2905 10.4342 13.2905 10.4328 13.2906C10.4299 13.2907 10.4252 13.2909 10.4189 13.291C10.4062 13.2914 10.3871 13.2918 10.3628 13.2921C10.3141 13.2926 10.2462 13.2923 10.1699 13.2893C10.0063 13.2827 9.8452 13.2644 9.74634 13.2326L9.49085 14.0258ZM10.6366 7.86194C10.5915 8.27616 10.5914 8.27615 10.5914 8.27615C10.5913 8.27615 10.5913 8.27614 10.5913 8.27614C10.5912 8.27613 10.5911 8.27612 10.5911 8.27612C10.591 8.27611 10.591 8.27611 10.591 8.27611C10.5911 8.27612 10.5914 8.27615 10.5919 8.27621C10.5928 8.27632 10.5947 8.27653 10.5973 8.27684C10.6025 8.27747 10.6109 8.27851 10.6221 8.28C10.6445 8.28298 10.678 8.28774 10.72 8.29457C10.8043 8.30831 10.9203 8.33005 11.047 8.36186C11.3206 8.4306 11.5666 8.52806 11.6907 8.63859L12.245 8.01635C11.9591 7.76166 11.5395 7.62636 11.25 7.55364C11.095 7.51472 10.9551 7.48856 10.8539 7.47207C10.8031 7.4638 10.7615 7.45787 10.7319 7.45394C10.7171 7.45197 10.7053 7.4505 10.6968 7.44948C10.6926 7.44897 10.6892 7.44857 10.6866 7.44828C10.6854 7.44813 10.6843 7.44801 10.6835 7.44792C10.6831 7.44788 10.6827 7.44784 10.6824 7.4478C10.6823 7.44779 10.6821 7.44777 10.682 7.44776C10.6819 7.44775 10.6819 7.44774 10.6818 7.44774C10.6818 7.44773 10.6817 7.44772 10.6366 7.86194ZM11.6907 8.63859C11.8355 8.76759 11.9611 9.04809 12.0481 9.37365C12.0883 9.52384 12.115 9.66307 12.1317 9.76494C12.1399 9.81558 12.1456 9.85627 12.1491 9.88357C12.1509 9.8972 12.1521 9.90745 12.1528 9.91388C12.1532 9.91709 12.1534 9.91934 12.1536 9.92058C12.1536 9.9212 12.1537 9.92156 12.1537 9.92167C12.1537 9.92172 12.1537 9.92171 12.1537 9.92163C12.1537 9.92159 12.1537 9.92153 12.1537 9.92146C12.1537 9.92142 12.1537 9.92136 12.1537 9.92134C12.1537 9.92127 12.1536 9.92119 12.5682 9.87919C12.9827 9.83718 12.9827 9.83709 12.9827 9.83701C12.9827 9.83697 12.9827 9.83688 12.9827 9.83681C12.9827 9.83667 12.9827 9.83651 12.9826 9.83633C12.9826 9.83598 12.9826 9.83557 12.9825 9.83508C12.9824 9.83411 12.9823 9.83286 12.9821 9.83135C12.9818 9.82834 12.9813 9.82426 12.9808 9.81918C12.9796 9.80902 12.9779 9.79482 12.9756 9.77705C12.971 9.74152 12.9641 9.69149 12.9541 9.63056C12.9343 9.50927 12.9023 9.34194 12.8532 9.15844C12.7618 8.81662 12.5873 8.32126 12.245 8.01635L11.6907 8.63859ZM10.6888 6.31024C10.8834 6.67866 10.8834 6.67869 10.8833 6.67872C10.8833 6.67872 10.8833 6.67875 10.8833 6.67876C10.8832 6.67878 10.8832 6.67879 10.8832 6.6788C10.8831 6.67881 10.8832 6.6788 10.8833 6.67875C10.8835 6.67865 10.8839 6.67842 10.8846 6.67808C10.8859 6.67739 10.8881 6.67622 10.8913 6.6746C10.8975 6.67137 10.9073 6.66636 10.9203 6.65987C10.9462 6.64687 10.9847 6.62799 11.0327 6.60552C11.1293 6.56033 11.2621 6.50178 11.4085 6.44732C11.5563 6.39232 11.7094 6.34476 11.848 6.31768C11.9943 6.28911 12.0871 6.29101 12.1324 6.3018L12.3253 5.4911C12.1098 5.43982 11.8797 5.46241 11.6883 5.4998C11.4893 5.53867 11.2899 5.6023 11.1179 5.66627C10.9446 5.73077 10.7902 5.79895 10.6795 5.85074C10.6239 5.87675 10.5787 5.89893 10.5469 5.91486C10.531 5.92284 10.5184 5.92927 10.5095 5.93385C10.5051 5.93615 10.5015 5.93798 10.499 5.93932C10.4977 5.93999 10.4966 5.94053 10.4959 5.94095C10.4955 5.94116 10.4951 5.94133 10.4948 5.94148C10.4947 5.94155 10.4946 5.94161 10.4945 5.94167C10.4944 5.9417 10.4944 5.94173 10.4943 5.94175C10.4943 5.94178 10.4942 5.94181 10.6888 6.31024ZM12.1324 6.3018C12.265 6.33335 12.359 6.41899 12.428 6.52094C12.462 6.57125 12.4858 6.61982 12.5006 6.65511C12.5078 6.67242 12.5126 6.68559 12.5151 6.69292C12.5163 6.69656 12.5169 6.69867 12.5171 6.69902C12.5171 6.6992 12.517 6.69893 12.5168 6.69818C12.5167 6.69781 12.5166 6.69732 12.5164 6.69671C12.5163 6.6964 12.5162 6.69606 12.5161 6.69569C12.516 6.69551 12.516 6.69532 12.5159 6.69512C12.5159 6.69502 12.5159 6.69486 12.5159 6.69481C12.5158 6.69465 12.5158 6.69449 12.9173 6.58329C13.3189 6.47209 13.3188 6.47193 13.3188 6.47176C13.3188 6.4717 13.3187 6.47154 13.3187 6.47142C13.3186 6.47118 13.3186 6.47094 13.3185 6.47069C13.3183 6.47018 13.3182 6.46964 13.318 6.46907C13.3177 6.46791 13.3173 6.46662 13.3169 6.46518C13.3161 6.46231 13.315 6.45888 13.3138 6.45492C13.3114 6.44701 13.3082 6.43697 13.3042 6.42505C13.2961 6.40126 13.2845 6.36969 13.2689 6.33253C13.238 6.25887 13.1896 6.15952 13.1182 6.05398C12.9763 5.84424 12.7261 5.58646 12.3253 5.4911L12.1324 6.3018ZM14.9957 5.48264C14.579 5.47967 14.579 5.47968 14.579 5.47969C14.579 5.47969 14.579 5.47971 14.579 5.47973C14.579 5.47976 14.579 5.47982 14.579 5.47989C14.579 5.48004 14.579 5.48027 14.579 5.48056C14.579 5.48116 14.579 5.48206 14.579 5.48325C14.579 5.48563 14.5789 5.48919 14.5789 5.4939C14.5788 5.50333 14.5787 5.51739 14.5786 5.53589C14.5783 5.57288 14.5779 5.62761 14.5774 5.69858C14.5764 5.84051 14.5748 6.04737 14.5728 6.30702C14.5688 6.82632 14.5629 7.5568 14.5556 8.40144L15.3889 8.40867C15.3962 7.56372 15.4021 6.83299 15.4061 6.31348C15.4081 6.05373 15.4097 5.84678 15.4107 5.70476C15.4113 5.63375 15.4117 5.57898 15.4119 5.54195C15.4121 5.52343 15.4122 5.50935 15.4122 5.4999C15.4123 5.49518 15.4123 5.49161 15.4123 5.48922C15.4123 5.48802 15.4123 5.48713 15.4123 5.48652C15.4123 5.48622 15.4123 5.486 15.4123 5.48585C15.4123 5.48577 15.4123 5.48571 15.4123 5.48568C15.4123 5.48566 15.4123 5.48564 15.4123 5.48563C15.4123 5.48562 15.4123 5.48562 14.9957 5.48264ZM14.5556 8.40144C14.5265 11.7603 14.4744 16.8884 14.4231 17.7687L15.2551 17.8172C15.3079 16.9097 15.3599 11.7487 15.3889 8.40867L14.5556 8.40144ZM15.2916 8.1374C15.0259 7.82046 14.7758 7.60151 14.478 7.49992C14.1806 7.39848 13.897 7.43787 13.6523 7.47616L13.7811 8.29948C14.0323 8.26018 14.1273 8.26077 14.209 8.28864C14.2902 8.31636 14.42 8.39482 14.6529 8.67271L15.2916 8.1374ZM11.2317 11.7731C11.5328 11.8769 11.822 11.9114 12.0905 11.8997L12.054 11.0671C11.8848 11.0746 11.7005 11.0532 11.5032 10.9853L11.2317 11.7731ZM12.0905 11.8997C12.6004 11.8773 13.0211 11.6887 13.3069 11.5149C13.4511 11.4272 13.5654 11.3406 13.6449 11.2747C13.6848 11.2417 13.7163 11.2135 13.7388 11.1927C13.75 11.1822 13.7591 11.1736 13.7658 11.167C13.7692 11.1637 13.772 11.1609 13.7742 11.1587C13.7754 11.1576 13.7763 11.1567 13.7771 11.1558C13.7776 11.1554 13.7779 11.155 13.7783 11.1547C13.7784 11.1545 13.7786 11.1544 13.7787 11.1542C13.7788 11.1541 13.7789 11.154 13.779 11.154C13.7791 11.1539 13.7792 11.1538 13.4818 10.8619C13.1844 10.5701 13.1845 10.57 13.1846 10.5699C13.1846 10.5699 13.1847 10.5698 13.1847 10.5697C13.1849 10.5696 13.185 10.5695 13.1851 10.5694C13.1853 10.5692 13.1854 10.569 13.1856 10.5689C13.1858 10.5686 13.186 10.5685 13.186 10.5685C13.186 10.5685 13.1854 10.569 13.1844 10.57C13.1823 10.572 13.1782 10.576 13.1722 10.5816C13.16 10.5929 13.1402 10.6107 13.1132 10.633C13.059 10.678 12.9776 10.7398 12.8739 10.8029C12.6639 10.9306 12.3798 11.0528 12.054 11.0671L12.0905 11.8997ZM12.0722 11.4834C11.6698 11.3756 11.6698 11.3755 11.6698 11.3755C11.6698 11.3755 11.6698 11.3755 11.6698 11.3754C11.6698 11.3754 11.6698 11.3754 11.6698 11.3753C11.6699 11.3753 11.6699 11.3753 11.6698 11.3753C11.6698 11.3753 11.6698 11.3755 11.6697 11.3759C11.6695 11.3765 11.6692 11.3777 11.6687 11.3795C11.6677 11.383 11.6661 11.3887 11.664 11.3962C11.6597 11.4114 11.6531 11.4341 11.6443 11.4626C11.6268 11.5199 11.6011 11.5993 11.5687 11.6874C11.4997 11.8748 11.4156 12.0588 11.3351 12.1651L11.9995 12.6681C12.1588 12.4577 12.2772 12.1751 12.3508 11.9751C12.3896 11.8694 12.4202 11.775 12.4411 11.7067C12.4516 11.6725 12.4597 11.6446 12.4654 11.6248C12.4682 11.6148 12.4704 11.6069 12.472 11.6013C12.4728 11.5984 12.4734 11.5962 12.4738 11.5945C12.4741 11.5936 12.4743 11.5929 12.4744 11.5924C12.4745 11.5921 12.4745 11.5919 12.4746 11.5917C12.4746 11.5916 12.4746 11.5915 12.4747 11.5914C12.4747 11.5914 12.4747 11.5913 12.4747 11.5913C12.4747 11.5912 12.4747 11.5912 12.0722 11.4834ZM11.3351 12.1651C11.3392 12.1598 11.3315 12.1698 11.3018 12.1989C11.2766 12.2237 11.2458 12.2523 11.2145 12.2805C11.1837 12.3084 11.1543 12.3341 11.1325 12.353C11.1217 12.3624 11.1129 12.3699 11.1069 12.3751C11.1039 12.3776 11.1016 12.3796 11.1001 12.3808C11.0994 12.3815 11.0989 12.3819 11.0986 12.3822C11.0984 12.3823 11.0983 12.3824 11.0982 12.3825C11.0982 12.3825 11.0982 12.3825 11.0982 12.3825C11.0982 12.3825 11.0982 12.3825 11.0982 12.3825C11.0982 12.3825 11.0982 12.3825 11.0982 12.3825C11.0982 12.3825 11.0982 12.3824 11.3675 12.7004C11.6367 13.0184 11.6367 13.0184 11.6367 13.0184C11.6368 13.0184 11.6368 13.0184 11.6368 13.0184C11.6368 13.0184 11.6368 13.0183 11.6369 13.0183C11.6369 13.0183 11.637 13.0182 11.6371 13.0181C11.6373 13.018 11.6375 13.0178 11.6378 13.0175C11.6384 13.0171 11.6392 13.0164 11.6402 13.0155C11.6422 13.0138 11.645 13.0114 11.6486 13.0083C11.6558 13.0021 11.666 12.9934 11.6784 12.9827C11.703 12.9614 11.7367 12.9318 11.7729 12.8991C11.8319 12.8459 11.9394 12.7475 11.9995 12.6681L11.3351 12.1651ZM12.0975 16.4131C12.2725 16.5804 12.3774 16.7561 12.4381 16.888C12.4684 16.9538 12.4871 17.0077 12.4978 17.0426C12.5031 17.0599 12.5064 17.0724 12.508 17.0789C12.5088 17.0822 12.5092 17.084 12.5093 17.0842C12.5093 17.0843 12.5092 17.084 12.5091 17.0832C12.509 17.0829 12.5089 17.0824 12.5088 17.0818C12.5087 17.0816 12.5087 17.0812 12.5086 17.0809C12.5086 17.0807 12.5085 17.0806 12.5085 17.0804C12.5085 17.0803 12.5084 17.0801 12.5084 17.0801C12.5084 17.08 12.5084 17.0798 12.9173 17C13.3263 16.9201 13.3262 16.92 13.3262 16.9198C13.3262 16.9198 13.3262 16.9196 13.3261 16.9195C13.3261 16.9193 13.3261 16.9191 13.326 16.9188C13.3259 16.9184 13.3258 16.9179 13.3257 16.9174C13.3255 16.9164 13.3253 16.9152 13.325 16.914C13.3245 16.9115 13.3239 16.9085 13.3231 16.905C13.3216 16.8982 13.3196 16.8896 13.3171 16.8792C13.312 16.8587 13.3047 16.8313 13.2946 16.7983C13.2744 16.7325 13.2428 16.6434 13.1952 16.5399C13.1002 16.3331 12.9391 16.0648 12.6734 15.8108L12.0975 16.4131ZM11.0804 15.6464C11.0383 16.0609 11.0383 16.0609 11.0383 16.0609C11.0382 16.0609 11.0382 16.0609 11.0382 16.0609C11.0381 16.0609 11.0381 16.0609 11.0381 16.0609C11.038 16.0609 11.0379 16.0609 11.0379 16.0609C11.0378 16.0609 11.0378 16.0609 11.0378 16.0609C11.0378 16.0609 11.0381 16.0609 11.0385 16.061C11.0394 16.0611 11.0411 16.0612 11.0436 16.0615C11.0486 16.0621 11.0566 16.063 11.0673 16.0644C11.0888 16.0671 11.121 16.0715 11.1613 16.0778C11.2425 16.0906 11.3541 16.1109 11.4759 16.1412L11.6767 15.3324C11.5257 15.2949 11.3893 15.2701 11.2907 15.2546C11.2412 15.2468 11.2006 15.2413 11.1717 15.2376C11.1572 15.2358 11.1457 15.2344 11.1374 15.2335C11.1332 15.233 11.1298 15.2326 11.1273 15.2324C11.1261 15.2322 11.125 15.2321 11.1242 15.232C11.1238 15.232 11.1234 15.232 11.1231 15.2319C11.123 15.2319 11.1229 15.2319 11.1227 15.2319C11.1227 15.2319 11.1226 15.2319 11.1226 15.2319C11.1225 15.2319 11.1225 15.2319 11.1225 15.2319C11.1224 15.2319 11.1224 15.2319 11.0804 15.6464ZM11.4759 16.1412C11.7484 16.2089 11.9853 16.3058 12.0975 16.4131L12.6734 15.8108C12.391 15.5407 11.9637 15.4037 11.6767 15.3324L11.4759 16.1412ZM12.5607 15.7339L11.7516 15.3588L11.4011 16.1148L12.2102 16.4899L12.5607 15.7339ZM11.5763 15.7368C11.9929 15.7271 11.9929 15.7272 11.9929 15.7272C11.9929 15.7272 11.9929 15.7273 11.9929 15.7273C11.9929 15.7274 11.9929 15.7275 11.9929 15.7275C11.9929 15.7276 11.9929 15.7276 11.9929 15.7276C11.9929 15.7275 11.9929 15.7272 11.9929 15.7267C11.9928 15.7256 11.9928 15.7236 11.9928 15.7207C11.9927 15.7149 11.9927 15.7056 11.9927 15.6931C11.9928 15.6681 11.9933 15.6307 11.995 15.584C11.9985 15.4899 12.0068 15.3609 12.0259 15.2203C12.0674 14.9139 12.1482 14.6497 12.2586 14.5204L11.6249 13.9793C11.3458 14.3061 11.2439 14.7853 11.2001 15.1084C11.1765 15.2826 11.1664 15.4397 11.1622 15.5532C11.1601 15.6102 11.1595 15.657 11.1594 15.6901C11.1593 15.7067 11.1594 15.72 11.1595 15.7295C11.1595 15.7343 11.1596 15.7381 11.1596 15.741C11.1597 15.7424 11.1597 15.7436 11.1597 15.7445C11.1597 15.7449 11.1597 15.7453 11.1597 15.7457C11.1597 15.7459 11.1597 15.746 11.1597 15.7461C11.1597 15.7462 11.1597 15.7463 11.1597 15.7463C11.1597 15.7464 11.1598 15.7465 11.5763 15.7368ZM12.2586 14.5204C12.2631 14.5152 12.2673 14.5103 12.2715 14.5053C12.2743 14.502 12.2811 14.4941 12.2836 14.4911C12.2924 14.4808 12.2864 14.4878 12.295 14.4779C12.2999 14.4721 12.2955 14.4773 12.3003 14.4716C12.3026 14.4689 12.2994 14.4726 12.3017 14.47C12.3047 14.4665 12.3 14.472 12.303 14.4685C12.3032 14.4682 12.3034 14.468 12.3036 14.4677C12.3038 14.4675 12.304 14.4672 12.3043 14.467C12.3045 14.4667 12.3047 14.4665 12.3049 14.4662C12.3051 14.466 12.3053 14.4657 12.3055 14.4655C12.3069 14.4639 12.3241 14.4437 12.3245 14.4432C12.3414 14.4235 12.3249 14.4428 12.3408 14.4242C12.3488 14.4148 12.3474 14.4164 12.3546 14.408C12.3565 14.4058 12.3589 14.4029 12.3606 14.401C12.3732 14.3862 12.3537 14.4091 12.3661 14.3945C12.3675 14.3929 12.3673 14.3931 12.3686 14.3916C12.3754 14.3837 12.3644 14.3966 12.3711 14.3887C12.3731 14.3864 12.3714 14.3884 12.3733 14.3861C12.3743 14.3849 12.3735 14.3859 12.3744 14.3848C12.3746 14.3846 12.3754 14.3837 12.3755 14.3835C12.3866 14.3706 12.3726 14.3869 12.383 14.3747C12.3998 14.3551 12.3885 14.3683 12.3986 14.3565C12.3996 14.3553 12.3991 14.3559 12.3999 14.355C12.3999 14.355 12.4 14.3549 12.4 14.3548C12.4 14.3548 12.4 14.3548 12.4 14.3548C12.4 14.3548 12.4 14.3548 12.4001 14.3548C12.4001 14.3548 12.4001 14.3548 12.4001 14.3548C12.4001 14.3547 12.4001 14.3547 12.4001 14.3547C12.4012 14.3534 12.3992 14.3558 12.4003 14.3545C12.4003 14.3545 12.4004 14.3544 12.4004 14.3544C12.4009 14.3539 12.3999 14.3549 12.4004 14.3543C12.4005 14.3543 12.4005 14.3542 12.4006 14.3542C12.4007 14.354 12.4006 14.3542 12.4007 14.354C12.4007 14.354 12.4007 14.354 12.4008 14.354C12.4008 14.3539 12.4008 14.354 12.4008 14.3539C12.4008 14.3539 12.4008 14.354 12.4008 14.3539C12.4009 14.3538 12.4007 14.354 12.4008 14.3539C12.4008 14.3539 12.4008 14.3539 12.4008 14.3539C12.4008 14.3539 12.4008 14.3539 12.4008 14.3539L12.084 14.0833L11.7671 13.8127C11.7671 13.8127 11.7671 13.8127 11.7671 13.8127C11.7671 13.8127 11.7671 13.8127 11.7671 13.8127C11.7671 13.8127 11.7671 13.8127 11.7671 13.8127C11.7671 13.8127 11.7671 13.8127 11.7671 13.8127C11.7671 13.8127 11.7671 13.8127 11.7671 13.8127C11.7671 13.8127 11.7671 13.8127 11.7671 13.8127C11.7669 13.813 11.7672 13.8126 11.7669 13.813C11.7664 13.8136 11.7669 13.813 11.7662 13.8138C11.765 13.8152 11.7663 13.8136 11.7649 13.8153C11.7649 13.8153 11.7645 13.8158 11.7645 13.8158C11.763 13.8175 11.7654 13.8147 11.764 13.8164C11.7639 13.8165 11.7638 13.8167 11.7637 13.8167C11.7584 13.823 11.7687 13.8108 11.7634 13.8171C11.7631 13.8175 11.7635 13.817 11.7631 13.8174C11.7626 13.818 11.7633 13.8172 11.7628 13.8178C11.759 13.8222 11.7652 13.8149 11.7614 13.8195C11.7599 13.8212 11.7612 13.8197 11.7596 13.8215C11.7581 13.8233 11.7572 13.8243 11.7552 13.8266C11.7505 13.8321 11.7573 13.8242 11.7525 13.8299C11.7523 13.8301 11.7497 13.8331 11.7494 13.8335C11.7444 13.8393 11.7474 13.8358 11.7418 13.8423C11.7407 13.8436 11.7342 13.8513 11.7324 13.8534C11.7178 13.8705 11.7363 13.8488 11.7209 13.8668C11.7151 13.8736 11.7137 13.8752 11.7071 13.883C11.6826 13.9117 11.7163 13.8723 11.6908 13.902C11.6876 13.9058 11.6896 13.9035 11.6864 13.9073C11.6862 13.9075 11.686 13.9077 11.6858 13.908C11.6856 13.9082 11.6854 13.9084 11.6852 13.9086C11.685 13.9089 11.6848 13.9091 11.6846 13.9093C11.6844 13.9095 11.6842 13.9098 11.684 13.91C11.6836 13.9106 11.6822 13.9122 11.6817 13.9128C11.675 13.9206 11.6788 13.9161 11.6718 13.9243C11.6553 13.9437 11.6781 13.917 11.6613 13.9367C11.6507 13.949 11.6663 13.9308 11.6557 13.9432C11.6531 13.9463 11.6526 13.9468 11.6499 13.9499C11.6474 13.9529 11.6466 13.9539 11.644 13.9569C11.6436 13.9573 11.6382 13.9636 11.6378 13.9641C11.6376 13.9643 11.6317 13.9713 11.6315 13.9716C11.6297 13.9737 11.63 13.9733 11.6282 13.9754C11.6253 13.9787 11.6278 13.9759 11.6249 13.9793L12.2586 14.5204Z" fill="#4B54B9"/>
<path d="M14.9928 5.46067L14.5761 5.45759C14.5765 5.40291 14.5877 5.34885 14.609 5.29849L14.9928 5.46067ZM14.9671 17.7719L15.3834 17.7537L14.9671 17.7719ZM16.9016 19.3519L16.9054 18.9353L16.9016 19.3519ZM18.7204 18.1627L18.3873 17.9126C18.4485 17.8311 18.5374 17.7748 18.6372 17.7545L18.7204 18.1627ZM20.0101 17.4572L19.6572 17.2357L20.0101 17.4572ZM20.2157 15.9084L19.803 15.9658C19.7755 15.7677 19.8926 15.5779 20.0821 15.5137L20.2157 15.9084ZM21.4074 14.7618L21.0165 14.6176L21.4074 14.7618ZM21.5581 11.6343L21.1437 11.6774L21.5581 11.6343ZM20.8174 10.5372L20.6856 10.9325C20.5694 10.8938 20.4761 10.8059 20.4305 10.6922C20.385 10.5785 20.3918 10.4505 20.4492 10.3423L20.8174 10.5372ZM20.6388 8.49132L20.3271 8.76789L20.6388 8.49132ZM16.1553 4.52057L16.1002 4.10759L16.1553 4.52057ZM20.2487 13.6845L20.1268 13.2861L20.2487 13.6845ZM19.388 14.1659C19.1583 14.1525 18.9829 13.9555 18.9963 13.7258C19.0097 13.496 19.2068 13.3206 19.4366 13.3339L19.388 14.1659ZM17.9782 8.3492L18.2507 8.66431L17.9782 8.3492ZM17.7688 9.94005C17.7422 10.1686 17.5353 10.3324 17.3068 10.3059C17.0782 10.2794 16.9144 10.0726 16.941 9.84399L17.7688 9.94005ZM17.7532 5.91464L17.8436 6.32135L17.7532 5.91464ZM17.2893 6.94247C17.2005 7.15477 16.9564 7.2549 16.7441 7.16612C16.5318 7.07734 16.4317 6.83326 16.5206 6.62096L17.2893 6.94247ZM14.9729 8.38311L15.3896 8.38555L14.9729 8.38311ZM18.8098 10.537C18.9275 10.3392 19.1831 10.2741 19.3809 10.3917C19.5787 10.5093 19.6437 10.7649 19.5261 10.9628L18.8098 10.537ZM16.3182 11.393C16.1931 11.1999 16.2484 10.9419 16.4416 10.8168C16.6348 10.6917 16.8928 10.7469 17.0178 10.9401L16.3182 11.393ZM17.827 11.7159L17.8269 12.1326C17.8188 12.1326 17.8107 12.1323 17.8026 12.1319L17.827 11.7159ZM18.7213 15.2651C18.9505 15.2452 19.1525 15.415 19.1723 15.6442C19.1921 15.8735 19.0223 16.0755 18.7931 16.0953L18.7213 15.2651ZM17.4453 16.1267L17.6149 16.5073C17.4288 16.5903 17.21 16.5265 17.0976 16.3565C16.9853 16.1864 17.0125 15.9601 17.1619 15.8214L17.4453 16.1267ZM17.9166 14.2713L18.2487 14.0196L17.9166 14.2713ZM16.4623 13.6123C16.2622 13.4988 16.192 13.2445 16.3056 13.0443C16.4192 12.8442 16.6735 12.7739 16.8736 12.8875L16.4623 13.6123ZM14.9465 15.3363L14.5298 15.3366L14.9465 15.3363ZM15.6533 15.5018L15.5759 15.0924L15.6533 15.5018ZM16.0372 14.6625C16.1779 14.4804 16.4396 14.4468 16.6217 14.5876C16.8037 14.7283 16.8372 14.9899 16.6964 15.172L16.0372 14.6625ZM15.3834 17.7537C15.3967 18.0613 15.5658 18.349 15.8556 18.5723C16.1469 18.7968 16.5328 18.932 16.9054 18.9353L16.8978 19.7686C16.3422 19.7636 15.7807 19.5668 15.3468 19.2324C14.9112 18.8968 14.5772 18.3987 14.5508 17.7901L15.3834 17.7537ZM16.9054 18.9353C17.2012 18.9379 17.5541 18.7343 17.881 18.4473C18.034 18.313 18.1624 18.1771 18.2528 18.0745C18.2977 18.0234 18.3326 17.9813 18.3557 17.9527C18.3672 17.9384 18.3757 17.9275 18.3811 17.9206C18.3838 17.9172 18.3856 17.9147 18.3867 17.9134C18.3872 17.9127 18.3875 17.9123 18.3876 17.9121C18.3877 17.9121 18.3877 17.9121 18.3876 17.9121C18.3876 17.9122 18.3875 17.9122 18.3875 17.9123C18.3875 17.9123 18.3874 17.9124 18.3874 17.9124C18.3873 17.9125 18.3873 17.9126 18.7204 18.1627C19.0536 18.4129 19.0535 18.413 19.0534 18.4131C19.0534 18.4131 19.0533 18.4132 19.0533 18.4133C19.0532 18.4134 19.0531 18.4136 19.0529 18.4138C19.0526 18.4141 19.0523 18.4146 19.0519 18.4151C19.0512 18.4161 19.0502 18.4174 19.049 18.419C19.0465 18.4221 19.0433 18.4264 19.0391 18.4317C19.0309 18.4424 19.0192 18.4572 19.0043 18.4756C18.9746 18.5125 18.9321 18.5638 18.8783 18.6249C18.7713 18.7465 18.6175 18.9094 18.4307 19.0734C18.0781 19.3831 17.5215 19.7741 16.8978 19.7686L16.9054 18.9353ZM18.7204 18.1627C18.6372 17.7545 18.6372 17.7545 18.6371 17.7545C18.6371 17.7545 18.637 17.7545 18.6369 17.7545C18.6368 17.7545 18.6368 17.7546 18.6367 17.7546C18.6366 17.7546 18.6365 17.7546 18.6365 17.7546C18.6365 17.7546 18.6367 17.7546 18.6372 17.7545C18.638 17.7543 18.6398 17.7539 18.6424 17.7534C18.6475 17.7522 18.6559 17.7503 18.6672 17.7477C18.6899 17.7423 18.724 17.7339 18.7664 17.7222C18.8518 17.6986 18.9678 17.6627 19.0912 17.6134C19.3618 17.5052 19.5733 17.3694 19.6572 17.2357L20.3629 17.6788C20.1282 18.0525 19.6949 18.2694 19.4003 18.3871C19.2411 18.4508 19.0945 18.4961 18.9879 18.5255C18.9343 18.5403 18.89 18.5513 18.8583 18.5588C18.8424 18.5625 18.8297 18.5654 18.8205 18.5674C18.8158 18.5684 18.8121 18.5692 18.8093 18.5698C18.8079 18.5701 18.8067 18.5703 18.8057 18.5705C18.8053 18.5706 18.8048 18.5707 18.8045 18.5708C18.8043 18.5708 18.8042 18.5709 18.804 18.5709C18.8039 18.5709 18.8038 18.5709 18.8038 18.5709C18.8037 18.571 18.8036 18.571 18.7204 18.1627ZM19.6572 17.2357C19.767 17.0609 19.8177 16.7697 19.8256 16.4662C19.8293 16.3242 19.8234 16.1965 19.8166 16.1043C19.8131 16.0585 19.8095 16.0222 19.8069 15.9981C19.8055 15.986 19.8045 15.9771 19.8038 15.9716C19.8034 15.9688 19.8032 15.967 19.803 15.966C19.803 15.9655 19.8029 15.9652 19.8029 15.9652C19.8029 15.9652 19.8029 15.9652 19.803 15.9653C19.803 15.9654 19.803 15.9655 19.803 15.9655C19.803 15.9656 19.803 15.9656 19.803 15.9657C19.803 15.9657 19.803 15.9658 20.2157 15.9084C20.6284 15.8509 20.6284 15.851 20.6285 15.8511C20.6285 15.8511 20.6285 15.8512 20.6285 15.8513C20.6285 15.8514 20.6285 15.8516 20.6285 15.8517C20.6286 15.8521 20.6286 15.8525 20.6287 15.853C20.6288 15.8539 20.629 15.8551 20.6292 15.8565C20.6296 15.8593 20.6301 15.8631 20.6306 15.8678C20.6318 15.8773 20.6334 15.8903 20.6352 15.9067C20.6388 15.9394 20.6433 15.9855 20.6476 16.042C20.656 16.1546 20.6633 16.3112 20.6587 16.4878C20.6499 16.8215 20.5978 17.3048 20.3629 17.6788L19.6572 17.2357ZM20.2157 15.9084C20.0821 15.5137 20.082 15.5138 20.0818 15.5138C20.0818 15.5138 20.0817 15.5139 20.0816 15.5139C20.0814 15.514 20.0812 15.514 20.0811 15.5141C20.0808 15.5142 20.0806 15.5142 20.0804 15.5143C20.08 15.5144 20.0798 15.5145 20.0799 15.5145C20.0799 15.5145 20.0808 15.5142 20.0823 15.5136C20.0855 15.5125 20.0915 15.5102 20.1002 15.5067C20.1175 15.4998 20.1451 15.4883 20.1801 15.4718C20.2507 15.4385 20.3492 15.386 20.4557 15.3117C20.6714 15.1613 20.8989 14.9363 21.0165 14.6176L21.7983 14.9059C21.6026 15.4362 21.2343 15.7845 20.9324 15.9951C20.7802 16.1013 20.6395 16.1764 20.5356 16.2254C20.4834 16.25 20.4399 16.2684 20.408 16.2811C20.392 16.2874 20.3789 16.2924 20.369 16.296C20.3641 16.2978 20.3599 16.2993 20.3566 16.3004C20.355 16.301 20.3536 16.3015 20.3523 16.3019C20.3517 16.3022 20.3512 16.3023 20.3507 16.3025C20.3504 16.3026 20.3502 16.3027 20.35 16.3028C20.3499 16.3028 20.3497 16.3029 20.3496 16.3029C20.3495 16.3029 20.3493 16.303 20.2157 15.9084ZM21.0165 14.6176C21.1486 14.2596 21.0949 13.9599 21.0079 13.7433C20.9637 13.6331 20.911 13.5455 20.8703 13.4867C20.8501 13.4576 20.8334 13.4362 20.823 13.4236C20.8178 13.4173 20.8143 13.4132 20.8128 13.4115C20.812 13.4106 20.8117 13.4103 20.812 13.4106C20.8122 13.4108 20.8124 13.4111 20.8129 13.4115C20.8131 13.4118 20.8133 13.412 20.8136 13.4123C20.8137 13.4125 20.8139 13.4127 20.8141 13.4128C20.8141 13.4129 20.8143 13.413 20.8143 13.4131C20.8144 13.4132 20.8146 13.4134 21.1183 13.1281C21.4221 12.8428 21.4222 12.8429 21.4224 12.8431C21.4224 12.8431 21.4226 12.8433 21.4227 12.8434C21.4229 12.8436 21.4231 12.8438 21.4233 12.8441C21.4237 12.8445 21.4242 12.8451 21.4247 12.8456C21.4258 12.8467 21.427 12.848 21.4283 12.8495C21.431 12.8525 21.4343 12.8561 21.4381 12.8605C21.4458 12.8692 21.4556 12.8807 21.4673 12.8949C21.4906 12.9232 21.5211 12.9626 21.5555 13.0123C21.6239 13.111 21.7093 13.2534 21.7813 13.4327C21.9267 13.7949 22.0174 14.3121 21.7983 14.9059L21.0165 14.6176ZM21.1183 13.1281C20.7475 12.9381 20.7475 12.9381 20.7475 12.9382C20.7475 12.9382 20.7475 12.9382 20.7475 12.9382C20.7475 12.9383 20.7474 12.9383 20.7474 12.9383C20.7474 12.9383 20.7475 12.9383 20.7475 12.9382C20.7476 12.938 20.7478 12.9376 20.7482 12.9369C20.7488 12.9356 20.7499 12.9334 20.7514 12.9304C20.7545 12.9243 20.7591 12.9149 20.7652 12.9025C20.7774 12.8776 20.7951 12.8408 20.8164 12.7947C20.8591 12.702 20.9152 12.574 20.9693 12.4316C21.0238 12.2881 21.0739 12.1365 21.1069 11.9958C21.1413 11.8492 21.1504 11.7422 21.1437 11.6774L21.9726 11.5912C21.9933 11.7909 21.9611 12.0027 21.9182 12.1858C21.8739 12.3747 21.8106 12.5635 21.7483 12.7274C21.6856 12.8923 21.6215 13.0386 21.5731 13.1434C21.5489 13.196 21.5284 13.2387 21.5137 13.2686C21.5064 13.2836 21.5005 13.2955 21.4963 13.3038C21.4942 13.308 21.4926 13.3113 21.4913 13.3137C21.4907 13.3149 21.4902 13.3158 21.4899 13.3166C21.4897 13.3169 21.4895 13.3172 21.4894 13.3175C21.4893 13.3176 21.4893 13.3177 21.4892 13.3178C21.4892 13.3179 21.4892 13.3179 21.4892 13.318C21.4891 13.318 21.4891 13.3181 21.1183 13.1281ZM21.1437 11.6774C21.1091 11.3445 20.9749 11.16 20.8673 11.0584C20.8107 11.0049 20.757 10.9705 20.7204 10.9505C20.7022 10.9405 20.6888 10.9345 20.6821 10.9316C20.6788 10.9302 20.6773 10.9296 20.6777 10.9298C20.678 10.9299 20.6787 10.9302 20.68 10.9306C20.6806 10.9309 20.6814 10.9311 20.6824 10.9315C20.6828 10.9316 20.6833 10.9318 20.6838 10.932C20.6841 10.9321 20.6844 10.9321 20.6847 10.9322C20.6848 10.9323 20.685 10.9324 20.6851 10.9324C20.6853 10.9325 20.6856 10.9325 20.8174 10.5372C20.9492 10.1419 20.9494 10.142 20.9496 10.1421C20.9497 10.1421 20.9499 10.1422 20.9501 10.1422C20.9504 10.1423 20.9508 10.1425 20.9511 10.1426C20.9518 10.1428 20.9525 10.1431 20.9533 10.1433C20.9549 10.1439 20.9566 10.1445 20.9584 10.1451C20.9622 10.1465 20.9666 10.1481 20.9716 10.1499C20.9816 10.1537 20.9941 10.1586 21.0088 10.1649C21.038 10.1773 21.076 10.195 21.1201 10.2191C21.2081 10.2672 21.3225 10.3419 21.4397 10.4526C21.6796 10.6793 21.9157 11.0434 21.9726 11.5912L21.1437 11.6774ZM20.8174 10.5372C20.4492 10.3423 20.4491 10.3424 20.449 10.3426C20.449 10.3426 20.4489 10.3427 20.4489 10.3428C20.4488 10.343 20.4487 10.3432 20.4486 10.3433C20.4485 10.3436 20.4484 10.3438 20.4483 10.3439C20.4482 10.3442 20.4481 10.3442 20.4483 10.344C20.4485 10.3435 20.4493 10.342 20.4505 10.3395C20.453 10.3345 20.4573 10.3256 20.463 10.3132C20.4744 10.2881 20.4911 10.2492 20.5096 10.1989C20.547 10.0975 20.5895 9.95534 20.6116 9.79258C20.6556 9.46768 20.6159 9.09336 20.3271 8.76789L20.9505 8.21475C21.4522 8.78016 21.5017 9.42881 21.4374 9.90414C21.4053 10.1415 21.3442 10.3438 21.2916 10.4868C21.2651 10.5587 21.2402 10.6169 21.2212 10.6586C21.2117 10.6794 21.2037 10.6962 21.1976 10.7086C21.1945 10.7147 21.1919 10.7198 21.1899 10.7238C21.1889 10.7258 21.188 10.7275 21.1873 10.7289C21.1869 10.7296 21.1866 10.7302 21.1863 10.7307C21.1862 10.731 21.186 10.7313 21.1859 10.7315C21.1858 10.7316 21.1857 10.7318 21.1857 10.7319C21.1856 10.732 21.1855 10.7322 20.8174 10.5372ZM20.3271 8.76789C20.2189 8.64589 19.9821 8.52646 19.7058 8.43459C19.5787 8.39233 19.461 8.36156 19.375 8.34139C19.3323 8.33137 19.298 8.32412 19.2751 8.31949C19.2636 8.31717 19.2551 8.31552 19.2497 8.31452C19.2471 8.31402 19.2452 8.31368 19.2442 8.3135C19.2437 8.31341 19.2434 8.31336 19.2434 8.31335C19.2433 8.31334 19.2434 8.31335 19.2434 8.31336C19.2435 8.31337 19.2435 8.31338 19.2436 8.31339C19.2436 8.3134 19.2437 8.31341 19.2437 8.31341C19.2438 8.31342 19.2439 8.31343 19.3162 7.90307C19.3885 7.49271 19.3885 7.49272 19.3886 7.49273C19.3886 7.49274 19.3887 7.49275 19.3888 7.49276C19.3889 7.49279 19.3891 7.49281 19.3892 7.49284C19.3895 7.49289 19.3899 7.49296 19.3903 7.49304C19.3912 7.49319 19.3923 7.49339 19.3936 7.49362C19.3962 7.4941 19.3997 7.49475 19.4041 7.49557C19.4128 7.49722 19.425 7.49957 19.4403 7.50264C19.4707 7.50879 19.5134 7.51787 19.5655 7.53007C19.6691 7.55438 19.812 7.59166 19.9689 7.64381C20.2604 7.74073 20.685 7.91542 20.9505 8.21475L20.3271 8.76789ZM19.3162 7.90307C18.9302 7.7461 18.9302 7.7462 18.9302 7.7463C18.9301 7.74633 18.9301 7.74642 18.9301 7.74647C18.93 7.74658 18.93 7.74668 18.93 7.74675C18.9299 7.74691 18.9299 7.74701 18.9299 7.74704C18.9298 7.74712 18.9299 7.74696 18.93 7.74656C18.9304 7.74578 18.931 7.74407 18.932 7.74149C18.934 7.73632 18.9373 7.72768 18.9416 7.71593C18.9501 7.69237 18.9625 7.65665 18.9763 7.61166C19.0044 7.5207 19.037 7.39674 19.0574 7.26157C19.1026 6.9614 19.0686 6.73691 18.9699 6.6213L19.6039 6.08025C19.9528 6.48908 19.9334 7.04073 19.8814 7.3856C19.8531 7.57295 19.8091 7.73874 19.7727 7.85688C19.7544 7.91645 19.7375 7.96513 19.725 7.99983C19.7187 8.01721 19.7134 8.03116 19.7095 8.04131C19.7075 8.04638 19.7059 8.05051 19.7047 8.05365C19.704 8.05521 19.7035 8.05653 19.7031 8.0576C19.7029 8.05813 19.7027 8.0586 19.7025 8.05901C19.7024 8.05921 19.7023 8.0594 19.7023 8.05957C19.7022 8.05966 19.7022 8.05977 19.7022 8.05982C19.7021 8.05993 19.7021 8.06004 19.3162 7.90307ZM18.9699 6.6213C18.6693 6.26908 18.0655 5.82227 17.4488 5.46569C17.1455 5.29031 16.854 5.14545 16.6139 5.05008C16.4937 5.0023 16.3933 4.96974 16.3153 4.95122C16.2297 4.93089 16.201 4.93483 16.2105 4.93356L16.1002 4.10759C16.2405 4.08882 16.386 4.11146 16.508 4.14043C16.6376 4.1712 16.7781 4.21853 16.9218 4.27562C17.2097 4.38999 17.5385 4.55483 17.8661 4.74426C18.5112 5.1173 19.2116 5.62059 19.6039 6.08025L18.9699 6.6213ZM16.2105 4.93356C15.9427 4.96938 15.7373 5.12568 15.5867 5.30196C15.5126 5.38861 15.4578 5.47345 15.4219 5.53609C15.4041 5.56709 15.3915 5.59178 15.3839 5.60736C15.3801 5.61513 15.3776 5.62055 15.3764 5.62327C15.3758 5.62463 15.3755 5.6253 15.3755 5.62525C15.3755 5.62523 15.3756 5.62502 15.3758 5.62462C15.3759 5.62442 15.376 5.62418 15.3761 5.62388C15.3762 5.62374 15.3762 5.62358 15.3763 5.62341C15.3763 5.62332 15.3764 5.62318 15.3764 5.62314C15.3765 5.623 15.3765 5.62286 14.9928 5.46067C14.609 5.29849 14.6091 5.29834 14.6091 5.29818C14.6092 5.29813 14.6092 5.29797 14.6093 5.29786C14.6094 5.29764 14.6095 5.29741 14.6096 5.29716C14.6098 5.29666 14.61 5.29612 14.6103 5.29552C14.6108 5.29432 14.6114 5.29292 14.6121 5.29131C14.6135 5.28811 14.6153 5.2841 14.6174 5.27934C14.6218 5.26983 14.6276 5.25728 14.635 5.24209C14.6498 5.21177 14.671 5.17064 14.6989 5.12199C14.7542 5.02531 14.838 4.89546 14.9532 4.76065C15.1811 4.494 15.557 4.18025 16.1002 4.10759L16.2105 4.93356ZM21.1183 13.1281C21.3981 13.4368 21.3981 13.4368 21.398 13.4368C21.398 13.4369 21.398 13.4369 21.3979 13.4369C21.3979 13.437 21.3978 13.4371 21.3977 13.4371C21.3975 13.4373 21.3973 13.4375 21.3971 13.4377C21.3967 13.4381 21.3961 13.4386 21.3954 13.4392C21.394 13.4404 21.3922 13.4421 21.3899 13.4441C21.3853 13.4482 21.379 13.4538 21.371 13.4608C21.3549 13.4748 21.3322 13.4944 21.3039 13.5181C21.2476 13.5651 21.1682 13.6292 21.0751 13.6976C20.8999 13.8264 20.6349 14.0019 20.3705 14.0829L20.1268 13.2861C20.2486 13.2488 20.4186 13.1461 20.5816 13.0262C20.6576 12.9704 20.7232 12.9175 20.7696 12.8787C20.7927 12.8594 20.8107 12.8438 20.8227 12.8334C20.8286 12.8282 20.833 12.8243 20.8357 12.8219C20.837 12.8207 20.838 12.8199 20.8385 12.8195C20.8387 12.8193 20.8388 12.8191 20.8388 12.8191C20.8389 12.8191 20.8388 12.8191 20.8388 12.8192C20.8388 12.8192 20.8387 12.8192 20.8387 12.8193C20.8387 12.8193 20.8386 12.8193 20.8386 12.8193C20.8386 12.8194 20.8386 12.8194 21.1183 13.1281ZM20.3705 14.0829C20.1568 14.1483 19.9 14.1651 19.7237 14.1696C19.6301 14.1721 19.5476 14.1712 19.4884 14.1697C19.4587 14.1689 19.4345 14.168 19.4173 14.1673C19.4087 14.1669 19.4019 14.1666 19.3969 14.1664C19.3945 14.1662 19.3925 14.1661 19.391 14.166C19.3902 14.166 19.3896 14.166 19.3891 14.1659C19.3889 14.1659 19.3887 14.1659 19.3885 14.1659C19.3884 14.1659 19.3883 14.1659 19.3882 14.1659C19.3882 14.1659 19.3881 14.1659 19.3881 14.1659C19.3881 14.1659 19.388 14.1659 19.4123 13.7499C19.4366 13.3339 19.4365 13.3339 19.4365 13.3339C19.4365 13.3339 19.4364 13.3339 19.4364 13.3339C19.4364 13.3339 19.4363 13.3339 19.4363 13.3339C19.4362 13.3339 19.4362 13.3339 19.4362 13.3339C19.4362 13.3339 19.4364 13.3339 19.4366 13.3339C19.4371 13.334 19.4381 13.334 19.4396 13.3341C19.4424 13.3342 19.4471 13.3345 19.4535 13.3347C19.4661 13.3353 19.4853 13.336 19.5095 13.3366C19.5582 13.3378 19.6261 13.3386 19.7025 13.3366C19.8661 13.3324 20.0275 13.3165 20.1268 13.2861L20.3705 14.0829ZM19.3162 7.90307C19.3551 8.3179 19.3552 8.31789 19.3553 8.31789C19.3553 8.31788 19.3553 8.31788 19.3554 8.31788C19.3554 8.31787 19.3555 8.31786 19.3555 8.31786C19.3556 8.31785 19.3556 8.31785 19.3556 8.31786C19.3555 8.31786 19.3552 8.31789 19.3547 8.31794C19.3538 8.31803 19.3519 8.31822 19.3493 8.31849C19.3441 8.31905 19.3357 8.31996 19.3245 8.32129C19.302 8.32394 19.2684 8.32822 19.2264 8.33444C19.1418 8.34695 19.0255 8.367 18.8984 8.39697C18.6238 8.46172 18.3764 8.5556 18.2507 8.66431L17.7056 8.03408C17.9953 7.78358 18.4169 7.65439 18.7074 7.58588C18.8629 7.54922 19.0032 7.5251 19.1046 7.51009C19.1556 7.50255 19.1973 7.49722 19.2269 7.49372C19.2417 7.49197 19.2536 7.49067 19.2621 7.48977C19.2663 7.48932 19.2697 7.48898 19.2723 7.48872C19.2735 7.4886 19.2746 7.48849 19.2754 7.48841C19.2758 7.48837 19.2762 7.48834 19.2765 7.48831C19.2766 7.4883 19.2768 7.48828 19.2769 7.48827C19.2769 7.48827 19.277 7.48826 19.277 7.48826C19.2771 7.48825 19.2772 7.48824 19.3162 7.90307ZM18.2507 8.66431C18.104 8.79119 17.9742 9.06984 17.8824 9.3941C17.84 9.54369 17.8112 9.68252 17.7931 9.78413C17.784 9.83465 17.7778 9.87524 17.7739 9.90249C17.7719 9.9161 17.7705 9.92633 17.7697 9.93274C17.7693 9.93595 17.769 9.9382 17.7689 9.93943C17.7688 9.94005 17.7687 9.94042 17.7687 9.94052C17.7687 9.94058 17.7687 9.94056 17.7687 9.94048C17.7687 9.94044 17.7687 9.94039 17.7687 9.94032C17.7687 9.94028 17.7688 9.94021 17.7688 9.94019C17.7688 9.94012 17.7688 9.94005 17.3549 9.89202C16.941 9.84399 16.941 9.84391 16.941 9.84382C16.941 9.84379 16.9411 9.84369 16.9411 9.84362C16.9411 9.84348 16.9411 9.84333 16.9411 9.84315C16.9412 9.8428 16.9412 9.84238 16.9413 9.8419C16.9414 9.84093 16.9415 9.83968 16.9417 9.83818C16.9421 9.83516 16.9426 9.83109 16.9433 9.82602C16.9446 9.81588 16.9465 9.80171 16.949 9.78397C16.9541 9.74852 16.9619 9.69859 16.9727 9.63781C16.9943 9.51683 17.0288 9.34998 17.0806 9.16721C17.177 8.82675 17.3589 8.33399 17.7056 8.03408L18.2507 8.66431ZM19.2869 6.35077C19.0869 6.71633 19.0869 6.71636 19.087 6.71638C19.087 6.71639 19.087 6.71641 19.087 6.71642C19.0871 6.71645 19.0871 6.71646 19.0871 6.71647C19.0871 6.71648 19.0871 6.71646 19.087 6.71641C19.0868 6.71631 19.0864 6.71608 19.0857 6.71573C19.0844 6.71502 19.0822 6.71381 19.0791 6.71215C19.0729 6.70883 19.0631 6.70368 19.0503 6.697C19.0245 6.68362 18.9864 6.66419 18.9387 6.64102C18.8428 6.59443 18.7109 6.53396 18.5653 6.47738C18.4183 6.42024 18.266 6.37045 18.1277 6.34136C17.9819 6.31068 17.8891 6.31122 17.8436 6.32135L17.6627 5.50793C17.879 5.4598 18.1087 5.48573 18.2996 5.52589C18.498 5.56765 18.6964 5.63418 18.8674 5.70064C19.0398 5.76765 19.1931 5.83807 19.303 5.89146C19.3582 5.91828 19.4031 5.94111 19.4347 5.9575C19.4504 5.96571 19.4629 5.97232 19.4718 5.97703C19.4762 5.97939 19.4797 5.98128 19.4822 5.98265C19.4835 5.98334 19.4845 5.9839 19.4853 5.98433C19.4857 5.98454 19.486 5.98472 19.4863 5.98487C19.4865 5.98495 19.4866 5.98501 19.4867 5.98507C19.4867 5.9851 19.4868 5.98513 19.4868 5.98515C19.4869 5.98518 19.4869 5.98521 19.2869 6.35077ZM17.8436 6.32135C17.7303 6.34657 17.5956 6.4567 17.4666 6.63603C17.4083 6.71711 17.3625 6.79667 17.3313 6.85625C17.3159 6.88569 17.3045 6.90935 17.2974 6.92472C17.2938 6.93239 17.2913 6.93792 17.29 6.941C17.2893 6.94254 17.2889 6.94346 17.2888 6.94372C17.2887 6.94385 17.2888 6.94381 17.2888 6.9436C17.2889 6.9435 17.2889 6.94336 17.289 6.94317C17.2891 6.94307 17.2891 6.94297 17.2892 6.94285C17.2892 6.94279 17.2892 6.9427 17.2892 6.94267C17.2893 6.94257 17.2893 6.94247 16.905 6.78171C16.5206 6.62096 16.5206 6.62085 16.5207 6.62074C16.5207 6.6207 16.5207 6.62059 16.5208 6.62051C16.5208 6.62035 16.5209 6.62017 16.521 6.61999C16.5212 6.61962 16.5213 6.6192 16.5215 6.61874C16.5219 6.61781 16.5224 6.6167 16.5229 6.61541C16.524 6.61284 16.5255 6.60954 16.5272 6.60557C16.5307 6.59764 16.5355 6.58698 16.5415 6.57396C16.5536 6.54797 16.5709 6.51227 16.5931 6.46973C16.6373 6.38535 16.7032 6.27048 16.7901 6.14968C16.9514 5.92527 17.2408 5.60186 17.6627 5.50793L17.8436 6.32135ZM14.9928 5.46067C15.4094 5.46375 15.4094 5.46376 15.4094 5.46377C15.4094 5.46378 15.4094 5.46379 15.4094 5.46381C15.4094 5.46385 15.4094 5.4639 15.4094 5.46398C15.4094 5.46413 15.4094 5.46435 15.4094 5.46465C15.4094 5.46524 15.4094 5.46614 15.4094 5.46733C15.4094 5.46971 15.4094 5.47327 15.4093 5.47798C15.4092 5.48742 15.4091 5.50148 15.409 5.51997C15.4087 5.55696 15.4083 5.6117 15.4078 5.68266C15.4067 5.8246 15.4052 6.03145 15.4034 6.2911C15.3997 6.81041 15.3948 7.54089 15.3896 8.38555L14.5563 8.38067C14.5615 7.5357 14.5664 6.80496 14.5701 6.28546C14.5719 6.0257 14.5734 5.81875 14.5745 5.67673C14.575 5.60572 14.5754 5.55095 14.5757 5.51392C14.5758 5.4954 14.5759 5.48133 14.576 5.47187C14.576 5.46715 14.5761 5.46358 14.5761 5.46119C14.5761 5.46 14.5761 5.4591 14.5761 5.4585C14.5761 5.45819 14.5761 5.45797 14.5761 5.45782C14.5761 5.45774 14.5761 5.45768 14.5761 5.45765C14.5761 5.45763 14.5761 5.45761 14.5761 5.4576C14.5761 5.45759 14.5761 5.45759 14.9928 5.46067ZM19.5261 10.9628C19.3324 11.2885 19.1231 11.5855 18.8502 11.7978C18.5616 12.0223 18.2279 12.1326 17.8269 12.1326L17.8272 11.2993C18.0589 11.2993 18.2086 11.2412 18.3387 11.14C18.4846 11.0266 18.6293 10.8406 18.8098 10.537L19.5261 10.9628ZM17.8026 12.1319C17.3006 12.1025 16.9368 11.9352 16.6935 11.763C16.5733 11.6779 16.4845 11.593 16.4235 11.5261C16.393 11.4926 16.3693 11.4634 16.3519 11.4406C16.3433 11.4292 16.3361 11.4193 16.3305 11.4113C16.3277 11.4073 16.3253 11.4038 16.3232 11.4007C16.3222 11.3992 16.3213 11.3978 16.3204 11.3965C16.32 11.3959 16.3196 11.3952 16.3192 11.3947C16.319 11.3944 16.3189 11.3941 16.3187 11.3938C16.3186 11.3937 16.3185 11.3935 16.3184 11.3934C16.3183 11.3932 16.3182 11.393 16.668 11.1666C17.0178 10.9401 17.0177 10.9399 17.0175 10.9397C17.0175 10.9396 17.0174 10.9395 17.0173 10.9393C17.0171 10.9391 17.017 10.9389 17.0168 10.9386C17.0165 10.9382 17.0163 10.9377 17.016 10.9373C17.0155 10.9365 17.015 10.9358 17.0146 10.9353C17.0138 10.9341 17.0133 10.9334 17.0131 10.9331C17.0126 10.9324 17.0133 10.9334 17.0151 10.9357C17.0187 10.9405 17.0269 10.9508 17.0398 10.965C17.0656 10.9934 17.11 11.0367 17.1751 11.0828C17.3026 11.1731 17.5184 11.2805 17.8515 11.3L17.8026 12.1319ZM18.7572 15.6802C18.7931 16.0953 18.7931 16.0953 18.7932 16.0953C18.7932 16.0953 18.7932 16.0953 18.7932 16.0953C18.7933 16.0953 18.7933 16.0953 18.7933 16.0953C18.7934 16.0953 18.7935 16.0953 18.7935 16.0953C18.7936 16.0953 18.7936 16.0953 18.7936 16.0953C18.7936 16.0953 18.7933 16.0953 18.7929 16.0954C18.792 16.0955 18.7903 16.0956 18.7878 16.0959C18.7828 16.0963 18.7748 16.0972 18.7641 16.0984C18.7426 16.1008 18.7103 16.1047 18.6698 16.1104C18.5885 16.122 18.4766 16.1407 18.3544 16.1692L18.1655 15.3576C18.3171 15.3223 18.4538 15.2995 18.5527 15.2854C18.6023 15.2783 18.643 15.2734 18.6719 15.2702C18.6864 15.2686 18.698 15.2674 18.7063 15.2665C18.7105 15.2661 18.7138 15.2658 18.7163 15.2656C18.7176 15.2655 18.7186 15.2654 18.7195 15.2653C18.7199 15.2653 18.7202 15.2652 18.7205 15.2652C18.7207 15.2652 18.7208 15.2652 18.721 15.2652C18.721 15.2652 18.7211 15.2652 18.7211 15.2651C18.7212 15.2651 18.7212 15.2651 18.7212 15.2651C18.7212 15.2651 18.7213 15.2651 18.7572 15.6802ZM18.3544 16.1692C18.0809 16.2329 17.8426 16.3264 17.7288 16.4321L17.1619 15.8214C17.4483 15.5555 17.8775 15.4247 18.1655 15.3576L18.3544 16.1692ZM17.2757 15.7462L18.0903 15.3829L18.4296 16.1439L17.6149 16.5073L17.2757 15.7462ZM18.26 15.7634C17.8434 15.7558 17.8434 15.7559 17.8434 15.7559C17.8434 15.7559 17.8434 15.756 17.8434 15.756C17.8434 15.7561 17.8434 15.7562 17.8434 15.7562C17.8433 15.7563 17.8433 15.7563 17.8433 15.7563C17.8434 15.7562 17.8434 15.7559 17.8434 15.7553C17.8434 15.7542 17.8434 15.7522 17.8434 15.7493C17.8435 15.7435 17.8435 15.7342 17.8434 15.7218C17.8432 15.697 17.8426 15.6599 17.8409 15.6134C17.8373 15.52 17.8291 15.3913 17.8109 15.2502C17.7714 14.9456 17.6948 14.6687 17.5845 14.5231L18.2487 14.0196C18.5005 14.3519 18.5956 14.821 18.6373 15.143C18.6596 15.3152 18.6694 15.4699 18.6736 15.5816C18.6757 15.6376 18.6765 15.6835 18.6767 15.716C18.6768 15.7323 18.6768 15.7452 18.6767 15.7545C18.6767 15.7592 18.6767 15.7629 18.6766 15.7657C18.6766 15.7671 18.6766 15.7682 18.6766 15.7691C18.6766 15.7695 18.6766 15.7699 18.6766 15.7703C18.6766 15.7704 18.6766 15.7706 18.6766 15.7707C18.6766 15.7708 18.6766 15.7708 18.6766 15.7709C18.6766 15.771 18.6766 15.771 18.26 15.7634ZM17.5845 14.5231C17.4145 14.2988 17.1431 14.0725 16.8931 13.8931C16.7717 13.806 16.6623 13.7348 16.5836 13.6856C16.5443 13.661 16.513 13.6421 16.4919 13.6296C16.4814 13.6234 16.4734 13.6188 16.4684 13.6158C16.4659 13.6144 16.4641 13.6133 16.4631 13.6128C16.4626 13.6125 16.4622 13.6123 16.4621 13.6122C16.462 13.6122 16.462 13.6122 16.4621 13.6122C16.4621 13.6122 16.4621 13.6122 16.4622 13.6122C16.4622 13.6122 16.4622 13.6123 16.4622 13.6123C16.4623 13.6123 16.4623 13.6123 16.668 13.2499C16.8736 12.8875 16.8737 12.8875 16.8737 12.8875C16.8738 12.8875 16.8738 12.8876 16.8739 12.8876C16.8739 12.8876 16.8741 12.8877 16.8742 12.8878C16.8744 12.8879 16.8747 12.8881 16.875 12.8883C16.8757 12.8886 16.8766 12.8891 16.8777 12.8898C16.8798 12.891 16.8827 12.8927 16.8864 12.8948C16.8938 12.8991 16.9041 12.9051 16.9172 12.9129C16.9433 12.9283 16.9802 12.9506 17.0254 12.9789C17.1157 13.0354 17.2404 13.1165 17.3791 13.2161C17.6493 13.41 18.0022 13.6944 18.2487 14.0196L17.5845 14.5231ZM15.3896 8.38555C15.3767 10.4946 15.3623 13.3141 15.3631 15.336L14.5298 15.3366C14.529 13.3117 14.5433 10.4897 14.5563 8.38067L15.3896 8.38555ZM15.3631 15.336C15.3636 16.5305 15.3695 17.4337 15.3834 17.7537L14.5508 17.7901C14.5359 17.4476 14.5303 16.5223 14.5298 15.3366L15.3631 15.336ZM14.9465 15.3363C15.1357 14.965 15.1357 14.965 15.1356 14.965C15.1356 14.965 15.1355 14.9649 15.1355 14.9649C15.1354 14.9649 15.1353 14.9649 15.1353 14.9648C15.1351 14.9648 15.135 14.9647 15.135 14.9647C15.1348 14.9646 15.1348 14.9646 15.1348 14.9646C15.1349 14.9646 15.1354 14.9649 15.1362 14.9653C15.1378 14.9661 15.1409 14.9676 15.1453 14.9697C15.1542 14.9739 15.1681 14.9805 15.186 14.9884C15.2223 15.0044 15.2726 15.0251 15.3289 15.0441C15.3862 15.0634 15.4429 15.0788 15.493 15.087C15.5177 15.0911 15.5377 15.0929 15.553 15.0933C15.5606 15.0934 15.5663 15.0933 15.5703 15.093C15.5743 15.0927 15.5761 15.0923 15.5759 15.0924L15.7308 15.9112C15.4778 15.9591 15.2118 15.8842 15.0619 15.8336C14.9763 15.8046 14.9022 15.7741 14.8495 15.7508C14.8229 15.7391 14.8011 15.7289 14.7855 15.7214C14.7776 15.7177 14.7712 15.7146 14.7665 15.7122C14.7641 15.711 14.7621 15.7101 14.7606 15.7093C14.7598 15.7089 14.7591 15.7085 14.7586 15.7083C14.7583 15.7081 14.758 15.708 14.7578 15.7079C14.7577 15.7078 14.7576 15.7078 14.7575 15.7077C14.7574 15.7077 14.7574 15.7076 14.7573 15.7076C14.7573 15.7076 14.7572 15.7076 14.9465 15.3363ZM15.5759 15.0924C15.5663 15.0942 15.5914 15.0898 15.6534 15.0459C15.7093 15.0063 15.7709 14.9522 15.8317 14.8919C15.8913 14.8327 15.9438 14.7741 15.9817 14.7298C16.0004 14.7079 16.0151 14.69 16.0247 14.6781C16.0295 14.6722 16.033 14.6677 16.0352 14.665C16.0362 14.6637 16.0369 14.6628 16.0373 14.6623C16.0375 14.6621 16.0375 14.662 16.0375 14.662C16.0375 14.662 16.0375 14.6621 16.0374 14.6622C16.0374 14.6622 16.0374 14.6622 16.0373 14.6623C16.0373 14.6623 16.0373 14.6624 16.0373 14.6624C16.0372 14.6624 16.0372 14.6625 16.3668 14.9172C16.6964 15.172 16.6964 15.1721 16.6964 15.1721C16.6963 15.1722 16.6963 15.1722 16.6963 15.1723C16.6962 15.1723 16.6961 15.1724 16.6961 15.1725C16.6959 15.1727 16.6957 15.173 16.6955 15.1732C16.6951 15.1737 16.6946 15.1744 16.694 15.1752C16.6928 15.1767 16.6912 15.1788 16.6892 15.1813C16.6852 15.1864 16.6797 15.1933 16.6727 15.2018C16.6589 15.2189 16.6394 15.2427 16.6152 15.271C16.5671 15.3273 16.4987 15.4039 16.4183 15.4836C16.339 15.5622 16.2414 15.6505 16.1348 15.726C16.0344 15.7971 15.8936 15.8803 15.7308 15.9112L15.5759 15.0924Z" fill="#4B54B9"/>
<path d="M14.7859 19.9912L14.7658 20.4074L14.7859 19.9912ZM13.3242 19.293C13.0707 19.6236 13.0707 19.6237 13.0708 19.6237C13.0708 19.6237 13.0709 19.6238 13.0709 19.6238C13.071 19.6239 13.0711 19.624 13.0712 19.624C13.0715 19.6242 13.0718 19.6245 13.0721 19.6247C13.0728 19.6252 13.0737 19.6259 13.0748 19.6268C13.077 19.6285 13.0801 19.6308 13.084 19.6337C13.0917 19.6395 13.1026 19.6476 13.1164 19.6577C13.144 19.678 13.1834 19.7064 13.2323 19.7403C13.3296 19.8079 13.4664 19.8987 13.6239 19.9909C13.917 20.1626 14.3604 20.3878 14.7658 20.4074L14.8061 19.5751C14.6233 19.5662 14.3358 19.4422 14.0451 19.2719C13.9107 19.1932 13.7923 19.1147 13.7075 19.0558C13.6653 19.0265 13.6318 19.0023 13.6094 18.9859C13.5982 18.9776 13.5898 18.9714 13.5844 18.9673C13.5817 18.9653 13.5798 18.9639 13.5787 18.963C13.5781 18.9626 13.5777 18.9623 13.5776 18.9622C13.5775 18.9621 13.5775 18.9621 13.5775 18.9621C13.5775 18.9621 13.5776 18.9622 13.5776 18.9622C13.5776 18.9622 13.5777 18.9622 13.5777 18.9622C13.5777 18.9623 13.5778 18.9623 13.3242 19.293ZM14.7658 20.4074C15.3364 20.4351 15.843 20.2184 16.1862 20.019C16.3614 19.9171 16.504 19.814 16.6035 19.7359C16.6534 19.6967 16.693 19.6633 16.7209 19.6389C16.7349 19.6267 16.7461 19.6167 16.7542 19.6093C16.7582 19.6056 16.7615 19.6026 16.7641 19.6002C16.7653 19.5991 16.7664 19.5981 16.7673 19.5972C16.7677 19.5968 16.7681 19.5965 16.7684 19.5961C16.7686 19.596 16.7688 19.5958 16.7689 19.5957C16.769 19.5956 16.7691 19.5955 16.7691 19.5955C16.7692 19.5954 16.7693 19.5953 16.4826 19.293C16.1959 18.9906 16.196 18.9905 16.1961 18.9905C16.1961 18.9904 16.1962 18.9904 16.1962 18.9903C16.1963 18.9902 16.1964 18.9901 16.1965 18.9901C16.1966 18.9899 16.1967 18.9898 16.1968 18.9898C16.1969 18.9897 16.1968 18.9897 16.1966 18.99C16.1961 18.9904 16.1949 18.9915 16.193 18.9933C16.1892 18.9967 16.1826 19.0027 16.1734 19.0107C16.155 19.0267 16.1263 19.051 16.0885 19.0807C16.0125 19.1404 15.9023 19.2202 15.7675 19.2984C15.4908 19.4592 15.149 19.5917 14.8061 19.5751L14.7658 20.4074Z" fill="#4B54B9"/>
<path d="M35.4915 9.152C35.6275 9.224 35.7035 9.332 35.7195 9.476C35.7435 9.62 35.7075 9.752 35.6115 9.872C35.5395 9.976 35.4475 10.032 35.3355 10.04C35.2235 10.048 35.1115 10.024 34.9995 9.968C34.7355 9.808 34.4515 9.684 34.1475 9.596C33.8435 9.5 33.5235 9.452 33.1875 9.452C32.7155 9.452 32.2835 9.536 31.8915 9.704C31.4995 9.864 31.1595 10.092 30.8715 10.388C30.5835 10.684 30.3595 11.036 30.1995 11.444C30.0395 11.852 29.9595 12.304 29.9595 12.8C29.9595 13.328 30.0435 13.8 30.2115 14.216C30.3795 14.632 30.6075 14.988 30.8955 15.284C31.1915 15.572 31.5315 15.792 31.9155 15.944C32.3075 16.096 32.7315 16.172 33.1875 16.172C33.5155 16.172 33.8315 16.128 34.1355 16.04C34.4395 15.952 34.7275 15.824 34.9995 15.656C35.1115 15.6 35.2235 15.58 35.3355 15.596C35.4475 15.612 35.5435 15.668 35.6235 15.764C35.7195 15.892 35.7555 16.028 35.7315 16.172C35.7075 16.308 35.6315 16.408 35.5035 16.472C35.3035 16.592 35.0755 16.704 34.8195 16.808C34.5635 16.904 34.2955 16.98 34.0155 17.036C33.7435 17.092 33.4675 17.12 33.1875 17.12C32.6115 17.12 32.0675 17.02 31.5555 16.82C31.0435 16.62 30.5915 16.332 30.1995 15.956C29.8075 15.58 29.4955 15.128 29.2635 14.6C29.0395 14.064 28.9275 13.464 28.9275 12.8C28.9275 12.176 29.0355 11.604 29.2515 11.084C29.4675 10.564 29.7675 10.112 30.1515 9.728C30.5435 9.344 30.9955 9.044 31.5075 8.828C32.0275 8.612 32.5875 8.504 33.1875 8.504C33.6035 8.504 34.0075 8.56 34.3995 8.672C34.7995 8.784 35.1635 8.944 35.4915 9.152ZM44.1019 13.88C44.1019 14.504 43.9619 15.06 43.6819 15.548C43.4099 16.036 43.0379 16.42 42.5659 16.7C42.1019 16.98 41.5779 17.12 40.9939 17.12C40.4099 17.12 39.8819 16.98 39.4099 16.7C38.9379 16.42 38.5619 16.036 38.2819 15.548C38.0099 15.06 37.8739 14.504 37.8739 13.88C37.8739 13.256 38.0099 12.7 38.2819 12.212C38.5619 11.724 38.9379 11.34 39.4099 11.06C39.8819 10.78 40.4099 10.64 40.9939 10.64C41.5779 10.64 42.1019 10.78 42.5659 11.06C43.0379 11.34 43.4099 11.724 43.6819 12.212C43.9619 12.7 44.1019 13.256 44.1019 13.88ZM43.1419 13.88C43.1419 13.416 43.0459 13.008 42.8539 12.656C42.6699 12.304 42.4139 12.028 42.0859 11.828C41.7659 11.628 41.4019 11.528 40.9939 11.528C40.5859 11.528 40.2179 11.628 39.8899 11.828C39.5699 12.028 39.3139 12.304 39.1219 12.656C38.9299 13.008 38.8339 13.416 38.8339 13.88C38.8339 14.336 38.9299 14.74 39.1219 15.092C39.3139 15.444 39.5699 15.724 39.8899 15.932C40.2179 16.132 40.5859 16.232 40.9939 16.232C41.4019 16.232 41.7659 16.132 42.0859 15.932C42.4139 15.724 42.6699 15.444 42.8539 15.092C43.0459 14.74 43.1419 14.336 43.1419 13.88ZM49.3498 10.64C49.6938 10.64 50.0138 10.7 50.3098 10.82C50.6058 10.932 50.8618 11.08 51.0778 11.264C51.3018 11.448 51.4738 11.64 51.5938 11.84C51.7218 12.04 51.7858 12.228 51.7858 12.404L51.5578 12.26V11.216C51.5578 11.08 51.6018 10.968 51.6898 10.88C51.7778 10.784 51.8938 10.736 52.0378 10.736C52.1738 10.736 52.2858 10.784 52.3738 10.88C52.4698 10.968 52.5178 11.08 52.5178 11.216V16.472C52.5178 17.128 52.3778 17.672 52.0978 18.104C51.8258 18.536 51.4578 18.86 50.9938 19.076C50.5298 19.292 50.0098 19.4 49.4338 19.4C49.1938 19.4 48.9298 19.368 48.6418 19.304C48.3538 19.24 48.0978 19.16 47.8738 19.064C47.6498 18.976 47.5058 18.884 47.4418 18.788C47.3218 18.708 47.2458 18.616 47.2138 18.512C47.1898 18.416 47.2098 18.324 47.2738 18.236C47.3458 18.124 47.4378 18.068 47.5498 18.068C47.6698 18.068 47.8178 18.104 47.9938 18.176C48.0658 18.2 48.1778 18.24 48.3298 18.296C48.4898 18.352 48.6658 18.4 48.8578 18.44C49.0578 18.488 49.2538 18.512 49.4458 18.512C50.1258 18.512 50.6458 18.332 51.0058 17.972C51.3738 17.62 51.5578 17.152 51.5578 16.568V15.452L51.6898 15.512C51.6418 15.736 51.5418 15.944 51.3898 16.136C51.2458 16.328 51.0658 16.5 50.8498 16.652C50.6418 16.796 50.4098 16.912 50.1538 17C49.8978 17.08 49.6378 17.12 49.3738 17.12C48.8138 17.12 48.3098 16.98 47.8618 16.7C47.4138 16.42 47.0578 16.036 46.7938 15.548C46.5378 15.06 46.4098 14.504 46.4098 13.88C46.4098 13.248 46.5378 12.688 46.7938 12.2C47.0578 11.712 47.4098 11.332 47.8498 11.06C48.2978 10.78 48.7978 10.64 49.3498 10.64ZM49.4698 11.528C49.0618 11.528 48.6938 11.632 48.3658 11.84C48.0458 12.04 47.7938 12.316 47.6098 12.668C47.4338 13.02 47.3458 13.424 47.3458 13.88C47.3458 14.32 47.4338 14.72 47.6098 15.08C47.7938 15.432 48.0458 15.712 48.3658 15.92C48.6938 16.128 49.0618 16.232 49.4698 16.232C49.8858 16.232 50.2538 16.132 50.5738 15.932C50.8938 15.724 51.1458 15.444 51.3298 15.092C51.5138 14.74 51.6058 14.336 51.6058 13.88C51.6058 13.416 51.5138 13.008 51.3298 12.656C51.1458 12.304 50.8938 12.028 50.5738 11.828C50.2538 11.628 49.8858 11.528 49.4698 11.528ZM58.5767 10.64C59.1207 10.64 59.5487 10.752 59.8607 10.976C60.1727 11.2 60.3927 11.5 60.5207 11.876C60.6567 12.252 60.7247 12.672 60.7247 13.136V16.508C60.7247 16.644 60.6767 16.76 60.5807 16.856C60.4927 16.952 60.3807 17 60.2447 17C60.1087 17 59.9927 16.952 59.8967 16.856C59.8087 16.76 59.7647 16.644 59.7647 16.508V13.16C59.7647 12.856 59.7167 12.584 59.6207 12.344C59.5327 12.096 59.3807 11.9 59.1647 11.756C58.9567 11.604 58.6687 11.528 58.3007 11.528C57.9647 11.528 57.6567 11.604 57.3767 11.756C57.0967 11.9 56.8727 12.096 56.7047 12.344C56.5367 12.584 56.4527 12.856 56.4527 13.16V16.508C56.4527 16.644 56.4047 16.76 56.3087 16.856C56.2207 16.952 56.1087 17 55.9727 17C55.8367 17 55.7207 16.952 55.6247 16.856C55.5367 16.76 55.4927 16.644 55.4927 16.508V11.276C55.4927 11.14 55.5367 11.028 55.6247 10.94C55.7207 10.844 55.8367 10.796 55.9727 10.796C56.1167 10.796 56.2327 10.844 56.3207 10.94C56.4087 11.028 56.4527 11.14 56.4527 11.276V12.128L56.2127 12.392C56.2527 12.184 56.3447 11.976 56.4887 11.768C56.6327 11.552 56.8127 11.36 57.0287 11.192C57.2447 11.024 57.4847 10.892 57.7487 10.796C58.0127 10.692 58.2887 10.64 58.5767 10.64ZM64.6245 16.508C64.6245 16.644 64.5765 16.76 64.4805 16.856C64.3925 16.952 64.2805 17 64.1445 17C64.0005 17 63.8845 16.952 63.7965 16.856C63.7085 16.76 63.6645 16.644 63.6645 16.508V11.18C63.6645 11.044 63.7085 10.932 63.7965 10.844C63.8925 10.748 64.0085 10.7 64.1445 10.7C64.2805 10.7 64.3925 10.748 64.4805 10.844C64.5765 10.932 64.6245 11.044 64.6245 11.18V16.508ZM64.1445 9.896C63.9445 9.896 63.7965 9.856 63.7005 9.776C63.6045 9.696 63.5565 9.572 63.5565 9.404V9.236C63.5565 9.068 63.6085 8.944 63.7125 8.864C63.8165 8.784 63.9645 8.744 64.1565 8.744C64.3485 8.744 64.4925 8.784 64.5885 8.864C64.6845 8.944 64.7325 9.068 64.7325 9.236V9.404C64.7325 9.572 64.6805 9.696 64.5765 9.776C64.4805 9.856 64.3365 9.896 64.1445 9.896ZM67.3089 10.832H70.1289C70.2569 10.832 70.3609 10.876 70.4409 10.964C70.5289 11.052 70.5729 11.156 70.5729 11.276C70.5729 11.404 70.5289 11.512 70.4409 11.6C70.3609 11.68 70.2569 11.72 70.1289 11.72H67.3089C67.1889 11.72 67.0849 11.676 66.9969 11.588C66.9089 11.5 66.8649 11.392 66.8649 11.264C66.8649 11.144 66.9089 11.044 66.9969 10.964C67.0849 10.876 67.1889 10.832 67.3089 10.832ZM68.5689 9.2C68.7049 9.2 68.8169 9.248 68.9049 9.344C68.9929 9.432 69.0369 9.544 69.0369 9.68V15.476C69.0369 15.668 69.0649 15.812 69.1209 15.908C69.1769 16.004 69.2489 16.072 69.3369 16.112C69.4329 16.144 69.5249 16.16 69.6129 16.16C69.6929 16.16 69.7609 16.148 69.8169 16.124C69.8809 16.092 69.9529 16.076 70.0329 16.076C70.1129 16.076 70.1849 16.116 70.2489 16.196C70.3209 16.268 70.3569 16.364 70.3569 16.484C70.3569 16.628 70.2729 16.752 70.1049 16.856C69.9369 16.952 69.7489 17 69.5409 17C69.4289 17 69.2889 16.992 69.1209 16.976C68.9609 16.96 68.8009 16.908 68.6409 16.82C68.4809 16.732 68.3449 16.588 68.2329 16.388C68.1289 16.18 68.0769 15.892 68.0769 15.524V9.68C68.0769 9.544 68.1249 9.432 68.2209 9.344C68.3169 9.248 68.4329 9.2 68.5689 9.2ZM74.0323 16.508C74.0323 16.644 73.9843 16.76 73.8883 16.856C73.8003 16.952 73.6883 17 73.5523 17C73.4083 17 73.2923 16.952 73.2043 16.856C73.1163 16.76 73.0723 16.644 73.0723 16.508V11.18C73.0723 11.044 73.1163 10.932 73.2043 10.844C73.3003 10.748 73.4163 10.7 73.5523 10.7C73.6883 10.7 73.8003 10.748 73.8883 10.844C73.9843 10.932 74.0323 11.044 74.0323 11.18V16.508ZM73.5523 9.896C73.3523 9.896 73.2043 9.856 73.1083 9.776C73.0123 9.696 72.9643 9.572 72.9643 9.404V9.236C72.9643 9.068 73.0163 8.944 73.1203 8.864C73.2243 8.784 73.3723 8.744 73.5643 8.744C73.7563 8.744 73.9003 8.784 73.9963 8.864C74.0923 8.944 74.1403 9.068 74.1403 9.236V9.404C74.1403 9.572 74.0883 9.696 73.9843 9.776C73.8883 9.856 73.7443 9.896 73.5523 9.896ZM82.8488 13.88C82.8488 14.504 82.7088 15.06 82.4288 15.548C82.1568 16.036 81.7848 16.42 81.3128 16.7C80.8488 16.98 80.3248 17.12 79.7408 17.12C79.1568 17.12 78.6288 16.98 78.1568 16.7C77.6848 16.42 77.3088 16.036 77.0288 15.548C76.7568 15.06 76.6208 14.504 76.6208 13.88C76.6208 13.256 76.7568 12.7 77.0288 12.212C77.3088 11.724 77.6848 11.34 78.1568 11.06C78.6288 10.78 79.1568 10.64 79.7408 10.64C80.3248 10.64 80.8488 10.78 81.3128 11.06C81.7848 11.34 82.1568 11.724 82.4288 12.212C82.7088 12.7 82.8488 13.256 82.8488 13.88ZM81.8888 13.88C81.8888 13.416 81.7928 13.008 81.6008 12.656C81.4168 12.304 81.1608 12.028 80.8328 11.828C80.5128 11.628 80.1488 11.528 79.7408 11.528C79.3328 11.528 78.9648 11.628 78.6368 11.828C78.3168 12.028 78.0608 12.304 77.8688 12.656C77.6768 13.008 77.5808 13.416 77.5808 13.88C77.5808 14.336 77.6768 14.74 77.8688 15.092C78.0608 15.444 78.3168 15.724 78.6368 15.932C78.9648 16.132 79.3328 16.232 79.7408 16.232C80.1488 16.232 80.5128 16.132 80.8328 15.932C81.1608 15.724 81.4168 15.444 81.6008 15.092C81.7928 14.74 81.8888 14.336 81.8888 13.88ZM88.5767 10.64C89.1207 10.64 89.5487 10.752 89.8607 10.976C90.1727 11.2 90.3927 11.5 90.5207 11.876C90.6567 12.252 90.7247 12.672 90.7247 13.136V16.508C90.7247 16.644 90.6767 16.76 90.5807 16.856C90.4927 16.952 90.3807 17 90.2447 17C90.1087 17 89.9927 16.952 89.8967 16.856C89.8087 16.76 89.7647 16.644 89.7647 16.508V13.16C89.7647 12.856 89.7167 12.584 89.6207 12.344C89.5327 12.096 89.3807 11.9 89.1647 11.756C88.9567 11.604 88.6687 11.528 88.3007 11.528C87.9647 11.528 87.6567 11.604 87.3767 11.756C87.0967 11.9 86.8727 12.096 86.7047 12.344C86.5367 12.584 86.4527 12.856 86.4527 13.16V16.508C86.4527 16.644 86.4047 16.76 86.3087 16.856C86.2207 16.952 86.1087 17 85.9727 17C85.8367 17 85.7207 16.952 85.6247 16.856C85.5367 16.76 85.4927 16.644 85.4927 16.508V11.276C85.4927 11.14 85.5367 11.028 85.6247 10.94C85.7207 10.844 85.8367 10.796 85.9727 10.796C86.1167 10.796 86.2327 10.844 86.3207 10.94C86.4087 11.028 86.4527 11.14 86.4527 11.276V12.128L86.2127 12.392C86.2527 12.184 86.3447 11.976 86.4887 11.768C86.6327 11.552 86.8127 11.36 87.0287 11.192C87.2447 11.024 87.4847 10.892 87.7487 10.796C88.0127 10.692 88.2887 10.64 88.5767 10.64Z" fill="#4B54B9"/>
<rect x="0.625" y="0.625" width="97.75" height="22.75" rx="11.375" stroke="#4B54B9" stroke-width="0.75"/>
</svg>
