<svg width="128" height="24" viewBox="0 0 128 24" fill="none" xmlns="http://www.w3.org/2000/svg">
<path d="M12.778 19.6199L12.7779 20.0366C12.5478 20.0366 12.3613 19.85 12.3613 19.62L12.778 19.6199ZM12.7779 18.2072L12.3613 18.2073L12.3613 18.198L12.3617 18.1888L12.7779 18.2072ZM12.9619 14.0576L12.6284 13.808C12.7379 13.6616 12.9301 13.6037 13.1022 13.6653C13.2744 13.7268 13.3863 13.8934 13.3782 14.076L12.9619 14.0576ZM11.5741 15.9117L11.2012 16.0978C11.1309 15.9568 11.1461 15.7882 11.2405 15.662L11.5741 15.9117ZM12.4993 17.7658L12.8722 17.5797L12.4993 17.7658ZM17.2552 19.2032C17.4853 19.2032 17.6718 19.3898 17.6718 19.6199C17.6717 19.85 17.4852 20.0366 17.2551 20.0366L17.2552 19.2032ZM12.3613 19.62L12.3613 18.2073L13.1946 18.2071L13.1946 19.6198L12.3613 19.62ZM12.3617 18.1888L12.5457 14.0392L13.3782 14.076L13.1942 18.2256L12.3617 18.1888ZM13.2955 14.3073L11.9076 16.1613L11.2405 15.662L12.6284 13.808L13.2955 14.3073ZM11.9469 15.7256L12.8722 17.5797L12.1265 17.9519L11.2012 16.0978L11.9469 15.7256ZM12.4993 17.7658C12.8722 17.5797 12.8722 17.5798 12.8723 17.58C12.8723 17.58 12.8724 17.5802 12.8725 17.5803C12.8726 17.5805 12.8727 17.5808 12.8728 17.581C12.8731 17.5815 12.8734 17.5821 12.8737 17.5827C12.8743 17.584 12.875 17.5854 12.8758 17.5871C12.8775 17.5906 12.8795 17.5949 12.882 17.6001C12.8868 17.6106 12.8932 17.6246 12.9007 17.642C12.9158 17.6767 12.9354 17.7251 12.9569 17.7852C12.9996 17.9049 13.0501 18.074 13.0838 18.2768C13.151 18.6804 13.1547 19.2398 12.8721 19.8059L12.1265 19.4339C12.3067 19.0729 12.3103 18.7053 12.2618 18.4136C12.2377 18.2688 12.2015 18.1481 12.1719 18.0651C12.1572 18.0238 12.1444 17.9925 12.1359 17.9729C12.1317 17.9631 12.1285 17.9563 12.1269 17.9527C12.126 17.9509 12.1256 17.9499 12.1255 17.9498C12.1254 17.9497 12.1255 17.9499 12.1257 17.9502C12.1258 17.9504 12.1259 17.9506 12.126 17.9509C12.1261 17.951 12.1262 17.9512 12.1262 17.9513C12.1263 17.9514 12.1264 17.9516 12.1264 17.9516C12.1264 17.9517 12.1265 17.9519 12.4993 17.7658ZM12.778 19.2032L17.2552 19.2032L17.2551 20.0366L12.7779 20.0366L12.778 19.2032Z" fill="#4B54B9"/>
<path d="M16.1788 9.02369C16.1788 9.74532 15.5952 10.329 14.8769 10.329C14.1585 10.329 13.5749 9.74532 13.5749 9.02369C13.5749 8.30206 14.1585 7.71842 14.8769 7.71842C15.5952 7.71842 16.1788 8.30206 16.1788 9.02369Z" stroke="#4B54B9" stroke-width="0.833333"/>
<path d="M11.305 12.8769L11.6303 13.1371L11.305 12.8769ZM12.3886 19.6591L12.1149 19.345L12.3886 19.6591ZM11.5737 19.6202L11.2758 19.9117L11.2758 19.9117L11.5737 19.6202ZM9.30903 16.0324L9.72554 16.0364L9.30903 16.0324ZM13.2544 11.511L13.2574 11.9278L13.254 11.9278L13.2544 11.511ZM13.0581 18.8581C13.2664 19.1825 13.1057 19.4913 12.9986 19.6359C12.8915 19.7804 12.7356 19.909 12.6622 19.9731L12.1149 19.345C12.165 19.3013 12.2063 19.2662 12.2473 19.2277C12.2877 19.1896 12.314 19.1608 12.3295 19.1398C12.3468 19.1166 12.335 19.1239 12.3285 19.1582C12.3247 19.178 12.3231 19.2048 12.3287 19.2353C12.3343 19.2662 12.3457 19.2914 12.3571 19.3092L13.0581 18.8581ZM12.6622 19.9731C12.4524 20.1561 12.1724 20.2027 11.9545 20.1917C11.7358 20.1808 11.466 20.1064 11.2758 19.9117L11.8716 19.3286C11.8654 19.3222 11.8703 19.3298 11.8973 19.3399C11.923 19.3496 11.9578 19.3572 11.997 19.3592C12.0362 19.3612 12.0705 19.357 12.0952 19.3503C12.1211 19.3433 12.1239 19.3372 12.1149 19.345L12.6622 19.9731ZM11.2758 19.9117C11.1595 19.7927 10.9524 19.5001 10.7327 19.1752C10.5015 18.8332 10.2263 18.4096 9.96246 17.992C9.69877 17.5746 9.44436 17.1599 9.25509 16.8358C9.16084 16.6744 9.08031 16.5313 9.02241 16.4199C8.99381 16.3649 8.9676 16.3117 8.94756 16.2649C8.93767 16.2418 8.92656 16.214 8.91726 16.1846C8.91134 16.1659 8.89172 16.1041 8.89252 16.0283L9.72554 16.0364C9.72593 15.9987 9.72068 15.9705 9.7183 15.959C9.71549 15.9453 9.71263 15.9359 9.71153 15.9324C9.70944 15.9258 9.70909 15.9261 9.71332 15.9359C9.72149 15.955 9.73689 15.9873 9.76155 16.0348C9.81015 16.1283 9.88275 16.2577 9.97446 16.4148C10.1571 16.7276 10.406 17.1334 10.6667 17.5461C10.9273 17.9586 11.1977 18.3746 11.4228 18.7076C11.6596 19.0578 11.8199 19.2757 11.8716 19.3286L11.2758 19.9117ZM8.89252 16.0283C8.89388 15.8991 8.94562 15.7682 8.97812 15.6908C9.01926 15.5928 9.07532 15.4798 9.13999 15.3592C9.26998 15.1167 9.44852 14.8183 9.64955 14.5023C10.0514 13.8704 10.5583 13.1443 10.9798 12.6168L11.6303 13.1371C11.2322 13.6352 10.7427 14.3355 10.3522 14.9494C10.1571 15.2562 9.99051 15.5354 9.874 15.7527C9.81543 15.862 9.7729 15.9493 9.74607 16.0132C9.71059 16.0977 9.72497 16.09 9.72554 16.0364L8.89252 16.0283ZM10.9798 12.6168C11.5194 11.9415 12.0865 11.0942 13.2548 11.0942L13.254 11.9278C12.5643 11.9278 12.2518 12.3592 11.6303 13.1371L10.9798 12.6168ZM13.2514 11.0942L16.7207 11.0665L16.7266 11.9L13.2574 11.9278L13.2514 11.0942Z" fill="#4B54B9"/>
<path d="M17.2152 18.2545L17.6319 18.2546L17.6319 18.2454L17.6315 18.2361L17.2152 18.2545ZM17.0312 14.105L17.3648 13.8553C17.2552 13.709 17.0631 13.6511 16.8909 13.7126C16.7188 13.7742 16.6069 13.9407 16.615 14.1234L17.0312 14.105ZM18.4191 15.959L18.7919 16.1451C18.8623 16.0041 18.8471 15.8355 18.7527 15.7094L18.4191 15.959ZM17.4938 17.8131L17.8666 17.9992L17.8666 17.9992L17.4938 17.8131ZM17.6319 19.4025L17.6319 18.2546L16.7985 18.2545L16.7985 19.4024L17.6319 19.4025ZM17.6315 18.2361L17.4475 14.0866L16.615 14.1234L16.799 18.2729L17.6315 18.2361ZM16.6977 14.3546L18.0856 16.2087L18.7527 15.7094L17.3648 13.8553L16.6977 14.3546ZM18.0463 15.7729L17.121 17.627L17.8666 17.9992L18.7919 16.1451L18.0463 15.7729ZM17.4938 17.8131C17.121 17.627 17.1209 17.6272 17.1208 17.6273C17.1208 17.6274 17.1207 17.6276 17.1207 17.6277C17.1206 17.6279 17.1205 17.6281 17.1203 17.6284C17.1201 17.6289 17.1198 17.6294 17.1195 17.6301C17.1189 17.6313 17.1182 17.6328 17.1173 17.6345C17.1157 17.6379 17.1136 17.6422 17.1112 17.6475C17.1063 17.6579 17.0999 17.6719 17.0924 17.6893C17.0774 17.7241 17.0577 17.7724 17.0363 17.8325C16.9936 17.9523 16.9431 18.1213 16.9093 18.3241C16.8422 18.7278 16.8385 19.2872 17.121 19.8533L17.8666 19.4812C17.6865 19.1203 17.6828 18.7526 17.7313 18.461C17.7554 18.3161 17.7916 18.1955 17.8212 18.1124C17.836 18.0711 17.8488 18.0398 17.8573 18.0202C17.8615 18.0105 17.8646 18.0037 17.8663 18.0001C17.8671 17.9983 17.8676 17.9973 17.8677 17.9972C17.8677 17.9971 17.8676 17.9972 17.8675 17.9976C17.8674 17.9977 17.8673 17.998 17.8671 17.9982C17.8671 17.9984 17.867 17.9985 17.8669 17.9987C17.8669 17.9988 17.8668 17.9989 17.8668 17.999C17.8667 17.9991 17.8666 17.9992 17.4938 17.8131Z" fill="#4B54B9"/>
<path d="M18.6891 12.9241L19.0143 12.664L18.6891 12.9241ZM17.6056 19.7062L17.332 20.0202L17.6056 19.7062ZM18.4204 19.6673L18.7184 19.9588L18.7184 19.9588L18.4204 19.6673ZM20.6851 16.0795L20.2686 16.0835L20.6851 16.0795ZM16.9081 18.858C16.6913 19.1956 16.8836 19.5244 16.9791 19.656C17.0917 19.8113 17.2473 19.9463 17.332 20.0202L17.8792 19.3922C17.8344 19.3531 17.7902 19.314 17.7485 19.2732C17.7062 19.2317 17.6743 19.196 17.6532 19.1668C17.6298 19.1345 17.6345 19.1308 17.6395 19.153C17.6426 19.1668 17.6457 19.1912 17.6412 19.2223C17.6364 19.2547 17.6247 19.2847 17.609 19.3091L16.9081 18.858ZM17.332 20.0202C17.5417 20.2033 17.8218 20.2498 18.0396 20.2389C18.2583 20.2279 18.5281 20.1535 18.7184 19.9588L18.1225 19.3758C18.1287 19.3694 18.1238 19.377 18.0969 19.3871C18.0711 19.3967 18.0363 19.4043 17.9972 19.4063C17.9579 19.4083 17.9236 19.4041 17.8989 19.3974C17.873 19.3904 17.8702 19.3843 17.8792 19.3922L17.332 20.0202ZM18.7184 19.9588C18.8347 19.8398 19.0417 19.5472 19.2614 19.2223C19.4927 18.8803 19.7679 18.4567 20.0317 18.0391C20.2954 17.6217 20.5498 17.2071 20.739 16.883C20.8333 16.7215 20.9138 16.5785 20.9717 16.4671C21.0003 16.412 21.0265 16.3588 21.0466 16.312C21.0565 16.2889 21.0676 16.2611 21.0769 16.2317C21.0828 16.213 21.1024 16.1513 21.1016 16.0755L20.2686 16.0835C20.2682 16.0458 20.2735 16.0176 20.2758 16.0061C20.2786 15.9924 20.2815 15.983 20.2826 15.9796C20.2847 15.973 20.285 15.9732 20.2808 15.9831C20.2726 16.0022 20.2572 16.0344 20.2326 16.0819C20.184 16.1754 20.1114 16.3049 20.0197 16.4619C19.837 16.7747 19.5881 17.1806 19.3274 17.5932C19.0668 18.0057 18.7965 18.4217 18.5713 18.7547C18.3345 19.1049 18.1742 19.3228 18.1225 19.3758L18.7184 19.9588ZM21.1016 16.0755C21.1003 15.9463 21.0485 15.8153 21.016 15.7379C20.9749 15.64 20.9188 15.5269 20.8541 15.4063C20.7242 15.1638 20.5456 14.8654 20.3446 14.5494C19.9427 13.9176 19.4358 13.1914 19.0143 12.664L18.3639 13.1842C18.762 13.6823 19.2515 14.3827 19.6419 14.9965C19.837 15.3033 20.0036 15.5825 20.1201 15.7998C20.1787 15.9091 20.2212 15.9964 20.2481 16.0603C20.2835 16.1448 20.2692 16.1371 20.2686 16.0835L21.1016 16.0755ZM19.0143 12.664C18.4635 11.9746 17.7993 11.095 16.6438 11.0665L16.6239 11.8998C17.3258 11.9172 17.7535 12.4204 18.3639 13.1842L19.0143 12.664Z" fill="#4B54B9"/>
<path d="M12.968 6.34502L11.8223 4.43176" stroke="#4B54B9" stroke-width="0.833333" stroke-linecap="round"/>
<path d="M16.7878 6.34502L17.9336 4.43176" stroke="#4B54B9" stroke-width="0.833333" stroke-linecap="round"/>
<path d="M14.9144 3.66655L14.877 5.89746" stroke="#4B54B9" stroke-width="0.833333" stroke-linecap="round"/>
<path d="M9.72061 6.79181L11.7344 7.74451" stroke="#4B54B9" stroke-width="0.833333" stroke-linecap="round"/>
<path d="M17.9316 7.74445L19.9453 6.79163" stroke="#4B54B9" stroke-width="0.833333" stroke-linecap="round"/>
<path d="M18.3156 9.37199L20.541 9.45532" stroke="#4B54B9" stroke-width="0.833333" stroke-linecap="round"/>
<path d="M11.7567 9.37199L9.53125 9.45532" stroke="#4B54B9" stroke-width="0.833333" stroke-linecap="round"/>
<path d="M29.4618 16.508C29.4618 16.644 29.4098 16.76 29.3058 16.856C29.2098 16.952 29.0938 17 28.9578 17C28.8058 17 28.6858 16.952 28.5978 16.856C28.5098 16.76 28.4658 16.644 28.4658 16.508V9.092C28.4658 8.948 28.5138 8.832 28.6098 8.744C28.7058 8.648 28.8258 8.6 28.9698 8.6C29.1058 8.6 29.2218 8.648 29.3178 8.744C29.4138 8.832 29.4618 8.948 29.4618 9.092V16.508ZM35.6872 10.64C36.2312 10.64 36.6592 10.752 36.9712 10.976C37.2832 11.2 37.5032 11.5 37.6312 11.876C37.7672 12.252 37.8352 12.672 37.8352 13.136V16.508C37.8352 16.644 37.7872 16.76 37.6912 16.856C37.6032 16.952 37.4912 17 37.3552 17C37.2192 17 37.1032 16.952 37.0072 16.856C36.9192 16.76 36.8752 16.644 36.8752 16.508V13.16C36.8752 12.856 36.8272 12.584 36.7312 12.344C36.6432 12.096 36.4912 11.9 36.2752 11.756C36.0672 11.604 35.7792 11.528 35.4112 11.528C35.0752 11.528 34.7672 11.604 34.4872 11.756C34.2072 11.9 33.9832 12.096 33.8152 12.344C33.6472 12.584 33.5632 12.856 33.5632 13.16V16.508C33.5632 16.644 33.5152 16.76 33.4192 16.856C33.3312 16.952 33.2192 17 33.0832 17C32.9472 17 32.8312 16.952 32.7352 16.856C32.6472 16.76 32.6032 16.644 32.6032 16.508V11.276C32.6032 11.14 32.6472 11.028 32.7352 10.94C32.8312 10.844 32.9472 10.796 33.0832 10.796C33.2272 10.796 33.3432 10.844 33.4312 10.94C33.5192 11.028 33.5632 11.14 33.5632 11.276V12.128L33.3232 12.392C33.3632 12.184 33.4552 11.976 33.5992 11.768C33.7432 11.552 33.9232 11.36 34.1392 11.192C34.3552 11.024 34.5952 10.892 34.8592 10.796C35.1232 10.692 35.3992 10.64 35.6872 10.64ZM45.923 8.12C46.059 8.12 46.171 8.168 46.259 8.264C46.355 8.352 46.403 8.464 46.403 8.6V16.508C46.403 16.644 46.355 16.76 46.259 16.856C46.171 16.952 46.059 17 45.923 17C45.779 17 45.663 16.952 45.575 16.856C45.487 16.76 45.443 16.644 45.443 16.508V15.368L45.671 15.284C45.671 15.476 45.611 15.68 45.491 15.896C45.371 16.104 45.207 16.3 44.999 16.484C44.791 16.668 44.543 16.82 44.255 16.94C43.975 17.06 43.671 17.12 43.343 17.12C42.807 17.12 42.319 16.98 41.879 16.7C41.447 16.42 41.103 16.036 40.847 15.548C40.599 15.06 40.475 14.504 40.475 13.88C40.475 13.248 40.599 12.688 40.847 12.2C41.103 11.712 41.447 11.332 41.879 11.06C42.311 10.78 42.791 10.64 43.319 10.64C43.655 10.64 43.971 10.696 44.267 10.808C44.563 10.92 44.819 11.072 45.035 11.264C45.259 11.456 45.435 11.668 45.563 11.9C45.691 12.132 45.755 12.364 45.755 12.596L45.443 12.524V8.6C45.443 8.464 45.487 8.352 45.575 8.264C45.663 8.168 45.779 8.12 45.923 8.12ZM43.451 16.232C43.851 16.232 44.203 16.132 44.507 15.932C44.819 15.724 45.059 15.444 45.227 15.092C45.403 14.732 45.491 14.328 45.491 13.88C45.491 13.424 45.403 13.02 45.227 12.668C45.059 12.316 44.819 12.04 44.507 11.84C44.203 11.632 43.851 11.528 43.451 11.528C43.059 11.528 42.707 11.632 42.395 11.84C42.091 12.04 41.851 12.316 41.675 12.668C41.499 13.02 41.411 13.424 41.411 13.88C41.411 14.32 41.499 14.72 41.675 15.08C41.851 15.432 42.091 15.712 42.395 15.92C42.707 16.128 43.059 16.232 43.451 16.232ZM52.2501 17.12C51.6101 17.12 51.0501 16.984 50.5701 16.712C50.0901 16.44 49.7141 16.068 49.4421 15.596C49.1781 15.116 49.0461 14.564 49.0461 13.94C49.0461 13.244 49.1821 12.652 49.4541 12.164C49.7341 11.668 50.0941 11.292 50.5341 11.036C50.9821 10.772 51.4541 10.64 51.9501 10.64C52.3181 10.64 52.6741 10.708 53.0181 10.844C53.3621 10.98 53.6661 11.18 53.9301 11.444C54.1941 11.7 54.4061 12.012 54.5661 12.38C54.7261 12.74 54.8101 13.144 54.8181 13.592C54.8181 13.72 54.7701 13.828 54.6741 13.916C54.5781 14.004 54.4661 14.048 54.3381 14.048H49.5981L49.3821 13.22H54.0021L53.8101 13.388V13.124C53.7781 12.796 53.6661 12.516 53.4741 12.284C53.2901 12.044 53.0621 11.86 52.7901 11.732C52.5261 11.604 52.2461 11.54 51.9501 11.54C51.7101 11.54 51.4701 11.584 51.2301 11.672C50.9981 11.752 50.7861 11.888 50.5941 12.08C50.4101 12.264 50.2581 12.504 50.1381 12.8C50.0261 13.096 49.9701 13.452 49.9701 13.868C49.9701 14.332 50.0621 14.74 50.2461 15.092C50.4381 15.444 50.7021 15.724 51.0381 15.932C51.3741 16.132 51.7661 16.232 52.2141 16.232C52.4941 16.232 52.7381 16.196 52.9461 16.124C53.1541 16.052 53.3341 15.964 53.4861 15.86C53.6381 15.748 53.7661 15.636 53.8701 15.524C53.9741 15.452 54.0741 15.416 54.1701 15.416C54.2901 15.416 54.3861 15.456 54.4581 15.536C54.5381 15.616 54.5781 15.712 54.5781 15.824C54.5781 15.96 54.5141 16.08 54.3861 16.184C54.1621 16.432 53.8581 16.652 53.4741 16.844C53.0901 17.028 52.6821 17.12 52.2501 17.12ZM60.521 10.7C61.065 10.7 61.553 10.836 61.985 11.108C62.417 11.38 62.757 11.756 63.005 12.236C63.261 12.716 63.389 13.268 63.389 13.892C63.389 14.508 63.261 15.06 63.005 15.548C62.757 16.028 62.417 16.408 61.985 16.688C61.561 16.96 61.081 17.096 60.545 17.096C60.249 17.096 59.969 17.052 59.705 16.964C59.449 16.868 59.213 16.748 58.997 16.604C58.789 16.452 58.613 16.284 58.469 16.1C58.325 15.908 58.221 15.72 58.157 15.536L58.421 15.368V18.908C58.421 19.044 58.377 19.16 58.289 19.256C58.201 19.352 58.085 19.4 57.941 19.4C57.805 19.4 57.689 19.352 57.593 19.256C57.505 19.168 57.461 19.052 57.461 18.908V11.24C57.461 11.104 57.505 10.992 57.593 10.904C57.689 10.808 57.805 10.76 57.941 10.76C58.085 10.76 58.201 10.808 58.289 10.904C58.377 10.992 58.421 11.104 58.421 11.24V12.308L58.241 12.212C58.297 12.012 58.393 11.82 58.529 11.636C58.673 11.452 58.845 11.292 59.045 11.156C59.253 11.012 59.481 10.9 59.729 10.82C59.985 10.74 60.249 10.7 60.521 10.7ZM60.413 11.588C60.013 11.588 59.657 11.688 59.345 11.888C59.041 12.088 58.801 12.36 58.625 12.704C58.457 13.048 58.373 13.444 58.373 13.892C58.373 14.332 58.457 14.728 58.625 15.08C58.801 15.432 59.041 15.708 59.345 15.908C59.657 16.108 60.013 16.208 60.413 16.208C60.813 16.208 61.165 16.108 61.469 15.908C61.773 15.708 62.013 15.432 62.189 15.08C62.365 14.728 62.453 14.332 62.453 13.892C62.453 13.444 62.365 13.048 62.189 12.704C62.013 12.36 61.773 12.088 61.469 11.888C61.165 11.688 60.813 11.588 60.413 11.588ZM68.9001 17.12C68.2601 17.12 67.7001 16.984 67.2201 16.712C66.7401 16.44 66.3641 16.068 66.0921 15.596C65.8281 15.116 65.6961 14.564 65.6961 13.94C65.6961 13.244 65.8321 12.652 66.1041 12.164C66.3841 11.668 66.7441 11.292 67.1841 11.036C67.6321 10.772 68.1041 10.64 68.6001 10.64C68.9681 10.64 69.3241 10.708 69.6681 10.844C70.0121 10.98 70.3161 11.18 70.5801 11.444C70.8441 11.7 71.0561 12.012 71.2161 12.38C71.3761 12.74 71.4601 13.144 71.4681 13.592C71.4681 13.72 71.4201 13.828 71.3241 13.916C71.2281 14.004 71.1161 14.048 70.9881 14.048H66.2481L66.0321 13.22H70.6521L70.4601 13.388V13.124C70.4281 12.796 70.3161 12.516 70.1241 12.284C69.9401 12.044 69.7121 11.86 69.4401 11.732C69.1761 11.604 68.8961 11.54 68.6001 11.54C68.3601 11.54 68.1201 11.584 67.8801 11.672C67.6481 11.752 67.4361 11.888 67.2441 12.08C67.0601 12.264 66.9081 12.504 66.7881 12.8C66.6761 13.096 66.6201 13.452 66.6201 13.868C66.6201 14.332 66.7121 14.74 66.8961 15.092C67.0881 15.444 67.3521 15.724 67.6881 15.932C68.0241 16.132 68.4161 16.232 68.8641 16.232C69.1441 16.232 69.3881 16.196 69.5961 16.124C69.8041 16.052 69.9841 15.964 70.1361 15.86C70.2881 15.748 70.4161 15.636 70.5201 15.524C70.6241 15.452 70.7241 15.416 70.8201 15.416C70.9401 15.416 71.0361 15.456 71.1081 15.536C71.1881 15.616 71.2281 15.712 71.2281 15.824C71.2281 15.96 71.1641 16.08 71.0361 16.184C70.8121 16.432 70.5081 16.652 70.1241 16.844C69.7401 17.028 69.3321 17.12 68.9001 17.12ZM77.195 10.64C77.739 10.64 78.167 10.752 78.479 10.976C78.791 11.2 79.011 11.5 79.139 11.876C79.275 12.252 79.343 12.672 79.343 13.136V16.508C79.343 16.644 79.295 16.76 79.199 16.856C79.111 16.952 78.999 17 78.863 17C78.727 17 78.611 16.952 78.515 16.856C78.427 16.76 78.383 16.644 78.383 16.508V13.16C78.383 12.856 78.335 12.584 78.239 12.344C78.151 12.096 77.999 11.9 77.783 11.756C77.575 11.604 77.287 11.528 76.919 11.528C76.583 11.528 76.275 11.604 75.995 11.756C75.715 11.9 75.491 12.096 75.323 12.344C75.155 12.584 75.071 12.856 75.071 13.16V16.508C75.071 16.644 75.023 16.76 74.927 16.856C74.839 16.952 74.727 17 74.591 17C74.455 17 74.339 16.952 74.243 16.856C74.155 16.76 74.111 16.644 74.111 16.508V11.276C74.111 11.14 74.155 11.028 74.243 10.94C74.339 10.844 74.455 10.796 74.591 10.796C74.735 10.796 74.851 10.844 74.939 10.94C75.027 11.028 75.071 11.14 75.071 11.276V12.128L74.831 12.392C74.871 12.184 74.963 11.976 75.107 11.768C75.251 11.552 75.431 11.36 75.647 11.192C75.863 11.024 76.103 10.892 76.367 10.796C76.631 10.692 76.907 10.64 77.195 10.64ZM87.4309 8.12C87.5669 8.12 87.6789 8.168 87.7669 8.264C87.8629 8.352 87.9109 8.464 87.9109 8.6V16.508C87.9109 16.644 87.8629 16.76 87.7669 16.856C87.6789 16.952 87.5669 17 87.4309 17C87.2869 17 87.1709 16.952 87.0829 16.856C86.9949 16.76 86.9509 16.644 86.9509 16.508V15.368L87.1789 15.284C87.1789 15.476 87.1189 15.68 86.9989 15.896C86.8789 16.104 86.7149 16.3 86.5069 16.484C86.2989 16.668 86.0509 16.82 85.7629 16.94C85.4829 17.06 85.1789 17.12 84.8509 17.12C84.3149 17.12 83.8269 16.98 83.3869 16.7C82.9549 16.42 82.6109 16.036 82.3549 15.548C82.1069 15.06 81.9829 14.504 81.9829 13.88C81.9829 13.248 82.1069 12.688 82.3549 12.2C82.6109 11.712 82.9549 11.332 83.3869 11.06C83.8189 10.78 84.2989 10.64 84.8269 10.64C85.1629 10.64 85.4789 10.696 85.7749 10.808C86.0709 10.92 86.3269 11.072 86.5429 11.264C86.7669 11.456 86.9429 11.668 87.0709 11.9C87.1989 12.132 87.2629 12.364 87.2629 12.596L86.9509 12.524V8.6C86.9509 8.464 86.9949 8.352 87.0829 8.264C87.1709 8.168 87.2869 8.12 87.4309 8.12ZM84.9589 16.232C85.3589 16.232 85.7109 16.132 86.0149 15.932C86.3269 15.724 86.5669 15.444 86.7349 15.092C86.9109 14.732 86.9989 14.328 86.9989 13.88C86.9989 13.424 86.9109 13.02 86.7349 12.668C86.5669 12.316 86.3269 12.04 86.0149 11.84C85.7109 11.632 85.3589 11.528 84.9589 11.528C84.5669 11.528 84.2149 11.632 83.9029 11.84C83.5989 12.04 83.3589 12.316 83.1829 12.668C83.0069 13.02 82.9189 13.424 82.9189 13.88C82.9189 14.32 83.0069 14.72 83.1829 15.08C83.3589 15.432 83.5989 15.712 83.9029 15.92C84.2149 16.128 84.5669 16.232 84.9589 16.232ZM93.758 17.12C93.118 17.12 92.558 16.984 92.078 16.712C91.598 16.44 91.222 16.068 90.95 15.596C90.686 15.116 90.554 14.564 90.554 13.94C90.554 13.244 90.69 12.652 90.962 12.164C91.242 11.668 91.602 11.292 92.042 11.036C92.49 10.772 92.962 10.64 93.458 10.64C93.826 10.64 94.182 10.708 94.526 10.844C94.87 10.98 95.174 11.18 95.438 11.444C95.702 11.7 95.914 12.012 96.074 12.38C96.234 12.74 96.318 13.144 96.326 13.592C96.326 13.72 96.278 13.828 96.182 13.916C96.086 14.004 95.974 14.048 95.846 14.048H91.106L90.89 13.22H95.51L95.318 13.388V13.124C95.286 12.796 95.174 12.516 94.982 12.284C94.798 12.044 94.57 11.86 94.298 11.732C94.034 11.604 93.754 11.54 93.458 11.54C93.218 11.54 92.978 11.584 92.738 11.672C92.506 11.752 92.294 11.888 92.102 12.08C91.918 12.264 91.766 12.504 91.646 12.8C91.534 13.096 91.478 13.452 91.478 13.868C91.478 14.332 91.57 14.74 91.754 15.092C91.946 15.444 92.21 15.724 92.546 15.932C92.882 16.132 93.274 16.232 93.722 16.232C94.002 16.232 94.246 16.196 94.454 16.124C94.662 16.052 94.842 15.964 94.994 15.86C95.146 15.748 95.274 15.636 95.378 15.524C95.482 15.452 95.582 15.416 95.678 15.416C95.798 15.416 95.894 15.456 95.966 15.536C96.046 15.616 96.086 15.712 96.086 15.824C96.086 15.96 96.022 16.08 95.894 16.184C95.67 16.432 95.366 16.652 94.982 16.844C94.598 17.028 94.19 17.12 93.758 17.12ZM102.053 10.64C102.597 10.64 103.025 10.752 103.337 10.976C103.649 11.2 103.869 11.5 103.997 11.876C104.133 12.252 104.201 12.672 104.201 13.136V16.508C104.201 16.644 104.153 16.76 104.057 16.856C103.969 16.952 103.857 17 103.721 17C103.585 17 103.469 16.952 103.373 16.856C103.285 16.76 103.241 16.644 103.241 16.508V13.16C103.241 12.856 103.193 12.584 103.097 12.344C103.009 12.096 102.857 11.9 102.641 11.756C102.433 11.604 102.145 11.528 101.777 11.528C101.441 11.528 101.133 11.604 100.853 11.756C100.573 11.9 100.349 12.096 100.181 12.344C100.013 12.584 99.9289 12.856 99.9289 13.16V16.508C99.9289 16.644 99.8809 16.76 99.7849 16.856C99.6969 16.952 99.5849 17 99.4489 17C99.3129 17 99.1969 16.952 99.1009 16.856C99.0129 16.76 98.9689 16.644 98.9689 16.508V11.276C98.9689 11.14 99.0129 11.028 99.1009 10.94C99.1969 10.844 99.3129 10.796 99.4489 10.796C99.5929 10.796 99.7089 10.844 99.7969 10.94C99.8849 11.028 99.9289 11.14 99.9289 11.276V12.128L99.6889 12.392C99.7289 12.184 99.8209 11.976 99.9649 11.768C100.109 11.552 100.289 11.36 100.505 11.192C100.721 11.024 100.961 10.892 101.225 10.796C101.489 10.692 101.765 10.64 102.053 10.64ZM109.937 10.64C110.345 10.64 110.713 10.684 111.041 10.772C111.369 10.86 111.629 10.98 111.821 11.132C112.013 11.284 112.109 11.456 112.109 11.648C112.109 11.752 112.073 11.852 112.001 11.948C111.929 12.044 111.833 12.092 111.713 12.092C111.601 12.092 111.509 12.072 111.437 12.032C111.373 11.992 111.309 11.94 111.245 11.876C111.189 11.812 111.109 11.756 111.005 11.708C110.909 11.652 110.769 11.608 110.585 11.576C110.401 11.544 110.217 11.528 110.033 11.528C109.593 11.528 109.205 11.632 108.869 11.84C108.541 12.048 108.281 12.328 108.089 12.68C107.897 13.032 107.801 13.432 107.801 13.88C107.801 14.328 107.893 14.728 108.077 15.08C108.261 15.432 108.517 15.712 108.845 15.92C109.173 16.128 109.553 16.232 109.985 16.232C110.265 16.232 110.489 16.208 110.657 16.16C110.825 16.112 110.965 16.056 111.077 15.992C111.221 15.912 111.329 15.832 111.401 15.752C111.481 15.672 111.585 15.632 111.713 15.632C111.849 15.632 111.953 15.676 112.025 15.764C112.105 15.852 112.145 15.96 112.145 16.088C112.145 16.232 112.045 16.384 111.845 16.544C111.645 16.704 111.373 16.84 111.029 16.952C110.693 17.064 110.309 17.12 109.877 17.12C109.269 17.12 108.737 16.98 108.281 16.7C107.825 16.412 107.469 16.024 107.213 15.536C106.965 15.04 106.841 14.488 106.841 13.88C106.841 13.272 106.969 12.724 107.225 12.236C107.489 11.748 107.853 11.36 108.317 11.072C108.781 10.784 109.321 10.64 109.937 10.64ZM117.467 17.12C116.827 17.12 116.267 16.984 115.787 16.712C115.307 16.44 114.931 16.068 114.659 15.596C114.395 15.116 114.263 14.564 114.263 13.94C114.263 13.244 114.399 12.652 114.671 12.164C114.951 11.668 115.311 11.292 115.751 11.036C116.199 10.772 116.671 10.64 117.167 10.64C117.535 10.64 117.891 10.708 118.235 10.844C118.579 10.98 118.883 11.18 119.147 11.444C119.411 11.7 119.623 12.012 119.783 12.38C119.943 12.74 120.027 13.144 120.035 13.592C120.035 13.72 119.987 13.828 119.891 13.916C119.795 14.004 119.683 14.048 119.555 14.048H114.815L114.599 13.22H119.219L119.027 13.388V13.124C118.995 12.796 118.883 12.516 118.691 12.284C118.507 12.044 118.279 11.86 118.007 11.732C117.743 11.604 117.463 11.54 117.167 11.54C116.927 11.54 116.687 11.584 116.447 11.672C116.215 11.752 116.003 11.888 115.811 12.08C115.627 12.264 115.475 12.504 115.355 12.8C115.243 13.096 115.187 13.452 115.187 13.868C115.187 14.332 115.279 14.74 115.463 15.092C115.655 15.444 115.919 15.724 116.255 15.932C116.591 16.132 116.983 16.232 117.431 16.232C117.711 16.232 117.955 16.196 118.163 16.124C118.371 16.052 118.551 15.964 118.703 15.86C118.855 15.748 118.983 15.636 119.087 15.524C119.191 15.452 119.291 15.416 119.387 15.416C119.507 15.416 119.603 15.456 119.675 15.536C119.755 15.616 119.795 15.712 119.795 15.824C119.795 15.96 119.731 16.08 119.603 16.184C119.379 16.432 119.075 16.652 118.691 16.844C118.307 17.028 117.899 17.12 117.467 17.12Z" fill="#4B54B9"/>
<rect x="0.625" y="0.625" width="126.75" height="22.75" rx="11.375" stroke="#4B54B9" stroke-width="0.75"/>
</svg>
