<svg width="115" height="24" viewBox="0 0 115 24" fill="none" xmlns="http://www.w3.org/2000/svg">
<path fill-rule="evenodd" clip-rule="evenodd" d="M20 12.8334C20 16.0551 17.3883 18.6667 14.1667 18.6667C10.945 18.6667 8.33333 16.0551 8.33333 12.8334C8.33333 9.61175 10.945 7.00008 14.1667 7.00008C15.031 7.00008 15.8514 7.18805 16.5892 7.52534L16.7572 6.68879C15.9608 6.35261 15.0854 6.16675 14.1667 6.16675C10.4848 6.16675 7.5 9.15152 7.5 12.8334C7.5 16.5153 10.4848 19.5001 14.1667 19.5001C17.8486 19.5001 20.8333 16.5153 20.8333 12.8334C20.8333 11.7874 20.5925 10.7977 20.1631 9.91675L19.3799 10.2134C19.7766 11.0012 20 11.8912 20 12.8334Z" fill="#4B54B9"/>
<path d="M12.084 14.5C12.9173 16.1667 15.4173 16.1667 16.2507 14.5" stroke="#4B54B9" stroke-width="0.833333" stroke-linecap="round"/>
<path d="M10.6187 11.3875C10.4968 11.2654 10.4969 11.0676 10.619 10.9456C10.741 10.8236 10.9389 10.8237 11.0609 10.9458L10.6187 11.3875ZM12.4567 10.9765C12.5773 10.853 12.7751 10.8507 12.8986 10.9713C13.022 11.0919 13.0244 11.2897 12.9038 11.4132L12.4567 10.9765ZM10.8398 11.1666C11.0609 10.9458 11.0608 10.9457 11.0607 10.9456C11.0607 10.9456 11.0607 10.9455 11.0606 10.9455C11.0605 10.9454 11.0604 10.9453 11.0604 10.9452C11.0602 10.9451 11.0601 10.9449 11.0599 10.9448C11.0597 10.9446 11.0596 10.9445 11.0595 10.9444C11.0594 10.9443 11.0596 10.9445 11.0602 10.945C11.0613 10.9461 11.0637 10.9484 11.0674 10.9518C11.0749 10.9586 11.0873 10.9695 11.1043 10.9833C11.1385 11.0112 11.1901 11.0496 11.2559 11.0888C11.3894 11.1681 11.568 11.2424 11.7709 11.2489L11.7507 11.8736C11.4093 11.8626 11.1274 11.7395 10.9365 11.6259C10.84 11.5686 10.7635 11.5117 10.7101 11.4683C10.6833 11.4465 10.662 11.4279 10.6467 11.414C10.639 11.407 10.6329 11.4012 10.6282 11.3967C10.6259 11.3945 10.6239 11.3926 10.6223 11.391C10.6215 11.3903 10.6208 11.3896 10.6202 11.389C10.6199 11.3887 10.6197 11.3884 10.6194 11.3882C10.6193 11.3881 10.6192 11.3879 10.6191 11.3878C10.619 11.3878 10.6189 11.3877 10.6189 11.3877C10.6188 11.3876 10.6187 11.3875 10.8398 11.1666ZM11.7709 11.2489C11.9667 11.2553 12.1385 11.1894 12.2679 11.1143C12.3318 11.0773 12.3819 11.04 12.4152 11.0127C12.4318 10.9992 12.4438 10.9885 12.4509 10.9819C12.4544 10.9786 12.4567 10.9764 12.4577 10.9754C12.4582 10.975 12.4584 10.9748 12.4582 10.975C12.4581 10.975 12.4579 10.9752 12.4577 10.9755C12.4576 10.9756 12.4574 10.9758 12.4572 10.9759C12.4572 10.976 12.4571 10.9761 12.457 10.9762C12.4569 10.9763 12.4568 10.9763 12.4568 10.9764C12.4567 10.9764 12.4567 10.9765 12.6802 11.1949C12.9038 11.4132 12.9037 11.4133 12.9036 11.4134C12.9036 11.4134 12.9035 11.4135 12.9035 11.4136C12.9033 11.4137 12.9032 11.4138 12.9031 11.4139C12.9028 11.4142 12.9025 11.4145 12.9022 11.4148C12.9016 11.4154 12.9009 11.4162 12.9001 11.417C12.8984 11.4186 12.8964 11.4206 12.8941 11.4229C12.8893 11.4276 12.883 11.4336 12.8752 11.4408C12.8597 11.4551 12.8381 11.4743 12.811 11.4965C12.7569 11.5407 12.6793 11.5983 12.5814 11.655C12.3872 11.7676 12.0993 11.8849 11.7507 11.8736L11.7709 11.2489Z" fill="#4B54B9"/>
<path d="M15.234 11.3817C15.112 11.2597 15.1121 11.0618 15.2341 10.9398C15.3562 10.8178 15.554 10.8178 15.6761 10.9399L15.234 11.3817ZM17.073 10.9706C17.1936 10.8472 17.3915 10.8449 17.5149 10.9655C17.6384 11.0861 17.6406 11.284 17.52 11.4074L17.073 10.9706ZM15.4551 11.1608C15.6761 10.9399 15.676 10.9398 15.6759 10.9397C15.6759 10.9397 15.6758 10.9396 15.6758 10.9396C15.6757 10.9395 15.6756 10.9394 15.6755 10.9393C15.6754 10.9392 15.6752 10.939 15.6751 10.9389C15.6749 10.9387 15.6747 10.9385 15.6747 10.9385C15.6746 10.9384 15.6748 10.9386 15.6754 10.9391C15.6765 10.9402 15.6789 10.9425 15.6826 10.9459C15.69 10.9526 15.7025 10.9636 15.7195 10.9774C15.7538 11.0053 15.8054 11.0437 15.8712 11.0829C16.0048 11.1622 16.1835 11.2365 16.3867 11.2431L16.3664 11.8678C16.0249 11.8567 15.7429 11.7337 15.5519 11.6201C15.4554 11.5628 15.3788 11.5059 15.3254 11.4625C15.2986 11.4407 15.2773 11.4221 15.262 11.4082C15.2544 11.4012 15.2482 11.3954 15.2435 11.3909C15.2412 11.3887 15.2392 11.3868 15.2376 11.3852C15.2368 11.3845 15.2361 11.3838 15.2355 11.3832C15.2352 11.3829 15.235 11.3826 15.2347 11.3824C15.2346 11.3823 15.2345 11.3821 15.2344 11.382C15.2343 11.382 15.2342 11.3819 15.2342 11.3819C15.2341 11.3818 15.234 11.3817 15.4551 11.1608ZM16.3867 11.2431C16.5826 11.2494 16.7546 11.1835 16.8841 11.1084C16.948 11.0714 16.9982 11.0341 17.0315 11.0068C17.0481 10.9933 17.0601 10.9826 17.0672 10.976C17.0708 10.9727 17.0731 10.9705 17.074 10.9695C17.0745 10.9691 17.0747 10.9689 17.0745 10.9691C17.0744 10.9691 17.0743 10.9693 17.074 10.9696C17.0739 10.9697 17.0737 10.9698 17.0736 10.97C17.0735 10.9701 17.0734 10.9702 17.0733 10.9703C17.0733 10.9703 17.0732 10.9704 17.0732 10.9704C17.0731 10.9705 17.073 10.9706 17.2965 11.189C17.52 11.4074 17.5199 11.4075 17.5198 11.4076C17.5198 11.4076 17.5197 11.4077 17.5197 11.4078C17.5195 11.4079 17.5194 11.408 17.5193 11.4082C17.519 11.4084 17.5187 11.4087 17.5184 11.409C17.5178 11.4097 17.5171 11.4104 17.5163 11.4112C17.5147 11.4128 17.5127 11.4148 17.5103 11.4171C17.5055 11.4218 17.4992 11.4278 17.4914 11.435C17.4759 11.4494 17.4543 11.4685 17.4272 11.4907C17.3731 11.5349 17.2954 11.5925 17.1974 11.6492C17.0032 11.7618 16.7151 11.8791 16.3664 11.8678L16.3867 11.2431Z" fill="#4B54B9"/>
<path d="M19.5825 10.3334L19.2944 10.6344C19.4555 10.7886 19.7095 10.7886 19.8706 10.6344L19.5825 10.3334ZM19.5827 6.76194L19.1827 6.87862C19.2346 7.0564 19.3976 7.17862 19.5828 7.17861C19.7679 7.1786 19.9309 7.05637 19.9827 6.87859L19.5827 6.76194ZM22.0827 6.90946C22.0827 7.29864 21.9064 7.63676 21.6439 7.84518L22.1621 8.49781C22.6237 8.13127 22.916 7.55281 22.916 6.90946H22.0827ZM21.0411 5.75004C21.5997 5.75004 22.0827 6.23492 22.0827 6.90946H22.916C22.916 5.8431 22.1255 4.91671 21.0411 4.91671V5.75004ZM19.5825 10.3334C19.8706 10.6344 19.8707 10.6344 19.8707 10.6344C19.8707 10.6344 19.8707 10.6343 19.8707 10.6343C19.8708 10.6343 19.8709 10.6342 19.871 10.6341C19.8712 10.6338 19.8716 10.6335 19.872 10.6331C19.873 10.6322 19.8744 10.6308 19.8762 10.6291C19.8799 10.6255 19.8854 10.6203 19.8926 10.6134C19.9069 10.5997 19.9281 10.5795 19.9552 10.5536C20.0093 10.5019 20.0871 10.4277 20.1815 10.3378C20.3705 10.1578 20.6261 9.91501 20.8929 9.66333C21.4363 9.15077 21.9989 8.62737 22.1621 8.49781L21.6439 7.84518C21.445 8.00309 20.8474 8.56063 20.3211 9.05714C20.053 9.31 19.7964 9.55376 19.6069 9.73426C19.5121 9.82452 19.434 9.89901 19.3796 9.95094C19.3524 9.97691 19.3312 9.99724 19.3167 10.0111C19.3094 10.018 19.3039 10.0233 19.3001 10.0269C19.2983 10.0287 19.2969 10.0301 19.2959 10.031C19.2954 10.0314 19.2951 10.0318 19.2948 10.032C19.2947 10.0321 19.2946 10.0322 19.2945 10.0323C19.2945 10.0323 19.2945 10.0323 19.2945 10.0323C19.2945 10.0324 19.2944 10.0324 19.5825 10.3334ZM16.2493 6.90946C16.2493 7.55281 16.5416 8.13127 17.0033 8.49781L17.5214 7.84518C17.259 7.63676 17.0827 7.29864 17.0827 6.90946H16.2493ZM18.1535 4.91671C17.0795 4.91671 16.2493 5.83192 16.2493 6.90946H17.0827C17.0827 6.2461 17.5845 5.75004 18.1535 5.75004V4.91671ZM19.5825 10.3334C19.8707 10.0324 19.8707 10.0324 19.8706 10.0324C19.8706 10.0323 19.8706 10.0323 19.8706 10.0323C19.8705 10.0322 19.8704 10.0321 19.8703 10.032C19.87 10.0318 19.8697 10.0314 19.8692 10.031C19.8683 10.0301 19.8668 10.0287 19.865 10.0269C19.8612 10.0233 19.8557 10.018 19.8484 10.0111C19.8339 9.99726 19.8127 9.97693 19.7855 9.95096C19.7311 9.89903 19.6531 9.82454 19.5583 9.73428C19.3688 9.55378 19.1122 9.31002 18.8442 9.05716C18.3179 8.56066 17.7203 8.0031 17.5214 7.84518L17.0033 8.49781C17.1664 8.62736 17.729 9.15075 18.2723 9.66331C18.5391 9.91499 18.7946 10.1578 18.9836 10.3377C19.078 10.4277 19.1558 10.5019 19.2099 10.5536C19.237 10.5794 19.2581 10.5997 19.2725 10.6134C19.2797 10.6203 19.2852 10.6255 19.2889 10.6291C19.2907 10.6308 19.2921 10.6322 19.293 10.633C19.2935 10.6335 19.2939 10.6338 19.2941 10.634C19.2942 10.6342 19.2943 10.6342 19.2943 10.6343C19.2944 10.6343 19.2944 10.6343 19.2944 10.6343C19.2944 10.6344 19.2944 10.6344 19.5825 10.3334ZM21.0411 4.91671C20.3078 4.91671 19.8339 5.42133 19.5729 5.81905C19.4373 6.02577 19.3411 6.22938 19.279 6.37962C19.2477 6.45537 19.2244 6.51916 19.2086 6.56512C19.2007 6.58814 19.1947 6.6068 19.1904 6.62038C19.1882 6.62717 19.1865 6.6327 19.1852 6.63688C19.1846 6.63897 19.1841 6.64072 19.1837 6.64213C19.1835 6.64283 19.1833 6.64345 19.1831 6.64397C19.183 6.64424 19.183 6.64448 19.1829 6.6447C19.1829 6.64481 19.1828 6.64496 19.1828 6.64501C19.1828 6.64515 19.1827 6.64529 19.5827 6.76194C19.9827 6.87859 19.9827 6.87872 19.9827 6.87884C19.9827 6.87887 19.9826 6.87899 19.9826 6.87906C19.9826 6.87919 19.9825 6.8793 19.9825 6.87939C19.9825 6.87957 19.9824 6.87967 19.9824 6.87969C19.9824 6.87972 19.9825 6.87942 19.9827 6.87881C19.9831 6.87759 19.9838 6.87509 19.985 6.87142C19.9873 6.86407 19.9912 6.85204 19.9967 6.836C20.0078 6.80383 20.0252 6.75601 20.0492 6.69784C20.0978 6.58022 20.1709 6.42669 20.2696 6.27626C20.4774 5.9597 20.7327 5.75004 21.0411 5.75004V4.91671ZM19.5827 6.76194C19.9827 6.64526 19.9827 6.64513 19.9827 6.64499C19.9826 6.64494 19.9826 6.64479 19.9826 6.64468C19.9825 6.64447 19.9824 6.64423 19.9824 6.64397C19.9822 6.64346 19.982 6.64285 19.9818 6.64216C19.9814 6.64077 19.9809 6.63904 19.9803 6.63697C19.979 6.63283 19.9773 6.62734 19.9752 6.62059C19.9709 6.6071 19.9649 6.58853 19.9571 6.56561C19.9414 6.51984 19.9183 6.45625 19.8874 6.38072C19.826 6.23092 19.7311 6.02781 19.5978 5.82155C19.3432 5.42748 18.8768 4.91671 18.1535 4.91671V5.75004C18.4427 5.75004 18.691 5.95355 18.8978 6.27377C18.9953 6.42465 19.0679 6.57868 19.1163 6.69674C19.1402 6.75513 19.1576 6.80316 19.1686 6.83551C19.1742 6.85165 19.1781 6.86377 19.1804 6.8712C19.1816 6.87492 19.1824 6.87745 19.1828 6.87872C19.183 6.87935 19.1831 6.87967 19.183 6.87966C19.183 6.87965 19.183 6.87956 19.183 6.87939C19.1829 6.87931 19.1829 6.8792 19.1829 6.87907C19.1829 6.87901 19.1828 6.8789 19.1828 6.87886C19.1828 6.87875 19.1827 6.87862 19.5827 6.76194Z" fill="#4B54B9"/>
<path d="M31.7071 17.12C31.1151 17.12 30.5951 17.032 30.1471 16.856C29.6991 16.68 29.2671 16.4 28.8511 16.016C28.7951 15.96 28.7471 15.9 28.7071 15.836C28.6751 15.764 28.6591 15.688 28.6591 15.608C28.6591 15.48 28.7031 15.368 28.7911 15.272C28.8871 15.168 29.0031 15.116 29.1391 15.116C29.2511 15.116 29.3511 15.16 29.4391 15.248C29.7511 15.552 30.0871 15.784 30.4471 15.944C30.8151 16.104 31.2271 16.184 31.6831 16.184C32.0351 16.184 32.3511 16.128 32.6311 16.016C32.9191 15.904 33.1471 15.748 33.3151 15.548C33.4831 15.348 33.5671 15.116 33.5671 14.852C33.5591 14.532 33.4631 14.268 33.2791 14.06C33.1031 13.852 32.8551 13.68 32.5351 13.544C32.2231 13.4 31.8591 13.28 31.4431 13.184C31.0751 13.096 30.7351 12.988 30.4231 12.86C30.1191 12.732 29.8551 12.576 29.6311 12.392C29.4071 12.2 29.2311 11.972 29.1031 11.708C28.9831 11.436 28.9231 11.12 28.9231 10.76C28.9231 10.304 29.0431 9.904 29.2831 9.56C29.5231 9.216 29.8551 8.952 30.2791 8.768C30.7031 8.576 31.1911 8.48 31.7431 8.48C32.2311 8.48 32.6911 8.56 33.1231 8.72C33.5631 8.88 33.9151 9.1 34.1791 9.38C34.3391 9.532 34.4191 9.68 34.4191 9.824C34.4191 9.944 34.3671 10.056 34.2631 10.16C34.1671 10.256 34.0551 10.304 33.9271 10.304C33.8391 10.304 33.7591 10.272 33.6871 10.208C33.5511 10.056 33.3791 9.92 33.1711 9.8C32.9631 9.68 32.7351 9.584 32.4871 9.512C32.2391 9.44 31.9911 9.404 31.7431 9.404C31.3751 9.404 31.0511 9.46 30.7711 9.572C30.4911 9.676 30.2711 9.828 30.1111 10.028C29.9591 10.22 29.8831 10.452 29.8831 10.724C29.8831 11.028 29.9711 11.28 30.1471 11.48C30.3231 11.672 30.5591 11.832 30.8551 11.96C31.1511 12.08 31.4791 12.188 31.8391 12.284C32.2311 12.38 32.5911 12.492 32.9191 12.62C33.2551 12.74 33.5431 12.892 33.7831 13.076C34.0231 13.26 34.2071 13.496 34.3351 13.784C34.4711 14.064 34.5391 14.412 34.5391 14.828C34.5391 15.268 34.4151 15.66 34.1671 16.004C33.9191 16.348 33.5791 16.62 33.1471 16.82C32.7231 17.012 32.2431 17.112 31.7071 17.12ZM40.0498 17.12C39.4097 17.12 38.8497 16.984 38.3697 16.712C37.8897 16.44 37.5137 16.068 37.2417 15.596C36.9777 15.116 36.8457 14.564 36.8457 13.94C36.8457 13.244 36.9817 12.652 37.2537 12.164C37.5337 11.668 37.8937 11.292 38.3337 11.036C38.7817 10.772 39.2537 10.64 39.7498 10.64C40.1178 10.64 40.4737 10.708 40.8177 10.844C41.1617 10.98 41.4657 11.18 41.7297 11.444C41.9938 11.7 42.2058 12.012 42.3658 12.38C42.5258 12.74 42.6098 13.144 42.6177 13.592C42.6177 13.72 42.5698 13.828 42.4738 13.916C42.3778 14.004 42.2658 14.048 42.1378 14.048H37.3977L37.1817 13.22H41.8018L41.6098 13.388V13.124C41.5777 12.796 41.4657 12.516 41.2738 12.284C41.0898 12.044 40.8618 11.86 40.5897 11.732C40.3257 11.604 40.0458 11.54 39.7498 11.54C39.5098 11.54 39.2697 11.584 39.0297 11.672C38.7977 11.752 38.5857 11.888 38.3937 12.08C38.2097 12.264 38.0577 12.504 37.9377 12.8C37.8257 13.096 37.7697 13.452 37.7697 13.868C37.7697 14.332 37.8617 14.74 38.0457 15.092C38.2377 15.444 38.5017 15.724 38.8377 15.932C39.1737 16.132 39.5657 16.232 40.0137 16.232C40.2938 16.232 40.5378 16.196 40.7458 16.124C40.9538 16.052 41.1337 15.964 41.2857 15.86C41.4378 15.748 41.5658 15.636 41.6697 15.524C41.7738 15.452 41.8738 15.416 41.9698 15.416C42.0898 15.416 42.1858 15.456 42.2577 15.536C42.3378 15.616 42.3778 15.712 42.3778 15.824C42.3778 15.96 42.3138 16.08 42.1858 16.184C41.9618 16.432 41.6578 16.652 41.2738 16.844C40.8898 17.028 40.4818 17.12 40.0498 17.12ZM46.3167 16.508C46.3167 16.644 46.2687 16.76 46.1727 16.856C46.0767 16.952 45.9607 17 45.8247 17C45.6887 17 45.5767 16.952 45.4887 16.856C45.4007 16.76 45.3567 16.644 45.3567 16.508V8.6C45.3567 8.464 45.4007 8.352 45.4887 8.264C45.5847 8.168 45.7007 8.12 45.8367 8.12C45.9807 8.12 46.0967 8.168 46.1847 8.264C46.2727 8.352 46.3167 8.464 46.3167 8.6V16.508ZM51.9706 8.144C52.1066 8.144 52.2466 8.16 52.3906 8.192C52.5426 8.224 52.6706 8.28 52.7746 8.36C52.8866 8.44 52.9426 8.548 52.9426 8.684C52.9426 8.812 52.9026 8.92 52.8226 9.008C52.7426 9.088 52.6466 9.128 52.5346 9.128C52.4626 9.128 52.3626 9.108 52.2346 9.068C52.1066 9.02 51.9746 8.996 51.8386 8.996C51.6546 8.996 51.5026 9.036 51.3826 9.116C51.2706 9.196 51.1866 9.304 51.1306 9.44C51.0826 9.568 51.0586 9.712 51.0586 9.872V16.508C51.0586 16.644 51.0106 16.76 50.9146 16.856C50.8266 16.952 50.7146 17 50.5786 17C50.4346 17 50.3186 16.952 50.2306 16.856C50.1426 16.76 50.0986 16.644 50.0986 16.508V9.884C50.0986 9.348 50.2626 8.924 50.5906 8.612C50.9266 8.3 51.3866 8.144 51.9706 8.144ZM52.3066 10.892C52.4346 10.892 52.5426 10.936 52.6306 11.024C52.7186 11.104 52.7626 11.208 52.7626 11.336C52.7626 11.464 52.7186 11.572 52.6306 11.66C52.5426 11.74 52.4346 11.78 52.3066 11.78H49.2946C49.1666 11.78 49.0586 11.736 48.9706 11.648C48.8826 11.56 48.8386 11.456 48.8386 11.336C48.8386 11.2 48.8826 11.092 48.9706 11.012C49.0586 10.932 49.1666 10.892 49.2946 10.892H52.3066ZM55.4595 13.748C55.3235 13.748 55.2075 13.704 55.1115 13.616C55.0235 13.52 54.9795 13.4 54.9795 13.256C54.9795 13.12 55.0235 13.008 55.1115 12.92C55.2075 12.832 55.3235 12.788 55.4595 12.788H57.8835C58.0195 12.788 58.1315 12.836 58.2195 12.932C58.3155 13.028 58.3635 13.144 58.3635 13.28C58.3635 13.416 58.3155 13.528 58.2195 13.616C58.1315 13.704 58.0195 13.748 57.8835 13.748H55.4595ZM61.7548 8.6H66.0268C66.1628 8.6 66.2788 8.644 66.3748 8.732C66.4708 8.82 66.5188 8.932 66.5188 9.068C66.5188 9.204 66.4708 9.316 66.3748 9.404C66.2788 9.484 66.1628 9.524 66.0268 9.524H62.1628L62.2708 9.32V12.356L62.1508 12.224H65.4868C65.6228 12.224 65.7388 12.268 65.8348 12.356C65.9308 12.444 65.9788 12.556 65.9788 12.692C65.9788 12.828 65.9308 12.94 65.8348 13.028C65.7388 13.108 65.6228 13.148 65.4868 13.148H62.1868L62.2708 13.04V16.148L62.1988 16.064H66.0268C66.1628 16.064 66.2788 16.112 66.3748 16.208C66.4708 16.304 66.5188 16.412 66.5188 16.532C66.5188 16.668 66.4708 16.78 66.3748 16.868C66.2788 16.956 66.1628 17 66.0268 17H61.7548C61.6188 17 61.5028 16.952 61.4068 16.856C61.3188 16.76 61.2748 16.644 61.2748 16.508V9.08C61.2748 8.944 61.3188 8.832 61.4068 8.744C61.5028 8.648 61.6188 8.6 61.7548 8.6ZM68.8025 16.016C68.7305 15.912 68.6985 15.804 68.7065 15.692C68.7145 15.572 68.7825 15.468 68.9105 15.38C68.9905 15.324 69.0825 15.3 69.1865 15.308C69.2985 15.316 69.3985 15.368 69.4865 15.464C69.7105 15.728 69.9665 15.94 70.2545 16.1C70.5425 16.252 70.8945 16.328 71.3105 16.328C71.5025 16.32 71.6945 16.288 71.8865 16.232C72.0785 16.176 72.2385 16.08 72.3665 15.944C72.5025 15.8 72.5705 15.612 72.5705 15.38C72.5705 15.156 72.5025 14.98 72.3665 14.852C72.2305 14.716 72.0545 14.608 71.8385 14.528C71.6225 14.44 71.3865 14.364 71.1305 14.3C70.8665 14.228 70.6065 14.148 70.3505 14.06C70.0945 13.964 69.8625 13.848 69.6545 13.712C69.4545 13.568 69.2905 13.392 69.1625 13.184C69.0425 12.968 68.9825 12.708 68.9825 12.404C68.9825 12.044 69.0785 11.732 69.2705 11.468C69.4705 11.204 69.7345 11 70.0625 10.856C70.3985 10.712 70.7625 10.64 71.1545 10.64C71.3785 10.64 71.6105 10.668 71.8505 10.724C72.0985 10.772 72.3385 10.86 72.5705 10.988C72.8025 11.108 73.0065 11.276 73.1825 11.492C73.2545 11.572 73.2945 11.672 73.3025 11.792C73.3105 11.912 73.2585 12.02 73.1465 12.116C73.0585 12.18 72.9585 12.208 72.8465 12.2C72.7425 12.192 72.6545 12.152 72.5825 12.08C72.4145 11.88 72.2025 11.728 71.9465 11.624C71.6985 11.512 71.4225 11.456 71.1185 11.456C70.9265 11.456 70.7385 11.484 70.5545 11.54C70.3705 11.596 70.2145 11.692 70.0865 11.828C69.9665 11.956 69.9065 12.136 69.9065 12.368C69.9145 12.584 69.9865 12.76 70.1225 12.896C70.2585 13.032 70.4425 13.144 70.6745 13.232C70.9065 13.312 71.1625 13.392 71.4425 13.472C71.6985 13.536 71.9425 13.612 72.1745 13.7C72.4145 13.78 72.6305 13.888 72.8225 14.024C73.0145 14.16 73.1665 14.336 73.2785 14.552C73.3905 14.76 73.4465 15.024 73.4465 15.344C73.4465 15.712 73.3425 16.032 73.1345 16.304C72.9265 16.568 72.6505 16.772 72.3065 16.916C71.9705 17.052 71.6065 17.12 71.2145 17.12C70.7745 17.12 70.3385 17.036 69.9065 16.868C69.4825 16.7 69.1145 16.416 68.8025 16.016ZM75.7941 10.832H78.6141C78.7421 10.832 78.8461 10.876 78.9261 10.964C79.0141 11.052 79.0581 11.156 79.0581 11.276C79.0581 11.404 79.0141 11.512 78.9261 11.6C78.8461 11.68 78.7421 11.72 78.6141 11.72H75.7941C75.6741 11.72 75.5701 11.676 75.4821 11.588C75.3941 11.5 75.3501 11.392 75.3501 11.264C75.3501 11.144 75.3941 11.044 75.4821 10.964C75.5701 10.876 75.6741 10.832 75.7941 10.832ZM77.0541 9.2C77.1901 9.2 77.3021 9.248 77.3901 9.344C77.4781 9.432 77.5221 9.544 77.5221 9.68V15.476C77.5221 15.668 77.5501 15.812 77.6061 15.908C77.6621 16.004 77.7341 16.072 77.8221 16.112C77.9181 16.144 78.0101 16.16 78.0981 16.16C78.1781 16.16 78.2461 16.148 78.3021 16.124C78.3661 16.092 78.4381 16.076 78.5181 16.076C78.5981 16.076 78.6701 16.116 78.7341 16.196C78.8061 16.268 78.8421 16.364 78.8421 16.484C78.8421 16.628 78.7581 16.752 78.5901 16.856C78.4221 16.952 78.2341 17 78.0261 17C77.9141 17 77.7741 16.992 77.6061 16.976C77.4461 16.96 77.2861 16.908 77.1261 16.82C76.9661 16.732 76.8301 16.588 76.7181 16.388C76.6141 16.18 76.5621 15.892 76.5621 15.524V9.68C76.5621 9.544 76.6101 9.432 76.7061 9.344C76.8021 9.248 76.9181 9.2 77.0541 9.2ZM84.4029 17.12C83.7629 17.12 83.2029 16.984 82.7229 16.712C82.2429 16.44 81.8669 16.068 81.5949 15.596C81.3309 15.116 81.1989 14.564 81.1989 13.94C81.1989 13.244 81.3349 12.652 81.6069 12.164C81.8869 11.668 82.2469 11.292 82.6869 11.036C83.1349 10.772 83.6069 10.64 84.1029 10.64C84.4709 10.64 84.8269 10.708 85.1709 10.844C85.5149 10.98 85.8189 11.18 86.0829 11.444C86.3469 11.7 86.5589 12.012 86.7189 12.38C86.8789 12.74 86.9629 13.144 86.9709 13.592C86.9709 13.72 86.9229 13.828 86.8269 13.916C86.7309 14.004 86.6189 14.048 86.4909 14.048H81.7509L81.5349 13.22H86.1549L85.9629 13.388V13.124C85.9309 12.796 85.8189 12.516 85.6269 12.284C85.4429 12.044 85.2149 11.86 84.9429 11.732C84.6789 11.604 84.3989 11.54 84.1029 11.54C83.8629 11.54 83.6229 11.584 83.3829 11.672C83.1509 11.752 82.9389 11.888 82.7469 12.08C82.5629 12.264 82.4109 12.504 82.2909 12.8C82.1789 13.096 82.1229 13.452 82.1229 13.868C82.1229 14.332 82.2149 14.74 82.3989 15.092C82.5909 15.444 82.8549 15.724 83.1909 15.932C83.5269 16.132 83.9189 16.232 84.3669 16.232C84.6469 16.232 84.8909 16.196 85.0989 16.124C85.3069 16.052 85.4869 15.964 85.6389 15.86C85.7909 15.748 85.9189 15.636 86.0229 15.524C86.1269 15.452 86.2269 15.416 86.3229 15.416C86.4429 15.416 86.5389 15.456 86.6109 15.536C86.6909 15.616 86.7309 15.712 86.7309 15.824C86.7309 15.96 86.6669 16.08 86.5389 16.184C86.3149 16.432 86.0109 16.652 85.6269 16.844C85.2429 17.028 84.8349 17.12 84.4029 17.12ZM92.4818 17.12C91.8418 17.12 91.2818 16.984 90.8018 16.712C90.3218 16.44 89.9458 16.068 89.6738 15.596C89.4098 15.116 89.2778 14.564 89.2778 13.94C89.2778 13.244 89.4138 12.652 89.6858 12.164C89.9658 11.668 90.3258 11.292 90.7658 11.036C91.2138 10.772 91.6858 10.64 92.1818 10.64C92.5498 10.64 92.9058 10.708 93.2498 10.844C93.5938 10.98 93.8978 11.18 94.1618 11.444C94.4258 11.7 94.6378 12.012 94.7978 12.38C94.9578 12.74 95.0418 13.144 95.0498 13.592C95.0498 13.72 95.0018 13.828 94.9058 13.916C94.8098 14.004 94.6978 14.048 94.5698 14.048H89.8298L89.6138 13.22H94.2338L94.0418 13.388V13.124C94.0098 12.796 93.8978 12.516 93.7058 12.284C93.5218 12.044 93.2938 11.86 93.0218 11.732C92.7578 11.604 92.4778 11.54 92.1818 11.54C91.9418 11.54 91.7018 11.584 91.4618 11.672C91.2298 11.752 91.0178 11.888 90.8258 12.08C90.6418 12.264 90.4898 12.504 90.3698 12.8C90.2578 13.096 90.2018 13.452 90.2018 13.868C90.2018 14.332 90.2938 14.74 90.4778 15.092C90.6698 15.444 90.9338 15.724 91.2698 15.932C91.6058 16.132 91.9978 16.232 92.4458 16.232C92.7258 16.232 92.9698 16.196 93.1778 16.124C93.3858 16.052 93.5658 15.964 93.7178 15.86C93.8698 15.748 93.9978 15.636 94.1018 15.524C94.2058 15.452 94.3058 15.416 94.4018 15.416C94.5218 15.416 94.6178 15.456 94.6898 15.536C94.7698 15.616 94.8098 15.712 94.8098 15.824C94.8098 15.96 94.7458 16.08 94.6178 16.184C94.3938 16.432 94.0898 16.652 93.7058 16.844C93.3218 17.028 92.9138 17.12 92.4818 17.12ZM100.657 10.7C101.201 10.7 101.641 10.84 101.977 11.12C102.321 11.392 102.549 11.78 102.661 12.284H102.481L102.565 12.068C102.661 11.844 102.825 11.628 103.057 11.42C103.289 11.212 103.557 11.04 103.861 10.904C104.165 10.768 104.481 10.7 104.809 10.7C105.337 10.7 105.753 10.816 106.057 11.048C106.361 11.272 106.577 11.576 106.705 11.96C106.841 12.336 106.909 12.76 106.909 13.232V16.508C106.909 16.644 106.861 16.76 106.765 16.856C106.677 16.952 106.565 17 106.429 17C106.285 17 106.169 16.952 106.081 16.856C105.993 16.76 105.949 16.644 105.949 16.508V13.256C105.949 12.944 105.901 12.664 105.805 12.416C105.717 12.16 105.569 11.96 105.361 11.816C105.161 11.664 104.885 11.588 104.533 11.588C104.205 11.588 103.905 11.664 103.633 11.816C103.361 11.96 103.145 12.16 102.985 12.416C102.825 12.664 102.745 12.944 102.745 13.256V16.508C102.745 16.644 102.701 16.76 102.613 16.856C102.525 16.952 102.409 17 102.265 17C102.129 17 102.013 16.952 101.917 16.856C101.829 16.76 101.785 16.644 101.785 16.508V13.22C101.785 12.916 101.741 12.644 101.653 12.404C101.573 12.156 101.433 11.96 101.233 11.816C101.033 11.664 100.757 11.588 100.405 11.588C100.085 11.588 99.7927 11.664 99.5287 11.816C99.2647 11.96 99.0527 12.156 98.8927 12.404C98.7327 12.644 98.6527 12.916 98.6527 13.22V16.508C98.6527 16.644 98.6047 16.76 98.5087 16.856C98.4207 16.952 98.3087 17 98.1727 17C98.0367 17 97.9207 16.952 97.8247 16.856C97.7367 16.76 97.6927 16.644 97.6927 16.508V11.276C97.6927 11.14 97.7367 11.028 97.8247 10.94C97.9207 10.844 98.0367 10.796 98.1727 10.796C98.3167 10.796 98.4327 10.844 98.5207 10.94C98.6087 11.028 98.6527 11.14 98.6527 11.276V12.188L98.3887 12.476C98.4207 12.268 98.5007 12.06 98.6287 11.852C98.7647 11.644 98.9367 11.452 99.1447 11.276C99.3527 11.1 99.5847 10.96 99.8407 10.856C100.097 10.752 100.369 10.7 100.657 10.7Z" fill="#4B54B9"/>
<rect x="0.625" y="0.625" width="113.75" height="22.75" rx="11.375" stroke="#4B54B9" stroke-width="0.75"/>
</svg>
