<svg width="74" height="24" viewBox="0 0 74 24" fill="none" xmlns="http://www.w3.org/2000/svg">
<path d="M8.85938 6.75997L8.7369 6.36171C8.56204 6.41549 8.44271 6.57703 8.44271 6.75997H8.85938ZM8.85938 16.069H8.44271C8.44271 16.1939 8.49873 16.3122 8.59534 16.3913C8.69196 16.4704 8.81898 16.5021 8.94142 16.4775L8.85938 16.069ZM11.8371 15.6792L11.8299 15.2626L11.8371 15.6792ZM15.1094 16.45L14.9562 16.8375C15.0583 16.8778 15.1723 16.8763 15.2733 16.833L15.1094 16.45ZM18.1504 15.6792L18.148 16.0959L18.1504 15.6792ZM21.3594 16.069L21.2821 16.4784C21.404 16.5014 21.5298 16.4689 21.6253 16.3897C21.7208 16.3106 21.776 16.193 21.776 16.069H21.3594ZM21.3594 6.75997H21.776C21.776 6.57451 21.6535 6.41137 21.4753 6.35976L21.3594 6.75997ZM18.1504 6.16835L18.1464 6.585L18.1504 6.16835ZM11.8371 6.16836L11.8491 6.58486L11.8371 6.16836ZM21.776 11.9025C21.776 11.6724 21.5895 11.4859 21.3594 11.4859C21.1293 11.4859 20.9427 11.6724 20.9427 11.9025H21.776ZM8.44271 6.75997V16.069H9.27604V6.75997H8.44271ZM8.85938 16.069C8.94142 16.4775 8.94141 16.4775 8.9414 16.4775C8.94141 16.4775 8.94141 16.4775 8.94142 16.4775C8.94145 16.4775 8.9415 16.4775 8.94158 16.4774C8.94175 16.4774 8.94203 16.4774 8.94241 16.4773C8.94318 16.4771 8.94439 16.4769 8.94603 16.4766C8.94931 16.4759 8.95431 16.4749 8.96095 16.4736C8.97422 16.471 8.99404 16.4671 9.01978 16.4621C9.07129 16.4522 9.14647 16.4379 9.24037 16.4206C9.42829 16.3861 9.69055 16.3398 9.98758 16.293C10.5876 16.1984 11.3078 16.1051 11.8443 16.0958L11.8299 15.2626C11.2316 15.2729 10.463 15.3745 9.85782 15.4699C9.55226 15.518 9.28286 15.5655 9.08976 15.601C8.99315 15.6188 8.91549 15.6335 8.86178 15.6439C8.83492 15.6491 8.81403 15.6532 8.79975 15.656C8.79261 15.6574 8.78712 15.6585 8.78336 15.6593C8.78148 15.6596 8.78003 15.6599 8.77902 15.6601C8.77851 15.6602 8.77812 15.6603 8.77784 15.6604C8.7777 15.6604 8.77758 15.6604 8.7775 15.6604C8.77746 15.6604 8.77741 15.6604 8.77739 15.6604C8.77736 15.6605 8.77733 15.6605 8.85938 16.069ZM11.8443 16.0958C12.4097 16.086 13.1752 16.2618 13.8303 16.4559C14.1512 16.551 14.4341 16.6469 14.6366 16.719C14.7377 16.755 14.8185 16.785 14.8736 16.8058C14.9011 16.8162 14.9222 16.8243 14.9362 16.8297C14.9432 16.8324 14.9484 16.8344 14.9518 16.8357C14.9534 16.8364 14.9547 16.8369 14.9554 16.8371C14.9558 16.8373 14.956 16.8374 14.9561 16.8374C14.9562 16.8375 14.9562 16.8375 14.9562 16.8375C14.9562 16.8375 14.9562 16.8375 14.9562 16.8375C14.9562 16.8375 14.9562 16.8375 15.1094 16.45C15.2626 16.0625 15.2625 16.0625 15.2625 16.0625C15.2625 16.0625 15.2624 16.0624 15.2623 16.0624C15.2622 16.0624 15.2621 16.0623 15.2619 16.0622C15.2615 16.0621 15.261 16.0619 15.2604 16.0617C15.2592 16.0612 15.2576 16.0605 15.2554 16.0597C15.2511 16.058 15.2449 16.0556 15.2369 16.0525C15.2209 16.0463 15.1977 16.0374 15.168 16.0262C15.1085 16.0037 15.0227 15.9719 14.9161 15.9339C14.7032 15.8581 14.4057 15.7572 14.067 15.6569C13.4029 15.4601 12.5322 15.2505 11.8299 15.2626L11.8443 16.0958ZM15.1094 16.45C15.2733 16.833 15.2733 16.8331 15.2732 16.8331C15.2732 16.8331 15.2732 16.8331 15.2732 16.8331C15.2732 16.8331 15.2732 16.8331 15.2733 16.8331C15.2734 16.833 15.2736 16.8329 15.2739 16.8328C15.2745 16.8325 15.2756 16.8321 15.277 16.8315C15.28 16.8302 15.2847 16.8282 15.2909 16.8256C15.3034 16.8204 15.3224 16.8125 15.3473 16.8024C15.397 16.7821 15.4701 16.7528 15.5619 16.7175C15.7458 16.6469 16.0034 16.5527 16.2976 16.4589C16.8983 16.2675 17.6058 16.0928 18.148 16.0959L18.1528 15.2626C17.4715 15.2586 16.6585 15.4693 16.0445 15.665C15.7314 15.7648 15.4582 15.8646 15.263 15.9396C15.1653 15.9771 15.0869 16.0086 15.0324 16.0308C15.0052 16.0419 14.9839 16.0507 14.9693 16.0569C14.9619 16.0599 14.9562 16.0624 14.9522 16.064C14.9502 16.0649 14.9486 16.0656 14.9475 16.066C14.9469 16.0663 14.9465 16.0665 14.9461 16.0666C14.946 16.0667 14.9458 16.0667 14.9457 16.0668C14.9457 16.0668 14.9456 16.0669 14.9456 16.0669C14.9455 16.0669 14.9454 16.0669 15.1094 16.45ZM18.148 16.0959C18.7059 16.0991 19.483 16.1925 20.1363 16.2888C20.4596 16.3365 20.7467 16.384 20.953 16.4196C21.056 16.4374 21.1387 16.4522 21.1955 16.4625C21.2239 16.4676 21.2457 16.4716 21.2604 16.4744C21.2677 16.4757 21.2733 16.4768 21.2769 16.4774C21.2788 16.4778 21.2801 16.478 21.281 16.4782C21.2814 16.4783 21.2817 16.4783 21.2819 16.4784C21.282 16.4784 21.2821 16.4784 21.2821 16.4784C21.2821 16.4784 21.2821 16.4784 21.2821 16.4784C21.2821 16.4784 21.2821 16.4784 21.3594 16.069C21.4366 15.6595 21.4366 15.6595 21.4366 15.6595C21.4365 15.6595 21.4365 15.6595 21.4365 15.6595C21.4364 15.6595 21.4362 15.6595 21.4361 15.6594C21.4358 15.6594 21.4354 15.6593 21.4348 15.6592C21.4337 15.659 21.4322 15.6587 21.4301 15.6583C21.426 15.6575 21.42 15.6564 21.4122 15.655C21.3965 15.6521 21.3737 15.6479 21.3442 15.6425C21.2854 15.6318 21.2003 15.6166 21.0946 15.5984C20.8834 15.562 20.5894 15.5133 20.2579 15.4644C19.6014 15.3676 18.7741 15.2661 18.1528 15.2626L18.148 16.0959ZM21.3594 6.75997C21.4753 6.35976 21.4753 6.35975 21.4752 6.35974C21.4752 6.35973 21.4752 6.35972 21.4751 6.3597C21.475 6.35967 21.4749 6.35963 21.4747 6.35959C21.4744 6.35949 21.4739 6.35936 21.4734 6.3592C21.4722 6.35887 21.4706 6.35841 21.4685 6.35781C21.4644 6.35662 21.4583 6.35489 21.4505 6.35266C21.4348 6.34821 21.412 6.34176 21.3827 6.3336C21.324 6.31728 21.2393 6.2941 21.1341 6.26631C20.9239 6.21078 20.6308 6.13661 20.2989 6.06199C19.6448 5.91492 18.8054 5.75796 18.1544 5.7517L18.1464 6.585C18.7023 6.59034 19.4675 6.72919 20.1161 6.87503C20.4356 6.94687 20.7184 7.01843 20.9213 7.07201C21.0226 7.09878 21.1038 7.12101 21.1593 7.13645C21.1871 7.14418 21.2084 7.1502 21.2227 7.15425C21.2298 7.15628 21.2352 7.15781 21.2386 7.15881C21.2404 7.15931 21.2417 7.15967 21.2425 7.1599C21.2429 7.16002 21.2431 7.1601 21.2433 7.16015C21.2434 7.16017 21.2434 7.16019 21.2435 7.16019C21.2435 7.16019 21.2435 7.16019 21.2435 7.16019C21.2435 7.16019 21.2434 7.16018 21.3594 6.75997ZM18.1544 5.7517C17.4746 5.74517 16.6724 5.90394 16.061 6.0552C15.7508 6.13193 15.4811 6.20896 15.2886 6.26688C15.1923 6.29587 15.1151 6.32015 15.0615 6.33732C15.0348 6.3459 15.0139 6.35271 14.9995 6.35745C14.9923 6.35982 14.9867 6.36168 14.9828 6.36297C14.9809 6.36362 14.9793 6.36413 14.9783 6.3645C14.9777 6.36468 14.9773 6.36483 14.9769 6.36494C14.9768 6.365 14.9766 6.36504 14.9765 6.36508C14.9765 6.3651 14.9764 6.36512 14.9764 6.36513C14.9763 6.36515 14.9763 6.36517 15.1094 6.76C15.2425 7.15484 15.2424 7.15485 15.2424 7.15486C15.2424 7.15486 15.2424 7.15487 15.2424 7.15487C15.2424 7.15487 15.2424 7.15486 15.2425 7.15484C15.2426 7.1548 15.2428 7.15473 15.2431 7.15463C15.2437 7.15441 15.2448 7.15406 15.2463 7.15356C15.2492 7.15258 15.2539 7.15104 15.2601 7.14899C15.2725 7.1449 15.2914 7.13875 15.316 7.13086C15.3653 7.11506 15.4377 7.09227 15.5288 7.06485C15.7112 7.00996 15.9673 6.93683 16.2611 6.86414C16.8576 6.71658 17.5759 6.57952 18.1464 6.585L18.1544 5.7517ZM15.1094 6.76C15.2356 6.36291 15.2355 6.36289 15.2355 6.36288C15.2355 6.36287 15.2354 6.36285 15.2353 6.36283C15.2352 6.36279 15.2351 6.36275 15.2349 6.36269C15.2346 6.36258 15.2341 6.36244 15.2335 6.36225C15.2323 6.36188 15.2307 6.36136 15.2286 6.36069C15.2243 6.35936 15.2182 6.35746 15.2104 6.35501C15.1946 6.35013 15.1718 6.34309 15.1424 6.33421C15.0837 6.31647 14.9991 6.29137 14.8937 6.26146C14.6832 6.20171 14.3887 6.12246 14.0526 6.04432C13.3904 5.89041 12.5284 5.73154 11.8251 5.75187L11.8491 6.58486C12.439 6.56781 13.2132 6.70476 13.8639 6.85601C14.1841 6.93045 14.4653 7.00612 14.6662 7.06314C14.7666 7.09162 14.8466 7.11537 14.9012 7.13188C14.9285 7.14013 14.9494 7.14657 14.9633 7.15088C14.9702 7.15303 14.9754 7.15465 14.9788 7.1557C14.9804 7.15623 14.9816 7.15661 14.9824 7.15684C14.9827 7.15696 14.983 7.15704 14.9831 7.15708C14.9832 7.1571 14.9832 7.15711 14.9832 7.15711C14.9832 7.15712 14.9832 7.15711 14.9832 7.15711C14.9832 7.1571 14.9832 7.15709 15.1094 6.76ZM11.8251 5.75187C11.1977 5.77 10.418 5.92691 9.81479 6.07161C9.50898 6.14497 9.24056 6.21719 9.04847 6.27109C8.95234 6.29807 8.8751 6.32053 8.82159 6.33633C8.79484 6.34423 8.774 6.35047 8.75968 6.35479C8.75253 6.35695 8.747 6.35863 8.74318 6.35979C8.74127 6.36038 8.73978 6.36083 8.73873 6.36115C8.73821 6.36131 8.73779 6.36144 8.73748 6.36153C8.73733 6.36158 8.73721 6.36162 8.73711 6.36165C8.73706 6.36166 8.73701 6.36168 8.73698 6.36169C8.73694 6.3617 8.7369 6.36171 8.85938 6.75997C8.98185 7.15823 8.98183 7.15824 8.98181 7.15825C8.98181 7.15824 8.9818 7.15825 8.98181 7.15825C8.98182 7.15824 8.98186 7.15823 8.98193 7.15821C8.98206 7.15817 8.98231 7.15809 8.98266 7.15799C8.98336 7.15777 8.9845 7.15742 8.98605 7.15695C8.98917 7.156 8.99397 7.15454 9.00039 7.15261C9.01322 7.14873 9.0325 7.14296 9.05762 7.13554C9.10789 7.12069 9.18149 7.09929 9.27363 7.07343C9.45809 7.02167 9.71598 6.95229 10.0092 6.88195C10.6041 6.73924 11.3132 6.60035 11.8491 6.58486L11.8251 5.75187ZM14.6927 6.76V16.45H15.526V6.76H14.6927ZM20.9427 6.75997V10.0952H21.776V6.75997H20.9427ZM21.776 16.069V12.0049H20.9427V16.069H21.776ZM21.776 12.0049V11.9025H20.9427V12.0049H21.776ZM20.9427 10.0952V12.0049H21.776V10.0952H20.9427Z" fill="#4B54B9"/>
<path d="M20.9423 7.03955H22.4648C22.6074 7.03955 22.723 7.15514 22.723 7.29772V17.198C22.723 17.3406 22.6074 17.4562 22.4648 17.4562H7.75817C7.61559 17.4562 7.5 17.3406 7.5 17.198V7.29772C7.5 7.15514 7.61559 7.03955 7.75817 7.03955H9.27566" stroke="#4B54B9" stroke-width="0.833333"/>
<path d="M32.8911 17.12C32.2991 17.12 31.7791 17.032 31.3311 16.856C30.8831 16.68 30.4511 16.4 30.0351 16.016C29.9791 15.96 29.9311 15.9 29.8911 15.836C29.8591 15.764 29.8431 15.688 29.8431 15.608C29.8431 15.48 29.8871 15.368 29.9751 15.272C30.0711 15.168 30.1871 15.116 30.3231 15.116C30.4351 15.116 30.5351 15.16 30.6231 15.248C30.9351 15.552 31.2711 15.784 31.6311 15.944C31.9991 16.104 32.4111 16.184 32.8671 16.184C33.2191 16.184 33.5351 16.128 33.8151 16.016C34.1031 15.904 34.3311 15.748 34.4991 15.548C34.6671 15.348 34.7511 15.116 34.7511 14.852C34.7431 14.532 34.6471 14.268 34.4631 14.06C34.2871 13.852 34.0391 13.68 33.7191 13.544C33.4071 13.4 33.0431 13.28 32.6271 13.184C32.2591 13.096 31.9191 12.988 31.6071 12.86C31.3031 12.732 31.0391 12.576 30.8151 12.392C30.5911 12.2 30.4151 11.972 30.2871 11.708C30.1671 11.436 30.1071 11.12 30.1071 10.76C30.1071 10.304 30.2271 9.904 30.4671 9.56C30.7071 9.216 31.0391 8.952 31.4631 8.768C31.8871 8.576 32.3751 8.48 32.9271 8.48C33.4151 8.48 33.8751 8.56 34.3071 8.72C34.7471 8.88 35.0991 9.1 35.3631 9.38C35.5231 9.532 35.6031 9.68 35.6031 9.824C35.6031 9.944 35.5511 10.056 35.4471 10.16C35.3511 10.256 35.2391 10.304 35.1111 10.304C35.0231 10.304 34.9431 10.272 34.8711 10.208C34.7351 10.056 34.5631 9.92 34.3551 9.8C34.1471 9.68 33.9191 9.584 33.6711 9.512C33.4231 9.44 33.1751 9.404 32.9271 9.404C32.5591 9.404 32.2351 9.46 31.9551 9.572C31.6751 9.676 31.4551 9.828 31.2951 10.028C31.1431 10.22 31.0671 10.452 31.0671 10.724C31.0671 11.028 31.1551 11.28 31.3311 11.48C31.5071 11.672 31.7431 11.832 32.0391 11.96C32.3351 12.08 32.6631 12.188 33.0231 12.284C33.4151 12.38 33.7751 12.492 34.1031 12.62C34.4391 12.74 34.7271 12.892 34.9671 13.076C35.2071 13.26 35.3911 13.496 35.5191 13.784C35.6551 14.064 35.7231 14.412 35.7231 14.828C35.7231 15.268 35.5991 15.66 35.3511 16.004C35.1031 16.348 34.7631 16.62 34.3311 16.82C33.9071 17.012 33.4271 17.112 32.8911 17.12ZM38.1257 10.832H40.9457C41.0737 10.832 41.1777 10.876 41.2577 10.964C41.3457 11.052 41.3897 11.156 41.3897 11.276C41.3897 11.404 41.3457 11.512 41.2577 11.6C41.1777 11.68 41.0737 11.72 40.9457 11.72H38.1257C38.0057 11.72 37.9017 11.676 37.8137 11.588C37.7257 11.5 37.6817 11.392 37.6817 11.264C37.6817 11.144 37.7257 11.044 37.8137 10.964C37.9017 10.876 38.0057 10.832 38.1257 10.832ZM39.3857 9.2C39.5217 9.2 39.6337 9.248 39.7217 9.344C39.8097 9.432 39.8537 9.544 39.8537 9.68V15.476C39.8537 15.668 39.8817 15.812 39.9377 15.908C39.9937 16.004 40.0657 16.072 40.1537 16.112C40.2497 16.144 40.3417 16.16 40.4297 16.16C40.5097 16.16 40.5777 16.148 40.6337 16.124C40.6977 16.092 40.7697 16.076 40.8497 16.076C40.9297 16.076 41.0017 16.116 41.0657 16.196C41.1377 16.268 41.1737 16.364 41.1737 16.484C41.1737 16.628 41.0897 16.752 40.9217 16.856C40.7537 16.952 40.5657 17 40.3577 17C40.2457 17 40.1057 16.992 39.9377 16.976C39.7777 16.96 39.6177 16.908 39.4577 16.82C39.2977 16.732 39.1617 16.588 39.0497 16.388C38.9457 16.18 38.8937 15.892 38.8937 15.524V9.68C38.8937 9.544 38.9417 9.432 39.0377 9.344C39.1337 9.248 39.2497 9.2 39.3857 9.2ZM48.5691 10.796C48.7131 10.796 48.8291 10.844 48.9171 10.94C49.0051 11.028 49.0491 11.14 49.0491 11.276V14.552C49.0491 15.36 48.8211 15.988 48.3651 16.436C47.9171 16.876 47.2891 17.096 46.4811 17.096C45.6811 17.096 45.0531 16.876 44.5971 16.436C44.1491 15.988 43.9251 15.36 43.9251 14.552V11.276C43.9251 11.14 43.9691 11.028 44.0571 10.94C44.1531 10.844 44.2691 10.796 44.4051 10.796C44.5491 10.796 44.6651 10.844 44.7531 10.94C44.8411 11.028 44.8851 11.14 44.8851 11.276V14.552C44.8851 15.096 45.0251 15.508 45.3051 15.788C45.5851 16.068 45.9771 16.208 46.4811 16.208C47.0011 16.208 47.3971 16.068 47.6691 15.788C47.9491 15.508 48.0891 15.096 48.0891 14.552V11.276C48.0891 11.14 48.1331 11.028 48.2211 10.94C48.3171 10.844 48.4331 10.796 48.5691 10.796ZM57.1395 8.12C57.2755 8.12 57.3875 8.168 57.4755 8.264C57.5715 8.352 57.6195 8.464 57.6195 8.6V16.508C57.6195 16.644 57.5715 16.76 57.4755 16.856C57.3875 16.952 57.2755 17 57.1395 17C56.9955 17 56.8795 16.952 56.7915 16.856C56.7035 16.76 56.6595 16.644 56.6595 16.508V15.368L56.8875 15.284C56.8875 15.476 56.8275 15.68 56.7075 15.896C56.5875 16.104 56.4235 16.3 56.2155 16.484C56.0075 16.668 55.7595 16.82 55.4715 16.94C55.1915 17.06 54.8875 17.12 54.5595 17.12C54.0235 17.12 53.5355 16.98 53.0955 16.7C52.6635 16.42 52.3195 16.036 52.0635 15.548C51.8155 15.06 51.6915 14.504 51.6915 13.88C51.6915 13.248 51.8155 12.688 52.0635 12.2C52.3195 11.712 52.6635 11.332 53.0955 11.06C53.5275 10.78 54.0075 10.64 54.5355 10.64C54.8715 10.64 55.1875 10.696 55.4835 10.808C55.7795 10.92 56.0355 11.072 56.2515 11.264C56.4755 11.456 56.6515 11.668 56.7795 11.9C56.9075 12.132 56.9715 12.364 56.9715 12.596L56.6595 12.524V8.6C56.6595 8.464 56.7035 8.352 56.7915 8.264C56.8795 8.168 56.9955 8.12 57.1395 8.12ZM54.6675 16.232C55.0675 16.232 55.4195 16.132 55.7235 15.932C56.0355 15.724 56.2755 15.444 56.4435 15.092C56.6195 14.732 56.7075 14.328 56.7075 13.88C56.7075 13.424 56.6195 13.02 56.4435 12.668C56.2755 12.316 56.0355 12.04 55.7235 11.84C55.4195 11.632 55.0675 11.528 54.6675 11.528C54.2755 11.528 53.9235 11.632 53.6115 11.84C53.3075 12.04 53.0675 12.316 52.8915 12.668C52.7155 13.02 52.6275 13.424 52.6275 13.88C52.6275 14.32 52.7155 14.72 52.8915 15.08C53.0675 15.432 53.3075 15.712 53.6115 15.92C53.9235 16.128 54.2755 16.232 54.6675 16.232ZM65.2425 10.7C65.3785 10.7 65.4905 10.748 65.5785 10.844C65.6745 10.932 65.7225 11.044 65.7225 11.18V16.412C65.7225 17.084 65.5905 17.64 65.3265 18.08C65.0625 18.528 64.7065 18.86 64.2585 19.076C63.8185 19.292 63.3185 19.4 62.7585 19.4C62.4465 19.4 62.1465 19.368 61.8585 19.304C61.5705 19.24 61.3345 19.156 61.1505 19.052C60.9985 18.98 60.8905 18.888 60.8265 18.776C60.7705 18.672 60.7625 18.56 60.8025 18.44C60.8585 18.296 60.9385 18.196 61.0425 18.14C61.1545 18.084 61.2705 18.084 61.3905 18.14C61.5185 18.196 61.7025 18.272 61.9425 18.368C62.1905 18.472 62.4665 18.524 62.7705 18.524C63.1865 18.524 63.5425 18.444 63.8385 18.284C64.1345 18.124 64.3625 17.888 64.5225 17.576C64.6825 17.272 64.7625 16.892 64.7625 16.436V15.584L64.9065 15.884C64.7785 16.132 64.6065 16.348 64.3905 16.532C64.1745 16.716 63.9265 16.86 63.6465 16.964C63.3665 17.068 63.0585 17.12 62.7225 17.12C62.2665 17.12 61.8785 17.024 61.5585 16.832C61.2465 16.632 61.0065 16.36 60.8385 16.016C60.6785 15.664 60.5985 15.26 60.5985 14.804V11.18C60.5985 11.044 60.6425 10.932 60.7305 10.844C60.8265 10.748 60.9425 10.7 61.0785 10.7C61.2225 10.7 61.3385 10.748 61.4265 10.844C61.5145 10.932 61.5585 11.044 61.5585 11.18V14.588C61.5585 15.132 61.6785 15.544 61.9185 15.824C62.1585 16.096 62.5305 16.232 63.0345 16.232C63.3545 16.232 63.6425 16.16 63.8985 16.016C64.1625 15.872 64.3705 15.676 64.5225 15.428C64.6825 15.172 64.7625 14.892 64.7625 14.588V11.18C64.7625 11.044 64.8065 10.932 64.8945 10.844C64.9825 10.748 65.0985 10.7 65.2425 10.7Z" fill="#4B54B9"/>
<rect x="0.625" y="0.625" width="72.75" height="22.75" rx="11.375" stroke="#4B54B9" stroke-width="0.75"/>
</svg>
