<svg width="126" height="24" viewBox="0 0 126 24" fill="none" xmlns="http://www.w3.org/2000/svg">
<path d="M14.5767 18.3229C14.3637 18.2378 14.2601 17.9948 14.3453 17.7803C14.4305 17.5657 14.6722 17.4608 14.8852 17.5459L14.5767 18.3229ZM19.2911 18.3701L19.0614 18.0224L19.2911 18.3701ZM19.9058 14.8216L19.5256 14.9909L19.9058 14.8216ZM17.3723 13.8002C17.4587 14.0138 17.3565 14.2579 17.144 14.3454C16.9315 14.4329 16.6892 14.3306 16.6028 14.117L17.3723 13.8002ZM16.2298 10.4071L16.4169 10.7798L16.2298 10.4071ZM18.3334 13.9894L18.7325 13.8725C18.7934 14.085 18.6791 14.3089 18.4717 14.3831C18.2643 14.4574 18.0358 14.3563 17.9505 14.1525L18.3334 13.9894ZM18.1951 11.4141L18.3533 11.8002L18.1951 11.4141ZM17.7414 12.2012L17.3507 12.3439L17.7414 12.2012ZM18.1767 13.5525L18.5789 13.4469L18.1767 13.5525ZM16.4655 11.2251C16.5679 11.4314 16.4845 11.6826 16.2792 11.7862C16.074 11.8898 15.8246 11.8065 15.7222 11.6002L16.4655 11.2251ZM16.13 12.8797C16.051 12.6632 16.1616 12.4228 16.3769 12.3427C16.5923 12.2626 16.8309 12.3733 16.9099 12.5898L16.13 12.8797ZM14.8852 17.5459C15.2441 17.6894 15.6344 17.8704 15.9762 18.0153C16.3341 18.167 16.6782 18.2971 17.0205 18.3773C17.6864 18.5332 18.3456 18.5023 19.0614 18.0224L19.5207 18.7178C18.576 19.351 17.6712 19.3885 16.8302 19.1915C16.4191 19.0952 16.024 18.9435 15.6521 18.7858C15.2641 18.6214 14.9339 18.4657 14.5767 18.3229L14.8852 17.5459ZM19.0614 18.0224C19.5831 17.6727 19.8115 17.2113 19.8629 16.6991C19.916 16.1687 19.7785 15.5688 19.5256 14.9909L20.286 14.6523C20.573 15.3081 20.7618 16.0577 20.6894 16.7808C20.6151 17.522 20.2662 18.2181 19.5207 18.7178L19.0614 18.0224ZM19.5256 14.9909C19.3834 14.6661 19.2725 14.2482 19.1723 13.8438C19.0685 13.4246 18.9743 13.0115 18.8624 12.6437C18.7477 12.2662 18.633 12.0043 18.5183 11.8641C18.4658 11.7998 18.4338 11.7871 18.4272 11.785C18.4242 11.784 18.4202 11.7831 18.4122 11.7837C18.4032 11.7843 18.3842 11.7873 18.3533 11.8002L18.0368 11.0281C18.2447 10.9414 18.4641 10.9198 18.6781 10.9874C18.8846 11.0527 19.0421 11.1873 19.1603 11.3318C19.3872 11.6093 19.5395 12.0113 19.6569 12.3972C19.7771 12.7928 19.8801 13.2428 19.9784 13.6395C20.0803 14.051 20.1765 14.402 20.286 14.6523L19.5256 14.9909ZM18.3334 13.9894C17.9343 14.1063 17.9343 14.1063 17.9343 14.1063C17.9343 14.1063 17.9343 14.1063 17.9343 14.1063C17.9343 14.1063 17.9343 14.1063 17.9343 14.1063C17.9343 14.1063 17.9343 14.1062 17.9342 14.1061C17.9342 14.1059 17.934 14.1055 17.9339 14.1049C17.9336 14.1038 17.9331 14.1021 17.9324 14.0996C17.931 14.0948 17.9288 14.0873 17.9258 14.0774C17.92 14.0574 17.911 14.0272 17.899 13.9874C17.875 13.9078 17.8386 13.7896 17.79 13.6371C17.6928 13.3321 17.5464 12.8898 17.3507 12.3439L18.1322 12.0584C18.3316 12.6145 18.4812 13.0663 18.5811 13.3799C18.6311 13.5367 18.6687 13.659 18.6939 13.7425C18.7065 13.7842 18.716 13.8163 18.7224 13.8381C18.7256 13.8491 18.7281 13.8574 18.7298 13.8632C18.7306 13.8661 18.7312 13.8683 18.7317 13.8698C18.7319 13.8706 18.7321 13.8712 18.7322 13.8717C18.7323 13.8719 18.7323 13.8721 18.7324 13.8722C18.7324 13.8723 18.7324 13.8724 18.7324 13.8724C18.7324 13.8724 18.7324 13.8725 18.7324 13.8725C18.7325 13.8725 18.7325 13.8725 18.3334 13.9894ZM17.3507 12.3439C17.1849 11.8816 17.0218 11.3881 16.811 11.0458C16.7061 10.8756 16.6194 10.7951 16.5622 10.7651C16.5339 10.7502 16.5021 10.7363 16.4169 10.7798L16.0428 10.0344C16.3525 9.87637 16.6678 9.87662 16.9479 10.0237C17.1992 10.1556 17.3822 10.3847 17.5173 10.604C17.7864 11.0408 17.9842 11.6458 18.1322 12.0584L17.3507 12.3439ZM18.3533 11.8002C18.318 11.8149 18.3064 11.828 18.2939 11.8648C18.2744 11.922 18.2633 12.0257 18.2822 12.1958C18.3211 12.547 18.454 12.9612 18.5789 13.4469L17.7746 13.6582C17.669 13.2475 17.5043 12.7205 17.4566 12.2907C17.4322 12.0702 17.4306 11.8234 17.508 11.5957C17.5925 11.3476 17.7654 11.1414 18.0368 11.0281L18.3533 11.8002ZM18.5789 13.4469C18.5933 13.5031 18.6249 13.5931 18.6585 13.6811C18.6743 13.7224 18.6889 13.7592 18.6996 13.7856C18.7049 13.7988 18.7092 13.8093 18.7121 13.8163C18.7135 13.8198 18.7146 13.8225 18.7153 13.8242C18.7157 13.825 18.7159 13.8256 18.7161 13.826C18.7162 13.8262 18.7162 13.8263 18.7162 13.8263C18.7162 13.8264 18.7163 13.8264 18.7162 13.8264C18.7162 13.8264 18.7162 13.8263 18.7162 13.8263C18.7162 13.8263 18.7162 13.8263 18.7162 13.8263C18.7162 13.8263 18.7162 13.8263 18.3334 13.9894C17.9505 14.1525 17.9505 14.1525 17.9505 14.1525C17.9505 14.1524 17.9505 14.1524 17.9505 14.1524C17.9505 14.1524 17.9505 14.1524 17.9504 14.1523C17.9504 14.1522 17.9504 14.1522 17.9503 14.152C17.9502 14.1518 17.9501 14.1515 17.95 14.1512C17.9497 14.1505 17.9493 14.1495 17.9488 14.1483C17.9478 14.1459 17.9464 14.1425 17.9446 14.1382C17.9411 14.1296 17.936 14.1174 17.9299 14.1023C17.9178 14.0721 17.9011 14.0302 17.8829 13.9826C17.8486 13.8927 17.8019 13.7643 17.7746 13.6582L18.5789 13.4469ZM16.4169 10.7798C16.3247 10.8268 16.3382 10.8397 16.3436 10.8225C16.345 10.8183 16.3126 10.9171 16.4655 11.2251L15.7222 11.6002C15.5344 11.2218 15.4552 10.8764 15.5523 10.5703C15.6535 10.2513 15.9053 10.1046 16.0428 10.0344L16.4169 10.7798ZM16.9099 12.5898C17.0347 12.9317 17.1505 13.2349 17.2351 13.4525C17.2774 13.5612 17.3118 13.6485 17.3356 13.7084C17.3475 13.7384 17.3568 13.7615 17.363 13.777C17.3661 13.7848 17.3685 13.7907 17.3701 13.7946C17.3708 13.7965 17.3714 13.7979 17.3718 13.7989C17.372 13.7994 17.3721 13.7997 17.3722 13.7999C17.3723 13.8 17.3723 13.8001 17.3723 13.8001C17.3723 13.8002 17.3723 13.8002 17.3723 13.8002C17.3723 13.8002 17.3723 13.8002 17.3723 13.8002C17.3723 13.8002 17.3723 13.8002 16.9875 13.9586C16.6028 14.117 16.6028 14.117 16.6028 14.117C16.6028 14.117 16.6027 14.117 16.6027 14.117C16.6027 14.1169 16.6027 14.1169 16.6027 14.1168C16.6027 14.1168 16.6026 14.1166 16.6026 14.1165C16.6024 14.1162 16.6023 14.1158 16.602 14.1152C16.6016 14.1141 16.6009 14.1124 16.6001 14.1103C16.5983 14.106 16.5958 14.0998 16.5926 14.0916C16.586 14.0753 16.5764 14.0514 16.5642 14.0206C16.5397 13.9589 16.5045 13.8697 16.4614 13.7589C16.3752 13.5372 16.2572 13.2284 16.13 12.8797L16.9099 12.5898Z" fill="#4B54B9"/>
<path d="M11.7162 18.9001L11.8581 18.5084L11.7162 18.9001ZM14.9187 17.298L14.5575 17.0897L14.9187 17.298ZM12.7807 13.7393L12.8594 14.1493C12.703 14.179 12.5431 14.1164 12.4476 13.9881C12.3522 13.8598 12.3379 13.6883 12.411 13.5466L12.7807 13.7393ZM9.75111 12.4573L10.1531 12.5661L9.75111 12.4573ZM11.114 12.8006L11.53 12.8021L11.114 12.8006ZM13.7135 10.1269L13.5582 10.5135L13.7135 10.1269ZM11.114 14.1736L11.1934 14.5835C11.0714 14.6068 10.9453 14.5742 10.8494 14.4946C10.7535 14.415 10.698 14.2967 10.698 14.1721L11.114 14.1736ZM13.881 14.4179L14.2363 14.6364C14.1171 14.8321 13.8622 14.8938 13.6661 14.7744C13.47 14.6549 13.4064 14.3993 13.5239 14.2025L13.881 14.4179ZM15.4687 10.2764L15.6717 9.91292L15.4687 10.2764ZM16.2733 11.6998L16.086 12.0718L16.2733 11.6998ZM14.6533 15.5287L14.9839 15.7833C14.8501 15.9584 14.6031 15.998 14.4205 15.8737C14.2379 15.7494 14.1831 15.5042 14.2955 15.3146L14.6533 15.5287ZM16.6314 13.8916L16.4162 14.2479L16.6314 13.8916ZM13.97 11.4495L13.6067 11.245L13.97 11.4495ZM13.6083 12.1622L13.975 12.3606L13.6083 12.1622ZM12.2817 11.5341L11.9177 11.3307L12.2817 11.5341ZM14.9621 12.6299L14.6074 12.4105L14.9621 12.6299ZM14.703 13.1324L15.0493 13.3649L14.703 13.1324ZM15.7332 13.9893L15.3869 13.7568L15.7332 13.9893ZM14.91 15.1429L15.2335 15.4065L14.91 15.1429ZM11.2642 13.7393L10.8734 13.595L11.2642 13.7393ZM9.95786 16.0045C9.95786 16.6704 10.0339 17.1179 10.2725 17.4778C10.5109 17.8373 10.9581 18.1774 11.8581 18.5084L11.5742 19.2919C10.6006 18.9338 9.96067 18.5119 9.58026 17.9383C9.20018 17.3651 9.1258 16.7085 9.1258 16.0014L9.95786 16.0045ZM11.8581 18.5084C12.4462 18.7246 12.9502 18.637 13.3904 18.3753C13.8462 18.1043 14.2449 17.6374 14.5575 17.0897L15.2799 17.5063C14.9254 18.1275 14.4377 18.7244 13.8165 19.0937C13.1797 19.4723 12.416 19.6014 11.5742 19.2919L11.8581 18.5084ZM10.1531 12.5661C9.86799 13.6401 9.95786 14.5855 9.95786 16.0045L9.1258 16.0014C9.1258 14.6745 9.02731 13.5604 9.34907 12.3486L10.1531 12.5661ZM10.698 12.7991C10.698 12.4411 10.5183 12.3234 10.4315 12.3031C10.3825 12.2916 10.3368 12.2995 10.2964 12.326C10.2562 12.3524 10.1928 12.4169 10.1531 12.5661L9.34907 12.3486C9.43198 12.0363 9.60017 11.7842 9.83855 11.6275C10.0766 11.471 10.3564 11.4292 10.6175 11.4903C11.1509 11.6149 11.53 12.1303 11.53 12.8021L10.698 12.7991ZM10.698 14.1721C10.698 13.8552 10.698 13.389 10.698 12.7991L11.53 12.8021C11.53 13.3921 11.53 13.8582 11.53 14.1751L10.698 14.1721ZM14.5575 17.0897C14.733 16.782 15.0015 16.4447 15.2658 16.1238C15.5396 15.7913 15.8142 15.4702 16.0423 15.1616C16.2763 14.8449 16.4181 14.5965 16.4624 14.42C16.4828 14.339 16.474 14.3053 16.4717 14.2985C16.4707 14.2955 16.4691 14.2917 16.4639 14.2856C16.4582 14.2789 16.4447 14.2653 16.4162 14.2479L16.8466 13.5352C17.0394 13.6528 17.1867 13.8183 17.2592 14.0321C17.3292 14.2382 17.3148 14.4455 17.2693 14.6268C17.1818 14.9749 16.9506 15.3364 16.7114 15.6601C16.4661 15.992 16.1672 16.342 15.908 16.6567C15.6393 16.9831 15.4153 17.2691 15.2799 17.5063L14.5575 17.0897ZM15.2656 10.6399C15.2005 10.6031 15.1682 10.6063 15.1499 10.61C15.1209 10.6158 15.0636 10.6385 14.9755 10.719C14.7892 10.8893 14.5838 11.2044 14.3334 11.6541L13.6067 11.245C13.8521 10.8042 14.1152 10.3742 14.4138 10.1012C14.5682 9.96013 14.7575 9.83672 14.9847 9.79139C15.2225 9.74395 15.456 9.79113 15.6717 9.91292L15.2656 10.6399ZM14.3334 11.6541C14.0735 12.1208 13.787 12.6847 13.5595 13.1377C13.4468 13.3621 13.3473 13.5617 13.2752 13.7035C13.2393 13.7741 13.208 13.8347 13.1841 13.8788C13.1726 13.9 13.1596 13.9233 13.147 13.9437C13.1414 13.9527 13.1304 13.9703 13.1159 13.9892C13.1093 13.9979 13.0943 14.0171 13.0725 14.0383C13.0616 14.0489 13.0421 14.0668 13.015 14.0851C12.9918 14.1008 12.9376 14.1345 12.8594 14.1493L12.702 13.3292C12.6242 13.3439 12.5706 13.3773 12.548 13.3927C12.5215 13.4106 12.5027 13.4279 12.4925 13.4378C12.4722 13.4575 12.459 13.4746 12.4544 13.4806C12.4485 13.4884 12.4444 13.4944 12.4426 13.497C12.4406 13.5001 12.4394 13.502 12.4392 13.5024C12.4387 13.5031 12.4397 13.5015 12.4425 13.4966C12.4451 13.492 12.4486 13.4858 12.453 13.4777C12.4712 13.4441 12.4981 13.3922 12.5337 13.3222C12.6047 13.1827 12.7014 12.9884 12.8162 12.76C13.0436 12.3072 13.3371 11.729 13.6067 11.245L14.3334 11.6541ZM12.7807 13.7393C12.411 13.5466 12.411 13.5466 12.411 13.5466C12.411 13.5466 12.411 13.5466 12.411 13.5465C12.411 13.5465 12.411 13.5465 12.4111 13.5464C12.4111 13.5463 12.4112 13.5462 12.4113 13.5459C12.4115 13.5455 12.4118 13.5449 12.4122 13.5441C12.4131 13.5425 12.4143 13.5401 12.4159 13.537C12.4191 13.5307 12.4239 13.5215 12.4301 13.5094C12.4426 13.4853 12.4608 13.4501 12.4839 13.4055C12.5301 13.3164 12.5958 13.1896 12.6742 13.0393C12.831 12.7387 13.0387 12.343 13.2416 11.9638L13.975 12.3606C13.774 12.7362 13.5679 13.129 13.4118 13.4283C13.3338 13.5778 13.2684 13.7038 13.2225 13.7924C13.1996 13.8367 13.1815 13.8716 13.1692 13.8955C13.1631 13.9074 13.1584 13.9165 13.1552 13.9227C13.1536 13.9257 13.1524 13.9281 13.1516 13.9296C13.1512 13.9304 13.1509 13.931 13.1507 13.9314C13.1506 13.9316 13.1505 13.9317 13.1505 13.9318C13.1505 13.9318 13.1504 13.9319 13.1504 13.9319C13.1504 13.9319 13.1504 13.9319 13.1504 13.9319C13.1504 13.9319 13.1504 13.9319 12.7807 13.7393ZM13.2416 11.9638C13.468 11.5407 13.6265 11.1524 13.6657 10.862C13.6849 10.7196 13.6701 10.6371 13.6525 10.5952C13.6411 10.5679 13.6231 10.5399 13.5582 10.5135L13.8689 9.74039C14.1286 9.84619 14.3176 10.0307 14.4196 10.2747C14.5155 10.5041 14.5206 10.7517 14.4902 10.977C14.4301 11.4219 14.2113 11.919 13.975 12.3606L13.2416 11.9638ZM13.5582 10.5135C13.5315 10.5026 13.5177 10.5019 13.4842 10.518C13.4336 10.5426 13.357 10.603 13.257 10.7263C13.053 10.9779 12.8637 11.343 12.6457 11.7374L11.9177 11.3307C12.1114 10.9803 12.3472 10.5233 12.6108 10.1983C12.7445 10.0333 12.9124 9.86684 13.1204 9.76614C13.3456 9.65709 13.6047 9.63277 13.8689 9.74039L13.5582 10.5135ZM13.881 14.4179C13.5239 14.2025 13.5239 14.2025 13.5239 14.2025C13.5239 14.2025 13.524 14.2025 13.524 14.2025C13.524 14.2024 13.524 14.2024 13.524 14.2023C13.5241 14.2022 13.5242 14.202 13.5243 14.2018C13.5246 14.2014 13.525 14.2007 13.5255 14.1998C13.5266 14.198 13.5282 14.1954 13.5302 14.192C13.5344 14.185 13.5405 14.1748 13.5485 14.1615C13.5644 14.1348 13.5878 14.0958 13.6175 14.0462C13.6769 13.9471 13.7617 13.8058 13.8633 13.6369C14.0666 13.2993 14.3375 12.8514 14.6074 12.4105L15.3169 12.8492C15.0484 13.2877 14.7787 13.7337 14.576 14.0703C14.4747 14.2386 14.3902 14.3794 14.331 14.4781C14.3014 14.5275 14.2782 14.5663 14.2624 14.5928C14.2544 14.606 14.2484 14.6162 14.2443 14.623C14.2423 14.6264 14.2407 14.629 14.2397 14.6307C14.2392 14.6316 14.2388 14.6322 14.2385 14.6327C14.2384 14.6329 14.2383 14.633 14.2382 14.6331C14.2382 14.6332 14.2382 14.6332 14.2382 14.6333C14.2382 14.6333 14.2382 14.6333 14.2381 14.6333C14.2381 14.6333 14.2381 14.6333 13.881 14.4179ZM14.6074 12.4105C14.9101 11.9163 15.1693 11.4605 15.2837 11.0961C15.3407 10.9144 15.3471 10.7985 15.3353 10.7331C15.3276 10.6911 15.315 10.6678 15.2656 10.6399L15.6717 9.91292C15.9434 10.0663 16.1027 10.3056 16.1538 10.5862C16.2006 10.8434 16.1525 11.11 16.0774 11.3493C15.9276 11.8267 15.6125 12.3664 15.3169 12.8492L14.6074 12.4105ZM16.086 12.0718C16.0198 12.038 16.0045 12.0502 16.0025 12.0508C15.9785 12.0593 15.9195 12.0926 15.8199 12.2086C15.7228 12.3217 15.6171 12.477 15.487 12.6807C15.3623 12.8759 15.2137 13.1178 15.0493 13.3649L14.3567 12.8999C14.516 12.6603 14.65 12.4413 14.786 12.2285C14.9165 12.0242 15.0496 11.8245 15.1886 11.6627C15.325 11.5037 15.4994 11.3421 15.7253 11.2629C15.9733 11.1759 16.2245 11.2076 16.4606 11.3279L16.086 12.0718ZM15.0493 13.3649C14.8205 13.7088 14.6169 14.0272 14.4705 14.2596C14.3974 14.3758 14.3386 14.4703 14.2982 14.5356C14.278 14.5683 14.2624 14.5937 14.252 14.6108C14.2467 14.6193 14.2427 14.6258 14.2401 14.6301C14.2388 14.6323 14.2378 14.6339 14.2372 14.6349C14.2369 14.6354 14.2366 14.6358 14.2365 14.6361C14.2364 14.6362 14.2363 14.6363 14.2363 14.6363C14.2363 14.6363 14.2363 14.6364 14.2363 14.6364C14.2363 14.6364 14.2363 14.6364 14.2363 14.6364C14.2363 14.6364 14.2363 14.6364 13.881 14.4179C13.5258 14.1994 13.5258 14.1994 13.5258 14.1994C13.5258 14.1994 13.5258 14.1994 13.5258 14.1994C13.5258 14.1993 13.5259 14.1993 13.5259 14.1993C13.5259 14.1992 13.526 14.199 13.5261 14.1989C13.5263 14.1985 13.5266 14.1981 13.527 14.1974C13.5277 14.1962 13.5288 14.1944 13.5303 14.1921C13.5331 14.1874 13.5373 14.1805 13.5428 14.1716C13.5538 14.1537 13.5699 14.1275 13.5906 14.094C13.6321 14.0269 13.6921 13.9304 13.7666 13.812C13.9156 13.5755 14.123 13.2511 14.3567 12.8999L15.0493 13.3649ZM14.6533 15.5287C14.3227 15.2741 14.3227 15.2742 14.3227 15.2742C14.3227 15.2742 14.3227 15.2742 14.3227 15.2742C14.3227 15.2742 14.3227 15.2742 14.3227 15.2742C14.3227 15.2741 14.3228 15.2741 14.3228 15.274C14.323 15.2738 14.3232 15.2735 14.3236 15.273C14.3243 15.2721 14.3254 15.2707 14.3269 15.2687C14.3299 15.2647 14.3346 15.2585 14.3408 15.2502C14.3534 15.2336 14.3722 15.2084 14.3969 15.1751C14.4464 15.1085 14.5194 15.009 14.6126 14.8792C14.7991 14.6196 15.0662 14.2389 15.3869 13.7568L16.0795 14.2218C15.7528 14.713 15.4799 15.1019 15.2883 15.3687C15.1925 15.5021 15.1169 15.605 15.0651 15.6749C15.0391 15.7099 15.0191 15.7366 15.0054 15.7548C14.9986 15.7638 14.9934 15.7708 14.9897 15.7755C14.9879 15.7779 14.9865 15.7798 14.9856 15.781C14.9851 15.7817 14.9847 15.7822 14.9844 15.7826C14.9843 15.7827 14.9842 15.7829 14.9841 15.783C14.984 15.7831 14.984 15.7831 14.984 15.7832C14.9839 15.7832 14.9839 15.7832 14.9839 15.7832C14.9839 15.7832 14.9839 15.7833 14.6533 15.5287ZM15.3869 13.7568C15.6585 13.3485 15.9568 12.9237 16.1059 12.5496C16.18 12.3635 16.1932 12.2452 16.1833 12.1807C16.1784 12.1486 16.1706 12.1149 16.086 12.0718L16.4606 11.3279C16.7709 11.486 16.9574 11.7424 17.0056 12.0567C17.0489 12.3384 16.974 12.6224 16.8787 12.8618C16.6887 13.3387 16.322 13.8573 16.0795 14.2218L15.3869 13.7568ZM16.4162 14.2479C16.384 14.2283 16.3671 14.2265 16.3305 14.2381C16.2731 14.2562 16.1836 14.3086 16.0586 14.4247C15.8007 14.6644 15.548 15.0176 15.2335 15.4065L14.5865 14.8792C14.8526 14.5503 15.1765 14.1046 15.492 13.8115C15.6538 13.6611 15.8503 13.5137 16.0783 13.4418C16.3269 13.3634 16.5947 13.3816 16.8466 13.5352L16.4162 14.2479ZM15.2335 15.4065C15.197 15.4516 15.1436 15.5306 15.0932 15.6099C15.0694 15.6472 15.0486 15.6809 15.0338 15.7052C15.0264 15.7174 15.0206 15.7271 15.0167 15.7336C15.0147 15.7368 15.0133 15.7393 15.0123 15.7409C15.0118 15.7417 15.0115 15.7422 15.0113 15.7426C15.0112 15.7427 15.0112 15.7428 15.0111 15.7429C15.0111 15.7429 15.0111 15.7429 15.0111 15.7429C15.0111 15.7429 15.0111 15.7429 15.0111 15.7429C15.0111 15.7429 15.0111 15.7429 15.0111 15.7429C15.0111 15.7428 15.0112 15.7428 14.6533 15.5287C14.2955 15.3146 14.2955 15.3145 14.2955 15.3145C14.2955 15.3145 14.2955 15.3145 14.2955 15.3145C14.2955 15.3145 14.2955 15.3144 14.2955 15.3144C14.2956 15.3143 14.2956 15.3142 14.2957 15.3141C14.2958 15.3139 14.296 15.3137 14.2962 15.3133C14.2965 15.3127 14.2971 15.3118 14.2977 15.3107C14.2991 15.3085 14.301 15.3053 14.3034 15.3013C14.3081 15.2933 14.315 15.282 14.3234 15.2681C14.3403 15.2404 14.364 15.202 14.3913 15.1591C14.4429 15.078 14.5179 14.9641 14.5865 14.8792L15.2335 15.4065ZM12.6457 11.7374C12.1665 12.6044 11.9707 13.0159 11.6551 13.8835L10.8734 13.595C11.2064 12.6792 11.4218 12.228 11.9177 11.3307L12.6457 11.7374ZM11.6551 13.8835C11.6329 13.9448 11.6188 14.0125 11.5889 14.1248C11.5773 14.1683 11.5597 14.2318 11.5352 14.2895C11.5232 14.3176 11.5012 14.3651 11.4646 14.4131C11.4331 14.4545 11.347 14.5541 11.1934 14.5835L11.0346 13.7637C10.9634 13.7773 10.9095 13.8077 10.8735 13.8348C10.8386 13.8611 10.8159 13.8878 10.8031 13.9045C10.7792 13.9358 10.7694 13.9603 10.7694 13.9604C10.7687 13.962 10.7736 13.9492 10.785 13.9066C10.79 13.8878 10.7952 13.8675 10.8012 13.8437C10.807 13.8207 10.8136 13.7948 10.8205 13.7685C10.8341 13.7173 10.8515 13.6552 10.8734 13.595L11.6551 13.8835Z" fill="#4B54B9"/>
<path d="M15.0001 8.66667L15.284 8.97168C15.124 9.12054 14.8762 9.12055 14.7163 8.9717L15.0001 8.66667ZM15 5.69047L15.399 5.81022C15.3462 5.98646 15.1839 6.10715 14.9999 6.10714C14.8159 6.10713 14.6537 5.98643 14.6009 5.81019L15 5.69047ZM12.9167 5.8134C12.9167 6.1119 13.0555 6.37299 13.2658 6.53527L12.7565 7.19493C12.3461 6.87808 12.0833 6.37535 12.0833 5.8134H12.9167ZM13.7499 4.91667C13.298 4.91667 12.9167 5.29536 12.9167 5.8134H12.0833C12.0833 4.8807 12.7935 4.08333 13.7499 4.08333V4.91667ZM15.0001 8.66667C14.7163 8.9717 14.7163 8.9717 14.7163 8.97169C14.7163 8.97168 14.7162 8.97166 14.7162 8.97164C14.7162 8.97159 14.7161 8.97153 14.716 8.97143C14.7158 8.97125 14.7155 8.97097 14.7151 8.9706C14.7143 8.96986 14.7131 8.96875 14.7115 8.96728C14.7084 8.96435 14.7037 8.95997 14.6975 8.95425C14.6852 8.9428 14.6671 8.92596 14.6439 8.90443C14.5975 8.86137 14.5309 8.79955 14.4499 8.72462C14.288 8.57471 14.069 8.37244 13.8404 8.1628C13.3734 7.7345 12.8937 7.30084 12.7565 7.19493L13.2658 6.53527C13.4389 6.66892 13.9537 7.13605 14.4036 7.54864C14.6335 7.75944 14.8535 7.96265 15.016 8.1131C15.0973 8.18835 15.1643 8.25044 15.2109 8.29373C15.2342 8.31538 15.2524 8.33233 15.2649 8.34388C15.2711 8.34966 15.2758 8.35409 15.2791 8.35707C15.2807 8.35857 15.2819 8.3597 15.2827 8.36046C15.2831 8.36085 15.2834 8.36114 15.2836 8.36133C15.2837 8.36143 15.2838 8.3615 15.2839 8.36155C15.2839 8.36158 15.2839 8.3616 15.2839 8.36161C15.2839 8.36162 15.284 8.36163 15.0001 8.66667ZM17.9167 5.8134C17.9167 6.37535 17.6539 6.87808 17.2435 7.19493L16.7342 6.53527C16.9445 6.37299 17.0833 6.1119 17.0833 5.8134H17.9167ZM16.225 4.08333C17.1708 4.08333 17.9167 4.86965 17.9167 5.8134H17.0833C17.0833 5.30642 16.6875 4.91667 16.225 4.91667V4.08333ZM15.0001 8.66667C14.7163 8.36165 14.7163 8.36164 14.7163 8.36163C14.7163 8.36162 14.7163 8.3616 14.7163 8.36157C14.7164 8.36152 14.7165 8.36145 14.7166 8.36135C14.7168 8.36116 14.7171 8.36087 14.7175 8.36048C14.7183 8.35972 14.7196 8.35859 14.7212 8.35709C14.7244 8.35411 14.7291 8.34968 14.7353 8.3439C14.7478 8.33235 14.766 8.3154 14.7893 8.29375C14.8359 8.25046 14.9029 8.18837 14.9841 8.11312C15.1466 7.96267 15.3666 7.75946 15.5965 7.54866C16.0463 7.13607 16.5611 6.66893 16.7342 6.53527L17.2435 7.19493C17.1063 7.30083 16.6267 7.73448 16.1598 8.16278C15.9312 8.37242 15.7122 8.57469 15.5503 8.7246C15.4694 8.79953 15.4027 8.86135 15.3564 8.90441C15.3332 8.92594 15.3151 8.94278 15.3027 8.95423C15.2966 8.95995 15.2919 8.96433 15.2887 8.96726C15.2871 8.96873 15.286 8.96984 15.2852 8.97058C15.2848 8.97095 15.2845 8.97123 15.2843 8.97141C15.2842 8.97151 15.2841 8.97157 15.284 8.97162C15.284 8.97164 15.284 8.97166 15.284 8.97167C15.284 8.97168 15.284 8.97168 15.0001 8.66667ZM13.7499 4.08333C14.4033 4.08333 14.8251 4.52136 15.0551 4.86213C15.1747 5.03919 15.2592 5.21327 15.3137 5.3415C15.3412 5.40623 15.3617 5.46085 15.3757 5.50044C15.3827 5.52027 15.3881 5.53644 15.392 5.54833C15.3939 5.55428 15.3955 5.55918 15.3966 5.56294C15.3972 5.56482 15.3977 5.56642 15.3981 5.56772C15.3983 5.56838 15.3985 5.56896 15.3987 5.56946C15.3987 5.56972 15.3988 5.56995 15.3989 5.57017C15.3989 5.57028 15.3989 5.57042 15.399 5.57048C15.399 5.57062 15.399 5.57076 15 5.69047C14.6009 5.81019 14.6009 5.81032 14.6009 5.81044C14.6009 5.81048 14.601 5.8106 14.601 5.81067C14.601 5.81082 14.6011 5.81094 14.6011 5.81105C14.6012 5.81127 14.6012 5.81142 14.6012 5.8115C14.6013 5.81166 14.6013 5.81155 14.6011 5.81118C14.6009 5.81044 14.6004 5.80864 14.5995 5.80588C14.5977 5.80033 14.5945 5.79092 14.59 5.7782C14.581 5.75268 14.5666 5.71431 14.5467 5.66743C14.5064 5.57244 14.4458 5.4489 14.3644 5.32835C14.1927 5.07388 13.9895 4.91667 13.7499 4.91667V4.08333ZM15 5.69047C14.6009 5.57073 14.6009 5.5706 14.6009 5.57046C14.601 5.5704 14.601 5.57026 14.601 5.57015C14.6011 5.56994 14.6012 5.56971 14.6012 5.56946C14.6014 5.56897 14.6016 5.5684 14.6018 5.56775C14.6022 5.56647 14.6026 5.56489 14.6032 5.56303C14.6044 5.55931 14.6059 5.55446 14.6078 5.54855C14.6117 5.53675 14.617 5.52067 14.624 5.50094C14.6379 5.46154 14.6582 5.40712 14.6854 5.34261C14.7392 5.21484 14.8226 5.04125 14.94 4.86463C15.1641 4.52732 15.5796 4.08333 16.225 4.08333V4.91667C16.0025 4.91667 15.8055 5.06792 15.6341 5.32585C15.5537 5.44684 15.4935 5.57087 15.4533 5.66631C15.4334 5.71341 15.4191 5.752 15.41 5.77771C15.4055 5.79052 15.4023 5.80002 15.4005 5.80565C15.3996 5.80847 15.399 5.8103 15.3988 5.81109C15.3987 5.81148 15.3986 5.81161 15.3987 5.81147C15.3987 5.8114 15.3987 5.81126 15.3988 5.81105C15.3988 5.81095 15.3989 5.81082 15.3989 5.81069C15.3989 5.81062 15.399 5.8105 15.399 5.81046C15.399 5.81034 15.399 5.81022 15 5.69047Z" fill="#4B54B9"/>
<path d="M30.7845 17.12C30.1925 17.12 29.6725 17.032 29.2245 16.856C28.7765 16.68 28.3445 16.4 27.9285 16.016C27.8725 15.96 27.8245 15.9 27.7845 15.836C27.7525 15.764 27.7365 15.688 27.7365 15.608C27.7365 15.48 27.7805 15.368 27.8685 15.272C27.9645 15.168 28.0805 15.116 28.2165 15.116C28.3285 15.116 28.4285 15.16 28.5165 15.248C28.8285 15.552 29.1645 15.784 29.5245 15.944C29.8925 16.104 30.3045 16.184 30.7605 16.184C31.1125 16.184 31.4285 16.128 31.7085 16.016C31.9965 15.904 32.2245 15.748 32.3925 15.548C32.5605 15.348 32.6445 15.116 32.6445 14.852C32.6365 14.532 32.5405 14.268 32.3565 14.06C32.1805 13.852 31.9325 13.68 31.6125 13.544C31.3005 13.4 30.9365 13.28 30.5205 13.184C30.1525 13.096 29.8125 12.988 29.5005 12.86C29.1965 12.732 28.9325 12.576 28.7085 12.392C28.4845 12.2 28.3085 11.972 28.1805 11.708C28.0605 11.436 28.0005 11.12 28.0005 10.76C28.0005 10.304 28.1205 9.904 28.3605 9.56C28.6005 9.216 28.9325 8.952 29.3565 8.768C29.7805 8.576 30.2685 8.48 30.8205 8.48C31.3085 8.48 31.7685 8.56 32.2005 8.72C32.6405 8.88 32.9925 9.1 33.2565 9.38C33.4165 9.532 33.4965 9.68 33.4965 9.824C33.4965 9.944 33.4445 10.056 33.3405 10.16C33.2445 10.256 33.1325 10.304 33.0045 10.304C32.9165 10.304 32.8365 10.272 32.7645 10.208C32.6285 10.056 32.4565 9.92 32.2485 9.8C32.0405 9.68 31.8125 9.584 31.5645 9.512C31.3165 9.44 31.0685 9.404 30.8205 9.404C30.4525 9.404 30.1285 9.46 29.8485 9.572C29.5685 9.676 29.3485 9.828 29.1885 10.028C29.0365 10.22 28.9605 10.452 28.9605 10.724C28.9605 11.028 29.0485 11.28 29.2245 11.48C29.4005 11.672 29.6365 11.832 29.9325 11.96C30.2285 12.08 30.5565 12.188 30.9165 12.284C31.3085 12.38 31.6685 12.492 31.9965 12.62C32.3325 12.74 32.6205 12.892 32.8605 13.076C33.1005 13.26 33.2845 13.496 33.4125 13.784C33.5485 14.064 33.6165 14.412 33.6165 14.828C33.6165 15.268 33.4925 15.66 33.2445 16.004C32.9965 16.348 32.6565 16.62 32.2245 16.82C31.8005 17.012 31.3205 17.112 30.7845 17.12ZM39.1271 17.12C38.4871 17.12 37.9271 16.984 37.4471 16.712C36.9671 16.44 36.5911 16.068 36.3191 15.596C36.0551 15.116 35.9231 14.564 35.9231 13.94C35.9231 13.244 36.0591 12.652 36.3311 12.164C36.6111 11.668 36.9711 11.292 37.4111 11.036C37.8591 10.772 38.3311 10.64 38.8271 10.64C39.1951 10.64 39.5511 10.708 39.8951 10.844C40.2391 10.98 40.5431 11.18 40.8071 11.444C41.0711 11.7 41.2831 12.012 41.4431 12.38C41.6031 12.74 41.6871 13.144 41.6951 13.592C41.6951 13.72 41.6471 13.828 41.5511 13.916C41.4551 14.004 41.3431 14.048 41.2151 14.048H36.4751L36.2591 13.22H40.8791L40.6871 13.388V13.124C40.6551 12.796 40.5431 12.516 40.3511 12.284C40.1671 12.044 39.9391 11.86 39.6671 11.732C39.4031 11.604 39.1231 11.54 38.8271 11.54C38.5871 11.54 38.3471 11.584 38.1071 11.672C37.8751 11.752 37.6631 11.888 37.4711 12.08C37.2871 12.264 37.1351 12.504 37.0151 12.8C36.9031 13.096 36.8471 13.452 36.8471 13.868C36.8471 14.332 36.9391 14.74 37.1231 15.092C37.3151 15.444 37.5791 15.724 37.9151 15.932C38.2511 16.132 38.6431 16.232 39.0911 16.232C39.3711 16.232 39.6151 16.196 39.8231 16.124C40.0311 16.052 40.2111 15.964 40.3631 15.86C40.5151 15.748 40.6431 15.636 40.7471 15.524C40.8511 15.452 40.9511 15.416 41.0471 15.416C41.1671 15.416 41.2631 15.456 41.3351 15.536C41.4151 15.616 41.4551 15.712 41.4551 15.824C41.4551 15.96 41.3911 16.08 41.2631 16.184C41.0391 16.432 40.7351 16.652 40.3511 16.844C39.9671 17.028 39.5591 17.12 39.1271 17.12ZM44.2194 10.724C44.3714 10.724 44.4994 10.792 44.6034 10.928L48.7794 16.256C48.8434 16.344 48.8754 16.44 48.8754 16.544C48.8754 16.68 48.8274 16.796 48.7314 16.892C48.6354 16.988 48.5234 17.036 48.3954 17.036C48.2434 17.036 48.1114 16.964 47.9994 16.82L43.8234 11.504C43.7594 11.416 43.7274 11.32 43.7274 11.216C43.7274 11.072 43.7754 10.956 43.8714 10.868C43.9754 10.772 44.0914 10.724 44.2194 10.724ZM44.2194 17.024C44.1154 17.024 44.0114 16.984 43.9074 16.904C43.8034 16.824 43.7514 16.72 43.7514 16.592C43.7514 16.488 43.7914 16.388 43.8714 16.292L45.8394 13.808L46.3434 14.6L44.6034 16.832C44.5074 16.96 44.3794 17.024 44.2194 17.024ZM48.3954 10.724C48.5314 10.724 48.6394 10.768 48.7194 10.856C48.8074 10.944 48.8514 11.044 48.8514 11.156C48.8514 11.204 48.8394 11.256 48.8154 11.312C48.7994 11.368 48.7714 11.42 48.7314 11.468L46.7754 13.976L46.2714 13.244L47.9994 10.94C48.1114 10.796 48.2434 10.724 48.3954 10.724ZM55.889 10.796C56.033 10.796 56.149 10.844 56.237 10.94C56.325 11.028 56.369 11.14 56.369 11.276V14.552C56.369 15.36 56.141 15.988 55.685 16.436C55.237 16.876 54.609 17.096 53.801 17.096C53.001 17.096 52.373 16.876 51.917 16.436C51.469 15.988 51.245 15.36 51.245 14.552V11.276C51.245 11.14 51.289 11.028 51.377 10.94C51.473 10.844 51.589 10.796 51.725 10.796C51.869 10.796 51.985 10.844 52.073 10.94C52.161 11.028 52.205 11.14 52.205 11.276V14.552C52.205 15.096 52.345 15.508 52.625 15.788C52.905 16.068 53.297 16.208 53.801 16.208C54.321 16.208 54.717 16.068 54.989 15.788C55.269 15.508 55.409 15.096 55.409 14.552V11.276C55.409 11.14 55.453 11.028 55.541 10.94C55.637 10.844 55.753 10.796 55.889 10.796ZM64.4594 10.736C64.5954 10.736 64.7074 10.784 64.7954 10.88C64.8914 10.968 64.9394 11.08 64.9394 11.216V16.508C64.9394 16.644 64.8914 16.76 64.7954 16.856C64.7074 16.952 64.5954 17 64.4594 17C64.3154 17 64.1994 16.952 64.1114 16.856C64.0234 16.76 63.9794 16.644 63.9794 16.508V15.368L64.2074 15.344C64.2074 15.52 64.1474 15.712 64.0274 15.92C63.9074 16.128 63.7434 16.324 63.5354 16.508C63.3274 16.684 63.0794 16.832 62.7914 16.952C62.5114 17.064 62.2074 17.12 61.8794 17.12C61.3354 17.12 60.8474 16.98 60.4154 16.7C59.9834 16.412 59.6394 16.024 59.3834 15.536C59.1354 15.048 59.0114 14.492 59.0114 13.868C59.0114 13.236 59.1354 12.68 59.3834 12.2C59.6394 11.712 59.9834 11.332 60.4154 11.06C60.8474 10.78 61.3274 10.64 61.8554 10.64C62.1994 10.64 62.5194 10.696 62.8154 10.808C63.1114 10.92 63.3674 11.072 63.5834 11.264C63.8074 11.456 63.9794 11.668 64.0994 11.9C64.2274 12.132 64.2914 12.364 64.2914 12.596L63.9794 12.524V11.216C63.9794 11.08 64.0234 10.968 64.1114 10.88C64.1994 10.784 64.3154 10.736 64.4594 10.736ZM61.9874 16.232C62.3874 16.232 62.7394 16.128 63.0434 15.92C63.3554 15.712 63.5954 15.432 63.7634 15.08C63.9394 14.72 64.0274 14.316 64.0274 13.868C64.0274 13.428 63.9394 13.032 63.7634 12.68C63.5954 12.32 63.3554 12.04 63.0434 11.84C62.7394 11.632 62.3874 11.528 61.9874 11.528C61.5954 11.528 61.2434 11.628 60.9314 11.828C60.6274 12.028 60.3874 12.304 60.2114 12.656C60.0354 13.008 59.9474 13.412 59.9474 13.868C59.9474 14.316 60.0314 14.72 60.1994 15.08C60.3754 15.432 60.6154 15.712 60.9194 15.92C61.2314 16.128 61.5874 16.232 61.9874 16.232ZM68.9745 16.508C68.9745 16.644 68.9265 16.76 68.8305 16.856C68.7345 16.952 68.6185 17 68.4825 17C68.3465 17 68.2345 16.952 68.1465 16.856C68.0585 16.76 68.0145 16.644 68.0145 16.508V8.6C68.0145 8.464 68.0585 8.352 68.1465 8.264C68.2425 8.168 68.3585 8.12 68.4945 8.12C68.6385 8.12 68.7545 8.168 68.8425 8.264C68.9305 8.352 68.9745 8.464 68.9745 8.6V16.508ZM77.2131 8.6C77.3491 8.6 77.4651 8.648 77.5611 8.744C77.6571 8.832 77.7051 8.948 77.7051 9.092V16.508C77.7051 16.644 77.6531 16.76 77.5491 16.856C77.4531 16.952 77.3371 17 77.2011 17C77.0491 17 76.9291 16.952 76.8411 16.856C76.7531 16.76 76.7091 16.644 76.7091 16.508V9.092C76.7091 8.948 76.7571 8.832 76.8531 8.744C76.9491 8.648 77.0691 8.6 77.2131 8.6ZM82.7451 8.6C82.8891 8.6 83.0051 8.648 83.0931 8.744C83.1891 8.832 83.2371 8.948 83.2371 9.092V16.508C83.2371 16.644 83.1891 16.76 83.0931 16.856C82.9971 16.952 82.8771 17 82.7331 17C82.5971 17 82.4811 16.952 82.3851 16.856C82.2891 16.76 82.2411 16.644 82.2411 16.508V9.092C82.2411 8.948 82.2891 8.832 82.3851 8.744C82.4891 8.648 82.6091 8.6 82.7451 8.6ZM77.1651 12.26H82.7571L82.7451 13.196H77.1291L77.1651 12.26ZM89.2458 17.12C88.6058 17.12 88.0458 16.984 87.5658 16.712C87.0858 16.44 86.7098 16.068 86.4378 15.596C86.1738 15.116 86.0418 14.564 86.0418 13.94C86.0418 13.244 86.1778 12.652 86.4498 12.164C86.7298 11.668 87.0898 11.292 87.5298 11.036C87.9778 10.772 88.4498 10.64 88.9458 10.64C89.3138 10.64 89.6698 10.708 90.0138 10.844C90.3578 10.98 90.6618 11.18 90.9258 11.444C91.1898 11.7 91.4018 12.012 91.5618 12.38C91.7218 12.74 91.8058 13.144 91.8138 13.592C91.8138 13.72 91.7658 13.828 91.6698 13.916C91.5738 14.004 91.4618 14.048 91.3338 14.048H86.5938L86.3778 13.22H90.9978L90.8058 13.388V13.124C90.7738 12.796 90.6618 12.516 90.4698 12.284C90.2858 12.044 90.0578 11.86 89.7858 11.732C89.5218 11.604 89.2418 11.54 88.9458 11.54C88.7058 11.54 88.4658 11.584 88.2258 11.672C87.9938 11.752 87.7818 11.888 87.5898 12.08C87.4058 12.264 87.2538 12.504 87.1338 12.8C87.0218 13.096 86.9658 13.452 86.9658 13.868C86.9658 14.332 87.0578 14.74 87.2418 15.092C87.4338 15.444 87.6978 15.724 88.0338 15.932C88.3698 16.132 88.7618 16.232 89.2098 16.232C89.4898 16.232 89.7338 16.196 89.9418 16.124C90.1498 16.052 90.3298 15.964 90.4818 15.86C90.6338 15.748 90.7618 15.636 90.8658 15.524C90.9698 15.452 91.0698 15.416 91.1658 15.416C91.2858 15.416 91.3818 15.456 91.4538 15.536C91.5338 15.616 91.5738 15.712 91.5738 15.824C91.5738 15.96 91.5098 16.08 91.3818 16.184C91.1578 16.432 90.8538 16.652 90.4698 16.844C90.0858 17.028 89.6778 17.12 89.2458 17.12ZM99.6156 10.736C99.7516 10.736 99.8636 10.784 99.9516 10.88C100.048 10.968 100.096 11.08 100.096 11.216V16.508C100.096 16.644 100.048 16.76 99.9516 16.856C99.8636 16.952 99.7516 17 99.6156 17C99.4716 17 99.3556 16.952 99.2676 16.856C99.1796 16.76 99.1356 16.644 99.1356 16.508V15.368L99.3636 15.344C99.3636 15.52 99.3036 15.712 99.1836 15.92C99.0636 16.128 98.8996 16.324 98.6916 16.508C98.4836 16.684 98.2356 16.832 97.9476 16.952C97.6676 17.064 97.3636 17.12 97.0356 17.12C96.4916 17.12 96.0036 16.98 95.5716 16.7C95.1396 16.412 94.7956 16.024 94.5396 15.536C94.2916 15.048 94.1676 14.492 94.1676 13.868C94.1676 13.236 94.2916 12.68 94.5396 12.2C94.7956 11.712 95.1396 11.332 95.5716 11.06C96.0036 10.78 96.4836 10.64 97.0116 10.64C97.3556 10.64 97.6756 10.696 97.9716 10.808C98.2676 10.92 98.5236 11.072 98.7396 11.264C98.9636 11.456 99.1356 11.668 99.2556 11.9C99.3836 12.132 99.4476 12.364 99.4476 12.596L99.1356 12.524V11.216C99.1356 11.08 99.1796 10.968 99.2676 10.88C99.3556 10.784 99.4716 10.736 99.6156 10.736ZM97.1436 16.232C97.5436 16.232 97.8956 16.128 98.1996 15.92C98.5116 15.712 98.7516 15.432 98.9196 15.08C99.0956 14.72 99.1836 14.316 99.1836 13.868C99.1836 13.428 99.0956 13.032 98.9196 12.68C98.7516 12.32 98.5116 12.04 98.1996 11.84C97.8956 11.632 97.5436 11.528 97.1436 11.528C96.7516 11.528 96.3996 11.628 96.0876 11.828C95.7836 12.028 95.5436 12.304 95.3676 12.656C95.1916 13.008 95.1036 13.412 95.1036 13.868C95.1036 14.316 95.1876 14.72 95.3556 15.08C95.5316 15.432 95.7716 15.712 96.0756 15.92C96.3876 16.128 96.7436 16.232 97.1436 16.232ZM104.131 16.508C104.131 16.644 104.083 16.76 103.987 16.856C103.891 16.952 103.775 17 103.639 17C103.503 17 103.391 16.952 103.303 16.856C103.215 16.76 103.171 16.644 103.171 16.508V8.6C103.171 8.464 103.215 8.352 103.303 8.264C103.399 8.168 103.515 8.12 103.651 8.12C103.795 8.12 103.911 8.168 103.999 8.264C104.087 8.352 104.131 8.464 104.131 8.6V16.508ZM106.918 10.832H109.738C109.866 10.832 109.97 10.876 110.05 10.964C110.138 11.052 110.182 11.156 110.182 11.276C110.182 11.404 110.138 11.512 110.05 11.6C109.97 11.68 109.866 11.72 109.738 11.72H106.918C106.798 11.72 106.694 11.676 106.606 11.588C106.518 11.5 106.474 11.392 106.474 11.264C106.474 11.144 106.518 11.044 106.606 10.964C106.694 10.876 106.798 10.832 106.918 10.832ZM108.178 9.2C108.314 9.2 108.426 9.248 108.514 9.344C108.602 9.432 108.646 9.544 108.646 9.68V15.476C108.646 15.668 108.674 15.812 108.73 15.908C108.786 16.004 108.858 16.072 108.946 16.112C109.042 16.144 109.134 16.16 109.222 16.16C109.302 16.16 109.37 16.148 109.426 16.124C109.49 16.092 109.562 16.076 109.642 16.076C109.722 16.076 109.794 16.116 109.858 16.196C109.93 16.268 109.966 16.364 109.966 16.484C109.966 16.628 109.882 16.752 109.714 16.856C109.546 16.952 109.358 17 109.15 17C109.038 17 108.898 16.992 108.73 16.976C108.57 16.96 108.41 16.908 108.25 16.82C108.09 16.732 107.954 16.588 107.842 16.388C107.738 16.18 107.686 15.892 107.686 15.524V9.68C107.686 9.544 107.734 9.432 107.83 9.344C107.926 9.248 108.042 9.2 108.178 9.2ZM115.717 10.7C116.245 10.7 116.661 10.816 116.965 11.048C117.277 11.272 117.497 11.576 117.625 11.96C117.761 12.336 117.829 12.756 117.829 13.22V16.508C117.829 16.644 117.781 16.76 117.685 16.856C117.597 16.952 117.485 17 117.349 17C117.213 17 117.097 16.952 117.001 16.856C116.913 16.76 116.869 16.644 116.869 16.508V13.22C116.869 12.916 116.825 12.644 116.737 12.404C116.649 12.156 116.501 11.96 116.293 11.816C116.093 11.664 115.817 11.588 115.465 11.588C115.137 11.588 114.837 11.664 114.565 11.816C114.293 11.96 114.077 12.156 113.917 12.404C113.757 12.644 113.677 12.916 113.677 13.22V16.508C113.677 16.644 113.629 16.76 113.533 16.856C113.445 16.952 113.333 17 113.197 17C113.061 17 112.945 16.952 112.849 16.856C112.761 16.76 112.717 16.644 112.717 16.508V8.6C112.717 8.464 112.761 8.352 112.849 8.264C112.945 8.168 113.061 8.12 113.197 8.12C113.341 8.12 113.457 8.168 113.545 8.264C113.633 8.352 113.677 8.464 113.677 8.6V12.188L113.437 12.452C113.477 12.244 113.565 12.036 113.701 11.828C113.837 11.612 114.009 11.42 114.217 11.252C114.425 11.084 114.657 10.952 114.913 10.856C115.169 10.752 115.437 10.7 115.717 10.7Z" fill="#4B54B9"/>
<rect x="0.625" y="0.625" width="124.75" height="22.75" rx="11.375" stroke="#4B54B9" stroke-width="0.75"/>
</svg>
