<svg width="84" height="24" viewBox="0 0 84 24" fill="none" xmlns="http://www.w3.org/2000/svg">
<path d="M17.5329 16.1667C18.0315 15.5487 18.3327 14.7462 18.3327 13.869C18.3327 11.9163 16.8403 10.3334 14.9993 10.3334C13.1584 10.3334 11.666 11.9163 11.666 13.869C11.666 14.7586 11.9317 15.5519 12.4282 16.1667" stroke="#4B54B9" stroke-width="0.833333" stroke-linecap="round"/>
<path d="M9.16602 16.1667L20.8327 16.1667" stroke="#4B54B9" stroke-width="0.833333" stroke-linecap="round"/>
<path d="M10.832 18.6666L19.1654 18.6666" stroke="#4B54B9" stroke-width="0.833333" stroke-linecap="round"/>
<path d="M11.1198 9.23226L9.16602 7.42627" stroke="#4B54B9" stroke-width="0.833333" stroke-linecap="round"/>
<path d="M20.8336 13.0204L23.4941 13.0126" stroke="#4B54B9" stroke-width="0.833333" stroke-linecap="round"/>
<path d="M9.32659 13.0204L6.66602 13.0126" stroke="#4B54B9" stroke-width="0.833333" stroke-linecap="round"/>
<path d="M19.1654 9.23226L21.1191 7.42627" stroke="#4B54B9" stroke-width="0.833333" stroke-linecap="round"/>
<path d="M14.9143 5.33335L14.9004 7.9939" stroke="#4B54B9" stroke-width="0.833333" stroke-linecap="round"/>
<path d="M35.0665 16.052C35.2025 16.052 35.3185 16.1 35.4145 16.196C35.5105 16.284 35.5585 16.396 35.5585 16.532C35.5585 16.668 35.5105 16.78 35.4145 16.868C35.3185 16.956 35.2025 17 35.0665 17H30.9145C30.7785 17 30.6625 16.952 30.5665 16.856C30.4785 16.76 30.4345 16.644 30.4345 16.508V9.08C30.4345 8.944 30.4825 8.832 30.5785 8.744C30.6745 8.648 30.7945 8.6 30.9385 8.6C31.0745 8.6 31.1905 8.648 31.2865 8.744C31.3825 8.832 31.4305 8.944 31.4305 9.08V16.268L31.1905 16.052H35.0665ZM40.8384 17.12C40.1984 17.12 39.6384 16.984 39.1584 16.712C38.6784 16.44 38.3024 16.068 38.0304 15.596C37.7664 15.116 37.6344 14.564 37.6344 13.94C37.6344 13.244 37.7704 12.652 38.0424 12.164C38.3224 11.668 38.6824 11.292 39.1224 11.036C39.5704 10.772 40.0424 10.64 40.5384 10.64C40.9064 10.64 41.2624 10.708 41.6064 10.844C41.9504 10.98 42.2544 11.18 42.5184 11.444C42.7824 11.7 42.9944 12.012 43.1544 12.38C43.3144 12.74 43.3984 13.144 43.4064 13.592C43.4064 13.72 43.3584 13.828 43.2624 13.916C43.1664 14.004 43.0544 14.048 42.9264 14.048H38.1864L37.9704 13.22H42.5904L42.3984 13.388V13.124C42.3664 12.796 42.2544 12.516 42.0624 12.284C41.8784 12.044 41.6504 11.86 41.3784 11.732C41.1144 11.604 40.8344 11.54 40.5384 11.54C40.2984 11.54 40.0584 11.584 39.8184 11.672C39.5864 11.752 39.3744 11.888 39.1824 12.08C38.9984 12.264 38.8464 12.504 38.7264 12.8C38.6144 13.096 38.5584 13.452 38.5584 13.868C38.5584 14.332 38.6504 14.74 38.8344 15.092C39.0264 15.444 39.2904 15.724 39.6264 15.932C39.9624 16.132 40.3544 16.232 40.8024 16.232C41.0824 16.232 41.3264 16.196 41.5344 16.124C41.7424 16.052 41.9224 15.964 42.0744 15.86C42.2264 15.748 42.3544 15.636 42.4584 15.524C42.5624 15.452 42.6624 15.416 42.7584 15.416C42.8784 15.416 42.9744 15.456 43.0464 15.536C43.1264 15.616 43.1664 15.712 43.1664 15.824C43.1664 15.96 43.1024 16.08 42.9744 16.184C42.7504 16.432 42.4464 16.652 42.0624 16.844C41.6784 17.028 41.2704 17.12 40.8384 17.12ZM46.9733 16.508C46.9733 16.644 46.9253 16.76 46.8293 16.856C46.7413 16.952 46.6293 17 46.4933 17C46.3493 17 46.2333 16.952 46.1453 16.856C46.0573 16.76 46.0133 16.644 46.0133 16.508V11.18C46.0133 11.044 46.0573 10.932 46.1453 10.844C46.2413 10.748 46.3573 10.7 46.4933 10.7C46.6293 10.7 46.7413 10.748 46.8293 10.844C46.9253 10.932 46.9733 11.044 46.9733 11.18V16.508ZM46.4933 9.896C46.2933 9.896 46.1453 9.856 46.0493 9.776C45.9533 9.696 45.9053 9.572 45.9053 9.404V9.236C45.9053 9.068 45.9573 8.944 46.0613 8.864C46.1653 8.784 46.3133 8.744 46.5053 8.744C46.6973 8.744 46.8413 8.784 46.9373 8.864C47.0333 8.944 47.0813 9.068 47.0813 9.236V9.404C47.0813 9.572 47.0293 9.696 46.9253 9.776C46.8293 9.856 46.6853 9.896 46.4933 9.896ZM49.5498 16.016C49.4778 15.912 49.4458 15.804 49.4538 15.692C49.4618 15.572 49.5298 15.468 49.6578 15.38C49.7378 15.324 49.8298 15.3 49.9338 15.308C50.0458 15.316 50.1458 15.368 50.2338 15.464C50.4578 15.728 50.7138 15.94 51.0018 16.1C51.2898 16.252 51.6418 16.328 52.0578 16.328C52.2498 16.32 52.4418 16.288 52.6338 16.232C52.8258 16.176 52.9858 16.08 53.1138 15.944C53.2498 15.8 53.3178 15.612 53.3178 15.38C53.3178 15.156 53.2498 14.98 53.1138 14.852C52.9778 14.716 52.8018 14.608 52.5858 14.528C52.3698 14.44 52.1338 14.364 51.8778 14.3C51.6138 14.228 51.3538 14.148 51.0978 14.06C50.8418 13.964 50.6098 13.848 50.4018 13.712C50.2018 13.568 50.0378 13.392 49.9098 13.184C49.7898 12.968 49.7298 12.708 49.7298 12.404C49.7298 12.044 49.8258 11.732 50.0178 11.468C50.2178 11.204 50.4818 11 50.8098 10.856C51.1458 10.712 51.5098 10.64 51.9018 10.64C52.1258 10.64 52.3578 10.668 52.5978 10.724C52.8458 10.772 53.0858 10.86 53.3178 10.988C53.5498 11.108 53.7538 11.276 53.9298 11.492C54.0018 11.572 54.0418 11.672 54.0498 11.792C54.0578 11.912 54.0058 12.02 53.8938 12.116C53.8058 12.18 53.7058 12.208 53.5938 12.2C53.4898 12.192 53.4018 12.152 53.3298 12.08C53.1618 11.88 52.9498 11.728 52.6938 11.624C52.4458 11.512 52.1698 11.456 51.8658 11.456C51.6738 11.456 51.4858 11.484 51.3018 11.54C51.1178 11.596 50.9618 11.692 50.8338 11.828C50.7138 11.956 50.6538 12.136 50.6538 12.368C50.6618 12.584 50.7338 12.76 50.8698 12.896C51.0058 13.032 51.1898 13.144 51.4218 13.232C51.6538 13.312 51.9098 13.392 52.1898 13.472C52.4458 13.536 52.6898 13.612 52.9218 13.7C53.1618 13.78 53.3778 13.888 53.5698 14.024C53.7618 14.16 53.9138 14.336 54.0258 14.552C54.1378 14.76 54.1938 15.024 54.1938 15.344C54.1938 15.712 54.0898 16.032 53.8818 16.304C53.6738 16.568 53.3978 16.772 53.0538 16.916C52.7178 17.052 52.3538 17.12 51.9618 17.12C51.5218 17.12 51.0858 17.036 50.6538 16.868C50.2298 16.7 49.8618 16.416 49.5498 16.016ZM61.4254 10.796C61.5694 10.796 61.6854 10.844 61.7734 10.94C61.8614 11.028 61.9054 11.14 61.9054 11.276V14.552C61.9054 15.36 61.6774 15.988 61.2214 16.436C60.7734 16.876 60.1454 17.096 59.3374 17.096C58.5374 17.096 57.9094 16.876 57.4534 16.436C57.0054 15.988 56.7814 15.36 56.7814 14.552V11.276C56.7814 11.14 56.8254 11.028 56.9134 10.94C57.0094 10.844 57.1254 10.796 57.2614 10.796C57.4054 10.796 57.5214 10.844 57.6094 10.94C57.6974 11.028 57.7414 11.14 57.7414 11.276V14.552C57.7414 15.096 57.8814 15.508 58.1614 15.788C58.4414 16.068 58.8334 16.208 59.3374 16.208C59.8574 16.208 60.2534 16.068 60.5254 15.788C60.8054 15.508 60.9454 15.096 60.9454 14.552V11.276C60.9454 11.14 60.9894 11.028 61.0774 10.94C61.1734 10.844 61.2894 10.796 61.4254 10.796ZM65.3637 17C65.2277 17 65.1117 16.952 65.0157 16.856C64.9277 16.76 64.8837 16.644 64.8837 16.508V11.276C64.8837 11.14 64.9277 11.028 65.0157 10.94C65.1117 10.844 65.2277 10.796 65.3637 10.796C65.5077 10.796 65.6237 10.844 65.7117 10.94C65.7997 11.028 65.8437 11.14 65.8437 11.276V12.86L65.6997 12.608C65.7477 12.36 65.8317 12.12 65.9517 11.888C66.0797 11.648 66.2397 11.436 66.4317 11.252C66.6237 11.06 66.8437 10.912 67.0917 10.808C67.3397 10.696 67.6117 10.64 67.9077 10.64C68.0837 10.64 68.2437 10.684 68.3877 10.772C68.5397 10.852 68.6157 10.968 68.6157 11.12C68.6157 11.288 68.5717 11.412 68.4837 11.492C68.3957 11.572 68.2957 11.612 68.1837 11.612C68.0797 11.612 67.9797 11.592 67.8837 11.552C67.7877 11.504 67.6677 11.48 67.5237 11.48C67.3237 11.48 67.1237 11.536 66.9237 11.648C66.7317 11.752 66.5517 11.904 66.3837 12.104C66.2237 12.304 66.0917 12.532 65.9877 12.788C65.8917 13.036 65.8437 13.304 65.8437 13.592V16.508C65.8437 16.644 65.7957 16.76 65.6997 16.856C65.6117 16.952 65.4997 17 65.3637 17ZM73.4986 17.12C72.8586 17.12 72.2986 16.984 71.8186 16.712C71.3386 16.44 70.9626 16.068 70.6906 15.596C70.4266 15.116 70.2946 14.564 70.2946 13.94C70.2946 13.244 70.4306 12.652 70.7026 12.164C70.9826 11.668 71.3426 11.292 71.7826 11.036C72.2306 10.772 72.7026 10.64 73.1986 10.64C73.5666 10.64 73.9226 10.708 74.2666 10.844C74.6106 10.98 74.9146 11.18 75.1786 11.444C75.4426 11.7 75.6546 12.012 75.8146 12.38C75.9746 12.74 76.0586 13.144 76.0666 13.592C76.0666 13.72 76.0186 13.828 75.9226 13.916C75.8266 14.004 75.7146 14.048 75.5866 14.048H70.8466L70.6306 13.22H75.2506L75.0586 13.388V13.124C75.0266 12.796 74.9146 12.516 74.7226 12.284C74.5386 12.044 74.3106 11.86 74.0386 11.732C73.7746 11.604 73.4946 11.54 73.1986 11.54C72.9586 11.54 72.7186 11.584 72.4786 11.672C72.2466 11.752 72.0346 11.888 71.8426 12.08C71.6586 12.264 71.5066 12.504 71.3866 12.8C71.2746 13.096 71.2186 13.452 71.2186 13.868C71.2186 14.332 71.3106 14.74 71.4946 15.092C71.6866 15.444 71.9506 15.724 72.2866 15.932C72.6226 16.132 73.0146 16.232 73.4626 16.232C73.7426 16.232 73.9866 16.196 74.1946 16.124C74.4026 16.052 74.5826 15.964 74.7346 15.86C74.8866 15.748 75.0146 15.636 75.1186 15.524C75.2226 15.452 75.3226 15.416 75.4186 15.416C75.5386 15.416 75.6346 15.456 75.7066 15.536C75.7866 15.616 75.8266 15.712 75.8266 15.824C75.8266 15.96 75.7626 16.08 75.6346 16.184C75.4106 16.432 75.1066 16.652 74.7226 16.844C74.3386 17.028 73.9306 17.12 73.4986 17.12Z" fill="#4B54B9"/>
<rect x="0.625" y="0.625" width="82.75" height="22.75" rx="11.375" stroke="#4B54B9" stroke-width="0.75"/>
</svg>
