<svg width="16" height="16" viewBox="0 0 16 16" fill="none" xmlns="http://www.w3.org/2000/svg">
<circle cx="8" cy="8" r="8" fill="#FCFCFC"/>
<path d="M7.2049 9.97924V11.4204H8.67413V9.97924H7.2049ZM5.69824 6.89105H7.07389C7.07389 6.72261 7.09261 6.56664 7.13004 6.42315C7.16747 6.27341 7.22362 6.14552 7.29849 6.03946C7.37959 5.92716 7.47941 5.83982 7.59795 5.77743C7.72272 5.70881 7.86933 5.67449 8.03778 5.67449C8.28733 5.67449 8.48073 5.74312 8.61799 5.88037C8.76148 6.01763 8.83322 6.22974 8.83322 6.51673C8.83946 6.68517 8.80827 6.82555 8.73964 6.93784C8.67725 7.05014 8.59303 7.15308 8.48697 7.24666C8.38091 7.34024 8.26549 7.43383 8.14072 7.52741C8.01594 7.62099 7.89741 7.73329 7.78511 7.8643C7.67281 7.98908 7.57299 8.14193 7.48565 8.32285C7.40454 8.50377 7.35463 8.72837 7.33592 8.99664V9.41775H8.59927V9.06214C8.62422 8.87498 8.68349 8.71901 8.77707 8.59424C8.87689 8.46946 8.98919 8.36028 9.11397 8.2667C9.23874 8.16688 9.36976 8.07018 9.50701 7.9766C9.6505 7.87678 9.7784 7.75824 9.89069 7.62099C10.0092 7.48374 10.1059 7.31841 10.1808 7.12501C10.2619 6.9316 10.3025 6.68517 10.3025 6.38571C10.3025 6.20479 10.2619 6.01139 10.1808 5.80551C10.1059 5.59339 9.97804 5.39687 9.79711 5.21594C9.61619 5.03502 9.376 4.88529 9.07653 4.76675C8.78331 4.64198 8.41523 4.57959 7.97227 4.57959C7.62914 4.57959 7.3172 4.63886 7.03646 4.75739C6.76195 4.86969 6.52488 5.02878 6.32524 5.23466C6.13184 5.44054 5.97899 5.68385 5.86669 5.9646C5.76063 6.24534 5.70448 6.55416 5.69824 6.89105Z" fill="#3F3C44"/>
</svg>
