<svg width="25" height="24" viewBox="0 0 25 24" fill="none" xmlns="http://www.w3.org/2000/svg">
<path d="M11.9015 22.6606L11.9014 19.5339" stroke="#3F3C44" stroke-linecap="round" stroke-linejoin="round"/>
<path d="M20.0049 19.1607L17.8093 17.016" stroke="#3F3C44" stroke-linecap="round" stroke-linejoin="round"/>
<path d="M4.3379 19.1001L6.54994 16.9725" stroke="#3F3C44" stroke-linecap="round" stroke-linejoin="round"/>
<path d="M23.5143 11.8604H19.8506" stroke="#3F3C44" stroke-linecap="round" stroke-linejoin="round"/>
<path d="M4.66368 11.8604H1" stroke="#3F3C44" stroke-linecap="round" stroke-linejoin="round"/>
<path d="M16.4453 11.7642C16.4453 14.0941 14.5565 15.9829 12.2266 15.9829C9.89662 15.9829 8.00781 14.0941 8.00781 11.7642" stroke="#3F3C44" stroke-linecap="round" stroke-linejoin="round"/>
<path d="M16.4453 11.6782C16.4453 9.34828 14.5565 7.45947 12.2266 7.45947C9.89662 7.45947 8.00781 9.34828 8.00781 11.6782" stroke="#3F3C44" stroke-linecap="round" stroke-linejoin="round"/>
<path d="M20.0605 4.56052L17.8485 6.68815" stroke="#3F3C44" stroke-linecap="round" stroke-linejoin="round"/>
<path d="M4.39357 4.49998L6.58911 6.64463" stroke="#3F3C44" stroke-linecap="round" stroke-linejoin="round"/>
<path d="M11.9015 0.999512L11.9014 4.12622" stroke="#3F3C44" stroke-linecap="round" stroke-linejoin="round"/>
</svg>
