<svg width="12" height="12" viewBox="0 0 12 12" fill="none" xmlns="http://www.w3.org/2000/svg">
<g opacity="1.0">
<path d="M11.4454 0.131836H7.93194C7.62575 0.131836 7.37758 0.380006 7.37758 0.6862C7.37758 0.992393 7.62575 1.24056 7.93194 1.24056H10.107L4.79129 6.55629C4.57478 6.7728 4.57478 7.12378 4.79129 7.34029C4.89957 7.44851 5.04143 7.50265 5.18329 7.50265C5.32514 7.50265 5.467 7.44851 5.57528 7.34029L10.891 2.02456V4.19969C10.891 4.50589 11.1392 4.75406 11.4454 4.75406C11.7516 4.75406 11.9997 4.50589 11.9997 4.19969V0.686261C11.9997 0.380006 11.7516 0.131836 11.4454 0.131836Z" fill="currentColor"/>
<path d="M9.1778 4.75335C8.8716 4.75335 8.62343 5.00152 8.62343 5.30771V10.7562H1.10873V3.24154H6.88507C7.19127 3.24154 7.43944 2.99337 7.43944 2.68718C7.43944 2.38098 7.19127 2.13281 6.88507 2.13281H0.554364C0.24817 2.13281 0 2.38098 0 2.68718V11.3106C0 11.6168 0.24817 11.865 0.554364 11.865H9.1778C9.48399 11.865 9.73216 11.6168 9.73216 11.3106V5.30771C9.73216 5.00152 9.48399 4.75335 9.1778 4.75335Z" fill="currentColor"/>
</g>
</svg>
