<svg width="128" height="130" viewBox="0 0 128 130" fill="none" xmlns="http://www.w3.org/2000/svg">
<path fill-rule="evenodd" clip-rule="evenodd" d="M98.6513 115.626C99.4448 115.046 100.228 114.444 101 113.819C106.651 109.246 111.141 103.69 114.483 97.525C114.828 96.9622 115.167 96.3935 115.501 95.8189C120.538 87.152 127.462 75.1669 127.529 64.5383C127.585 55.6533 122.313 47.2179 117.568 39.6264C116.938 38.6185 116.318 37.6255 115.72 36.6482C107.93 20.6318 93.2055 8.584 75.0802 4.31064C74.0753 3.83024 73.1711 3.22396 72.2784 2.62542C70.6276 1.51859 69.0163 0.438226 66.8808 0.22925C65.0381 0.0489189 62.6537 0.740284 60.3407 1.41096C58.827 1.84986 57.3439 2.27991 56.0631 2.45099C50.1766 2.79307 44.6634 3.93175 39.5757 5.75303C33.4109 7.92831 27.5173 11.1689 22.1581 15.5057C19.4307 17.7127 16.39 19.1122 13.5674 20.4112C9.98046 22.0621 6.74573 23.5508 4.95379 26.3287C3.32054 28.8606 3.46661 32.0706 3.61833 35.4047C3.74166 38.1151 3.86872 40.9075 3.04664 43.4841C-0.465786 54.4929 -0.0956427 67.4654 3.50712 79.7027C3.63255 80.3445 3.76393 80.9824 3.90142 81.6134C4.66143 84.4183 6.14785 87.6987 7.77576 90.8024C9.59513 94.5815 11.7406 98.1914 14.1893 101.537C14.4378 101.909 14.5777 102.112 14.5777 102.112C14.5777 102.112 14.7164 102.285 14.9863 102.602C15.3135 103.03 15.6459 103.454 15.9833 103.872C25.3539 115.497 38.0105 122.856 51.44 125.656C52.0465 125.802 52.6529 125.936 53.2588 126.057C54.0079 126.31 54.752 126.587 55.497 126.863C58.0893 127.827 60.6925 128.794 63.5519 128.794C66.2382 128.794 69.0994 127.837 71.8602 126.915C73.0521 126.516 74.2255 126.124 75.3579 125.818C76.5258 125.588 77.6883 125.323 78.844 125.022C84.7981 123.576 89.7625 121.251 95.0326 118.194C96.2738 117.388 97.4798 116.531 98.6513 115.626ZM11.2231 28.9188C5.9872 37.7505 3.1115 48.463 3.03597 60.3962C3.0035 65.526 4.55582 69.0521 6.29101 72.9935C7.23422 75.136 8.23146 77.4012 9.05755 80.1135C9.87461 82.796 10.4098 85.0304 10.8962 87.0609C11.9317 91.3838 12.7457 94.7821 15.5867 99.6126C19.5967 106.431 26.1124 112.892 33.6827 117.808C39.2768 121.116 45.3875 123.527 51.8194 124.8C53.9213 125.216 56.0443 124.001 58.2024 122.766C60.1193 121.669 62.0639 120.557 64.046 120.557C65.8777 120.557 67.7062 121.706 69.5137 122.842C71.5121 124.098 73.4848 125.338 75.408 124.991L75.6153 124.953C79.9211 123.968 84.0207 122.549 87.8712 120.729C100.289 114.321 108.955 102.828 113.149 93.1126C115.711 88.2069 114.193 82.1625 112.649 76.0184C111.676 72.1446 110.693 68.231 110.716 64.5383C110.693 60.9073 112.189 57.3494 113.641 53.8932C115.445 49.6002 117.184 45.464 115.864 41.5395C115.578 40.853 115.28 40.1708 114.97 39.4934C110.315 29.7852 103.087 21.0512 94.1392 14.5719C87.5087 10.179 80.1225 7.30341 72.4626 5.58492C70.4409 5.13137 68.265 5.85135 66.0924 6.57021C64.3159 7.15803 62.5416 7.74511 60.8557 7.68923C59.0016 7.62777 57.2316 6.96871 55.4759 6.31501C53.2432 5.48366 51.0338 4.66099 48.7042 5.08722C39.4167 6.78649 30.4438 9.75131 22.6255 16.0781C18.0588 19.7736 14.2602 24.1214 11.2231 28.9188Z" fill="#3F3C44"/>
<path d="M44.2783 62.6375H61.7586V45.1572H64.6095V62.6375H82.0898V65.4884H64.6095V82.9687H61.7586V65.4884H44.2783V62.6375Z" fill="#BABFBF"/>
</svg>
