<svg width="95" height="93" viewBox="0 0 95 93" fill="none" xmlns="http://www.w3.org/2000/svg">
<path fill-rule="evenodd" clip-rule="evenodd" d="M73.6137 83.4767C74.2014 83.0576 74.7814 82.6222 75.3532 82.1703C79.5381 78.8632 82.8632 74.8451 85.338 70.3861C85.5933 69.9791 85.8446 69.5678 86.0919 69.1523C89.8219 62.8843 94.9499 54.2166 94.9997 46.5299C95.0413 40.1042 91.1369 34.0036 87.623 28.5134C87.1565 27.7845 86.6969 27.0663 86.2542 26.3596C80.4852 14.7763 69.5808 6.06325 56.1578 2.97271C55.4136 2.62528 54.7439 2.18681 54.0828 1.75394C52.8603 0.953478 51.667 0.172146 50.0856 0.0210128C48.7209 -0.109404 46.9552 0.390597 45.2422 0.875637C44.1212 1.19305 43.0229 1.50407 42.0744 1.6278C37.715 1.87519 33.6321 2.69869 29.8644 4.01586C25.299 5.58904 20.9343 7.93268 16.9655 11.0691C14.9457 12.6652 12.6938 13.6773 10.6035 14.6168C7.94713 15.8107 5.5516 16.8874 4.22455 18.8964C3.01503 20.7274 3.1232 23.049 3.23556 25.4602C3.32689 27.4204 3.42099 29.4399 2.81219 31.3033C0.211005 39.265 0.48512 48.6468 3.1532 57.4969C3.24609 57.9611 3.34339 58.4224 3.4452 58.8787C4.00804 60.9073 5.10883 63.2797 6.31441 65.5243C7.66177 68.2574 9.25064 70.8681 11.064 73.2876C11.2481 73.5566 11.3517 73.7036 11.3517 73.7036C11.3517 73.7036 11.4544 73.8288 11.6543 74.0581C11.8966 74.3677 12.1428 74.6739 12.3926 74.9766C19.3322 83.3836 28.7052 88.7058 38.6507 90.7305C39.0998 90.8366 39.5489 90.9335 39.9976 91.0208C40.5524 91.2038 41.1034 91.4038 41.6551 91.604C43.5749 92.3005 45.5027 93 47.6203 93C49.6097 93 51.7286 92.3084 53.7731 91.641C54.6559 91.3529 55.5248 91.0692 56.3634 90.8478C57.2283 90.6817 58.0892 90.4899 58.9451 90.2722C63.3545 89.2262 67.031 87.5451 70.9339 85.3343C71.853 84.7513 72.7461 84.1314 73.6137 83.4767ZM8.86738 20.7695C4.98987 27.1567 2.86022 34.9041 2.80428 43.5343C2.78024 47.2442 3.92984 49.7943 5.21485 52.6448C5.91336 54.1942 6.65188 55.8325 7.26366 57.794C7.86875 59.734 8.26512 61.35 8.6253 62.8184C9.39215 65.9448 9.995 68.4025 12.0989 71.896C15.0686 76.8269 19.8939 81.4995 25.5002 85.0548C29.643 87.4475 34.1683 89.1912 38.9316 90.1115C40.4882 90.4122 42.0604 89.5337 43.6587 88.6406C45.0782 87.8474 46.5183 87.0428 47.9862 87.0428C49.3427 87.0428 50.6968 87.8739 52.0354 88.6956C53.5153 89.604 54.9763 90.5008 56.4005 90.2499L56.554 90.2225C59.7428 89.5101 62.7788 88.4834 65.6304 87.1673C74.8266 82.5333 81.2445 74.2211 84.3505 67.1951C86.2477 63.6472 85.1232 59.2759 83.9802 54.8324C83.2595 52.0308 82.5314 49.2005 82.5487 46.5299C82.5317 43.9039 83.639 41.3308 84.7147 38.8312C86.0509 35.7265 87.3382 32.7352 86.3612 29.897C86.1491 29.4005 85.9283 28.9071 85.6988 28.4172C82.2514 21.3962 76.8984 15.0796 70.2722 10.3938C65.3619 7.21673 59.8919 5.13711 54.2193 3.89428C52.7221 3.56627 51.1107 4.08696 49.5017 4.60685C48.1861 5.03197 46.8721 5.45655 45.6236 5.41613C44.2505 5.37169 42.9397 4.89505 41.6395 4.42229C39.9861 3.82105 38.3498 3.22608 36.6246 3.53434C29.7466 4.76327 23.1016 6.90745 17.3116 11.483C13.9296 14.1556 11.1166 17.3 8.86738 20.7695Z" fill="#3F3C44"/>
</svg>
