<svg width="24" height="24" viewBox="0 0 24 24" fill="none" xmlns="http://www.w3.org/2000/svg">
<path d="M10.3047 19.1445C10.351 20.0225 10.8036 21.1962 12.0606 21.2701C13.3177 21.344 13.7549 20.1303 13.7703 19.468" stroke="#3F3C44" stroke-linecap="round"/>
<path d="M10.8379 5.70489L10.8381 4.06884C10.8382 3.34044 11.4287 2.75 12.1571 2.75C12.8856 2.75 13.4761 3.34062 13.476 4.06913L13.4759 5.7049" stroke="#3F3C44" stroke-linecap="round" stroke-linejoin="round"/>
<path d="M14.32 19.1517L4.5 19.0587C5.56183 18.2659 6.28268 17.5086 6.62359 14.9905C6.96449 12.4724 6.37085 5.57348 12.3767 5.72259" stroke="#3F3C44" stroke-linecap="round" stroke-linejoin="round"/>
<path d="M9.86133 19.1102L19.6814 19.2032C18.6348 18.3904 17.9284 17.6196 17.6352 15.0955C17.3421 12.5715 18.0663 5.685 12.0586 5.72035" stroke="#3F3C44" stroke-linecap="round" stroke-linejoin="round"/>
</svg>
