<svg width="12" height="11" viewBox="0 0 12 11" fill="none" xmlns="http://www.w3.org/2000/svg">
<path d="M11.5314 2.01983C11.2189 1.71475 10.8419 1.56217 10.4002 1.56217H9.00018L8.68149 0.732357C8.60229 0.533056 8.45756 0.361156 8.24704 0.216676C8.0366 0.0722611 7.82099 0 7.60013 0H4.40005C4.17921 0 3.96356 0.0722611 3.75312 0.216676C3.54268 0.361156 3.39793 0.533056 3.31875 0.732357L3.00002 1.56217H1.60001C1.15826 1.56217 0.781254 1.71475 0.468713 2.01983C0.156238 2.32492 0 2.69304 0 3.12428V8.59169C0 9.02295 0.156238 9.39112 0.468713 9.69613C0.781254 10.0013 1.15829 10.1538 1.60001 10.1538H10.4C10.8417 10.1538 11.2187 10.0013 11.5313 9.69613C11.8437 9.39112 12 9.02295 12 8.59169V3.12428C12.0001 2.69304 11.8438 2.32492 11.5314 2.01983ZM7.97817 7.78934C7.43025 8.3243 6.77093 8.59184 6.00003 8.59184C5.22913 8.59184 4.56986 8.3243 4.0219 7.78934C3.47394 7.25447 3.20001 6.61062 3.20001 5.85815C3.20001 5.10544 3.47403 4.46181 4.0219 3.92683C4.56979 3.39185 5.22916 3.12441 6.00003 3.12441C6.77091 3.12441 7.43025 3.39191 7.97817 3.92683C8.5261 4.46174 8.80007 5.10544 8.80007 5.85815C8.80007 6.61062 8.52613 7.25441 7.97817 7.78934Z" fill="#BABFBF"/>
<path d="M6.00124 4.09961C5.50538 4.09961 5.08142 4.27149 4.72932 4.61529C4.37722 4.95905 4.20117 5.37291 4.20117 5.85713C4.20117 6.34116 4.37722 6.75508 4.72932 7.09884C5.08142 7.44254 5.50536 7.61441 6.00124 7.61441C6.49704 7.61441 6.92105 7.44254 7.27314 7.09884C7.62524 6.75508 7.80131 6.34118 7.80131 5.85713C7.80131 5.37293 7.62524 4.95907 7.27314 4.61529C6.92107 4.27151 6.49704 4.09961 6.00124 4.09961Z" fill="#BABFBF"/>
</svg>
