<svg width="14" height="8" viewBox="0 0 14 8" fill="none" xmlns="http://www.w3.org/2000/svg">
<path d="M1.5902 0.652942L7.57306 6.63581C7.57306 6.63581 7.89714 7.03693 7.43482 7.49925C6.97251 7.96156 6.57139 7.63749 6.57139 7.63749L0.588521 1.65462L1.5902 0.652942Z" fill="currentColor"/>
<path d="M7.34644 6.40918L1.36357 0.426319C1.36357 0.426319 0.962451 0.102247 0.500138 0.564559C0.0378256 1.02687 0.361898 1.428 0.361898 1.428L6.34476 7.41086L7.34644 6.40918Z" fill="currentColor"/>
<path d="M12.3473 0.589222L6.36443 6.57209C6.36443 6.57209 6.04036 6.97321 6.50268 7.43553C6.96499 7.89784 7.36611 7.57377 7.36611 7.57377L13.349 1.5909L12.3473 0.589222Z" fill="currentColor"/>
<path d="M6.59106 6.34546L12.5739 0.362598C12.5739 0.362598 12.975 0.038526 13.4374 0.500838C13.8997 0.963151 13.5756 1.36428 13.5756 1.36428L7.59274 7.34714L6.59106 6.34546Z" fill="currentColor"/>
</svg>
