<svg width="40" height="40" viewBox="0 0 40 40" fill="none" xmlns="http://www.w3.org/2000/svg">
<path d="M20 40C31.0457 40 40 31.0457 40 20C40 8.9543 31.0457 0 20 0C8.9543 0 0 8.9543 0 20C0 31.0457 8.9543 40 20 40Z" fill="#E6ECEC"/>
<path d="M19.7636 39.9986C21.3958 39.9817 22.9457 39.808 24.4005 39.5143C29.8479 38.2912 34.4549 34.8455 37.2192 30.1794L19.7421 32.6592C11.5428 29.8256 7.50094 29.3457 6.0907 29.3457C4.80918 29.3457 3.46264 29.8784 2.85227 30.1199C2.82148 30.1321 2.79257 30.1435 2.76562 30.1541C6.20773 35.9837 12.5233 39.9148 19.7636 39.9986Z" fill="#BABFBF"/>
<path d="M38.2295 28.2388C38.2295 28.2388 38.2295 28.2388 38.2295 28.2388C37.5246 29.7961 36.626 31.2469 35.5645 32.5606C35.5644 32.5607 35.5647 32.5605 35.5645 32.5606C34.9357 33.3388 34.2493 34.0691 33.5125 34.7446C31.9097 35.2559 30.1878 35.4597 28.4281 35.4411C23.9207 35.3933 19.0034 33.8973 14.7542 32.2673C6.97364 29.2825 4.35901 30.5379 3.4851 31.284C3.03033 30.6197 2.6146 29.9266 2.24121 29.208C4.18509 27.7809 7.93023 27.0789 15.6138 30.0265C16.263 30.2755 16.9219 30.5188 17.587 30.7523C19.8991 29.4608 23.4596 27.7591 27.799 27.1869C31.8818 26.6484 36.2026 27.3449 38.0601 28.1608C38.1489 28.0747 38.2494 28.0042 38.3573 27.9502C38.3154 28.0468 38.2729 28.143 38.2295 28.2388Z" fill="#3F3C44"/>
<path d="M19.9998 13.7998C17.1279 13.7998 14.7998 16.1279 14.7998 18.9998C14.7998 21.8717 17.1279 24.1998 19.9998 24.1998C22.8717 24.1998 25.1998 21.8717 25.1998 18.9998C25.1998 16.1279 22.8717 13.7998 19.9998 13.7998Z" fill="#3F3C44"/>
</svg>
