<svg width="15" height="23" viewBox="0 0 15 23" fill="none" xmlns="http://www.w3.org/2000/svg">
<path d="M5.21623 20.9853L5.01345 7.91005C5.01287 7.87269 5.02861 7.83767 5.05697 7.81333C5.28098 7.62109 6.28405 6.72785 6.49598 5.97177C6.98254 4.23587 6.33078 1.81552 6.02983 0.859885C5.99259 0.741632 5.83106 0.753353 5.80672 0.874941L5.13273 4.24233C5.10664 4.37266 4.92102 4.37467 4.89221 4.24494L4.17458 1.01391C4.14577 0.884175 3.96015 0.886191 3.93406 1.01652L3.28898 4.23943C3.2629 4.36976 3.07728 4.37178 3.04846 4.24205L2.30312 0.88622C2.27592 0.763766 2.10985 0.755675 2.07557 0.876363C1.77571 1.93217 1.09311 4.64573 1.57931 5.96404C1.89129 6.80999 2.88404 7.62526 3.11872 7.80942C3.15014 7.83408 3.16814 7.87179 3.16705 7.91172L2.81056 20.972C2.7921 21.6482 3.33449 22.2065 4.0109 22.2076C4.68359 22.2086 5.22666 21.6579 5.21623 20.9853Z" stroke="currentColor" stroke-width="1.22917" stroke-linejoin="round"/>
<path d="M14.2801 20.7992L14.2801 10.9348L14.2801 0.762675C14.2801 0.650017 14.1444 0.599565 14.0731 0.686762C13.3707 1.54488 11.1268 4.53511 11.2072 7.62137C11.2389 8.83746 12.5351 10.6477 12.7214 10.9019C12.7362 10.922 12.7425 10.9457 12.7404 10.9705L11.9281 20.7021C11.8708 21.3881 12.4114 21.9766 13.0997 21.9777C13.7513 21.9787 14.2801 21.4507 14.2801 20.7992Z" stroke="currentColor" stroke-width="1.22917" stroke-linejoin="round"/>
</svg>
