<svg width="18" height="18" viewBox="0 0 18 18" fill="none" xmlns="http://www.w3.org/2000/svg">
<g clip-path="url(#clip0)">
<path d="M13.432 0.00396152C13.2813 0.0220525 13.1375 0.0926898 13.031 0.200847L1.32471 11.9015C1.23525 11.9895 1.1711 12.1029 1.14179 12.2249L0.0161845 17.1752C-0.0345314 17.3968 0.0361754 17.6423 0.19701 17.8031C0.357845 17.9638 0.603488 18.0345 0.825216 17.9838L5.7779 16.8588C5.90243 16.8307 6.01858 16.7665 6.10854 16.6759L17.8149 4.97532C18.0617 4.72577 18.0617 4.2756 17.8149 4.02605L13.9878 0.200847C13.845 0.0561047 13.6342 -0.0185746 13.432 0.00396152ZM13.5094 1.62827L16.3797 4.5042L15.0853 5.79802L12.215 2.92912L13.5094 1.62827ZM11.2582 3.87839L14.1285 6.75432L5.85528 15.0235L2.98498 12.1546L11.2582 3.87839ZM2.27444 13.35L4.65932 15.7337L1.57797 16.4298L2.27444 13.35Z" fill="#3F3C44"/>
</g>
<defs>
<clipPath id="clip0">
<rect width="18" height="18" fill="white"/>
</clipPath>
</defs>
</svg>
