<svg width="14" height="14" viewBox="0 0 14 14" fill="none" xmlns="http://www.w3.org/2000/svg">
<path d="M4.73868 13.9998C3.18242 8.87171 6.47076 6.9993 6.47076 6.9993C6.24068 9.73571 7.79572 11.8676 7.79572 11.8676C8.36764 11.695 9.45927 10.8885 9.45927 10.8885C9.45927 11.8676 8.88327 13.9986 8.88327 13.9986C8.88327 13.9986 10.8997 12.4395 11.5344 9.84993C12.1683 7.26037 10.3269 4.66062 10.3269 4.66062C10.4379 6.49346 9.81784 8.29611 8.60302 9.67329C8.6638 9.60313 8.71479 9.52521 8.75395 9.44077C8.9722 9.00428 9.32261 7.86982 9.11742 5.24274C8.8286 1.55504 5.48723 0 5.48723 0C5.77523 2.24689 4.91164 2.76456 2.88871 7.02948C0.865772 11.2936 4.73868 13.9998 4.73868 13.9998Z" fill="#3F3C44"/>
</svg>
