<svg width="20" height="20" viewBox="0 0 20 20" fill="none" xmlns="http://www.w3.org/2000/svg">
<path d="M4.24512 7.15284C5.29103 5.0769 7.43846 3.65234 9.92216 3.65234C11.6353 3.65234 13.0731 4.28254 14.1746 5.30727L12.3608 7.12106C11.6989 6.49087 10.8595 6.16783 9.92216 6.16783C8.26459 6.16783 6.85857 7.28523 6.35812 8.79187" stroke="#3F3C44" stroke-width="0.83" stroke-linecap="round" stroke-linejoin="round"/>
<path d="M12.0826 13.2349C12.7499 12.7847 13.1947 12.1175 13.3483 11.3337H9.92188V8.94531H15.9061C15.967 9.3319 16.0067 9.73438 16.0067 10.1501C16.0067 12.0804 15.3236 13.7168 14.1294 14.8236" stroke="#3F3C44" stroke-width="0.83" stroke-linecap="round" stroke-linejoin="round"/>
<path d="M6.3556 11.2182C6.2285 10.8343 6.15436 10.4265 6.15436 10.0028C6.15436 9.57919 6.22585 9.17142 6.3556 8.78747M4.24259 7.14844C3.81099 8.00635 3.56738 8.97547 3.56738 10.0028C3.56738 11.0302 3.81099 11.9993 4.24524 12.8573" stroke="#3F3C44" stroke-width="0.83" stroke-linecap="round" stroke-linejoin="round"/>
<path d="M14.1294 14.8225C13.0808 15.7969 11.6377 16.3609 9.92188 16.3609C7.43818 16.3609 5.29075 14.9363 4.24219 12.8577M12.0826 13.2338C11.5133 13.6177 10.7798 13.8428 9.92188 13.8428C8.26431 13.8428 6.85829 12.7254 6.35519 11.2188" stroke="#3F3C44" stroke-width="0.83" stroke-linecap="round" stroke-linejoin="round"/>
</svg>
