<svg width="46" height="59" viewBox="0 0 46 59" fill="none" xmlns="http://www.w3.org/2000/svg">
<path d="M15.0762 56.1313L15.076 57.4392C14.3538 57.4392 13.7684 56.8537 13.7684 56.1315L15.0762 56.1313ZM15.0762 51.3378L13.7683 51.338L13.7683 51.309L13.7696 51.28L15.0762 51.3378ZM15.7004 37.2577L14.6534 36.474C14.9973 36.0146 15.6005 35.833 16.1408 36.0261C16.6811 36.2193 17.0324 36.7421 17.0069 37.3154L15.7004 37.2577ZM10.9912 43.5488L9.82094 44.1329C9.6001 43.6904 9.6478 43.1611 9.94421 42.7651L10.9912 43.5488ZM14.1308 49.84L15.301 49.2559L14.1308 49.84ZM30.2681 54.8235C30.9904 54.8235 31.5758 55.409 31.5757 56.1313C31.5756 56.8536 30.99 57.4392 30.2677 57.4392L30.2681 54.8235ZM13.7684 56.1315L13.7683 51.338L16.384 51.3376L16.3841 56.1311L13.7684 56.1315ZM13.7696 51.28L14.3938 37.1999L17.0069 37.3154L16.3827 51.3955L13.7696 51.28ZM16.7473 38.0413L12.0381 44.3324L9.94421 42.7651L14.6534 36.474L16.7473 38.0413ZM12.1614 42.9646L15.301 49.2559L12.9606 50.4242L9.82094 44.1329L12.1614 42.9646ZM14.1308 49.84C15.301 49.2559 15.3013 49.2564 15.3015 49.2568C15.3016 49.257 15.3018 49.2575 15.302 49.2579C15.3024 49.2586 15.3027 49.2593 15.3031 49.2601C15.3039 49.2618 15.3048 49.2636 15.3058 49.2656C15.3078 49.2696 15.3101 49.2744 15.3128 49.28C15.3182 49.2912 15.3251 49.3054 15.3331 49.3227C15.3493 49.3573 15.3705 49.404 15.3956 49.462C15.4457 49.5779 15.5116 49.7398 15.5835 49.9414C15.7266 50.343 15.8964 50.9105 16.0096 51.5913C16.2351 52.9466 16.2466 54.8204 15.301 56.7152L12.9606 55.5474C13.5848 54.2966 13.5964 53.0247 13.4294 52.0208C13.3464 51.522 13.2218 51.1065 13.1196 50.82C13.0688 50.6775 13.0244 50.5691 12.9948 50.5007C12.98 50.4665 12.9691 50.4426 12.963 50.4295C12.9599 50.423 12.9581 50.4192 12.9577 50.4183C12.9575 50.4178 12.9576 50.4181 12.958 50.4191C12.9583 50.4195 12.9586 50.4202 12.959 50.4211C12.9592 50.4215 12.9595 50.422 12.9597 50.4225C12.9599 50.4227 12.9601 50.4232 12.9601 50.4233C12.9604 50.4237 12.9606 50.4242 14.1308 49.84ZM15.0764 54.8235L30.2681 54.8235L30.2677 57.4392L15.076 57.4392L15.0764 54.8235Z" fill="currentColor"/>
<path d="M26.7266 20.1738C26.7266 22.6808 24.6988 24.7088 22.2028 24.7088C19.7067 24.7088 17.6789 22.6808 17.6789 20.1738C17.6789 17.6669 19.7067 15.6389 22.2028 15.6389C24.6988 15.6389 26.7266 17.6669 26.7266 20.1738Z" stroke="currentColor" stroke-width="2.61569"/>
<path d="M14.8379 54.3104C15.2763 54.993 14.3663 55.7298 13.7554 56.2629C13.0808 56.8516 11.6163 56.7714 10.9904 56.1309C9.85019 54.9641 3.29919 44.6061 3.30604 43.9569C3.31686 42.9305 7.29785 36.7302 10.0788 33.2501C12.0488 30.7847 13.5411 28.6152 16.6933 28.6152L28.4651 28.5211" stroke="currentColor" stroke-width="2.61569" stroke-linejoin="round"/>
<path d="M30.1398 51.4961L31.4477 51.4963L31.4477 51.4673L31.4464 51.4384L30.1398 51.4961ZM29.5156 37.416L30.5626 36.6324C30.2187 36.1729 29.6155 35.9913 29.0752 36.1845C28.5349 36.3777 28.1837 36.9005 28.2091 37.4738L29.5156 37.416ZM34.2248 43.7071L35.3951 44.2912C35.6159 43.8487 35.5682 43.3194 35.2718 42.9235L34.2248 43.7071ZM31.0852 49.9984L32.2554 50.5825L32.2554 50.5825L31.0852 49.9984ZM31.4477 55.3915L31.4477 51.4963L28.832 51.496L28.832 55.3911L31.4477 55.3915ZM31.4464 51.4384L30.8222 37.3583L28.2091 37.4738L28.8333 51.5539L31.4464 51.4384ZM28.4687 38.1997L33.1779 44.4908L35.2718 42.9235L30.5626 36.6324L28.4687 38.1997ZM33.0546 43.123L29.915 49.4142L32.2554 50.5825L35.3951 44.2912L33.0546 43.123ZM31.0852 49.9984C29.915 49.4142 29.9147 49.4147 29.9145 49.4152C29.9144 49.4154 29.9142 49.4159 29.914 49.4162C29.9136 49.4169 29.9133 49.4177 29.9129 49.4185C29.9121 49.4201 29.9112 49.4219 29.9102 49.4239C29.9082 49.4279 29.9059 49.4328 29.9032 49.4383C29.8978 49.4495 29.891 49.4638 29.8829 49.4811C29.8667 49.5156 29.8455 49.5623 29.8204 49.6204C29.7703 49.7363 29.7044 49.8982 29.6325 50.0997C29.4894 50.5014 29.3197 51.0688 29.2064 51.7496C28.9809 53.105 28.9694 54.9787 29.915 56.8735L32.2554 55.7058C31.6312 54.4549 31.6196 53.183 31.7866 52.1792C31.8696 51.6804 31.9942 51.2648 32.0964 50.9783C32.1472 50.8358 32.1916 50.7274 32.2212 50.659C32.236 50.6249 32.2469 50.6009 32.253 50.5879C32.2561 50.5813 32.2579 50.5776 32.2583 50.5766C32.2586 50.5762 32.2584 50.5764 32.258 50.5774C32.2577 50.5779 32.2574 50.5786 32.257 50.5794C32.2568 50.5798 32.2565 50.5803 32.2563 50.5808C32.2561 50.5811 32.2559 50.5815 32.2559 50.5816C32.2557 50.5821 32.2554 50.5825 31.0852 49.9984Z" fill="currentColor"/>
<path d="M30.282 54.3113C29.8436 54.9939 30.8486 55.8909 31.4595 56.424C32.1341 57.0127 33.5986 56.9325 34.2244 56.2921C35.3647 55.1252 41.9157 44.7672 41.9088 44.1181C41.898 43.0916 37.917 36.8914 35.1361 33.4112C33.166 30.9458 31.3135 28.5998 28.1622 28.522" stroke="currentColor" stroke-width="2.61569" stroke-linejoin="round"/>
<path d="M15.7237 11.0877L11.8359 4.5957" stroke="currentColor" stroke-width="2.61569" stroke-linecap="round"/>
<path d="M28.6825 11.0877L32.5703 4.5957" stroke="currentColor" stroke-width="2.61569" stroke-linecap="round"/>
<path d="M22.3302 1.99951L22.2031 9.56934" stroke="currentColor" stroke-width="2.61569" stroke-linecap="round"/>
<path d="M4.70995 12.6013L11.543 15.834" stroke="currentColor" stroke-width="2.61569" stroke-linecap="round"/>
<path d="M32.5695 15.8347L39.4023 12.6016" stroke="currentColor" stroke-width="2.61569" stroke-linecap="round"/>
<path d="M33.8668 21.3569L41.418 21.6396" stroke="currentColor" stroke-width="2.61569" stroke-linecap="round"/>
<path d="M11.6098 21.3569L4.05859 21.6396" stroke="currentColor" stroke-width="2.61569" stroke-linecap="round"/>
</svg>
