<svg width="24" height="24" viewBox="0 0 24 24" fill="none" xmlns="http://www.w3.org/2000/svg">
<path d="M10.1055 13.2274L12.4421 15.7718L14.2779 15.7153L14.5648 17.7235L16.5156 17.7809V19.617L20.6469 20.3629L20.5321 17.6661L13.287 9.98486" stroke-linecap="round" stroke-linejoin="round"/>
<path d="M13.335 9.88251C13.7 8.7444 13.6723 7.5167 13.2564 6.39618C12.8406 5.27565 12.0606 4.32717 11.0415 3.70273C10.0224 3.0783 8.82312 2.81406 7.63594 2.95236C6.44877 3.09066 5.34238 3.6235 4.4941 4.46548C3.64582 5.30746 3.10475 6.40984 2.9576 7.59596C2.81045 8.78207 3.06574 9.98325 3.68257 11.007C4.29939 12.0307 5.24203 12.8178 6.35942 13.242C7.47681 13.6662 8.70427 13.703 9.84507 13.3465" stroke-linecap="round" stroke-linejoin="round"/>
<circle cx="7.73192" cy="7.72606" r="1.29734" stroke-linecap="round" stroke-linejoin="round"/>
</svg>
