<svg width="27" height="31" viewBox="0 0 27 31" fill="none" xmlns="http://www.w3.org/2000/svg">
<path d="M19.341 12.2153C19.341 12.4108 19.2127 12.5412 19.0201 12.5412H8.26991C8.07735 12.5412 7.94897 12.4108 7.94897 12.2153C7.94897 12.0197 8.07735 11.8893 8.26991 11.8893H19.0201C19.2127 11.8893 19.341 12.0197 19.341 12.2153ZM19.0201 8.92195H8.26991C8.07735 8.92195 7.94897 9.05234 7.94897 9.24791C7.94897 9.44349 8.07735 9.57387 8.26991 9.57387H19.0201C19.2127 9.57387 19.341 9.44349 19.341 9.24791C19.341 9.05234 19.2127 8.92195 19.0201 8.92195ZM22.0536 6.28055V15.0522C22.0536 15.6064 21.6364 16.0301 21.0908 16.0301H6.19921C5.65362 16.0301 5.2364 15.6064 5.2364 15.0522V6.28055C5.2364 5.72642 5.65362 5.30267 6.19921 5.30267H21.1229C21.6364 5.30267 22.0536 5.75902 22.0536 6.28055ZM21.4117 6.28055C21.4117 6.08498 21.2833 5.95459 21.0908 5.95459H6.19921C6.00665 5.95459 5.87827 6.08498 5.87827 6.28055V15.0522C5.87827 15.2478 6.00665 15.3782 6.19921 15.3782H21.1229C21.3154 15.3782 21.4438 15.2478 21.4438 15.0522V6.28055H21.4117ZM26.29 1.97788V25.6089V29.3585C26.29 29.9127 25.8728 30.3364 25.3272 30.3364H1.96282C1.41722 30.3364 1 29.9127 1 29.3585V25.6089V1.97788C1 1.42375 1.41722 1 1.96282 1H25.3272C25.8728 1 26.29 1.42375 26.29 1.97788ZM25.6481 25.9348H1.64188V29.3585C1.64188 29.5541 1.77025 29.6845 1.96282 29.6845H25.3272C25.5197 29.6845 25.6481 29.5541 25.6481 29.3585V25.9348ZM25.6481 1.97788C25.6481 1.7823 25.5197 1.65192 25.3272 1.65192H1.96282C1.77025 1.65192 1.64188 1.7823 1.64188 1.97788V25.2829H25.6481V1.97788Z" fill="#3F3C44" stroke="#3F3C44"/>
</svg>
