<svg width="18" height="18" viewBox="0 0 18 18" fill="none" xmlns="http://www.w3.org/2000/svg">
<path d="M9.125 17.25C13.6123 17.25 17.25 13.6123 17.25 9.125C17.25 4.63769 13.6123 1 9.125 1C4.63769 1 1 4.63769 1 9.125C1 13.6123 4.63769 17.25 9.125 17.25Z" stroke="#3E3C43" stroke-width="0.75"/>
<path d="M9.00761 8.903C7.70791 8.647 6.59251 7.84 6.78611 6.744C6.95731 5.775 7.76801 5.125 9.00761 5.125C10.8673 5.125 11.4864 6.474 11.4864 6.474" stroke="#3E3C43" stroke-width="0.75" stroke-linecap="round"/>
<path d="M9.24247 8.90308C10.5422 9.15808 11.6576 9.96608 11.464 11.0611C11.2928 12.0301 10.4821 12.6811 9.24247 12.6811C7.38277 12.6811 6.76367 11.3311 6.76367 11.3311" stroke="#3E3C43" stroke-width="0.75" stroke-linecap="round"/>
<path d="M9.12816 14.0969L9.09766 3.93091" stroke="#3E3C43" stroke-width="0.75" stroke-linecap="round"/>
</svg>
