<svg width="156" height="153" viewBox="0 0 156 153" fill="none" xmlns="http://www.w3.org/2000/svg">
<g clip-path="url(#clip0)">
<path d="M143.302 149.608C143.872 153.834 113.103 153.449 113.673 150.76C114.243 148.071 141.593 146.15 143.302 149.608Z" fill="#3F3C44"/>
<path d="M20.0712 136.996C20.2264 138.703 11.8469 138.547 12.0021 137.461C12.1574 136.375 19.6058 135.599 20.0712 136.996Z" fill="#3F3C44"/>
<path opacity="0.5" d="M135.949 69.2744C135.949 93.7493 116.108 113.59 91.6329 113.59C67.158 113.59 47.5889 93.9776 47.5889 69.5026L51.4917 58.8313L64.1073 47.9729L70.297 50.9841L71.5473 40.8105L79.968 39.1571C79.968 39.1571 79.7726 35.3721 84.5022 30.762C89.2318 26.1519 95.3541 25.6663 95.3541 25.6663C114.284 25.2637 135.949 44.7995 135.949 69.2744Z" fill="#3F3C44"/>
<path opacity="0.7" d="M104.279 65.8205L92.4671 46.8484C92.4671 46.8484 101.232 45.6223 105.004 39.9217C108.775 34.2211 106.028 27.5758 106.028 27.5758C102.875 26.2272 94.9486 23.603 87.6358 28.3858C80.3231 33.1686 80.0557 39.1183 80.0557 39.1183L71.5659 40.7895L70.3231 50.9711L64.0902 47.9616L51.7903 58.5928L47.7627 69.4673L60.2247 78.9978L61.5351 95.7607C63.5589 92.3878 66.209 83.6841 70.2724 72.9909L85.6706 70.2107L92.942 58.2342L104.279 65.8205Z" fill="#3F3C44"/>
<path opacity="0.9" d="M87.3122 97.7168C69.9448 91.8269 58.2562 93.8756 55.5303 94.743C58.9377 100.195 68.8596 111.965 89.9631 113.724C112.825 113.724 123.63 100.844 128.834 93.2241C121.903 98.921 108.686 104.965 87.3122 97.7168Z" fill="#3F3C44"/>
<path d="M58.4482 140.015L59.7225 94.2283C59.7225 94.2283 61.3438 93.7243 61.9339 93.4276C62.5241 93.1309 63.0708 93.2049 63.0708 93.2049L64.4508 140.015L58.4482 140.015Z" fill="#3F3C44"/>
<path d="M26.1377 136.651C26.1376 138.35 31.5158 138.806 36.1147 138.994C44.3931 139.182 50.5325 139.121 50.3781 140.357C50.2237 141.592 41.6671 140.455 42.5795 142.983C43.135 144.763 117.35 145.593 116.561 143.525C115.773 141.457 89.2424 141.187 90.0308 139.871C90.8192 138.555 121.92 140.418 121.815 137.531C121.709 134.644 26.1378 134.953 26.1377 136.651Z" fill="#3F3C44"/>
<path d="M64.5156 133.06L64.603 137.278" stroke="#FCFCFC" stroke-width="0.545812" stroke-linecap="round" stroke-linejoin="round"/>
<path d="M58.3604 132.771L58.2703 137.205" stroke="#FCFCFC" stroke-width="0.545812" stroke-linecap="round" stroke-linejoin="round"/>
<path d="M107.293 91.2647C97.2849 91.3475 88.0969 95.0902 84.7539 96.9512C86.3047 98.123 92.5081 100.591 104.915 101.087C117.322 101.583 125.8 96.124 128.488 93.3324C125.593 92.6087 117.301 91.1819 107.293 91.2647Z" fill="#3F3C44"/>
<path d="M56.0205 95.0385C59.6682 93.7179 70.6994 92.3218 85.6425 97.3028C104.321 103.529 121.302 101.076 128.849 93.1519" stroke="#FCFCFC" stroke-width="1.17241" stroke-linecap="round"/>
<path d="M47.6123 69.8364C50.7552 72.4462 57.6303 77.9688 59.9874 79.1811C60.2568 83.0198 60.8854 89.9846 61.166 92.9872" stroke="#3F3C44" stroke-width="1.17241" stroke-linecap="round" stroke-linejoin="round"/>
<path d="M62.9316 93.009L69.9123 73.4054L85.6001 70.3593L92.8347 58.6317L104.258 66.0185C100.323 59.7231 92.4539 47.1323 92.4539 47.1323" stroke="#3F3C44" stroke-width="1.17241" stroke-linecap="round" stroke-linejoin="round"/>
<path d="M43.0674 34.3752L55.4634 39.6348" stroke="#AFA7B1" stroke-width="1.09162" stroke-linecap="round"/>
<path d="M106.089 27.7612C106.861 30.1379 107.664 36.0002 104.607 40.3543C101.55 44.7085 96.2921 46.1263 92.3975 47.0091" stroke="#3F3C44" stroke-width="1.17241" stroke-linecap="round" stroke-linejoin="round"/>
<path d="M77.0609 1.83536L79.7933 18.0073" stroke="#AFA7B1" stroke-width="1.09162" stroke-linecap="round"/>
<path d="M42.8021 1.72746L66.1243 32.9777" stroke="#AFA7B1" stroke-width="1.09162" stroke-linecap="round"/>
</g>
<defs>
<clipPath id="clip0">
<rect width="155.31" height="153" fill="white"/>
</clipPath>
</defs>
</svg>
