<svg width="32" height="32" viewBox="0 0 32 32" fill="none" xmlns="http://www.w3.org/2000/svg">
<path d="M24.0885 5.6001H7.91072C6.63433 5.6001 5.59961 6.63482 5.59961 7.91121V24.089C5.59961 25.3654 6.63433 26.4001 7.91072 26.4001H24.0885C25.3649 26.4001 26.3996 25.3654 26.3996 24.089V7.91121C26.3996 6.63482 25.3649 5.6001 24.0885 5.6001Z" stroke="#3F3C44" stroke-width="1.33818" stroke-linecap="round" stroke-linejoin="round"/>
<path d="M11.8398 13.9203C12.9885 13.9203 13.9198 12.989 13.9198 11.8403C13.9198 10.6915 12.9885 9.76025 11.8398 9.76025C10.691 9.76025 9.75977 10.6915 9.75977 11.8403C9.75977 12.989 10.691 13.9203 11.8398 13.9203Z" stroke="#3F3C44" stroke-width="1.33818" stroke-linecap="round" stroke-linejoin="round"/>
<path d="M26.3997 19.5926L20.5497 13.9199L7.67969 26.3999" stroke="#3F3C44" stroke-width="1.33818" stroke-linecap="round" stroke-linejoin="round"/>
</svg>
