<svg width="13" height="20" viewBox="0 0 13 20" fill="none" xmlns="http://www.w3.org/2000/svg">
<path d="M10.9251 1.22013L11.0638 1.56695L10.9251 1.22013ZM7.75878 3.29038L7.49519 3.0257L7.75878 3.29038ZM5.62763 6.03043L5.94467 6.22796L5.62763 6.03043ZM2.22837 14.0631L2.58172 14.1842L2.22837 14.0631ZM1.05908 17.5821L0.696627 17.4917L1.05908 17.5821ZM1.44882 18.8854L1.30971 19.232L1.44882 18.8854ZM2.74809 18.4944L2.42752 18.3027L2.74809 18.4944ZM4.69699 13.6721L5.02776 13.4986C4.95932 13.3681 4.8206 13.2901 4.67358 13.2993C4.52655 13.3085 4.39869 13.4033 4.3471 13.5413L4.69699 13.6721ZM8.33496 18.755L8.19126 18.4103L8.33496 18.755ZM8.85465 17.5821L8.4954 17.6844L8.85465 17.5821ZM6.51598 12.3688L6.19335 12.1805C6.13069 12.2879 6.12556 12.4194 6.17966 12.5313L6.51598 12.3688ZM9.11451 7.67684L8.83287 7.92222L9.11451 7.67684ZM7.75878 6.2131L7.44804 6.00581C7.35093 6.15138 7.36789 6.34486 7.48886 6.47131L7.75878 6.2131ZM9.11451 4.4473L9.37864 4.71143L9.11451 4.4473ZM8.33496 9.37115L8.59156 9.0997C8.51007 9.02267 8.3983 8.98633 8.2871 9.00069C8.17589 9.01506 8.07703 9.07863 8.0178 9.17383L8.33496 9.37115ZM7.21077 11.1781L6.89348 10.9807L6.88814 10.9898L7.21077 11.1781ZM9.70726 10.9625L10.0721 11.0428L9.70726 10.9625ZM12.6244 1.11778C12.4725 0.915315 12.2919 0.777348 12.0907 0.700134C11.892 0.623872 11.696 0.615564 11.5239 0.636113C11.2044 0.674268 10.8925 0.830838 10.7863 0.873311L11.0638 1.56695C11.262 1.48765 11.4221 1.40066 11.6125 1.37792C11.6954 1.36802 11.7639 1.37493 11.823 1.39761C11.8796 1.41934 11.9502 1.46404 12.0267 1.56603L12.6244 1.11778ZM10.7863 0.873311C10.1595 1.12403 8.58144 1.94392 7.49519 3.0257L8.02237 3.55505C9.01492 2.56658 10.4958 1.79413 11.0638 1.56695L10.7863 0.873311ZM7.49519 3.0257C6.93172 3.58686 6.59381 3.95015 6.29005 4.34827C5.98902 4.74281 5.7263 5.1657 5.3106 5.8329L5.94467 6.22796C6.36652 5.55091 6.60901 5.16184 6.88399 4.80144C7.15623 4.44462 7.46512 4.11001 8.02237 3.55505L7.49519 3.0257ZM5.3106 5.8329C3.33337 9.0063 3.01425 10.6186 1.87501 13.942L2.58172 14.1842C3.73516 10.8194 4.02407 9.31048 5.94467 6.22796L5.3106 5.8329ZM1.87501 13.942C1.35893 15.4475 0.83169 16.9497 0.696627 17.4917L1.42153 17.6724C1.54629 17.1717 2.05458 15.722 2.58172 14.1842L1.87501 13.942ZM0.696627 17.4917C0.635523 17.737 0.596172 18.0692 0.656568 18.3864C0.718318 18.7106 0.898059 19.0669 1.30971 19.232L1.58792 18.5387C1.49092 18.4998 1.42286 18.4168 1.39045 18.2466C1.35668 18.0693 1.37679 17.8519 1.42153 17.6724L0.696627 17.4917ZM1.30971 19.232C1.68796 19.3838 2.04417 19.4213 2.36723 19.3065C2.68843 19.1925 2.90988 18.9516 3.06867 18.6861L2.42752 18.3027C2.3201 18.4822 2.21671 18.5672 2.11723 18.6025C2.0196 18.6372 1.85928 18.6476 1.58792 18.5387L1.30971 19.232ZM3.06867 18.6861C3.18291 18.4951 3.36418 18.0843 3.56187 17.6096C3.76443 17.1231 3.99704 16.5377 4.2167 15.9746C4.4365 15.4112 4.644 14.8683 4.79652 14.4665C4.87279 14.2655 4.93534 14.0997 4.97884 13.9841C5.00059 13.9263 5.01758 13.8811 5.02914 13.8503C5.03492 13.8348 5.03935 13.823 5.04233 13.8151C5.04382 13.8111 5.04495 13.8081 5.04572 13.806C5.0461 13.805 5.04638 13.8042 5.04658 13.8037C5.04668 13.8035 5.04675 13.8033 5.0468 13.8031C5.04682 13.8031 5.04684 13.803 5.04686 13.803C5.04687 13.8029 5.04688 13.8029 4.69699 13.6721C4.3471 13.5413 4.3471 13.5413 4.34709 13.5413C4.34708 13.5414 4.34706 13.5414 4.34704 13.5415C4.34699 13.5416 4.34693 13.5418 4.34683 13.542C4.34665 13.5425 4.34637 13.5433 4.346 13.5442C4.34526 13.5462 4.34415 13.5492 4.34268 13.5531C4.33974 13.561 4.33536 13.5727 4.32963 13.5879C4.31816 13.6185 4.30127 13.6635 4.27963 13.721C4.23634 13.8361 4.17404 14.0012 4.09805 14.2014C3.94604 14.6019 3.7394 15.1425 3.5207 15.7031C3.30185 16.2641 3.07159 16.8436 2.8722 17.3224C2.66793 17.8129 2.50815 18.1678 2.42752 18.3027L3.06867 18.6861ZM4.36622 13.8457C4.87065 14.8071 5.41968 15.9409 5.87919 16.8756C6.10797 17.3409 6.31529 17.7584 6.48219 18.0765C6.5655 18.2353 6.64081 18.3733 6.70505 18.4819C6.76163 18.5775 6.83054 18.6874 6.90104 18.7581L7.43014 18.2307C7.43569 18.2362 7.41045 18.207 7.34803 18.1015C7.29328 18.0089 7.22475 17.8838 7.14374 17.7294C6.98198 17.4211 6.77866 17.0119 6.54962 16.546C6.09348 15.6182 5.53813 14.4713 5.02776 13.4986L4.36622 13.8457ZM6.90104 18.7581C7.08841 18.9461 7.35165 19.0791 7.6169 19.1442C7.882 19.2094 8.19535 19.2179 8.47866 19.0998L8.19126 18.4103C8.0968 18.4496 7.95539 18.4581 7.79521 18.4188C7.63517 18.3794 7.50261 18.3034 7.43014 18.2307L6.90104 18.7581ZM8.47866 19.0998C8.79513 18.9679 9.01361 18.6909 9.13404 18.4111C9.25494 18.1302 9.30221 17.7898 9.2139 17.4797L8.4954 17.6844C8.52701 17.7954 8.51597 17.9574 8.44782 18.1157C8.37919 18.2752 8.27786 18.3742 8.19126 18.4103L8.47866 19.0998ZM9.2139 17.4797C9.14083 17.2232 8.95122 16.7597 8.72208 16.2335C8.48891 15.698 8.20328 15.0718 7.92666 14.476C7.64988 13.8799 7.38134 13.3126 7.18205 12.8944C7.08239 12.6852 7.00001 12.5133 6.94251 12.3936C6.91376 12.3338 6.89124 12.287 6.87588 12.2551C6.86821 12.2392 6.86232 12.227 6.85835 12.2188C6.85637 12.2147 6.85486 12.2116 6.85384 12.2095C6.85334 12.2084 6.85295 12.2076 6.85269 12.2071C6.85256 12.2068 6.85246 12.2066 6.8524 12.2065C6.85236 12.2064 6.85234 12.2063 6.85232 12.2063C6.8523 12.2063 6.85229 12.2062 6.51598 12.3688C6.17966 12.5313 6.17967 12.5314 6.17968 12.5314C6.1797 12.5314 6.17972 12.5315 6.17975 12.5315C6.17981 12.5316 6.1799 12.5318 6.18002 12.5321C6.18026 12.5326 6.18063 12.5334 6.18113 12.5344C6.18211 12.5364 6.18359 12.5395 6.18554 12.5435C6.18945 12.5516 6.19528 12.5637 6.20289 12.5795C6.21811 12.6111 6.2405 12.6576 6.2691 12.7171C6.32631 12.8362 6.40836 13.0074 6.50764 13.2158C6.70625 13.6325 6.97366 14.1975 7.24906 14.7906C7.52463 15.3841 7.80742 16.0042 8.03712 16.5317C8.27084 17.0685 8.43853 17.4847 8.4954 17.6844L9.2139 17.4797ZM6.51598 12.3688C6.45912 12.738 6.45919 12.738 6.45927 12.738C6.45932 12.738 6.45942 12.738 6.45953 12.738C6.45973 12.7381 6.46 12.7381 6.46035 12.7382C6.46103 12.7383 6.46199 12.7384 6.46321 12.7386C6.46566 12.739 6.46919 12.7395 6.47377 12.7402C6.48292 12.7416 6.49626 12.7435 6.51351 12.746C6.54803 12.751 6.59825 12.7581 6.6621 12.7667C6.78975 12.7838 6.97208 12.8068 7.19237 12.8306C7.63208 12.8781 8.227 12.9292 8.84195 12.9423C9.45273 12.9553 10.1026 12.9314 10.6445 12.8213C10.9155 12.7662 11.1761 12.6863 11.3963 12.5679C11.6163 12.4495 11.8206 12.2788 11.9342 12.032L11.2555 11.7197C11.2321 11.7706 11.1749 11.8386 11.0423 11.91C10.9098 11.9813 10.7265 12.0422 10.4957 12.0892C10.0339 12.183 9.4483 12.208 8.85787 12.1954C8.2716 12.1829 7.69955 12.134 7.2726 12.0878C7.05956 12.0648 6.88364 12.0426 6.76137 12.0262C6.70025 12.018 6.6526 12.0113 6.62047 12.0066C6.60441 12.0043 6.59224 12.0025 6.58421 12.0013C6.5802 12.0007 6.57722 12.0003 6.57531 12C6.57436 11.9998 6.57367 11.9997 6.57326 11.9997C6.57305 11.9996 6.57291 11.9996 6.57284 11.9996C6.5728 11.9996 6.5728 11.9996 6.57278 11.9996C6.5728 11.9996 6.57283 11.9996 6.51598 12.3688ZM10.9571 9.11012C10.6224 8.72035 10.4649 8.56915 10.2744 8.38044C10.0927 8.20048 9.87157 7.97715 9.39615 7.43147L8.83287 7.92222C9.32022 8.4816 9.55385 8.71828 9.74864 8.91122C9.93459 9.0954 10.0753 9.22997 10.3903 9.59679L10.9571 9.11012ZM9.39615 7.43147C9.1641 7.16513 8.82097 6.79475 8.53876 6.49393C8.39705 6.34287 8.26964 6.20821 8.17764 6.11132C8.13164 6.06286 8.09447 6.02382 8.06877 5.99687C8.05592 5.98339 8.04594 5.97293 8.03915 5.96582C8.03576 5.96227 8.03316 5.95955 8.03141 5.95772C8.03053 5.9568 8.02986 5.9561 8.02941 5.95563C8.02918 5.95539 8.02901 5.95521 8.02889 5.95509C8.02883 5.95503 8.02879 5.95498 8.02876 5.95495C8.02874 5.95493 8.02873 5.95492 8.02872 5.95491C8.02871 5.9549 8.0287 5.95489 7.75878 6.2131C7.48886 6.47131 7.48886 6.47131 7.48886 6.47132C7.48887 6.47132 7.48887 6.47133 7.48889 6.47134C7.48891 6.47137 7.48895 6.47141 7.489 6.47146C7.4891 6.47156 7.48925 6.47173 7.48946 6.47195C7.48988 6.47238 7.49051 6.47304 7.49136 6.47393C7.49304 6.47569 7.49556 6.47833 7.49889 6.48181C7.50553 6.48876 7.51536 6.49906 7.52805 6.51237C7.55343 6.53899 7.59024 6.57765 7.63585 6.6257C7.7271 6.72181 7.85346 6.85535 7.99391 7.00506C8.27603 7.3058 8.61076 7.66729 8.83287 7.92222L9.39615 7.43147ZM7.75878 6.2131C8.06952 6.42039 8.06952 6.4204 8.06951 6.42041C8.06952 6.42041 8.06952 6.42041 8.06952 6.4204C8.06953 6.42038 8.06956 6.42035 8.06959 6.42029C8.06966 6.42018 8.06979 6.42 8.06996 6.41974C8.0703 6.41923 8.07084 6.41843 8.07157 6.41734C8.07302 6.41516 8.07525 6.41185 8.0782 6.40745C8.08411 6.39865 8.09295 6.38553 8.10444 6.36856C8.12743 6.33461 8.16101 6.28528 8.20304 6.22433C8.28716 6.10233 8.40475 5.93426 8.53861 5.74999C8.81105 5.37493 9.13471 4.95535 9.37864 4.71143L8.85037 4.18316C8.56028 4.47326 8.20608 4.93658 7.93417 5.31092C7.79584 5.50135 7.67463 5.6746 7.588 5.80025C7.54464 5.86312 7.50986 5.9142 7.48582 5.9497C7.4738 5.96746 7.46446 5.98132 7.45808 5.99083C7.45488 5.99558 7.45243 5.99925 7.45074 6.00176C7.4499 6.00302 7.44925 6.00399 7.4488 6.00467C7.44857 6.00501 7.4484 6.00527 7.44827 6.00546C7.44821 6.00556 7.44815 6.00564 7.44812 6.00569C7.4481 6.00572 7.44808 6.00575 7.44807 6.00577C7.44805 6.00579 7.44804 6.00581 7.75878 6.2131ZM9.37864 4.71143C9.83623 4.25384 10.746 3.60163 11.3097 3.23926L10.9057 2.61083C10.3328 2.97914 9.36702 3.66652 8.85037 4.18316L9.37864 4.71143ZM8.0178 9.17383L6.89361 10.9808L7.52794 11.3754L8.65213 9.56848L8.0178 9.17383ZM7.21077 11.1781C7.18766 11.5509 7.1877 11.5509 7.18775 11.5509C7.18777 11.5509 7.18783 11.5509 7.18789 11.5509C7.188 11.551 7.18814 11.551 7.18833 11.551C7.1887 11.551 7.18921 11.551 7.18987 11.5511C7.19118 11.5511 7.19307 11.5513 7.19552 11.5514C7.2004 11.5517 7.20752 11.5521 7.21671 11.5526C7.2351 11.5537 7.26182 11.5552 7.2957 11.5569C7.36344 11.5603 7.45995 11.5648 7.57589 11.5691C7.80722 11.5775 8.11844 11.5851 8.43389 11.5808C8.74575 11.5766 9.0766 11.5609 9.34122 11.5194C9.47108 11.499 9.60646 11.4692 9.72113 11.4213C9.8077 11.385 10.0192 11.2833 10.0721 11.0428L9.34244 10.8823C9.37526 10.7331 9.49365 10.7066 9.4327 10.7321C9.39986 10.7458 9.3333 10.7644 9.22535 10.7813C9.01434 10.8144 8.72609 10.8298 8.42388 10.8338C8.12525 10.8378 7.82742 10.8307 7.6032 10.8225C7.49138 10.8184 7.3985 10.8141 7.33379 10.8108C7.30145 10.8091 7.27618 10.8077 7.25914 10.8068C7.25062 10.8063 7.24415 10.8059 7.2399 10.8056C7.23777 10.8055 7.23619 10.8054 7.23518 10.8054C7.23467 10.8053 7.23431 10.8053 7.2341 10.8053C7.23399 10.8053 7.23391 10.8053 7.23388 10.8053C7.23386 10.8053 7.23386 10.8053 7.23385 10.8053C7.23386 10.8053 7.23388 10.8053 7.21077 11.1781ZM10.0721 11.0428C10.0962 10.933 10.0719 10.8386 10.0562 10.7898C10.0382 10.734 10.0128 10.683 9.98919 10.641C9.94164 10.5565 9.87692 10.4666 9.8092 10.3804C9.672 10.2057 9.48912 10.0043 9.31174 9.81794C9.13285 9.63003 8.95299 9.45068 8.81835 9.31875C8.75089 9.25265 8.69448 9.19816 8.65482 9.16008C8.63498 9.14104 8.61932 9.12608 8.60854 9.11582C8.60315 9.11069 8.59898 9.10673 8.59612 9.10402C8.59469 9.10266 8.59359 9.10162 8.59283 9.1009C8.59244 9.10053 8.59215 9.10025 8.59193 9.10005C8.59183 9.09995 8.59174 9.09987 8.59168 9.09981C8.59165 9.09978 8.59162 9.09975 8.5916 9.09974C8.59158 9.09971 8.59156 9.0997 8.33496 9.37115C8.07837 9.64261 8.07836 9.6426 8.07835 9.6426C8.07836 9.64261 8.07836 9.64261 8.07837 9.64262C8.0784 9.64264 8.07844 9.64268 8.07851 9.64275C8.07864 9.64287 8.07886 9.64308 8.07916 9.64337C8.07977 9.64394 8.08071 9.64483 8.08198 9.64604C8.08451 9.64844 8.08834 9.65208 8.09338 9.65688C8.10347 9.66648 8.11839 9.68072 8.13743 9.69901C8.17554 9.73559 8.2301 9.78829 8.29549 9.85236C8.42651 9.98075 8.59978 10.1536 8.77066 10.3331C8.94305 10.5142 9.10659 10.6953 9.22167 10.8418C9.2801 10.9162 9.31798 10.9716 9.33815 11.0074C9.34839 11.0256 9.34819 11.0285 9.34518 11.0192C9.34446 11.017 9.32499 10.9616 9.34244 10.8823L10.0721 11.0428ZM6.88814 10.9898L6.19335 12.1805L6.8386 12.5571L7.5334 11.3664L6.88814 10.9898ZM11.9342 12.032C12.0911 11.691 12.1595 11.3729 12.1467 11.0699C12.1337 10.7664 12.0402 10.5024 11.909 10.2689C11.7801 10.0395 11.6123 9.83541 11.4475 9.65066C11.2684 9.44991 11.1213 9.30143 10.9571 9.11012L10.3903 9.59679C10.5508 9.78378 10.7498 9.99092 10.89 10.148C11.0444 10.3211 11.169 10.4771 11.2577 10.6349C11.3441 10.7886 11.3933 10.9389 11.4003 11.1017C11.4072 11.2651 11.3726 11.4654 11.2555 11.7197L11.9342 12.032ZM12.0267 1.56603C12.067 1.61982 12.0637 1.64503 12.0527 1.67904C12.0329 1.7398 11.9725 1.83253 11.8447 1.95308C11.5871 2.196 11.2144 2.41238 10.9057 2.61083L11.3097 3.23926C11.5693 3.07237 12.0339 2.80163 12.3573 2.49654C12.52 2.34308 12.6861 2.14658 12.763 1.9105C12.8486 1.64768 12.8123 1.36843 12.6244 1.11778L12.0267 1.56603Z" fill="#3E3C43"/>
<path d="M10.9426 7.37151C11.6581 7.37151 12.2382 6.79144 12.2382 6.07589C12.2382 5.36034 11.6581 4.78027 10.9426 4.78027C10.227 4.78027 9.64697 5.36034 9.64697 6.07589C9.64697 6.79144 10.227 7.37151 10.9426 7.37151Z" stroke="#3E3C43" stroke-width="0.747077"/>
</svg>
