<svg width="24" height="24" viewBox="0 0 24 24" fill="none" xmlns="http://www.w3.org/2000/svg">
<path d="M19.12 8.70119C19.12 9.50279 18.8512 10.5359 18.369 11.7126C17.891 12.8789 17.2228 14.1402 16.4686 15.3836C15.1287 17.5927 13.542 19.7055 12.331 21.0791C11.1454 19.7032 9.57431 17.5913 8.24355 15.3849C7.49341 14.1411 6.82713 12.8796 6.3501 11.7131C5.8688 10.5361 5.6 9.50287 5.6 8.70119C5.6 5.41506 8.59713 2.6 12.3254 2.6C16.1267 2.6 19.12 5.41853 19.12 8.70119ZM15.8971 8.70119C15.8971 6.87526 14.2734 5.38278 12.3254 5.38278C10.456 5.38278 8.7538 6.86661 8.7538 8.70119C8.7538 10.6076 10.4654 12.0196 12.3254 12.0196C14.264 12.0196 15.8971 10.599 15.8971 8.70119Z" stroke="#BABFBF" stroke-width="1.2"/>
</svg>
