<svg width="14" height="14" viewBox="0 0 14 14" fill="none" xmlns="http://www.w3.org/2000/svg">
<path d="M12 8.12766C12.6228 8.12766 13.1277 7.62279 13.1277 7C13.1277 6.37721 12.6228 5.87234 12 5.87234L12 8.12766ZM2 5.87234C1.37721 5.87234 0.872343 6.37721 0.872343 7C0.872343 7.62279 1.37721 8.12766 2 8.12766L2 5.87234ZM12 5.87234L2 5.87234L2 8.12766L12 8.12766L12 5.87234Z" fill="currentColor"/>
<path d="M8.12766 2C8.12766 1.37721 7.62279 0.872344 7 0.872344C6.37721 0.872344 5.87234 1.37721 5.87234 2L8.12766 2ZM5.87234 12C5.87234 12.6228 6.37721 13.1277 7 13.1277C7.62279 13.1277 8.12766 12.6228 8.12766 12L5.87234 12ZM5.87234 2L5.87234 12L8.12766 12L8.12766 2L5.87234 2Z" fill="currentColor"/>
</svg>
