<svg width="20" height="20" viewBox="0 0 20 20" fill="none" xmlns="http://www.w3.org/2000/svg">
<path d="M4.02701 11.7455C3.92051 11.7455 3.81874 11.699 3.74914 11.6184L1.3399 8.83931C1.20682 8.68542 1.22344 8.45319 1.3768 8.32011C1.53052 8.18755 1.76292 8.20347 1.89635 8.35683L3.98399 10.7664L5.71122 8.087C5.82157 7.9165 6.0496 7.86788 6.22028 7.97753C6.39131 8.08752 6.4401 8.31538 6.32993 8.48589L4.33601 11.5766C4.27306 11.6742 4.16814 11.7361 4.05184 11.7443C4.0438 11.7448 4.03523 11.7455 4.02701 11.7455Z" fill="#3F3C44"/>
<path d="M18.377 12.6566C18.2582 12.6566 18.1416 12.6001 18.0709 12.4941L16.2947 9.84741L14.2503 12.2939C14.1207 12.4502 13.8888 12.4703 13.7328 12.3409C13.5765 12.2105 13.5562 11.9786 13.6856 11.8224L16.0445 8.99927C16.1181 8.91008 16.2274 8.85745 16.3455 8.86741C16.4612 8.87371 16.5674 8.93404 16.6321 9.02987L18.6811 12.084C18.7946 12.2526 18.7498 12.4812 18.5817 12.5943C18.5183 12.6368 18.4476 12.6566 18.377 12.6566Z" fill="#3F3C44"/>
<path d="M9.81972 17.2106C8.04825 17.2106 6.33536 16.5202 5.03622 15.2379C4.886 15.0906 4.88548 14.851 5.0322 14.7013C5.17909 14.5527 5.41937 14.5506 5.56854 14.6978C7.06843 16.1762 9.18615 16.7694 11.232 16.2866C14.2243 15.5796 16.2182 12.7461 15.8681 9.69633C15.8441 9.48841 15.9942 9.29989 16.2017 9.27576C16.4119 9.25023 16.5987 9.40167 16.6214 9.61012C17.0145 13.0416 14.773 16.2292 11.407 17.0254C10.8791 17.1498 10.347 17.2106 9.81972 17.2106Z" fill="#3F3C44"/>
<path d="M4.10208 11.6154C3.92668 11.6154 3.76825 11.4954 3.7261 11.3167C3.29731 9.50666 3.60002 7.63761 4.57739 6.05552C5.55423 4.47239 7.09015 3.36527 8.90026 2.93665C11.4045 2.34645 14.0162 3.175 15.7219 5.10141C15.8637 5.26177 15.8485 5.5059 15.689 5.64772C15.5294 5.78814 15.2847 5.77398 15.1426 5.61467C13.6259 3.90178 11.3027 3.16364 9.07881 3.68983C7.46962 4.07018 6.10421 5.05472 5.23596 6.46141C4.36719 7.86809 4.09788 9.52904 4.47893 11.138C4.52807 11.3465 4.39919 11.5554 4.19126 11.6049C4.16101 11.6117 4.13146 11.6154 4.10208 11.6154Z" fill="#3F3C44"/>
</svg>
