<svg width="22" height="18" viewBox="0 0 22 18" fill="none" xmlns="http://www.w3.org/2000/svg">
<g clip-path="url(#clip0)">
<path d="M3.75234 10.7965C3.62454 10.7965 3.50241 10.7407 3.41889 10.6439L0.527805 7.30902C0.36811 7.12436 0.388046 6.84568 0.572083 6.68598C0.75654 6.52692 1.03543 6.54601 1.19555 6.73005L3.70072 9.62155L5.77339 6.40626C5.90581 6.20165 6.17945 6.14332 6.38426 6.27489C6.58949 6.40688 6.64804 6.68032 6.51584 6.88492L4.12314 10.5938C4.0476 10.7109 3.92169 10.7852 3.78214 10.795C3.77249 10.7957 3.7622 10.7965 3.75234 10.7965Z" fill="#BABFBF"/>
<path d="M20.9709 11.8898C20.8284 11.8898 20.6884 11.822 20.6037 11.6948L18.4722 8.51874L16.0189 11.4545C15.8634 11.6421 15.5851 11.6663 15.398 11.511C15.2103 11.3544 15.186 11.0762 15.3413 10.8888L18.1719 7.50098C18.2603 7.39396 18.3914 7.33079 18.5331 7.34275C18.672 7.35031 18.7994 7.42271 18.877 7.5377L21.3358 11.2027C21.472 11.405 21.4183 11.6793 21.2166 11.815C21.1405 11.866 21.0557 11.8898 20.9709 11.8898Z" fill="#BABFBF"/>
<path d="M10.7024 17.3519C8.57664 17.3519 6.52117 16.5234 4.96221 14.9846C4.78195 14.8079 4.78132 14.5204 4.95738 14.3408C5.13366 14.1624 5.42199 14.1599 5.60099 14.3366C7.40086 16.1107 9.94212 16.8225 12.3971 16.2431C15.9878 15.3946 18.3805 11.9945 17.9604 8.33472C17.9317 8.08521 18.1117 7.85899 18.3608 7.83003C18.613 7.79939 18.8372 7.98112 18.8644 8.23126C19.3362 12.3491 16.6463 16.1742 12.6072 17.1297C11.9736 17.2789 11.3351 17.3519 10.7024 17.3519Z" fill="#BABFBF"/>
<path d="M3.84125 10.6391C3.63077 10.6391 3.44065 10.4952 3.39007 10.2807C2.87552 8.10857 3.23877 5.86571 4.41162 3.96721C5.58383 2.06745 7.42693 0.738902 9.59907 0.224563C12.6041 -0.483675 15.7382 0.510587 17.7851 2.82228C17.9553 3.01471 17.937 3.30766 17.7456 3.47784C17.554 3.64635 17.2604 3.62936 17.0898 3.43818C15.2698 1.38272 12.482 0.496947 9.81333 1.12838C7.8823 1.5848 6.2438 2.76625 5.2019 4.45427C4.15938 6.14229 3.83621 8.13543 4.29347 10.0662C4.35244 10.3164 4.19778 10.5672 3.94827 10.6265C3.91197 10.6347 3.8765 10.6391 3.84125 10.6391Z" fill="#BABFBF"/>
</g>
<defs>
<clipPath id="clip0">
<rect width="22" height="18" fill="white"/>
</clipPath>
</defs>
</svg>
