<svg width="20" height="16" viewBox="0 0 20 16" fill="none" xmlns="http://www.w3.org/2000/svg">
<path d="M14.964 6.62506C15.0975 7.16806 15.1683 7.73608 15.1683 8.32108C15.1683 12.2331 11.9966 15.4051 8.0841 15.4051C4.1717 15.4051 1 12.2331 1 8.32108C1 4.40808 4.1717 1.23706 8.0841 1.23706C9.754 1.23706 11.289 1.81507 12.5 2.78107" stroke="currentColor" stroke-width="0.75"/>
<path d="M11.7011 6.37012C11.7011 6.37012 11.2527 6.82612 10.5997 6.85312C9.94662 6.87912 9.49292 6.42212 9.49292 6.42212" stroke="currentColor" stroke-width="0.75" stroke-linecap="round"/>
<path d="M4.63647 6.427C4.63647 6.427 5.08847 6.88 5.74167 6.901C6.39487 6.922 6.84497 6.461 6.84497 6.461" stroke="currentColor" stroke-width="0.75" stroke-linecap="round"/>
<path d="M10.3309 10.2209C10.3309 10.2209 9.98516 11.6039 8.08406 11.6039C6.18286 11.6039 5.83716 10.2209 5.83716 10.2209" stroke="currentColor" stroke-width="0.75" stroke-linecap="round"/>
<path d="M12.5823 1.95599C12.5801 1.95899 12.5754 1.96599 12.5687 1.97699C12.5553 1.99799 12.5341 2.03399 12.5107 2.08499C12.4639 2.18599 12.4077 2.346 12.385 2.561C12.3404 2.985 12.4208 3.66901 13.039 4.59601C13.6661 5.53701 14.4534 6.22099 15.0885 6.67099C15.4052 6.89499 15.6816 7.05899 15.8773 7.16699C15.9311 7.19699 15.9787 7.22201 16.0193 7.24301C16.0691 7.21501 16.1293 7.18099 16.1982 7.14099C16.4135 7.01499 16.7125 6.829 17.0448 6.59C17.7145 6.108 18.4952 5.42599 19.0081 4.60599C19.6525 3.57499 19.6784 2.84799 19.5849 2.40799C19.537 2.18199 19.4547 2.01701 19.3879 1.91101C19.3545 1.85801 19.325 1.82 19.306 1.798C19.2965 1.786 19.2896 1.77899 19.2862 1.77499C19.2856 1.77499 19.2851 1.77399 19.2847 1.77399L19.2648 1.755L19.2471 1.73099H19.247L19.2444 1.728C19.2414 1.724 19.236 1.71701 19.2283 1.70801C19.2129 1.69001 19.1883 1.66201 19.155 1.62701C19.0881 1.55701 18.9879 1.46301 18.8581 1.36801C18.597 1.17801 18.2329 1 17.7863 1C17.237 1 16.8772 1.18599 16.6565 1.35999C16.5442 1.44799 16.4654 1.536 16.4161 1.599C16.3915 1.63 16.3746 1.65501 16.3648 1.67001C16.3599 1.67801 16.3568 1.683 16.3554 1.685C16.3553 1.685 16.3552 1.685 16.3551 1.686L16.0139 2.31799L15.6927 1.67599C15.6916 1.67399 15.6889 1.66899 15.6845 1.66199C15.6757 1.64699 15.6602 1.62301 15.6372 1.59201C15.5911 1.53101 15.5164 1.445 15.4073 1.358C15.1941 1.187 14.8356 1 14.2668 1C13.5963 1 13.1899 1.236 12.9517 1.452C12.8296 1.563 12.7474 1.674 12.6967 1.754C12.6714 1.794 12.6543 1.825 12.6444 1.845C12.6394 1.855 12.6362 1.86199 12.6348 1.86499C12.6345 1.86599 12.6343 1.866 12.6341 1.867L12.6146 1.91599L12.5826 1.95599C12.5825 1.95599 12.5824 1.95599 12.5823 1.95599ZM12.5823 1.95599H12.5822L12.5831 1.95499L12.5823 1.95599Z" stroke="currentColor" stroke-width="0.75"/>
</svg>
