<svg width="20" height="20" viewBox="0 0 20 20" fill="none" xmlns="http://www.w3.org/2000/svg">
<g clip-path="url(#clip0)">
<path d="M18.9763 7.90247L17.5725 7.66432C17.4263 7.19221 17.2382 6.73682 17.0085 6.30231L17.8357 5.14502C18.1866 4.65202 18.1323 3.97937 17.702 3.55322L16.457 2.30818C16.223 2.07422 15.9138 1.9447 15.5838 1.9447C15.3247 1.9447 15.0782 2.02408 14.8693 2.17449L13.7079 3.00173C13.2567 2.76358 12.7845 2.56722 12.2957 2.42099L12.0618 1.03391C11.9615 0.436461 11.4476 0.00195312 10.8418 0.00195312H9.08288C8.47707 0.00195312 7.96318 0.436461 7.86291 1.03391L7.62059 2.45441C7.15266 2.60064 6.69726 2.79283 6.26276 3.02679L5.11382 2.19956C4.90492 2.04915 4.65424 1.96977 4.39521 1.96977C4.06515 1.96977 3.7518 2.09929 3.52202 2.33325L2.27281 3.57828C1.84666 4.00443 1.78817 4.67709 2.13911 5.17008L2.9747 6.34409C2.74492 6.78277 2.56109 7.23817 2.41904 7.71028L1.03196 7.94425C0.434507 8.04452 0 8.55841 0 9.16421V10.9231C0 11.5289 0.434507 12.0428 1.03196 12.1431L2.45246 12.3854C2.59869 12.8533 2.79087 13.3087 3.02484 13.7432L2.20178 14.888C1.85083 15.381 1.90515 16.0537 2.33548 16.4798L3.58051 17.7248C3.81447 17.9588 4.12364 18.0883 4.4537 18.0883C4.71273 18.0883 4.95923 18.0089 5.16813 17.8585L6.34214 17.0229C6.76411 17.2444 7.20697 17.424 7.66237 17.5661L7.89634 18.9699C7.99661 19.5673 8.5105 20.0018 9.1163 20.0018H10.8794C11.4852 20.0018 11.9991 19.5673 12.0994 18.9699L12.3375 17.5661C12.8096 17.4199 13.265 17.2318 13.6995 17.0021L14.8568 17.8293C15.0657 17.9797 15.3164 18.0591 15.5754 18.0591C15.9055 18.0591 16.2146 17.9296 16.4486 17.6956L17.6936 16.4506C18.1198 16.0244 18.1783 15.3518 17.8273 14.8588L17.0001 13.6973C17.2299 13.2586 17.4221 12.8032 17.5641 12.3353L18.9679 12.1013C19.5654 12.001 19.9999 11.4872 19.9999 10.8814V9.12243C20.0082 8.51663 19.5737 8.00274 18.9763 7.90247ZM18.8802 10.8814C18.8802 10.9357 18.8426 10.9816 18.7883 10.99L17.0335 11.2824C16.8121 11.32 16.6366 11.483 16.5823 11.6961C16.4235 12.3102 16.1812 12.8993 15.8553 13.4466C15.7425 13.6388 15.7509 13.8769 15.8804 14.0608L16.9124 15.5147C16.9416 15.5565 16.9374 15.6192 16.8998 15.6568L15.6548 16.9018C15.6256 16.931 15.5963 16.9352 15.5754 16.9352C15.5504 16.9352 15.5295 16.9269 15.5127 16.9143L14.063 15.8824C13.8833 15.7528 13.641 15.7445 13.4488 15.8573C12.9015 16.1832 12.3124 16.4255 11.6983 16.5843C11.481 16.6386 11.3181 16.8182 11.2847 17.0355L10.988 18.7902C10.9797 18.8445 10.9337 18.8821 10.8794 18.8821H9.12048C9.06616 18.8821 9.02021 18.8445 9.01185 18.7902L8.71939 17.0355C8.68179 16.814 8.51885 16.6386 8.30578 16.5843C7.70833 16.4297 7.13177 16.1915 6.59281 15.8824C6.50508 15.8322 6.40481 15.8072 6.30871 15.8072C6.19591 15.8072 6.07893 15.8406 5.98283 15.9116L4.52055 16.9519C4.49966 16.9645 4.47877 16.9728 4.45788 16.9728C4.44117 16.9728 4.40774 16.9686 4.3785 16.9394L3.13347 15.6944C3.09587 15.6568 3.09169 15.5983 3.12093 15.5523L4.14871 14.1109C4.27823 13.9271 4.28658 13.6848 4.17378 13.4926C3.8479 12.9494 3.59722 12.3603 3.43846 11.7462C3.37997 11.5331 3.20449 11.3702 2.98724 11.3326L1.21996 11.0318C1.16565 11.0234 1.12805 10.9774 1.12805 10.9231V9.16421C1.12805 9.1099 1.16565 9.06394 1.21996 9.05558L2.96217 8.76313C3.1836 8.72552 3.36325 8.56258 3.41757 8.34533C3.57215 7.73117 3.8103 7.1379 4.132 6.59059C4.2448 6.3984 4.23227 6.16026 4.10275 5.98061L3.06244 4.51832C3.0332 4.47654 3.03737 4.41387 3.07498 4.37627L4.32001 3.13124C4.34925 3.102 4.3785 3.09782 4.39939 3.09782C4.42446 3.09782 4.44535 3.10617 4.46206 3.11871L5.90345 4.14649C6.08728 4.276 6.3296 4.28436 6.52179 4.17155C7.06492 3.84567 7.65402 3.595 8.26817 3.43623C8.48125 3.37774 8.64419 3.20227 8.68179 2.98501L8.9826 1.21774C8.99096 1.16342 9.03692 1.12582 9.09123 1.12582H10.8502C10.9045 1.12582 10.9504 1.16342 10.9588 1.21774L11.2512 2.95995C11.2888 3.18138 11.4518 3.36103 11.669 3.41534C12.2999 3.57411 12.9015 3.82061 13.4614 4.15066C13.6536 4.26347 13.8917 4.25511 14.0755 4.1256L15.5169 3.08946C15.5378 3.07693 15.5587 3.06857 15.5796 3.06857C15.5963 3.06857 15.6297 3.07275 15.659 3.102L16.904 4.34703C16.9416 4.38463 16.9458 4.44312 16.9165 4.48908L15.8846 5.93883C15.7551 6.11848 15.7467 6.3608 15.8595 6.55299C16.1854 7.1003 16.4277 7.68939 16.5865 8.30355C16.6408 8.52081 16.8204 8.68375 17.0377 8.71717L18.7924 9.0138C18.8468 9.02216 18.8844 9.06812 18.8844 9.12243V10.8814H18.8802Z" fill="#3F3C44"/>
<path d="M10.0024 5.68213C7.62092 5.68213 5.68652 7.61652 5.68652 9.99796C5.68652 12.3794 7.62092 14.3138 10.0024 14.3138C12.3838 14.3138 14.3182 12.3794 14.3182 9.99796C14.3182 7.61652 12.3838 5.68213 10.0024 5.68213ZM10.0024 13.1857C8.24343 13.1857 6.81457 11.7569 6.81457 9.99796C6.81457 8.23904 8.24343 6.81018 10.0024 6.81018C11.7613 6.81018 13.1901 8.23904 13.1901 9.99796C13.1901 11.7569 11.7613 13.1857 10.0024 13.1857Z" fill="#3F3C44"/>
</g>
<defs>
<clipPath id="clip0">
<rect width="20" height="20" fill="white"/>
</clipPath>
</defs>
</svg>
