<svg viewBox="0 0 32 32" fill="none" xmlns="http://www.w3.org/2000/svg">
<path d="M16.6035 3.24207H18.7356L19.2883 6.16416L21.9735 7.34879L24.5797 5.53235L27.8966 8.77036L26.0802 11.2976L26.9489 13.8248L29.95 14.5356L30.029 18.9582L27.4228 19.4321L25.9222 22.3542L27.6597 24.9604L24.5797 27.9615L21.8945 26.145L19.2883 27.1717L18.7355 30.2518H16.84" stroke="#F0F1FF" stroke-width="1.7" stroke-linecap="round" stroke-linejoin="round"/>
<path d="M16.7781 3.24207H14.646L14.0933 6.16416L11.4081 7.34879L8.80193 5.53235L5.48495 8.77036L7.30139 11.2976L6.43266 13.8248L3.43158 14.5356L3.3526 18.9582L5.9588 19.4321L7.45934 22.3542L5.72187 24.9604L8.80193 27.9615L11.4871 26.145L14.0933 27.1717L14.6461 30.2518H16.5416" stroke="#F0F1FF" stroke-width="1.7" stroke-linecap="round" stroke-linejoin="round"/>
<circle cx="16.6916" cy="16.817" r="4.57929" stroke="#F0F1FF" stroke-width="1.7" stroke-linecap="round" stroke-linejoin="round"/>
</svg>
