<svg width="22" height="25" viewBox="0 0 22 25" fill="none" xmlns="http://www.w3.org/2000/svg">
<path d="M10.3501 21.2528C12.4625 22.0972 14.6269 23.5372 17.0762 21.8954C18.9454 20.6425 18.7794 18.481 17.983 16.6613C17.2404 14.9648 17.0251 10.982 15.4597 11.6354C14.5546 12.0131 15.0927 13.4674 15.4326 14.7895C15.4941 15.0289 15.6636 15.4338 15.6636 15.4338C15.6636 15.4338 15.3734 14.4216 14.7905 12.7962C14.3278 11.5058 13.7258 9.55557 12.5609 10.1499C12.2221 10.3228 11.8578 10.6207 12.3604 11.6332M13.6785 15.3884C13.6785 15.3884 13.3605 14.602 12.9889 13.5832" stroke="currentColor" stroke-width="1.22917" stroke-linecap="round" stroke-linejoin="round"/>
<path d="M2.69485 18.4059C2.69485 20.4311 3.13844 21.663 5.90202 22.6792C8.011 23.4547 9.64178 22.0401 10.6258 20.3161C11.5431 18.7087 14.6015 16.1756 13.152 15.2916C12.3139 14.7805 11.4693 16.0785 10.6129 17.1373C10.4578 17.329 10.2343 17.7064 10.2343 17.7064C10.2343 17.7064 10.8721 16.8713 11.8272 15.4357C12.5854 14.296 13.789 12.6523 12.6237 12.0588C11.732 11.6046 11.2626 12.7361 10.3076 14.1718C9.62537 15.1972 9.09518 16.0679 9.09518 16.0679C9.09518 16.0679 9.8956 14.7275 10.6898 13.4306C11.5723 11.9894 12.3839 10.4939 11.437 9.95922C10.6084 9.49143 9.95785 10.3763 9.22645 11.6896C8.44551 13.0919 7.51555 15.0587 7.47218 15.0669C7.47218 15.0669 8.09712 13.8541 8.6929 12.7408C9.37546 11.4654 9.80581 10.1289 8.84812 9.73878C7.99011 9.38925 7.34344 10.7156 6.73616 11.8143C6.01701 13.1154 5.71374 13.7517 5.23542 15.0669C5.14495 15.3157 5.09568 15.6919 5.01381 15.7076C5.01381 15.2402 5.01381 14.5526 5.01381 13.6824C5.01381 12.1635 3.36503 11.8147 3.00354 13.1761C2.55594 14.8619 2.69485 16.3807 2.69485 18.4059Z" stroke="currentColor" stroke-width="1.22917" stroke-linecap="round" stroke-linejoin="round"/>
<path d="M10.7502 7.58333L11.1689 8.03323C10.9329 8.2528 10.5675 8.25281 10.3315 8.03326L10.7502 7.58333ZM10.7499 3.19345L11.3386 3.37007C11.2606 3.63003 11.0213 3.80804 10.7499 3.80803C10.4785 3.80802 10.2392 3.62999 10.1613 3.37003L10.7499 3.19345ZM7.67708 3.37477C7.67708 3.81505 7.88191 4.20017 8.19199 4.43953L7.44089 5.41251C6.83548 4.94516 6.44792 4.20364 6.44792 3.37477H7.67708ZM8.90614 2.05208C8.23957 2.05208 7.67708 2.61066 7.67708 3.37477H6.44792C6.44792 1.99903 7.49539 0.822917 8.90614 0.822917V2.05208ZM10.7502 7.58333C10.3315 8.03326 10.3315 8.03325 10.3315 8.03324C10.3315 8.03322 10.3314 8.0332 10.3314 8.03317C10.3313 8.0331 10.3312 8.033 10.3311 8.03287C10.3308 8.03259 10.3304 8.03219 10.3298 8.03164C10.3286 8.03055 10.3268 8.02891 10.3245 8.02674C10.3198 8.02241 10.3129 8.01596 10.3038 8.00752C10.2857 7.99063 10.2589 7.96579 10.2247 7.93403C10.1563 7.87052 10.058 7.77934 9.93863 7.66881C9.69979 7.4477 9.37674 7.14935 9.03957 6.84013C8.35072 6.20839 7.64327 5.56874 7.44089 5.41251L8.19199 4.43953C8.44736 4.63666 9.20678 5.32567 9.87036 5.93424C10.2094 6.24518 10.534 6.54491 10.7737 6.76683C10.8935 6.87781 10.9923 6.9694 11.0611 7.03326C11.0954 7.06519 11.1224 7.09019 11.1407 7.10723C11.1499 7.11575 11.1569 7.12228 11.1616 7.12668C11.164 7.12889 11.1658 7.13056 11.167 7.13168C11.1676 7.13225 11.168 7.13267 11.1684 7.13296C11.1685 7.13311 11.1686 7.13322 11.1687 7.13329C11.1688 7.13333 11.1688 7.13336 11.1688 7.13338C11.1688 7.1334 11.1688 7.13341 10.7502 7.58333ZM15.0521 3.37477C15.0521 4.20364 14.6645 4.94516 14.0591 5.41251L13.308 4.43953C13.6181 4.20017 13.8229 3.81505 13.8229 3.37477H15.0521ZM12.5568 0.822917C13.952 0.822917 15.0521 1.98273 15.0521 3.37477H13.8229C13.8229 2.62696 13.239 2.05208 12.5568 2.05208V0.822917ZM10.7502 7.58333C10.3315 7.13344 10.3315 7.13343 10.3315 7.1334C10.3315 7.13339 10.3316 7.13336 10.3316 7.13332C10.3317 7.13324 10.3318 7.13314 10.332 7.13299C10.3323 7.1327 10.3327 7.13228 10.3333 7.13171C10.3345 7.13059 10.3363 7.12891 10.3387 7.12671C10.3434 7.1223 10.3505 7.11578 10.3596 7.10726C10.378 7.09022 10.4049 7.06522 10.4392 7.03328C10.508 6.96942 10.6067 6.87784 10.7266 6.76686C10.9663 6.54493 11.2908 6.2452 11.6298 5.93427C12.2933 5.32571 13.0526 4.63668 13.308 4.43953L14.0591 5.41251C13.8568 5.56873 13.1494 6.20835 12.4606 6.8401C12.1235 7.14933 11.8005 7.44767 11.5617 7.66878C11.4423 7.77931 11.344 7.87049 11.2756 7.93401C11.2414 7.96576 11.2147 7.9906 11.1965 8.00749C11.1875 8.01593 11.1805 8.02238 11.1759 8.02672C11.1735 8.02888 11.1718 8.03052 11.1706 8.03161C11.17 8.03216 11.1696 8.03257 11.1693 8.03284C11.1691 8.03297 11.169 8.03307 11.169 8.03314C11.1689 8.03317 11.1689 8.03319 11.1689 8.03321C11.1689 8.03322 11.1689 8.03323 10.7502 7.58333ZM8.90614 0.822917C9.86983 0.822917 10.4921 1.469 10.8313 1.97163C11.0076 2.23281 11.1323 2.48957 11.2127 2.67871C11.2533 2.77418 11.2835 2.85476 11.3042 2.91315C11.3145 2.9424 11.3225 2.96624 11.3282 2.98379C11.331 2.99257 11.3333 2.99979 11.3351 3.00533C11.3359 3.00811 11.3367 3.01046 11.3372 3.01239C11.3375 3.01336 11.3378 3.01421 11.338 3.01496C11.3381 3.01533 11.3382 3.01568 11.3383 3.016C11.3384 3.01616 11.3384 3.01638 11.3385 3.01646C11.3385 3.01667 11.3386 3.01687 10.7499 3.19345C10.1613 3.37003 10.1613 3.37022 10.1614 3.3704C10.1614 3.37046 10.1614 3.37063 10.1615 3.37074C10.1615 3.37095 10.1616 3.37114 10.1616 3.3713C10.1617 3.37162 10.1618 3.37184 10.1618 3.37196C10.1619 3.3722 10.1619 3.37204 10.1617 3.37149C10.1614 3.37039 10.1605 3.36775 10.1592 3.36367C10.1565 3.35549 10.1519 3.34161 10.1453 3.32285C10.132 3.28521 10.1108 3.2286 10.0814 3.15946C10.0219 3.01935 9.93256 2.83713 9.81254 2.65931C9.55918 2.28397 9.25952 2.05208 8.90614 2.05208V0.822917ZM10.7499 3.19345C10.1613 3.01683 10.1613 3.01663 10.1614 3.01642C10.1614 3.01634 10.1615 3.01613 10.1615 3.01598C10.1616 3.01566 10.1617 3.01533 10.1618 3.01496C10.1621 3.01423 10.1623 3.01339 10.1626 3.01244C10.1632 3.01054 10.1639 3.00821 10.1648 3.00547C10.1665 2.99999 10.1687 2.99283 10.1716 2.98412C10.1772 2.9667 10.1851 2.94299 10.1954 2.91388C10.2158 2.85577 10.2458 2.77551 10.2859 2.68036C10.3654 2.49188 10.4884 2.23585 10.6615 1.97532C10.9921 1.47779 11.6049 0.822917 12.5568 0.822917V2.05208C12.2287 2.05208 11.9381 2.27518 11.6852 2.65563C11.5666 2.83409 11.4779 3.01704 11.4186 3.15781C11.3893 3.22728 11.3681 3.2842 11.3548 3.32212C11.3481 3.34102 11.3435 3.35504 11.3408 3.36334C11.3394 3.36749 11.3386 3.37019 11.3382 3.37135C11.338 3.37193 11.338 3.37212 11.338 3.37191C11.3381 3.37181 11.3381 3.37161 11.3382 3.3713C11.3383 3.37115 11.3383 3.37097 11.3384 3.37076C11.3384 3.37066 11.3385 3.37049 11.3385 3.37044C11.3385 3.37026 11.3386 3.37007 10.7499 3.19345Z" fill="currentColor"/>
</svg>
