<svg width="20" height="16" viewBox="0 0 20 16" fill="none" xmlns="http://www.w3.org/2000/svg">
<path d="M12.4985 4.37161C12.5113 4.45138 12.4883 4.5369 12.4294 4.62816L10.0037 8.1692L12.4535 7.77652C12.5917 7.75437 12.7098 7.7699 12.8076 7.82312C12.9047 7.87215 12.962 7.95124 12.9795 8.0604C12.9963 8.1654 12.9644 8.2609 12.8837 8.3471C12.8074 8.4282 12.7027 8.4794 12.5696 8.5008L9.19819 9.0412C9.06509 9.0625 8.94379 9.0432 8.83449 8.9832C8.72509 8.9232 8.66259 8.8449 8.64719 8.7484C8.63439 8.6686 8.65739 8.5831 8.71629 8.4918L11.1343 4.95201L8.91489 5.30776C8.77659 5.32992 8.65859 5.31439 8.56079 5.26116C8.46299 5.20794 8.40539 5.12675 8.38789 5.01759C8.37099 4.91262 8.40079 4.81958 8.47699 4.73845C8.55839 4.65651 8.66569 4.60486 8.79879 4.58353L11.9398 4.08006C12.0627 4.06037 12.181 4.078 12.2948 4.13296C12.4138 4.1871 12.4817 4.26665 12.4985 4.37161Z" fill="#3E3C43"/>
<path d="M15.161 2.64269C15.289 2.63527 15.3977 2.66271 15.487 2.72501C15.576 2.78312 15.6234 2.86261 15.6293 2.96349C15.6349 3.06017 15.597 3.14461 15.5155 3.21682C15.434 3.28902 15.3293 3.32884 15.2012 3.33626L12.624 3.48567C12.5013 3.49278 12.3953 3.46519 12.306 3.40288C12.2218 3.33606 12.1774 3.26272 12.1728 3.18285C12.1687 3.11139 12.1759 3.05192 12.1946 3.00445C12.213 2.95277 12.2497 2.8937 12.3048 2.82725L14.0971 0.774816L12.5443 0.864825C12.4163 0.872245 12.3076 0.844806 12.2183 0.782506C12.1291 0.720196 12.0815 0.638605 12.0757 0.537715C12.0701 0.441035 12.1081 0.358695 12.1898 0.290695C12.2713 0.218495 12.3761 0.178676 12.5041 0.171256L14.9693 0.0283456C15.0867 0.0215356 15.1873 0.0494455 15.2713 0.112056C15.3603 0.170166 15.4076 0.247555 15.4132 0.344235C15.4169 0.407285 15.412 0.462396 15.3987 0.509566C15.3851 0.552526 15.3507 0.605136 15.2954 0.667386L13.4882 2.73966L15.161 2.64269Z" fill="#3E3C43"/>
<path d="M19.161 4.64269C19.289 4.63527 19.3977 4.66271 19.487 4.72501C19.576 4.78312 19.6234 4.86261 19.6293 4.96349C19.6349 5.06017 19.597 5.14461 19.5155 5.21682C19.434 5.28902 19.3293 5.32884 19.2012 5.33626L16.624 5.48567C16.5013 5.49278 16.3953 5.46519 16.306 5.40288C16.2218 5.33606 16.1774 5.26272 16.1728 5.18285C16.1687 5.11139 16.1759 5.05192 16.1946 5.00445C16.213 4.95277 16.2497 4.8937 16.3048 4.82725L18.0971 2.77482L16.5443 2.86483C16.4163 2.87225 16.3076 2.84481 16.2183 2.78251C16.1291 2.7202 16.0815 2.63861 16.0757 2.53772C16.0701 2.44104 16.1081 2.3587 16.1898 2.2907C16.2713 2.2185 16.3761 2.17868 16.5041 2.17126L18.9693 2.02835C19.0867 2.02154 19.1873 2.04945 19.2713 2.11206C19.3603 2.17017 19.4076 2.24756 19.4132 2.34424C19.4169 2.40729 19.412 2.4624 19.3987 2.50957C19.3851 2.55253 19.3507 2.60514 19.2954 2.66739L17.4882 4.73966L19.161 4.64269Z" fill="#3E3C43"/>
<path d="M11.046 10.8641C10.3656 13.4353 8.19698 15.1005 5.58948 14.6723C2.74278 14.2048 0.81238 11.5007 1.28408 8.6279C1.72218 5.96002 4.07678 4.09245 6.69048 4.21411C6.04248 5.18861 5.53368 6.15542 5.21778 7.04858C4.84928 8.0904 4.72338 9.0887 5.01388 9.8863C5.31948 10.7251 6.04828 11.249 7.15648 11.3905C8.12408 11.514 9.40798 11.3537 11.046 10.8641Z" stroke="#3E3C43" stroke-width="0.75" stroke-linecap="round" stroke-linejoin="round"/>
</svg>
