<svg width="50" height="58" viewBox="0 0 50 58" fill="none" xmlns="http://www.w3.org/2000/svg">
<path d="M25.239 5.45748L26.5468 5.46673C26.548 5.29655 26.516 5.12778 26.4525 4.96987L25.239 5.45748ZM24.6928 48.8005L23.3871 48.7252L24.6928 48.8005ZM17.8634 54.2639L17.8709 52.9561L17.8634 54.2639ZM11.5806 49.9843L12.6412 49.219C12.4534 48.9587 12.1765 48.7766 11.8631 48.7073L11.5806 49.9843ZM7.11871 47.4346L8.23914 46.76L7.11871 47.4346ZM6.48131 41.9712L7.77418 42.1686C7.86863 41.55 7.51166 40.9512 6.92259 40.7401L6.48131 41.9712ZM2.38385 37.8737L3.61863 37.4426L2.38385 37.8737ZM2.01968 26.8558L0.720786 26.703L2.01968 26.8558ZM4.66018 23.0314L5.0588 24.277C5.4236 24.1603 5.71889 23.8895 5.86671 23.5362C6.01453 23.1828 6.00002 22.7824 5.82701 22.4407L4.66018 23.0314ZM5.38863 15.8379L6.35816 16.7157L5.38863 15.8379ZM21.2325 2.08839L21.4265 0.795007L21.2325 2.08839ZM6.48131 34.1404L6.88566 32.8966L6.48131 34.1404ZM9.4526 35.7201C10.1742 35.6885 10.7335 35.0778 10.7018 34.3562C10.6702 33.6346 10.0595 33.0753 9.33789 33.107L9.4526 35.7201ZM14.6765 15.4738L15.551 14.5012L14.6765 15.4738ZM15.4695 21.0678C15.5417 21.7865 16.1828 22.3106 16.9015 22.2385C17.6202 22.1663 18.1443 21.5252 18.0721 20.8065L15.4695 21.0678ZM15.5871 6.91443L15.2817 8.18612L15.5871 6.91443ZM17.2856 10.4935C17.5524 11.1647 18.3128 11.4925 18.984 11.2257C19.6553 10.9589 19.9831 10.1984 19.7163 9.52723L17.2856 10.4935ZM25.1572 15.7469L26.465 15.7582L25.1572 15.7469ZM20.5734 12.634C19.8599 12.7466 19.3728 13.4163 19.4855 14.1298C19.5981 14.8432 20.2678 15.3303 20.9813 15.2176L20.5734 12.634ZM9.88269 19.8929C9.90942 19.1711 9.34595 18.5643 8.62414 18.5375C7.90233 18.5108 7.29552 19.0743 7.26878 19.7961L9.88269 19.8929ZM12.5822 26.2185L12.1526 27.4537L12.5822 26.2185ZM20.8955 25.309C21.399 24.7911 21.3874 23.9631 20.8695 23.4596C20.3516 22.9561 19.5236 22.9678 19.0201 23.4856L20.8955 25.309ZM15.0408 26.5854L14.9828 25.2788L15.0408 26.5854ZM13.9481 29.9518L14.9027 30.8457L13.9481 29.9518ZM10.269 29.8358C9.55116 29.7555 8.90419 30.2724 8.82395 30.9902C8.7437 31.708 9.26057 32.355 9.9784 32.4353L10.269 29.8358ZM11.7138 39.9418C10.9952 39.8682 10.3531 40.3911 10.2796 41.1096C10.206 41.8282 10.7289 42.4703 11.4474 42.5439L11.7138 39.9418ZM16.1334 42.8818L17.0416 41.9407L16.1334 42.8818ZM16.5573 48.1399C16.5948 48.8612 17.2099 49.4156 17.9312 49.3782C18.6526 49.3407 19.207 48.7256 19.1695 48.0042L16.5573 48.1399ZM14.5855 36.3257L15.6196 37.1264L14.5855 36.3257ZM20.4286 35.069C21.1427 34.9598 21.633 34.2925 21.5238 33.5785C21.4147 32.8645 20.7474 32.3742 20.0333 32.4833L20.4286 35.069ZM23.3871 48.7252C23.3211 49.8691 22.6822 50.9135 21.6349 51.7038C20.5819 52.4983 19.1998 52.9637 17.8709 52.9561L17.8559 55.5717C19.7652 55.5826 21.7048 54.9278 23.2104 53.7918C24.7217 52.6514 25.8785 50.9548 25.9984 48.8759L23.3871 48.7252ZM17.8709 52.9561C16.786 52.9498 15.532 52.1837 14.4007 51.1512C13.868 50.665 13.4224 50.1751 13.1094 49.8054C12.9538 49.6215 12.8329 49.4697 12.7527 49.3662C12.7126 49.3144 12.6828 49.2749 12.6639 49.2497C12.6545 49.2371 12.6478 49.228 12.644 49.2228C12.6421 49.2202 12.6409 49.2186 12.6404 49.2179C12.6402 49.2176 12.6401 49.2175 12.6402 49.2177C12.6403 49.2178 12.6404 49.2179 12.6406 49.2181C12.6406 49.2182 12.6408 49.2184 12.6408 49.2185C12.641 49.2187 12.6412 49.219 11.5806 49.9843C10.5201 50.7496 10.5202 50.7498 10.5205 50.7501C10.5205 50.7502 10.5208 50.7505 10.5209 50.7508C10.5213 50.7512 10.5217 50.7518 10.5221 50.7524C10.523 50.7536 10.524 50.7551 10.5253 50.7568C10.5278 50.7602 10.531 50.7647 10.5351 50.7701C10.5431 50.7811 10.5541 50.7959 10.5679 50.8145C10.5957 50.8517 10.6351 50.9038 10.6853 50.9686C10.7858 51.0982 10.9302 51.2795 11.113 51.4953C11.4768 51.9252 12.0004 52.5018 12.6374 53.0832C13.8456 54.1859 15.733 55.5596 17.8559 55.5717L17.8709 52.9561ZM11.5806 49.9843C11.8631 48.7073 11.8634 48.7073 11.8637 48.7074C11.8637 48.7074 11.864 48.7075 11.8641 48.7075C11.8644 48.7076 11.8646 48.7076 11.8647 48.7076C11.8651 48.7077 11.8652 48.7077 11.8651 48.7077C11.865 48.7077 11.8641 48.7075 11.8624 48.7071C11.8591 48.7064 11.8527 48.7049 11.8434 48.7027C11.8249 48.6983 11.7949 48.6911 11.7548 48.6809C11.6746 48.6606 11.5546 48.6287 11.4055 48.5848C11.1054 48.4964 10.6974 48.3623 10.2637 48.1798C9.32297 47.7842 8.55257 47.2806 8.23914 46.76L5.99828 48.1092C6.77017 49.3912 8.23071 50.1624 9.24961 50.591C9.79567 50.8206 10.2997 50.9859 10.6666 51.0939C10.8511 51.1483 11.0033 51.1888 11.1119 51.2164C11.1663 51.2301 11.2099 51.2407 11.2414 51.2482C11.2571 51.2519 11.2698 51.2548 11.2793 51.257C11.2841 51.2581 11.288 51.259 11.2912 51.2597C11.2927 51.26 11.2941 51.2603 11.2952 51.2606C11.2958 51.2607 11.2963 51.2608 11.2968 51.2609C11.297 51.261 11.2974 51.2611 11.2975 51.2611C11.2978 51.2612 11.2981 51.2612 11.5806 49.9843ZM8.23914 46.76C7.8413 46.0993 7.67964 45.0327 7.66756 43.9571C7.66186 43.4498 7.68941 42.9945 7.71855 42.6664C7.73304 42.5031 7.74775 42.3734 7.75847 42.2869C7.76383 42.2436 7.76817 42.2114 7.77097 42.1912C7.77237 42.1811 7.77338 42.1741 7.77394 42.1703C7.77422 42.1684 7.77438 42.1673 7.77442 42.167C7.77445 42.1669 7.77444 42.1669 7.77439 42.1672C7.77437 42.1673 7.77435 42.1675 7.77431 42.1678C7.77429 42.1679 7.77426 42.1681 7.77425 42.1682C7.77421 42.1684 7.77418 42.1686 6.48131 41.9712C5.18845 41.7738 5.18841 41.7741 5.18837 41.7744C5.18835 41.7745 5.1883 41.7748 5.18827 41.775C5.1882 41.7755 5.18812 41.776 5.18804 41.7765C5.18787 41.7777 5.18767 41.779 5.18744 41.7806C5.18697 41.7837 5.18638 41.7876 5.18568 41.7924C5.18428 41.802 5.18242 41.815 5.18018 41.8311C5.17569 41.8634 5.16966 41.9085 5.16263 41.9652C5.1486 42.0784 5.13056 42.2384 5.1131 42.435C5.07833 42.8266 5.04512 43.3716 5.05203 43.9865C5.06516 45.1552 5.2222 46.8203 5.99828 48.1092L8.23914 46.76ZM6.48131 41.9712C6.92259 40.7401 6.92304 40.7402 6.92348 40.7404C6.92361 40.7404 6.92404 40.7406 6.9243 40.7407C6.92482 40.7409 6.9253 40.7411 6.92573 40.7412C6.9266 40.7415 6.92729 40.7418 6.9278 40.742C6.92883 40.7423 6.92916 40.7425 6.92881 40.7423C6.9281 40.7421 6.92468 40.7408 6.91868 40.7385C6.90668 40.7338 6.88447 40.7251 6.85322 40.712C6.79062 40.6858 6.69251 40.6426 6.56818 40.5811C6.31819 40.4576 5.97011 40.2639 5.59451 39.9911C4.83583 39.4401 4.02716 38.613 3.61863 37.4426L1.14907 38.3047C1.78947 40.1393 3.02953 41.3609 4.05736 42.1075C4.575 42.4834 5.05462 42.7508 5.409 42.926C5.58687 43.0139 5.73512 43.0796 5.84332 43.1248C5.89749 43.1475 5.94179 43.1652 5.97496 43.178C5.99155 43.1844 6.00537 43.1896 6.01627 43.1937C6.02171 43.1957 6.02643 43.1974 6.0304 43.1989C6.03238 43.1996 6.03418 43.2003 6.03579 43.2009C6.03659 43.2011 6.03734 43.2014 6.03805 43.2017C6.03841 43.2018 6.0389 43.202 6.03908 43.202C6.03956 43.2022 6.04003 43.2024 6.48131 41.9712ZM3.61863 37.4426C3.1594 36.1271 3.37069 35.0303 3.69722 34.2431C3.86282 33.8438 4.05768 33.5276 4.20801 33.3152C4.28264 33.2097 4.34464 33.1322 4.38394 33.0852C4.40353 33.0619 4.41729 33.0463 4.42392 33.0389C4.42722 33.0353 4.42873 33.0336 4.42827 33.0341C4.42805 33.0344 4.42732 33.0352 4.42609 33.0365C4.42547 33.0371 4.42473 33.0379 4.42385 33.0388C4.42341 33.0393 4.42294 33.0398 4.42243 33.0403C4.42218 33.0406 4.42178 33.041 4.42165 33.0411C4.42124 33.0416 4.42082 33.042 3.47656 32.1371C2.5323 31.2322 2.53186 31.2327 2.53142 31.2331C2.53126 31.2333 2.5308 31.2338 2.53048 31.2341C2.52984 31.2348 2.52916 31.2355 2.52845 31.2362C2.52702 31.2377 2.52545 31.2394 2.52375 31.2412C2.52034 31.2448 2.51639 31.249 2.5119 31.2539C2.50293 31.2635 2.49184 31.2756 2.47882 31.2901C2.45279 31.319 2.41895 31.3577 2.3788 31.4056C2.29862 31.5013 2.19256 31.635 2.07287 31.8042C1.83455 32.1409 1.53572 32.6271 1.28113 33.2409C0.767295 34.4797 0.432229 36.2512 1.14907 38.3047L3.61863 37.4426ZM3.47656 32.1371C4.6512 31.5621 4.65127 31.5622 4.65133 31.5623C4.65134 31.5623 4.6514 31.5625 4.65142 31.5625C4.65147 31.5626 4.6515 31.5627 4.6515 31.5627C4.65149 31.5627 4.65139 31.5625 4.65119 31.562C4.6508 31.5612 4.65001 31.5596 4.64884 31.5572C4.64651 31.5524 4.64267 31.5444 4.63742 31.5335C4.62693 31.5116 4.61085 31.4777 4.59004 31.4331C4.54839 31.3439 4.48799 31.2122 4.41564 31.0474C4.2704 30.7167 4.07979 30.2593 3.89671 29.7506C3.71248 29.2387 3.54321 28.695 3.43318 28.1879C3.31923 27.6627 3.28855 27.2638 3.31857 27.0086L0.720786 26.703C0.641485 27.3772 0.738249 28.1032 0.876969 28.7425C1.01961 29.3999 1.22823 30.0603 1.43555 30.6364C1.64402 31.2156 1.85862 31.7301 2.02071 32.0992C2.10203 32.2843 2.17081 32.4345 2.21994 32.5397C2.24452 32.5923 2.26422 32.6338 2.27817 32.663C2.28515 32.6775 2.29068 32.689 2.29468 32.6973C2.29667 32.7014 2.29829 32.7047 2.2995 32.7072C2.3001 32.7084 2.30061 32.7095 2.30101 32.7103C2.30121 32.7107 2.30139 32.7111 2.30154 32.7114C2.30162 32.7115 2.30171 32.7117 2.30175 32.7118C2.30184 32.712 2.30192 32.7122 3.47656 32.1371ZM3.31857 27.0086C3.46145 25.794 3.96046 25.1169 4.36508 24.7423C4.57627 24.5467 4.77593 24.4213 4.91351 24.348C4.98187 24.3116 5.03316 24.289 5.06033 24.2778C5.07384 24.2722 5.08111 24.2696 5.08123 24.2696C5.08128 24.2695 5.07952 24.2702 5.07583 24.2714C5.07398 24.2721 5.07165 24.2729 5.06881 24.2738C5.0674 24.2743 5.06586 24.2748 5.06419 24.2753C5.06335 24.2756 5.06249 24.2759 5.06159 24.2761C5.06114 24.2763 5.06044 24.2765 5.06022 24.2766C5.05951 24.2768 5.0588 24.277 4.66018 23.0314C4.26156 21.7858 4.26083 21.786 4.26009 21.7863C4.25983 21.7864 4.25908 21.7866 4.25856 21.7868C4.25753 21.7871 4.25645 21.7875 4.25534 21.7878C4.25312 21.7885 4.25075 21.7893 4.24824 21.7901C4.24322 21.7918 4.23761 21.7937 4.23145 21.7958C4.21912 21.8 4.20453 21.8051 4.18782 21.8112C4.15442 21.8233 4.11243 21.8393 4.06299 21.8597C3.96425 21.9005 3.83485 21.959 3.68411 22.0392C3.3835 22.1993 2.99132 22.4495 2.58791 22.823C1.76332 23.5866 0.94208 24.8217 0.720786 26.703L3.31857 27.0086ZM4.66018 23.0314C5.82701 22.4407 5.82725 22.4412 5.82748 22.4416C5.82754 22.4417 5.82776 22.4422 5.8279 22.4424C5.82816 22.443 5.82839 22.4434 5.8286 22.4438C5.82901 22.4447 5.82929 22.4452 5.82946 22.4456C5.8298 22.4462 5.82966 22.446 5.82908 22.4448C5.82792 22.4424 5.82498 22.4364 5.82047 22.4268C5.81144 22.4076 5.79616 22.3745 5.77625 22.3286C5.73633 22.2367 5.67836 22.0948 5.61487 21.9125C5.48686 21.5451 5.34222 21.0303 5.27195 20.4408C5.1315 19.2627 5.2931 17.8921 6.35816 16.7157L4.41911 14.9602C2.68122 16.8797 2.47858 19.1058 2.67465 20.7505C2.77263 21.5724 2.97143 22.2755 3.1448 22.7731C3.232 23.0234 3.3142 23.2258 3.37678 23.37C3.40812 23.4422 3.43468 23.5001 3.45466 23.5425C3.46466 23.5637 3.47303 23.581 3.47955 23.5944C3.48281 23.601 3.4856 23.6067 3.48791 23.6113C3.48907 23.6136 3.4901 23.6157 3.49101 23.6175C3.49146 23.6184 3.49188 23.6193 3.49227 23.62C3.49247 23.6204 3.49274 23.621 3.49284 23.6212C3.4931 23.6217 3.49335 23.6222 4.66018 23.0314ZM6.35816 16.7157C6.77064 16.2601 7.63532 15.8429 8.60549 15.5331C9.05591 15.3893 9.4721 15.286 9.77588 15.2188C9.92699 15.1853 10.0483 15.1613 10.1297 15.1459C10.1704 15.1382 10.201 15.1328 10.2202 15.1294C10.2298 15.1277 10.2365 15.1266 10.2403 15.126C10.2421 15.1256 10.2432 15.1255 10.2436 15.1254C10.2437 15.1254 10.2437 15.1254 10.2435 15.1254C10.2434 15.1254 10.2432 15.1255 10.243 15.1255C10.2429 15.1255 10.2427 15.1255 10.2427 15.1256C10.2425 15.1256 10.2422 15.1256 10.0325 13.8347C9.8228 12.5438 9.82256 12.5438 9.8223 12.5439C9.8222 12.5439 9.82193 12.5439 9.82172 12.544C9.82131 12.544 9.82085 12.5441 9.82034 12.5442C9.81931 12.5443 9.81808 12.5446 9.81665 12.5448C9.81379 12.5453 9.81012 12.5459 9.80567 12.5466C9.79676 12.5481 9.78472 12.5502 9.76969 12.5528C9.73964 12.5581 9.69763 12.5656 9.64497 12.5755C9.53975 12.5954 9.39147 12.6249 9.21078 12.6648C8.85096 12.7445 8.35472 12.8674 7.80987 13.0414C6.78949 13.3672 5.33223 13.9516 4.41911 14.9602L6.35816 16.7157ZM10.0325 13.8347C11.2525 13.3635 11.2526 13.3638 11.2528 13.3641C11.2528 13.3642 11.2529 13.3645 11.253 13.3646C11.2531 13.3649 11.2532 13.3652 11.2533 13.3654C11.2535 13.3659 11.2535 13.3661 11.2535 13.3661C11.2536 13.3662 11.2533 13.3654 11.2526 13.3637C11.2514 13.3605 11.249 13.3539 11.2455 13.3443C11.2384 13.325 11.227 13.2933 11.2124 13.2506C11.183 13.165 11.1409 13.036 11.094 12.8739C10.9993 12.5467 10.8898 12.1002 10.8243 11.6125C10.6805 10.5431 10.8019 9.68852 11.201 9.23033L9.22855 7.51234C8.03945 8.87754 8.06971 10.7546 8.23188 11.961C8.3193 12.6113 8.46204 13.1887 8.58135 13.601C8.64145 13.8087 8.69672 13.9783 8.73805 14.0989C8.75874 14.1592 8.77603 14.2075 8.78879 14.2425C8.79518 14.2599 8.80044 14.2741 8.80444 14.2847C8.80644 14.29 8.80812 14.2944 8.80947 14.298C8.81015 14.2998 8.81074 14.3013 8.81125 14.3026C8.81151 14.3033 8.81174 14.3039 8.81195 14.3045C8.81206 14.3047 8.8122 14.3051 8.81225 14.3052C8.81239 14.3056 8.81252 14.3059 10.0325 13.8347ZM11.201 9.23033C12.2846 7.98621 14.4314 6.43436 16.6053 5.208C17.6766 4.6037 18.7071 4.10537 19.5574 3.77882C19.9833 3.61526 20.3417 3.50344 20.6232 3.44033C20.9288 3.37181 21.0476 3.38313 21.0385 3.38176L21.4265 0.795007C20.9622 0.725358 20.472 0.793596 20.051 0.887991C19.6058 0.987791 19.1199 1.14488 18.6196 1.33701C17.6175 1.72185 16.4684 2.28206 15.3202 2.9298C13.0552 4.20751 10.6036 5.9337 9.22855 7.51234L11.201 9.23033ZM21.0385 3.38176C22.0153 3.52827 22.7527 4.1158 23.2839 4.76214C23.5454 5.08019 23.7376 5.39035 23.8632 5.61947C23.9255 5.73301 23.9699 5.82383 23.9969 5.882C24.0104 5.91101 24.0195 5.93165 24.0243 5.94265C24.0266 5.94814 24.0279 5.9512 24.0281 5.95167C24.0282 5.9519 24.028 5.95148 24.0276 5.9504C24.0274 5.94986 24.0271 5.94914 24.0267 5.94826C24.0265 5.94782 24.0263 5.94734 24.0261 5.94681C24.026 5.94655 24.0259 5.94612 24.0258 5.94599C24.0256 5.94555 24.0254 5.9451 25.239 5.45748C26.4525 4.96987 26.4523 4.96939 26.4522 4.96891C26.4521 4.96874 26.4519 4.96824 26.4517 4.96789C26.4515 4.96718 26.4512 4.96643 26.4508 4.96563C26.4502 4.96404 26.4495 4.96226 26.4487 4.9603C26.4471 4.95638 26.4451 4.95173 26.4429 4.94638C26.4385 4.93567 26.4327 4.92214 26.4258 4.90595C26.4118 4.87359 26.3927 4.83053 26.3683 4.77817C26.3196 4.6736 26.2495 4.53097 26.1567 4.36174C25.9722 4.02531 25.6921 3.57259 25.3047 3.10129C24.5384 2.16893 23.2726 1.07191 21.4265 0.795007L21.0385 3.38176ZM3.47656 32.1371C2.57973 33.089 2.57986 33.0892 2.58 33.0893C2.58005 33.0893 2.58019 33.0895 2.5803 33.0896C2.58052 33.0898 2.58076 33.09 2.58102 33.0902C2.58156 33.0907 2.58219 33.0913 2.58293 33.092C2.5844 33.0934 2.58628 33.0952 2.58856 33.0973C2.59312 33.1016 2.59929 33.1073 2.60699 33.1144C2.62238 33.1287 2.64395 33.1485 2.67121 33.1733C2.72568 33.2228 2.80312 33.2922 2.89957 33.376C3.09175 33.543 3.36309 33.7706 3.68144 34.0141C4.28345 34.4745 5.18246 35.0934 6.07696 35.3842L6.88566 32.8966C6.43895 32.7514 5.83558 32.3686 5.27053 31.9364C5.00534 31.7336 4.77697 31.5421 4.61532 31.4016C4.53486 31.3317 4.47185 31.2752 4.43011 31.2373C4.40926 31.2184 4.39378 31.2041 4.38415 31.1952C4.37934 31.1907 4.376 31.1876 4.37418 31.1859C4.37327 31.1851 4.37275 31.1846 4.37261 31.1845C4.37255 31.1844 4.37258 31.1844 4.3727 31.1845C4.37277 31.1846 4.37286 31.1847 4.37297 31.1848C4.37303 31.1848 4.37313 31.1849 4.37316 31.185C4.37327 31.1851 4.37339 31.1852 3.47656 32.1371ZM6.07696 35.3842C6.80051 35.6194 7.68008 35.6913 8.2927 35.7162C8.61634 35.7294 8.90168 35.7305 9.10667 35.7283C9.20954 35.7272 9.29314 35.7253 9.35234 35.7236C9.38196 35.7228 9.40555 35.722 9.42245 35.7213C9.43091 35.721 9.4377 35.7208 9.44275 35.7206C9.44528 35.7205 9.44737 35.7204 9.44901 35.7203C9.44983 35.7203 9.45054 35.7202 9.45114 35.7202C9.45144 35.7202 9.45171 35.7202 9.45196 35.7202C9.45208 35.7202 9.45224 35.7202 9.4523 35.7202C9.45245 35.7201 9.4526 35.7201 9.39525 34.4136C9.33789 33.107 9.33802 33.107 9.33815 33.107C9.33818 33.107 9.3383 33.1069 9.33837 33.1069C9.3385 33.1069 9.3386 33.1069 9.33868 33.1069C9.33884 33.1069 9.33888 33.1069 9.33882 33.1069C9.3387 33.1069 9.33816 33.107 9.33719 33.107C9.33526 33.1071 9.33166 33.1072 9.32647 33.1074C9.31608 33.1078 9.29935 33.1084 9.2769 33.109C9.23194 33.1103 9.16432 33.1119 9.07892 33.1128C8.90739 33.1146 8.66804 33.1137 8.39908 33.1027C7.82647 33.0794 7.24907 33.0148 6.88566 32.8966L6.07696 35.3842ZM10.0325 13.8347C9.88966 15.1347 9.88946 15.1347 9.88926 15.1347C9.88921 15.1347 9.88903 15.1347 9.88893 15.1346C9.88873 15.1346 9.88858 15.1346 9.88848 15.1346C9.88827 15.1346 9.88826 15.1346 9.88843 15.1346C9.88878 15.1346 9.88988 15.1347 9.89171 15.135C9.89537 15.1354 9.90196 15.1362 9.91132 15.1373C9.93005 15.1396 9.95982 15.1433 9.99945 15.1486C10.0788 15.1593 10.1971 15.1762 10.3449 15.2005C10.6419 15.2493 11.0505 15.3266 11.4968 15.4398C12.4532 15.6822 13.3409 16.0317 13.8021 16.4463L15.551 14.5012C14.582 13.63 13.1477 13.1599 12.1396 12.9043C11.6037 12.7684 11.1195 12.677 10.7692 12.6194C10.5933 12.5905 10.4494 12.5698 10.3474 12.5562C10.2963 12.5493 10.2557 12.5442 10.2266 12.5407C10.2121 12.5389 10.2004 12.5375 10.1919 12.5365C10.1876 12.536 10.184 12.5356 10.1813 12.5353C10.1799 12.5352 10.1787 12.535 10.1777 12.5349C10.1772 12.5349 10.1768 12.5348 10.1764 12.5348C10.1762 12.5348 10.176 12.5347 10.1759 12.5347C10.1756 12.5347 10.1754 12.5347 10.0325 13.8347ZM13.8021 16.4463C14.3438 16.9334 14.7918 17.9625 15.0966 19.1132C15.2385 19.6488 15.3328 20.1447 15.3915 20.5073C15.4207 20.6878 15.4407 20.8329 15.4532 20.9307C15.4595 20.9796 15.4638 21.0165 15.4665 21.0399C15.4678 21.0515 15.4687 21.0599 15.4692 21.0646C15.4694 21.0669 15.4696 21.0684 15.4696 21.069C15.4697 21.0692 15.4697 21.0693 15.4697 21.0691C15.4697 21.069 15.4696 21.0688 15.4696 21.0686C15.4696 21.0685 15.4696 21.0683 15.4696 21.0683C15.4696 21.068 15.4695 21.0678 16.7708 20.9372C18.0721 20.8065 18.0721 20.8062 18.0721 20.806C18.0721 20.8059 18.072 20.8056 18.072 20.8053C18.072 20.8049 18.0719 20.8044 18.0719 20.8038C18.0718 20.8027 18.0716 20.8013 18.0714 20.7996C18.0711 20.7964 18.0707 20.7922 18.0701 20.7871C18.069 20.7768 18.0675 20.7628 18.0655 20.7453C18.0615 20.7103 18.0557 20.6611 18.0479 20.5994C18.0321 20.476 18.008 20.3018 17.9736 20.0893C17.9051 19.6663 17.7945 19.0828 17.6251 18.4435C17.3075 17.2445 16.7084 15.5419 15.551 14.5012L13.8021 16.4463ZM10.2148 8.37134C10.83 9.52542 10.8299 9.52551 10.8297 9.52558C10.8297 9.5256 10.8296 9.52567 10.8295 9.5257C10.8294 9.52577 10.8293 9.52581 10.8293 9.52582C10.8292 9.52584 10.8294 9.52575 10.8298 9.52555C10.8306 9.52514 10.8321 9.5243 10.8346 9.52303C10.8394 9.52049 10.8474 9.51626 10.8586 9.51045C10.8809 9.49884 10.9156 9.48097 10.9613 9.45785C11.0528 9.41158 11.188 9.34456 11.3568 9.26482C11.6961 9.10459 12.163 8.89683 12.6782 8.7034C13.1979 8.50826 13.7394 8.33814 14.2329 8.24086C14.7504 8.13885 15.0961 8.14156 15.2817 8.18612L15.8925 5.64274C15.1681 5.46879 14.3874 5.54436 13.727 5.67455C13.0425 5.80947 12.3547 6.03089 11.7588 6.25461C11.1584 6.48002 10.6234 6.71844 10.2397 6.89966C10.0471 6.99065 9.89054 7.06818 9.78063 7.12377C9.72564 7.15159 9.68218 7.17398 9.65159 7.1899C9.63628 7.19786 9.62418 7.2042 9.61545 7.20881C9.61108 7.21111 9.60755 7.21297 9.60489 7.21439C9.60355 7.21509 9.60243 7.21569 9.60153 7.21617C9.60108 7.2164 9.60069 7.21662 9.60034 7.2168C9.60017 7.21689 9.59996 7.217 9.59987 7.21705C9.59967 7.21715 9.59948 7.21726 10.2148 8.37134ZM15.2817 8.18612C15.7267 8.29297 16.2179 8.7248 16.6656 9.37308C16.87 9.6692 17.0295 9.95853 17.1378 10.1748C17.1913 10.2819 17.2309 10.3681 17.256 10.4247C17.2685 10.453 17.2772 10.4736 17.2822 10.4855C17.2847 10.4914 17.2862 10.4952 17.2868 10.4965C17.2871 10.4972 17.2871 10.4973 17.2869 10.4968C17.2868 10.4966 17.2867 10.4962 17.2864 10.4956C17.2863 10.4953 17.2862 10.495 17.286 10.4947C17.286 10.4945 17.2859 10.4942 17.2858 10.4941C17.2857 10.4938 17.2856 10.4935 18.5009 10.0104C19.7163 9.52723 19.7161 9.52689 19.716 9.52655C19.7159 9.52642 19.7158 9.52606 19.7157 9.5258C19.7155 9.52529 19.7153 9.52473 19.715 9.52413C19.7145 9.52293 19.714 9.52156 19.7134 9.52004C19.7121 9.51698 19.7106 9.51328 19.7089 9.50895C19.7053 9.50028 19.7007 9.48909 19.6951 9.47551C19.6837 9.44837 19.668 9.41165 19.6481 9.36657C19.6083 9.27655 19.5511 9.15238 19.4768 9.00408C19.3295 8.70971 19.1094 8.30885 18.818 7.88684C18.2739 7.09886 17.3083 5.98272 15.8925 5.64274L15.2817 8.18612ZM25.239 5.45748C23.9312 5.44824 23.9312 5.44825 23.9312 5.44829C23.9312 5.44832 23.9312 5.44837 23.9312 5.44843C23.9312 5.44856 23.9312 5.44876 23.9312 5.44902C23.9312 5.44955 23.9312 5.45034 23.9312 5.45139C23.9311 5.45349 23.9311 5.45664 23.9311 5.46083C23.931 5.46921 23.9309 5.48174 23.9308 5.49835C23.9306 5.53157 23.9302 5.58107 23.9298 5.64619C23.9288 5.77644 23.9274 5.96916 23.9256 6.21904C23.9219 6.71879 23.9165 7.44711 23.9095 8.36133C23.8954 10.1898 23.875 12.7617 23.8494 15.7357L26.465 15.7582C26.4906 12.7833 26.511 10.2105 26.5251 8.38144C26.5321 7.4669 26.5375 6.73828 26.5412 6.23827C26.5431 5.98826 26.5444 5.7954 26.5454 5.66504C26.5459 5.59985 26.5462 5.55029 26.5464 5.51702C26.5466 5.50038 26.5467 5.48781 26.5467 5.47941C26.5467 5.4752 26.5468 5.47204 26.5468 5.46992C26.5468 5.46886 26.5468 5.46807 26.5468 5.46753C26.5468 5.46727 26.5468 5.46707 26.5468 5.46693C26.5468 5.46687 26.5468 5.46682 26.5468 5.46678C26.5468 5.46675 26.5468 5.46673 25.239 5.45748ZM23.8494 15.7357C23.7479 27.558 23.5663 45.62 23.3871 48.7252L25.9984 48.8759C26.1825 45.6864 26.364 27.5219 26.465 15.7582L23.8494 15.7357ZM26.1633 14.9114C25.2434 13.8036 24.3923 13.0571 23.3895 12.7119C22.387 12.3668 21.4282 12.499 20.5734 12.634L20.9813 15.2176C21.8565 15.0794 22.2181 15.075 22.5382 15.1852C22.858 15.2953 23.3318 15.596 24.1511 16.5825L26.1633 14.9114ZM8.57573 19.8445C7.26878 19.7961 7.26876 19.7966 7.26874 19.7972C7.26873 19.7975 7.26871 19.7981 7.2687 19.7985C7.26866 19.7994 7.26863 19.8004 7.2686 19.8014C7.26853 19.8035 7.26845 19.8059 7.26837 19.8086C7.26821 19.8139 7.26802 19.8205 7.26784 19.8283C7.26748 19.8439 7.26712 19.8641 7.26691 19.8889C7.26649 19.9383 7.26666 20.0058 7.2686 20.0891C7.27248 20.2555 7.28348 20.4868 7.31137 20.7657C7.36679 21.3199 7.49081 22.0818 7.76953 22.9047C8.32918 24.557 9.55559 26.5504 12.1526 27.4537L13.0119 24.9832C11.4203 24.4296 10.6434 23.236 10.247 22.0656C10.0476 21.4771 9.95541 20.9187 9.91408 20.5054C9.8936 20.3006 9.88611 20.1363 9.88358 20.0281C9.88232 19.9742 9.88231 19.9345 9.88251 19.9113C9.88261 19.8996 9.88276 19.8921 9.88284 19.8889C9.88287 19.8874 9.88289 19.8869 9.88287 19.8875C9.88286 19.8879 9.88284 19.8885 9.88281 19.8894C9.8828 19.8898 9.88278 19.8903 9.88276 19.8909C9.88275 19.8912 9.88273 19.8917 9.88272 19.8918C9.88271 19.8924 9.88269 19.8929 8.57573 19.8445ZM12.1526 27.4537C13.1857 27.8131 14.1778 27.9328 15.0987 27.8919L14.9828 25.2788C14.377 25.3057 13.7171 25.2285 13.0119 24.9832L12.1526 27.4537ZM15.0987 27.8919C16.8479 27.8144 18.293 27.1613 19.2768 26.5575C19.7728 26.253 20.1658 25.9524 20.4385 25.7243C20.5753 25.6099 20.6831 25.5127 20.7598 25.441C20.7981 25.4051 20.8288 25.3755 20.8515 25.3532C20.8628 25.342 20.8722 25.3327 20.8795 25.3253C20.8832 25.3216 20.8864 25.3183 20.8891 25.3156C20.8904 25.3143 20.8916 25.313 20.8927 25.3119C20.8932 25.3114 20.8937 25.3109 20.8942 25.3104C20.8944 25.3101 20.8948 25.3098 20.8949 25.3097C20.8952 25.3093 20.8955 25.309 19.9578 24.3973C19.0201 23.4856 19.0204 23.4853 19.0207 23.485C19.0208 23.4849 19.0211 23.4846 19.0213 23.4845C19.0216 23.4841 19.0219 23.4838 19.0222 23.4835C19.0228 23.4829 19.0233 23.4824 19.0237 23.482C19.0244 23.4813 19.0247 23.481 19.0245 23.4812C19.0241 23.4816 19.0218 23.4838 19.0178 23.4878C19.0098 23.4957 18.9946 23.5105 18.9725 23.5311C18.9283 23.5725 18.8569 23.6372 18.7605 23.7178C18.5669 23.8797 18.2772 24.1019 17.9084 24.3283C17.1625 24.7861 16.1491 25.2271 14.9828 25.2788L15.0987 27.8919ZM15.0408 26.5854C13.7355 26.5035 13.7355 26.5032 13.7355 26.503C13.7355 26.5029 13.7355 26.5027 13.7355 26.5026C13.7355 26.5024 13.7356 26.5022 13.7356 26.502C13.7356 26.5016 13.7356 26.5014 13.7356 26.5013C13.7356 26.5012 13.7356 26.5016 13.7355 26.5025C13.7354 26.5043 13.7351 26.5083 13.7347 26.5142C13.7338 26.5262 13.7322 26.5461 13.7298 26.5731C13.725 26.6273 13.717 26.7094 13.7045 26.8125C13.6794 27.0203 13.6374 27.3049 13.5705 27.6132C13.421 28.3032 13.2041 28.8329 12.9934 29.0578L14.9027 30.8457C15.6369 30.0617 15.9663 28.9083 16.1269 28.1673C16.2151 27.7601 16.2691 27.3922 16.3013 27.1265C16.3174 26.9928 16.3283 26.8828 16.3353 26.8041C16.3388 26.7647 16.3413 26.733 16.3431 26.7099C16.3439 26.6984 16.3446 26.689 16.3451 26.6818C16.3453 26.6783 16.3455 26.6752 16.3457 26.6728C16.3458 26.6716 16.3458 26.6705 16.3459 26.6696C16.3459 26.6691 16.3459 26.6687 16.346 26.6683C16.346 26.6681 16.346 26.6679 16.346 26.6678C16.346 26.6675 16.346 26.6673 15.0408 26.5854ZM12.9934 29.0578C12.6024 29.4754 11.9898 29.7017 11.3364 29.7962C11.0259 29.8412 10.7458 29.8503 10.5446 29.8479C10.4451 29.8467 10.3678 29.8428 10.3191 29.8395C10.2949 29.8379 10.278 29.8365 10.2693 29.8357C10.265 29.8353 10.2627 29.8351 10.2626 29.8351C10.2626 29.8351 10.2631 29.8351 10.2641 29.8352C10.2647 29.8353 10.2653 29.8354 10.2661 29.8354C10.2665 29.8355 10.267 29.8355 10.2675 29.8356C10.2677 29.8356 10.2681 29.8357 10.2682 29.8357C10.2686 29.8357 10.269 29.8358 10.1237 31.1355C9.9784 32.4353 9.97882 32.4353 9.97925 32.4354C9.97941 32.4354 9.97985 32.4354 9.98016 32.4355C9.98079 32.4355 9.98145 32.4356 9.98216 32.4357C9.98356 32.4358 9.98513 32.436 9.98684 32.4362C9.99027 32.4366 9.99432 32.437 9.99897 32.4374C10.0083 32.4384 10.02 32.4395 10.034 32.4408C10.062 32.4433 10.0992 32.4464 10.1449 32.4494C10.236 32.4555 10.3614 32.4616 10.5137 32.4634C10.8162 32.467 11.2361 32.4537 11.7109 32.385C12.6283 32.2523 13.9279 31.8867 14.9027 30.8457L12.9934 29.0578ZM15.2253 43.823C15.6901 44.2715 16.0615 45.2214 16.2966 46.3095C16.4053 46.8123 16.4712 47.2773 16.5098 47.6172C16.529 47.7862 16.5411 47.922 16.5484 48.0133C16.552 48.0589 16.5544 48.0932 16.5558 48.1148C16.5565 48.1256 16.5569 48.1332 16.5572 48.1374C16.5573 48.1396 16.5574 48.1408 16.5574 48.1413C16.5574 48.1415 16.5574 48.1415 16.5574 48.1412C16.5574 48.1411 16.5574 48.141 16.5574 48.1407C16.5574 48.1406 16.5573 48.1404 16.5573 48.1404C16.5573 48.1401 16.5573 48.1399 17.8634 48.0721C19.1695 48.0042 19.1695 48.004 19.1695 48.0037C19.1695 48.0036 19.1694 48.0033 19.1694 48.0031C19.1694 48.0026 19.1694 48.0021 19.1693 48.0015C19.1693 48.0004 19.1692 47.9991 19.1691 47.9975C19.169 47.9943 19.1687 47.9903 19.1684 47.9853C19.1679 47.9755 19.1671 47.9621 19.166 47.9454C19.1638 47.912 19.1605 47.8652 19.1559 47.8065C19.1466 47.6893 19.1317 47.5239 19.1088 47.3222C19.0632 46.9208 18.985 46.3664 18.8533 45.7571C18.6078 44.621 18.1143 42.9758 17.0416 41.9407L15.2253 43.823ZM11.5806 41.2428C11.4474 42.5439 11.4473 42.5438 11.4472 42.5438C11.4472 42.5438 11.4471 42.5438 11.447 42.5438C11.4469 42.5438 11.4468 42.5438 11.4467 42.5438C11.4464 42.5438 11.4463 42.5437 11.4462 42.5437C11.4459 42.5437 11.4459 42.5437 11.446 42.5437C11.4463 42.5437 11.4472 42.5438 11.4489 42.544C11.4523 42.5444 11.4585 42.5451 11.4674 42.5461C11.4852 42.5481 11.5137 42.5515 11.5517 42.5563C11.6278 42.566 11.7416 42.5816 11.8838 42.6042C12.1697 42.6495 12.5631 42.722 12.9927 42.8297L13.6287 40.2925C13.1065 40.1616 12.6348 40.0749 12.2936 40.0208C12.1223 39.9936 11.982 39.9743 11.8825 39.9616C11.8326 39.9553 11.7929 39.9506 11.7644 39.9473C11.7501 39.9457 11.7387 39.9444 11.7302 39.9435C11.726 39.943 11.7225 39.9427 11.7197 39.9424C11.7184 39.9422 11.7172 39.9421 11.7162 39.942C11.7157 39.942 11.7152 39.9419 11.7148 39.9419C11.7146 39.9418 11.7144 39.9418 11.7143 39.9418C11.7142 39.9418 11.7141 39.9418 11.714 39.9418C11.7139 39.9418 11.7138 39.9418 11.5806 41.2428ZM12.9927 42.8297C13.945 43.0684 14.8037 43.4162 15.2253 43.823L17.0416 41.9407C16.0863 41.0188 14.6283 40.5431 13.6287 40.2925L12.9927 42.8297ZM16.6877 41.6972L13.865 40.3765L12.7564 42.7457L15.5792 44.0664L16.6877 41.6972ZM13.3107 41.5611C14.6185 41.5562 14.6185 41.5564 14.6185 41.5566C14.6185 41.5567 14.6185 41.5568 14.6185 41.5569C14.6185 41.5572 14.6185 41.5573 14.6185 41.5574C14.6185 41.5576 14.6185 41.5576 14.6185 41.5573C14.6185 41.5569 14.6185 41.5556 14.6185 41.5535C14.6185 41.5493 14.6186 41.5418 14.6187 41.5312C14.6188 41.5101 14.6192 41.4767 14.6202 41.4322C14.6221 41.3433 14.6261 41.2108 14.6348 41.0454C14.6522 40.7128 14.6877 40.2549 14.7597 39.7528C14.9136 38.6782 15.1995 37.669 15.6196 37.1264L13.5513 35.5251C12.6833 36.6464 12.3318 38.2549 12.1704 39.3819C12.0846 39.9807 12.043 40.5196 12.0227 40.9087C12.0124 41.104 12.0075 41.2636 12.0051 41.3765C12.0039 41.433 12.0033 41.4779 12.003 41.5099C12.0029 41.5259 12.0029 41.5387 12.0028 41.5481C12.0028 41.5528 12.0028 41.5566 12.0028 41.5596C12.0028 41.5611 12.0028 41.5624 12.0028 41.5634C12.0028 41.564 12.0028 41.5644 12.0028 41.5649C12.0028 41.5651 12.0028 41.5653 12.0028 41.5654C12.0028 41.5657 12.0028 41.566 13.3107 41.5611ZM15.6196 37.1264C16.0979 36.5086 17.1643 35.9683 18.3676 35.5775C18.9284 35.3954 19.4509 35.2667 19.834 35.1837C20.0246 35.1425 20.1784 35.113 20.2822 35.0942C20.3341 35.0848 20.3733 35.0781 20.3983 35.0739C20.4108 35.0718 20.4197 35.0704 20.4248 35.0696C20.4274 35.0692 20.429 35.0689 20.4297 35.0688C20.43 35.0688 20.4301 35.0688 20.4299 35.0688C20.4298 35.0688 20.4297 35.0688 20.4295 35.0689C20.4293 35.0689 20.4291 35.0689 20.4291 35.0689C20.4289 35.069 20.4286 35.069 20.231 33.7762C20.0333 32.4833 20.0331 32.4834 20.0328 32.4834C20.0327 32.4834 20.0324 32.4835 20.0322 32.4835C20.0317 32.4836 20.0312 32.4837 20.0306 32.4838C20.0294 32.4839 20.028 32.4842 20.0263 32.4844C20.0229 32.485 20.0185 32.4856 20.0132 32.4865C20.0024 32.4882 19.9878 32.4906 19.9694 32.4936C19.9327 32.4997 19.881 32.5086 19.8161 32.5203C19.6864 32.5438 19.5032 32.579 19.2803 32.6273C18.8362 32.7235 18.225 32.8736 17.5596 33.0897C16.3102 33.4955 14.5539 34.2301 13.5513 35.5251L15.6196 37.1264Z" fill="currentColor"/>
<path d="M25.2276 5.38283L23.9197 5.37289C23.921 5.20271 23.9555 5.03442 24.0213 4.87746L25.2276 5.38283ZM25.1379 48.7292L26.4446 48.673L25.1379 48.7292ZM31.8864 54.2922L31.8981 52.9844L31.8864 54.2922ZM38.2313 50.1052L37.1821 49.3244C37.3737 49.0669 37.6532 48.8889 37.9675 48.8242L38.2313 50.1052ZM42.7301 47.6213L41.6197 46.9303L42.7301 47.6213ZM43.4476 42.1678L42.152 42.3462C42.0666 41.7263 42.4323 41.1328 43.0244 40.9303L43.4476 42.1678ZM47.6047 38.1308L46.3764 37.6817L47.6047 38.1308ZM48.1305 27.1195L49.4315 26.9857L48.1305 27.1195ZM45.5464 23.2568L45.1295 24.4964C44.7665 24.3743 44.4752 24.0992 44.3326 23.7437C44.1899 23.3882 44.2103 22.9881 44.3883 22.649L45.5464 23.2568ZM44.9235 16.0534L43.9412 16.9168L44.9235 16.0534ZM29.283 2.07286L29.108 0.776777L29.283 2.07286ZM43.5625 34.3378L43.1764 33.0882L43.5625 34.3378ZM40.5683 35.8738C39.8473 35.8315 39.297 35.2127 39.3392 34.4917C39.3815 33.7706 40.0003 33.2203 40.7214 33.2626L40.5683 35.8738ZM35.6419 15.553L34.7819 14.5677L35.6419 15.553ZM34.767 21.1348C34.6843 21.8523 34.0355 22.367 33.318 22.2843C32.6004 22.2016 32.0858 21.5529 32.1685 20.8353L34.767 21.1348ZM34.857 6.9812L35.1437 8.25724L34.857 6.9812ZM33.1062 10.535C32.8296 11.2022 32.0644 11.5188 31.3972 11.2422C30.73 10.9655 30.4134 10.2004 30.69 9.53315L33.1062 10.535ZM30.2469 18.553C30.9586 18.6761 31.4358 19.3529 31.3127 20.0646C31.1896 20.7764 30.5128 21.2536 29.8011 21.1305L30.2469 18.553ZM40.3705 20.0419C40.3543 19.3198 40.9266 18.7213 41.6487 18.7052C42.3709 18.689 42.9693 19.2614 42.9855 19.9835L40.3705 20.0419ZM37.5784 26.3272L37.9899 27.5687L37.5784 26.3272ZM29.2793 25.2959C28.7835 24.7707 28.8073 23.943 29.3325 23.4471C29.8577 22.9513 30.6855 22.9751 31.1813 23.5003L29.2793 25.2959ZM35.1148 26.658L35.1918 25.3525L35.1148 26.658ZM36.1579 30.0401L35.1903 30.92L36.1579 30.0401ZM39.8383 29.9781C40.5573 29.9084 41.1966 30.4347 41.2663 31.1536C41.336 31.8725 40.8097 32.5119 40.0908 32.5816L39.8383 29.9781ZM38.2455 40.0618C38.965 39.9988 39.5994 40.531 39.6624 41.2506C39.7254 41.9701 39.1932 42.6045 38.4736 42.6675L38.2455 40.0618ZM33.7831 42.9367L32.8889 41.9824L33.7831 42.9367ZM33.2822 48.188C33.2341 48.9087 32.6109 49.454 31.8902 49.406C31.1695 49.3579 30.6242 48.7347 30.6723 48.014L33.2822 48.188ZM35.4271 36.404L34.3813 37.1894L35.4271 36.404ZM29.603 35.0617C28.8907 34.9421 28.4102 34.2677 28.5298 33.5553C28.6494 32.843 29.3239 32.3625 30.0362 32.4821L29.603 35.0617ZM25.066 40.1537L23.7582 40.1542L25.066 40.1537ZM27.5319 40.7363L27.2864 39.4517L27.5319 40.7363ZM28.9825 37.883C29.4218 37.3096 30.2427 37.2008 30.8161 37.64C31.3895 38.0792 31.4983 38.9001 31.0591 39.4735L28.9825 37.883ZM26.4446 48.673C26.4938 49.8178 27.1172 50.8715 28.1528 51.677C29.1941 52.4869 30.5692 52.9725 31.8981 52.9844L31.8747 55.6C29.9654 55.5829 28.0357 54.8996 26.5469 53.7417C25.0525 52.5793 23.9208 50.8659 23.8313 48.7854L26.4446 48.673ZM31.8981 52.9844C32.9829 52.9941 34.2481 52.2464 35.3944 51.2306C35.9341 50.7523 36.3869 50.269 36.7053 49.9039C36.8636 49.7223 36.9867 49.5723 37.0684 49.4699C37.1093 49.4188 37.1397 49.3798 37.1589 49.3548C37.1685 49.3423 37.1753 49.3334 37.1792 49.3282C37.1811 49.3256 37.1824 49.324 37.1829 49.3234C37.1831 49.323 37.1832 49.323 37.183 49.3231C37.183 49.3232 37.1829 49.3234 37.1827 49.3236C37.1826 49.3237 37.1825 49.3239 37.1824 49.3239C37.1823 49.3241 37.1821 49.3244 38.2313 50.1052C39.2805 50.8859 39.2803 50.8862 39.2801 50.8865C39.28 50.8866 39.2798 50.8869 39.2796 50.8871C39.2793 50.8876 39.2789 50.8881 39.2784 50.8887C39.2775 50.8899 39.2765 50.8914 39.2752 50.8931C39.2726 50.8965 39.2693 50.9009 39.2652 50.9063C39.257 50.9171 39.2458 50.9318 39.2317 50.9502C39.2034 50.987 39.1633 51.0385 39.112 51.1026C39.0097 51.2307 38.8626 51.4098 38.6767 51.6229C38.3067 52.0474 37.7746 52.6162 37.1292 53.1882C35.905 54.2731 33.9976 55.619 31.8747 55.6L31.8981 52.9844ZM38.2313 50.1052C37.9675 48.8242 37.9673 48.8242 37.967 48.8243C37.9669 48.8243 37.9667 48.8244 37.9666 48.8244C37.9663 48.8244 37.9661 48.8245 37.9659 48.8245C37.9656 48.8246 37.9655 48.8246 37.9655 48.8246C37.9656 48.8246 37.9666 48.8244 37.9682 48.824C37.9716 48.8233 37.978 48.8219 37.9873 48.8199C38.0059 48.8158 38.036 48.809 38.0762 48.7994C38.1567 48.7802 38.2772 48.7501 38.4269 48.7084C38.7283 48.6244 39.1382 48.4963 39.5746 48.3203C40.521 47.9384 41.2987 47.4462 41.6197 46.9303L43.8405 48.3122C43.0499 49.5828 41.5782 50.3325 40.5531 50.746C40.0038 50.9676 39.4973 51.1255 39.1289 51.2281C38.9437 51.2797 38.7909 51.3181 38.6818 51.344C38.6273 51.357 38.5835 51.3669 38.5519 51.3739C38.5361 51.3774 38.5234 51.3801 38.5139 51.3822C38.5091 51.3832 38.5051 51.384 38.502 51.3847C38.5004 51.385 38.4991 51.3853 38.4979 51.3855C38.4973 51.3857 38.4968 51.3858 38.4963 51.3859C38.4961 51.3859 38.4958 51.386 38.4957 51.386C38.4954 51.3861 38.4951 51.3861 38.2313 50.1052ZM41.6197 46.9303C42.0272 46.2755 42.2045 45.2113 42.2323 44.1361C42.2455 43.6289 42.2246 43.1733 42.2003 42.8447C42.1882 42.6813 42.1754 42.5513 42.1659 42.4647C42.1612 42.4214 42.1573 42.389 42.1548 42.3688C42.1536 42.3588 42.1527 42.3517 42.1522 42.3479C42.1519 42.346 42.1518 42.3449 42.1517 42.3446C42.1517 42.3445 42.1517 42.3445 42.1518 42.3448C42.1518 42.3449 42.1518 42.3451 42.1518 42.3454C42.1519 42.3455 42.1519 42.3457 42.1519 42.3458C42.1519 42.346 42.152 42.3462 43.4476 42.1678C44.7432 41.9894 44.7432 41.9896 44.7433 41.9899C44.7433 41.9901 44.7433 41.9903 44.7434 41.9906C44.7434 41.991 44.7435 41.9915 44.7436 41.9921C44.7437 41.9932 44.7439 41.9946 44.7441 41.9961C44.7445 41.9992 44.7451 42.0032 44.7457 42.008C44.747 42.0176 44.7486 42.0306 44.7506 42.0468C44.7547 42.0791 44.76 42.1243 44.7662 42.1811C44.7786 42.2945 44.7943 42.4548 44.8088 42.6516C44.8379 43.0437 44.8631 43.5891 44.8472 44.2038C44.8169 45.3722 44.6354 47.0348 43.8405 48.3122L41.6197 46.9303ZM43.4476 42.1678C43.0244 40.9303 43.024 40.9305 43.0235 40.9306C43.0234 40.9307 43.023 40.9308 43.0227 40.9309C43.0222 40.9311 43.0217 40.9312 43.0213 40.9314C43.0204 40.9317 43.0197 40.9319 43.0192 40.9321C43.0181 40.9325 43.0178 40.9326 43.0182 40.9325C43.0189 40.9322 43.0223 40.931 43.0284 40.9288C43.0404 40.9243 43.0628 40.9158 43.0942 40.9032C43.1572 40.8779 43.2559 40.8362 43.3811 40.7766C43.6329 40.6567 43.9838 40.4682 44.3633 40.2009C45.13 39.661 45.9507 38.8459 46.3764 37.6817L48.833 38.5799C48.1658 40.4049 46.908 41.6082 45.8693 42.3396C45.3462 42.7079 44.8627 42.9682 44.5058 43.1382C44.3266 43.2235 44.1774 43.287 44.0686 43.3307C44.0141 43.3525 43.9695 43.3695 43.9362 43.3819C43.9195 43.388 43.9056 43.393 43.8947 43.3969C43.8892 43.3989 43.8844 43.4006 43.8804 43.4019C43.8785 43.4026 43.8766 43.4033 43.875 43.4038C43.8742 43.4041 43.8735 43.4044 43.8728 43.4046C43.8724 43.4047 43.8719 43.4049 43.8717 43.405C43.8712 43.4051 43.8708 43.4053 43.4476 42.1678ZM46.3764 37.6817C46.8549 36.373 46.6597 35.2732 46.3447 34.4813C46.185 34.0797 45.9948 33.7606 45.8476 33.546C45.7746 33.4395 45.7137 33.361 45.6751 33.3135C45.6558 33.2899 45.6423 33.2741 45.6358 33.2667C45.6325 33.2629 45.6311 33.2613 45.6315 33.2618C45.6317 33.262 45.6324 33.2628 45.6337 33.2641C45.6343 33.2648 45.635 33.2656 45.6359 33.2665C45.6363 33.267 45.6368 33.2675 45.6373 33.2681C45.6375 33.2683 45.6379 33.2687 45.638 33.2689C45.6384 33.2693 45.6388 33.2698 46.5963 32.3788C47.5537 31.4879 47.5541 31.4883 47.5546 31.4888C47.5547 31.489 47.5552 31.4895 47.5555 31.4898C47.5561 31.4905 47.5568 31.4912 47.5575 31.492C47.5589 31.4935 47.5604 31.4952 47.5621 31.497C47.5655 31.5006 47.5694 31.5049 47.5738 31.5098C47.5826 31.5196 47.5935 31.5319 47.6063 31.5465C47.6319 31.5759 47.6652 31.615 47.7046 31.6635C47.7834 31.7604 47.8875 31.8956 48.0047 32.0665C48.2381 32.4067 48.5297 32.8972 48.7753 33.5147C49.2709 34.7609 49.5799 36.5371 48.833 38.5799L46.3764 37.6817ZM46.5963 32.3788C45.4302 31.7866 45.4301 31.7867 45.4301 31.7869C45.4301 31.7869 45.43 31.787 45.43 31.787C45.4299 31.7871 45.4299 31.7872 45.4299 31.7872C45.4299 31.7872 45.43 31.787 45.4302 31.7866C45.4306 31.7858 45.4314 31.7842 45.4326 31.7818C45.435 31.777 45.439 31.7691 45.4444 31.7582C45.4552 31.7365 45.4718 31.7028 45.4932 31.6586C45.5362 31.57 45.5985 31.4391 45.6733 31.2755C45.8234 30.9469 46.0207 30.4924 46.2112 29.9864C46.4029 29.4773 46.5801 28.9361 46.6976 28.4306C46.8192 27.9072 46.8558 27.5088 46.8295 27.2532L49.4315 26.9857C49.5009 27.661 49.3935 28.3855 49.2454 29.0227C49.0931 29.6779 48.8748 30.3352 48.6591 30.9082C48.4421 31.4843 48.22 31.9956 48.0525 32.3622C47.9685 32.5462 47.8975 32.6953 47.8469 32.7998C47.8215 32.8521 47.8012 32.8933 47.7868 32.9222C47.7796 32.9367 47.7739 32.9481 47.7698 32.9563C47.7678 32.9603 47.7661 32.9636 47.7649 32.9661C47.7642 32.9673 47.7637 32.9684 47.7633 32.9692C47.7631 32.9696 47.7629 32.97 47.7627 32.9703C47.7627 32.9704 47.7626 32.9706 47.7625 32.9707C47.7624 32.9709 47.7624 32.971 46.5963 32.3788ZM46.8295 27.2532C46.7044 26.0366 46.2154 25.3523 45.8163 24.9717C45.608 24.7731 45.4102 24.6447 45.2737 24.5695C45.2059 24.5321 45.155 24.5087 45.128 24.4971C45.1145 24.4914 45.1073 24.4886 45.1072 24.4886C45.1071 24.4886 45.1089 24.4892 45.1126 24.4905C45.1144 24.4912 45.1167 24.492 45.1195 24.493C45.1209 24.4935 45.1225 24.494 45.1241 24.4946C45.125 24.4949 45.1258 24.4951 45.1267 24.4955C45.1272 24.4956 45.1279 24.4958 45.1281 24.4959C45.1288 24.4962 45.1295 24.4964 45.5464 23.2568C45.9632 22.0171 45.9639 22.0174 45.9647 22.0176C45.9649 22.0177 45.9657 22.0179 45.9662 22.0181C45.9672 22.0185 45.9683 22.0188 45.9694 22.0192C45.9716 22.02 45.974 22.0208 45.9765 22.0216C45.9815 22.0234 45.987 22.0253 45.9932 22.0275C46.0054 22.0319 46.0199 22.0372 46.0366 22.0436C46.0698 22.0562 46.1115 22.0728 46.1607 22.0939C46.2588 22.1361 46.3873 22.1965 46.5369 22.279C46.8351 22.4435 47.2236 22.6993 47.6215 23.0788C48.4348 23.8543 49.2378 25.1014 49.4315 26.9857L46.8295 27.2532ZM45.5464 23.2568C44.3883 22.649 44.3881 22.6494 44.3878 22.6499C44.3878 22.65 44.3875 22.6504 44.3874 22.6507C44.3871 22.6512 44.3869 22.6517 44.3867 22.6521C44.3863 22.6529 44.386 22.6535 44.3858 22.6538C44.3854 22.6545 44.3856 22.6542 44.3862 22.653C44.3874 22.6507 44.3904 22.6447 44.3951 22.6352C44.4044 22.6161 44.4201 22.5833 44.4407 22.5377C44.482 22.4463 44.542 22.3052 44.6082 22.124C44.7416 21.7585 44.8937 21.2458 44.9727 20.6575C45.1304 19.4815 44.9889 18.1087 43.9412 16.9168L45.9058 15.1899C47.6153 17.1347 47.7853 19.3636 47.5651 21.0052C47.4551 21.8256 47.246 22.5257 47.0654 23.0207C46.9745 23.2697 46.8893 23.4708 46.8246 23.6141C46.7923 23.6858 46.7649 23.7434 46.7442 23.7855C46.7339 23.8065 46.7253 23.8237 46.7186 23.837C46.7152 23.8436 46.7124 23.8492 46.71 23.8538C46.7088 23.8561 46.7077 23.8581 46.7068 23.8599C46.7063 23.8608 46.7059 23.8617 46.7055 23.8624C46.7053 23.8628 46.705 23.8633 46.7049 23.8635C46.7047 23.864 46.7044 23.8645 45.5464 23.2568ZM43.9412 16.9168C43.5355 16.4552 42.677 16.0254 41.7115 15.7014C41.2632 15.551 40.8486 15.4416 40.5458 15.3699C40.3952 15.3342 40.2743 15.3084 40.1931 15.2919C40.1525 15.2836 40.122 15.2777 40.1029 15.274C40.0933 15.2722 40.0866 15.271 40.0828 15.2703C40.081 15.2699 40.0799 15.2697 40.0795 15.2697C40.0794 15.2696 40.0794 15.2697 40.0796 15.2697C40.0797 15.2697 40.0799 15.2697 40.0801 15.2698C40.0802 15.2698 40.0804 15.2698 40.0804 15.2698C40.0806 15.2699 40.0809 15.2699 40.3095 13.9822C40.5381 12.6945 40.5384 12.6945 40.5386 12.6946C40.5387 12.6946 40.539 12.6947 40.5392 12.6947C40.5396 12.6948 40.5401 12.6948 40.5406 12.6949C40.5416 12.6951 40.5428 12.6953 40.5443 12.6956C40.5471 12.6961 40.5508 12.6968 40.5552 12.6976C40.5641 12.6992 40.5761 12.7015 40.5911 12.7043C40.6211 12.71 40.663 12.7182 40.7155 12.7289C40.8204 12.7502 40.9682 12.7819 41.1483 12.8245C41.5069 12.9094 42.0013 13.0396 42.5435 13.2216C43.559 13.5623 45.0076 14.1681 45.9058 15.1899L43.9412 16.9168ZM40.3095 13.9822C39.0965 13.4931 39.0964 13.4934 39.0963 13.4937C39.0963 13.4938 39.0961 13.4941 39.0961 13.4943C39.0959 13.4946 39.0958 13.4949 39.0958 13.4951C39.0956 13.4955 39.0955 13.4958 39.0955 13.4958C39.0955 13.4958 39.0958 13.495 39.0964 13.4934C39.0977 13.4901 39.1002 13.4837 39.1039 13.4741C39.1112 13.4549 39.1231 13.4234 39.1383 13.3809C39.1689 13.2957 39.213 13.1673 39.2623 13.006C39.3617 12.6802 39.4778 12.2353 39.5504 11.7487C39.7099 10.6814 39.6011 9.82518 39.2087 9.36119L41.2061 7.67233C42.3751 9.05482 42.3173 10.9313 42.1374 12.1352C42.0405 12.7841 41.8893 13.3593 41.7639 13.7698C41.7008 13.9766 41.6431 14.1454 41.6 14.2653C41.5784 14.3254 41.5604 14.3734 41.5471 14.4082C41.5405 14.4255 41.535 14.4396 41.5308 14.4502C41.5288 14.4554 41.527 14.4599 41.5256 14.4634C41.5249 14.4651 41.5243 14.4667 41.5238 14.468C41.5235 14.4687 41.5233 14.4693 41.523 14.4698C41.5229 14.4701 41.5228 14.4705 41.5227 14.4706C41.5226 14.4709 41.5225 14.4713 40.3095 13.9822ZM39.2087 9.36119C38.1435 8.10131 36.0197 6.51814 33.864 5.26002C32.8017 4.64007 31.7786 4.12668 30.9332 3.78769C30.5097 3.61789 30.153 3.50083 29.8724 3.4336C29.5679 3.3606 29.4489 3.37018 29.458 3.36895L29.108 0.776777C29.5733 0.713948 30.0624 0.789368 30.482 0.88993C30.9257 0.996248 31.4093 1.16045 31.9067 1.3599C32.903 1.7594 34.0438 2.3364 35.1824 3.00091C37.4284 4.31171 39.8544 6.07368 41.2061 7.67233L39.2087 9.36119ZM29.458 3.36895C28.4792 3.50111 27.7332 4.07776 27.1926 4.71623C26.9265 5.03042 26.7298 5.33773 26.6008 5.56497C26.5369 5.67759 26.4912 5.76775 26.4632 5.82552C26.4493 5.85433 26.4399 5.87483 26.435 5.88576C26.4326 5.89121 26.4313 5.89425 26.431 5.89472C26.4309 5.89495 26.4311 5.89454 26.4316 5.89346C26.4318 5.89292 26.4321 5.89221 26.4325 5.89134C26.4327 5.8909 26.4329 5.89042 26.4331 5.88989C26.4332 5.88963 26.4334 5.88921 26.4334 5.88908C26.4336 5.88864 26.4338 5.8882 25.2276 5.38283C24.0213 4.87746 24.0215 4.87699 24.0217 4.87651C24.0218 4.87634 24.022 4.87585 24.0221 4.87549C24.0224 4.87479 24.0227 4.87405 24.0231 4.87325C24.0237 4.87167 24.0245 4.8699 24.0253 4.86795C24.027 4.86405 24.029 4.85943 24.0313 4.85411C24.0359 4.84348 24.0418 4.83003 24.049 4.81395C24.0634 4.7818 24.0832 4.73902 24.1083 4.68702C24.1585 4.58317 24.2308 4.4416 24.326 4.27374C24.5155 3.94005 24.8022 3.49149 25.1964 3.02592C25.9763 2.1049 27.258 1.02657 29.108 0.776777L29.458 3.36895ZM46.5963 32.3788C47.479 33.3438 47.4789 33.3439 47.4788 33.344C47.4787 33.3441 47.4786 33.3442 47.4785 33.3443C47.4783 33.3445 47.478 33.3447 47.4777 33.345C47.4772 33.3455 47.4766 33.3461 47.4758 33.3467C47.4743 33.3481 47.4724 33.3498 47.4701 33.3519C47.4655 33.3561 47.4592 33.3618 47.4514 33.3688C47.4358 33.3828 47.414 33.4024 47.3863 33.4267C47.3312 33.4754 47.2527 33.5436 47.155 33.626C46.9604 33.7902 46.6858 34.0138 46.3639 34.2526C45.7552 34.7041 44.8472 35.3097 43.9485 35.5874L43.1764 33.0882C43.6252 32.9496 44.2341 32.5757 44.8054 32.1518C45.0736 31.9529 45.3047 31.7648 45.4684 31.6267C45.5499 31.558 45.6137 31.5024 45.656 31.4651C45.6772 31.4465 45.6928 31.4325 45.7026 31.4237C45.7075 31.4193 45.7109 31.4162 45.7127 31.4146C45.7136 31.4137 45.7142 31.4132 45.7143 31.4131C45.7144 31.4131 45.7143 31.4131 45.7142 31.4132C45.7141 31.4133 45.714 31.4133 45.7139 31.4134C45.7139 31.4135 45.7138 31.4136 45.7137 31.4136C45.7136 31.4137 45.7135 31.4138 46.5963 32.3788ZM43.9485 35.5874C43.2216 35.812 42.3411 35.871 41.7282 35.8869C41.4044 35.8953 41.119 35.8923 40.9141 35.8871C40.8113 35.8845 40.7277 35.8813 40.6685 35.8787C40.6389 35.8775 40.6153 35.8763 40.5984 35.8754C40.59 35.875 40.5832 35.8746 40.5782 35.8744C40.5756 35.8742 40.5736 35.8741 40.5719 35.874C40.5711 35.874 40.5704 35.8739 40.5698 35.8739C40.5695 35.8739 40.5692 35.8739 40.569 35.8738C40.5688 35.8738 40.5687 35.8738 40.5686 35.8738C40.5685 35.8738 40.5683 35.8738 40.6448 34.5682C40.7214 33.2626 40.7212 33.2626 40.7211 33.2626C40.7211 33.2626 40.7209 33.2626 40.7209 33.2626C40.7207 33.2626 40.7206 33.2625 40.7206 33.2625C40.7204 33.2625 40.7204 33.2625 40.7204 33.2625C40.7205 33.2625 40.7211 33.2626 40.722 33.2626C40.724 33.2627 40.7276 33.2629 40.7328 33.2632C40.7431 33.2637 40.7599 33.2645 40.7823 33.2655C40.8272 33.2675 40.8948 33.2701 40.9802 33.2722C41.1517 33.2765 41.391 33.2791 41.6601 33.2721C42.233 33.2572 42.8113 33.201 43.1764 33.0882L43.9485 35.5874ZM40.3095 13.9822C40.4333 15.2842 40.4335 15.2842 40.4337 15.2841C40.4337 15.2841 40.4339 15.2841 40.434 15.2841C40.4342 15.2841 40.4344 15.2841 40.4345 15.2841C40.4347 15.2841 40.4347 15.284 40.4345 15.2841C40.4342 15.2841 40.4331 15.2842 40.4312 15.2844C40.4276 15.2848 40.421 15.2854 40.4116 15.2864C40.3928 15.2884 40.363 15.2917 40.3233 15.2965C40.2438 15.3059 40.1252 15.3212 39.9771 15.3433C39.6795 15.3877 39.2698 15.459 38.8218 15.5656C37.862 15.794 36.9692 16.1304 36.502 16.5382L34.7819 14.5677C35.7635 13.7108 37.2046 13.2617 38.2163 13.021C38.7541 12.893 39.2396 12.8087 39.5908 12.7563C39.767 12.73 39.9113 12.7114 40.0134 12.6992C40.0646 12.6931 40.1053 12.6886 40.1344 12.6855C40.149 12.6839 40.1606 12.6827 40.1692 12.6819C40.1735 12.6814 40.1771 12.6811 40.1798 12.6808C40.1812 12.6807 40.1824 12.6806 40.1834 12.6805C40.1839 12.6804 40.1843 12.6804 40.1847 12.6803C40.1849 12.6803 40.1851 12.6803 40.1852 12.6803C40.1855 12.6803 40.1857 12.6802 40.3095 13.9822ZM36.502 16.5382C35.9532 17.0173 35.4902 18.0397 35.1685 19.1859C35.0188 19.7193 34.9172 20.2138 34.8532 20.5755C34.8214 20.7555 34.7992 20.9003 34.7853 20.998C34.7783 21.0467 34.7734 21.0835 34.7705 21.1069C34.769 21.1185 34.7679 21.1268 34.7674 21.1316C34.7671 21.1339 34.7669 21.1354 34.7668 21.1359C34.7668 21.1362 34.7668 21.1362 34.7668 21.1361C34.7668 21.136 34.7669 21.1358 34.7669 21.1356C34.7669 21.1355 34.7669 21.1353 34.7669 21.1352C34.7669 21.135 34.767 21.1348 33.4677 20.9851C32.1685 20.8353 32.1685 20.8351 32.1685 20.8348C32.1685 20.8347 32.1686 20.8344 32.1686 20.8342C32.1687 20.8337 32.1687 20.8332 32.1688 20.8326C32.1689 20.8315 32.1691 20.8301 32.1693 20.8285C32.1697 20.8252 32.1702 20.821 32.1708 20.8159C32.172 20.8057 32.1738 20.7917 32.176 20.7742C32.1805 20.7393 32.187 20.6902 32.1958 20.6286C32.2134 20.5055 32.24 20.3316 32.2775 20.1197C32.3522 19.6977 32.4714 19.1159 32.6501 18.4791C32.9852 17.2849 33.6093 15.5913 34.7819 14.5677L36.502 16.5382ZM40.2074 8.51676C39.5753 9.66169 39.5755 9.66178 39.5756 9.66186C39.5756 9.66188 39.5758 9.66195 39.5758 9.66198C39.5759 9.66205 39.576 9.66209 39.576 9.6621C39.5761 9.66212 39.5759 9.66203 39.5755 9.66182C39.5748 9.66141 39.5732 9.66054 39.5708 9.65924C39.566 9.65663 39.558 9.65227 39.5469 9.6463C39.5248 9.63436 39.4904 9.61599 39.445 9.5922C39.3543 9.54459 39.22 9.4756 39.0524 9.3934C38.7155 9.2282 38.2517 9.01362 37.7394 8.81264C37.2226 8.6099 36.6837 8.43186 36.1917 8.32735C35.6757 8.21776 35.3299 8.2154 35.1437 8.25724L34.5703 5.70516C35.2972 5.54186 36.0767 5.62888 36.7351 5.76874C37.4175 5.91369 38.1021 6.14517 38.6946 6.37761C39.2916 6.6118 39.823 6.85804 40.204 7.04487C40.3953 7.13868 40.5507 7.2185 40.6598 7.27569C40.7144 7.30432 40.7575 7.32735 40.7879 7.34371C40.8031 7.35189 40.8151 7.35841 40.8237 7.36314C40.8281 7.36551 40.8316 7.36742 40.8342 7.36888C40.8355 7.3696 40.8366 7.37021 40.8375 7.37071C40.838 7.37095 40.8384 7.37117 40.8387 7.37136C40.8389 7.37145 40.8391 7.37157 40.8392 7.37161C40.8394 7.37172 40.8396 7.37183 40.2074 8.51676ZM35.1437 8.25724C34.6973 8.35755 34.1997 8.78213 33.7426 9.42376C33.5338 9.71685 33.3701 10.0038 33.2587 10.2185C33.2036 10.3247 33.1627 10.4104 33.1368 10.4667C33.1239 10.4947 33.1149 10.5152 33.1097 10.527C33.1071 10.5329 33.1056 10.5366 33.105 10.538C33.1047 10.5387 33.1046 10.5388 33.1049 10.5383C33.105 10.538 33.1051 10.5376 33.1054 10.5371C33.1055 10.5368 33.1056 10.5365 33.1057 10.5361C33.1058 10.536 33.1059 10.5357 33.106 10.5356C33.1061 10.5353 33.1062 10.535 31.8981 10.0341C30.69 9.53315 30.6901 9.53282 30.6903 9.53247C30.6903 9.53234 30.6905 9.53199 30.6906 9.53173C30.6908 9.53122 30.691 9.53066 30.6913 9.53007C30.6918 9.52887 30.6923 9.52752 30.693 9.526C30.6943 9.52296 30.6958 9.51928 30.6976 9.51498C30.7013 9.50636 30.7061 9.49524 30.712 9.48174C30.7237 9.45478 30.7399 9.41828 30.7605 9.3735C30.8017 9.28408 30.8607 9.16077 30.9371 9.01357C31.0887 8.72139 31.3147 8.3238 31.6122 7.90611C32.1678 7.1262 33.1497 6.02435 34.5703 5.70516L35.1437 8.25724ZM25.2276 5.38283C26.5354 5.39277 26.5354 5.39278 26.5354 5.39282C26.5354 5.39285 26.5354 5.3929 26.5354 5.39296C26.5354 5.39309 26.5354 5.39329 26.5354 5.39355C26.5353 5.39408 26.5353 5.39486 26.5353 5.39592C26.5353 5.39802 26.5353 5.40117 26.5353 5.40536C26.5352 5.41374 26.5351 5.42627 26.535 5.44288C26.5347 5.47609 26.5344 5.5256 26.5339 5.59072C26.5329 5.72096 26.5315 5.91369 26.5296 6.16357C26.526 6.66331 26.5207 7.39164 26.5143 8.30587C26.5016 10.1343 26.4843 12.7063 26.4662 15.6803L23.8506 15.6644C23.8687 12.6895 23.8859 10.1167 23.8987 8.2876C23.9051 7.37306 23.9104 6.64444 23.914 6.14442C23.9158 5.89442 23.9173 5.70156 23.9182 5.57119C23.9187 5.50601 23.9191 5.45645 23.9194 5.42317C23.9195 5.40654 23.9196 5.39397 23.9196 5.38556C23.9197 5.38136 23.9197 5.37819 23.9197 5.37608C23.9197 5.37502 23.9197 5.37422 23.9197 5.37369C23.9197 5.37343 23.9197 5.37323 23.9197 5.37309C23.9197 5.37302 23.9197 5.37297 23.9197 5.37294C23.9197 5.37291 23.9197 5.37289 25.2276 5.38283ZM24.1646 14.8221C24.5034 14.4261 24.9715 14.0582 25.5901 13.9553C26.2265 13.8494 26.7662 14.0654 27.15 14.3223C27.827 14.7754 28.3528 15.5864 28.7207 16.1828C29.1635 16.9005 29.483 17.4937 29.8539 18.0206C30.0282 18.2681 30.1665 18.4289 30.2706 18.5233C30.3814 18.6238 30.3714 18.5746 30.2469 18.553L29.8011 21.1305C29.245 21.0343 28.8147 20.7341 28.5133 20.4607C28.2053 20.1813 27.9396 19.8452 27.7151 19.5263C27.2884 18.9202 26.8312 18.1019 26.4945 17.556C26.083 16.8888 25.8267 16.5841 25.6951 16.496C25.6746 16.4823 25.8035 16.5714 26.0195 16.5355C26.2176 16.5025 26.2558 16.4015 26.1522 16.5226L24.1646 14.8221ZM41.678 20.0127C42.9855 19.9835 42.9855 19.9841 42.9855 19.9846C42.9855 19.9849 42.9855 19.9855 42.9855 19.9859C42.9856 19.9868 42.9856 19.9878 42.9856 19.9888C42.9856 19.9909 42.9857 19.9933 42.9857 19.996C42.9858 20.0014 42.9859 20.008 42.986 20.0157C42.9861 20.0313 42.9862 20.0516 42.986 20.0763C42.9857 20.1257 42.9845 20.1932 42.9814 20.2765C42.9751 20.4428 42.9607 20.6739 42.9287 20.9524C42.8651 21.5057 42.73 22.2657 42.4392 23.0844C41.8554 24.7283 40.5998 26.7035 37.9899 27.5687L37.1669 25.0858C38.7665 24.5556 39.5608 23.3736 39.9743 22.209C40.1823 21.6235 40.2827 21.0665 40.3301 20.6539C40.3536 20.4494 40.3635 20.2853 40.3676 20.1771C40.3696 20.1232 40.3702 20.0836 40.3704 20.0603C40.3704 20.0487 40.3704 20.0412 40.3704 20.038C40.3703 20.0364 40.3703 20.0359 40.3703 20.0366C40.3704 20.0369 40.3704 20.0375 40.3704 20.0384C40.3704 20.0389 40.3704 20.0394 40.3704 20.04C40.3704 20.0403 40.3704 20.0407 40.3704 20.0409C40.3704 20.0414 40.3705 20.0419 41.678 20.0127ZM37.9899 27.5687C36.9516 27.9128 35.9579 28.0179 35.0377 27.9636L35.1918 25.3525C35.7972 25.3882 36.4582 25.3207 37.1669 25.0858L37.9899 27.5687ZM35.0377 27.9636C33.2898 27.8604 31.8544 27.1862 30.8796 26.568C30.3881 26.2563 29.9996 25.95 29.7302 25.7178C29.5951 25.6014 29.4887 25.5027 29.4132 25.4299C29.3753 25.3934 29.3451 25.3634 29.3228 25.3407C29.3116 25.3294 29.3023 25.3199 29.2951 25.3124C29.2915 25.3087 29.2883 25.3054 29.2857 25.3026C29.2844 25.3013 29.2832 25.3 29.2822 25.2989C29.2816 25.2983 29.2811 25.2978 29.2806 25.2973C29.2804 25.2971 29.2801 25.2967 29.28 25.2966C29.2796 25.2962 29.2793 25.2959 30.2303 24.3981C31.1813 23.5003 31.181 23.5 31.1807 23.4997C31.1806 23.4996 31.1804 23.4993 31.1802 23.4991C31.1798 23.4987 31.1795 23.4984 31.1792 23.4981C31.1786 23.4974 31.1782 23.4969 31.1778 23.4966C31.1771 23.4958 31.1768 23.4956 31.177 23.4958C31.1774 23.4962 31.1796 23.4984 31.1836 23.5025C31.1915 23.5105 31.2065 23.5255 31.2283 23.5464C31.2719 23.5885 31.3423 23.6542 31.4375 23.7362C31.6287 23.9009 31.9151 24.1274 32.2805 24.3591C33.0196 24.8278 34.0265 25.2836 35.1918 25.3525L35.0377 27.9636ZM35.1148 26.658C36.4211 26.5953 36.4211 26.5951 36.4211 26.5948C36.4211 26.5948 36.4211 26.5946 36.4211 26.5944C36.421 26.5942 36.421 26.594 36.421 26.5938C36.421 26.5934 36.421 26.5932 36.421 26.5932C36.421 26.593 36.421 26.5934 36.4211 26.5943C36.4212 26.5961 36.4214 26.6001 36.4217 26.6061C36.4225 26.618 36.4237 26.638 36.4257 26.665C36.4297 26.7193 36.4366 26.8015 36.4475 26.9047C36.4696 27.1129 36.5075 27.3981 36.5697 27.7073C36.7092 28.3994 36.9183 28.9323 37.1256 29.1603L35.1903 30.92C34.4677 30.1253 34.1553 28.9671 34.0056 28.2238C33.9233 27.8154 33.8747 27.4468 33.8464 27.1806C33.8322 27.0467 33.823 26.9366 33.8172 26.8578C33.8142 26.8183 33.8122 26.7866 33.8108 26.7635C33.8101 26.7519 33.8096 26.7425 33.8092 26.7354C33.809 26.7318 33.8088 26.7288 33.8087 26.7263C33.8086 26.7251 33.8086 26.724 33.8085 26.7231C33.8085 26.7226 33.8085 26.7222 33.8085 26.7218C33.8085 26.7216 33.8084 26.7214 33.8084 26.7213C33.8084 26.721 33.8084 26.7208 35.1148 26.658ZM37.1256 29.1603C37.5104 29.5835 38.1197 29.8188 38.7716 29.9229C39.0814 29.9724 39.3614 29.9856 39.5625 29.9862C39.6621 29.9865 39.7395 29.9836 39.7881 29.9811C39.8124 29.9799 39.8293 29.9787 39.838 29.978C39.8424 29.9777 39.8446 29.9775 39.8447 29.9775C39.8448 29.9775 39.8443 29.9775 39.8432 29.9776C39.8427 29.9777 39.842 29.9777 39.8412 29.9778C39.8408 29.9778 39.8403 29.9779 39.8399 29.9779C39.8396 29.978 39.8392 29.978 39.8391 29.978C39.8387 29.978 39.8383 29.9781 39.9645 31.2798C40.0908 32.5816 40.0903 32.5816 40.0899 32.5816C40.0898 32.5817 40.0893 32.5817 40.089 32.5817C40.0884 32.5818 40.0877 32.5819 40.087 32.5819C40.0856 32.5821 40.084 32.5822 40.0823 32.5824C40.0789 32.5827 40.0748 32.583 40.0702 32.5834C40.0609 32.5842 40.0491 32.5852 40.0351 32.5863C40.0071 32.5884 39.9698 32.5909 39.9241 32.5933C39.8329 32.598 39.7074 32.6023 39.5551 32.6019C39.2526 32.601 38.8329 32.5815 38.3591 32.5059C37.4438 32.3597 36.1498 31.9752 35.1903 30.92L37.1256 29.1603ZM34.6774 43.8911C34.2061 44.3327 33.8208 45.2771 33.5697 46.3616C33.4537 46.8628 33.3809 47.3268 33.3374 47.6661C33.3157 47.8348 33.3016 47.9704 33.293 48.0615C33.2887 48.107 33.2858 48.1413 33.2841 48.1629C33.2832 48.1737 33.2827 48.1813 33.2824 48.1855C33.2822 48.1877 33.2821 48.1889 33.2821 48.1894C33.2821 48.1896 33.2821 48.1896 33.2821 48.1893C33.2821 48.1892 33.2821 48.1891 33.2821 48.1888C33.2821 48.1887 33.2821 48.1885 33.2822 48.1885C33.2822 48.1882 33.2822 48.188 31.9772 48.101C30.6723 48.014 30.6723 48.0138 30.6723 48.0135C30.6723 48.0134 30.6723 48.0131 30.6724 48.0129C30.6724 48.0124 30.6724 48.0119 30.6725 48.0113C30.6725 48.0102 30.6726 48.0089 30.6727 48.0073C30.673 48.0041 30.6732 48.0001 30.6736 47.9951C30.6743 47.9853 30.6753 47.9719 30.6767 47.9552C30.6793 47.9219 30.6833 47.8751 30.6888 47.8165C30.6998 47.6994 30.7171 47.5343 30.743 47.333C30.7944 46.9323 30.8808 46.3791 31.0214 45.7717C31.2835 44.6394 31.8011 43.0016 32.8889 41.9824L34.6774 43.8911ZM38.3595 41.3647C38.4736 42.6675 38.4737 42.6675 38.4738 42.6675C38.4739 42.6675 38.474 42.6675 38.474 42.6675C38.4742 42.6675 38.4743 42.6675 38.4744 42.6675C38.4746 42.6674 38.4748 42.6674 38.4749 42.6674C38.4751 42.6674 38.4752 42.6674 38.475 42.6674C38.4748 42.6674 38.4738 42.6675 38.4721 42.6677C38.4687 42.668 38.4625 42.6686 38.4536 42.6695C38.4358 42.6712 38.4072 42.6742 38.3691 42.6785C38.2929 42.6871 38.1789 42.7009 38.0364 42.7214C37.7498 42.7626 37.3554 42.8293 36.9243 42.9306L36.3256 40.3844C36.8497 40.2611 37.3226 40.1814 37.6645 40.1323C37.8362 40.1076 37.9768 40.0904 38.0765 40.0792C38.1264 40.0736 38.1662 40.0694 38.1948 40.0666C38.209 40.0652 38.2205 40.0641 38.229 40.0633C38.2332 40.0629 38.2367 40.0626 38.2395 40.0623C38.2409 40.0622 38.2421 40.0621 38.2431 40.062C38.2435 40.062 38.244 40.0619 38.2444 40.0619C38.2446 40.0619 38.2448 40.0619 38.245 40.0618C38.2451 40.0618 38.2452 40.0618 38.2452 40.0618C38.2453 40.0618 38.2455 40.0618 38.3595 41.3647ZM36.9243 42.9306C35.9687 43.1554 35.1049 43.4905 34.6774 43.8911L32.8889 41.9824C33.8576 41.0746 35.3224 40.6203 36.3256 40.3844L36.9243 42.9306ZM33.2463 41.7441L36.0881 40.4649L37.1618 42.8501L34.32 44.1293L33.2463 41.7441ZM36.625 41.6575C35.3173 41.6334 35.3173 41.6337 35.3173 41.6339C35.3173 41.6339 35.3173 41.6341 35.3173 41.6342C35.3173 41.6344 35.3173 41.6346 35.3173 41.6346C35.3173 41.6348 35.3173 41.6348 35.3173 41.6346C35.3173 41.6341 35.3174 41.6328 35.3174 41.6307C35.3174 41.6265 35.3175 41.619 35.3176 41.6085C35.3177 41.5874 35.3178 41.5539 35.3175 41.5095C35.3169 41.4205 35.3148 41.288 35.3086 41.1224C35.2961 40.7897 35.2672 40.3313 35.2027 39.8282C35.0645 38.7514 34.7934 37.7382 34.3813 37.1894L36.4729 35.6187C37.3244 36.7525 37.6522 38.366 37.7971 39.4953C37.8741 40.0953 37.9078 40.6347 37.9224 41.0241C37.9298 41.2196 37.9324 41.3792 37.9331 41.4921C37.9335 41.5486 37.9334 41.5935 37.9332 41.6255C37.9331 41.6415 37.933 41.6543 37.9329 41.6637C37.9328 41.6684 37.9327 41.6722 37.9327 41.6752C37.9327 41.6767 37.9327 41.678 37.9326 41.6791C37.9326 41.6796 37.9326 41.6801 37.9326 41.6805C37.9326 41.6807 37.9326 41.681 37.9326 41.6811C37.9326 41.6813 37.9326 41.6816 36.625 41.6575ZM34.3813 37.1894C33.9122 36.5647 32.8538 36.0088 31.6564 35.6004C31.0983 35.4101 30.5777 35.2738 30.1959 35.1852C30.0059 35.1411 29.8526 35.1094 29.7491 35.089C29.6973 35.0789 29.6582 35.0716 29.6333 35.0671C29.6208 35.0648 29.6119 35.0633 29.6068 35.0624C29.6042 35.0619 29.6026 35.0616 29.602 35.0615C29.6017 35.0615 29.6016 35.0615 29.6018 35.0615C29.6018 35.0615 29.602 35.0615 29.6022 35.0616C29.6023 35.0616 29.6025 35.0616 29.6026 35.0616C29.6028 35.0617 29.603 35.0617 29.8196 33.7719C30.0362 32.4821 30.0365 32.4822 30.0367 32.4822C30.0369 32.4822 30.0372 32.4823 30.0374 32.4823C30.0378 32.4824 30.0384 32.4825 30.039 32.4826C30.0401 32.4828 30.0416 32.483 30.0432 32.4833C30.0466 32.4839 30.051 32.4847 30.0563 32.4856C30.067 32.4875 30.0816 32.49 30.1 32.4934C30.1366 32.5 30.1881 32.5096 30.2529 32.5223C30.3822 32.5477 30.5648 32.5856 30.7871 32.6372C31.2297 32.7398 31.8386 32.8989 32.5008 33.1248C33.7441 33.5488 35.4894 34.309 36.4729 35.6187L34.3813 37.1894ZM26.4662 15.6803C26.4211 23.1059 26.371 33.0338 26.3739 40.1532L23.7582 40.1542C23.7553 33.0255 23.8054 23.0902 23.8506 15.6644L26.4662 15.6803ZM26.3739 40.1532C26.3756 44.3569 26.3959 47.5414 26.4446 48.673L23.8313 48.7854C23.7796 47.5841 23.7599 44.3308 23.7582 40.1542L26.3739 40.1532ZM25.066 40.1537C25.6642 38.9906 25.664 38.9905 25.6638 38.9904C25.6637 38.9904 25.6635 38.9903 25.6634 38.9903C25.6632 38.9901 25.663 38.99 25.6628 38.9899C25.6624 38.9897 25.6621 38.9896 25.6619 38.9895C25.6615 38.9893 25.6614 38.9893 25.6617 38.9894C25.6622 38.9897 25.6641 38.9906 25.6673 38.9922C25.6736 38.9953 25.6849 39.001 25.7009 39.0087C25.7329 39.0241 25.7827 39.0476 25.8466 39.0761C25.976 39.1337 26.1556 39.2082 26.3568 39.2769C26.8267 39.4372 27.1606 39.4757 27.2864 39.4517L27.7775 42.0209C26.9314 42.1826 26.0323 41.9299 25.5122 41.7525C25.2184 41.6522 24.9638 41.5463 24.7826 41.4656C24.6913 41.4249 24.6168 41.3899 24.5633 41.364C24.5365 41.3511 24.5148 41.3404 24.4988 41.3324C24.4907 41.3284 24.4841 41.325 24.4789 41.3224C24.4764 41.3211 24.4741 41.32 24.4723 41.319C24.4714 41.3185 24.4705 41.3181 24.4698 41.3177C24.4694 41.3175 24.4691 41.3174 24.4687 41.3172C24.4686 41.3171 24.4684 41.317 24.4683 41.317C24.4681 41.3169 24.4679 41.3167 25.066 40.1537ZM27.2864 39.4517C27.281 39.4527 27.3879 39.4241 27.6115 39.2643C27.8154 39.1187 28.0368 38.9217 28.2522 38.7062C28.4641 38.4941 28.6502 38.2842 28.7841 38.1261C28.8504 38.0477 28.9025 37.9838 28.9369 37.9408C28.9541 37.9193 28.9668 37.9032 28.9745 37.8933C28.9784 37.8883 28.9811 37.8849 28.9824 37.8832C28.9831 37.8823 28.9834 37.8818 28.9835 37.8818C28.9835 37.8818 28.9834 37.8819 28.9833 37.8821C28.9832 37.8822 28.9831 37.8823 28.983 37.8825C28.9829 37.8825 28.9828 37.8827 28.9828 37.8827C28.9827 37.8828 28.9825 37.883 30.0208 38.6783C31.0591 39.4735 31.059 39.4737 31.0588 39.4739C31.0588 39.4739 31.0587 39.4741 31.0586 39.4742C31.0584 39.4745 31.0581 39.4748 31.0579 39.4751C31.0574 39.4758 31.0568 39.4765 31.0561 39.4774C31.0548 39.4792 31.0531 39.4814 31.051 39.484C31.0469 39.4893 31.0415 39.4963 31.0347 39.505C31.0212 39.5223 31.0023 39.5462 30.9786 39.5758C30.9312 39.635 30.864 39.7175 30.7805 39.8161C30.6147 40.0119 30.3791 40.2782 30.1024 40.5551C29.8292 40.8285 29.4952 41.1333 29.1322 41.3926C28.7889 41.6379 28.3174 41.9177 27.7775 42.0209L27.2864 39.4517Z" fill="currentColor"/>
<path d="M19.4121 54.082C19.4121 54.082 22.4593 56.4402 24.5113 56.5406C27.6983 56.6964 30.43 54.082 30.43 54.082" stroke="currentColor" stroke-width="2.61569"/>
</svg>
