<svg width="31" height="14" viewBox="0 0 31 14" fill="none" xmlns="http://www.w3.org/2000/svg">
<path d="M12.6537 12.3483L18.6365 6.36541C18.6365 6.36541 19.0377 6.04134 19.5 6.50365C19.9623 6.96596 19.6382 7.36709 19.6382 7.36709L13.6554 13.35L12.6537 12.3483Z" fill="currentColor"/>
<path d="M18.4099 6.59204L12.4271 12.5749C12.4271 12.5749 12.103 12.976 12.5653 13.4383C13.0276 13.9007 13.4287 13.5766 13.4287 13.5766L19.4116 7.59371L18.4099 6.59204Z" fill="currentColor"/>
<path d="M12.5892 1.59117L18.5721 7.57404C18.5721 7.57404 18.9732 7.89811 19.4355 7.4358C19.8978 6.97349 19.5738 6.57237 19.5738 6.57237L13.5909 0.589498L12.5892 1.59117Z" fill="currentColor"/>
<path d="M18.3455 7.34742L12.3626 1.36455C12.3626 1.36455 12.0385 0.963427 12.5008 0.501115C12.9632 0.0388022 13.3643 0.362874 13.3643 0.362874L19.3471 6.34574L18.3455 7.34742Z" fill="currentColor"/>
<path d="M23.6537 12.3483L29.6365 6.36541C29.6365 6.36541 30.0377 6.04134 30.5 6.50365C30.9623 6.96596 30.6382 7.36709 30.6382 7.36709L24.6554 13.35L23.6537 12.3483Z" fill="currentColor"/>
<path d="M29.4099 6.59204L23.4271 12.5749C23.4271 12.5749 23.103 12.976 23.5653 13.4383C24.0276 13.9007 24.4287 13.5766 24.4287 13.5766L30.4116 7.59371L29.4099 6.59204Z" fill="currentColor"/>
<path d="M23.5892 1.59117L29.5721 7.57404C29.5721 7.57404 29.9732 7.89811 30.4355 7.4358C30.8978 6.97349 30.5738 6.57237 30.5738 6.57237L24.5909 0.589498L23.5892 1.59117Z" fill="currentColor"/>
<path d="M29.3455 7.34742L23.3626 1.36455C23.3626 1.36455 23.0385 0.963427 23.5008 0.501115C23.9632 0.0388022 24.3643 0.362874 24.3643 0.362874L30.3471 6.34574L29.3455 7.34742Z" fill="currentColor"/>
<path d="M0.653675 12.3483L6.63654 6.36541C6.63654 6.36541 7.03767 6.04134 7.49998 6.50365C7.96229 6.96596 7.63822 7.36709 7.63822 7.36709L1.65535 13.35L0.653675 12.3483Z" fill="currentColor"/>
<path d="M6.40992 6.59204L0.427051 12.5749C0.427051 12.5749 0.102979 12.976 0.565292 13.4383C1.0276 13.9007 1.42873 13.5766 1.42873 13.5766L7.41159 7.59371L6.40992 6.59204Z" fill="currentColor"/>
<path d="M0.589222 1.59117L6.57209 7.57404C6.57209 7.57404 6.97321 7.89811 7.43553 7.4358C7.89784 6.97349 7.57377 6.57237 7.57377 6.57237L1.5909 0.589498L0.589222 1.59117Z" fill="currentColor"/>
<path d="M6.34546 7.34742L0.362598 1.36455C0.362598 1.36455 0.038526 0.963427 0.500838 0.501115C0.963151 0.0388022 1.36427 0.362874 1.36427 0.362874L7.34714 6.34574L6.34546 7.34742Z" fill="currentColor"/>
</svg>
