<?xml version="1.0" encoding="UTF-8" standalone="no"?>
<svg
   width="20.83"
   height="19.75"
   viewBox="0 0 20.83 19.75"
   fill="none"
   version="1.1"
   id="svg828"
   sodipodi:docname="warning.svg"
   inkscape:version="1.1.1 (c3084ef, 2021-09-22)"
   xmlns:inkscape="http://www.inkscape.org/namespaces/inkscape"
   xmlns:sodipodi="http://sodipodi.sourceforge.net/DTD/sodipodi-0.dtd"
   xmlns="http://www.w3.org/2000/svg"
   xmlns:svg="http://www.w3.org/2000/svg">
  <defs
     id="defs832" />
  <sodipodi:namedview
     id="namedview830"
     pagecolor="#ffffff"
     bordercolor="#666666"
     borderopacity="1.0"
     inkscape:pageshadow="2"
     inkscape:pageopacity="0.0"
     inkscape:pagecheckerboard="0"
     showgrid="false"
     width="20.83px"
     inkscape:zoom="6.4424786"
     inkscape:cx="-3.3372249"
     inkscape:cy="17.539833"
     inkscape:window-width="1440"
     inkscape:window-height="776"
     inkscape:window-x="0"
     inkscape:window-y="25"
     inkscape:window-maximized="0"
     inkscape:current-layer="svg828" />
  <path
     d="m 10.415912,14.168001 c -0.288001,0 -0.4447011,-0.160999 -0.4701003,-0.4828 L 9.577412,9.0093906 C 9.5604159,8.7468005 9.6282178,8.5265604 9.7807117,8.3486804 9.9416115,8.1708005 10.149112,8.0818605 10.403213,8.0818605 c 0.254198,0 0.4617,0.08894 0.622599,0.2668199 0.161,0.17788 0.228701,0.3981201 0.203299,0.6607102 l -0.355698,4.6758104 c -0.02549,0.321801 -0.1779,0.4828 -0.457501,0.4828 z m -0.0889,2.808 c -0.245601,0 -0.4362009,-0.0636 -0.5718001,-0.1906 C 9.6282141,16.649901 9.5647147,16.4593 9.5647147,16.2136 v -0.215999 c 0,-0.2456 0.063509,-0.432001 0.1905001,-0.559001 0.1355992,-0.135598 0.3261992,-0.2033 0.5718002,-0.2033 h 0.1652 c 0.245599,0 0.431998,0.06769 0.558999,0.2033 0.135601,0.127 0.203301,0.313401 0.203301,0.559001 V 16.2136 c 0,0.2457 -0.06771,0.436301 -0.203301,0.571801 -0.127001,0.127 -0.3134,0.1906 -0.558999,0.1906 z"
     fill="#3e3c43"
     id="path824"
     style="stroke-width:1.00001" />
  <path
     d="M 10.414912,0.87490023 19.954813,18.874902 H 0.8749422 Z"
     stroke="#3e3c43"
     stroke-width="1.75001"
     stroke-linejoin="round"
     id="path826" />
</svg>
