<svg width="24" height="24" viewBox="0 0 24 24" fill="none" xmlns="http://www.w3.org/2000/svg">
<mask id="path-1-inside-1_4795_35510" fill="white">
<path d="M13.5 20H17.5C18.0523 20 18.5 19.5523 18.5 19V13.3673C18.5 12.8696 18.8659 12.4477 19.3586 12.3773L19.8827 12.3025C20.7227 12.1825 21.0409 11.1368 20.4103 10.5692L12.6691 3.60207C12.2888 3.2598 11.7115 3.25979 11.3312 3.60206L3.58977 10.5692C2.9591 11.1368 3.27736 12.1825 4.11731 12.3025L4.64142 12.3773C5.13407 12.4477 5.5 12.8696 5.5 13.3673V19C5.5 19.5523 5.94772 20 6.5 20H10.5839H13.5Z"/>
</mask>
<path d="M3.58977 10.5692L4.25873 11.3125L3.58977 10.5692ZM11.3312 3.60206L10.6622 2.85877L10.6622 2.85877L11.3312 3.60206ZM12.6691 3.60207L13.3381 2.85878L13.3381 2.85878L12.6691 3.60207ZM20.4103 10.5692L19.7413 11.3125L19.7413 11.3125L20.4103 10.5692ZM4.64142 12.3773L4.5 13.3673L4.5 13.3673L4.64142 12.3773ZM4.11731 12.3025L4.25873 11.3125L4.25873 11.3125L4.11731 12.3025ZM19.8827 12.3025L19.7413 11.3125L19.7413 11.3125L19.8827 12.3025ZM19.3586 12.3773L19.5 13.3673L19.5 13.3673L19.3586 12.3773ZM17.5 19H13.5V21H17.5V19ZM10.5839 19H6.5V21H10.5839V19ZM4.25873 11.3125L12.0001 4.34536L10.6622 2.85877L2.92081 9.82593L4.25873 11.3125ZM12.0001 4.34536L19.7413 11.3125L21.0792 9.82594L13.3381 2.85878L12.0001 4.34536ZM6.5 19V13.3673H4.5V19H6.5ZM4.78284 11.3874L4.25873 11.3125L3.97588 13.2924L4.5 13.3673L4.78284 11.3874ZM19.7413 11.3125L19.2172 11.3874L19.5 13.3673L20.0241 13.2924L19.7413 11.3125ZM17.5 13.3673V19H19.5V13.3673H17.5ZM10.5839 21H13.5V19H10.5839V21ZM19.2172 11.3874C18.2319 11.5282 17.5 12.372 17.5 13.3673H19.5L19.5 13.3673L19.2172 11.3874ZM6.5 13.3673C6.5 12.372 5.76814 11.5282 4.78284 11.3874L4.5 13.3673L4.5 13.3673H6.5ZM6.5 19H4.5C4.5 20.1046 5.39543 21 6.5 21V19ZM17.5 21C18.6046 21 19.5 20.1046 19.5 19H17.5V21ZM12.0001 4.34536L12.0001 4.34536L13.3381 2.85878C12.5774 2.17423 11.4228 2.17422 10.6622 2.85877L12.0001 4.34536ZM19.7413 11.3125L19.7413 11.3125L20.0241 13.2924C21.704 13.0524 22.3406 10.9611 21.0792 9.82594L19.7413 11.3125ZM2.92081 9.82593C1.65948 10.9611 2.29599 13.0524 3.97589 13.2924L4.25873 11.3125L4.25873 11.3125L2.92081 9.82593Z" fill="currentColor" mask="url(#path-1-inside-1_4795_35510)"/>
<mask id="path-3-inside-2_4795_35510" fill="white">
<path d="M9.5 14.5C9.5 13.1193 10.6193 12 12 12V12V12C13.3807 12 14.5 13.1193 14.5 14.5V20H12H9.5V14.5Z"/>
</mask>
<path d="M14.5 20V21H15.5V20H14.5ZM9.5 20H8.5V21H9.5V20ZM13.5 14.5V20H15.5V14.5H13.5ZM10.5 20V14.5H8.5V20H10.5ZM14.5 19H12V21H14.5V19ZM12 19H9.5V21H12V19ZM15.5 14.5C15.5 12.567 13.933 11 12 11V13C12.8284 13 13.5 13.6716 13.5 14.5H15.5ZM10.5 14.5C10.5 13.6716 11.1716 13 12 13V11C10.067 11 8.5 12.567 8.5 14.5H10.5Z" fill="currentColor" mask="url(#path-3-inside-2_4795_35510)"/>
</svg>
