<svg width="24" height="24" viewBox="0 0 24 24" fill="none" xmlns="http://www.w3.org/2000/svg">
<path d="M4 19.9998V20.4998C3.72386 20.4998 3.5 20.2759 3.5 19.9998H4ZM8.7654 19.4998C9.04155 19.4998 9.2654 19.7236 9.2654 19.9998C9.2654 20.2759 9.04155 20.4998 8.7654 20.4998V19.4998ZM3.5 15.2344C3.5 14.9582 3.72386 14.7344 4 14.7344C4.27614 14.7344 4.5 14.9582 4.5 15.2344H3.5ZM4 19.4998H8.7654V20.4998H4V19.4998ZM4.5 15.2344V19.9998H3.5V15.2344H4.5Z" fill="currentColor"/>
<path d="M13.9515 13.2146C14.0701 12.9653 13.9642 12.6669 13.7149 12.5483C13.4655 12.4296 13.1672 12.5355 13.0485 12.7849L13.9515 13.2146ZM10.9514 12.7849C10.8327 12.5355 10.5344 12.4296 10.2851 12.5483C10.0357 12.667 9.9298 12.9653 10.0485 13.2146L10.9514 12.7849ZM13.5 12.9998C13.0485 12.7849 13.0486 12.7847 13.0487 12.7845C13.0487 12.7845 13.0488 12.7843 13.0488 12.7842C13.049 12.784 13.0491 12.7838 13.0491 12.7836C13.0493 12.7832 13.0495 12.7829 13.0496 12.7826C13.0499 12.7821 13.05 12.7818 13.05 12.7817C13.0501 12.7816 13.0498 12.7823 13.049 12.7838C13.0474 12.7869 13.0442 12.7931 13.0393 12.8021C13.0294 12.8201 13.0129 12.8488 12.9898 12.8845C12.943 12.9568 12.8723 13.0532 12.7783 13.1484C12.5894 13.3396 12.3348 13.4998 12 13.4998L12 14.4998C12.6893 14.4998 13.1847 14.16 13.4897 13.8512C13.6427 13.6963 13.755 13.5427 13.8295 13.4275C13.867 13.3695 13.8957 13.32 13.9158 13.2834C13.9259 13.265 13.9339 13.2498 13.9398 13.2382C13.9428 13.2324 13.9452 13.2275 13.9472 13.2235C13.9481 13.2215 13.949 13.2198 13.9497 13.2183C13.9501 13.2176 13.9504 13.2169 13.9507 13.2163C13.9508 13.216 13.951 13.2157 13.9511 13.2154C13.9512 13.2153 13.9513 13.2151 13.9513 13.215C13.9514 13.2148 13.9515 13.2146 13.5 12.9998ZM12 13.4998C11.6652 13.4998 11.4105 13.3396 11.2216 13.1483C11.1276 13.0532 11.0569 12.9568 11.0102 12.8845C10.9871 12.8488 10.9706 12.8201 10.9607 12.8021C10.9557 12.7931 10.9525 12.7868 10.9509 12.7838C10.9502 12.7823 10.9498 12.7816 10.9499 12.7817C10.9499 12.7818 10.9501 12.7821 10.9503 12.7826C10.9505 12.7829 10.9506 12.7832 10.9508 12.7836C10.9509 12.7838 10.951 12.784 10.9511 12.7842C10.9511 12.7843 10.9512 12.7845 10.9513 12.7845C10.9513 12.7847 10.9514 12.7849 10.5 12.9998C10.0485 13.2146 10.0486 13.2148 10.0487 13.215C10.0487 13.2151 10.0488 13.2153 10.0489 13.2154C10.049 13.2157 10.0491 13.216 10.0493 13.2163C10.0496 13.2169 10.0499 13.2176 10.0503 13.2183C10.051 13.2198 10.0518 13.2216 10.0528 13.2235C10.0547 13.2275 10.0572 13.2324 10.0601 13.2382C10.0661 13.2498 10.074 13.265 10.0841 13.2834C10.1042 13.32 10.1329 13.3695 10.1705 13.4275C10.2449 13.5427 10.3572 13.6963 10.5103 13.8512C10.8153 14.16 11.3107 14.4998 12 14.4998L12 13.4998Z" fill="currentColor"/>
<circle cx="10.5" cy="10.5" r="0.5" fill="currentColor"/>
<circle r="0.5" transform="matrix(-1 0 0 1 13.5 10.5)" fill="currentColor"/>
<path d="M4 3.99976V3.49976C3.72386 3.49976 3.5 3.72361 3.5 3.99976H4ZM8.7654 4.49976C9.04155 4.49976 9.2654 4.2759 9.2654 3.99976C9.2654 3.72361 9.04155 3.49976 8.7654 3.49976V4.49976ZM3.5 8.76516C3.5 9.0413 3.72386 9.26516 4 9.26516C4.27614 9.26516 4.5 9.0413 4.5 8.76516H3.5ZM4 4.49976H8.7654V3.49976H4V4.49976ZM4.5 8.76516V3.99976H3.5V8.76516H4.5Z" fill="currentColor"/>
<path d="M20 3.99976V3.49976C20.2761 3.49976 20.5 3.72361 20.5 3.99976H20ZM15.2346 4.49976C14.9585 4.49976 14.7346 4.2759 14.7346 3.99976C14.7346 3.72361 14.9585 3.49976 15.2346 3.49976V4.49976ZM20.5 8.76516C20.5 9.0413 20.2761 9.26516 20 9.26516C19.7239 9.26516 19.5 9.0413 19.5 8.76516H20.5ZM20 4.49976H15.2346V3.49976H20V4.49976ZM19.5 8.76516V3.99976H20.5V8.76516H19.5Z" fill="currentColor"/>
<path d="M20 19.9998V20.4998C20.2761 20.4998 20.5 20.2759 20.5 19.9998H20ZM15.2346 19.4998C14.9585 19.4998 14.7346 19.7236 14.7346 19.9998C14.7346 20.2759 14.9585 20.4998 15.2346 20.4998V19.4998ZM20.5 15.2344C20.5 14.9582 20.2761 14.7344 20 14.7344C19.7239 14.7344 19.5 14.9582 19.5 15.2344H20.5ZM20 19.4998H15.2346V20.4998H20V19.4998ZM19.5 15.2344V19.9998H20.5V15.2344H19.5Z" fill="currentColor"/>
<circle cx="12" cy="11.9998" r="4.5" stroke="currentColor"/>
</svg>
