<svg width="71" height="50" viewBox="0 0 71 50" fill="none" xmlns="http://www.w3.org/2000/svg">
<path d="M10.1538 34.8069C6.36234 34.1347 4.28532 33.6581 3.19597 33.3217C2.11164 32.987 2.83922 31.7621 3.03734 30.6447L7.30291 6.5859C7.6285 4.74949 9.84513 3.83086 11.4743 4.73872C14.6298 6.49718 19.8003 8.86075 26.3774 10.0268C30.9637 10.84 42.3392 9.74861 48.9134 9.80432C55.8178 9.86281 61.8985 12.2044 64.7208 13.4878C65.7274 13.9456 66.2232 15.0509 65.9763 16.1288L65.8686 16.5985" stroke="currentColor" stroke-width="2.61569" stroke-linecap="round" stroke-linejoin="round"/>
<path d="M28.5389 21.2199C28.9719 18.7774 32.7531 15.876 36.6396 16.565C38.1915 16.8402 39.529 17.6427 40.5279 18.7774" stroke="currentColor" stroke-width="2.61569"/>
<path d="M10.9368 19.8449C10.9368 18.9834 11.9721 18.1871 12.9828 18.5398C16.5902 19.7984 22.4604 21.3381 29.6049 21.3381C32.1754 21.3381 36.3637 20.5102 40.5924 19.5903C41.7387 19.3409 42.8941 19.0833 44.0348 18.829C47.1881 18.1258 50.2284 17.4479 52.652 17.0394C59.521 15.8814 66.0066 17.1773 68.9574 17.9476C69.3621 18.0533 69.6759 18.4348 69.6759 18.9481V43.5936C69.6759 44.3962 68.822 45.0954 67.917 44.8601C64.7 44.0235 59.5496 42.9787 53.8614 42.9788C49.393 42.9789 44.1129 44.2164 39.4143 45.4029C38.8473 45.5461 38.2891 45.6885 37.7408 45.8283C35.9868 46.2758 34.3355 46.6971 32.8284 47.0336C30.835 47.4788 29.2122 47.7472 28.0372 47.7472C20.0026 47.7472 14.3712 46.8334 11.7154 46.2851L11.451 47.5659L11.7154 46.2851C11.2784 46.1948 10.9368 45.7989 10.9368 45.2657V19.8449Z" stroke="currentColor" stroke-width="2.61569" stroke-linecap="round" stroke-linejoin="round"/>
<path d="M46.0052 32.1627C46.0052 35.8557 43.2862 38.6512 40.1663 38.6512C37.0463 38.6512 34.3274 35.8557 34.3274 32.1627C34.3274 28.4697 37.0463 25.6741 40.1663 25.6741C43.2862 25.6741 46.0052 28.4697 46.0052 32.1627Z" stroke="currentColor" stroke-width="2.61569"/>
<path d="M53.8086 29.9976C53.8086 29.9976 55.7277 29.5645 57.9234 29.5645C60.1191 29.5645 62.4713 29.9976 62.4713 29.9976" stroke="currentColor" stroke-width="2.61569" stroke-linecap="round"/>
<path d="M17.8555 33.0275C17.8555 33.0275 19.7746 34.1104 21.9703 34.1104C24.166 34.1104 26.3016 33.8938 26.3016 33.8938" stroke="currentColor" stroke-width="2.61569" stroke-linecap="round"/>
</svg>
