<svg width="55" height="53" viewBox="0 0 55 53" fill="none" xmlns="http://www.w3.org/2000/svg">
<circle cx="27.3572" cy="26.3572" r="25.0494" stroke="currentColor" stroke-width="2.61569"/>
<path d="M2.55222 27.9065C4.10251 23.2553 10.3043 18.604 16.5043 18.6041C21.1573 18.6042 24.0163 22.3084 24.2587 26.3564C24.6035 32.1128 27.2818 34.2276 32.0083 34.1083C35.5386 34.0193 38.8157 28.8536 41.3127 26.3564C45.9637 21.7049 52.1649 24.8057 52.1649 24.8057" stroke="currentColor" stroke-width="2.61569" stroke-linecap="round"/>
<path d="M3.38415 31.584C6.48503 26.9326 8.75378 23.2535 14.9538 23.2536C19.6068 23.2537 19.605 27.9048 21.1555 33.1342C22.7947 38.6631 25.7334 41.9776 30.4599 41.8584C33.9902 41.7693 40.3644 35.0531 42.8614 32.5559C47.5124 27.9044 52.1649 29.455 52.1649 29.455" stroke="currentColor" stroke-width="2.61569" stroke-linecap="round"/>
</svg>
