<svg width="29" height="45" viewBox="0 0 29 45" fill="none" xmlns="http://www.w3.org/2000/svg">
<path fill-rule="evenodd" clip-rule="evenodd" d="M25.0417 1.42293C24.9551 1.46032 24.8753 1.49484 24.8033 1.52363C23.3824 2.092 19.7443 3.9858 17.2719 6.44798C14.6148 9.09418 14.1976 9.76374 12.2221 12.9345L12.2027 12.9655C8.42387 19.0305 7.24486 22.6181 5.46117 28.0458C5.05671 29.2765 4.62115 30.6019 4.11714 32.0722C3.91028 32.6757 3.70368 33.2761 3.50157 33.8635C2.4914 36.7992 1.59333 39.4092 1.33584 40.4425C1.08407 41.4529 1.05296 43.0571 2.26288 43.5426C3.80804 44.1626 4.72017 43.6713 5.35337 42.6126C6.28044 41.0625 9.98907 31.1422 9.98907 31.1422C10.9922 33.0541 12.069 35.2508 13.0292 37.21C14.3797 39.965 15.4998 42.2502 15.861 42.6126C16.479 43.2326 17.7439 43.6071 18.6424 43.2326C19.6012 42.833 20.1638 41.4439 19.8786 40.4425C19.2604 38.2724 14.3158 28.0421 14.3158 28.0421C14.3158 28.0421 25.093 29.7018 26.3965 26.8696C27.5064 24.458 26.2578 23.108 24.9085 21.6491C24.6731 21.3947 24.4348 21.137 24.2053 20.8698C23.4891 20.0357 23.1321 19.6827 22.7272 19.2824C22.2584 18.8189 21.7254 18.292 20.4967 16.8817C19.4164 15.6418 17.2719 13.4 17.2719 13.4C17.2719 13.4 19.2265 10.4701 20.4967 9.19985C21.6554 8.04118 23.886 6.44799 25.2378 5.57898C25.3563 5.50279 25.4847 5.42215 25.6195 5.33744C27.0224 4.456 29.1255 3.13463 28.1345 1.81328C27.1562 0.508904 25.8255 1.08411 25.0417 1.42293ZM15.9684 25.2099L18.6424 20.9119C18.6424 20.9119 22.034 24.1178 21.9066 24.6971C21.7155 25.5661 15.9684 25.2099 15.9684 25.2099Z" fill="#4B54B9"/>
<path d="M28.1345 1.81328L27.7345 2.11328V2.11328L28.1345 1.81328ZM24.8033 1.52363L24.6176 1.05939V1.05939L24.8033 1.52363ZM17.2719 6.44798L17.6248 6.80226L17.2719 6.44798ZM12.2027 12.9655L12.6271 13.2299L12.2027 12.9655ZM4.11714 32.0722L3.64416 31.9101L4.11714 32.0722ZM1.33584 40.4425L0.850676 40.3216L1.33584 40.4425ZM2.26288 43.5426L2.07668 44.0066H2.07668L2.26288 43.5426ZM5.35337 42.6126L4.92426 42.3559L5.35337 42.6126ZM9.98907 31.1422L10.4318 30.9099C10.3402 30.7353 10.1545 30.6308 9.95773 30.6432C9.76093 30.6555 9.58978 30.7824 9.52073 30.9671L9.98907 31.1422ZM15.861 42.6126L16.2151 42.2596L15.861 42.6126ZM18.6424 43.2326L18.4501 42.7711L18.6424 43.2326ZM19.8786 40.4425L19.3977 40.5795L19.8786 40.4425ZM14.3158 28.0421L13.8839 27.7901C13.8 27.9338 13.7932 28.1099 13.8656 28.2597L14.3158 28.0421ZM26.3965 26.8696L25.9423 26.6606L26.3965 26.8696ZM24.2053 20.8698L24.5847 20.544H24.5847L24.2053 20.8698ZM20.4967 16.8817L20.8737 16.5533H20.8737L20.4967 16.8817ZM17.2719 13.4L16.856 13.1226C16.726 13.3174 16.7487 13.5764 16.9106 13.7457L17.2719 13.4ZM20.4967 9.19985L20.1431 8.84629L20.4967 9.19985ZM25.2378 5.57898L25.5082 5.99957V5.99957L25.2378 5.57898ZM18.6424 20.9119L18.9859 20.5485C18.8768 20.4454 18.7272 20.3968 18.5784 20.416C18.4295 20.4352 18.2972 20.5203 18.2179 20.6477L18.6424 20.9119ZM15.9684 25.2099L15.5439 24.9458C15.5414 24.9498 15.5389 24.9538 15.5366 24.9579L15.9684 25.2099ZM21.9066 24.6971L22.395 24.8045L21.9066 24.6971ZM12.2221 12.9345L11.7977 12.6701L12.2221 12.9345ZM25.0417 1.42293L24.8433 0.963971L24.8433 0.963971L25.0417 1.42293ZM5.46117 28.0458L4.98616 27.8897L5.46117 28.0458ZM3.50157 33.8635L3.97437 34.0262L3.50157 33.8635ZM13.0292 37.21L12.5803 37.43L13.0292 37.21ZM24.9085 21.6491L25.2755 21.3096L24.9085 21.6491ZM22.7272 19.2824L23.0787 18.9268H23.0787L22.7272 19.2824ZM25.6195 5.33744L25.3535 4.91407V4.91407L25.6195 5.33744ZM24.6176 1.05939C23.1573 1.64352 19.4542 3.56907 16.9191 6.0937L17.6248 6.80226C20.0344 4.40252 23.6074 2.54049 24.989 1.98787L24.6176 1.05939ZM0.850676 40.3216C0.713841 40.8707 0.630243 41.6013 0.760055 42.2829C0.89168 42.9741 1.26113 43.6794 2.07668 44.0066L2.44908 43.0786C2.05471 42.9203 1.83476 42.5808 1.7424 42.0958C1.64823 41.6014 1.70607 41.0246 1.821 40.5634L0.850676 40.3216ZM2.07668 44.0066C2.92081 44.3454 3.66623 44.4095 4.31743 44.1783C4.96615 43.9479 5.43149 43.4561 5.78248 42.8692L4.92426 42.3559C4.64205 42.8278 4.33473 43.111 3.98279 43.236C3.63334 43.36 3.15012 43.3599 2.44908 43.0786L2.07668 44.0066ZM5.78248 42.8692C6.03674 42.4441 6.45673 41.4961 6.93038 40.3586C7.41056 39.2055 7.96262 37.8161 8.48468 36.4778C9.00694 35.139 9.50007 33.849 9.86258 32.8939C10.0438 32.4163 10.1925 32.0223 10.2959 31.7476C10.3475 31.6103 10.3879 31.5028 10.4154 31.4295C10.4291 31.3929 10.4396 31.3649 10.4467 31.346C10.4502 31.3366 10.4529 31.3294 10.4547 31.3246C10.4556 31.3222 10.4563 31.3204 10.4567 31.3191C10.4569 31.3185 10.4571 31.3181 10.4572 31.3178C10.4573 31.3176 10.4573 31.3175 10.4574 31.3174C10.4574 31.3173 10.4574 31.3173 9.98907 31.1422C9.52073 30.9671 9.52072 30.9671 9.52069 30.9672C9.52066 30.9673 9.52063 30.9674 9.52057 30.9675C9.52046 30.9678 9.5203 30.9683 9.52007 30.9689C9.51963 30.97 9.51897 30.9718 9.51808 30.9742C9.51631 30.9789 9.51366 30.986 9.51015 30.9954C9.50313 31.0141 9.49269 31.042 9.47903 31.0784C9.45171 31.1513 9.41148 31.2584 9.35994 31.3954C9.25687 31.6693 9.10854 32.0624 8.92765 32.5391C8.56582 33.4924 8.07384 34.7794 7.55306 36.1144C7.03208 37.45 6.48316 38.8313 6.00723 39.9742C5.52477 41.1328 5.13354 42.006 4.92426 42.3559L5.78248 42.8692ZM15.5068 42.9656C15.8928 43.3527 16.451 43.6395 17.0272 43.7811C17.6032 43.9227 18.2591 43.934 18.8348 43.6941L18.4501 42.7711C18.1272 42.9056 17.7014 42.917 17.2658 42.81C16.8305 42.703 16.4472 42.4925 16.2151 42.2596L15.5068 42.9656ZM18.8348 43.6941C19.468 43.4302 19.9268 42.8638 20.1863 42.2609C20.4464 41.6565 20.54 40.9394 20.3595 40.3055L19.3977 40.5795C19.5024 40.9469 19.4573 41.4252 19.2678 41.8655C19.0776 42.3074 18.7756 42.6354 18.4501 42.7711L18.8348 43.6941ZM20.3595 40.3055C20.1941 39.725 19.7545 38.6471 19.207 37.3898C18.6542 36.1203 17.9763 34.6339 17.3189 33.218C16.6612 31.8016 16.0231 30.4533 15.5494 29.4594C15.3125 28.9624 15.1167 28.5538 14.9801 28.2694C14.9118 28.1272 14.8583 28.0161 14.8219 27.9404C14.8036 27.9026 14.7897 27.8737 14.7803 27.8542C14.7755 27.8444 14.772 27.837 14.7696 27.8321C14.7684 27.8296 14.7675 27.8277 14.7669 27.8264C14.7666 27.8258 14.7663 27.8253 14.7662 27.825C14.7661 27.8248 14.766 27.8247 14.766 27.8246C14.766 27.8246 14.7659 27.8245 14.3158 28.0421C13.8656 28.2597 13.8656 28.2597 13.8656 28.2598C13.8657 28.2599 13.8657 28.26 13.8658 28.2601C13.8659 28.2604 13.8662 28.2609 13.8665 28.2615C13.867 28.2627 13.8679 28.2645 13.8691 28.267C13.8715 28.2719 13.875 28.2792 13.8797 28.2888C13.889 28.3082 13.9029 28.337 13.921 28.3746C13.9573 28.4499 14.0106 28.5606 14.0787 28.7024C14.215 28.986 14.4103 29.3936 14.6467 29.8896C15.1194 30.8816 15.7561 32.2267 16.4119 33.6391C17.0679 35.052 17.742 36.5301 18.2902 37.7891C18.8437 39.0604 19.254 40.075 19.3977 40.5795L20.3595 40.3055ZM14.3158 28.0421C14.2397 28.5363 14.2398 28.5363 14.2399 28.5363C14.24 28.5363 14.2402 28.5364 14.2404 28.5364C14.2408 28.5364 14.2414 28.5365 14.2422 28.5367C14.2436 28.5369 14.2458 28.5372 14.2486 28.5376C14.2541 28.5385 14.2622 28.5397 14.2728 28.5413C14.294 28.5444 14.3251 28.549 14.3655 28.5549C14.4464 28.5666 14.5645 28.5833 14.7149 28.6034C15.0158 28.6438 15.4462 28.6981 15.9664 28.7543C17.0056 28.8666 18.4088 28.987 19.8567 29.0178C21.2989 29.0486 22.8113 28.9912 24.0586 28.7376C24.6822 28.6108 25.2619 28.4307 25.74 28.1735C26.218 27.9163 26.6274 27.5637 26.8507 27.0787L25.9423 26.6606C25.8397 26.8836 25.6271 27.0987 25.2662 27.2928C24.9055 27.4869 24.4294 27.6418 23.8593 27.7577C22.7193 27.9894 21.293 28.0482 19.878 28.018C18.4685 27.988 17.096 27.8705 16.0738 27.7601C15.5633 27.7049 15.1415 27.6517 14.8478 27.6123C14.701 27.5926 14.5864 27.5764 14.5087 27.5652C14.4699 27.5596 14.4403 27.5552 14.4206 27.5523C14.4108 27.5508 14.4034 27.5497 14.3986 27.5489C14.3962 27.5486 14.3944 27.5483 14.3933 27.5481C14.3927 27.5481 14.3923 27.548 14.3921 27.548C14.392 27.5479 14.3919 27.5479 14.3919 27.5479C14.3918 27.5479 14.3919 27.5479 14.3158 28.0421ZM20.8737 16.5533C20.3269 15.9257 19.5151 15.0493 18.8439 14.3338C18.5075 13.9752 18.2049 13.6555 17.9865 13.4254C17.8773 13.3104 17.789 13.2177 17.7281 13.1538C17.6976 13.1218 17.6739 13.097 17.6579 13.0802C17.6498 13.0718 17.6437 13.0654 17.6396 13.061C17.6375 13.0589 17.6359 13.0572 17.6349 13.0561C17.6343 13.0556 17.6339 13.0551 17.6337 13.0549C17.6335 13.0547 17.6334 13.0546 17.6333 13.0545C17.6333 13.0545 17.6333 13.0545 17.6333 13.0544C17.6332 13.0544 17.6332 13.0544 17.2719 13.4C16.9106 13.7457 16.9106 13.7457 16.9106 13.7457C16.9107 13.7457 16.9107 13.7457 16.9107 13.7458C16.9108 13.7458 16.9109 13.7459 16.911 13.746C16.9112 13.7463 16.9116 13.7467 16.9121 13.7472C16.9131 13.7483 16.9146 13.7499 16.9167 13.752C16.9207 13.7562 16.9268 13.7625 16.9347 13.7709C16.9506 13.7875 16.974 13.8121 17.0043 13.8438C17.0648 13.9073 17.1526 13.9995 17.2613 14.114C17.4787 14.343 17.7798 14.6612 18.1146 15.018C18.7857 15.7334 19.5862 16.5979 20.1197 17.2102L20.8737 16.5533ZM17.2719 13.4C17.6879 13.6775 17.6879 13.6775 17.6879 13.6775C17.6879 13.6775 17.6879 13.6775 17.6879 13.6775C17.6879 13.6774 17.688 13.6773 17.6881 13.6771C17.6883 13.6768 17.6886 13.6764 17.6891 13.6757C17.6899 13.6744 17.6913 13.6724 17.6931 13.6697C17.6967 13.6644 17.7021 13.6563 17.7092 13.6457C17.7235 13.6244 17.7448 13.5928 17.7724 13.552C17.8276 13.4704 17.9081 13.3522 18.0088 13.2062C18.2102 12.9141 18.4918 12.5116 18.8125 12.0701C19.4603 11.1784 20.246 10.1576 20.8502 9.5534L20.1431 8.84629C19.4771 9.51231 18.6505 10.5916 18.0034 11.4824C17.6767 11.9322 17.3903 12.3416 17.1855 12.6386C17.0831 12.7871 17.001 12.9077 16.9444 12.9913C16.9161 13.0332 16.8941 13.0658 16.8792 13.088C16.8717 13.0991 16.866 13.1077 16.8621 13.1135C16.8601 13.1164 16.8586 13.1186 16.8576 13.1201C16.8571 13.1209 16.8567 13.1215 16.8564 13.1219C16.8563 13.1221 16.8562 13.1222 16.8561 13.1224C16.8561 13.1224 16.8561 13.1225 16.856 13.1225C16.856 13.1225 16.856 13.1226 17.2719 13.4ZM20.8502 9.5534C21.9694 8.43426 24.1626 6.86461 25.5082 5.99957L24.9674 5.15839C23.6095 6.03137 21.3413 7.6481 20.1431 8.84629L20.8502 9.5534ZM18.2179 20.6477L15.5439 24.9458L16.393 25.474L19.067 21.176L18.2179 20.6477ZM15.9684 25.2099C15.9375 25.709 15.9375 25.709 15.9376 25.709C15.9377 25.709 15.9378 25.709 15.9379 25.709C15.9381 25.709 15.9384 25.709 15.9388 25.709C15.9396 25.7091 15.9408 25.7092 15.9423 25.7092C15.9452 25.7094 15.9496 25.7097 15.9552 25.71C15.9665 25.7107 15.9831 25.7117 16.0046 25.7129C16.0477 25.7153 16.1104 25.7188 16.1902 25.7229C16.3498 25.731 16.5775 25.7416 16.8511 25.7517C17.3976 25.7716 18.131 25.7893 18.8725 25.7793C19.6093 25.7695 20.3741 25.7322 20.9757 25.6378C21.2732 25.5911 21.5594 25.5262 21.7896 25.4299C21.9822 25.3493 22.3137 25.174 22.395 24.8045L21.4183 24.5897C21.4518 24.4375 21.5618 24.4412 21.4036 24.5074C21.2829 24.5579 21.0888 24.6078 20.8206 24.6499C20.2908 24.7331 19.583 24.7697 18.8591 24.7794C18.1401 24.7891 17.4247 24.772 16.8877 24.7523C16.6195 24.7425 16.3967 24.7321 16.2412 24.7242C16.1635 24.7202 16.1026 24.7168 16.0614 24.7145C16.0408 24.7133 16.0251 24.7124 16.0146 24.7118C16.0094 24.7115 16.0055 24.7112 16.0029 24.7111C16.0016 24.711 16.0007 24.7109 16.0001 24.7109C15.9998 24.7109 15.9996 24.7109 15.9995 24.7109C15.9994 24.7109 15.9994 24.7109 15.9993 24.7109C15.9993 24.7109 15.9993 24.7109 15.9684 25.2099ZM22.395 24.8045C22.4308 24.6417 22.3957 24.495 22.3668 24.4056C22.3349 24.3067 22.2879 24.2104 22.2387 24.1229C22.1398 23.9472 21.9998 23.7514 21.8436 23.5524C21.5287 23.1515 21.1038 22.6829 20.6845 22.2425C20.2631 21.7999 19.8387 21.3767 19.5203 21.0647C19.361 20.9085 19.2277 20.7799 19.1342 20.6901C19.0874 20.6452 19.0506 20.61 19.0253 20.5859C19.0126 20.5739 19.0029 20.5646 18.9963 20.5583C18.993 20.5552 18.9904 20.5528 18.9887 20.5511C18.9878 20.5503 18.9871 20.5497 18.9867 20.5492C18.9865 20.549 18.9863 20.5488 18.9861 20.5487C18.9861 20.5487 18.986 20.5486 18.986 20.5486C18.9859 20.5485 18.9859 20.5485 18.6424 20.9119C18.299 21.2752 18.299 21.2752 18.299 21.2752C18.299 21.2752 18.299 21.2753 18.2991 21.2753C18.2991 21.2754 18.2993 21.2755 18.2994 21.2757C18.2998 21.276 18.3004 21.2765 18.3011 21.2773C18.3026 21.2787 18.305 21.2809 18.3081 21.2838C18.3143 21.2897 18.3235 21.2985 18.3357 21.3101C18.3601 21.3333 18.3959 21.3675 18.4417 21.4114C18.5331 21.4992 18.6639 21.6255 18.8205 21.779C19.134 22.0862 19.5496 22.5007 19.9602 22.932C20.3728 23.3654 20.7719 23.8069 21.0571 24.1701C21.2009 24.3532 21.305 24.5028 21.3672 24.6134C21.3985 24.669 21.4113 24.701 21.4151 24.7126C21.422 24.7338 21.3984 24.6801 21.4183 24.5897L22.395 24.8045ZM15.5366 24.9579L13.8839 27.7901L14.7476 28.2941L16.4003 25.4619L15.5366 24.9579ZM12.6271 13.2299L12.6464 13.1989L11.7977 12.6701L11.7784 12.7011L12.6271 13.2299ZM12.6464 13.1989C13.6382 11.6072 14.2229 10.6697 14.8887 9.79807C15.5511 8.93107 16.3003 8.12124 17.6248 6.80226L16.9191 6.0937C15.5864 7.42092 14.7985 8.26897 14.0941 9.19099C13.3932 10.1084 12.7815 11.0911 11.7977 12.6701L12.6464 13.1989ZM24.8433 0.963971C24.755 1.00211 24.6819 1.03366 24.6176 1.05939L24.989 1.98787C25.0686 1.95602 25.1552 1.91854 25.24 1.88189L24.8433 0.963971ZM11.7784 12.7011C7.96746 18.8175 6.77365 22.4505 4.98616 27.8897L5.93618 28.2019C7.71608 22.7858 8.88028 19.2435 12.6271 13.2299L11.7784 12.7011ZM4.98616 27.8897C4.58163 29.1206 4.147 30.4432 3.64416 31.9101L4.59012 32.2344C5.0953 30.7606 5.53178 29.4324 5.93618 28.2019L4.98616 27.8897ZM3.64416 31.9101C3.43741 32.5132 3.23091 33.1134 3.02878 33.7008L3.97437 34.0262C4.17646 33.4388 4.38316 32.8381 4.59012 32.2344L3.64416 31.9101ZM3.02878 33.7008C2.02414 36.6204 1.11502 39.2608 0.850676 40.3216L1.821 40.5634C2.07163 39.5576 2.95866 36.978 3.97437 34.0262L3.02878 33.7008ZM9.54632 31.3745C10.5457 33.2792 11.6193 35.4695 12.5803 37.43L13.4782 36.9899C12.5186 35.0322 11.4388 32.829 10.4318 30.9099L9.54632 31.3745ZM12.5803 37.43C13.2547 38.806 13.8747 40.0709 14.3714 41.0371C14.6195 41.5199 14.8397 41.9336 15.0224 42.2519C15.1925 42.5483 15.3616 42.8199 15.5068 42.9656L16.2151 42.2596C16.2152 42.2597 16.2123 42.2568 16.2062 42.2496C16.2002 42.2425 16.1923 42.2328 16.1825 42.2198C16.1625 42.1936 16.1378 42.1586 16.108 42.1135C16.0482 42.0232 15.9754 41.9034 15.8897 41.7541C15.7185 41.4559 15.5065 41.0581 15.2607 40.58C14.7694 39.6242 14.1542 38.369 13.4782 36.9899L12.5803 37.43ZM26.8507 27.0787C27.4584 25.7584 27.4371 24.6722 27.0363 23.7098C26.6536 22.7911 25.9354 22.0231 25.2755 21.3096L24.5414 21.9886C25.2308 22.734 25.8116 23.3705 26.1131 24.0943C26.3965 24.7746 26.4446 25.5692 25.9423 26.6606L26.8507 27.0787ZM25.2755 21.3096C25.0392 21.0541 24.8071 20.8031 24.5847 20.544L23.826 21.1955C24.0624 21.4709 24.3071 21.7353 24.5414 21.9886L25.2755 21.3096ZM24.5847 20.544C23.8568 19.6963 23.4896 19.333 23.0787 18.9268L22.3756 19.638C22.7747 20.0324 23.1215 20.3751 23.826 21.1955L24.5847 20.544ZM23.0787 18.9268C22.6174 18.4708 22.0931 17.9529 20.8737 16.5533L20.1197 17.2102C21.3577 18.6311 21.8993 19.1671 22.3756 19.638L23.0787 18.9268ZM25.5082 5.99957C25.6241 5.92505 25.7502 5.84584 25.8855 5.76081L25.3535 4.91407C25.2192 4.99845 25.0885 5.08054 24.9674 5.15839L25.5082 5.99957ZM25.8855 5.76081C26.5722 5.32939 27.5077 4.74521 28.1367 4.08528C28.4524 3.75399 28.7328 3.36183 28.8424 2.91708C28.9592 2.44329 28.8693 1.95968 28.5345 1.51328L27.7345 2.11328C27.8952 2.32756 27.9141 2.50462 27.8714 2.67777C27.8216 2.87994 27.6743 3.12097 27.4128 3.39537C26.8872 3.94682 26.0698 4.46405 25.3535 4.91407L25.8855 5.76081ZM28.5345 1.51328C27.9385 0.718667 27.1981 0.47293 26.4943 0.502341C25.8345 0.529911 25.2229 0.799862 24.8433 0.963971L25.24 1.88189C25.6442 1.70717 26.0899 1.52011 26.536 1.50147C26.9381 1.48467 27.3522 1.60352 27.7345 2.11328L28.5345 1.51328ZM11.7977 12.6701C11.7911 12.6806 11.7849 12.6906 11.7784 12.7011L12.6271 13.2299C12.6334 13.2198 12.6401 13.209 12.6464 13.1989L11.7977 12.6701Z" fill="#4B54B9"/>
<circle cx="24.8453" cy="13.0738" r="3.47031" fill="#4B54B9" stroke="#4B54B9"/>
</svg>
