<svg width="24" height="24" fill="none" xmlns="http://www.w3.org/2000/svg">
  <path d="m14.002 9.913.5-.006-.5.006Zm1.102 9.775.495.074a.506.506 0 0 0 .005-.074h-.5ZM6.051 3.972l-.353-.354.353.354Zm1.766.36.385-.32-.014-.017-.016-.016-.355.352ZM9.71 9.206l-.356.35.356-.35ZM6.4 5.741l-.37.336.37-.336Zm11.55-1.769.352-.354-.352.354Zm-1.767.36-.354-.353-.016.016-.015.017.385.32ZM14.29 9.206l-.357-.35.357.35Zm3.312-3.466-.37-.336.37.336ZM12 14.5l.49-.099a.5.5 0 0 0-.98.002l.49.097Zm1.072 5.322-.49.099.008.039.014.037.469-.175ZM9.998 9.913l.5.006v-.002l-.5-.004Zm4.149 10.629-.011.5.01-.5Zm-5.249-.767h-.5a.5.5 0 0 0 .006.074l.494-.074Zm2.032.134.468.176.014-.039.008-.04-.49-.097Zm-1.074.72-.01-.5.01.5Zm3.646-10.71c.027 2.424.306 4.53.577 6.207.068.418.135.81.197 1.173.063.364.12.696.17.999.1.614.158 1.071.158 1.39h1c0-.41-.072-.942-.171-1.55-.05-.31-.109-.647-.171-1.008-.063-.363-.129-.75-.196-1.164-.267-1.652-.538-3.704-.564-6.059l-1 .011ZM6.403 4.326a.386.386 0 0 1 .202-.12.432.432 0 0 1 .22.026c.202.07.43.242.638.45l.709-.704c-.246-.248-.605-.549-1.024-.692a1.425 1.425 0 0 0-.727-.063 1.38 1.38 0 0 0-.723.394l.705.709Zm1.414.004-.385.32a.17.17 0 0 1 .003.003l.006.007a6.376 6.376 0 0 0 .114.133 19.43 19.43 0 0 0 1.43 1.487c.437.407.936.825 1.436 1.145.485.31 1.042.574 1.579.574V7c-.24 0-.595-.132-1.04-.417A9.5 9.5 0 0 1 9.666 5.55a18.427 18.427 0 0 1-1.458-1.53l-.005-.007-.001-.001-.385.32Zm2.25 4.526a187.367 187.367 0 0 1-3.298-3.452l-.74.672c.466.514 2.22 2.355 3.325 3.48l.713-.7Zm-4.369-5.24a1.42 1.42 0 0 0-.401.69 1.33 1.33 0 0 0 .042.718c.135.41.438.775.69 1.052l.74-.672c-.251-.277-.418-.503-.48-.691a.335.335 0 0 1-.017-.183.431.431 0 0 1 .131-.204l-.705-.71Zm12.603 0a1.38 1.38 0 0 0-.722-.393 1.425 1.425 0 0 0-.727.063c-.42.143-.779.444-1.024.692l.709.705c.208-.21.436-.382.638-.451a.432.432 0 0 1 .22-.026c.05.01.117.036.201.12l.705-.71Zm-2.119.714-.385-.32v.002l-.006.006-.02.025-.083.096a18.373 18.373 0 0 1-1.355 1.41 9.5 9.5 0 0 1-1.293 1.033c-.445.285-.8.417-1.04.417v1c.537 0 1.094-.264 1.578-.574.5-.32 1-.738 1.436-1.144a19.419 19.419 0 0 0 1.544-1.62l.006-.008.002-.003-.384-.32Zm-1.536 5.226a187.472 187.472 0 0 0 3.325-3.48l-.74-.672c-.454.5-2.196 2.33-3.299 3.452l.714.7Zm2.95-5.23a.432.432 0 0 1 .132.204c.01.043.01.1-.018.183-.062.188-.228.414-.48.691l.741.672c.251-.277.555-.641.69-1.051.07-.217.1-.462.041-.719a1.419 1.419 0 0 0-.4-.69l-.706.71ZM11.51 14.599l1.072 5.322.98-.198-1.072-5.322-.98.198Zm2.992-4.692a.492.492 0 0 1 .144-.35l-.714-.7c-.275.28-.434.66-.43 1.061l1-.01Zm-4.004.01a1.5 1.5 0 0 0-.431-1.06l-.713.7a.5.5 0 0 1 .144.353l1 .007Zm2.106 10.08a1.651 1.651 0 0 0 1.532 1.045l.021-1c-.348-.007-.551-.222-.616-.395l-.937.35Zm1.532 1.045c.382.008.723-.172.965-.391a1.54 1.54 0 0 0 .498-.89l-.99-.147a.55.55 0 0 1-.18.297c-.112.101-.217.132-.272.131l-.021 1ZM9.498 9.908c-.025 2.355-.296 4.43-.563 6.103-.067.419-.133.812-.195 1.18-.063.366-.12.709-.17 1.021-.1.616-.172 1.153-.172 1.563h1c0-.32.06-.782.159-1.405.049-.307.106-.643.169-1.012.062-.368.129-.765.196-1.19.27-1.697.55-3.824.576-6.249l-1-.011Zm2.011 4.495-1.07 5.41.981.193 1.07-5.41-.98-.193Zm-1.047 5.33c-.065.174-.268.389-.617.396l.021 1a1.651 1.651 0 0 0 1.532-1.044l-.936-.351Zm-.617.396c-.055.001-.16-.03-.271-.131a.551.551 0 0 1-.181-.297l-.99.148c.054.354.256.669.498.89.242.219.584.398.965.39l-.02-1Z" fill="currentColor"/>
  <path d="M6.5 4.5c4 3.6 5.333 4.833 5.5 5l5.5-5-5.5 7-6-7 .5-.5L8 5l4 4 .5-1 .5-.5.5-.5L12 8h-.5l.5 3 1.5-2h-3l.5.5-1.5-2 2 2.5-.5 2m0 0-.5 2-1 5.5.5.5.5-.5v-1l1-5 1 .5.5 1.5.5 4.5h.5l.5-.5V19l-1-5 .5 5.5-.5-9.5-1.5 2 1 2v-2.5l-1 2-.5-.5-.5-1Zm-.5 0v-.5 1-2l7-6.5.5.5" stroke="currentColor"/>
  <path d="M11.92 5.838a1.17 1.17 0 1 0 0-2.338 1.17 1.17 0 0 0 0 2.338Z" fill="currentColor" stroke="currentColor"/>
</svg>
