<svg width="24" height="24" viewBox="0 0 24 24" fill="none" xmlns="http://www.w3.org/2000/svg">
<path d="M14.002 9.91277L14.5019 9.90728L14.5019 9.90728L14.002 9.91277ZM15.1041 19.688L15.5986 19.7617C15.6022 19.7373 15.6041 19.7126 15.6041 19.688H15.1041ZM6.05048 3.97222L5.69801 3.61758L5.69801 3.61758L6.05048 3.97222ZM7.81714 4.33115L8.20199 4.01195L8.18763 3.99463L8.17177 3.97868L7.81714 4.33115ZM9.71037 9.20699L9.35374 9.55744L9.35374 9.55744L9.71037 9.20699ZM6.39858 5.74107L6.02812 6.07686L6.02812 6.07686L6.39858 5.74107ZM17.9489 3.97222L18.3013 3.61758L18.3013 3.61758L17.9489 3.97222ZM16.1822 4.33115L15.8276 3.97868L15.8117 3.99463L15.7973 4.01195L16.1822 4.33115ZM14.2891 9.20699L13.9324 8.85654L13.9324 8.85654L14.2891 9.20699ZM17.6008 5.74107L17.2303 5.40527L17.2303 5.40527L17.6008 5.74107ZM11.9997 14.4999L12.4898 14.4011C12.4427 14.1674 12.2372 13.9995 11.9988 13.9999C11.7604 14.0003 11.5554 14.169 11.5092 14.4029L11.9997 14.4999ZM13.0725 19.822L12.5823 19.9208L12.5902 19.96L12.6042 19.9974L13.0725 19.822ZM9.99835 9.91346L10.4983 9.91894L10.4983 9.91683L9.99835 9.91346ZM14.1466 20.542L14.136 21.0419L14.136 21.0419L14.1466 20.542ZM8.89834 19.7751H8.39834C8.39834 19.7998 8.40016 19.8244 8.40379 19.8488L8.89834 19.7751ZM10.9299 19.9092L11.3982 20.0846L11.4125 20.0463L11.4204 20.0062L10.9299 19.9092ZM9.85575 20.6291L9.84515 20.1293L9.84515 20.1293L9.85575 20.6291ZM13.502 9.91826C13.5286 12.3432 13.8082 14.4497 14.0791 16.1257C14.1468 16.5445 14.214 16.9367 14.2764 17.2993C14.3391 17.663 14.3966 17.9949 14.4457 18.2976C14.5454 18.9119 14.6041 19.369 14.6041 19.688H15.6041C15.6041 19.2778 15.5315 18.7459 15.4328 18.1374C15.3827 17.8288 15.3242 17.491 15.2619 17.1296C15.1995 16.7673 15.1331 16.3794 15.0663 15.9662C14.7993 14.3142 14.5278 12.2622 14.5019 9.90728L13.502 9.91826ZM6.40295 4.32685C6.48711 4.24321 6.55483 4.21655 6.60473 4.2072C6.65906 4.19702 6.72996 4.20072 6.82413 4.2329C7.0265 4.30208 7.2547 4.47455 7.46252 4.68363L8.17177 3.97868C7.92601 3.73142 7.56706 3.43005 7.14758 3.28666C6.93082 3.21256 6.68213 3.17529 6.42055 3.22431C6.15454 3.27416 5.91003 3.40686 5.69801 3.61758L6.40295 4.32685ZM7.81714 4.33115C7.4323 4.65036 7.43235 4.65043 7.43242 4.6505C7.43245 4.65055 7.43253 4.65064 7.4326 4.65072C7.43274 4.65089 7.43292 4.65111 7.43314 4.65138C7.43358 4.65191 7.43418 4.65263 7.43494 4.65354C7.43646 4.65536 7.43861 4.65794 7.44138 4.66124C7.44691 4.66785 7.45491 4.67738 7.46528 4.68963C7.486 4.71413 7.51616 4.74954 7.55486 4.7943C7.63222 4.8838 7.74386 5.01087 7.88251 5.16303C8.15924 5.46673 8.54625 5.87335 8.98495 6.28157C9.42159 6.68787 9.92065 7.1063 10.4213 7.42614C10.9059 7.7358 11.4629 7.99991 11.9997 7.99991V6.99991C11.7593 6.99991 11.4049 6.86793 10.9597 6.58344C10.5303 6.30914 10.0809 5.93538 9.66617 5.54949C9.25352 5.16552 8.88632 4.77995 8.62168 4.48951C8.48964 4.3446 8.38381 4.22412 8.31137 4.14032C8.27516 4.09844 8.24734 4.06577 8.2288 4.04385C8.21954 4.03289 8.21259 4.02463 8.20808 4.01925C8.20583 4.01655 8.20419 4.01458 8.20317 4.01336C8.20266 4.01275 8.2023 4.01232 8.20211 4.01209C8.20201 4.01197 8.20195 4.0119 8.20193 4.01187C8.20192 4.01186 8.20194 4.01188 8.20193 4.01188C8.20196 4.01191 8.20199 4.01195 7.81714 4.33115ZM10.067 8.85654C8.96484 7.73496 7.22215 5.90516 6.76904 5.40527L6.02812 6.07686C6.49457 6.59147 8.24813 8.43235 9.35374 9.55744L10.067 8.85654ZM5.69801 3.61758C5.49508 3.81928 5.35596 4.04971 5.29694 4.30737C5.23813 4.56408 5.26776 4.80873 5.33891 5.02548C5.47357 5.4357 5.7769 5.79971 6.02812 6.07686L6.76904 5.40527C6.51778 5.12806 6.35088 4.90201 6.28903 4.71359C6.26192 4.63101 6.26172 4.57419 6.27169 4.53067C6.28144 4.48809 6.30971 4.41953 6.40295 4.32685L5.69801 3.61758ZM18.3013 3.61758C18.0893 3.40686 17.8448 3.27416 17.5788 3.22431C17.3172 3.17529 17.0685 3.21256 16.8518 3.28666C16.4323 3.43005 16.0733 3.73142 15.8276 3.97868L16.5368 4.68363C16.7446 4.47455 16.9728 4.30208 17.1752 4.2329C17.2694 4.20072 17.3403 4.19702 17.3946 4.2072C17.4445 4.21655 17.5122 4.24321 17.5964 4.32685L18.3013 3.61758ZM16.1822 4.33115C15.7973 4.01195 15.7974 4.01191 15.7974 4.01188C15.7974 4.01188 15.7974 4.01187 15.7974 4.01188C15.7974 4.0119 15.7973 4.01197 15.7972 4.01209C15.797 4.01233 15.7967 4.01275 15.7962 4.01336C15.7952 4.01459 15.7935 4.01656 15.7913 4.01925C15.7867 4.02463 15.7798 4.0329 15.7705 4.04386C15.752 4.06577 15.7242 4.09844 15.688 4.14032C15.6155 4.22412 15.5097 4.34461 15.3777 4.48952C15.113 4.77996 14.7458 5.16552 14.3332 5.54949C13.9185 5.93538 13.4691 6.30914 13.0397 6.58345C12.5945 6.86793 12.2401 6.99991 11.9997 6.99991V7.99991C12.5365 7.99991 13.0935 7.7358 13.5781 7.42614C14.0787 7.1063 14.5778 6.68787 15.0144 6.28157C15.4531 5.87335 15.8401 5.46673 16.1168 5.16303C16.2555 5.01087 16.3671 4.88379 16.4445 4.7943C16.4832 4.74953 16.5134 4.71412 16.5341 4.68963C16.5444 4.67737 16.5524 4.66785 16.558 4.66124C16.5607 4.65793 16.5629 4.65536 16.5644 4.65354C16.5652 4.65263 16.5658 4.6519 16.5662 4.65137C16.5664 4.65111 16.5666 4.65089 16.5667 4.65072C16.5668 4.65063 16.5669 4.65054 16.5669 4.6505C16.567 4.65042 16.5671 4.65036 16.1822 4.33115ZM14.6457 9.55744C15.7513 8.43234 17.5048 6.59147 17.9712 6.07686L17.2303 5.40527C16.7772 5.90517 15.0346 7.73497 13.9324 8.85654L14.6457 9.55744ZM17.5964 4.32685C17.6896 4.41953 17.7179 4.48809 17.7277 4.53067C17.7376 4.57419 17.7374 4.63101 17.7103 4.71359C17.6485 4.90201 17.4816 5.12806 17.2303 5.40527L17.9712 6.07686C18.2224 5.79971 18.5258 5.4357 18.6604 5.02548C18.7316 4.80873 18.7612 4.56408 18.7024 4.30737C18.6434 4.04971 18.5043 3.81928 18.3013 3.61758L17.5964 4.32685ZM11.5096 14.5987L12.5823 19.9208L13.5626 19.7232L12.4898 14.4011L11.5096 14.5987ZM14.5019 9.90728C14.5005 9.77979 14.5511 9.65364 14.6457 9.55744L13.9324 8.85654C13.6567 9.13717 13.4976 9.51747 13.502 9.91826L14.5019 9.90728ZM10.4983 9.91683C10.501 9.51819 10.3433 9.13768 10.067 8.85654L9.35374 9.55744C9.44776 9.65312 9.49924 9.78042 9.49836 9.91008L10.4983 9.91683ZM12.6042 19.9974C12.7975 20.5134 13.3364 21.0249 14.136 21.0419L14.1572 20.0421C13.8085 20.0347 13.6056 19.82 13.5407 19.6466L12.6042 19.9974ZM14.136 21.0419C14.5175 21.05 14.8594 20.8705 15.1011 20.6509C15.3438 20.4304 15.5459 20.1158 15.5986 19.7617L14.6095 19.6143C14.5978 19.6932 14.5394 19.8101 14.4287 19.9107C14.3169 20.0122 14.2124 20.0433 14.1572 20.0421L14.136 21.0419ZM9.49838 9.90797C9.47252 12.2632 9.20151 14.3371 8.93489 16.0112C8.8682 16.43 8.80186 16.8233 8.73959 17.1907C8.67747 17.5572 8.61908 17.8996 8.56911 18.2122C8.47059 18.8285 8.39834 19.3654 8.39834 19.7751H9.39834C9.39834 19.4556 9.45703 18.9928 9.55657 18.3701C9.60562 18.0633 9.66303 17.7265 9.72552 17.3578C9.78785 16.9902 9.85491 16.5926 9.92244 16.1685C10.1927 14.4714 10.4717 12.3436 10.4983 9.91894L9.49838 9.90797ZM11.5092 14.4029L10.4394 19.8122L11.4204 20.0062L12.4902 14.5969L11.5092 14.4029ZM10.4617 19.7338C10.3968 19.9071 10.1939 20.1219 9.84515 20.1293L9.86636 21.129C10.666 21.1121 11.2049 20.6005 11.3982 20.0846L10.4617 19.7338ZM9.84515 20.1293C9.79003 20.1304 9.68546 20.0994 9.57371 19.9979C9.46298 19.8973 9.40463 19.7803 9.39288 19.7015L8.40379 19.8488C8.45654 20.2029 8.6586 20.5176 8.90131 20.7381C9.143 20.9576 9.4849 21.1371 9.86636 21.129L9.84515 20.1293Z" fill="currentColor"/>
<circle cx="11.9192" cy="4.66916" r="1.16916" stroke="currentColor"/>
</svg>
