<svg width="50" height="54" viewBox="0 0 50 54" fill="none" xmlns="http://www.w3.org/2000/svg">
<path d="M38.8563 15.2464L45.7461 9.4834" stroke="currentColor" stroke-width="2.61569" stroke-linecap="round"/>
<path d="M11.1554 15.2464L4.26562 9.4834" stroke="currentColor" stroke-width="2.61569" stroke-linecap="round"/>
<path d="M25.0066 2.00046L24.8555 10.9814" stroke="currentColor" stroke-width="2.61569" stroke-linecap="round"/>
<path d="M32.0123 36.0379C32.1373 42.8754 25.0378 51.5919 25.0378 51.5919C25.0378 51.5919 17.6862 43.5841 17.6406 36.0379C17.5961 28.6823 25.0372 20.7356 25.0372 20.7356C25.0372 20.7356 31.8861 29.1415 32.0123 36.0379Z" stroke="currentColor" stroke-width="2.61569" stroke-linecap="round" stroke-linejoin="round"/>
<path d="M26.0961 51.4549C26.0961 51.4549 37.2877 50.3915 42.0691 45.5023C46.8917 40.5709 48.0697 29.7922 48.0697 29.7922C48.0697 29.7922 39.4101 29.4 33.2811 33.8384" stroke="currentColor" stroke-width="2.61569" stroke-linecap="round" stroke-linejoin="round"/>
<path d="M23.9742 51.4608C23.9742 51.4608 12.7827 50.3973 8.00123 45.5081C3.17857 40.5767 2.00066 29.7981 2.00066 29.7981C2.00066 29.7981 10.6602 29.4059 16.7892 33.8442" stroke="currentColor" stroke-width="2.61569" stroke-linecap="round" stroke-linejoin="round"/>
</svg>
