<svg width="24" height="24" viewBox="0 0 24 24" fill="none" xmlns="http://www.w3.org/2000/svg">
<path d="M4.63086 5.71187L4.48389 5.23396C4.27406 5.29849 4.13086 5.49234 4.13086 5.71187H4.63086ZM4.63086 16.8827H4.13086C4.13086 17.0325 4.19808 17.1745 4.31402 17.2695C4.42996 17.3644 4.58238 17.4024 4.72932 17.3729L4.63086 16.8827ZM8.20413 16.415L8.19549 15.915L8.20413 16.415ZM12.1309 17.3399L11.947 17.8048C12.0696 17.8533 12.2064 17.8514 12.3276 17.7996L12.1309 17.3399ZM15.7801 16.415L15.7772 16.9149L15.7801 16.415ZM19.6309 16.8827L19.5382 17.374C19.6844 17.4016 19.8354 17.3626 19.95 17.2676C20.0645 17.1726 20.1309 17.0315 20.1309 16.8827H19.6309ZM19.6309 5.71187H20.1309C20.1309 5.48932 19.9838 5.29355 19.77 5.23162L19.6309 5.71187ZM15.7801 5.00192L15.7753 5.5019L15.7801 5.00192ZM8.20413 5.00194L8.21857 5.50173L8.20413 5.00194ZM20.1309 11.8829C20.1309 11.6068 19.907 11.3829 19.6309 11.3829C19.3547 11.3829 19.1309 11.6068 19.1309 11.8829H20.1309ZM4.13086 5.71187V16.8827H5.13086V5.71187H4.13086ZM4.63086 16.8827C4.72932 17.3729 4.7293 17.3729 4.72929 17.3729C4.7293 17.3729 4.7293 17.3729 4.72931 17.3729C4.72935 17.3729 4.72941 17.3729 4.72951 17.3728C4.72971 17.3728 4.73004 17.3727 4.7305 17.3726C4.73143 17.3725 4.73288 17.3722 4.73485 17.3718C4.73879 17.371 4.74478 17.3698 4.75274 17.3682C4.76867 17.3651 4.79245 17.3604 4.82335 17.3545C4.88516 17.3425 4.97538 17.3254 5.08806 17.3047C5.31355 17.2632 5.62827 17.2077 5.9847 17.1515C6.70474 17.038 7.56897 16.926 8.21276 16.9149L8.19549 15.915C7.47755 15.9274 6.55515 16.0493 5.82899 16.1637C5.46232 16.2215 5.13904 16.2785 4.90732 16.3211C4.79139 16.3424 4.6982 16.3602 4.63374 16.3726C4.60151 16.3788 4.57645 16.3837 4.55931 16.3871C4.55074 16.3888 4.54415 16.3901 4.53964 16.391C4.53738 16.3915 4.53564 16.3918 4.53443 16.392C4.53383 16.3922 4.53335 16.3923 4.53301 16.3923C4.53285 16.3924 4.53271 16.3924 4.53261 16.3924C4.53256 16.3924 4.53251 16.3924 4.53248 16.3924C4.53244 16.3924 4.5324 16.3925 4.63086 16.8827ZM8.21276 16.9149C8.89123 16.9032 9.80986 17.1141 10.5959 17.347C10.9811 17.4611 11.3205 17.5762 11.5635 17.6627C11.6849 17.7059 11.7818 17.7419 11.8479 17.7668C11.8809 17.7793 11.9063 17.789 11.9231 17.7955C11.9314 17.7988 11.9377 17.8012 11.9417 17.8028C11.9437 17.8036 11.9452 17.8041 11.9461 17.8045C11.9465 17.8047 11.9468 17.8048 11.947 17.8048C11.947 17.8049 11.9471 17.8049 11.9471 17.8049C11.9471 17.8049 11.9471 17.8049 11.9471 17.8049C11.947 17.8049 11.947 17.8048 12.1309 17.3399C12.3147 16.8749 12.3147 16.8749 12.3146 16.8749C12.3146 16.8748 12.3145 16.8748 12.3144 16.8748C12.3143 16.8747 12.3141 16.8747 12.3139 16.8746C12.3134 16.8744 12.3129 16.8742 12.3121 16.8739C12.3107 16.8733 12.3087 16.8725 12.3061 16.8715C12.3009 16.8695 12.2935 16.8666 12.2839 16.8629C12.2647 16.8555 12.2369 16.8448 12.2012 16.8313C12.1298 16.8043 12.0269 16.7662 11.899 16.7206C11.6434 16.6296 11.2864 16.5086 10.88 16.3882C10.083 16.152 9.03829 15.9005 8.19549 15.915L8.21276 16.9149ZM12.1309 17.3399C12.3276 17.7996 12.3275 17.7996 12.3275 17.7996C12.3275 17.7996 12.3275 17.7996 12.3275 17.7996C12.3274 17.7996 12.3275 17.7996 12.3275 17.7996C12.3276 17.7995 12.3279 17.7994 12.3283 17.7993C12.329 17.7989 12.3303 17.7984 12.3321 17.7976C12.3356 17.7961 12.3412 17.7938 12.3487 17.7906C12.3637 17.7844 12.3865 17.7749 12.4163 17.7627C12.476 17.7384 12.5637 17.7032 12.6739 17.6609C12.8946 17.5761 13.2037 17.4632 13.5567 17.3506C14.2775 17.1209 15.1265 16.9112 15.7772 16.9149L15.7829 15.915C14.9654 15.9103 13.9898 16.163 13.253 16.3979C12.8773 16.5176 12.5494 16.6375 12.3153 16.7274C12.198 16.7725 12.1039 16.8102 12.0385 16.8368C12.0059 16.8502 11.9803 16.8608 11.9627 16.8681C11.9539 16.8718 11.947 16.8747 11.9423 16.8768C11.9399 16.8778 11.938 16.8786 11.9366 16.8791C11.9359 16.8794 11.9354 16.8797 11.935 16.8798C11.9348 16.8799 11.9346 16.88 11.9345 16.8801C11.9344 16.8801 11.9343 16.8801 11.9343 16.8801C11.9342 16.8802 11.9341 16.8802 12.1309 17.3399ZM15.7772 16.9149C16.4467 16.9188 17.3792 17.0309 18.1631 17.1465C18.5511 17.2037 18.8957 17.2607 19.1432 17.3034C19.2668 17.3248 19.3661 17.3425 19.4342 17.3549C19.4682 17.361 19.4945 17.3659 19.5121 17.3691C19.5209 17.3708 19.5276 17.372 19.5319 17.3728C19.5341 17.3732 19.5357 17.3735 19.5368 17.3737C19.5373 17.3738 19.5377 17.3739 19.5379 17.3739C19.538 17.374 19.5381 17.374 19.5381 17.374C19.5382 17.374 19.5382 17.374 19.5382 17.374C19.5382 17.374 19.5382 17.374 19.6309 16.8827C19.7236 16.3913 19.7235 16.3913 19.7235 16.3913C19.7235 16.3913 19.7234 16.3913 19.7234 16.3913C19.7232 16.3913 19.7231 16.3912 19.7229 16.3912C19.7226 16.3911 19.7221 16.391 19.7214 16.3909C19.7201 16.3907 19.7182 16.3903 19.7157 16.3899C19.7108 16.3889 19.7036 16.3876 19.6942 16.3859C19.6755 16.3824 19.648 16.3773 19.6127 16.3709C19.542 16.3581 19.44 16.3399 19.3132 16.318C19.0597 16.2743 18.7069 16.2159 18.3091 16.1572C17.5213 16.041 16.5285 15.9192 15.7829 15.915L15.7772 16.9149ZM19.6309 5.71187C19.77 5.23162 19.77 5.23161 19.7699 5.23159C19.7699 5.23158 19.7698 5.23156 19.7697 5.23155C19.7696 5.23151 19.7695 5.23146 19.7693 5.23141C19.7689 5.23129 19.7683 5.23114 19.7677 5.23094C19.7663 5.23055 19.7644 5.22999 19.7619 5.22928C19.7569 5.22784 19.7496 5.22577 19.7402 5.2231C19.7214 5.21775 19.694 5.21002 19.6588 5.20022C19.5884 5.18064 19.4868 5.15283 19.3605 5.11948C19.1083 5.05284 18.7565 4.96384 18.3583 4.87429C17.5733 4.6978 16.5661 4.50945 15.7849 4.50195L15.7753 5.5019C16.4424 5.50831 17.3606 5.67493 18.1389 5.84994C18.5223 5.93614 18.8617 6.02201 19.1052 6.08632C19.2268 6.11844 19.3242 6.14511 19.3908 6.16365C19.4241 6.17292 19.4497 6.18015 19.4668 6.185C19.4754 6.18743 19.4818 6.18927 19.486 6.19047C19.4881 6.19107 19.4896 6.19151 19.4906 6.19179C19.491 6.19193 19.4914 6.19202 19.4916 6.19208C19.4917 6.19211 19.4917 6.19212 19.4918 6.19213C19.4918 6.19214 19.4918 6.19213 19.4918 6.19213C19.4917 6.19213 19.4917 6.19212 19.6309 5.71187ZM15.7849 4.50195C14.9691 4.49411 14.0065 4.68463 13.2728 4.86614C12.9006 4.95821 12.5769 5.05066 12.346 5.12016C12.2304 5.15494 12.1377 5.18408 12.0735 5.20468C12.0413 5.21498 12.0163 5.22316 11.999 5.22885C11.9904 5.23169 11.9837 5.23391 11.979 5.23547C11.9767 5.23625 11.9748 5.23686 11.9735 5.2373C11.9729 5.23752 11.9723 5.2377 11.9719 5.23783C11.9717 5.2379 11.9716 5.23796 11.9714 5.238C11.9714 5.23802 11.9713 5.23805 11.9713 5.23806C11.9712 5.23808 11.9711 5.2381 12.1309 5.7119C12.2906 6.18571 12.2905 6.18572 12.2905 6.18573C12.2905 6.18573 12.2905 6.18574 12.2905 6.18574C12.2905 6.18574 12.2905 6.18573 12.2906 6.18571C12.2907 6.18567 12.2909 6.18558 12.2913 6.18545C12.2921 6.1852 12.2934 6.18477 12.2951 6.18418C12.2987 6.183 12.3042 6.18115 12.3117 6.1787C12.3266 6.17378 12.3492 6.16641 12.3788 6.15693C12.4379 6.13797 12.5248 6.11063 12.6342 6.07773C12.853 6.01186 13.1603 5.9241 13.5129 5.83688C14.2287 5.6598 15.0907 5.49532 15.7753 5.5019L15.7849 4.50195ZM12.1309 5.7119C12.2823 5.23539 12.2823 5.23538 12.2822 5.23536C12.2822 5.23534 12.2821 5.23532 12.282 5.2353C12.2819 5.23526 12.2817 5.2352 12.2815 5.23513C12.2811 5.235 12.2805 5.23482 12.2798 5.2346C12.2784 5.23416 12.2764 5.23353 12.2739 5.23274C12.2688 5.23114 12.2615 5.22885 12.2521 5.22592C12.2332 5.22006 12.2057 5.21161 12.1705 5.20096C12.1001 5.17967 11.9985 5.14955 11.8721 5.11366C11.6194 5.04196 11.2661 4.94686 10.8627 4.85309C10.0681 4.66839 9.03372 4.47775 8.18968 4.50215L8.21857 5.50173C8.92646 5.48127 9.85545 5.64562 10.6363 5.82712C11.0205 5.91644 11.3579 6.00725 11.599 6.07567C11.7195 6.10985 11.8155 6.13834 11.8811 6.15816C11.9138 6.16806 11.9389 6.17578 11.9556 6.18096C11.9639 6.18354 11.9701 6.18549 11.9741 6.18674C11.9761 6.18737 11.9776 6.18783 11.9785 6.18811C11.9789 6.18825 11.9792 6.18835 11.9794 6.1884C11.9794 6.18842 11.9795 6.18844 11.9795 6.18844C11.9795 6.18844 11.9795 6.18843 11.9795 6.18843C11.9794 6.18843 11.9794 6.18841 12.1309 5.7119ZM8.18968 4.50215C7.43683 4.52391 6.50116 4.7122 5.77736 4.88583C5.41038 4.97386 5.08829 5.06053 4.85777 5.12521C4.74242 5.15759 4.64973 5.18453 4.58552 5.2035C4.55341 5.21298 4.52841 5.22047 4.51123 5.22565C4.50264 5.22824 4.49601 5.23026 4.49142 5.23166C4.48913 5.23235 4.48735 5.2329 4.48609 5.23328C4.48546 5.23348 4.48496 5.23363 4.48459 5.23374C4.48441 5.2338 4.48426 5.23385 4.48414 5.23388C4.48408 5.2339 4.48402 5.23392 4.48399 5.23393C4.48393 5.23394 4.48389 5.23396 4.63086 5.71187C4.77783 6.18978 4.7778 6.18979 4.77778 6.1898C4.77778 6.1898 4.77777 6.1898 4.77778 6.1898C4.77779 6.18979 4.77784 6.18978 4.77792 6.18975C4.77808 6.1897 4.77838 6.18961 4.7788 6.18948C4.77964 6.18923 4.78101 6.18881 4.78287 6.18824C4.78661 6.1871 4.79237 6.18535 4.80007 6.18303C4.81547 6.17838 4.83861 6.17145 4.86876 6.16255C4.92908 6.14473 5.0174 6.11905 5.12797 6.08802C5.34932 6.0259 5.65879 5.94265 6.01063 5.85824C6.72447 5.687 7.57543 5.52032 8.21857 5.50173L8.18968 4.50215ZM11.6309 5.7119V17.3399H12.6309V5.7119H11.6309ZM19.1309 5.71187V9.7141H20.1309V5.71187H19.1309ZM20.1309 16.8827V12.0058H19.1309V16.8827H20.1309ZM20.1309 12.0058V11.8829H19.1309V12.0058H20.1309ZM19.1309 9.7141V12.0058H20.1309V9.7141H19.1309Z" fill="currentColor"/>
<path d="M19.1308 6.04736H20.9578C21.1289 6.04736 21.2676 6.18607 21.2676 6.35717V18.2376C21.2676 18.4087 21.1289 18.5474 20.9578 18.5474H3.30981C3.13871 18.5474 3 18.4087 3 18.2376V6.35717C3 6.18607 3.1387 6.04736 3.30981 6.04736H5.13079" stroke="currentColor"/>
</svg>
