<svg width="18" height="24" viewBox="0 0 18 24" fill="none" xmlns="http://www.w3.org/2000/svg">
<path d="M10.6732 11.5781C10.6732 11.5781 10.6732 17.4167 10.6732 20.4896C10.6732 22.0163 12.5404 21.6527 13.6537 22.5246C13.8485 22.6772 13.7144 22.9479 13.467 22.9479C10.1893 22.9479 9.58681 22.9479 6.03605 22.9479C5.78862 22.9479 5.65413 22.6772 5.84892 22.5246C6.96219 21.6527 8.82945 22.0163 8.82945 20.4896C8.82945 17.4167 8.82945 11.5781 8.82945 11.5781" stroke="currentColor" stroke-width="1.22917"/>
<path d="M8.28672 10.8015C9.02467 11.7666 10.478 11.7665 11.2159 10.8015L14.7559 6.17224L15.7418 4.88309C16.051 4.47869 15.7627 3.89518 15.2536 3.89518H4.24905C3.73995 3.89518 3.4516 4.47869 3.76085 4.88309L4.24732 5.51925L4.74667 6.17224L5.24602 6.82524L5.74537 7.47823L6.24472 8.13123L8.28672 10.8015Z" stroke="currentColor" stroke-width="1.22917"/>
<path d="M3.53029 5.13047C2.23451 5.75028 1.18165 4.59382 1.10195 3.57867C1.02224 2.56352 1.82375 1.67257 2.89216 1.58869C3.96058 1.5048 4.83532 2.23116 4.83109 3.28109" stroke="currentColor" stroke-width="1.22917"/>
</svg>
