<svg width="24" height="24" viewBox="0 0 24 24" fill="none" xmlns="http://www.w3.org/2000/svg">
<path d="M12.9779 13.6352L12.4786 13.662C12.4795 13.6783 12.4812 13.6946 12.4836 13.7107L12.9779 13.6352ZM10.9724 13.6352L11.4666 13.7107C11.4691 13.6946 11.4708 13.6783 11.4717 13.662L10.9724 13.6352ZM12.6914 14.9305L12.3213 14.5943L12.3213 14.5943L12.6914 14.9305ZM11.2589 14.9305L11.629 14.5943L11.629 14.5943L11.2589 14.9305ZM11.2589 12.7717L11.6717 13.0538L11.2589 12.7717ZM12.6914 12.7717L12.2786 13.0538L12.6914 12.7717ZM4.81253 12.34L4.93991 11.8564L4.81253 12.34ZM19.401 12.3244L19.2762 11.8402L19.401 12.3244ZM14.5537 6.84614L15.0537 6.84614L14.5537 6.84614ZM9.25337 6.84617L8.75337 6.84617L9.25337 6.84617ZM5.05113 18.8846H19.0424V17.8846H5.05113V18.8846ZM9.25337 6.37097H4.38461V7.37097H9.25337V6.37097ZM9.75337 6.87096L9.75337 6.84616L8.75337 6.84617L8.75337 6.87097L9.75337 6.87096ZM11.0995 5.5H12.7075V4.5H11.0995V5.5ZM19.6154 6.37097H14.5537V7.37097H19.6154V6.37097ZM14.5537 6.37097H9.25337V7.37097H14.5537V6.37097ZM14.0537 6.84614L14.0537 6.87097L15.0537 6.87096L15.0537 6.84614L14.0537 6.84614ZM11.9751 15.5744C12.1115 15.5744 12.312 15.5824 12.4694 15.5625C12.6652 15.5378 12.8813 15.4651 13.0615 15.2667L12.3213 14.5943C12.3273 14.5877 12.34 14.5774 12.3555 14.5703C12.3677 14.5647 12.3685 14.5673 12.344 14.5704C12.3174 14.5738 12.2781 14.5758 12.2121 14.576C12.18 14.576 12.1456 14.5757 12.1053 14.5753C12.0659 14.5749 12.0219 14.5744 11.9751 14.5744V15.5744ZM13.0615 15.2667C13.3817 14.9142 13.4662 14.4532 13.4888 14.1487C13.5008 13.9869 13.497 13.8439 13.4904 13.7412C13.4871 13.6895 13.4829 13.6469 13.4794 13.616C13.4777 13.6005 13.4761 13.5879 13.4748 13.5784C13.4742 13.5737 13.4736 13.5698 13.4732 13.5666C13.473 13.5651 13.4728 13.5637 13.4726 13.5626C13.4725 13.562 13.4724 13.5615 13.4723 13.561C13.4723 13.5608 13.4723 13.5605 13.4722 13.5603C13.4722 13.5602 13.4722 13.5601 13.4722 13.56C13.4722 13.5599 13.4722 13.5597 12.9779 13.6352C12.4836 13.7107 12.4836 13.7106 12.4836 13.7105C12.4836 13.7104 12.4836 13.7103 12.4835 13.7102C12.4835 13.7101 12.4835 13.7099 12.4835 13.7098C12.4834 13.7095 12.4834 13.7093 12.4834 13.7091C12.4833 13.7088 12.4833 13.7086 12.4833 13.7087C12.4833 13.7088 12.4834 13.7096 12.4836 13.7111C12.4841 13.7141 12.4848 13.72 12.4858 13.7283C12.4876 13.7451 12.4903 13.7716 12.4925 13.8056C12.4969 13.8745 12.4993 13.9698 12.4915 14.0747C12.4745 14.3037 12.4157 14.4903 12.3213 14.5943L13.0615 15.2667ZM10.9724 13.6352C10.4781 13.5597 10.4781 13.5599 10.4781 13.56C10.478 13.5601 10.478 13.5602 10.478 13.5603C10.478 13.5605 10.4779 13.5608 10.4779 13.561C10.4778 13.5615 10.4778 13.562 10.4777 13.5626C10.4775 13.5637 10.4773 13.5651 10.4771 13.5666C10.4766 13.5698 10.4761 13.5737 10.4754 13.5784C10.4742 13.5879 10.4726 13.6005 10.4708 13.616C10.4673 13.6469 10.4632 13.6895 10.4599 13.7412C10.4532 13.8439 10.4495 13.9869 10.4615 14.1487C10.4841 14.4532 10.5686 14.9142 10.8888 15.2667L11.629 14.5943C11.5345 14.4903 11.4758 14.3037 11.4588 14.0747C11.451 13.9698 11.4533 13.8745 11.4578 13.8056C11.46 13.7716 11.4626 13.7451 11.4645 13.7283C11.4655 13.72 11.4662 13.7141 11.4666 13.7111C11.4668 13.7096 11.4669 13.7088 11.4669 13.7087C11.4669 13.7086 11.4669 13.7088 11.4669 13.7091C11.4668 13.7093 11.4668 13.7095 11.4668 13.7098C11.4668 13.7099 11.4667 13.7101 11.4667 13.7102C11.4667 13.7103 11.4667 13.7104 11.4667 13.7105C11.4667 13.7106 11.4666 13.7107 10.9724 13.6352ZM10.8888 15.2667C11.069 15.4651 11.285 15.5378 11.4808 15.5625C11.6383 15.5824 11.8387 15.5744 11.9751 15.5744V14.5744C11.9284 14.5744 11.8843 14.5749 11.845 14.5753C11.8047 14.5757 11.7703 14.576 11.7381 14.576C11.6722 14.5758 11.6329 14.5738 11.6063 14.5704C11.5818 14.5673 11.5825 14.5647 11.5947 14.5703C11.6103 14.5774 11.623 14.5877 11.629 14.5943L10.8888 15.2667ZM11.9751 11.9839C11.5656 11.9839 11.1334 12.0691 10.846 12.4896L11.6717 13.0538C11.6887 13.0289 11.6996 13.0216 11.7214 13.0133C11.7571 12.9997 11.8297 12.9839 11.9751 12.9839V11.9839ZM10.846 12.4896C10.6678 12.7504 10.5776 13.0319 10.5308 13.2335C10.5068 13.3369 10.4927 13.4261 10.4845 13.491C10.4803 13.5236 10.4776 13.5504 10.4759 13.5703C10.475 13.5803 10.4744 13.5886 10.4739 13.595C10.4737 13.5982 10.4735 13.6009 10.4734 13.6032C10.4733 13.6043 10.4733 13.6053 10.4732 13.6062C10.4732 13.6067 10.4732 13.6071 10.4731 13.6075C10.4731 13.6076 10.4731 13.6078 10.4731 13.608C10.4731 13.6081 10.4731 13.6082 10.4731 13.6083C10.4731 13.6084 10.4731 13.6085 10.9724 13.6352C11.4717 13.662 11.4716 13.6621 11.4716 13.6622C11.4716 13.6622 11.4716 13.6623 11.4716 13.6624C11.4716 13.6626 11.4716 13.6627 11.4716 13.6628C11.4716 13.6631 11.4716 13.6634 11.4716 13.6636C11.4715 13.664 11.4715 13.6643 11.4715 13.6645C11.4715 13.6649 11.4715 13.6649 11.4715 13.6645C11.4716 13.6637 11.4717 13.6612 11.4721 13.6572C11.4728 13.6493 11.4741 13.6355 11.4765 13.6169C11.4812 13.5795 11.4899 13.5244 11.5049 13.4596C11.5362 13.3248 11.5892 13.1745 11.6717 13.0538L10.846 12.4896ZM12.9779 13.6352C13.4772 13.6085 13.4772 13.6084 13.4772 13.6083C13.4772 13.6082 13.4772 13.6081 13.4772 13.608C13.4771 13.6078 13.4771 13.6076 13.4771 13.6075C13.4771 13.6071 13.4771 13.6067 13.477 13.6062C13.477 13.6053 13.4769 13.6043 13.4769 13.6032C13.4767 13.6009 13.4766 13.5982 13.4763 13.595C13.4759 13.5886 13.4753 13.5803 13.4744 13.5703C13.4726 13.5504 13.4699 13.5236 13.4658 13.491C13.4576 13.4261 13.4435 13.3369 13.4195 13.2335C13.3727 13.0319 13.2824 12.7504 13.1042 12.4896L12.2786 13.0538C12.3611 13.1745 12.4141 13.3248 12.4454 13.4596C12.4604 13.5244 12.469 13.5795 12.4738 13.6169C12.4761 13.6355 12.4775 13.6493 12.4782 13.6572C12.4785 13.6612 12.4787 13.6637 12.4787 13.6645C12.4788 13.6649 12.4788 13.6649 12.4788 13.6645C12.4787 13.6643 12.4787 13.664 12.4787 13.6636C12.4787 13.6634 12.4787 13.6631 12.4787 13.6628C12.4786 13.6627 12.4786 13.6626 12.4786 13.6624C12.4786 13.6623 12.4786 13.6622 12.4786 13.6622C12.4786 13.6621 12.4786 13.662 12.9779 13.6352ZM13.1042 12.4896C12.8168 12.0691 12.3846 11.9839 11.9751 11.9839V12.9839C12.1206 12.9839 12.1931 12.9997 12.2289 13.0133C12.2507 13.0216 12.2616 13.0289 12.2786 13.0538L13.1042 12.4896ZM3.16652 12.0521V13.0596H4.16652V12.0521H3.16652ZM3.16652 13.0596V17H4.16652V13.0596H3.16652ZM20.927 17V13.0596H19.927V17H20.927ZM20.927 13.0596V12.0521H19.927V13.0596H20.927ZM3.66652 12.0521C3.55131 12.5387 3.5513 12.5387 3.5513 12.5387C3.5513 12.5387 3.5513 12.5387 3.5513 12.5387C3.55131 12.5387 3.55133 12.5387 3.55135 12.5387C3.55139 12.5387 3.55147 12.5387 3.55158 12.5387C3.5518 12.5388 3.55214 12.5389 3.55261 12.539C3.55356 12.5392 3.555 12.5395 3.55693 12.54C3.56079 12.5409 3.5666 12.5423 3.57425 12.5441C3.58956 12.5478 3.61224 12.5532 3.64144 12.5603C3.69985 12.5743 3.7843 12.5948 3.88798 12.6204C4.09547 12.6716 4.3793 12.7429 4.68516 12.8235L4.93991 11.8564C4.62757 11.7742 4.3384 11.7015 4.12743 11.6495C4.02188 11.6235 3.93574 11.6026 3.87586 11.5881C3.84592 11.5809 3.82253 11.5753 3.80656 11.5715C3.79857 11.5696 3.79244 11.5681 3.78827 11.5671C3.78618 11.5666 3.78458 11.5662 3.78349 11.566C3.78294 11.5659 3.78252 11.5658 3.78222 11.5657C3.78208 11.5656 3.78196 11.5656 3.78188 11.5656C3.78184 11.5656 3.7818 11.5656 3.78178 11.5656C3.78177 11.5656 3.78175 11.5656 3.78175 11.5656C3.78174 11.5656 3.78173 11.5656 3.66652 12.0521ZM4.68516 12.8235C6.14229 13.2073 8.79634 13.8842 10.9143 14.1319L11.0304 13.1386C8.99276 12.9003 6.40394 12.2421 4.93991 11.8564L4.68516 12.8235ZM13.0352 14.1319C15.1781 13.8846 18.0324 13.1933 19.5257 12.8086L19.2762 11.8402C17.7821 12.2251 14.9877 12.8999 12.9206 13.1385L13.0352 14.1319ZM19.5257 12.8086C19.8437 12.7267 20.1019 12.6581 20.2809 12.61C20.3704 12.586 20.44 12.567 20.4875 12.554C20.5113 12.5475 20.5294 12.5425 20.5418 12.5391C20.5479 12.5374 20.5526 12.5361 20.5558 12.5353C20.5574 12.5348 20.5586 12.5345 20.5595 12.5342C20.5599 12.5341 20.5602 12.534 20.5604 12.534C20.5606 12.5339 20.5606 12.5339 20.5607 12.5339C20.5607 12.5339 20.5608 12.5339 20.5608 12.5339C20.5608 12.5339 20.5608 12.5339 20.5608 12.5339C20.5608 12.5339 20.5608 12.5339 20.427 12.0521C20.2931 11.5704 20.2931 11.5704 20.2932 11.5704C20.2931 11.5704 20.2932 11.5704 20.2932 11.5704C20.2931 11.5704 20.2931 11.5704 20.2931 11.5704C20.2931 11.5704 20.293 11.5704 20.293 11.5704C20.2928 11.5704 20.2926 11.5705 20.2922 11.5706C20.2915 11.5708 20.2905 11.5711 20.289 11.5715C20.2861 11.5723 20.2818 11.5735 20.2759 11.5751C20.2642 11.5783 20.2467 11.5832 20.2236 11.5895C20.1775 11.6021 20.1092 11.6207 20.0212 11.6443C19.8453 11.6916 19.5904 11.7593 19.2762 11.8402L19.5257 12.8086ZM2.5 8.25558V11.1574H3.5V8.25558H2.5ZM3.35887 12.4639L3.46828 12.5111L3.86475 11.5931L3.75534 11.5458L3.35887 12.4639ZM21.5 11.2147V8.25558H20.5V11.2147H21.5ZM20.6081 12.5182C21.1458 12.3092 21.5 11.7915 21.5 11.2147H20.5C20.5 11.379 20.3991 11.5265 20.2459 11.5861L20.6081 12.5182ZM12.7075 5.5C13.451 5.5 14.0537 6.10269 14.0537 6.84614L15.0537 6.84614C15.0537 5.5504 14.0033 4.5 12.7075 4.5V5.5ZM9.75337 6.84616C9.75336 6.1027 10.3561 5.5 11.0995 5.5V4.5C9.80377 4.5 8.75336 5.55042 8.75337 6.84617L9.75337 6.84616ZM5.05113 17.8846C4.56257 17.8846 4.16652 17.4886 4.16652 17H3.16652C3.16652 18.0408 4.01029 18.8846 5.05113 18.8846V17.8846ZM19.6154 7.37097C20.1039 7.37097 20.5 7.76702 20.5 8.25558H21.5C21.5 7.21474 20.6562 6.37097 19.6154 6.37097V7.37097ZM19.0424 18.8846C20.0832 18.8846 20.927 18.0408 20.927 17H19.927C19.927 17.4886 19.5309 17.8846 19.0424 17.8846V18.8846ZM2.5 11.1574C2.5 11.7253 2.83757 12.2388 3.35887 12.4639L3.75534 11.5458C3.60036 11.4789 3.5 11.3262 3.5 11.1574H2.5ZM4.38461 6.37097C3.34377 6.37097 2.5 7.21474 2.5 8.25558H3.5C3.5 7.76702 3.89606 7.37097 4.38461 7.37097V6.37097Z" fill="currentColor"/>
</svg>
