<svg width="25" height="25" viewBox="0 0 25 25" fill="none" xmlns="http://www.w3.org/2000/svg">
<path d="M4.00024 18.1782H1.37864L1.34899 11.877L1.31934 5.57576L21.6637 5.57568L23.8534 11.5712V18.1782H21.0002M8.00024 18.1782H16.5002" stroke="#3F3C44" stroke-linecap="round" stroke-linejoin="round"/>
<path d="M23.7967 14.7939H7.2793" stroke="#3F3C44" stroke-linecap="round" stroke-linejoin="round"/>
<path d="M24.1417 20.0796L1.29883 20.0798" stroke="#3F3C44" stroke-linecap="round" stroke-linejoin="round"/>
<path d="M23.4577 11.571H18.1016V7.19189H22.0781" stroke="#3F3C44" stroke-linecap="round" stroke-linejoin="round"/>
<path d="M1.61641 11.5715H15.2343V7.19238H1.50391" stroke="#3F3C44" stroke-linecap="round" stroke-linejoin="round"/>
<path d="M10.6826 11.5715V7.19238" stroke="#3F3C44" stroke-linecap="round" stroke-linejoin="round"/>
<path d="M6.03809 11.5715V7.19238" stroke="#3F3C44" stroke-linecap="round" stroke-linejoin="round"/>
<path d="M18.6935 20.0798C19.7436 20.0798 20.595 19.2285 20.595 18.1783C20.595 17.1282 19.7436 16.2769 18.6935 16.2769C17.6433 16.2769 16.792 17.1282 16.792 18.1783C16.792 19.2285 17.6433 20.0798 18.6935 20.0798Z" stroke="#3F3C44" stroke-linecap="round" stroke-linejoin="round"/>
<path d="M6.0382 20.0798C7.08836 20.0798 7.93968 19.2285 7.93968 18.1783C7.93968 17.1282 7.08836 16.2769 6.0382 16.2769C4.98804 16.2769 4.13672 17.1282 4.13672 18.1783C4.13672 19.2285 4.98804 20.0798 6.0382 20.0798Z" stroke="#3F3C44" stroke-linecap="round" stroke-linejoin="round"/>
</svg>
