<svg width="25" height="25" viewBox="0 0 25 25" fill="none" xmlns="http://www.w3.org/2000/svg">
<path d="M16.1768 0.569336C14.4985 0.569336 13.1381 1.92981 13.1381 3.60804C13.1159 3.89883 13.2075 4.35115 13.294 4.68748C13.3804 5.02382 15.9995 10.52 15.9995 10.52C16.5221 9.52846 17.736 7.24401 18.4113 6.03814C19.0865 4.83227 19.2288 3.91563 19.2155 3.60804C19.2155 1.92981 17.855 0.569336 16.1768 0.569336Z" stroke="#3F3C44" stroke-linecap="round" stroke-linejoin="round"/>
<path d="M4.15204 18.3301C3.58607 16.824 4.3337 14.1095 6.97884 13.7492C9.5688 13.3964 15.428 17.8863 15.9641 12.3335" stroke="#3F3C44" stroke-linecap="round" stroke-linejoin="round"/>
<path d="M11.1895 7.41309L13.6355 9.32439" stroke="#3F3C44" stroke-linecap="round" stroke-linejoin="round"/>
<path d="M16.0869 10.52L21.2884 6.24414" stroke="#3F3C44" stroke-linecap="round" stroke-linejoin="round"/>
<path d="M16.1747 4.639C16.6892 4.639 17.1063 4.22193 17.1063 3.70744C17.1063 3.19295 16.6892 2.77588 16.1747 2.77588C15.6602 2.77588 15.2432 3.19295 15.2432 3.70744C15.2432 4.22193 15.6602 4.639 16.1747 4.639Z" fill="#3F3C44"/>
<path d="M5.57964 23.4654C6.45907 23.4654 7.17198 22.7525 7.17198 21.8731C7.17198 20.9937 6.45907 20.2808 5.57964 20.2808C4.70022 20.2808 3.9873 20.9937 3.9873 21.8731C3.9873 22.7525 4.70022 23.4654 5.57964 23.4654Z" stroke="#3F3C44" stroke-linecap="round" stroke-linejoin="round"/>
</svg>
