<svg width="56" height="56" viewBox="0 0 56 56" fill="none" xmlns="http://www.w3.org/2000/svg">
<rect x="10.1543" y="49.3762" width="43.6788" height="36.0825" rx="0.189908" transform="rotate(-90 10.1543 49.3762)" stroke="white" stroke-width="3.32338"/>
<rect x="15.8535" y="42.3492" width="10.1736" height="9.49539" rx="0.189908" transform="rotate(-90 15.8535 42.3492)" stroke="white" stroke-width="2.37385"/>
<rect x="15.8535" y="19.9674" width="6.10414" height="24.688" rx="0.189908" transform="rotate(-90 15.8535 19.9674)" stroke="white" stroke-width="2.37385"/>
<path d="M15.8535 25.9019C15.198 25.9019 14.6666 26.4333 14.6666 27.0889C14.6666 27.7444 15.198 28.2758 15.8535 28.2758V25.9019ZM40.5415 28.2758C41.197 28.2758 41.7284 27.7444 41.7284 27.0889C41.7284 26.4333 41.197 25.9019 40.5415 25.9019V28.2758ZM15.8535 28.2758H40.5415V25.9019H15.8535V28.2758Z" fill="white"/>
<path d="M31.0449 40.593C30.3894 40.593 29.858 41.1244 29.858 41.7799C29.858 42.4354 30.3894 42.9668 31.0449 42.9668V40.593ZM40.5403 42.9668C41.1958 42.9668 41.7272 42.4354 41.7272 41.7799C41.7272 41.1244 41.1958 40.593 40.5403 40.593V42.9668ZM31.0449 42.9668H40.5403V40.593H31.0449V42.9668Z" fill="white"/>
<path d="M31.0449 33.0236C30.3894 33.0236 29.858 33.5551 29.858 34.2106C29.858 34.8661 30.3894 35.3975 31.0449 35.3975V33.0236ZM40.5403 35.3975C41.1958 35.3975 41.7272 34.8661 41.7272 34.2106C41.7272 33.5551 41.1958 33.0236 40.5403 33.0236V35.3975ZM31.0449 35.3975H40.5403V33.0236H31.0449V35.3975Z" fill="white"/>
</svg>
