<svg width="56" height="56" viewBox="0 0 56 56" fill="none" xmlns="http://www.w3.org/2000/svg">
<path d="M48.0209 41.7705L44.248 46.6329C44.2415 46.6412 44.2296 46.6427 44.2213 46.6363L28.1055 34.1317C28.1024 34.1293 28.1001 34.126 28.099 34.1222L26.5737 29.0839C26.5699 29.0714 26.5795 29.0589 26.5925 29.0594L31.8908 29.2353C31.8948 29.2355 31.8986 29.2369 31.9018 29.2393L48.0175 41.7438C48.0258 41.7503 48.0273 41.7622 48.0209 41.7705Z" stroke="white" stroke-width="3.32338"/>
<path d="M13.293 19.703C12.6374 19.703 12.106 20.2344 12.106 20.8899C12.106 21.5454 12.6374 22.0768 13.293 22.0768V19.703ZM30.3847 22.0768C31.0402 22.0768 31.5716 21.5454 31.5716 20.8899C31.5716 20.2344 31.0402 19.703 30.3847 19.703V22.0768ZM13.293 22.0768L30.3847 22.0768V19.703L13.293 19.703V22.0768Z" fill="white"/>
<path d="M36.082 19.703C35.4265 19.703 34.8951 20.2344 34.8951 20.8899C34.8951 21.5454 35.4265 22.0768 36.082 22.0768V19.703ZM39.8802 22.0768C40.5357 22.0768 41.0671 21.5454 41.0671 20.8899C41.0671 20.2344 40.5357 19.703 39.8802 19.703V22.0768ZM36.082 22.0768H39.8802V19.703H36.082V22.0768Z" fill="white"/>
<path d="M13.293 27.2992C12.6374 27.2992 12.106 27.8306 12.106 28.4861C12.106 29.1416 12.6374 29.673 13.293 29.673V27.2992ZM43.6782 29.673C44.3337 29.673 44.8651 29.1416 44.8651 28.4861C44.8651 27.8306 44.3337 27.2992 43.6782 27.2992V29.673ZM37.0314 27.2992C36.3759 27.2992 35.8445 27.8306 35.8445 28.4861C35.8445 29.1416 36.3759 29.673 37.0314 29.673V27.2992ZM20.8893 29.673C21.5448 29.673 22.0762 29.1416 22.0762 28.4861C22.0762 27.8306 21.5448 27.2992 20.8893 27.2992V29.673ZM37.981 29.673H43.6782V27.2992H37.981V29.673ZM13.293 29.673H18.9902V27.2992H13.293V29.673ZM37.0314 29.673L37.981 29.673V27.2992L37.0314 27.2992V29.673ZM18.9902 29.673H20.8893V27.2992H18.9902V29.673Z" fill="white"/>
<path d="M43.8716 38.86C47.2659 35.5429 49.3254 31.1856 49.3254 26.4134C49.3254 16.021 39.5585 7.59631 27.5104 7.59631C15.4622 7.59631 5.69531 16.021 5.69531 26.4134C5.69531 31.1856 7.75485 35.5429 11.1491 38.86C11.7522 39.4494 5.91334 46.9567 6.59663 47.4769C7.60685 48.246 15.0062 44.6681 18.1261 43.7639C22.286 44.6681 23.4312 45.2304 27.5104 45.2304C31.7629 45.2304 35.7312 44.1809 39.0862 42.3657" stroke="white" stroke-width="3.32338"/>
</svg>
