<svg width="57" height="56" viewBox="0 0 57 56" fill="none" xmlns="http://www.w3.org/2000/svg">
<path d="M39.1344 34.2715L38.6723 35.8677L39.1344 34.2715ZM27.7419 34.8486L27.594 33.1935L27.7419 34.8486ZM19.001 41.1682C19.5911 41.8711 20.6393 41.9625 21.3421 41.3723C22.045 40.7822 22.1364 39.7341 21.5463 39.0312L19.001 41.1682ZM33.1449 48.4801L33.2928 50.1352L33.1449 48.4801ZM22.2768 46.3638L22.5944 44.7328L22.2768 46.3638ZM24.8782 41.2796L25.0822 39.6304L24.8782 41.2796ZM31.5389 42.7932C32.4508 42.6893 33.1057 41.8659 33.0018 40.9541C32.8979 40.0423 32.0745 39.3873 31.1627 39.4912L31.5389 42.7932ZM47.8242 38.8955L46.5697 37.8057L47.8242 38.8955ZM47.7971 38.6928L48.7165 37.3086L47.7971 38.6928ZM41.7157 45.9273L40.4612 44.8375L41.7157 45.9273ZM41.6676 45.9627L42.2969 47.5007L41.6676 45.9627ZM42.9702 47.017L49.0786 39.9852L46.5697 37.8057L40.4612 44.8375L42.9702 47.017ZM48.7165 37.3086C47.9416 36.794 43.2762 33.7407 39.5965 32.6754L38.6723 35.8677C41.7837 36.7684 46.0363 39.5182 46.8778 40.0771L48.7165 37.3086ZM39.5965 32.6754C37.1757 31.9745 34.6942 32.0937 32.5997 32.3729C31.5469 32.5133 30.5526 32.7003 29.701 32.8583C28.8196 33.0218 28.135 33.1452 27.594 33.1935L27.8899 36.5037C28.6186 36.4386 29.4692 36.2814 30.3073 36.1259C31.1752 35.9649 32.0847 35.7944 33.0388 35.6672C34.9581 35.4113 36.9031 35.3555 38.6723 35.8677L39.5965 32.6754ZM27.594 33.1935C26.8018 33.2643 23.6926 33.4196 21.3283 34.2057C20.2114 34.5771 18.7625 35.2399 18.0635 36.5464C17.2191 38.1246 17.8325 39.7764 19.001 41.1682L21.5463 39.0312C21.1544 38.5645 21.0386 38.2747 21.0088 38.1504C20.9956 38.0959 21.0006 38.0806 20.9991 38.093C20.9975 38.1065 20.9927 38.1164 20.9939 38.1142C21.0425 38.0233 21.3641 37.6961 22.377 37.3593C24.2722 36.7291 26.8593 36.5958 27.8899 36.5037L27.594 33.1935ZM41.0384 44.4248C40.8471 44.5031 39.4953 45.0515 37.8346 45.6107C36.1319 46.1841 34.2688 46.7114 32.997 46.825L33.2928 50.1352C34.9924 49.9833 37.1832 49.3368 38.8952 48.7603C40.6494 48.1697 42.0732 47.5922 42.2969 47.5007L41.0384 44.4248ZM32.997 46.825C31.754 46.9361 30.2366 46.663 28.3964 46.1953C26.6619 45.7544 24.5681 45.1171 22.5944 44.7328L21.9592 47.9949C23.8202 48.3573 25.6114 48.9165 27.5777 49.4163C29.4384 49.8892 31.4376 50.301 33.2928 50.1352L32.997 46.825ZM22.5944 44.7328C19.6794 44.1652 16.0728 42.7988 13.2132 41.3927C11.7858 40.6908 10.6049 40.0084 9.82162 39.4497C9.42176 39.1644 9.1887 38.9557 9.07994 38.834C9.025 38.7726 9.04933 38.7855 9.0897 38.8696C9.12664 38.9465 9.24497 39.2264 9.16864 39.6183L5.90652 38.9831C5.79742 39.5435 5.95369 40.0163 6.09364 40.3078C6.237 40.6065 6.42938 40.8555 6.60185 41.0485C6.94793 41.4358 7.40716 41.8096 7.89163 42.1552C8.87699 42.8581 10.2328 43.6306 11.7467 44.375C14.7697 45.8615 18.6638 47.3533 21.9592 47.9949L22.5944 44.7328ZM9.16864 39.6183C9.20607 39.4261 9.27254 39.3531 9.3447 39.2967C9.45079 39.2139 9.65753 39.1124 10.0163 39.047C10.7572 38.9119 11.6977 39.0083 12.4022 39.1454L13.0374 35.8833C12.1893 35.7182 10.7677 35.5318 9.42014 35.7775C8.73463 35.9025 7.96555 36.1572 7.29964 36.6771C6.59979 37.2234 6.09807 37.9994 5.90652 38.9831L9.16864 39.6183ZM12.4022 39.1454C12.8119 39.2252 13.502 39.443 14.4662 39.7844C15.421 40.1226 16.472 40.5184 17.66 40.9473C19.9317 41.7675 22.5962 42.6717 24.6743 42.9287L25.0822 39.6304C23.4343 39.4267 21.1162 38.6618 18.7886 37.8214C17.6769 37.42 16.524 36.9876 15.5757 36.6517C14.6368 36.3192 13.7244 36.0171 13.0374 35.8833L12.4022 39.1454ZM24.6743 42.9287C26.0923 43.1041 27.834 43.0615 29.1551 42.9871C29.8296 42.9491 30.4214 42.901 30.8453 42.8624C31.0575 42.8431 31.2284 42.8261 31.3474 42.8138C31.407 42.8076 31.4535 42.8026 31.4859 42.7991C31.5021 42.7973 31.5147 42.7959 31.5236 42.7949C31.528 42.7944 31.5315 42.794 31.5341 42.7938C31.5354 42.7936 31.5364 42.7935 31.5372 42.7934C31.5376 42.7934 31.538 42.7933 31.5383 42.7933C31.5384 42.7933 31.5386 42.7932 31.5386 42.7932C31.5388 42.7932 31.5389 42.7932 31.3508 41.1422C31.1627 39.4912 31.1628 39.4912 31.1629 39.4912C31.1629 39.4912 31.163 39.4912 31.163 39.4912C31.163 39.4911 31.163 39.4911 31.163 39.4912C31.1628 39.4912 31.1624 39.4912 31.1618 39.4913C31.1605 39.4914 31.1584 39.4917 31.1553 39.492C31.1491 39.4927 31.1392 39.4938 31.1258 39.4953C31.0991 39.4982 31.0585 39.5025 31.0051 39.5081C30.8984 39.5191 30.7412 39.5348 30.544 39.5527C30.1489 39.5887 29.5962 39.6336 28.9682 39.6689C27.6844 39.7413 26.1898 39.7674 25.0822 39.6304L24.6743 42.9287ZM49.0786 39.9852C49.7836 39.1737 49.6284 37.9142 48.7165 37.3086L46.8778 40.0771C46.1029 39.5624 45.9726 38.4931 46.5697 37.8057L49.0786 39.9852ZM40.4612 44.8375C40.5131 44.7778 40.5908 44.6981 40.6972 44.6183C40.8066 44.5364 40.9222 44.4723 41.0384 44.4248L42.2969 47.5007C42.5999 47.3767 42.8188 47.1912 42.9702 47.017L40.4612 44.8375Z" fill="white"/>
<rect x="19.9707" y="5.69727" width="18.9908" height="18.9908" rx="3.79815" stroke="white" stroke-width="3.32338"/>
</svg>
