<svg width="56" height="56" viewBox="0 0 56 56" fill="none" xmlns="http://www.w3.org/2000/svg">
<path d="M6.9668 15.1927C6.9668 12.0462 9.51753 9.49548 12.664 9.49548H44.3949C47.5414 9.49548 50.0921 12.0462 50.0921 15.1927V34.1835C50.0921 37.33 47.5414 39.8807 44.3949 39.8807H29.0024V39.8807C28.3692 39.8807 27.7701 40.1597 27.3316 40.6165C25.9391 42.0671 22.3952 45.4034 16.8405 48.2577C16.7029 48.3285 16.5422 48.2116 16.5649 48.0585C17.2694 43.3043 16.7023 40.623 16.5456 40.0146C16.5249 39.9345 16.4522 39.8807 16.3694 39.8807H12.664C9.51753 39.8807 6.9668 37.33 6.9668 34.1835V15.1927Z" stroke="white" stroke-width="3.32338"/>
<path d="M35.1389 24.5205C35.273 24.592 35.273 24.7841 35.1389 24.8556L23.7382 30.936C23.6117 31.0034 23.459 30.9118 23.459 30.7684V18.6077C23.459 18.4643 23.6117 18.3726 23.7382 18.4401L35.1389 24.5205Z" stroke="white" stroke-width="3.32338"/>
</svg>
