<svg width="57" height="56" viewBox="0 0 57 56" fill="none" xmlns="http://www.w3.org/2000/svg">
<path d="M46.5571 21.8391H48.2188C48.2188 21.3984 48.0437 20.9757 47.7321 20.6641L46.5571 21.8391ZM30.4149 5.69696L31.5899 4.52197C31.2783 4.21034 30.8556 4.03527 30.4149 4.03527V5.69696ZM12.1363 47.4767L12.1363 7.59604H8.81292L8.81292 47.4767H12.1363ZM44.658 47.714H12.3737V51.0374H44.658V47.714ZM30.6048 23.5008L46.5571 23.5008V20.1774L30.6048 20.1774L30.6048 23.5008ZM44.8954 21.8391V47.4767H48.2188V21.8391H44.8954ZM12.3737 7.35865H30.4149V4.03527H12.3737V7.35865ZM28.7532 5.69696L28.7532 21.6492H32.0766V5.69696H28.7532ZM47.7321 20.6641L31.5899 4.52197L29.2399 6.87196L45.3821 23.0141L47.7321 20.6641ZM44.658 51.0374C46.6246 51.0374 48.2188 49.4432 48.2188 47.4767H44.8954C44.8954 47.6078 44.7891 47.714 44.658 47.714V51.0374ZM30.6048 20.1774C31.4177 20.1774 32.0766 20.8364 32.0766 21.6492H28.7532C28.7532 22.6718 29.5822 23.5008 30.6048 23.5008L30.6048 20.1774ZM12.1363 7.59604C12.1363 7.46493 12.2426 7.35865 12.3737 7.35865V4.03527C10.4071 4.03527 8.81292 5.62948 8.81292 7.59604H12.1363ZM8.81292 47.4767C8.81292 49.4432 10.4071 51.0374 12.3737 51.0374V47.714C12.2426 47.714 12.1363 47.6078 12.1363 47.4767H8.81292Z" fill="white"/>
<path d="M21.0118 28.6759C21.4726 28.6759 21.9024 28.8088 22.3012 29.0747C22.7089 29.3406 23.0368 29.6995 23.285 30.1515C23.5331 30.6035 23.6572 31.1086 23.6572 31.6669C23.6572 32.2164 23.5331 32.7171 23.285 33.1691C23.0368 33.6211 22.7089 33.9845 22.3012 34.2592C21.9024 34.5251 21.4726 34.658 21.0118 34.658H18.5657L18.6987 34.4187V37.1705C18.6987 37.4009 18.6278 37.5959 18.486 37.7554C18.3442 37.9061 18.1581 37.9814 17.9277 37.9814C17.7061 37.9814 17.5244 37.9061 17.3826 37.7554C17.2408 37.5959 17.1699 37.4009 17.1699 37.1705V29.4868C17.1699 29.2564 17.2453 29.0658 17.3959 28.9152C17.5554 28.7557 17.7504 28.6759 17.9808 28.6759H21.0118ZM21.0118 33.1425C21.1801 33.1425 21.3441 33.0716 21.5036 32.9298C21.6631 32.788 21.7961 32.6064 21.9024 32.3848C22.0088 32.1544 22.0619 31.9151 22.0619 31.6669C22.0619 31.4099 22.0088 31.1707 21.9024 30.9491C21.7961 30.7275 21.6631 30.5503 21.5036 30.4174C21.3441 30.2756 21.1801 30.2047 21.0118 30.2047H18.5392L18.6987 29.9654V33.3552L18.5524 33.1425H21.0118Z" fill="white"/>
<path d="M28.3263 28.6759C28.9643 28.6759 29.5315 28.7955 30.0278 29.0348C30.5241 29.2741 30.9407 29.6109 31.2774 30.0451C31.6231 30.4705 31.8801 30.9668 32.0484 31.534C32.2257 32.0923 32.3143 32.6906 32.3143 33.3286C32.3143 34.1883 32.1592 34.9726 31.849 35.6816C31.5389 36.3817 31.0869 36.9401 30.4931 37.3566C29.9082 37.7731 29.1859 37.9814 28.3263 37.9814H25.9907C25.7603 37.9814 25.5653 37.9061 25.4058 37.7554C25.2551 37.5959 25.1798 37.4009 25.1798 37.1705V29.4868C25.1798 29.2564 25.2551 29.0658 25.4058 28.9152C25.5653 28.7557 25.7603 28.6759 25.9907 28.6759H28.3263ZM28.1933 36.4526C28.7517 36.4526 29.2081 36.3108 29.5626 36.0272C29.9171 35.7348 30.1741 35.3537 30.3336 34.884C30.502 34.4054 30.5862 33.887 30.5862 33.3286C30.5862 32.9121 30.5374 32.5177 30.4399 32.1455C30.3513 31.7644 30.2095 31.4321 30.0145 31.1485C29.8196 30.856 29.5714 30.6256 29.2701 30.4572C28.9688 30.2889 28.6099 30.2047 28.1933 30.2047H26.7086L26.8415 30.085V36.5989L26.7617 36.4526H28.1933Z" fill="white"/>
<path d="M34.8059 37.9814C34.5578 37.9814 34.3539 37.9061 34.1944 37.7554C34.0437 37.5959 33.9684 37.4009 33.9684 37.1705V29.4868C33.9684 29.2564 34.0437 29.0658 34.1944 28.9152C34.3539 28.7557 34.5489 28.6759 34.7793 28.6759H39.0997C39.3301 28.6759 39.5207 28.7512 39.6713 28.9019C39.8309 29.0437 39.9106 29.2298 39.9106 29.4602C39.9106 29.6552 39.8309 29.828 39.6713 29.9787C39.5207 30.1293 39.3301 30.2047 39.0997 30.2047H35.5105L35.6301 30.0451V32.7171L35.5371 32.5443H38.5015C38.7319 32.5443 38.9225 32.6197 39.0731 32.7703C39.2327 32.9121 39.3124 33.0982 39.3124 33.3286C39.3124 33.5236 39.2327 33.6964 39.0731 33.8471C38.9225 33.9978 38.7319 34.0731 38.5015 34.0731H35.5105L35.6301 33.9534V37.1705C35.6301 37.4009 35.5459 37.5959 35.3775 37.7554C35.218 37.9061 35.0275 37.9814 34.8059 37.9814Z" fill="white"/>
</svg>
