<svg width="13" height="13" viewBox="0 0 13 13" fill="none" xmlns="http://www.w3.org/2000/svg">
<path fill-rule="evenodd" clip-rule="evenodd" d="M11.0821 5.155H7.01045V1C7.01045 0.445 6.57159 0 6.03086 0C5.49012 0 5.05127 0.445 5.05127 1V5.155H0.979592C0.438367 5.155 0 5.605 0 6.155C0 6.71 0.438367 7.155 0.979592 7.155H5.05127V11.31C5.05127 11.865 5.49012 12.31 6.03086 12.31C6.57159 12.31 7.01045 11.865 7.01045 11.31V7.155H11.0821C11.6233 7.155 12.0617 6.71 12.0617 6.155C12.0617 5.605 11.6233 5.155 11.0821 5.155Z" fill="#FFB700"/>
</svg>
