<svg width="24" height="25" viewBox="0 0 24 25" fill="none" xmlns="http://www.w3.org/2000/svg">
<path d="M17.9094 0.00528459C17.7085 0.0294176 17.5166 0.123647 17.3747 0.267927L1.76627 15.8764C1.647 15.9938 1.56147 16.1451 1.52239 16.3079L0.0215794 22.9114C-0.0460419 23.2071 0.0482338 23.5346 0.26268 23.749C0.477126 23.9635 0.804651 24.0578 1.10029 23.9901L7.70386 22.4893C7.8699 22.4519 8.02478 22.3662 8.14472 22.2454L23.7532 6.637C24.0823 6.30411 24.0823 5.70358 23.7532 5.37069L18.6504 0.267927C18.46 0.0748427 18.1789 -0.0247782 17.9094 0.00528459ZM18.0126 2.17208L21.8396 6.00853L20.1137 7.73447L16.2866 3.9074L18.0126 2.17208ZM15.0109 5.17371L18.838 9.01016L7.80704 20.0411L3.97997 16.2141L15.0109 5.17371ZM3.03258 17.8087L6.21243 20.9885L2.10396 21.9171L3.03258 17.8087Z" fill="#5FDEA1"/>
</svg>
