<svg id="illustration" xmlns="http://www.w3.org/2000/svg" viewBox="0 0 500 500"><defs><style>.cls-1{fill:#fac25e;}.cls-2{fill:#ffc7bd;}.cls-3{fill:#fea192;}.cls-4{fill:#ef7763;}.cls-5{fill:#dbf1fb;}</style></defs><rect class="cls-1" x="364.3" y="204.51" width="5.88" height="72.49" transform="translate(169.58 -151.37) rotate(30)"/><rect class="cls-1" x="408.41" y="204.51" width="5.88" height="72.49" transform="translate(887.97 243.58) rotate(150)"/><path class="cls-2" d="M444.12,265.87a54.83,54.83,0,0,1-109.65,0"/><path class="cls-3" d="M345.6,265.9l-9.56,13a52.73,52.73,0,0,0,1.81,6l14-19Z"/><path class="cls-3" d="M364.44,265.9l-21.51,29.24q1.43,2.24,3,4.32l24.69-33.56Z"/><path class="cls-3" d="M383.29,265.9,353.05,307q1.88,1.65,3.9,3.14l32.54-44.25Z"/><path class="cls-3" d="M402.13,265.9l-36.41,49.5q2.31,1.11,4.74,2l37.88-51.5Z"/><path class="cls-3" d="M421,265.9,381.1,320.11a55.29,55.29,0,0,0,5.8.55l40.28-54.76Z"/><path class="cls-3" d="M444.12,265.9h-4.3l-39.51,53.71a52.92,52.92,0,0,0,7.84-2.22l35.9-48.81C444.1,267.69,444.12,266.8,444.12,265.9Z"/><rect class="cls-1" x="248.76" y="23.52" width="10" height="283.35" transform="matrix(0.29, -0.96, 0.96, 0.29, 21.84, 359.88)"/><rect class="cls-1" x="241.63" y="166.76" width="14.62" height="226.49"/><path class="cls-1" d="M168.29,389.63h159.8a7.45,7.45,0,0,1,7.45,7.45v17.87a0,0,0,0,1,0,0H160.83a0,0,0,0,1,0,0V397.08A7.45,7.45,0,0,1,168.29,389.63Z"/><circle class="cls-4" cx="248.19" cy="164.27" r="17.02"/><circle class="cls-4" cx="389.3" cy="206.44" r="12.51"/><rect class="cls-1" x="91.77" y="123.35" width="5.88" height="72.49" transform="translate(92.49 -25.97) rotate(30)"/><rect class="cls-1" x="135.87" y="123.35" width="5.88" height="72.49" transform="translate(338.83 228.41) rotate(150)"/><path class="cls-5" d="M171.59,184.71a54.83,54.83,0,1,1-109.65,0"/><circle class="cls-4" cx="116.76" cy="125.29" r="12.51"/></svg>