<svg id="Layer_1" data-name="Layer 1" xmlns="http://www.w3.org/2000/svg" viewBox="0 0 500 500"><defs><style>.cls-1{fill:#fff;}.cls-2{fill:#ee7c69;}.cls-3{fill:#a2c9df;}.cls-4{fill:#dbf1fb;}</style></defs><path class="cls-1" d="M454.08,124.34H57.88a10.71,10.71,0,0,0-10.71,10.71V427.68a10.7,10.7,0,0,0,10.71,10.71h396.2a10.71,10.71,0,0,0,10.71-10.71V135.05A10.72,10.72,0,0,0,454.08,124.34Z"/><path class="cls-2" d="M57.88,121.92h396.2a10.72,10.72,0,0,1,10.71,10.71v38.44H47.17V132.63a10.7,10.7,0,0,1,10.71-10.71Z"/><path class="cls-2" d="M118.12,205.85H100.37a10.71,10.71,0,0,0-10.71,10.71v17.76A10.7,10.7,0,0,0,100.37,245h17.75a10.71,10.71,0,0,0,10.71-10.7V216.56A10.72,10.72,0,0,0,118.12,205.85Z"/><path class="cls-3" d="M165.73,205.85H148a10.71,10.71,0,0,0-10.71,10.71v17.76A10.7,10.7,0,0,0,148,245h17.75a10.71,10.71,0,0,0,10.71-10.7V216.56A10.72,10.72,0,0,0,165.73,205.85Z"/><path class="cls-3" d="M213.62,205.85H195.86a10.72,10.72,0,0,0-10.71,10.71v17.76A10.71,10.71,0,0,0,195.86,245h17.76a10.7,10.7,0,0,0,10.7-10.7V216.56A10.71,10.71,0,0,0,213.62,205.85Z"/><path class="cls-3" d="M263.26,205.85H245.51a10.71,10.71,0,0,0-10.71,10.71v17.76A10.7,10.7,0,0,0,245.51,245h17.75A10.71,10.71,0,0,0,274,234.32V216.56A10.72,10.72,0,0,0,263.26,205.85Z"/><path class="cls-3" d="M312.82,205.85H295.06a10.72,10.72,0,0,0-10.71,10.71v17.76A10.71,10.71,0,0,0,295.06,245h17.76a10.7,10.7,0,0,0,10.7-10.7V216.56A10.71,10.71,0,0,0,312.82,205.85Z"/><path class="cls-3" d="M362.2,205.85H344.45a10.71,10.71,0,0,0-10.71,10.71v17.76A10.7,10.7,0,0,0,344.45,245H362.2a10.7,10.7,0,0,0,10.71-10.7V216.56A10.71,10.71,0,0,0,362.2,205.85Z"/><path class="cls-2" d="M411.59,205.85H393.83a10.71,10.71,0,0,0-10.7,10.71v17.76a10.7,10.7,0,0,0,10.7,10.7h17.76a10.71,10.71,0,0,0,10.71-10.7V216.56A10.72,10.72,0,0,0,411.59,205.85Z"/><path class="cls-2" d="M118.12,259.27H100.37A10.7,10.7,0,0,0,89.66,270v17.76a10.71,10.71,0,0,0,10.71,10.71h17.75a10.72,10.72,0,0,0,10.71-10.71V270A10.71,10.71,0,0,0,118.12,259.27Z"/><path class="cls-3" d="M165.73,259.27H148A10.7,10.7,0,0,0,137.27,270v17.76A10.71,10.71,0,0,0,148,298.44h17.75a10.72,10.72,0,0,0,10.71-10.71V270A10.71,10.71,0,0,0,165.73,259.27Z"/><path class="cls-3" d="M213.62,259.27H195.86A10.71,10.71,0,0,0,185.15,270v17.76a10.72,10.72,0,0,0,10.71,10.71h17.76a10.71,10.71,0,0,0,10.7-10.71V270A10.7,10.7,0,0,0,213.62,259.27Z"/><path class="cls-3" d="M263.26,259.27H245.51A10.7,10.7,0,0,0,234.8,270v17.76a10.71,10.71,0,0,0,10.71,10.71h17.75A10.72,10.72,0,0,0,274,287.73V270A10.71,10.71,0,0,0,263.26,259.27Z"/><path class="cls-3" d="M312.82,259.27H295.06A10.71,10.71,0,0,0,284.35,270v17.76a10.72,10.72,0,0,0,10.71,10.71h17.76a10.71,10.71,0,0,0,10.7-10.71V270A10.7,10.7,0,0,0,312.82,259.27Z"/><path class="cls-3" d="M362.2,259.27H344.45A10.7,10.7,0,0,0,333.74,270v17.76a10.71,10.71,0,0,0,10.71,10.71H362.2a10.71,10.71,0,0,0,10.71-10.71V270A10.7,10.7,0,0,0,362.2,259.27Z"/><path class="cls-2" d="M411.59,259.27H393.83a10.7,10.7,0,0,0-10.7,10.7v17.76a10.71,10.71,0,0,0,10.7,10.71h17.76a10.72,10.72,0,0,0,10.71-10.71V270A10.71,10.71,0,0,0,411.59,259.27Z"/><path class="cls-2" d="M118.12,311.24H100.37A10.71,10.71,0,0,0,89.66,322v17.76a10.7,10.7,0,0,0,10.71,10.7h17.75a10.71,10.71,0,0,0,10.71-10.7V322A10.72,10.72,0,0,0,118.12,311.24Z"/><path class="cls-3" d="M165.73,311.24H148A10.71,10.71,0,0,0,137.27,322v17.76A10.7,10.7,0,0,0,148,350.41h17.75a10.71,10.71,0,0,0,10.71-10.7V322A10.72,10.72,0,0,0,165.73,311.24Z"/><path class="cls-3" d="M213.62,311.24H195.86A10.72,10.72,0,0,0,185.15,322v17.76a10.71,10.71,0,0,0,10.71,10.7h17.76a10.7,10.7,0,0,0,10.7-10.7V322A10.71,10.71,0,0,0,213.62,311.24Z"/><path class="cls-3" d="M263.26,311.24H245.51A10.71,10.71,0,0,0,234.8,322v17.76a10.7,10.7,0,0,0,10.71,10.7h17.75A10.71,10.71,0,0,0,274,339.71V322A10.72,10.72,0,0,0,263.26,311.24Z"/><path class="cls-3" d="M312.82,311.24H295.06A10.72,10.72,0,0,0,284.35,322v17.76a10.71,10.71,0,0,0,10.71,10.7h17.76a10.7,10.7,0,0,0,10.7-10.7V322A10.71,10.71,0,0,0,312.82,311.24Z"/><path class="cls-3" d="M362.2,311.24H344.45A10.71,10.71,0,0,0,333.74,322v17.76a10.7,10.7,0,0,0,10.71,10.7H362.2a10.7,10.7,0,0,0,10.71-10.7V322A10.71,10.71,0,0,0,362.2,311.24Z"/><path class="cls-2" d="M411.59,311.24H393.83A10.71,10.71,0,0,0,383.13,322v17.76a10.7,10.7,0,0,0,10.7,10.7h17.76a10.71,10.71,0,0,0,10.71-10.7V322A10.72,10.72,0,0,0,411.59,311.24Z"/><path class="cls-2" d="M118.12,361.76H100.37a10.71,10.71,0,0,0-10.71,10.71v17.76a10.7,10.7,0,0,0,10.71,10.7h17.75a10.71,10.71,0,0,0,10.71-10.7V372.47A10.72,10.72,0,0,0,118.12,361.76Z"/><path class="cls-3" d="M165.73,361.76H148a10.71,10.71,0,0,0-10.71,10.71v17.76A10.7,10.7,0,0,0,148,400.93h17.75a10.71,10.71,0,0,0,10.71-10.7V372.47A10.72,10.72,0,0,0,165.73,361.76Z"/><path class="cls-3" d="M213.62,361.76H195.86a10.72,10.72,0,0,0-10.71,10.71v17.76a10.71,10.71,0,0,0,10.71,10.7h17.76a10.7,10.7,0,0,0,10.7-10.7V372.47A10.71,10.71,0,0,0,213.62,361.76Z"/><path class="cls-3" d="M263.26,361.76H245.51a10.71,10.71,0,0,0-10.71,10.71v17.76a10.7,10.7,0,0,0,10.71,10.7h17.75A10.71,10.71,0,0,0,274,390.23V372.47A10.72,10.72,0,0,0,263.26,361.76Z"/><path class="cls-2" d="M312.82,361.76H295.06a10.72,10.72,0,0,0-10.71,10.71v17.76a10.71,10.71,0,0,0,10.71,10.7h17.76a10.7,10.7,0,0,0,10.7-10.7V372.47A10.71,10.71,0,0,0,312.82,361.76Z"/><path class="cls-4" d="M100.82,110.57a2.87,2.87,0,0,0-5.74,0v33.07a2.87,2.87,0,0,0,5.74,0Z"/><path class="cls-4" d="M170.25,110.57a2.87,2.87,0,0,0-5.74,0v33.07a2.87,2.87,0,0,0,5.74,0Z"/><path class="cls-4" d="M405.57,107.81a2.87,2.87,0,0,0-5.74,0v33.07a2.87,2.87,0,0,0,5.74,0Z"/><path class="cls-4" d="M331.51,107.81a2.87,2.87,0,0,0-5.74,0v33.07a2.87,2.87,0,0,0,5.74,0Z"/><path class="cls-4" d="M250.88,107.81a2.87,2.87,0,0,0-5.74,0v33.07a2.87,2.87,0,0,0,5.74,0Z"/><path class="cls-4" d="M98.18,159.68a10.07,10.07,0,1,0-10.06-10.07A10.07,10.07,0,0,0,98.18,159.68Z"/><path class="cls-4" d="M167.38,159.68a10.07,10.07,0,1,0-10.07-10.07A10.06,10.06,0,0,0,167.38,159.68Z"/><path class="cls-4" d="M248,156.57A10.07,10.07,0,1,0,238,146.51,10.06,10.06,0,0,0,248,156.57Z"/><path class="cls-4" d="M328.64,156.57a10.07,10.07,0,1,0-10.06-10.06A10.06,10.06,0,0,0,328.64,156.57Z"/><path class="cls-4" d="M402.7,156.57a10.07,10.07,0,1,0-10.06-10.06A10.06,10.06,0,0,0,402.7,156.57Z"/></svg>