<svg id="illustration" xmlns="http://www.w3.org/2000/svg" viewBox="0 0 500 500"><defs><style>.cls-1{fill:#ecc29c;}.cls-2{fill:#a69d98;}.cls-3{fill:#e1e1e1;}.cls-4{fill:#f8c66c;}.cls-5{fill:#ea583f;}</style></defs><polygon class="cls-1" points="139.25 399.15 126.98 501.75 386.65 501.75 333.28 373.44 242.54 360.12 139.25 399.15"/><path class="cls-2" d="M419.21,501.75c-9.07-4.64-8.32-25.5-8.32-25.5-6.42-56.22-24.2-60.44-24.2-60.44-18.53-91.36-97.8-75.37-97.8-75.37-75.42-34.88-89.46,12.18-89.46,12.18-33.58-3.17-67.68,6.73-83.42,38.71A87.4,87.4,0,0,0,107,429.22c-9.4,6.44-13.35,28.52-10.4,44.85s-1.25,27.66-1.25,27.66l68.5,0-1.74-9.83c-.1-.16-6-.53-6.85-.91a12.45,12.45,0,0,1-5.22-4.34c-3.19-4.43-5.48-11.86-3.71-17.13a14,14,0,0,1,7.22-7.64,39.18,39.18,0,0,1,10.32-3c-4.84-17.14,5.4-35.47,16.57-48,75-5,113.14-25.87,113.14-25.87s9.34,13.72,30,16.88c20.3,3.1,25.08,28,25.25,28.94,1.91,10.36,1.13,22.11,1.47,32.64,0,.18,6.48,2.14,7.06,2.41,2.83,1.32,5.58,3.19,6.71,6.24,1.06,2.88.39,6.12-.78,8.95-2.35,5.65-7.94,13.39-14.85,13.05l.32,7.61"/><path class="cls-3" d="M183.14,89.21s27.25-53.14,83.1-32.2c0,0,41.78-9.3,50.51,29.46,0,0,47.8-8.49,52.32,25.26,0,0,35.76-9.66,44.2,14.16,0,0-5.17,24.87-45.46,14.4,0,0-21.68,19-64.73.09,0,0-23.56,21.34-77.52-2.19-1.41-.61-8.83,2.91-10.38,3.31A119.64,119.64,0,0,1,194.94,145a140.62,140.62,0,0,1-45.63-4c-3.9-1-7.84-2.12-11.15-4.41-8.69-6-11.2-22.67-5.53-31.54C142.3,89.85,167.56,89.34,183.14,89.21Z"/><polygon class="cls-4" points="258 172.03 293.65 170.59 275.03 204.76 298.58 199.59 222.38 310.22 261.61 215.91 232.67 219.34 258 172.03"/><polygon class="cls-5" points="365.14 327.39 340.11 285.09 374.1 283.45 363.82 246.44 407.84 249.72 407.1 259.69 377.26 257.47 387.09 292.84 357.17 294.28 373.74 322.3 365.14 327.39"/><polygon class="cls-5" points="151.36 330.15 141.99 295.21 108.05 317.04 114.14 279.78 81.68 287.06 97.55 238.84 107.05 241.97 96.69 273.44 126.39 266.78 121.54 296.47 148.1 279.39 161.02 327.56 151.36 330.15"/><path class="cls-1" d="M366.52,479.43c0,9.81-11.81,21.15-20.8,21.15S334,489.24,334,479.43s7.27-17.8,16.26-17.8S366.52,469.64,366.52,479.43Z"/><path class="cls-1" d="M160.82,459.11c9,0,16.26,8,16.26,17.79s-2.73,21.16-11.72,21.16-20.8-11.35-20.8-21.16S151.83,459.11,160.82,459.11Z"/></svg>