<svg id="illustration" xmlns="http://www.w3.org/2000/svg" viewBox="0 0 500 500"><defs><style>.cls-1{fill:#4e56a9;}.cls-2{fill:#dbf1fb;}.cls-3{fill:#f8c66c;}.cls-4{fill:#ee7c69;}.cls-5{fill:#2a327a;}</style></defs><rect class="cls-1" x="111.82" y="95.15" width="274.95" height="339.5" rx="14.29"/><rect class="cls-2" x="140.11" y="112.34" width="222.48" height="272.53"/><path class="cls-3" d="M288.77,90.86c-5.43-18.39-21-31.68-39.48-31.68s-34,13.29-39.48,31.68h-53v17.72c0,6,4.37,10.8,9.76,10.8H332c5.39,0,9.76-4.83,9.76-10.8V90.86Z"/><rect class="cls-4" x="227.11" y="169.97" width="118.6" height="9.25"/><rect class="cls-4" x="227.11" y="250.74" width="118.6" height="9.25"/><rect class="cls-4" x="227.11" y="331.51" width="118.6" height="9.25"/><polygon class="cls-5" points="186.57 201.06 163.26 176.78 169.94 170.37 183.95 184.97 203.63 143.41 211.99 147.36 186.57 201.06"/><polygon class="cls-5" points="186.57 280.73 163.26 256.45 169.94 250.05 183.95 264.65 203.63 223.08 211.99 227.04 186.57 280.73"/><polygon class="cls-5" points="186.57 360.41 163.26 336.13 169.94 329.72 183.95 344.32 203.63 302.76 211.99 306.71 186.57 360.41"/></svg>