<svg id="illustration" xmlns="http://www.w3.org/2000/svg" viewBox="0 0 500 500"><defs><style>.cls-1{fill:#df934f;}.cls-2{fill:#a5450f;}.cls-3{fill:#dbf1fb;}.cls-4{fill:#fef8bb;}.cls-5{fill:#ffc7bd;}.cls-6{fill:#a2c9df;}.cls-7{fill:#603118;}.cls-8{fill:#ffd2b1;}.cls-9{fill:#463227;}.cls-10{fill:#4e56a9;}.cls-11{fill:#fdb337;}.cls-12{fill:#f8c66c;}.cls-13{fill:#1a1a46;}.cls-14{fill:#ea583f;}</style></defs><polyline class="cls-1" points="499.98 387.72 59.83 387.72 59.83 60.01 499.66 60.01"/><polygon class="cls-2" points="499.98 395.39 52.16 395.39 52.16 52.34 499.66 52.34 499.66 67.68 67.5 67.68 67.5 380.05 499.98 380.05 499.98 395.39"/><rect class="cls-3" x="115.87" y="108.07" width="150.05" height="209.54"/><rect class="cls-4" x="104.34" y="112.28" width="37.58" height="8.1" transform="translate(292.39 122.99) rotate(138.88)"/><rect class="cls-4" x="104.34" y="306.81" width="37.58" height="8.1" transform="translate(255.88 3.98) rotate(45)"/><rect class="cls-5" x="306.33" y="108.07" width="44.58" height="44.58"/><rect class="cls-5" x="382.25" y="100.43" width="44.58" height="44.58"/><rect class="cls-6" x="306.33" y="187.07" width="120.5" height="140.96"/><polygon class="cls-7" points="221.34 321.41 212.34 356.15 246.75 354.54 235.42 313.37 221.34 321.41"/><polygon class="cls-8" points="419.63 349.45 410.63 384.2 445.04 382.58 433.72 341.42 419.63 349.45"/><path class="cls-9" d="M281.39,288.56s-4.12-53.82-53-54.83c-13.84,0-26.53,4.58-35.33,15.61s-13.53,27-15.08,41.83c-.37,3.57-.56,7.08-.58,10.43-.08,12.37,3.46,26,14.63,32.69s25.23,8.07,38,8.09c5.73,0,11.18.27,16.51.24l4.2-24.62L249,342.62c6.21-.44,16.56-1.84,22.92-4.61C284.41,332.55,281.39,288.56,281.39,288.56Z"/><path class="cls-10" d="M309.34,389.4c-8.42-33.68-23.31-41.9-55.81-41.21l-24,6.46a86.71,86.71,0,0,0-26.53-5.8c-14.3-.64-30.75,5.09-39.56,17.35,0,0-21.76,21.58-21.55,65.46s15.75,68.51,15.75,68.51l23.6-.14.27.14h94.37V500h24.61S317.76,423.08,309.34,389.4ZM179.06,435.85a31.55,31.55,0,0,1,.43-4.19S179.32,433.22,179.06,435.85Z"/><path class="cls-6" d="M188.14,499.94s-8.43-39-9.08-75.78c0,0,8,67,11.72,75.81Z"/><path class="cls-6" d="M269,499.94s8.42-39,9.08-75.78c0,0-8,67-11.72,75.81Z"/><path class="cls-11" d="M500,389.88c-9.3-14.56-23.6-18.57-47.14-18.08,0,0-36.22,1.25-50.52.63s-30.75,4.88-39.56,16.66c0,0-14.38,20.73-14.17,62.88s.38,48.18.38,48.18l29.39-.17c.09,0,9,.13,9.08.17l86.2-.19s16.76.29,16.75.19H500ZM378.36,456a29.13,29.13,0,0,1,.43-4S378.62,453.46,378.36,456Z"/><path class="cls-12" d="M387.16,499.94s-8.43-39-9.08-75.78c0,0,8,67,11.72,75.81Z"/><path class="cls-12" d="M472.24,499.94s8.43-39,9.08-75.78c0,0-8,67-11.71,75.81Z"/><path class="cls-13" d="M385.81,292.8s-8.26,70.29,46.67,70c0,0,36,3.94,37.44-72.14,0,0,3.64-22-11.75-16.08,0,0-12.77-17.31-24.62-3.6,0,0-14.15-15.23-27.91,1.29C405.64,272.24,389.29,268.85,385.81,292.8Z"/><rect class="cls-4" x="294.76" y="319.33" width="37.58" height="8.1" transform="translate(320.5 -126.99) rotate(45)"/><rect class="cls-4" x="402.06" y="192" width="37.58" height="8.1" transform="translate(261.89 -240.16) rotate(45)"/><rect class="cls-4" x="240.68" y="110.34" width="37.58" height="8.1" transform="translate(156.89 -149.97) rotate(45)"/><rect class="cls-4" x="291.77" y="189.6" width="37.58" height="8.1" transform="matrix(-0.78, 0.62, -0.62, -0.78, 674.29, 153.07)"/><circle class="cls-14" cx="404.54" cy="108.07" r="2.53"/><circle class="cls-14" cx="328.62" cy="116.33" r="2.53"/></svg>