<svg id="illustration" xmlns="http://www.w3.org/2000/svg" viewBox="0 0 500 500"><defs><style>.cls-1{fill:#ffe8e4;}.cls-2{fill:#fef8bb;}</style></defs><path class="cls-1" d="M291.94,227.9c-7.6-38.56-39-60.69-49-66.91-25.19,16.93-39.56,38-42.38,62.87-6.9,60.78,43.41,105.39,50.54,117.21C257.06,331.14,301.81,277.91,291.94,227.9Z"/><path class="cls-1" d="M86.27,286.47C105,319.68,137,340.21,181.64,347.55a230.39,230.39,0,0,0,56.67,1.83,282.68,282.68,0,0,1-23-31.73c-18.63-16.21-42.29-26.57-70.79-30.92A207.94,207.94,0,0,0,86.27,286.47Z"/><path class="cls-1" d="M263.22,349.32a230.51,230.51,0,0,0,57.28-1.77c44.64-7.34,76.68-27.87,95.37-61.08a216.82,216.82,0,0,0-58.21.26C295.66,295.63,270.5,340,263.22,349.32Z"/><path class="cls-2" d="M304.4,225.43c4.41,22.16,1.46,45.63-8.74,70.2,17.38-10.81,37.66-18.08,60.5-21.52,4.14-.63,8.2-1.09,12.15-1.45,14.93-32.68,3-63.16,3-63.16C338.86,205.44,317,212,303.1,219.81,303.58,221.65,304,223.51,304.4,225.43Z"/><path class="cls-2" d="M146,274.11c20.79,3.13,39.47,9.43,55.75,18.69C190,267.63,185.35,244,187.91,222.4c.22-1.88.5-3.75.83-5.59-13.92-6.34-34.09-10.83-62.24-7.31,0,0-11.85,30.26,2.83,62.81C134.68,272.67,140.25,273.24,146,274.11Z"/><circle class="cls-2" cx="240.91" cy="120.77" r="12.97"/><circle class="cls-1" cx="283.73" cy="138.69" r="9.49"/><circle class="cls-1" cx="198.1" cy="138.69" r="9.49"/><path class="cls-2" d="M283.73,392.63c42.59-12.09,64.83,5.48,106.19-21.26A182.85,182.85,0,0,0,418,348.75c9.06-8.83,17.45-18.47,24-29.33a75.67,75.67,0,0,0,9.94-26.62c2.26,12.87-1.17,26.34-6.87,38-6.78,13.93-16.69,26.19-27.81,36.87-13.07,12.51-28.73,22.73-46.13,28a83.6,83.6,0,0,1-36.42,2.57c-2.39-.35-7.73-1.14-10.13-1.47-13.61-1.95-27-3.48-40.84-4.11Z"/><path class="cls-2" d="M219.88,392.63c-13.86.63-27.23,2.16-40.84,4.11-2.41.32-7.84,1.13-10.12,1.47a83.64,83.64,0,0,1-36.43-2.57c-17.4-5.28-33.06-15.5-46.13-28-11.12-10.68-21-22.94-27.81-36.87-5.69-11.62-9.13-25.09-6.86-38a75.73,75.73,0,0,0,9.93,26.62c6.54,10.86,14.93,20.5,24,29.33a183.82,183.82,0,0,0,28.09,22.62c41.38,26.74,63.61,9.16,106.19,21.26Z"/></svg>