<svg id="illustration" xmlns="http://www.w3.org/2000/svg" viewBox="0 0 500 500"><defs><style>.cls-1{fill:#603118;}.cls-2{fill:#ea583f;}.cls-3{fill:#f4efef;}.cls-4{fill:#4f83c7;}</style></defs><path class="cls-1" d="M381.79,442.56s-9.8-12.22-7.14-23.21c2.22-9.16.41-19.77-2.47-28.54-4.41-13.4-14-26.75-26.95-33-5.54-2.66-12-3.76-17.9-5.4l-7.6-2.11c-.38-.11-3-.49-3.14-.87l36.2,77.9,13.87,24.41Z"/><polygon class="cls-2" points="268.42 58.13 175.93 90.96 133.76 179.57 166.59 272.05 255.2 314.23 347.68 281.4 389.86 192.79 357.03 100.3 268.42 58.13"/><path class="cls-3" d="M254.92,319.64l-92.35-44-34.22-96.39,44-92.35L268.7,52.72l92.35,44,34.22,96.39-44,92.35Zm-84.31-51.21,84.87,40.4,88.58-31.45,40.4-84.87L353,103.93l-84.87-40.4L179.56,95l-40.4,84.87Z"/><rect class="cls-3" x="308.44" y="292.36" width="22.67" height="114.2" transform="translate(-98.49 127.12) rotate(-19.55)"/><path class="cls-1" d="M355.67,452.8S331.17,427,325.4,407.16s-10.95-28.18-5.11-27.52,24.72,4.57,33.5,23.46,17.92,39.83,17.92,39.83Z"/><polygon class="cls-4" points="347.36 501.75 343.25 451.75 384.6 432.73 420.56 501.75 347.36 501.75"/><path class="cls-3" d="M216.27,230.53a25,25,0,0,1,.72,15.86q-2.27,7.5-11.88,10.92Q196,260.53,189,255.9t-10.93-14.51l11.27-4q4.26,11.18,11.86,8.9,6.53-2.88,3.55-11.67Q203,229,193.65,222t-16.3-11.18a34.17,34.17,0,0,1-8.51-7.31,27.47,27.47,0,0,1-4.79-8.07,24.05,24.05,0,0,1-.4-15.4q2.34-7.66,10.44-10.54a17.69,17.69,0,0,1,14.21,1.08q7.24,3.55,10.57,12.5l-11,3.91q-3.57-8.85-9.47-6.61t-2.73,10.8a13.49,13.49,0,0,0,3.56,5.58,29.6,29.6,0,0,0,6.55,4.8Q198.65,209,206.11,216T216.27,230.53Z"/><path class="cls-3" d="M240.4,160l-11.14,4,26.2,73.81-10.76,3.82-26.2-73.81L208,171.46l-3.91-11,32.41-11.51Z"/><path class="cls-3" d="M269.29,135.73q11.15-4,19.39,4.8t16.46,31.94q7.92,22.28,7.2,34.72t-11.86,16.4q-11.13,3.94-19.54-5.25t-16.31-31.49q-8.22-23.17-7.35-35.17T269.29,135.73Zm4,12c-2.53.9-4.07,3.13-4.6,6.69s1.7,13,6.72,28.19q8.55,22.49,12.56,26.13t7.8,2.29q3.92-1.4,4.73-6.74t-6.73-28.19Q285.19,153.6,281.19,150T273.26,147.72Z"/><path class="cls-3" d="M350.27,135.35q3.33,9.36-.21,17.46a19.05,19.05,0,0,1-11.82,10.9L331.91,166,346,205.58l-10.63,3.78-30.12-84.83,16.59-5.88a19.88,19.88,0,0,1,16.42,1.08Q346.17,123.82,350.27,135.35Zm-11.19,3.4q-2.25-6.33-5.9-8.38a9.24,9.24,0,0,0-8-.53l-5.44,1.93,8.13,22.92,6.33-2.25a9.23,9.23,0,0,0,5.17-5.54A12.25,12.25,0,0,0,339.08,138.75Z"/></svg>