<svg id="Layer_1" data-name="Layer 1" xmlns="http://www.w3.org/2000/svg" viewBox="0 0 500 500"><defs><style>.cls-1{fill:#b27958;}.cls-2{fill:#ef905b;}.cls-3{fill:#fac25e;}.cls-4{fill:#2a327a;}.cls-5{fill:#fff;}.cls-6{fill:#6f99d1;}.cls-7{fill:#1a1a46;}</style></defs><path class="cls-1" d="M153.86,432.38l1.55,25.82L122,464.61l-2.78-25.75Z"/><path class="cls-2" d="M315.78,299c11.15,4.29,30,15.23,13.52,50.7s-39.16,96.85-39.16,96.85L233.74,450s24.09-117.71,44.12-134.33C293.91,302.42,309.48,296.65,315.78,299Z"/><path class="cls-2" d="M136.93,462.84l-1.41-34.08a261.17,261.17,0,0,1,95.61-17c53.92.75,57.09,23.84,57.09,23.84,3.3,8.58.62,23.21-17.11,28.5C236.33,474.57,136.93,462.84,136.93,462.84Z"/><path class="cls-3" d="M334.91,270.43s-61.08,9.33-77.43,104-14.73,103.89-14.73,103.89l230.77,5.46s6.79-150.11-32.85-175.85S371.4,272.4,334.91,270.43Z"/><path class="cls-4" d="M29.93,465.37h468a2,2,0,0,1,1.42.58,2,2,0,0,1,.59,1.41V500h-470a10.09,10.09,0,0,1-10.11-10.06V475.45a10.07,10.07,0,0,1,10.11-10.06Z"/><path class="cls-1" d="M112.41,464.1c15.87,1.5,20.1,2.66,21.22-9.22s-10.79-22.71-26.7-24.19-40.31,21.85-41.43,33.6S96.53,462.62,112.41,464.1Z"/><path class="cls-5" d="M329.3,457.92H189v14.87H329.3Z"/><path class="cls-6" d="M189,472.79H328.35a15,15,0,0,1,10.57,4.35,14.81,14.81,0,0,1,4.38,10.51H189Z"/><path class="cls-6" d="M189.7,457.92h-7.12v29.71h7.12Z"/><path class="cls-6" d="M182.58,457.92,36.1,485.5l1.6,8.95,147.08-26.38Z"/><path class="cls-5" d="M188.36,457.92s-1.4-14.32-64.5-.72c-28.95,6.24-78.44,26.61-78.44,26.61Z"/><path class="cls-7" d="M245.32,127.79S197,215,225.72,230.43c29.41,15.83,73.32,3.84,73.32,3.84Z"/><path class="cls-7" d="M444.6,209.33c-2.57,29.74-81.33,42.89-92.27,32s52.54-121.16,54.8-108.3C410.8,154,447.16,179.6,444.6,209.33Z"/><path class="cls-1" d="M232.14,161.33c0,9.44,11.45,20.4,20.17,20.4s11.38-11,11.38-20.4-7.07-17.15-15.76-17.15S232.14,151.9,232.14,161.33Z"/><path class="cls-1" d="M397.71,165.17c0,49.09-73.5,97.15-102.42,97.15-21.09,0-52.54-48.06-52.54-97.15S277.43,76.3,320.22,76.3,397.71,116.13,397.71,165.17Z"/><path class="cls-7" d="M357.83,132.17s-22.81,19-71.68,16.49S183,85.82,313.47,69.31c114.45-14.39,92.74,98.07,92.74,98.07S371.33,166.24,357.83,132.17Z"/><path class="cls-1" d="M413.47,177.5c0,9.46-11.45,20.4-20.16,20.4S381.94,187,381.94,177.5s7.06-17.15,15.77-17.15S413.47,168.07,413.47,177.5Z"/><path class="cls-1" d="M353.35,232.27l19.41,51.3a126.82,126.82,0,0,1-31.51,5.54,97.7,97.7,0,0,1-27.54-3.41l7-47.18Z"/><path class="cls-2" d="M417.27,302.87c-10.37,4.29-27.91,15.23-12.57,50.7s36.42,96.83,36.42,96.83l52.41,3.47s-22.36-117.71-41-134.29C437.61,306.2,423.14,300.49,417.27,302.87Z"/><path class="cls-2" d="M336.31,469l-1-38.43a396.86,396.86,0,0,1,101.73-5.36c54.17,4.52,55.79,27.87,55.79,27.87,2.68,8.84-1.06,23.21-19.28,27.24C437.78,488.1,336.31,469,336.31,469Z"/><path class="cls-1" d="M304.61,429.51s-20.75-6.22-26.53-6.65S264.9,427,265.14,429.3c1,7.2,23.14,7.22,23.14,7.22Z"/><path class="cls-6" d="M250.3,455l-2.93,11,8.15-8Z"/><path class="cls-4" d="M299.27,382.61l-5.23-3L250.29,455l5.23,3Z"/><path class="cls-1" d="M335.34,433.73s-16.56.17-19.41.82-5.54-7-23.38-5.84-47.27,12.49-45.83,23.59,10,12.16,13.76,13.19c7.79,2.15,14.93,3.07,35.33,3.07,8.84,0,15.76-3.07,18-3.07h22.63Z"/></svg>