<svg id="illustration" xmlns="http://www.w3.org/2000/svg" viewBox="0 0 500 500"><defs><style>.cls-1{fill:#ea583f;}.cls-2{fill:#ffd2b1;}.cls-3{fill:#5e7fbb;}</style></defs><path class="cls-1" d="M327,111.09c-52.43-15.75-74.7,37.49-77.3,44.29-3.24-7.3-28-58.43-79.24-40.32a60.52,60.52,0,0,0-9.3,4.16,51.5,51.5,0,0,0-7.93,5.39,44.83,44.83,0,0,0-6.4,6.52,41.38,41.38,0,0,0-4.79,7.53,42.12,42.12,0,0,0-3.09,8.45,45.92,45.92,0,0,0-1.3,9.27,53.84,53.84,0,0,0,.58,10A65.46,65.46,0,0,0,140.77,177a81.91,81.91,0,0,0,4.61,11.14,106.85,106.85,0,0,0,6.76,11.57,133.66,133.66,0,0,0,9,11.9c3.57,4.23,7.37,8.27,11.33,12.13q6.61,6.44,13.76,12.26c5.26,4.31,10.7,8.4,16.27,12.29,6.14,4.3,12.45,8.36,18.87,12.23q10.58,6.38,21.56,12.06c1.58.82,3.17,1.64,4.76,2.44a21.6,21.6,0,0,1,3,1.66,2.69,2.69,0,0,0,2.05.67,3.18,3.18,0,0,0,1-.52q2.65-1.79,5.46-3.3c1.85-1,3.61-2.32,5.51-3.18q5.64-3.34,11.17-6.86,10.27-6.54,20.1-13.76c5.9-4.37,11.65-8.93,17.19-13.74,5-4.32,9.82-8.84,14.41-13.59a176.6,176.6,0,0,0,11.73-13.33,139.27,139.27,0,0,0,9.16-13,108.29,108.29,0,0,0,6.71-12.52,83.78,83.78,0,0,0,4.35-11.93,66,66,0,0,0,2.11-11.25,52.88,52.88,0,0,0,0-10.45,45.15,45.15,0,0,0-2-9.55,41.57,41.57,0,0,0-9.72-15.95,46,46,0,0,0-7.45-6.19,55.34,55.34,0,0,0-9-4.85A65.14,65.14,0,0,0,327,111.09Z"/><path class="cls-2" d="M271.08,428.54s-4.49-49.06,14.34-73.08C300.65,336,317.07,317,329,309.87a5.57,5.57,0,0,1,8.38,4.58c.35,9.57-.82,26.74-11.42,41.59,0,0,16.18-23.12,23-51.51s24.28-55.2,31.35-44.12,8.89,90.85-7.42,107.28-55.57,46.82-62.69,55.65Z"/><polygon class="cls-3" points="255.47 500.51 268.08 423.19 315.89 418.79 337.55 500.51 255.47 500.51"/><path class="cls-2" d="M228.92,428.54s4.49-49.06-14.34-73.08C199.35,336,182.93,317,171,309.87a5.57,5.57,0,0,0-8.38,4.58c-.35,9.57.82,26.74,11.42,41.59,0,0-16.18-23.12-23-51.51s-24.28-55.2-31.34-44.12-8.9,90.85,7.41,107.28,55.57,46.82,62.69,55.65Z"/><polygon class="cls-3" points="244.53 500.51 231.92 423.19 184.11 418.79 162.45 500.51 244.53 500.51"/></svg>