<svg id="illustration" xmlns="http://www.w3.org/2000/svg" viewBox="0 0 500 500"><defs><style>.cls-1{fill:#ea583f;}.cls-2{fill:#6f99d1;}.cls-3{fill:#eeac7c;}.cls-4{fill:#463227;}.cls-5{fill:#ecc29c;}.cls-6{fill:#2a327a;}</style></defs><path class="cls-1" d="M82.08,112.85Z"/><path class="cls-1" d="M97,69.77A5,5,0,0,0,87,70c.69,24.39-6.66,29.33-8.57,30.19a4.27,4.27,0,0,0-1.26.88,5.62,5.62,0,0,0-.41.44,5.23,5.23,0,0,0-.41.55,6.11,6.11,0,0,0-.38.65,6.52,6.52,0,0,0-.29.73,4.59,4.59,0,0,0-.17.82,4.51,4.51,0,0,0,0,.9,4.43,4.43,0,0,0,.2,1,5.6,5.6,0,0,0,.44,1,7.34,7.34,0,0,0,.72,1.09,11.66,11.66,0,0,0,1.06,1.16l.54.49.25.21c.07,0,.12.13.2.16a.57.57,0,0,0,.18,0,3.7,3.7,0,0,0,.58-.1c.19,0,.39-.07.58-.12l.25-.06.26-.08.27-.08.29-.1.3-.11.32-.12.33-.13.33-.15.35-.16.36-.18.36-.2.38-.21.38-.23.39-.25.39-.27.4-.29.4-.31.41-.33.41-.36.41-.38.41-.4.41-.42.41-.45.42-.48.4-.5c.14-.18.28-.35.41-.53l.4-.56.4-.59c.14-.2.27-.41.4-.62l.39-.64c.13-.23.26-.45.38-.68s.26-.47.38-.71l.37-.74.36-.78.35-.81.34-.84.33-.88.32-.92.3-.95c.1-.33.2-.66.29-1s.19-.68.28-1,.18-.71.27-1.06.17-.74.25-1.11.16-.76.23-1.15.15-.79.22-1.18.14-.82.2-1.23l.18-1.28c.06-.43.11-.87.16-1.31s.1-.91.14-1.36.09-.94.13-1.4.07-1,.1-1.45,0-1,.08-1.5,0-1,0-1.54,0-1.06,0-1.59,0-1.1,0-1.64,0-1.13,0-1.69S97,70.21,97,69.77Z"/><circle class="cls-2" cx="252.95" cy="245.34" r="159.08"/><path class="cls-3" d="M318.58,334s2.8,10.27,2.8,12.75,7.21,22,15.24,11.12-7.22-27.16-7.22-27.16Z"/><path class="cls-3" d="M189.67,334s-2.81,10.27-2.81,12.75-7.21,22-15.23,11.12,7.21-27.16,7.21-27.16Z"/><path class="cls-4" d="M246.11,131.14s-23.94-12.13-43.32,9.24-16.92,29.69-16.17,46.45c1.31,29.45,14.15,32.67,28.29,32.26s47.09,1.71,61.93-.15,27.36.09,29.37-5.53,9.52-23.3,7.55-38.74-7.51-34.16-21.11-40.2S262.12,122.6,246.11,131.14Z"/><path class="cls-5" d="M244.77,223.07,233,254.81,255.82,267l19.37-15.46s-4-2.84-12.86-30Z"/><path class="cls-3" d="M295.7,172.13a5.31,5.31,0,0,0-1.74-.89,3,3,0,0,1-1.13-.45c-.67-.57-.08-2.83-.08-3.62,0-17.81-18.83-32.24-42.06-32.24s-42.05,14.42-42.06,32.22c-.2.77-.92,3.45-.95,3.57-.26,1-3.09,1.41-3.83,2.08a4.46,4.46,0,0,0-1.1,1.72c-1.86,4.84,1.52,9.12,5.49,11.52,0,0,10.28,40.84,38.1,46.69a13.27,13.27,0,0,0,7.63,0c27.82-5.85,38.1-46.69,38.1-46.69.14-.55,1.9-1.65,2.36-2.11a19.8,19.8,0,0,0,2.48-2.85A6.62,6.62,0,0,0,295.7,172.13Z"/><path class="cls-3" d="M300.58,177.73c0,4.22-5.08,9.1-8.95,9.1s-5-4.88-5-9.1,3.13-7.66,7-7.66S300.58,173.52,300.58,177.73Z"/><path class="cls-3" d="M207.68,170.07c3.87,0,7,3.44,7,7.66s-1.18,9.1-5.05,9.1-8.95-4.88-8.95-9.1S203.81,170.07,207.68,170.07Z"/><path class="cls-4" d="M298.11,161.63l-8.89-17.16-13.37-7.39-21-5.53-20.35,2.06-24.41,11.46s1,9.87-.67,12.82a5.77,5.77,0,0,0-.62,1.78l-2.31.82,1.2,9.58,4.27.45s13,2.65,31.25-2.51,50.39,2.06,50.39,2.06c.63-.12-.16,0,.26-.27C295,169.07,298.43,162.87,298.11,161.63Z"/><path class="cls-6" d="M307.24,394.91l-1.45-48L203.3,344.82l-2.76,50.74S226.05,405,253,404.42L257.2,379l5,25.45S291.17,402.18,307.24,394.91Z"/><path class="cls-1" d="M339,327.54s-30.58-76.62-37.2-78.76-26.56-.87-26.56-.87C255.82,267,231,246.84,231,246.84s-10.44-2.17-25.42,1.19-39.7,85.9-39.7,85.9c0,9.95,25.6,13.41,25.6,13.41.39-8.38,19.31-50.11,19.31-50.11L199,351.58c18.1,13.51,109.1,3.74,109.1,3.74.38-11.81-11.94-61-11.94-61,4.84,7.29,14,43.53,16.7,54.36h0a1.31,1.31,0,0,0,0,.14l.71,2.92S341.19,333.09,339,327.54Z"/><path class="cls-1" d="M61.34,176.93a5,5,0,0,1-3.45-8.62h0c4.28-4.08,12.8-13.74,16.49-22.64-7.72.46-14.18-1.59-17.31-3.73-3.38-2.32-5-6.39-4.28-10.89a15.69,15.69,0,0,1,10.67-12.5c3.48-1,10.43-1.57,17.89,6.63a18.19,18.19,0,0,1,4,7.1C97,125.89,104.7,111,107.88,89.06a5,5,0,0,1,9.9,1.43c-4.94,34.1-19.4,47.14-30.67,52.08-.5.22-1,.43-1.5.62-.92,4.36-3,9.44-6.82,15.35a104.59,104.59,0,0,1-14,17A5,5,0,0,1,61.34,176.93ZM67.45,128a4,4,0,0,0-2.52.89c-2.12,1.62-2.54,4.3-2.21,4.82,1.46,1,6.66,2.66,13.13,1.77a8.2,8.2,0,0,0-1.9-3.55C72.17,130,69.79,128,67.45,128Z"/><path class="cls-1" d="M377.53,428.68a5,5,0,0,1-2.8-9.15c4.81-3.26,15.49-11.86,21.39-21.13-6.44-2.19-11.87-6.49-14.39-13.77-2.65-7.66-.56-15.54,5-18.73,2.54-1.48,9.36-3.86,17.72,5.78a22.3,22.3,0,0,1,5.6,18.16c0,.13,0,.25,0,.38,1.19-.07,2.42-.19,3.7-.38,9.59-1.38,16.1-5,19.35-10.85,6.4-11.5-.87-28.45-.94-28.62a5,5,0,0,1,9.15-4c.39.87,9.35,21.6.55,37.47C437,392.53,428,397.89,415.1,399.74a48.63,48.63,0,0,1-8.48.47,65.24,65.24,0,0,1-12.69,16.33,110.3,110.3,0,0,1-13.6,11.28A5,5,0,0,1,377.53,428.68Zm14.3-54.15-.12,0c-.72.42-1.76,3.24-.53,6.81,1.32,3.8,4.41,6.48,8.83,7.85,0-.23.08-.46.11-.68a12.53,12.53,0,0,0-3.25-10.3C394.09,375,392.32,374.53,391.83,374.53Z"/><path class="cls-1" d="M399.6,446a5,5,0,0,1-2.63-9.25c.22-.14,13.71-8.73,12.45-20.1a5,5,0,0,1,8.16-4.4c2.38,2,10,6.86,16.63,6.07,3.25-.39,6-2.1,8.32-5.22a5,5,0,0,1,8,6c-4,5.36-9.14,8.43-15.18,9.14-6.23.74-12.25-1.33-16.72-3.58-3.45,12.47-15.76,20.2-16.4,20.59A5,5,0,0,1,399.6,446Z"/></svg>