<svg id="Layer_1" data-name="Layer 1" xmlns="http://www.w3.org/2000/svg" xmlns:xlink="http://www.w3.org/1999/xlink" viewBox="0 0 500 500"><defs><style>.cls-1,.cls-10,.cls-11{fill:none;}.cls-2{clip-path:url(#clip-path);}.cls-3{clip-path:url(#clip-path-2);}.cls-4{fill:#fff;}.cls-5{fill:#ee7c69;}.cls-6{fill:#b27958;}.cls-7{fill:#192466;}.cls-8{fill:#4f83c7;}.cls-9{fill:#6f99d1;}.cls-10,.cls-11{stroke:#463227;stroke-miterlimit:10;}.cls-10{stroke-width:2.17px;}.cls-11{stroke-linecap:round;stroke-width:2.17px;}.cls-12{fill:#463227;}.cls-13{fill:#2a327a;}</style><clipPath id="clip-path"><rect class="cls-1" width="500" height="500"/></clipPath><clipPath id="clip-path-2"><rect class="cls-1" x="25.98" y="75.78" width="468.12" height="429.67"/></clipPath></defs><g class="cls-2"><g class="cls-3"><path class="cls-4" d="M420.16,75.78H35.9A9.92,9.92,0,0,0,26,85.7v80.87a9.92,9.92,0,0,0,9.92,9.92H420.16a9.92,9.92,0,0,0,9.92-9.92V85.7A9.92,9.92,0,0,0,420.16,75.78Z"/><path class="cls-4" d="M424.1,191.06H39.84A9.92,9.92,0,0,0,29.92,201v80.87a9.92,9.92,0,0,0,9.92,9.91H424.1a9.92,9.92,0,0,0,9.92-9.91V201A9.92,9.92,0,0,0,424.1,191.06Z"/><path class="cls-4" d="M424.1,306.29H39.84a9.92,9.92,0,0,0-9.92,9.92v80.87A9.92,9.92,0,0,0,39.84,407H424.1a9.92,9.92,0,0,0,9.92-9.91V316.21A9.92,9.92,0,0,0,424.1,306.29Z"/><path class="cls-5" d="M67.89,113.05,78.28,89.47a1.19,1.19,0,0,1,1.08-.7A1.23,1.23,0,0,1,80,89a1.22,1.22,0,0,1,.44.51l9.87,23.32a1.15,1.15,0,0,0,.39.51,1.13,1.13,0,0,0,.61.22l25.2,2.17a1.21,1.21,0,0,1,1.1,1.57,1.16,1.16,0,0,1-.41.59L98,134.35a1.33,1.33,0,0,0-.35.55,1.26,1.26,0,0,0,0,.64l5.85,24.73a1.2,1.2,0,0,1-.48,1.25,1.26,1.26,0,0,1-.67.23,1.15,1.15,0,0,1-.67-.18L80,148.32a1.24,1.24,0,0,0-.64-.18,1.19,1.19,0,0,0-.64.18L57.11,161.57a1.25,1.25,0,0,1-.68.17,1.21,1.21,0,0,1-1.12-1.49l5.93-24.68a1.28,1.28,0,0,0-.39-1.22L41.6,117.92a1.27,1.27,0,0,1-.41-.6,1.18,1.18,0,0,1,0-.72,1.2,1.2,0,0,1,.41-.6,1.24,1.24,0,0,1,.69-.25l24.7-2a1.34,1.34,0,0,0,.54-.25A1.38,1.38,0,0,0,67.89,113.05Z"/><path class="cls-5" d="M68.16,229.21l10.39-23.62a1.22,1.22,0,0,1,.44-.51,1.26,1.26,0,0,1,.65-.19,1.19,1.19,0,0,1,1.08.7l9.87,23.34a1.22,1.22,0,0,0,.4.5,1.16,1.16,0,0,0,.6.23l25.2,2.17a1.18,1.18,0,0,1,.68.25,1.19,1.19,0,0,1,.42,1.32,1.2,1.2,0,0,1-.4.59L98.3,250.51a1.24,1.24,0,0,0-.35.55,1.19,1.19,0,0,0,0,.65l5.85,24.7a1.28,1.28,0,0,1,0,.7,1.22,1.22,0,0,1-.43.55,1.2,1.2,0,0,1-.66.23,1.24,1.24,0,0,1-.68-.18L80.31,264.46a1.19,1.19,0,0,0-1.26,0L57.4,277.71a1.23,1.23,0,0,1-.68.17,1.29,1.29,0,0,1-.65-.24,1.12,1.12,0,0,1-.42-.56,1.16,1.16,0,0,1,0-.69l5.94-24.68a1.47,1.47,0,0,0,0-.66,1.43,1.43,0,0,0-.35-.56L41.9,234.06a1.14,1.14,0,0,1-.41-.6,1.11,1.11,0,0,1,0-.72,1.2,1.2,0,0,1,.4-.59,1.29,1.29,0,0,1,.68-.26l24.72-2a1.13,1.13,0,0,0,.53-.25A1.11,1.11,0,0,0,68.16,229.21Z"/><path class="cls-5" d="M67.87,342.6,78.26,319a1.19,1.19,0,0,1,.44-.5,1.19,1.19,0,0,1,1.29,0,1.19,1.19,0,0,1,.44.5l9.87,23.34a1.21,1.21,0,0,0,1,.74l25.2,2.16a1.18,1.18,0,0,1,.68.25,1.22,1.22,0,0,1,.42.6,1.18,1.18,0,0,1,0,.72,1.14,1.14,0,0,1-.41.6L98,363.91a1.08,1.08,0,0,0-.35.54,1.2,1.2,0,0,0,0,.65l5.85,24.7a1.28,1.28,0,0,1,0,.7,1.26,1.26,0,0,1-.43.56,1.22,1.22,0,0,1-1.34,0L80,377.85a1.19,1.19,0,0,0-1.26,0L57.11,391.1a1.17,1.17,0,0,1-.68.17,1.2,1.2,0,0,1-.66-.23,1.3,1.3,0,0,1-.42-.56,1.28,1.28,0,0,1,0-.7l5.93-24.68a1.24,1.24,0,0,0,0-.66,1.16,1.16,0,0,0-.35-.55L41.6,347.45a1.24,1.24,0,0,1-.41-.59,1.26,1.26,0,0,1,0-.72,1.24,1.24,0,0,1,.41-.59,1.15,1.15,0,0,1,.68-.26l24.72-2a1.36,1.36,0,0,0,.53-.25A1.17,1.17,0,0,0,67.87,342.6Z"/><path class="cls-6" d="M333.4,278.32l22-8.34-13.57-29.73-18.49,7Z"/><path class="cls-6" d="M316,235.9c4.63,12.25,12.15,21.5,21.15,18.08s9-16.78,4.33-29c-2.16-5.58-12.14-15.63-21.76-15.15-5,.26-18.16,5.06-16.11,8.4C306.18,222.39,313.42,229.06,316,235.9Z"/><path class="cls-6" d="M317.75,237.13a23.92,23.92,0,0,1-8.43-3.65c-3.89-2.8-6.06-3-4.2,1.58s17.71,18,21.22,16S324.72,239.82,317.75,237.13Z"/><path class="cls-7" d="M445.19,291.87s-39.84,6.8-50.25,7.06-43.89-46.36-43.89-46.36l-24.64,11.89s10.09,90.81,34.86,91.44,62.31-5.24,62.31-5.24l31.53-8.77,10.82-42.14S461.69,291.39,445.19,291.87Z"/><path class="cls-6" d="M270.15,293l-18.7,14.33-18.13-27.2,15.72-12Z"/><path class="cls-6" d="M243.33,255.8c8,10.39,11.86,21.65,4.33,27.52s-19-1.17-27-11.59c-3.64-4.74-6.91-18.53-1.41-26.46,2.82-4.07,13.88-12.77,15.63-9.26C237,240.38,238.87,250,243.33,255.8Z"/><path class="cls-6" d="M243.37,258.05a24,24,0,0,0,1.32-9.09c-.3-4.81.65-6.74,3.55-2.73s6,24.53,2.38,26.48S242,265.3,243.37,258.05Z"/><path class="cls-8" d="M476,457.55s11.13,19.38,9.9,42.14c-.37,6.77-2.06,5.69-2.06,5.69H421.24l13.36-41.14Z"/><path class="cls-9" d="M360.12,472.17l-6,33h88.06a25.19,25.19,0,0,0,14.75-2.6c14.22-8.49,14.22-40.42,14.22-40.42Z"/><path class="cls-10" d="M377.87,203.66c1.49-9.2-1-17.26-5.62-18s-9.53,6.12-11,15.31,1,17.26,5.62,18S376.39,212.86,377.87,203.66Z"/><path class="cls-6" d="M474.66,219.46c-7,33.72-53.87,53-80.24,47.64-13.38-2.79-29.93-35.66-23-69.29S409,142,439.76,148.32,481.63,185.77,474.66,219.46Z"/><path class="cls-11" d="M416.22,209.27l-52.53-10.85"/><path class="cls-6" d="M442.18,285.11s-2.34,4-15,7.06c-13.86,3.34-18,.87-18,.87l-4.85-41.68,23.37-5.61Z"/><path class="cls-12" d="M371,159.38c4.68,15.61,23.82,43.54,47.94,50.84,11.76,3.53,6.6,15.57-.43,19.05a10.84,10.84,0,0,0-6.3,10.33s5.69,23.82,15.48,24.4c15.5.93,36.22-18.29,43.3-26.35s7.65-19,7.65-24.81c0-1.65,2.27-6,2.92-11.35,1.43-11.69.84-28.86-7.65-38.39-10.13-11.34-39-20.31-51.57-20.65s-19.94,5.52-28.86,2.68c-7.95-2.53-18.34-10.59-20.79-5.91S369.71,154.75,371,159.38Z"/><path class="cls-12" d="M479,207.36s11.11-3.51,13.77-6.3,1.3,8.66-4.8,12.47-9.31,3.27-9.31,3.27Z"/><path class="cls-6" d="M426.24,219.27c0,7.38-8.87,15.94-15.63,15.94s-8.83-8.66-8.83-15.94a12.28,12.28,0,0,1,23.85-5A12.12,12.12,0,0,1,426.24,219.27Z"/><path class="cls-13" d="M441,282l-32.35,6.5s-39.19,5.82-50.49,13.57-38.39,29.06-50.67,19.69-46.79-42-46.79-42l-20.35,17.11s39,99.1,67.79,90,52.9-18.34,52.9-18.34l-1,103.61s85.67,18.38,122.07,0c0,0,5-160.1-8.9-175.38C463.14,285.7,441,282,441,282Z"/></g></g></svg>