<svg id="illustration" xmlns="http://www.w3.org/2000/svg" viewBox="0 0 500 500"><defs><style>.cls-1{fill:#ee7c69;}.cls-2{fill:#fef8bb;}.cls-3{fill:#2a327a;}</style></defs><circle class="cls-1" cx="249.72" cy="271.32" r="155.83"/><path class="cls-2" d="M249.22,439.84a166.6,166.6,0,0,1-73.61-17.18,168.71,168.71,0,0,1-94.4-151.84c.27-92.64,75.87-168,168.51-168h.51c92.92.28,168.29,76.1,168,169-.28,92.64-75.87,168-168.51,168Zm.5-311.66c-78.69,0-142.9,64-143.14,142.72A143.18,143.18,0,0,0,249.3,414.47h.43c78.69,0,142.9-64,143.14-142.72a142.51,142.51,0,0,0-22.18-76.89,144,144,0,0,0-58-52.09,141.47,141.47,0,0,0-62.51-14.59Z"/><path class="cls-2" d="M179.14,415.48A160.7,160.7,0,0,1,89.21,270.84c.26-88.51,72.48-160.3,161-160s160.3,72.49,160,161-72.49,160.3-161,160A159.48,159.48,0,0,1,179.14,415.48ZM316.19,135.59a150.26,150.26,0,0,0-66-15.41c-83.34-.25-151.35,67.35-151.6,150.69a151.18,151.18,0,0,0,150.69,151.6c83.34.25,151.35-67.35,151.6-150.69h0A151.34,151.34,0,0,0,316.19,135.59Z"/><rect class="cls-3" x="245.25" y="175.49" width="10.52" height="86.53"/><rect class="cls-3" x="245.25" y="279.12" width="10.52" height="53.31"/><circle class="cls-2" cx="250.57" cy="270.33" r="9.82"/><path class="cls-3" d="M245.06,281.56a12.55,12.55,0,0,1-3.35-2.42,12.5,12.5,0,1,1,21.36-8.77h0a12.52,12.52,0,0,1-18,11.19Zm8.65-17.64a7.14,7.14,0,1,0,4,6.43A7.12,7.12,0,0,0,253.71,263.92Z"/><rect class="cls-2" x="235.6" y="86.47" width="31.12" height="24.89" transform="translate(150.62 349.44) rotate(-89.63)"/><rect class="cls-2" x="213.28" y="63.61" width="75.98" height="31.93"/><rect class="cls-2" x="341.28" y="148.47" width="54.89" height="18.68" transform="translate(235.57 -220.52) rotate(47.44)"/><rect class="cls-2" x="245.25" y="113.54" width="10.52" height="44.27"/><rect class="cls-2" x="110.65" y="248.26" width="10.52" height="44.27" transform="translate(-154.48 386.3) rotate(-90)"/><rect class="cls-2" x="245.37" y="382.85" width="10.52" height="44.27" transform="translate(501.26 809.97) rotate(-180)"/><rect class="cls-2" x="379.97" y="248.14" width="10.52" height="44.27" transform="translate(655.49 -114.95) rotate(90)"/><rect class="cls-2" x="369.1" y="182.39" width="10.52" height="33.09" transform="translate(389.25 622.6) rotate(-120)"/><rect class="cls-2" x="316.81" y="130.06" width="10.52" height="33.09" transform="translate(527.69 434.6) rotate(-150)"/><rect class="cls-2" x="173.91" y="130" width="10.52" height="33.09" transform="translate(407.61 183.87) rotate(150)"/><rect class="cls-2" x="121.58" y="182.28" width="10.52" height="33.09" transform="translate(362.45 188.39) rotate(120)"/><rect class="cls-2" x="121.52" y="325.19" width="10.52" height="33.09" transform="translate(359.34 61.07) rotate(60)"/><rect class="cls-2" x="173.81" y="377.51" width="10.52" height="33.09" transform="matrix(0.87, 0.5, -0.5, 0.87, 221.02, -36.74)"/><rect class="cls-2" x="316.71" y="377.57" width="10.52" height="33.09" transform="translate(-153.92 213.79) rotate(-30)"/><rect class="cls-2" x="369.04" y="325.29" width="10.52" height="33.09" transform="translate(-108.89 495.07) rotate(-60)"/></svg>