<svg width="16" height="16" viewBox="0 0 16 16" fill="none" xmlns="http://www.w3.org/2000/svg">
<path d="M8 0C3.58875 0 0 3.58875 0 8C0 12.4113 3.58875 16 8 16C12.4113 16 16 12.4113 16 8C16 3.58875 12.4113 0 8 0ZM8 14.8572C4.21884 14.8572 1.14284 11.7812 1.14284 8C1.14284 4.21884 4.21884 1.14284 8 1.14284C11.7812 1.14284 14.8572 4.21884 14.8572 8C14.8572 11.7812 11.7812 14.8572 8 14.8572Z" fill="#3F3C44"/>
<path d="M7.99721 4.19531C7.68159 4.19531 7.42578 4.45112 7.42578 4.76675V11.2429C7.42578 11.5586 7.68159 11.8144 7.99721 11.8144C8.31283 11.8144 8.56864 11.5586 8.56864 11.2429V4.76675C8.56864 4.45112 8.31283 4.19531 7.99721 4.19531Z" fill="#3F3C44"/>
<path d="M11.239 7.42969H4.76284C4.44722 7.42969 4.19141 7.6855 4.19141 8.00111C4.19141 8.31673 4.44722 8.57254 4.76284 8.57254H11.239C11.5547 8.57254 11.8105 8.31673 11.8105 8.00111C11.8105 7.6855 11.5547 7.42969 11.239 7.42969Z" fill="#3F3C44"/>
</svg>
