<svg width="1120" height="500" viewBox="0 0 1120 500" fill="none" xmlns="http://www.w3.org/2000/svg">
<path d="M400.667 399.797C400.667 344.715 356.012 300.063 300.926 300.063C245.841 300.063 201.186 344.715 201.186 399.797C201.186 454.879 245.841 499.531 300.926 499.531C356.012 499.531 400.667 454.879 400.667 399.797Z" fill="white" stroke="#BABFBF" stroke-width="0.937239"/>
<path d="M618.208 353.23C657.006 353.23 688.459 384.68 688.459 423.476C688.459 462.272 657.006 493.723 618.208 493.723C579.409 493.723 547.957 462.272 547.957 423.476C547.957 384.68 579.409 353.23 618.208 353.23Z" fill="white"/>
<path d="M687.99 423.476C687.99 384.939 656.748 353.698 618.208 353.698C579.668 353.698 548.426 384.939 548.426 423.476C548.426 462.013 579.668 493.254 618.208 493.254C656.748 493.254 687.99 462.013 687.99 423.476Z" stroke="#A09DA6" stroke-opacity="0.25" stroke-width="0.937239"/>
<path d="M478.71 356.24C510.857 356.24 536.918 382.299 536.918 414.444C536.918 446.589 510.857 472.648 478.71 472.648C446.563 472.648 420.502 446.589 420.502 414.444C420.502 382.299 446.563 356.24 478.71 356.24Z" fill="white"/>
<path d="M536.45 414.444C536.45 382.558 510.599 356.709 478.71 356.709C446.822 356.709 420.971 382.558 420.971 414.444C420.971 446.331 446.822 472.18 478.71 472.18C510.599 472.18 536.45 446.331 536.45 414.444Z" stroke="#A09DA6" stroke-opacity="0.25" stroke-width="0.937239"/>
<path d="M1119.53 192.166C1119.53 124.532 1064.7 69.7034 997.061 69.7034C929.422 69.7034 874.59 124.532 874.59 192.166C874.59 259.801 929.422 314.629 997.061 314.629C1064.7 314.629 1119.53 259.801 1119.53 192.166Z" fill="white" stroke="#BABFBF" stroke-width="0.937239"/>
<path d="M199.95 100.203C199.95 155.285 155.294 199.937 100.209 199.937C45.1241 199.937 0.46875 155.285 0.46875 100.203C0.46875 45.1212 45.1241 0.468628 100.209 0.468628C155.294 0.468628 199.95 45.1212 199.95 100.203Z" fill="white" stroke="#BABFBF" stroke-width="0.937239"/>
<path d="M284.716 132.865C320.022 132.865 348.643 104.246 348.643 68.9421C348.643 33.6386 320.022 5.01947 284.716 5.01947C249.41 5.01947 220.79 33.6386 220.79 68.9421C220.79 104.246 249.41 132.865 284.716 132.865Z" fill="white"/>
<path d="M348.174 68.9421C348.174 103.987 319.762 132.396 284.716 132.396C249.669 132.396 221.258 103.987 221.258 68.9421C221.258 33.8975 249.669 5.48816 284.716 5.48816C319.762 5.48816 348.174 33.8975 348.174 68.9421Z" stroke="#A09DA6" stroke-opacity="0.25" stroke-width="0.937239"/>
<path d="M479.742 148.577C520.773 148.577 554.035 115.317 554.035 74.2884C554.035 33.26 520.773 0 479.742 0C438.711 0 405.449 33.26 405.449 74.2884C405.449 115.317 438.711 148.577 479.742 148.577Z" fill="white"/>
<path d="M553.566 74.2884C553.566 115.058 520.514 148.108 479.742 148.108C438.97 148.108 405.917 115.058 405.917 74.2884C405.917 33.5189 438.97 0.468628 479.742 0.468628C520.514 0.468628 553.566 33.5189 553.566 74.2884Z" stroke="#A09DA6" stroke-opacity="0.25" stroke-width="0.937239"/>
<path d="M201.975 276.851C228.115 276.851 249.306 255.661 249.306 229.523C249.306 203.385 228.115 182.195 201.975 182.195C175.835 182.195 154.645 203.385 154.645 229.523C154.645 255.661 175.835 276.851 201.975 276.851Z" fill="white"/>
<path d="M248.837 229.523C248.837 255.402 227.856 276.382 201.975 276.382C176.094 276.382 155.113 255.402 155.113 229.523C155.113 203.643 176.094 182.664 201.975 182.664C227.856 182.664 248.837 203.643 248.837 229.523Z" stroke="#A09DA6" stroke-opacity="0.25" stroke-width="0.937239"/>
<path d="M289 207.148C306.673 207.148 321 192.822 321 175.15C321 157.478 306.673 143.152 289 143.152C271.327 143.152 257 157.478 257 175.15C257 192.822 271.327 207.148 289 207.148Z" fill="white"/>
<path d="M320.683 175.15C320.683 192.647 306.498 206.832 289 206.832C271.502 206.832 257.317 192.647 257.317 175.15C257.317 157.653 271.502 143.469 289 143.469C306.498 143.469 320.683 157.653 320.683 175.15Z" stroke="#A09DA6" stroke-opacity="0.25" stroke-width="0.633663"/>
<path d="M894.695 425.492C928.228 425.492 955.412 398.31 955.412 364.779C955.412 331.248 928.228 304.066 894.695 304.066C861.162 304.066 833.978 331.248 833.978 364.779C833.978 398.31 861.162 425.492 894.695 425.492Z" fill="white"/>
<path d="M954.944 364.779C954.944 398.052 927.97 425.024 894.695 425.024C861.421 425.024 834.447 398.052 834.447 364.779C834.447 331.507 861.421 304.535 894.695 304.535C927.97 304.535 954.944 331.507 954.944 364.779Z" stroke="#A09DA6" stroke-opacity="0.25" stroke-width="0.937239"/>
<path d="M756.2 139.489C789.733 139.489 816.917 112.307 816.917 78.7756C816.917 45.2447 789.733 18.0625 756.2 18.0625C722.667 18.0625 695.483 45.2447 695.483 78.7756C695.483 112.307 722.667 139.489 756.2 139.489Z" fill="white"/>
<path d="M816.448 78.7756C816.448 112.048 789.474 139.02 756.2 139.02C722.926 139.02 695.952 112.048 695.952 78.7756C695.952 45.5035 722.926 18.5311 756.2 18.5311C789.474 18.5311 816.448 45.5035 816.448 78.7756Z" stroke="#A09DA6" stroke-opacity="0.25" stroke-width="0.937239"/>
<path d="M636.157 149.291C664.915 149.291 688.228 125.98 688.228 97.2236C688.228 68.4676 664.915 45.1562 636.157 45.1562C607.399 45.1562 584.086 68.4676 584.086 97.2236C584.086 125.98 607.399 149.291 636.157 149.291Z" fill="white"/>
<path d="M687.759 97.2236C687.759 125.721 664.656 148.822 636.157 148.822C607.658 148.822 584.555 125.721 584.555 97.2236C584.555 68.7265 607.658 45.6249 636.157 45.6249C664.656 45.6249 687.759 68.7265 687.759 97.2236Z" stroke="#A09DA6" stroke-opacity="0.25" stroke-width="0.937239"/>
<path d="M808.889 485.704C833.277 485.704 853.047 465.935 853.047 441.549C853.047 417.163 833.277 397.394 808.889 397.394C784.501 397.394 764.731 417.163 764.731 441.549C764.731 465.935 784.501 485.704 808.889 485.704Z" fill="white"/>
<path d="M852.578 441.549C852.578 465.677 833.018 485.236 808.889 485.236C784.76 485.236 765.2 465.677 765.2 441.549C765.2 417.422 784.76 397.863 808.889 397.863C833.018 397.863 852.578 417.422 852.578 441.549Z" stroke="#A09DA6" stroke-opacity="0.25" stroke-width="0.937239"/>
<path d="M110.622 296.036C126.973 296.036 140.228 282.782 140.228 266.432C140.228 250.082 126.973 236.828 110.622 236.828C94.271 236.828 81.0161 250.082 81.0161 266.432C81.0161 282.782 94.271 296.036 110.622 296.036Z" fill="white"/>
<path d="M139.759 266.432C139.759 282.523 126.714 295.567 110.622 295.567C94.5305 295.567 81.4854 282.523 81.4854 266.432C81.4854 250.341 94.5305 237.297 110.622 237.297C126.714 237.297 139.759 250.341 139.759 266.432Z" stroke="#A09DA6" stroke-opacity="0.25" stroke-width="0.937239"/>
<path d="M854.684 135.542C872.144 135.542 886.297 121.389 886.297 103.931C886.297 86.4728 872.144 72.3201 854.684 72.3201C837.225 72.3201 823.071 86.4728 823.071 103.931C823.071 121.389 837.225 135.542 854.684 135.542Z" fill="white"/>
<path d="M885.828 103.931C885.828 121.131 871.885 135.074 854.684 135.074C837.484 135.074 823.54 121.131 823.54 103.931C823.54 86.7319 837.484 72.7889 854.684 72.7889C871.885 72.7889 885.828 86.7319 885.828 103.931Z" stroke="#A09DA6" stroke-opacity="0.25" stroke-width="0.937239"/>
<path d="M724.086 477.671C741.545 477.671 755.699 463.518 755.699 446.06C755.699 428.602 741.545 414.449 724.086 414.449C706.627 414.449 692.473 428.602 692.473 446.06C692.473 463.518 706.627 477.671 724.086 477.671Z" fill="white"/>
<path d="M755.23 446.06C755.23 463.26 741.287 477.202 724.086 477.202C706.886 477.202 692.942 463.26 692.942 446.06C692.942 428.861 706.886 414.918 724.086 414.918C741.287 414.918 755.23 428.861 755.23 446.06Z" stroke="#A09DA6" stroke-opacity="0.25" stroke-width="0.937239"/>
<path d="M751.196 408.995C778.371 408.995 800.401 387.386 800.401 360.73C800.401 334.074 778.371 312.465 751.196 312.465C724.021 312.465 701.991 334.074 701.991 360.73C701.991 387.386 724.021 408.995 751.196 408.995Z" fill="white"/>
<path d="M799.933 360.73C799.933 387.118 778.121 408.526 751.196 408.526C724.271 408.526 702.46 387.118 702.46 360.73C702.46 334.341 724.271 312.933 751.196 312.933C778.121 312.933 799.933 334.341 799.933 360.73Z" stroke="#A09DA6" stroke-opacity="0.25" stroke-width="0.937239"/>
<path d="M560.469 155.957C573.41 155.957 583.9 145.467 583.9 132.527C583.9 119.587 573.41 109.098 560.469 109.098C547.528 109.098 537.038 119.587 537.038 132.527C537.038 145.467 547.528 155.957 560.469 155.957Z" fill="white"/>
<path d="M583.431 132.527C583.431 145.208 573.15 155.488 560.469 155.488C547.787 155.488 537.506 145.208 537.506 132.527C537.506 119.846 547.787 109.566 560.469 109.566C573.15 109.566 583.431 119.846 583.431 132.527Z" stroke="#A09DA6" stroke-opacity="0.25" stroke-width="0.937239"/>
<path d="M344.696 128.363C350.793 128.363 355.736 123.42 355.736 117.324C355.736 111.227 350.793 106.285 344.696 106.285C338.599 106.285 333.657 111.227 333.657 117.324C333.657 123.42 338.599 128.363 344.696 128.363Z" fill="white"/>
<path d="M355.267 117.324C355.267 123.162 350.534 127.894 344.696 127.894C338.858 127.894 334.125 123.162 334.125 117.324C334.125 111.486 338.858 106.754 344.696 106.754C350.534 106.754 355.267 111.486 355.267 117.324Z" stroke="#A09DA6" stroke-opacity="0.25" stroke-width="0.937239"/>
<path d="M142.623 248.391C145.729 248.391 148.246 245.874 148.246 242.768C148.246 239.662 145.729 237.145 142.623 237.145C139.517 237.145 137 239.662 137 242.768C137 245.874 139.517 248.391 142.623 248.391Z" fill="white"/>
<path d="M142.623 247.923C145.47 247.923 147.778 245.615 147.778 242.768C147.778 239.921 145.47 237.613 142.623 237.613C139.776 237.613 137.468 239.921 137.468 242.768C137.468 245.615 139.776 247.923 142.623 247.923Z" stroke="#A09DA6" stroke-opacity="0.25" stroke-width="0.937239"/>
<path d="M362.623 64.4031C365.729 64.4031 368.246 61.8854 368.246 58.7797C368.246 55.6739 365.729 53.1562 362.623 53.1562C359.517 53.1562 357 55.6739 357 58.7797C357 61.8854 359.517 64.4031 362.623 64.4031Z" fill="white"/>
<path d="M362.623 63.9345C365.47 63.9345 367.778 61.6266 367.778 58.7797C367.778 55.9328 365.47 53.6249 362.623 53.6249C359.776 53.6249 357.468 55.9328 357.468 58.7797C357.468 61.6266 359.776 63.9345 362.623 63.9345Z" stroke="#A09DA6" stroke-opacity="0.25" stroke-width="0.937239"/>
<path d="M685.368 381.688C688.474 381.688 690.992 379.171 690.992 376.065C690.992 372.959 688.474 370.442 685.368 370.442C682.262 370.442 679.745 372.959 679.745 376.065C679.745 379.171 682.262 381.688 685.368 381.688Z" fill="white"/>
<path d="M685.368 381.22C688.215 381.22 690.523 378.912 690.523 376.065C690.523 373.218 688.215 370.91 685.368 370.91C682.521 370.91 680.213 373.218 680.213 376.065C680.213 378.912 682.521 381.22 685.368 381.22Z" stroke="#A09DA6" stroke-opacity="0.25" stroke-width="0.937239"/>
<path d="M689.117 357.325C692.223 357.325 694.74 354.808 694.74 351.702C694.74 348.596 692.223 346.079 689.117 346.079C686.011 346.079 683.494 348.596 683.494 351.702C683.494 354.808 686.011 357.325 689.117 357.325Z" fill="white"/>
<path d="M689.117 356.857C691.964 356.857 694.272 354.549 694.272 351.702C694.272 348.855 691.964 346.547 689.117 346.547C686.27 346.547 683.962 348.855 683.962 351.702C683.962 354.549 686.27 356.857 689.117 356.857Z" stroke="#A09DA6" stroke-opacity="0.25" stroke-width="0.937239"/>
<path d="M666.623 356.387C669.729 356.387 672.246 353.87 672.246 350.764C672.246 347.658 669.729 345.141 666.623 345.141C663.517 345.141 661 347.658 661 350.764C661 353.87 663.517 356.387 666.623 356.387Z" fill="white"/>
<path d="M666.623 355.919C669.47 355.919 671.778 353.611 671.778 350.764C671.778 347.917 669.47 345.609 666.623 345.609C663.776 345.609 661.468 347.917 661.468 350.764C661.468 353.611 663.776 355.919 666.623 355.919Z" stroke="#A09DA6" stroke-opacity="0.25" stroke-width="0.937239"/>
<path d="M231.498 320.711C234.604 320.711 237.121 318.194 237.121 315.088C237.121 311.982 234.604 309.465 231.498 309.465C228.392 309.465 225.875 311.982 225.875 315.088C225.875 318.194 228.392 320.711 231.498 320.711Z" fill="white"/>
<path d="M231.498 320.243C234.345 320.243 236.653 317.935 236.653 315.088C236.653 312.241 234.345 309.933 231.498 309.933C228.651 309.933 226.343 312.241 226.343 315.088C226.343 317.935 228.651 320.243 231.498 320.243Z" stroke="#A09DA6" stroke-opacity="0.25" stroke-width="0.937239"/>
<path d="M228.686 165.332C231.792 165.332 234.309 162.815 234.309 159.709C234.309 156.603 231.792 154.086 228.686 154.086C225.58 154.086 223.062 156.603 223.062 159.709C223.062 162.815 225.58 165.332 228.686 165.332Z" fill="white"/>
<path d="M228.686 164.864C231.533 164.864 233.841 162.556 233.841 159.709C233.841 156.862 231.533 154.554 228.686 154.554C225.839 154.554 223.531 156.862 223.531 159.709C223.531 162.556 225.839 164.864 228.686 164.864Z" stroke="#A09DA6" stroke-opacity="0.25" stroke-width="0.937239"/>
<path d="M402.623 128.399C405.729 128.399 408.246 125.882 408.246 122.776C408.246 119.67 405.729 117.153 402.623 117.153C399.517 117.153 397 119.67 397 122.776C397 125.882 399.517 128.399 402.623 128.399Z" fill="white"/>
<path d="M402.623 127.931C405.47 127.931 407.778 125.623 407.778 122.776C407.778 119.929 405.47 117.621 402.623 117.621C399.776 117.621 397.468 119.929 397.468 122.776C397.468 125.623 399.776 127.931 402.623 127.931Z" stroke="#A09DA6" stroke-opacity="0.25" stroke-width="0.937239"/>
<path d="M234.309 182.196C237.415 182.196 239.932 179.679 239.932 176.573C239.932 173.467 237.415 170.95 234.309 170.95C231.203 170.95 228.686 173.467 228.686 176.573C228.686 179.679 231.203 182.196 234.309 182.196Z" fill="white"/>
<path d="M234.309 181.728C237.156 181.728 239.464 179.42 239.464 176.573C239.464 173.726 237.156 171.418 234.309 171.418C231.462 171.418 229.154 173.726 229.154 176.573C229.154 179.42 231.462 181.728 234.309 181.728Z" stroke="#A09DA6" stroke-opacity="0.25" stroke-width="0.937239"/>
<path d="M215.565 176.575C218.671 176.575 221.188 174.058 221.188 170.952C221.188 167.846 218.671 165.329 215.565 165.329C212.459 165.329 209.941 167.846 209.941 170.952C209.941 174.058 212.459 176.575 215.565 176.575Z" fill="white"/>
<path d="M215.565 176.107C218.412 176.107 220.72 173.799 220.72 170.952C220.72 168.105 218.412 165.797 215.565 165.797C212.718 165.797 210.41 168.105 210.41 170.952C210.41 173.799 212.718 176.107 215.565 176.107Z" stroke="#A09DA6" stroke-opacity="0.25" stroke-width="0.937239"/>
<path d="M367.623 133.399C370.729 133.399 373.246 130.882 373.246 127.776C373.246 124.67 370.729 122.153 367.623 122.153C364.517 122.153 362 124.67 362 127.776C362 130.882 364.517 133.399 367.623 133.399Z" fill="white"/>
<path d="M367.623 132.931C370.47 132.931 372.778 130.623 372.778 127.776C372.778 124.929 370.47 122.621 367.623 122.621C364.776 122.621 362.468 124.929 362.468 127.776C362.468 130.623 364.776 132.931 367.623 132.931Z" stroke="#A09DA6" stroke-opacity="0.25" stroke-width="0.937239"/>
<path d="M161.205 312.469C164.311 312.469 166.828 309.952 166.828 306.846C166.828 303.74 164.311 301.223 161.205 301.223C158.099 301.223 155.582 303.74 155.582 306.846C155.582 309.952 158.099 312.469 161.205 312.469Z" fill="white"/>
<path d="M161.205 312.001C164.052 312.001 166.36 309.693 166.36 306.846C166.36 303.999 164.052 301.691 161.205 301.691C158.358 301.691 156.05 303.999 156.05 306.846C156.05 309.693 158.358 312.001 161.205 312.001Z" stroke="#A09DA6" stroke-opacity="0.25" stroke-width="0.937239"/>
<path d="M249.623 279.391C252.729 279.391 255.246 276.874 255.246 273.768C255.246 270.662 252.729 268.145 249.623 268.145C246.517 268.145 244 270.662 244 273.768C244 276.874 246.517 279.391 249.623 279.391Z" fill="white"/>
<path d="M249.623 278.923C252.47 278.923 254.778 276.615 254.778 273.768C254.778 270.921 252.47 268.613 249.623 268.613C246.776 268.613 244.468 270.921 244.468 273.768C244.468 276.615 246.776 278.923 249.623 278.923Z" stroke="#A09DA6" stroke-opacity="0.25" stroke-width="0.937239"/>
<path d="M267 226.148C268.657 226.148 270 224.805 270 223.148C270 221.491 268.657 220.148 267 220.148C265.343 220.148 264 221.491 264 223.148C264 224.805 265.343 226.148 267 226.148Z" fill="white"/>
<path d="M267 225.898C268.519 225.898 269.75 224.667 269.75 223.148C269.75 221.629 268.519 220.398 267 220.398C265.481 220.398 264.25 221.629 264.25 223.148C264.25 224.667 265.481 225.898 267 225.898Z" stroke="#A09DA6" stroke-opacity="0.25" stroke-width="0.5"/>
<path d="M312 142.152C313.657 142.152 315 140.809 315 139.152C315 137.495 313.657 136.152 312 136.152C310.343 136.152 309 137.495 309 139.152C309 140.809 310.343 142.152 312 142.152Z" fill="white"/>
<path d="M312 141.902C313.519 141.902 314.75 140.671 314.75 139.152C314.75 137.633 313.519 136.402 312 136.402C310.481 136.402 309.25 137.633 309.25 139.152C309.25 140.671 310.481 141.902 312 141.902Z" stroke="#A09DA6" stroke-opacity="0.25" stroke-width="0.5"/>
<path d="M195.676 175.222C201.773 175.222 206.716 170.279 206.716 164.183C206.716 158.086 201.773 153.144 195.676 153.144C189.579 153.144 184.637 158.086 184.637 164.183C184.637 170.279 189.579 175.222 195.676 175.222Z" fill="white"/>
<path d="M206.246 164.183C206.246 170.021 201.514 174.753 195.676 174.753C189.838 174.753 185.105 170.021 185.105 164.183C185.105 158.346 189.838 153.613 195.676 153.613C201.514 153.613 206.246 158.346 206.246 164.183Z" stroke="#A09DA6" stroke-opacity="0.25" stroke-width="0.937239"/>
<path d="M134.755 229.582C140.852 229.582 145.795 224.639 145.795 218.543C145.795 212.446 140.852 207.504 134.755 207.504C128.658 207.504 123.716 212.446 123.716 218.543C123.716 224.639 128.658 229.582 134.755 229.582Z" fill="white"/>
<path d="M145.326 218.543C145.326 224.38 140.593 229.113 134.755 229.113C128.917 229.113 124.184 224.38 124.184 218.543C124.184 212.705 128.917 207.973 134.755 207.973C140.593 207.973 145.326 212.705 145.326 218.543Z" stroke="#A09DA6" stroke-opacity="0.25" stroke-width="0.937239"/>
<path d="M542.453 375.781C548.55 375.781 553.492 370.839 553.492 364.742C553.492 358.645 548.55 353.703 542.453 353.703C536.356 353.703 531.414 358.645 531.414 364.742C531.414 370.839 536.356 375.781 542.453 375.781Z" fill="white"/>
<path d="M553.024 364.742C553.024 370.58 548.292 375.312 542.453 375.312C536.615 375.312 531.883 370.58 531.883 364.742C531.883 358.904 536.615 354.172 542.453 354.172C548.292 354.172 553.024 358.904 553.024 364.742Z" stroke="#A09DA6" stroke-opacity="0.25" stroke-width="0.937239"/>
<path d="M397.182 340.918C403.279 340.918 408.221 335.976 408.221 329.879C408.221 323.782 403.279 318.84 397.182 318.84C391.085 318.84 386.143 323.782 386.143 329.879C386.143 335.976 391.085 340.918 397.182 340.918Z" fill="white"/>
<path d="M407.752 329.879C407.752 335.716 403.02 340.449 397.182 340.449C391.343 340.449 386.611 335.716 386.611 329.879C386.611 324.041 391.343 319.308 397.182 319.308C403.02 319.308 407.752 324.041 407.752 329.879Z" stroke="#A09DA6" stroke-opacity="0.25" stroke-width="0.937239"/>
<path d="M843.307 314.863C849.404 314.863 854.346 309.921 854.346 303.824C854.346 297.727 849.404 292.785 843.307 292.785C837.21 292.785 832.268 297.727 832.268 303.824C832.268 309.921 837.21 314.863 843.307 314.863Z" fill="white"/>
<path d="M853.878 303.824C853.878 309.662 849.145 314.394 843.307 314.394C837.469 314.394 832.736 309.662 832.736 303.824C832.736 297.986 837.469 293.254 843.307 293.254C849.145 293.254 853.878 297.986 853.878 303.824Z" stroke="#A09DA6" stroke-opacity="0.25" stroke-width="0.937239"/>
<path d="M811.441 392.652C817.538 392.652 822.48 387.71 822.48 381.613C822.48 375.517 817.538 370.574 811.441 370.574C805.344 370.574 800.401 375.517 800.401 381.613C800.401 387.71 805.344 392.652 811.441 392.652Z" fill="white"/>
<path d="M822.012 381.613C822.012 387.451 817.279 392.183 811.441 392.183C805.603 392.183 800.87 387.451 800.87 381.613C800.87 375.775 805.603 371.043 811.441 371.043C817.279 371.043 822.012 375.775 822.012 381.613Z" stroke="#A09DA6" stroke-opacity="0.25" stroke-width="0.937239"/>
<path d="M787.073 312.988C793.17 312.988 798.112 308.046 798.112 301.949C798.112 295.852 793.17 290.91 787.073 290.91C780.976 290.91 776.034 295.852 776.034 301.949C776.034 308.046 780.976 312.988 787.073 312.988Z" fill="white"/>
<path d="M797.643 301.949C797.643 307.787 792.911 312.519 787.073 312.519C781.235 312.519 776.502 307.787 776.502 301.949C776.502 296.111 781.235 291.379 787.073 291.379C792.911 291.379 797.643 296.111 797.643 301.949Z" stroke="#A09DA6" stroke-opacity="0.25" stroke-width="0.937239"/>
<path d="M594.002 159.293C600.099 159.293 605.041 154.351 605.041 148.254C605.041 142.158 600.099 137.215 594.002 137.215C587.905 137.215 582.962 142.158 582.962 148.254C582.962 154.351 587.905 159.293 594.002 159.293Z" fill="white"/>
<path d="M604.573 148.254C604.573 154.091 599.84 158.824 594.002 158.824C588.164 158.824 583.431 154.091 583.431 148.254C583.431 142.416 588.164 137.683 594.002 137.683C599.84 137.683 604.573 142.416 604.573 148.254Z" stroke="#A09DA6" stroke-opacity="0.25" stroke-width="0.937239"/>
<path d="M569.634 90.8782C575.731 90.8782 580.674 85.936 580.674 79.8395C580.674 73.743 575.731 68.8008 569.634 68.8008C563.537 68.8008 558.595 73.743 558.595 79.8395C558.595 85.936 563.537 90.8782 569.634 90.8782Z" fill="white"/>
<path d="M580.204 79.8395C580.204 85.6772 575.472 90.4096 569.634 90.4096C563.796 90.4096 559.063 85.6772 559.063 79.8395C559.063 74.0018 563.796 69.2694 569.634 69.2694C575.472 69.2694 580.204 74.0018 580.204 79.8395Z" stroke="#A09DA6" stroke-opacity="0.25" stroke-width="0.937239"/>
<path d="M696.161 138.675C702.258 138.675 707.2 133.733 707.2 127.636C707.2 121.539 702.258 116.597 696.161 116.597C690.064 116.597 685.122 121.539 685.122 127.636C685.122 133.733 690.064 138.675 696.161 138.675Z" fill="white"/>
<path d="M706.731 127.636C706.731 133.474 701.999 138.207 696.161 138.207C690.322 138.207 685.59 133.474 685.59 127.636C685.59 121.799 690.322 117.066 696.161 117.066C701.999 117.066 706.731 121.799 706.731 127.636Z" stroke="#A09DA6" stroke-opacity="0.25" stroke-width="0.937239"/>
<path d="M195.197 335.172C206.559 335.172 215.771 325.962 215.771 314.6C215.771 303.238 206.559 294.028 195.197 294.028C183.835 294.028 174.624 303.238 174.624 314.6C174.624 325.962 183.835 335.172 195.197 335.172Z" fill="white"/>
<path d="M215.302 314.6C215.302 325.702 206.301 334.703 195.197 334.703C184.094 334.703 175.093 325.702 175.093 314.6C175.093 303.497 184.094 294.496 195.197 294.496C206.301 294.496 215.302 303.497 215.302 314.6Z" stroke="#A09DA6" stroke-opacity="0.25" stroke-width="0.937239"/>
<path d="M292 279.142C301.389 279.142 309 271.531 309 262.143C309 252.755 301.389 245.144 292 245.144C282.611 245.144 275 252.755 275 262.143C275 271.531 282.611 279.142 292 279.142Z" fill="white"/>
<path d="M308.613 262.143C308.613 271.318 301.175 278.755 292 278.755C282.825 278.755 275.387 271.318 275.387 262.143C275.387 252.969 282.825 245.532 292 245.532C301.175 245.532 308.613 252.969 308.613 262.143Z" stroke="#A09DA6" stroke-opacity="0.25" stroke-width="0.774446"/>
<path d="M342 170.15C351.389 170.15 359 162.539 359 153.151C359 143.763 351.389 136.152 342 136.152C332.611 136.152 325 143.763 325 153.151C325 162.539 332.611 170.15 342 170.15Z" fill="white"/>
<path d="M358.613 153.151C358.613 162.326 351.175 169.763 342 169.763C332.825 169.763 325.387 162.326 325.387 153.151C325.387 143.977 332.825 136.54 342 136.54C351.175 136.54 358.613 143.977 358.613 153.151Z" stroke="#A09DA6" stroke-opacity="0.25" stroke-width="0.774446"/>
<path d="M880 287.145C883.314 287.145 886 284.459 886 281.145C886 277.831 883.314 275.145 880 275.145C876.686 275.145 874 277.831 874 281.145C874 284.459 876.686 287.145 880 287.145Z" fill="white"/>
<path d="M880 287.008C883.238 287.008 885.863 284.383 885.863 281.145C885.863 277.907 883.238 275.282 880 275.282C876.762 275.282 874.137 277.907 874.137 281.145C874.137 284.383 876.762 287.008 880 287.008Z" stroke="#A09DA6" stroke-opacity="0.25" stroke-width="0.273334"/>
<path d="M859 163.152C862.314 163.152 865 160.466 865 157.152C865 153.838 862.314 151.152 859 151.152C855.686 151.152 853 153.838 853 157.152C853 160.466 855.686 163.152 859 163.152Z" fill="white"/>
<path d="M859 163.015C862.238 163.015 864.863 160.39 864.863 157.152C864.863 153.914 862.238 151.289 859 151.289C855.762 151.289 853.137 153.914 853.137 157.152C853.137 160.39 855.762 163.015 859 163.015Z" stroke="#A09DA6" stroke-opacity="0.25" stroke-width="0.273334"/>
<path d="M377.16 115.5C388.245 115.5 397.232 106.514 397.232 95.4298C397.232 84.3452 388.245 75.3594 377.16 75.3594C366.075 75.3594 357.088 84.3452 357.088 95.4298C357.088 106.514 366.075 115.5 377.16 115.5Z" fill="white"/>
<path d="M396.763 95.4298C396.763 106.256 387.986 115.032 377.16 115.032C366.333 115.032 357.557 106.256 357.557 95.4298C357.557 84.6041 366.333 75.828 377.16 75.828C387.986 75.828 396.763 84.6041 396.763 95.4298Z" stroke="#A09DA6" stroke-opacity="0.25" stroke-width="0.937239"/>
<path d="M577.728 63.9572C588.813 63.9572 597.8 54.9714 597.8 43.8868C597.8 32.8022 588.813 23.8164 577.728 23.8164C566.643 23.8164 557.656 32.8022 557.656 43.8868C557.656 54.9714 566.643 63.9572 577.728 63.9572Z" fill="white"/>
<path d="M597.331 43.8868C597.331 54.7126 588.555 63.4887 577.728 63.4887C566.902 63.4887 558.125 54.7126 558.125 43.8868C558.125 33.0611 566.902 24.285 577.728 24.285C588.555 24.285 597.331 33.0611 597.331 43.8868Z" stroke="#A09DA6" stroke-opacity="0.25" stroke-width="0.937239"/>
<path d="M683.637 50.8362C694.722 50.8362 703.709 41.8503 703.709 30.7658C703.709 19.6812 694.722 10.6954 683.637 10.6954C672.552 10.6954 663.565 19.6812 663.565 30.7658C663.565 41.8503 672.552 50.8362 683.637 50.8362Z" fill="white"/>
<path d="M703.24 30.7658C703.24 41.5915 694.463 50.3676 683.637 50.3676C672.81 50.3676 664.034 41.5915 664.034 30.7658C664.034 19.94 672.81 11.1639 683.637 11.1639C694.463 11.1639 703.24 19.94 703.24 30.7658Z" stroke="#A09DA6" stroke-opacity="0.25" stroke-width="0.937239"/>
<path d="M904.825 94.883C915.91 94.883 924.897 85.8972 924.897 74.8126C924.897 63.728 915.91 54.7422 904.825 54.7422C893.74 54.7422 884.753 63.728 884.753 74.8126C884.753 85.8972 893.74 94.883 904.825 94.883Z" fill="white"/>
<path d="M924.428 74.8126C924.428 85.6384 915.651 94.4144 904.825 94.4144C893.998 94.4144 885.222 85.6384 885.222 74.8126C885.222 63.9869 893.998 55.2108 904.825 55.2108C915.651 55.2108 924.428 63.9869 924.428 74.8126Z" stroke="#A09DA6" stroke-opacity="0.25" stroke-width="0.937239"/>
<path d="M837.344 67.7072C848.429 67.7072 857.416 58.7214 857.416 47.6368C857.416 36.5522 848.429 27.5664 837.344 27.5664C826.259 27.5664 817.272 36.5522 817.272 47.6368C817.272 58.7214 826.259 67.7072 837.344 67.7072Z" fill="white"/>
<path d="M856.947 47.6368C856.947 58.4626 848.17 67.2387 837.344 67.2387C826.517 67.2387 817.741 58.4626 817.741 47.6368C817.741 36.8111 826.517 28.035 837.344 28.035C848.17 28.035 856.947 36.8111 856.947 47.6368Z" stroke="#A09DA6" stroke-opacity="0.25" stroke-width="0.937239"/>
<path d="M840.5 228.145C854.031 228.145 865 217.177 865 203.647C865 190.117 854.031 179.148 840.5 179.148C826.969 179.148 816 190.117 816 203.647C816 217.177 826.969 228.145 840.5 228.145Z" fill="white"/>
<path d="M864.428 203.647C864.428 216.861 853.715 227.573 840.5 227.573C827.285 227.573 816.572 216.861 816.572 203.647C816.572 190.433 827.285 179.72 840.5 179.72C853.715 179.72 864.428 190.433 864.428 203.647Z" stroke="#A09DA6" stroke-opacity="0.25" stroke-width="1.14402"/>
<path d="M817.661 345.109C828.746 345.109 837.733 336.124 837.733 325.039C837.733 313.954 828.746 304.969 817.661 304.969C806.576 304.969 797.589 313.954 797.589 325.039C797.589 336.124 806.576 345.109 817.661 345.109Z" fill="white"/>
<path d="M837.265 325.039C837.265 335.865 828.488 344.641 817.662 344.641C806.835 344.641 798.058 335.865 798.058 325.039C798.058 314.213 806.835 305.437 817.662 305.437C828.488 305.437 837.265 314.213 837.265 325.039Z" stroke="#A09DA6" stroke-opacity="0.25" stroke-width="0.937239"/>
<path d="M859 267.143C866.732 267.143 873 260.875 873 253.144C873 245.413 866.732 239.145 859 239.145C851.268 239.145 845 245.413 845 253.144C845 260.875 851.268 267.143 859 267.143Z" fill="white"/>
<path d="M872.673 253.144C872.673 260.695 866.551 266.816 859 266.816C851.449 266.816 845.327 260.695 845.327 253.144C845.327 245.593 851.449 239.471 859 239.471C866.551 239.471 872.673 245.593 872.673 253.144Z" stroke="#A09DA6" stroke-opacity="0.25" stroke-width="0.653724"/>
<path d="M812.038 163.297C823.123 163.297 832.11 154.312 832.11 143.227C832.11 132.142 823.123 123.157 812.038 123.157C800.953 123.157 791.966 132.142 791.966 143.227C791.966 154.312 800.953 163.297 812.038 163.297Z" fill="white"/>
<path d="M831.641 143.227C831.641 154.052 822.864 162.829 812.038 162.829C801.211 162.829 792.435 154.052 792.435 143.227C792.435 132.401 801.211 123.625 812.038 123.625C822.864 123.625 831.641 132.401 831.641 143.227Z" stroke="#A09DA6" stroke-opacity="0.25" stroke-width="0.937239"/>
<path d="M223.452 152.051C234.537 152.051 243.524 143.066 243.524 131.981C243.524 120.896 234.537 111.911 223.452 111.911C212.367 111.911 203.38 120.896 203.38 131.981C203.38 143.066 212.367 152.051 223.452 152.051Z" fill="white"/>
<path d="M243.055 131.981C243.055 142.806 234.279 151.582 223.452 151.582C212.626 151.582 203.849 142.806 203.849 131.981C203.849 121.155 212.626 112.379 223.452 112.379C234.279 112.379 243.055 121.155 243.055 131.981Z" stroke="#A09DA6" stroke-opacity="0.25" stroke-width="0.937239"/>
<path d="M415.665 378.823C425.759 378.823 433.941 370.641 433.941 360.548C433.941 350.455 425.759 342.273 415.665 342.273C405.571 342.273 397.389 350.455 397.389 360.548C397.389 370.641 405.571 378.823 415.665 378.823Z" fill="white"/>
<path d="M433.472 360.548C433.472 370.383 425.5 378.355 415.665 378.355C405.83 378.355 397.857 370.383 397.857 360.548C397.857 350.714 405.83 342.742 415.665 342.742C425.5 342.742 433.472 350.714 433.472 360.548Z" stroke="#A09DA6" stroke-opacity="0.25" stroke-width="0.937239"/>
<path d="M702.929 416.495C710.176 416.495 716.05 410.62 716.05 403.374C716.05 396.128 710.176 390.254 702.929 390.254C695.682 390.254 689.808 396.128 689.808 403.374C689.808 410.62 695.682 416.495 702.929 416.495Z" fill="white"/>
<path d="M715.582 403.374C715.582 410.362 709.917 416.026 702.929 416.026C695.941 416.026 690.276 410.362 690.276 403.374C690.276 396.387 695.941 390.723 702.929 390.723C709.917 390.723 715.582 396.387 715.582 403.374Z" stroke="#A09DA6" stroke-opacity="0.25" stroke-width="0.937239"/>
<path d="M1017.13 421.475C1044.01 421.475 1065.8 399.684 1065.8 372.804C1065.8 345.924 1044.01 324.133 1017.13 324.133C990.248 324.133 968.456 345.924 968.456 372.804C968.456 399.684 990.248 421.475 1017.13 421.475Z" fill="white"/>
<path d="M1065.34 372.804C1065.34 399.425 1043.76 421.006 1017.13 421.006C990.509 421.006 968.927 399.425 968.927 372.804C968.927 346.182 990.509 324.601 1017.13 324.601C1043.76 324.601 1065.34 346.182 1065.34 372.804Z" stroke="#A09DA6" stroke-opacity="0.25" stroke-width="0.937239"/>
<path d="M113.231 457.253C156.368 457.253 191.337 422.286 191.337 379.152C191.337 336.018 156.368 301.051 113.231 301.051C70.0942 301.051 35.125 336.018 35.125 379.152C35.125 422.286 70.0942 457.253 113.231 457.253Z" fill="white"/>
<path d="M190.869 379.152C190.869 422.027 156.109 456.784 113.231 456.784C70.3536 456.784 35.5942 422.027 35.5942 379.152C35.5942 336.277 70.3536 301.519 113.231 301.519C156.109 301.519 190.869 336.277 190.869 379.152Z" stroke="#A09DA6" stroke-opacity="0.25" stroke-width="0.937239"/>
<path d="M381.84 220.44V249H384.56V224.84H384.64L401.28 249H404.32V220.44H401.6V244.6H401.52L384.88 220.44H381.84ZM418.324 229.88C419.524 229.88 420.577 230.133 421.484 230.64C422.391 231.147 423.137 231.813 423.724 232.64C424.337 233.467 424.791 234.413 425.084 235.48C425.404 236.52 425.564 237.587 425.564 238.68C425.564 239.773 425.404 240.853 425.084 241.92C424.791 242.96 424.337 243.893 423.724 244.72C423.137 245.547 422.391 246.213 421.484 246.72C420.577 247.227 419.524 247.48 418.324 247.48C417.124 247.48 416.071 247.227 415.164 246.72C414.257 246.213 413.497 245.547 412.884 244.72C412.297 243.893 411.844 242.96 411.524 241.92C411.231 240.853 411.084 239.773 411.084 238.68C411.084 237.587 411.231 236.52 411.524 235.48C411.844 234.413 412.297 233.467 412.884 232.64C413.497 231.813 414.257 231.147 415.164 230.64C416.071 230.133 417.124 229.88 418.324 229.88ZM418.324 227.76C416.751 227.76 415.351 228.053 414.124 228.64C412.924 229.227 411.911 230.013 411.084 231C410.257 231.987 409.631 233.147 409.204 234.48C408.777 235.787 408.564 237.187 408.564 238.68C408.564 240.173 408.777 241.587 409.204 242.92C409.631 244.227 410.257 245.373 411.084 246.36C411.911 247.347 412.924 248.133 414.124 248.72C415.351 249.28 416.751 249.56 418.324 249.56C419.897 249.56 421.284 249.28 422.484 248.72C423.711 248.133 424.737 247.347 425.564 246.36C426.391 245.373 427.017 244.227 427.444 242.92C427.871 241.587 428.084 240.173 428.084 238.68C428.084 237.187 427.871 235.787 427.444 234.48C427.017 233.147 426.391 231.987 425.564 231C424.737 230.013 423.711 229.227 422.484 228.64C421.284 228.053 419.897 227.76 418.324 227.76ZM443.043 220.44V249H445.363V245.08H445.443C446.03 246.52 446.977 247.627 448.283 248.4C449.617 249.173 451.123 249.56 452.803 249.56C454.377 249.56 455.737 249.28 456.883 248.72C458.057 248.133 459.03 247.347 459.803 246.36C460.577 245.347 461.15 244.187 461.523 242.88C461.897 241.547 462.083 240.147 462.083 238.68C462.083 237.213 461.897 235.827 461.523 234.52C461.15 233.187 460.577 232.027 459.803 231.04C459.03 230.027 458.057 229.227 456.883 228.64C455.737 228.053 454.377 227.76 452.803 227.76C452.057 227.76 451.31 227.853 450.563 228.04C449.817 228.227 449.123 228.52 448.483 228.92C447.843 229.293 447.27 229.76 446.763 230.32C446.283 230.88 445.91 231.533 445.643 232.28H445.563V220.44H443.043ZM459.563 238.68C459.563 239.747 459.43 240.813 459.163 241.88C458.923 242.92 458.523 243.853 457.963 244.68C457.43 245.507 456.737 246.187 455.883 246.72C455.03 247.227 454.003 247.48 452.803 247.48C451.47 247.48 450.337 247.227 449.403 246.72C448.497 246.187 447.75 245.507 447.163 244.68C446.603 243.853 446.19 242.92 445.923 241.88C445.683 240.813 445.563 239.747 445.563 238.68C445.563 237.613 445.683 236.56 445.923 235.52C446.19 234.453 446.603 233.507 447.163 232.68C447.75 231.853 448.497 231.187 449.403 230.68C450.337 230.147 451.47 229.88 452.803 229.88C454.003 229.88 455.03 230.147 455.883 230.68C456.737 231.187 457.43 231.853 457.963 232.68C458.523 233.507 458.923 234.453 459.163 235.52C459.43 236.56 459.563 237.613 459.563 238.68ZM482.772 249V228.36H480.252V239.2C480.252 240.24 480.132 241.267 479.892 242.28C479.652 243.267 479.279 244.147 478.772 244.92C478.266 245.693 477.626 246.32 476.852 246.8C476.079 247.253 475.146 247.48 474.052 247.48C472.052 247.48 470.639 247 469.812 246.04C469.012 245.08 468.586 243.667 468.532 241.8V228.36H466.012V241.76C466.012 242.987 466.146 244.08 466.412 245.04C466.679 246 467.092 246.813 467.652 247.48C468.239 248.147 468.986 248.653 469.892 249C470.826 249.373 471.946 249.56 473.252 249.56C474.799 249.56 476.199 249.2 477.452 248.48C478.732 247.733 479.706 246.667 480.372 245.28H480.452V249H482.772ZM487.577 220.44V249H489.897V245.08H489.977C490.563 246.52 491.51 247.627 492.817 248.4C494.15 249.173 495.657 249.56 497.337 249.56C498.91 249.56 500.27 249.28 501.417 248.72C502.59 248.133 503.563 247.347 504.337 246.36C505.11 245.347 505.683 244.187 506.057 242.88C506.43 241.547 506.617 240.147 506.617 238.68C506.617 237.213 506.43 235.827 506.057 234.52C505.683 233.187 505.11 232.027 504.337 231.04C503.563 230.027 502.59 229.227 501.417 228.64C500.27 228.053 498.91 227.76 497.337 227.76C496.59 227.76 495.843 227.853 495.097 228.04C494.35 228.227 493.657 228.52 493.017 228.92C492.377 229.293 491.803 229.76 491.297 230.32C490.817 230.88 490.443 231.533 490.177 232.28H490.097V220.44H487.577ZM504.097 238.68C504.097 239.747 503.963 240.813 503.697 241.88C503.457 242.92 503.057 243.853 502.497 244.68C501.963 245.507 501.27 246.187 500.417 246.72C499.563 247.227 498.537 247.48 497.337 247.48C496.003 247.48 494.87 247.227 493.937 246.72C493.03 246.187 492.283 245.507 491.697 244.68C491.137 243.853 490.723 242.92 490.457 241.88C490.217 240.813 490.097 239.747 490.097 238.68C490.097 237.613 490.217 236.56 490.457 235.52C490.723 234.453 491.137 233.507 491.697 232.68C492.283 231.853 493.03 231.187 493.937 230.68C494.87 230.147 496.003 229.88 497.337 229.88C498.537 229.88 499.563 230.147 500.417 230.68C501.27 231.187 501.963 231.853 502.497 232.68C503.057 233.507 503.457 234.453 503.697 235.52C503.963 236.56 504.097 237.613 504.097 238.68ZM510.585 220.44V249H512.905V245.08H512.985C513.572 246.52 514.519 247.627 515.825 248.4C517.159 249.173 518.665 249.56 520.345 249.56C521.919 249.56 523.279 249.28 524.425 248.72C525.599 248.133 526.572 247.347 527.345 246.36C528.119 245.347 528.692 244.187 529.065 242.88C529.439 241.547 529.625 240.147 529.625 238.68C529.625 237.213 529.439 235.827 529.065 234.52C528.692 233.187 528.119 232.027 527.345 231.04C526.572 230.027 525.599 229.227 524.425 228.64C523.279 228.053 521.919 227.76 520.345 227.76C519.599 227.76 518.852 227.853 518.105 228.04C517.359 228.227 516.665 228.52 516.025 228.92C515.385 229.293 514.812 229.76 514.305 230.32C513.825 230.88 513.452 231.533 513.185 232.28H513.105V220.44H510.585ZM527.105 238.68C527.105 239.747 526.972 240.813 526.705 241.88C526.465 242.92 526.065 243.853 525.505 244.68C524.972 245.507 524.279 246.187 523.425 246.72C522.572 247.227 521.545 247.48 520.345 247.48C519.012 247.48 517.879 247.227 516.945 246.72C516.039 246.187 515.292 245.507 514.705 244.68C514.145 243.853 513.732 242.92 513.465 241.88C513.225 240.813 513.105 239.747 513.105 238.68C513.105 237.613 513.225 236.56 513.465 235.52C513.732 234.453 514.145 233.507 514.705 232.68C515.292 231.853 516.039 231.187 516.945 230.68C517.879 230.147 519.012 229.88 520.345 229.88C521.545 229.88 522.572 230.147 523.425 230.68C524.279 231.187 524.972 231.853 525.505 232.68C526.065 233.507 526.465 234.453 526.705 235.52C526.972 236.56 527.105 237.613 527.105 238.68ZM533.634 220.44V249H536.154V220.44H533.634ZM555.857 237.24H542.497C542.604 236.307 542.817 235.4 543.137 234.52C543.484 233.613 543.937 232.827 544.497 232.16C545.057 231.467 545.737 230.92 546.537 230.52C547.337 230.093 548.257 229.88 549.297 229.88C550.31 229.88 551.217 230.093 552.017 230.52C552.817 230.92 553.497 231.467 554.057 232.16C554.617 232.827 555.044 233.6 555.337 234.48C555.657 235.36 555.83 236.28 555.857 237.24ZM542.497 239.36H558.377C558.43 237.92 558.297 236.507 557.977 235.12C557.657 233.707 557.124 232.467 556.377 231.4C555.657 230.307 554.71 229.427 553.537 228.76C552.364 228.093 550.95 227.76 549.297 227.76C547.67 227.76 546.257 228.08 545.057 228.72C543.884 229.333 542.924 230.16 542.177 231.2C541.43 232.213 540.87 233.373 540.497 234.68C540.15 235.987 539.977 237.32 539.977 238.68C539.977 240.147 540.15 241.547 540.497 242.88C540.87 244.187 541.43 245.347 542.177 246.36C542.924 247.347 543.884 248.133 545.057 248.72C546.257 249.28 547.67 249.56 549.297 249.56C551.91 249.56 553.924 248.92 555.337 247.64C556.777 246.36 557.764 244.547 558.297 242.2H555.777C555.377 243.8 554.657 245.08 553.617 246.04C552.577 247 551.137 247.48 549.297 247.48C548.097 247.48 547.07 247.227 546.217 246.72C545.364 246.213 544.657 245.573 544.097 244.8C543.537 244.027 543.124 243.16 542.857 242.2C542.617 241.213 542.497 240.267 542.497 239.36ZM574.159 234.4H576.679C576.626 233.28 576.399 232.307 575.999 231.48C575.599 230.653 575.052 229.96 574.359 229.4C573.692 228.84 572.906 228.427 571.999 228.16C571.119 227.893 570.159 227.76 569.119 227.76C568.212 227.76 567.292 227.867 566.359 228.08C565.452 228.293 564.626 228.627 563.879 229.08C563.132 229.533 562.519 230.133 562.039 230.88C561.586 231.627 561.359 232.52 561.359 233.56C561.359 234.44 561.506 235.187 561.799 235.8C562.092 236.387 562.492 236.893 562.999 237.32C563.532 237.72 564.146 238.067 564.839 238.36C565.532 238.627 566.292 238.867 567.119 239.08L570.359 239.8C570.919 239.933 571.466 240.093 571.999 240.28C572.559 240.467 573.052 240.707 573.479 241C573.906 241.267 574.239 241.613 574.479 242.04C574.746 242.44 574.879 242.947 574.879 243.56C574.879 244.28 574.692 244.893 574.319 245.4C573.972 245.88 573.519 246.28 572.959 246.6C572.399 246.92 571.786 247.147 571.119 247.28C570.479 247.413 569.852 247.48 569.239 247.48C567.559 247.48 566.146 247.053 564.999 246.2C563.879 245.32 563.266 244.027 563.159 242.32H560.639C560.852 244.853 561.706 246.693 563.199 247.84C564.719 248.987 566.692 249.56 569.119 249.56C570.079 249.56 571.052 249.453 572.039 249.24C573.026 249.027 573.906 248.68 574.679 248.2C575.479 247.693 576.132 247.053 576.639 246.28C577.146 245.48 577.399 244.52 577.399 243.4C577.399 242.493 577.226 241.707 576.879 241.04C576.532 240.373 576.079 239.813 575.519 239.36C574.986 238.907 574.359 238.547 573.639 238.28C572.946 237.987 572.239 237.787 571.519 237.68L568.159 236.92C567.732 236.813 567.266 236.68 566.759 236.52C566.252 236.333 565.786 236.107 565.359 235.84C564.932 235.573 564.572 235.253 564.279 234.88C564.012 234.48 563.879 234 563.879 233.44C563.879 232.773 564.026 232.213 564.319 231.76C564.612 231.307 564.999 230.947 565.479 230.68C565.959 230.387 566.479 230.187 567.039 230.08C567.626 229.947 568.199 229.88 568.759 229.88C569.479 229.88 570.159 229.973 570.799 230.16C571.439 230.32 571.999 230.587 572.479 230.96C572.986 231.333 573.386 231.813 573.679 232.4C573.972 232.96 574.132 233.627 574.159 234.4ZM596.27 228.36V222.16H593.75V228.36H590.15V230.48H593.75V244.6C593.723 246.36 594.043 247.573 594.71 248.24C595.376 248.88 596.55 249.2 598.23 249.2C598.603 249.2 598.976 249.187 599.35 249.16C599.723 249.133 600.096 249.12 600.47 249.12V247C599.75 247.08 599.03 247.12 598.31 247.12C597.403 247.067 596.83 246.813 596.59 246.36C596.376 245.88 596.27 245.227 596.27 244.4V230.48H600.47V228.36H596.27ZM604.106 220.44V249H606.626V236.96C606.652 235.947 606.812 235.013 607.106 234.16C607.426 233.28 607.852 232.533 608.386 231.92C608.946 231.28 609.612 230.787 610.386 230.44C611.186 230.067 612.092 229.88 613.106 229.88C614.119 229.88 614.959 230.04 615.626 230.36C616.319 230.68 616.866 231.12 617.266 231.68C617.666 232.24 617.946 232.907 618.106 233.68C618.266 234.427 618.346 235.24 618.346 236.12V249H620.866V235.72C620.866 234.493 620.746 233.387 620.506 232.4C620.266 231.413 619.852 230.587 619.266 229.92C618.679 229.227 617.892 228.693 616.906 228.32C615.946 227.947 614.746 227.76 613.306 227.76C611.839 227.76 610.492 228.147 609.266 228.92C608.039 229.667 607.186 230.667 606.706 231.92H606.626V220.44H604.106ZM640.51 237.24H627.15C627.257 236.307 627.47 235.4 627.79 234.52C628.137 233.613 628.59 232.827 629.15 232.16C629.71 231.467 630.39 230.92 631.19 230.52C631.99 230.093 632.91 229.88 633.95 229.88C634.963 229.88 635.87 230.093 636.67 230.52C637.47 230.92 638.15 231.467 638.71 232.16C639.27 232.827 639.697 233.6 639.99 234.48C640.31 235.36 640.483 236.28 640.51 237.24ZM627.15 239.36H643.03C643.083 237.92 642.95 236.507 642.63 235.12C642.31 233.707 641.777 232.467 641.03 231.4C640.31 230.307 639.363 229.427 638.19 228.76C637.017 228.093 635.603 227.76 633.95 227.76C632.323 227.76 630.91 228.08 629.71 228.72C628.537 229.333 627.577 230.16 626.83 231.2C626.083 232.213 625.523 233.373 625.15 234.68C624.803 235.987 624.63 237.32 624.63 238.68C624.63 240.147 624.803 241.547 625.15 242.88C625.523 244.187 626.083 245.347 626.83 246.36C627.577 247.347 628.537 248.133 629.71 248.72C630.91 249.28 632.323 249.56 633.95 249.56C636.563 249.56 638.577 248.92 639.99 247.64C641.43 246.36 642.417 244.547 642.95 242.2H640.43C640.03 243.8 639.31 245.08 638.27 246.04C637.23 247 635.79 247.48 633.95 247.48C632.75 247.48 631.723 247.227 630.87 246.72C630.017 246.213 629.31 245.573 628.75 244.8C628.19 244.027 627.777 243.16 627.51 242.2C627.27 241.213 627.15 240.267 627.15 239.36ZM646.452 228.36V249H648.972V238C648.972 236.907 649.159 235.907 649.532 235C649.906 234.067 650.426 233.267 651.092 232.6C651.786 231.933 652.599 231.427 653.532 231.08C654.466 230.707 655.506 230.547 656.652 230.6V228.08C654.786 228 653.172 228.413 651.812 229.32C650.479 230.227 649.492 231.52 648.852 233.2H648.772V228.36H646.452ZM673.246 237.24H659.886C659.993 236.307 660.206 235.4 660.526 234.52C660.873 233.613 661.326 232.827 661.886 232.16C662.446 231.467 663.126 230.92 663.926 230.52C664.726 230.093 665.646 229.88 666.686 229.88C667.7 229.88 668.606 230.093 669.406 230.52C670.206 230.92 670.886 231.467 671.446 232.16C672.006 232.827 672.433 233.6 672.726 234.48C673.046 235.36 673.22 236.28 673.246 237.24ZM659.886 239.36H675.766C675.82 237.92 675.686 236.507 675.366 235.12C675.046 233.707 674.513 232.467 673.766 231.4C673.046 230.307 672.1 229.427 670.926 228.76C669.753 228.093 668.34 227.76 666.686 227.76C665.06 227.76 663.646 228.08 662.446 228.72C661.273 229.333 660.313 230.16 659.566 231.2C658.82 232.213 658.26 233.373 657.886 234.68C657.54 235.987 657.366 237.32 657.366 238.68C657.366 240.147 657.54 241.547 657.886 242.88C658.26 244.187 658.82 245.347 659.566 246.36C660.313 247.347 661.273 248.133 662.446 248.72C663.646 249.28 665.06 249.56 666.686 249.56C669.3 249.56 671.313 248.92 672.726 247.64C674.166 246.36 675.153 244.547 675.686 242.2H673.166C672.766 243.8 672.046 245.08 671.006 246.04C669.966 247 668.526 247.48 666.686 247.48C665.486 247.48 664.46 247.227 663.606 246.72C662.753 246.213 662.046 245.573 661.486 244.8C660.926 244.027 660.513 243.16 660.246 242.2C660.006 241.213 659.886 240.267 659.886 239.36ZM680.668 249H684.028V244.76H680.668V249ZM709.974 237.24V249H712.694V237.24L723.974 220.44H720.734L711.374 234.92L701.974 220.44H698.774L709.974 237.24ZM737.195 237.24H723.835C723.942 236.307 724.155 235.4 724.475 234.52C724.822 233.613 725.275 232.827 725.835 232.16C726.395 231.467 727.075 230.92 727.875 230.52C728.675 230.093 729.595 229.88 730.635 229.88C731.649 229.88 732.555 230.093 733.355 230.52C734.155 230.92 734.835 231.467 735.395 232.16C735.955 232.827 736.382 233.6 736.675 234.48C736.995 235.36 737.169 236.28 737.195 237.24ZM723.835 239.36H739.715C739.769 237.92 739.635 236.507 739.315 235.12C738.995 233.707 738.462 232.467 737.715 231.4C736.995 230.307 736.049 229.427 734.875 228.76C733.702 228.093 732.289 227.76 730.635 227.76C729.009 227.76 727.595 228.08 726.395 228.72C725.222 229.333 724.262 230.16 723.515 231.2C722.769 232.213 722.209 233.373 721.835 234.68C721.489 235.987 721.315 237.32 721.315 238.68C721.315 240.147 721.489 241.547 721.835 242.88C722.209 244.187 722.769 245.347 723.515 246.36C724.262 247.347 725.222 248.133 726.395 248.72C727.595 249.28 729.009 249.56 730.635 249.56C733.249 249.56 735.262 248.92 736.675 247.64C738.115 246.36 739.102 244.547 739.635 242.2H737.115C736.715 243.8 735.995 245.08 734.955 246.04C733.915 247 732.475 247.48 730.635 247.48C729.435 247.48 728.409 247.227 727.555 246.72C726.702 246.213 725.995 245.573 725.435 244.8C724.875 244.027 724.462 243.16 724.195 242.2C723.955 241.213 723.835 240.267 723.835 239.36ZM747.137 228.36V222.16H744.617V228.36H741.017V230.48H744.617V244.6C744.591 246.36 744.911 247.573 745.577 248.24C746.244 248.88 747.417 249.2 749.097 249.2C749.471 249.2 749.844 249.187 750.217 249.16C750.591 249.133 750.964 249.12 751.337 249.12V247C750.617 247.08 749.897 247.12 749.177 247.12C748.271 247.067 747.697 246.813 747.457 246.36C747.244 245.88 747.137 245.227 747.137 244.4V230.48H751.337V228.36H747.137ZM756.493 249H759.853V244.76H756.493V249Z" fill="#3F3C44"/>
<path d="M418.08 281.3H416.72C416.68 282.18 416.793 282.933 417.06 283.56C417.34 284.187 417.733 284.7 418.24 285.1C418.747 285.5 419.36 285.8 420.08 286C420.8 286.187 421.58 286.28 422.42 286.28C423.26 286.28 423.98 286.2 424.58 286.04C425.18 285.893 425.68 285.7 426.08 285.46C426.493 285.207 426.813 284.927 427.04 284.62C427.28 284.313 427.46 284.013 427.58 283.72C427.713 283.413 427.793 283.127 427.82 282.86C427.86 282.593 427.88 282.38 427.88 282.22C427.88 281.633 427.78 281.133 427.58 280.72C427.393 280.307 427.127 279.96 426.78 279.68C426.447 279.387 426.053 279.147 425.6 278.96C425.16 278.76 424.687 278.593 424.18 278.46L420.7 277.6C420.407 277.533 420.127 277.447 419.86 277.34C419.607 277.233 419.38 277.093 419.18 276.92C418.98 276.747 418.82 276.54 418.7 276.3C418.593 276.047 418.54 275.753 418.54 275.42C418.54 274.887 418.64 274.44 418.84 274.08C419.04 273.72 419.3 273.433 419.62 273.22C419.953 272.993 420.333 272.833 420.76 272.74C421.2 272.633 421.653 272.58 422.12 272.58C422.627 272.58 423.107 272.653 423.56 272.8C424.027 272.933 424.433 273.14 424.78 273.42C425.14 273.687 425.427 274.027 425.64 274.44C425.867 274.84 425.993 275.313 426.02 275.86H427.38C427.38 275.127 427.233 274.487 426.94 273.94C426.66 273.38 426.28 272.913 425.8 272.54C425.32 272.167 424.76 271.887 424.12 271.7C423.48 271.513 422.807 271.42 422.1 271.42C421.1 271.42 420.28 271.567 419.64 271.86C419 272.14 418.493 272.487 418.12 272.9C417.76 273.313 417.513 273.753 417.38 274.22C417.247 274.687 417.18 275.093 417.18 275.44C417.18 276 417.267 276.473 417.44 276.86C417.627 277.247 417.867 277.573 418.16 277.84C418.453 278.107 418.793 278.32 419.18 278.48C419.58 278.64 419.987 278.773 420.4 278.88L423.58 279.66C423.913 279.74 424.253 279.847 424.6 279.98C424.947 280.1 425.26 280.26 425.54 280.46C425.833 280.66 426.067 280.907 426.24 281.2C426.427 281.493 426.52 281.84 426.52 282.24C426.52 282.76 426.393 283.207 426.14 283.58C425.887 283.94 425.567 284.24 425.18 284.48C424.807 284.707 424.4 284.873 423.96 284.98C423.52 285.087 423.113 285.14 422.74 285.14C422.087 285.14 421.473 285.08 420.9 284.96C420.327 284.827 419.827 284.613 419.4 284.32C418.987 284.027 418.66 283.633 418.42 283.14C418.18 282.647 418.067 282.033 418.08 281.3ZM437.218 280.12H430.538C430.591 279.653 430.698 279.2 430.858 278.76C431.031 278.307 431.258 277.913 431.538 277.58C431.818 277.233 432.158 276.96 432.558 276.76C432.958 276.547 433.418 276.44 433.938 276.44C434.444 276.44 434.898 276.547 435.298 276.76C435.698 276.96 436.038 277.233 436.318 277.58C436.598 277.913 436.811 278.3 436.958 278.74C437.118 279.18 437.204 279.64 437.218 280.12ZM430.538 281.18H438.478C438.504 280.46 438.438 279.753 438.278 279.06C438.118 278.353 437.851 277.733 437.478 277.2C437.118 276.653 436.644 276.213 436.058 275.88C435.471 275.547 434.764 275.38 433.938 275.38C433.124 275.38 432.418 275.54 431.818 275.86C431.231 276.167 430.751 276.58 430.378 277.1C430.004 277.607 429.724 278.187 429.538 278.84C429.364 279.493 429.278 280.16 429.278 280.84C429.278 281.573 429.364 282.273 429.538 282.94C429.724 283.593 430.004 284.173 430.378 284.68C430.751 285.173 431.231 285.567 431.818 285.86C432.418 286.14 433.124 286.28 433.938 286.28C435.244 286.28 436.251 285.96 436.958 285.32C437.678 284.68 438.171 283.773 438.438 282.6H437.178C436.978 283.4 436.618 284.04 436.098 284.52C435.578 285 434.858 285.24 433.938 285.24C433.338 285.24 432.824 285.113 432.398 284.86C431.971 284.607 431.618 284.287 431.338 283.9C431.058 283.513 430.851 283.08 430.718 282.6C430.598 282.107 430.538 281.633 430.538 281.18ZM440.189 271.72V286H441.449V271.72H440.189ZM451.28 280.12H444.6C444.653 279.653 444.76 279.2 444.92 278.76C445.093 278.307 445.32 277.913 445.6 277.58C445.88 277.233 446.22 276.96 446.62 276.76C447.02 276.547 447.48 276.44 448 276.44C448.507 276.44 448.96 276.547 449.36 276.76C449.76 276.96 450.1 277.233 450.38 277.58C450.66 277.913 450.873 278.3 451.02 278.74C451.18 279.18 451.267 279.64 451.28 280.12ZM444.6 281.18H452.54C452.567 280.46 452.5 279.753 452.34 279.06C452.18 278.353 451.913 277.733 451.54 277.2C451.18 276.653 450.707 276.213 450.12 275.88C449.533 275.547 448.827 275.38 448 275.38C447.187 275.38 446.48 275.54 445.88 275.86C445.293 276.167 444.813 276.58 444.44 277.1C444.067 277.607 443.787 278.187 443.6 278.84C443.427 279.493 443.34 280.16 443.34 280.84C443.34 281.573 443.427 282.273 443.6 282.94C443.787 283.593 444.067 284.173 444.44 284.68C444.813 285.173 445.293 285.567 445.88 285.86C446.48 286.14 447.187 286.28 448 286.28C449.307 286.28 450.313 285.96 451.02 285.32C451.74 284.68 452.233 283.773 452.5 282.6H451.24C451.04 283.4 450.68 284.04 450.16 284.52C449.64 285 448.92 285.24 448 285.24C447.4 285.24 446.887 285.113 446.46 284.86C446.033 284.607 445.68 284.287 445.4 283.9C445.12 283.513 444.913 283.08 444.78 282.6C444.66 282.107 444.6 281.633 444.6 281.18ZM461.511 278.92H462.771C462.625 277.733 462.165 276.847 461.391 276.26C460.631 275.673 459.698 275.38 458.591 275.38C457.805 275.38 457.105 275.527 456.491 275.82C455.891 276.113 455.385 276.507 454.971 277C454.558 277.493 454.245 278.073 454.031 278.74C453.818 279.393 453.711 280.093 453.711 280.84C453.711 281.587 453.818 282.293 454.031 282.96C454.245 283.613 454.558 284.187 454.971 284.68C455.385 285.173 455.891 285.567 456.491 285.86C457.105 286.14 457.805 286.28 458.591 286.28C459.765 286.28 460.725 285.933 461.471 285.24C462.218 284.533 462.678 283.553 462.851 282.3H461.591C461.551 282.727 461.445 283.12 461.271 283.48C461.098 283.84 460.878 284.153 460.611 284.42C460.345 284.673 460.038 284.873 459.691 285.02C459.345 285.167 458.978 285.24 458.591 285.24C457.991 285.24 457.465 285.113 457.011 284.86C456.558 284.607 456.178 284.273 455.871 283.86C455.578 283.447 455.351 282.98 455.191 282.46C455.045 281.927 454.971 281.387 454.971 280.84C454.971 280.293 455.045 279.76 455.191 279.24C455.351 278.707 455.578 278.233 455.871 277.82C456.178 277.407 456.558 277.073 457.011 276.82C457.465 276.567 457.991 276.44 458.591 276.44C459.431 276.44 460.085 276.66 460.551 277.1C461.018 277.54 461.338 278.147 461.511 278.92ZM466.602 275.68V272.58H465.342V275.68H463.542V276.74H465.342V283.8C465.329 284.68 465.489 285.287 465.822 285.62C466.156 285.94 466.742 286.1 467.582 286.1C467.769 286.1 467.956 286.093 468.142 286.08C468.329 286.067 468.516 286.06 468.702 286.06V285C468.342 285.04 467.982 285.06 467.622 285.06C467.169 285.033 466.882 284.907 466.762 284.68C466.656 284.44 466.602 284.113 466.602 283.7V276.74H468.702V275.68H466.602ZM475.967 278.84H477.227C477.253 278 477.52 277.393 478.027 277.02C478.533 276.633 479.187 276.44 479.987 276.44C480.36 276.44 480.707 276.473 481.027 276.54C481.36 276.593 481.647 276.7 481.887 276.86C482.14 277.02 482.333 277.24 482.467 277.52C482.613 277.787 482.687 278.133 482.687 278.56C482.687 278.84 482.647 279.067 482.567 279.24C482.5 279.413 482.4 279.553 482.267 279.66C482.133 279.753 481.967 279.82 481.767 279.86C481.567 279.9 481.333 279.933 481.067 279.96C480.387 280.04 479.713 280.127 479.047 280.22C478.393 280.3 477.8 280.447 477.267 280.66C476.747 280.873 476.327 281.187 476.007 281.6C475.687 282 475.527 282.56 475.527 283.28C475.527 283.8 475.613 284.253 475.787 284.64C475.973 285.013 476.22 285.327 476.527 285.58C476.847 285.82 477.213 285.993 477.627 286.1C478.053 286.22 478.507 286.28 478.987 286.28C479.493 286.28 479.927 286.233 480.287 286.14C480.66 286.047 480.987 285.913 481.267 285.74C481.56 285.567 481.82 285.353 482.047 285.1C482.287 284.833 482.52 284.533 482.747 284.2H482.787C482.787 284.467 482.8 284.713 482.827 284.94C482.867 285.153 482.94 285.34 483.047 285.5C483.153 285.66 483.3 285.787 483.487 285.88C483.687 285.96 483.947 286 484.267 286C484.44 286 484.58 285.993 484.687 285.98C484.807 285.967 484.94 285.947 485.087 285.92V284.86C484.967 284.913 484.833 284.94 484.687 284.94C484.193 284.94 483.947 284.687 483.947 284.18V278.7C483.947 278.007 483.833 277.447 483.607 277.02C483.38 276.58 483.087 276.24 482.727 276C482.367 275.76 481.96 275.6 481.507 275.52C481.053 275.427 480.6 275.38 480.147 275.38C479.547 275.38 479 275.447 478.507 275.58C478.013 275.713 477.58 275.92 477.207 276.2C476.847 276.48 476.56 276.84 476.347 277.28C476.133 277.72 476.007 278.24 475.967 278.84ZM482.687 280.36V282C482.687 282.507 482.587 282.96 482.387 283.36C482.2 283.76 481.94 284.1 481.607 284.38C481.287 284.66 480.907 284.873 480.467 285.02C480.027 285.167 479.567 285.24 479.087 285.24C478.793 285.24 478.507 285.193 478.227 285.1C477.947 285.007 477.7 284.873 477.487 284.7C477.273 284.513 477.1 284.3 476.967 284.06C476.847 283.807 476.787 283.52 476.787 283.2C476.787 282.693 476.933 282.307 477.227 282.04C477.533 281.76 477.92 281.547 478.387 281.4C478.853 281.253 479.367 281.147 479.927 281.08C480.5 281 481.053 280.913 481.587 280.82C481.76 280.793 481.96 280.747 482.187 280.68C482.413 280.613 482.567 280.507 482.647 280.36H482.687ZM486.438 275.68V286H487.698V279.98C487.711 279.473 487.791 279.007 487.938 278.58C488.098 278.14 488.311 277.767 488.578 277.46C488.858 277.14 489.191 276.893 489.578 276.72C489.978 276.533 490.431 276.44 490.938 276.44C491.444 276.44 491.864 276.52 492.198 276.68C492.544 276.84 492.818 277.06 493.018 277.34C493.218 277.62 493.358 277.953 493.438 278.34C493.518 278.713 493.558 279.12 493.558 279.56V286H494.818V279.36C494.818 278.747 494.758 278.193 494.638 277.7C494.518 277.207 494.311 276.793 494.018 276.46C493.724 276.113 493.331 275.847 492.838 275.66C492.358 275.473 491.758 275.38 491.038 275.38C490.304 275.38 489.631 275.573 489.018 275.96C488.404 276.333 487.978 276.833 487.738 277.46H487.698V275.68H486.438ZM501.56 276.44C502.16 276.44 502.687 276.567 503.14 276.82C503.593 277.073 503.967 277.407 504.26 277.82C504.567 278.233 504.793 278.707 504.94 279.24C505.1 279.76 505.18 280.293 505.18 280.84C505.18 281.387 505.1 281.927 504.94 282.46C504.793 282.98 504.567 283.447 504.26 283.86C503.967 284.273 503.593 284.607 503.14 284.86C502.687 285.113 502.16 285.24 501.56 285.24C500.96 285.24 500.433 285.113 499.98 284.86C499.527 284.607 499.147 284.273 498.84 283.86C498.547 283.447 498.32 282.98 498.16 282.46C498.013 281.927 497.94 281.387 497.94 280.84C497.94 280.293 498.013 279.76 498.16 279.24C498.32 278.707 498.547 278.233 498.84 277.82C499.147 277.407 499.527 277.073 499.98 276.82C500.433 276.567 500.96 276.44 501.56 276.44ZM501.56 275.38C500.773 275.38 500.073 275.527 499.46 275.82C498.86 276.113 498.353 276.507 497.94 277C497.527 277.493 497.213 278.073 497 278.74C496.787 279.393 496.68 280.093 496.68 280.84C496.68 281.587 496.787 282.293 497 282.96C497.213 283.613 497.527 284.187 497.94 284.68C498.353 285.173 498.86 285.567 499.46 285.86C500.073 286.14 500.773 286.28 501.56 286.28C502.347 286.28 503.04 286.14 503.64 285.86C504.253 285.567 504.767 285.173 505.18 284.68C505.593 284.187 505.907 283.613 506.12 282.96C506.333 282.293 506.44 281.587 506.44 280.84C506.44 280.093 506.333 279.393 506.12 278.74C505.907 278.073 505.593 277.493 505.18 277C504.767 276.507 504.253 276.113 503.64 275.82C503.04 275.527 502.347 275.38 501.56 275.38ZM510.313 275.68V272.58H509.053V275.68H507.253V276.74H509.053V283.8C509.04 284.68 509.2 285.287 509.533 285.62C509.867 285.94 510.453 286.1 511.293 286.1C511.48 286.1 511.667 286.093 511.853 286.08C512.04 286.067 512.227 286.06 512.413 286.06V285C512.053 285.04 511.693 285.06 511.333 285.06C510.88 285.033 510.593 284.907 510.473 284.68C510.367 284.44 510.313 284.113 510.313 283.7V276.74H512.413V275.68H510.313ZM514.211 271.72V286H515.471V279.98C515.485 279.473 515.565 279.007 515.711 278.58C515.871 278.14 516.085 277.767 516.351 277.46C516.631 277.14 516.965 276.893 517.351 276.72C517.751 276.533 518.205 276.44 518.711 276.44C519.218 276.44 519.638 276.52 519.971 276.68C520.318 276.84 520.591 277.06 520.791 277.34C520.991 277.62 521.131 277.953 521.211 278.34C521.291 278.713 521.331 279.12 521.331 279.56V286H522.591V279.36C522.591 278.747 522.531 278.193 522.411 277.7C522.291 277.207 522.085 276.793 521.791 276.46C521.498 276.113 521.105 275.847 520.611 275.66C520.131 275.473 519.531 275.38 518.811 275.38C518.078 275.38 517.405 275.573 516.791 275.96C516.178 276.333 515.751 276.833 515.511 277.46H515.471V271.72H514.211ZM532.393 280.12H525.713C525.767 279.653 525.873 279.2 526.033 278.76C526.207 278.307 526.433 277.913 526.713 277.58C526.993 277.233 527.333 276.96 527.733 276.76C528.133 276.547 528.593 276.44 529.113 276.44C529.62 276.44 530.073 276.547 530.473 276.76C530.873 276.96 531.213 277.233 531.493 277.58C531.773 277.913 531.987 278.3 532.133 278.74C532.293 279.18 532.38 279.64 532.393 280.12ZM525.713 281.18H533.653C533.68 280.46 533.613 279.753 533.453 279.06C533.293 278.353 533.027 277.733 532.653 277.2C532.293 276.653 531.82 276.213 531.233 275.88C530.647 275.547 529.94 275.38 529.113 275.38C528.3 275.38 527.593 275.54 526.993 275.86C526.407 276.167 525.927 276.58 525.553 277.1C525.18 277.607 524.9 278.187 524.713 278.84C524.54 279.493 524.453 280.16 524.453 280.84C524.453 281.573 524.54 282.273 524.713 282.94C524.9 283.593 525.18 284.173 525.553 284.68C525.927 285.173 526.407 285.567 526.993 285.86C527.593 286.14 528.3 286.28 529.113 286.28C530.42 286.28 531.427 285.96 532.133 285.32C532.853 284.68 533.347 283.773 533.613 282.6H532.353C532.153 283.4 531.793 284.04 531.273 284.52C530.753 285 530.033 285.24 529.113 285.24C528.513 285.24 528 285.113 527.573 284.86C527.147 284.607 526.793 284.287 526.513 283.9C526.233 283.513 526.027 283.08 525.893 282.6C525.773 282.107 525.713 281.633 525.713 281.18ZM535.345 275.68V286H536.605V280.5C536.605 279.953 536.698 279.453 536.885 279C537.071 278.533 537.331 278.133 537.665 277.8C538.011 277.467 538.418 277.213 538.885 277.04C539.351 276.853 539.871 276.773 540.445 276.8V275.54C539.511 275.5 538.705 275.707 538.025 276.16C537.358 276.613 536.865 277.26 536.545 278.1H536.505V275.68H535.345ZM547.22 275.68V289.8H548.48V284.04H548.52C548.653 284.413 548.84 284.74 549.08 285.02C549.333 285.3 549.62 285.533 549.94 285.72C550.26 285.907 550.606 286.047 550.98 286.14C551.353 286.233 551.726 286.28 552.1 286.28C552.886 286.28 553.566 286.14 554.14 285.86C554.726 285.567 555.213 285.173 555.6 284.68C555.986 284.173 556.273 283.593 556.46 282.94C556.646 282.273 556.74 281.573 556.74 280.84C556.74 280.107 556.646 279.413 556.46 278.76C556.273 278.093 555.986 277.513 555.6 277.02C555.213 276.513 554.726 276.113 554.14 275.82C553.566 275.527 552.886 275.38 552.1 275.38C551.26 275.38 550.506 275.58 549.84 275.98C549.186 276.367 548.713 276.92 548.42 277.64H548.38V275.68H547.22ZM555.48 280.84C555.48 281.373 555.413 281.907 555.28 282.44C555.16 282.96 554.96 283.427 554.68 283.84C554.413 284.253 554.066 284.593 553.64 284.86C553.213 285.113 552.7 285.24 552.1 285.24C551.433 285.24 550.866 285.113 550.4 284.86C549.946 284.593 549.573 284.253 549.28 283.84C549 283.427 548.793 282.96 548.66 282.44C548.54 281.907 548.48 281.373 548.48 280.84C548.48 280.253 548.533 279.693 548.64 279.16C548.76 278.627 548.96 278.16 549.24 277.76C549.52 277.36 549.893 277.04 550.36 276.8C550.826 276.56 551.406 276.44 552.1 276.44C552.7 276.44 553.213 276.573 553.64 276.84C554.066 277.093 554.413 277.427 554.68 277.84C554.96 278.253 555.16 278.727 555.28 279.26C555.413 279.78 555.48 280.307 555.48 280.84ZM566.124 280.12H559.444C559.497 279.653 559.604 279.2 559.764 278.76C559.937 278.307 560.164 277.913 560.444 277.58C560.724 277.233 561.064 276.96 561.464 276.76C561.864 276.547 562.324 276.44 562.844 276.44C563.351 276.44 563.804 276.547 564.204 276.76C564.604 276.96 564.944 277.233 565.224 277.58C565.504 277.913 565.717 278.3 565.864 278.74C566.024 279.18 566.111 279.64 566.124 280.12ZM559.444 281.18H567.384C567.411 280.46 567.344 279.753 567.184 279.06C567.024 278.353 566.757 277.733 566.384 277.2C566.024 276.653 565.551 276.213 564.964 275.88C564.377 275.547 563.671 275.38 562.844 275.38C562.031 275.38 561.324 275.54 560.724 275.86C560.137 276.167 559.657 276.58 559.284 277.1C558.911 277.607 558.631 278.187 558.444 278.84C558.271 279.493 558.184 280.16 558.184 280.84C558.184 281.573 558.271 282.273 558.444 282.94C558.631 283.593 558.911 284.173 559.284 284.68C559.657 285.173 560.137 285.567 560.724 285.86C561.324 286.14 562.031 286.28 562.844 286.28C564.151 286.28 565.157 285.96 565.864 285.32C566.584 284.68 567.077 283.773 567.344 282.6H566.084C565.884 283.4 565.524 284.04 565.004 284.52C564.484 285 563.764 285.24 562.844 285.24C562.244 285.24 561.731 285.113 561.304 284.86C560.877 284.607 560.524 284.287 560.244 283.9C559.964 283.513 559.757 283.08 559.624 282.6C559.504 282.107 559.444 281.633 559.444 281.18ZM569.075 275.68V286H570.335V280.5C570.335 279.953 570.428 279.453 570.615 279C570.802 278.533 571.062 278.133 571.395 277.8C571.742 277.467 572.148 277.213 572.615 277.04C573.082 276.853 573.602 276.773 574.175 276.8V275.54C573.242 275.5 572.435 275.707 571.755 276.16C571.088 276.613 570.595 277.26 570.275 278.1H570.235V275.68H569.075ZM575.404 271.72V273.74H576.664V271.72H575.404ZM575.404 275.68V286H576.664V275.68H575.404ZM583.435 276.44C584.035 276.44 584.562 276.567 585.015 276.82C585.468 277.073 585.842 277.407 586.135 277.82C586.442 278.233 586.668 278.707 586.815 279.24C586.975 279.76 587.055 280.293 587.055 280.84C587.055 281.387 586.975 281.927 586.815 282.46C586.668 282.98 586.442 283.447 586.135 283.86C585.842 284.273 585.468 284.607 585.015 284.86C584.562 285.113 584.035 285.24 583.435 285.24C582.835 285.24 582.308 285.113 581.855 284.86C581.402 284.607 581.022 284.273 580.715 283.86C580.422 283.447 580.195 282.98 580.035 282.46C579.888 281.927 579.815 281.387 579.815 280.84C579.815 280.293 579.888 279.76 580.035 279.24C580.195 278.707 580.422 278.233 580.715 277.82C581.022 277.407 581.402 277.073 581.855 276.82C582.308 276.567 582.835 276.44 583.435 276.44ZM583.435 275.38C582.648 275.38 581.948 275.527 581.335 275.82C580.735 276.113 580.228 276.507 579.815 277C579.402 277.493 579.088 278.073 578.875 278.74C578.662 279.393 578.555 280.093 578.555 280.84C578.555 281.587 578.662 282.293 578.875 282.96C579.088 283.613 579.402 284.187 579.815 284.68C580.228 285.173 580.735 285.567 581.335 285.86C581.948 286.14 582.648 286.28 583.435 286.28C584.222 286.28 584.915 286.14 585.515 285.86C586.128 285.567 586.642 285.173 587.055 284.68C587.468 284.187 587.782 283.613 587.995 282.96C588.208 282.293 588.315 281.587 588.315 280.84C588.315 280.093 588.208 279.393 587.995 278.74C587.782 278.073 587.468 277.493 587.055 277C586.642 276.507 586.128 276.113 585.515 275.82C584.915 275.527 584.222 275.38 583.435 275.38ZM599.268 286V271.72H598.008V277.64H597.968C597.835 277.267 597.642 276.94 597.388 276.66C597.148 276.38 596.868 276.147 596.548 275.96C596.228 275.76 595.882 275.613 595.508 275.52C595.148 275.427 594.775 275.38 594.388 275.38C593.602 275.38 592.915 275.527 592.328 275.82C591.755 276.113 591.275 276.513 590.888 277.02C590.502 277.513 590.215 278.093 590.028 278.76C589.842 279.413 589.748 280.107 589.748 280.84C589.748 281.573 589.842 282.273 590.028 282.94C590.215 283.593 590.502 284.173 590.888 284.68C591.275 285.173 591.755 285.567 592.328 285.86C592.915 286.14 593.602 286.28 594.388 286.28C594.762 286.28 595.135 286.227 595.508 286.12C595.895 286.013 596.255 285.867 596.588 285.68C596.922 285.48 597.215 285.24 597.468 284.96C597.735 284.68 597.935 284.373 598.068 284.04H598.108V286H599.268ZM591.008 280.84C591.008 280.307 591.068 279.78 591.188 279.26C591.322 278.727 591.522 278.253 591.788 277.84C592.068 277.427 592.422 277.093 592.848 276.84C593.275 276.573 593.788 276.44 594.388 276.44C595.055 276.44 595.615 276.573 596.068 276.84C596.535 277.093 596.908 277.427 597.188 277.84C597.482 278.253 597.688 278.727 597.808 279.26C597.942 279.78 598.008 280.307 598.008 280.84C598.008 281.373 597.942 281.907 597.808 282.44C597.688 282.96 597.482 283.427 597.188 283.84C596.908 284.253 596.535 284.593 596.068 284.86C595.615 285.113 595.055 285.24 594.388 285.24C593.788 285.24 593.275 285.113 592.848 284.86C592.422 284.593 592.068 284.253 591.788 283.84C591.522 283.427 591.322 282.96 591.188 282.44C591.068 281.907 591.008 281.373 591.008 280.84ZM611.599 276.44C612.199 276.44 612.726 276.567 613.179 276.82C613.632 277.073 614.006 277.407 614.299 277.82C614.606 278.233 614.832 278.707 614.979 279.24C615.139 279.76 615.219 280.293 615.219 280.84C615.219 281.387 615.139 281.927 614.979 282.46C614.832 282.98 614.606 283.447 614.299 283.86C614.006 284.273 613.632 284.607 613.179 284.86C612.726 285.113 612.199 285.24 611.599 285.24C610.999 285.24 610.472 285.113 610.019 284.86C609.566 284.607 609.186 284.273 608.879 283.86C608.586 283.447 608.359 282.98 608.199 282.46C608.052 281.927 607.979 281.387 607.979 280.84C607.979 280.293 608.052 279.76 608.199 279.24C608.359 278.707 608.586 278.233 608.879 277.82C609.186 277.407 609.566 277.073 610.019 276.82C610.472 276.567 610.999 276.44 611.599 276.44ZM611.599 275.38C610.812 275.38 610.112 275.527 609.499 275.82C608.899 276.113 608.392 276.507 607.979 277C607.566 277.493 607.252 278.073 607.039 278.74C606.826 279.393 606.719 280.093 606.719 280.84C606.719 281.587 606.826 282.293 607.039 282.96C607.252 283.613 607.566 284.187 607.979 284.68C608.392 285.173 608.899 285.567 609.499 285.86C610.112 286.14 610.812 286.28 611.599 286.28C612.386 286.28 613.079 286.14 613.679 285.86C614.292 285.567 614.806 285.173 615.219 284.68C615.632 284.187 615.946 283.613 616.159 282.96C616.372 282.293 616.479 281.587 616.479 280.84C616.479 280.093 616.372 279.393 616.159 278.74C615.946 278.073 615.632 277.493 615.219 277C614.806 276.507 614.292 276.113 613.679 275.82C613.079 275.527 612.386 275.38 611.599 275.38ZM618.352 275.68V286H619.612V280.5C619.612 279.953 619.706 279.453 619.892 279C620.079 278.533 620.339 278.133 620.672 277.8C621.019 277.467 621.426 277.213 621.892 277.04C622.359 276.853 622.879 276.773 623.452 276.8V275.54C622.519 275.5 621.712 275.707 621.032 276.16C620.366 276.613 619.872 277.26 619.552 278.1H619.512V275.68H618.352ZM637.507 278.92H638.767C638.621 277.733 638.161 276.847 637.387 276.26C636.627 275.673 635.694 275.38 634.587 275.38C633.801 275.38 633.101 275.527 632.487 275.82C631.887 276.113 631.381 276.507 630.967 277C630.554 277.493 630.241 278.073 630.027 278.74C629.814 279.393 629.707 280.093 629.707 280.84C629.707 281.587 629.814 282.293 630.027 282.96C630.241 283.613 630.554 284.187 630.967 284.68C631.381 285.173 631.887 285.567 632.487 285.86C633.101 286.14 633.801 286.28 634.587 286.28C635.761 286.28 636.721 285.933 637.467 285.24C638.214 284.533 638.674 283.553 638.847 282.3H637.587C637.547 282.727 637.441 283.12 637.267 283.48C637.094 283.84 636.874 284.153 636.607 284.42C636.341 284.673 636.034 284.873 635.687 285.02C635.341 285.167 634.974 285.24 634.587 285.24C633.987 285.24 633.461 285.113 633.007 284.86C632.554 284.607 632.174 284.273 631.867 283.86C631.574 283.447 631.347 282.98 631.187 282.46C631.041 281.927 630.967 281.387 630.967 280.84C630.967 280.293 631.041 279.76 631.187 279.24C631.347 278.707 631.574 278.233 631.867 277.82C632.174 277.407 632.554 277.073 633.007 276.82C633.461 276.567 633.987 276.44 634.587 276.44C635.427 276.44 636.081 276.66 636.547 277.1C637.014 277.54 637.334 278.147 637.507 278.92ZM640.478 278.84H641.738C641.765 278 642.032 277.393 642.538 277.02C643.045 276.633 643.698 276.44 644.498 276.44C644.872 276.44 645.218 276.473 645.538 276.54C645.872 276.593 646.158 276.7 646.398 276.86C646.652 277.02 646.845 277.24 646.978 277.52C647.125 277.787 647.198 278.133 647.198 278.56C647.198 278.84 647.158 279.067 647.078 279.24C647.012 279.413 646.912 279.553 646.778 279.66C646.645 279.753 646.478 279.82 646.278 279.86C646.078 279.9 645.845 279.933 645.578 279.96C644.898 280.04 644.225 280.127 643.558 280.22C642.905 280.3 642.312 280.447 641.778 280.66C641.258 280.873 640.838 281.187 640.518 281.6C640.198 282 640.038 282.56 640.038 283.28C640.038 283.8 640.125 284.253 640.298 284.64C640.485 285.013 640.732 285.327 641.038 285.58C641.358 285.82 641.725 285.993 642.138 286.1C642.565 286.22 643.018 286.28 643.498 286.28C644.005 286.28 644.438 286.233 644.798 286.14C645.172 286.047 645.498 285.913 645.778 285.74C646.072 285.567 646.332 285.353 646.558 285.1C646.798 284.833 647.032 284.533 647.258 284.2H647.298C647.298 284.467 647.312 284.713 647.338 284.94C647.378 285.153 647.452 285.34 647.558 285.5C647.665 285.66 647.812 285.787 647.998 285.88C648.198 285.96 648.458 286 648.778 286C648.952 286 649.092 285.993 649.198 285.98C649.318 285.967 649.452 285.947 649.598 285.92V284.86C649.478 284.913 649.345 284.94 649.198 284.94C648.705 284.94 648.458 284.687 648.458 284.18V278.7C648.458 278.007 648.345 277.447 648.118 277.02C647.892 276.58 647.598 276.24 647.238 276C646.878 275.76 646.472 275.6 646.018 275.52C645.565 275.427 645.112 275.38 644.658 275.38C644.058 275.38 643.512 275.447 643.018 275.58C642.525 275.713 642.092 275.92 641.718 276.2C641.358 276.48 641.072 276.84 640.858 277.28C640.645 277.72 640.518 278.24 640.478 278.84ZM647.198 280.36V282C647.198 282.507 647.098 282.96 646.898 283.36C646.712 283.76 646.452 284.1 646.118 284.38C645.798 284.66 645.418 284.873 644.978 285.02C644.538 285.167 644.078 285.24 643.598 285.24C643.305 285.24 643.018 285.193 642.738 285.1C642.458 285.007 642.212 284.873 641.998 284.7C641.785 284.513 641.612 284.3 641.478 284.06C641.358 283.807 641.298 283.52 641.298 283.2C641.298 282.693 641.445 282.307 641.738 282.04C642.045 281.76 642.432 281.547 642.898 281.4C643.365 281.253 643.878 281.147 644.438 281.08C645.012 281 645.565 280.913 646.098 280.82C646.272 280.793 646.472 280.747 646.698 280.68C646.925 280.613 647.078 280.507 647.158 280.36H647.198ZM652.97 275.68V272.58H651.71V275.68H649.91V276.74H651.71V283.8C651.696 284.68 651.856 285.287 652.19 285.62C652.523 285.94 653.11 286.1 653.95 286.1C654.136 286.1 654.323 286.093 654.51 286.08C654.696 286.067 654.883 286.06 655.07 286.06V285C654.71 285.04 654.35 285.06 653.99 285.06C653.536 285.033 653.25 284.907 653.13 284.68C653.023 284.44 652.97 284.113 652.97 283.7V276.74H655.07V275.68H652.97ZM664.308 280.12H657.628C657.681 279.653 657.788 279.2 657.948 278.76C658.121 278.307 658.348 277.913 658.627 277.58C658.908 277.233 659.248 276.96 659.648 276.76C660.048 276.547 660.508 276.44 661.028 276.44C661.534 276.44 661.988 276.547 662.388 276.76C662.788 276.96 663.128 277.233 663.408 277.58C663.688 277.913 663.901 278.3 664.048 278.74C664.208 279.18 664.294 279.64 664.308 280.12ZM657.628 281.18H665.568C665.594 280.46 665.528 279.753 665.368 279.06C665.208 278.353 664.941 277.733 664.568 277.2C664.208 276.653 663.734 276.213 663.148 275.88C662.561 275.547 661.854 275.38 661.028 275.38C660.214 275.38 659.508 275.54 658.908 275.86C658.321 276.167 657.841 276.58 657.468 277.1C657.094 277.607 656.814 278.187 656.628 278.84C656.454 279.493 656.368 280.16 656.368 280.84C656.368 281.573 656.454 282.273 656.628 282.94C656.814 283.593 657.094 284.173 657.468 284.68C657.841 285.173 658.321 285.567 658.908 285.86C659.508 286.14 660.214 286.28 661.028 286.28C662.334 286.28 663.341 285.96 664.048 285.32C664.768 284.68 665.261 283.773 665.528 282.6H664.268C664.068 283.4 663.708 284.04 663.188 284.52C662.668 285 661.948 285.24 661.028 285.24C660.428 285.24 659.914 285.113 659.488 284.86C659.061 284.607 658.708 284.287 658.428 283.9C658.148 283.513 657.941 283.08 657.808 282.6C657.688 282.107 657.628 281.633 657.628 281.18ZM675.979 285.16V275.68H674.719V277.46H674.679C674.559 277.18 674.385 276.913 674.159 276.66C673.945 276.407 673.699 276.187 673.419 276C673.139 275.8 672.825 275.647 672.479 275.54C672.145 275.433 671.785 275.38 671.399 275.38C670.652 275.38 669.985 275.52 669.399 275.8C668.825 276.067 668.339 276.44 667.939 276.92C667.552 277.387 667.252 277.94 667.039 278.58C666.839 279.207 666.739 279.873 666.739 280.58C666.739 281.313 666.825 282.007 666.999 282.66C667.172 283.3 667.445 283.86 667.819 284.34C668.205 284.82 668.692 285.2 669.279 285.48C669.865 285.747 670.572 285.88 671.399 285.88C672.159 285.88 672.819 285.687 673.379 285.3C673.952 284.913 674.385 284.4 674.679 283.76H674.719V285.16C674.719 286.413 674.459 287.373 673.939 288.04C673.419 288.707 672.572 289.04 671.399 289.04C671.052 289.04 670.712 289 670.379 288.92C670.045 288.853 669.739 288.74 669.459 288.58C669.192 288.42 668.959 288.207 668.759 287.94C668.572 287.687 668.445 287.367 668.379 286.98H667.119C667.159 287.527 667.305 287.993 667.559 288.38C667.825 288.78 668.152 289.107 668.539 289.36C668.939 289.613 669.385 289.8 669.879 289.92C670.372 290.04 670.879 290.1 671.399 290.1C672.239 290.1 672.945 289.987 673.519 289.76C674.105 289.533 674.579 289.207 674.939 288.78C675.299 288.353 675.559 287.833 675.719 287.22C675.892 286.607 675.979 285.92 675.979 285.16ZM671.399 284.82C670.812 284.82 670.305 284.707 669.879 284.48C669.452 284.24 669.099 283.933 668.819 283.56C668.539 283.173 668.332 282.733 668.199 282.24C668.065 281.747 667.999 281.24 667.999 280.72C667.999 280.187 668.059 279.667 668.179 279.16C668.312 278.64 668.519 278.18 668.799 277.78C669.079 277.38 669.432 277.06 669.859 276.82C670.285 276.567 670.799 276.44 671.399 276.44C671.999 276.44 672.505 276.567 672.919 276.82C673.345 277.073 673.692 277.407 673.959 277.82C674.225 278.233 674.419 278.693 674.539 279.2C674.659 279.707 674.719 280.213 674.719 280.72C674.719 281.24 674.645 281.747 674.499 282.24C674.365 282.733 674.159 283.173 673.879 283.56C673.599 283.933 673.252 284.24 672.839 284.48C672.425 284.707 671.945 284.82 671.399 284.82ZM682.732 276.44C683.332 276.44 683.859 276.567 684.312 276.82C684.765 277.073 685.139 277.407 685.432 277.82C685.739 278.233 685.965 278.707 686.112 279.24C686.272 279.76 686.352 280.293 686.352 280.84C686.352 281.387 686.272 281.927 686.112 282.46C685.965 282.98 685.739 283.447 685.432 283.86C685.139 284.273 684.765 284.607 684.312 284.86C683.859 285.113 683.332 285.24 682.732 285.24C682.132 285.24 681.605 285.113 681.152 284.86C680.699 284.607 680.319 284.273 680.012 283.86C679.719 283.447 679.492 282.98 679.332 282.46C679.185 281.927 679.112 281.387 679.112 280.84C679.112 280.293 679.185 279.76 679.332 279.24C679.492 278.707 679.719 278.233 680.012 277.82C680.319 277.407 680.699 277.073 681.152 276.82C681.605 276.567 682.132 276.44 682.732 276.44ZM682.732 275.38C681.945 275.38 681.245 275.527 680.632 275.82C680.032 276.113 679.525 276.507 679.112 277C678.699 277.493 678.385 278.073 678.172 278.74C677.959 279.393 677.852 280.093 677.852 280.84C677.852 281.587 677.959 282.293 678.172 282.96C678.385 283.613 678.699 284.187 679.112 284.68C679.525 285.173 680.032 285.567 680.632 285.86C681.245 286.14 681.945 286.28 682.732 286.28C683.519 286.28 684.212 286.14 684.812 285.86C685.425 285.567 685.939 285.173 686.352 284.68C686.765 284.187 687.079 283.613 687.292 282.96C687.505 282.293 687.612 281.587 687.612 280.84C687.612 280.093 687.505 279.393 687.292 278.74C687.079 278.073 686.765 277.493 686.352 277C685.939 276.507 685.425 276.113 684.812 275.82C684.212 275.527 683.519 275.38 682.732 275.38ZM689.485 275.68V286H690.745V280.5C690.745 279.953 690.838 279.453 691.025 279C691.212 278.533 691.472 278.133 691.805 277.8C692.152 277.467 692.558 277.213 693.025 277.04C693.492 276.853 694.012 276.773 694.585 276.8V275.54C693.652 275.5 692.845 275.707 692.165 276.16C691.498 276.613 691.005 277.26 690.685 278.1H690.645V275.68H689.485ZM694.634 275.68L698.754 285.96L698.314 287.12C698.207 287.36 698.107 287.58 698.014 287.78C697.92 287.98 697.807 288.147 697.674 288.28C697.54 288.427 697.38 288.54 697.194 288.62C697.02 288.7 696.794 288.74 696.514 288.74C696.367 288.74 696.22 288.727 696.074 288.7C695.94 288.687 695.8 288.667 695.654 288.64V289.7C695.76 289.74 695.88 289.76 696.014 289.76C696.16 289.773 696.36 289.787 696.614 289.8C697.014 289.8 697.34 289.76 697.594 289.68C697.86 289.613 698.087 289.493 698.274 289.32C698.474 289.16 698.654 288.933 698.814 288.64C698.974 288.36 699.147 288 699.334 287.56L703.814 275.68H702.554L699.374 284.48L695.974 275.68H694.634Z" fill="#BABFBF"/>
</svg>
