<svg width="19" height="19" viewBox="0 0 19 19" fill="none" xmlns="http://www.w3.org/2000/svg">
<path fill-rule="evenodd" clip-rule="evenodd" d="M0.279747 0.892616C0.0844853 0.697354 0.0844854 0.380771 0.279747 0.185509C0.47501 -0.00975302 0.791592 -0.00975302 0.986854 0.185509L9.49993 8.69859L18.013 0.185509C18.2083 -0.00975302 18.5249 -0.00975302 18.7201 0.185509C18.9154 0.380771 18.9154 0.697354 18.7201 0.892616L10.207 9.40569L18.013 17.2117C18.2083 17.4069 18.2083 17.7235 18.013 17.9188C17.8177 18.114 17.5012 18.114 17.3059 17.9188L9.49993 10.1128L1.69396 17.9188C1.4987 18.114 1.18212 18.114 0.986855 17.9188C0.791592 17.7235 0.791593 17.4069 0.986855 17.2117L8.79282 9.40569L0.279747 0.892616Z" fill="#3F3C44"/>
</svg>
