<svg viewBox="0 0 41 16" fill="none" xmlns="http://www.w3.org/2000/svg">
<path d="M1 9C0.447715 9 4.82823e-08 8.55228 0 8C-4.82823e-08 7.44772 0.447715 7 1 7L1 9ZM40.7071 7.29289C41.0976 7.68341 41.0976 8.31658 40.7071 8.7071L34.3431 15.0711C33.9526 15.4616 33.3195 15.4616 32.9289 15.0711C32.5384 14.6805 32.5384 14.0474 32.9289 13.6569L38.5858 8L32.9289 2.34314C32.5384 1.95262 32.5384 1.31945 32.9289 0.928929C33.3195 0.538405 33.9526 0.538405 34.3431 0.928929L40.7071 7.29289ZM1 7L40 7L40 9L1 9L1 7Z" fill="#43D8CF"/>
</svg>
