<svg width="32" height="32" viewBox="0 0 32 32" fill="none" xmlns="http://www.w3.org/2000/svg">
<path d="M16 32C24.8366 32 32 24.8366 32 16C32 7.16344 24.8366 0 16 0C7.16344 0 0 7.16344 0 16C0 24.8366 7.16344 32 16 32Z" fill="#E6ECEC"/>
<path d="M15.8108 31.9989C17.1165 31.9854 18.3565 31.8464 19.5203 31.6114C23.8782 30.6329 27.5638 27.8764 29.7753 24.1435L15.7936 26.1274C9.23416 23.8605 6.00066 23.4766 4.87247 23.4766C3.84725 23.4766 2.77002 23.9027 2.28172 24.0959C2.25709 24.1057 2.23395 24.1148 2.2124 24.1233C4.96608 28.787 10.0186 31.9319 15.8108 31.9989Z" fill="#BABFBF"/>
<path d="M30.5836 22.5911C30.5836 22.5911 30.5836 22.591 30.5836 22.5911C30.0197 23.8368 29.3008 24.9975 28.4516 26.0485C28.4515 26.0486 28.4517 26.0484 28.4516 26.0485C27.9486 26.671 27.3994 27.2553 26.81 27.7957C25.5277 28.2047 24.1502 28.3678 22.7425 28.3529C19.1366 28.3146 15.2027 27.1179 11.8034 25.8138C5.57891 23.426 3.48721 24.4303 2.78808 25.0272C2.42426 24.4958 2.09168 23.9413 1.79297 23.3664C3.34807 22.2247 6.34418 21.6631 12.4911 24.0212C13.0104 24.2204 13.5375 24.415 14.0696 24.6018C15.9193 23.5686 18.7676 22.2073 22.2392 21.7495C25.5054 21.3187 28.9621 21.8759 30.4481 22.5286C30.5192 22.4598 30.5995 22.4033 30.6858 22.3602C30.6523 22.4374 30.6183 22.5144 30.5836 22.5911Z" fill="#3F3C44"/>
<path d="M16.0003 11.0398C13.7028 11.0398 11.8403 12.9023 11.8403 15.1998C11.8403 17.4973 13.7028 19.3598 16.0003 19.3598C18.2978 19.3598 20.1603 17.4973 20.1603 15.1998C20.1603 12.9023 18.2978 11.0398 16.0003 11.0398Z" fill="#3F3C44"/>
</svg>
