<svg width="36" height="36" viewBox="0 0 36 36" fill="none" xmlns="http://www.w3.org/2000/svg">
<path d="M34.0773 20.01C35.0754 10.7881 26.85 2.29943 19.5786 2.01158C10.051 1.63441 1.05355 10.5303 2.08018 20.01C3.0037 28.5375 10.0054 34.7754 18.5787 34.5087C26.8629 34.2509 33.1855 28.2499 34.0773 20.01Z" stroke="#3F3C44" stroke-width="2" stroke-linecap="round"/>
<path d="M10.5171 18.565C10.5171 18.565 11.883 18.931 12.7489 18.431C13.6148 17.9311 13.9809 16.5652 13.9809 16.5652" stroke="#3F3C44" stroke-width="2" stroke-linecap="round"/>
<path d="M22.5161 16.5652C22.5161 16.5652 22.8821 17.9311 23.748 18.431C24.6139 18.931 25.9799 18.565 25.9799 18.565" stroke="#3F3C44" stroke-width="2" stroke-linecap="round"/>
<path d="M14.0786 26.1142C16.9982 24.9981 20.9979 24.9981 23.5778 26.1142" stroke="#3F3C44" stroke-width="2" stroke-linecap="round"/>
</svg>
