<svg viewBox="0 0 322 272" fill="none" xmlns="http://www.w3.org/2000/svg">
<path opacity="0.5" fill-rule="evenodd" clip-rule="evenodd" d="M240.263 67.9634C246.999 59.6469 250.184 48.5399 248.067 37.1943C244.234 16.6535 224.475 3.10897 203.935 6.94174C187.205 10.0633 175.117 23.749 173.277 39.8174L146.609 183.147L240.674 68.1555L240.263 67.9634Z" fill="#9D90D5"/>
<rect x="51.8389" y="155.016" width="152.778" height="101.034" stroke="white" stroke-width="2" stroke-linecap="round"/>
<path d="M191.493 53.1666L214.925 40.7476" stroke="white" stroke-width="2" stroke-linecap="round"/>
<path d="M182.992 66.8151L206.424 54.396" stroke="white" stroke-width="2" stroke-linecap="round"/>
<path d="M204.617 237.77H51.8389" stroke="white" stroke-width="2" stroke-linecap="round"/>
<path d="M152.381 270.52H104.075" stroke="white" stroke-width="2" stroke-linecap="round"/>
<path d="M109.815 256.965L108.531 270.43" stroke="white" stroke-width="2" stroke-linecap="round"/>
<path d="M146.788 256.965L148.073 270.43" stroke="white" stroke-width="2" stroke-linecap="round"/>
<circle cx="128.228" cy="247.375" r="4.08545" stroke="white" stroke-width="2" stroke-linecap="round"/>
<path d="M9.83594 270.484H302.192" stroke="white" stroke-width="2" stroke-linecap="round"/>
<path d="M226.917 270.357L231.037 257.574L242.881 259.089L255.052 270.875L226.917 270.357Z" fill="white"/>
<path d="M24.5894 269.935L29.2297 264.152L34.2308 264.777L36.1062 269.779L24.5894 269.935Z" fill="white"/>
<ellipse cx="84.2895" cy="178.924" rx="2.52139" ry="2.66227" fill="#F1646A"/>
<ellipse cx="84.2895" cy="195.713" rx="2.52139" ry="2.66227" fill="#5C5096"/>
<ellipse cx="84.2895" cy="212.498" rx="2.52139" ry="2.66227" fill="#5C5096"/>
<circle cx="19.4786" cy="38.2969" r="2.35281" transform="rotate(14.6401 19.4786 38.2969)" fill="#7266AB"/>
<circle cx="32.5209" cy="41.7031" r="2.35281" transform="rotate(14.6401 32.5209 41.7031)" fill="#7266AB"/>
<circle cx="45.5638" cy="45.1055" r="2.35281" transform="rotate(14.6401 45.5638 45.1055)" fill="#7266AB"/>
<circle cx="58.6037" cy="48.5156" r="2.35281" transform="rotate(14.6401 58.6037 48.5156)" fill="#7266AB"/>
<circle cx="71.6451" cy="51.9258" r="2.35281" transform="rotate(14.6401 71.6451 51.9258)" fill="#7266AB"/>
<circle cx="84.6849" cy="55.3281" r="2.35281" transform="rotate(14.6401 84.6849 55.3281)" fill="#7266AB"/>
<circle cx="97.7264" cy="58.7344" r="2.35281" transform="rotate(14.6401 97.7264 58.7344)" fill="#7266AB"/>
<circle cx="15.9907" cy="51.6523" r="2.35281" transform="rotate(14.6401 15.9907 51.6523)" fill="#7266AB"/>
<circle cx="29.0321" cy="55.0586" r="2.35281" transform="rotate(14.6401 29.0321 55.0586)" fill="#7266AB"/>
<circle cx="42.0736" cy="58.4687" r="2.35281" transform="rotate(14.6401 42.0736 58.4687)" fill="#7266AB"/>
<circle cx="55.115" cy="61.8711" r="2.35281" transform="rotate(14.6401 55.115 61.8711)" fill="#7266AB"/>
<circle cx="68.1548" cy="65.2773" r="2.35281" transform="rotate(14.6401 68.1548 65.2773)" fill="#7266AB"/>
<circle cx="81.1963" cy="68.6875" r="2.35281" transform="rotate(14.6401 81.1963 68.6875)" fill="#7266AB"/>
<circle cx="94.2393" cy="72.0898" r="2.35281" transform="rotate(14.6401 94.2393 72.0898)" fill="#7266AB"/>
<circle cx="12.5035" cy="65.0078" r="2.35281" transform="rotate(14.6401 12.5035 65.0078)" fill="#7266AB"/>
<circle cx="25.5434" cy="68.4141" r="2.35281" transform="rotate(14.6401 25.5434 68.4141)" fill="#7266AB"/>
<circle cx="38.5832" cy="71.8242" r="2.35281" transform="rotate(14.6401 38.5832 71.8242)" fill="#7266AB"/>
<circle cx="51.6262" cy="75.2266" r="2.35281" transform="rotate(14.6401 51.6262 75.2266)" fill="#7266AB"/>
<circle cx="64.6677" cy="78.6328" r="2.35281" transform="rotate(14.6401 64.6677 78.6328)" fill="#7266AB"/>
<circle cx="77.7107" cy="82.0391" r="2.35281" transform="rotate(14.6401 77.7107 82.0391)" fill="#7266AB"/>
<circle cx="90.7505" cy="85.4453" r="2.35281" transform="rotate(14.6401 90.7505 85.4453)" fill="#7266AB"/>
<circle cx="9.0133" cy="78.3594" r="2.35281" transform="rotate(14.6401 9.0133 78.3594)" fill="#7266AB"/>
<circle cx="22.0547" cy="81.7695" r="2.35281" transform="rotate(14.6401 22.0547 81.7695)" fill="#7266AB"/>
<circle cx="35.0945" cy="85.1797" r="2.35281" transform="rotate(14.6401 35.0945 85.1797)" fill="#7266AB"/>
<circle cx="48.1391" cy="88.582" r="2.35281" transform="rotate(14.6401 48.1391 88.582)" fill="#7266AB"/>
<circle cx="61.1774" cy="91.9922" r="2.35281" transform="rotate(14.6401 61.1774 91.9922)" fill="#7266AB"/>
<circle cx="74.2187" cy="95.3984" r="2.35281" transform="rotate(14.6401 74.2187 95.3984)" fill="#7266AB"/>
<circle cx="87.2602" cy="98.8008" r="2.35281" transform="rotate(14.6401 87.2602 98.8008)" fill="#7266AB"/>
<circle cx="5.52453" cy="91.7148" r="2.35281" transform="rotate(14.6401 5.52453 91.7148)" fill="#7266AB"/>
<circle cx="18.5675" cy="95.125" r="2.35281" transform="rotate(14.6401 18.5675 95.125)" fill="#7266AB"/>
<circle cx="31.6058" cy="98.5312" r="2.35281" transform="rotate(14.6401 31.6058 98.5312)" fill="#7266AB"/>
<circle cx="44.6456" cy="101.941" r="2.35281" transform="rotate(14.6401 44.6456 101.941)" fill="#7266AB"/>
<circle cx="57.6886" cy="105.344" r="2.35281" transform="rotate(14.6401 57.6886 105.344)" fill="#7266AB"/>
<circle cx="70.7285" cy="108.754" r="2.35281" transform="rotate(14.6401 70.7285 108.754)" fill="#7266AB"/>
<circle cx="83.7699" cy="112.16" r="2.35281" transform="rotate(14.6401 83.7699 112.16)" fill="#7266AB"/>
<path d="M247.652 123.671L232.814 136.872" stroke="white" stroke-width="2" stroke-linecap="round"/>
<path d="M250.069 203.102L262.165 203.62" stroke="white" stroke-width="2" stroke-linecap="round"/>
<path d="M274.656 202.641L262.107 203.664" stroke="white" stroke-width="2" stroke-linecap="round"/>
<path d="M15.1524 128.828L44.7717 147.186" stroke="white" stroke-width="2" stroke-linecap="round"/>
<path d="M58.078 228.649C62.1881 222.03 55.7122 209.255 43.7351 211.436C31.758 213.618 32.595 231.388 41.0694 229.074C49.5438 226.76 46.104 202.512 28.1758 203.212C10.2475 203.911 2.60108 230.584 13.2588 232.594C23.9165 234.604 24.8092 201.499 2 198.992" stroke="white" stroke-width="2" stroke-linecap="round"/>
<path d="M279.715 134.937L225.949 151.252" stroke="white" stroke-width="2" stroke-linecap="round"/>
<path d="M262.067 183.914L262.067 201.859L248.428 199.082L248.428 181.137L262.067 183.914Z" fill="#43D8CF"/>
<path d="M262.067 183.914L262.067 201.859L248.428 199.082L248.428 181.137L262.067 183.914Z" stroke="#1C1158" stroke-width="2" stroke-linecap="round" stroke-linejoin="round"/>
<path d="M262.095 183.914L262.095 201.859L275.734 199.082L275.734 181.137L262.095 183.914Z" fill="white"/>
<path d="M262.095 183.914L262.095 201.859L275.734 199.082L275.734 181.137L262.095 183.914Z" stroke="#1C1158" stroke-width="2" stroke-linecap="round" stroke-linejoin="round"/>
</svg>
