<svg width="80" height="80" viewBox="0 0 80 80" fill="none" xmlns="http://www.w3.org/2000/svg">
<path opacity="0.1" d="M40 80C62.0914 80 80 62.0914 80 40C80 17.9086 62.0914 0 40 0C17.9086 0 0 17.9086 0 40C0 62.0914 17.9086 80 40 80Z" fill="#BABFBF"/>
<path d="M31 30.0179C31 28.9064 31.9062 28.0081 33.0177 28.0179L42.3236 28.1002C42.8187 28.1046 43.2946 28.2924 43.6591 28.6274L48.3532 32.9406C48.7654 33.3194 49 33.8536 49 34.4133V40.0001V50.0001C49 51.1047 48.1046 52.0001 47 52.0001H33C31.8954 52.0001 31 51.1047 31 50.0001V30.0179Z" stroke="#BABFBF"/>
<path d="M43 28V34H49" stroke="#BABFBF" stroke-linejoin="round"/>
<path d="M44.9094 37.292H35.4604V43.9852H44.9094V37.292Z" stroke="#BABFBF" stroke-linejoin="round"/>
<path d="M35.73 43.6822L39.0745 40.3376L42.2067 43.7352" stroke="#BABFBF" stroke-linecap="round" stroke-linejoin="round"/>
<path d="M41.251 42.6204L43.0559 41.0808L44.8081 42.8327" stroke="#BABFBF" stroke-linecap="round" stroke-linejoin="round"/>
<path d="M41.1983 40.0719C41.5794 40.0719 41.8883 39.763 41.8883 39.3819C41.8883 39.0008 41.5794 38.6919 41.1983 38.6919C40.8172 38.6919 40.5083 39.0008 40.5083 39.3819C40.5083 39.763 40.8172 40.0719 41.1983 40.0719Z" fill="#BABFBF"/>
</svg>
