<svg width="80" height="80" viewBox="0 0 80 80" fill="none" xmlns="http://www.w3.org/2000/svg">
<path opacity="0.1" d="M40 80C62.0914 80 80 62.0914 80 40C80 17.9086 62.0914 0 40 0C17.9086 0 0 17.9086 0 40C0 62.0914 17.9086 80 40 80Z" fill="#BABFBF"/>
<path d="M31 30.0179C31 28.9064 31.9062 28.0081 33.0177 28.0179L42.3236 28.1002C42.8187 28.1046 43.2946 28.2924 43.6591 28.6274L48.3532 32.9406C48.7654 33.3194 49 33.8536 49 34.4133V40.0001V50.0001C49 51.1047 48.1046 52.0001 47 52.0001H33C31.8954 52.0001 31 51.1047 31 50.0001V30.0179Z" stroke="#BABFBF"/>
<path d="M43 28V34H49" stroke="#BABFBF" stroke-linejoin="round"/>
<path d="M40.5093 39.784L41.4589 38.8222C41.9064 38.3689 42.6375 38.3666 43.0879 38.817C43.5364 39.2655 43.5364 39.9925 43.0879 40.4409L40.9997 42.5292C40.6061 42.9228 39.9669 42.9192 39.5777 42.5213L39.5298 42.4724" stroke="#BABFBF" stroke-linecap="round"/>
<path d="M39.4049 44.1188L38.4428 45.0833C37.9934 45.5339 37.2637 45.5343 36.8137 45.0844C36.3642 44.6348 36.3642 43.9059 36.8137 43.4563L38.9078 41.3622C39.2983 40.9717 39.9315 40.9717 40.322 41.3622L40.4182 41.4585" stroke="#BABFBF" stroke-linecap="round"/>
</svg>
