<svg width="36" height="36" viewBox="0 0 36 36" fill="none" xmlns="http://www.w3.org/2000/svg">
<path d="M34.0773 20.01C35.0754 10.7881 26.85 2.29943 19.5786 2.01158C10.051 1.63441 1.05355 10.5303 2.08018 20.01C3.0037 28.5375 10.0054 34.7754 18.5787 34.5087C26.8629 34.2509 33.1855 28.2499 34.0773 20.01Z" stroke="#AFA7B1" stroke-width="2" stroke-linecap="round"/>
<path d="M21.3878 28.8156C14.5057 29.9682 8.90256 25.4144 9.00028 21.9819C9.098 18.5494 14.4856 20.615 19.3232 20.615C22.2795 20.615 28.5714 19.3815 28.9578 21.9819C29.3914 24.8986 26.205 28.0088 21.3878 28.8156Z" stroke="#AFA7B1" stroke-width="2" stroke-linecap="round"/>
<path d="M10.8081 14.3058C10.8081 14.3058 11.3861 14.0151 12.3204 13.6587C13.2546 13.3025 14.5452 13.8804 14.5452 13.8804" stroke="#AFA7B1" stroke-width="2" stroke-linecap="round"/>
<path d="M21.939 14.0128C21.939 14.0128 23.1896 13.3527 24.1449 13.6481C25.1002 13.9434 25.7602 14.194 25.7602 14.194" stroke="#AFA7B1" stroke-width="2" stroke-linecap="round"/>
</svg>
