<svg width="280" height="240" viewBox="0 0 280 240" fill="none" xmlns="http://www.w3.org/2000/svg">
<rect x="130.042" y="85.323" width="55.8026" height="76.5498" transform="rotate(7.89921 130.042 85.323)" stroke="#3F3C44" stroke-width="3" stroke-linecap="round" stroke-linejoin="round"/>
<path opacity="0.5" fill-rule="evenodd" clip-rule="evenodd" d="M146.056 60.6661C152.877 53.4803 156.089 43.1252 153.719 32.7421C149.954 16.2518 133.534 5.93557 117.044 9.70018C101.716 13.1994 91.723 27.6321 93.4131 42.8924L93.3505 42.8712L101.383 103.444L146.116 60.6861L146.056 60.6661Z" fill="#BABFBF"/>
<circle cx="232.829" cy="159.366" r="19.8772" transform="rotate(0.805961 232.829 159.366)" stroke="#3F3C44" stroke-width="3" stroke-linecap="round"/>
<path d="M221.817 177.361L197.779 212.244" stroke="#3F3C44" stroke-width="3" stroke-linecap="round"/>
<path d="M115.641 148.673L129.332 86.1886L121.087 147.459L115.641 148.673Z" fill="#3F3C44"/>
<path d="M79.8558 77.8716L59.5581 85.8216L60.5727 80.2397L79.8558 77.8716Z" fill="#3F3C44"/>
<circle r="3.18698" transform="matrix(0.988315 0.152427 0.152427 -0.988315 142.123 99.0946)" fill="#BABFBF"/>
<circle r="3.18698" transform="matrix(0.988315 0.152427 0.152427 -0.988315 139.521 115.965)" fill="#BABFBF"/>
<circle r="3.18698" transform="matrix(0.988315 0.152427 0.152427 -0.988315 136.919 132.836)" fill="#BABFBF"/>
<circle r="2.47712" transform="matrix(0.990526 0.137327 0.137327 -0.990526 239.469 154.149)" fill="#3F3C44"/>
<circle r="2.21886" transform="matrix(0.826388 0.563101 0.563101 -0.826388 98.9488 114.337)" fill="#3F3C44"/>
<path fill-rule="evenodd" clip-rule="evenodd" d="M56.441 96.3123C56.4531 90.8331 57.3016 85.42 58.931 80.2522L62.2587 79.7467C60.4158 85.047 59.4535 90.6454 59.441 96.3189C59.4186 106.51 62.4617 116.472 68.1749 124.911C73.8881 133.349 82.0073 139.875 91.4775 143.639C100.968 147.411 110.443 148.356 120.371 146.146C121.179 145.966 121.981 146.476 122.161 147.285C122.341 148.093 121.831 148.895 121.022 149.075C110.467 151.424 100.379 150.406 90.3694 146.427C80.3399 142.441 71.7413 135.53 65.6907 126.593C59.6401 117.655 56.4173 107.105 56.441 96.3123ZM91.6854 49.14C85.9464 51.392 80.6974 54.6566 76.1728 58.7472L75.6391 55.2336C80.0832 51.5008 85.1268 48.4909 90.5895 46.3473C100.636 42.405 111.637 41.5754 122.161 43.9665C125.361 44.6935 128.473 45.7081 131.46 46.9902C131.034 47.4585 130.691 48.016 130.462 48.6477C130.334 49.0003 130.248 49.3579 130.202 49.715C127.404 48.5196 124.492 47.5724 121.497 46.8919C111.559 44.6342 101.172 45.4175 91.6854 49.14ZM138.413 54.156C141.682 56.3342 144.704 58.8955 147.41 61.8001C154.357 69.2562 158.901 78.6293 160.452 88.7016C160.578 89.5204 161.344 90.082 162.162 89.9559C162.981 89.8299 163.543 89.064 163.417 88.2452C161.775 77.5781 156.962 67.6515 149.605 59.7551C146.719 56.6576 143.494 53.9287 140.004 51.6114C139.965 51.7609 139.919 51.9099 139.865 52.058C139.559 52.9015 139.05 53.6126 138.413 54.156Z" fill="#3F3C44"/>
<circle cx="135.165" cy="50.3528" r="5.00128" transform="rotate(19.9346 135.165 50.3528)" stroke="#3F3C44" stroke-width="3" stroke-linecap="round"/>
<rect x="43.7876" y="41.6819" width="29.4557" height="40.4072" transform="rotate(-8.63721 43.7876 41.6819)" stroke="#3F3C44" stroke-width="3" stroke-linecap="round" stroke-linejoin="round"/>
<path d="M44.3899 123.221L97.4394 114.68" stroke="#3F3C44" stroke-width="2" stroke-linecap="round" stroke-linejoin="round"/>
<path d="M139.322 37.3059L141.573 28.7131" stroke="#3F3C44" stroke-width="2" stroke-linecap="round" stroke-linejoin="round"/>
<path d="M146.631 42.6072L159.575 36.8967" stroke="#3F3C44" stroke-width="2" stroke-linecap="round" stroke-linejoin="round"/>
<path d="M241.115 153.683L261.866 147.465" stroke="#3F3C44" stroke-width="2" stroke-linecap="round" stroke-linejoin="round"/>
<circle opacity="0.5" cx="37.0424" cy="173.833" r="15.3544" fill="#BABFBF"/>
<path d="M37.5917 181.252C33.2674 181.18 26.9331 182.346 25.3579 183.163C34.0519 182.719 40.6999 186.346 49.679 182.633C46.6572 181.079 41.916 181.324 37.5917 181.252Z" fill="#3F3C44"/>
<circle cx="236.778" cy="68.5711" r="0.955419" transform="rotate(5.50331 236.778 68.5711)" fill="#BABFBF"/>
<circle cx="231.329" cy="68.0448" r="0.955419" transform="rotate(5.50331 231.329 68.0448)" fill="#BABFBF"/>
<circle cx="225.881" cy="67.5183" r="0.955419" transform="rotate(5.50331 225.881 67.5183)" fill="#BABFBF"/>
<circle cx="220.433" cy="66.9954" r="0.955419" transform="rotate(5.50331 220.433 66.9954)" fill="#BABFBF"/>
<circle cx="237.315" cy="62.99" r="0.955419" transform="rotate(5.50331 237.315 62.99)" fill="#BABFBF"/>
<circle cx="214.987" cy="66.4688" r="0.955419" transform="rotate(5.50331 214.987 66.4688)" fill="#BABFBF"/>
<circle cx="231.869" cy="62.4651" r="0.955419" transform="rotate(5.50331 231.869 62.4651)" fill="#BABFBF"/>
<circle cx="209.537" cy="65.9441" r="0.955419" transform="rotate(5.50331 209.537 65.9441)" fill="#BABFBF"/>
<circle cx="226.419" cy="61.939" r="0.955419" transform="rotate(5.50331 226.419 61.939)" fill="#BABFBF"/>
<circle cx="204.088" cy="65.4196" r="0.955419" transform="rotate(5.50331 204.088 65.4196)" fill="#BABFBF"/>
<circle cx="220.971" cy="61.4141" r="0.955419" transform="rotate(5.50331 220.971 61.4141)" fill="#BABFBF"/>
<circle cx="237.854" cy="57.4104" r="0.955419" transform="rotate(5.50331 237.854 57.4104)" fill="#BABFBF"/>
<circle cx="215.522" cy="60.8912" r="0.955419" transform="rotate(5.50331 215.522 60.8912)" fill="#BABFBF"/>
<circle cx="232.405" cy="56.8825" r="0.955419" transform="rotate(5.50331 232.405 56.8825)" fill="#BABFBF"/>
<circle cx="210.077" cy="60.3647" r="0.955419" transform="rotate(5.50331 210.077 60.3647)" fill="#BABFBF"/>
<circle cx="226.958" cy="56.3595" r="0.955419" transform="rotate(5.50331 226.958 56.3595)" fill="#BABFBF"/>
<circle cx="204.626" cy="59.84" r="0.955419" transform="rotate(5.50331 204.626 59.84)" fill="#BABFBF"/>
<circle cx="221.509" cy="55.833" r="0.955419" transform="rotate(5.50331 221.509 55.833)" fill="#BABFBF"/>
<circle cx="238.392" cy="51.8294" r="0.955419" transform="rotate(5.50331 238.392 51.8294)" fill="#BABFBF"/>
<circle cx="216.06" cy="55.3118" r="0.955419" transform="rotate(5.50331 216.06 55.3118)" fill="#BABFBF"/>
<circle cx="232.943" cy="51.3064" r="0.955419" transform="rotate(5.50331 232.943 51.3064)" fill="#BABFBF"/>
<circle cx="210.613" cy="54.7852" r="0.955419" transform="rotate(5.50331 210.613 54.7852)" fill="#BABFBF"/>
<circle cx="227.494" cy="50.7817" r="0.955419" transform="rotate(5.50331 227.494 50.7817)" fill="#BABFBF"/>
<circle cx="205.166" cy="54.2587" r="0.955419" transform="rotate(5.50331 205.166 54.2587)" fill="#BABFBF"/>
<circle cx="222.047" cy="50.257" r="0.955419" transform="rotate(5.50331 222.047 50.257)" fill="#BABFBF"/>
<circle cx="238.929" cy="46.2499" r="0.955419" transform="rotate(5.50331 238.929 46.2499)" fill="#BABFBF"/>
<circle cx="216.599" cy="49.7305" r="0.955419" transform="rotate(5.50331 216.599 49.7305)" fill="#BABFBF"/>
<circle cx="233.481" cy="45.7251" r="0.955419" transform="rotate(5.50331 233.481 45.7251)" fill="#BABFBF"/>
<circle cx="211.15" cy="49.2059" r="0.955419" transform="rotate(5.50331 211.15 49.2059)" fill="#BABFBF"/>
<circle cx="228.033" cy="45.2006" r="0.955419" transform="rotate(5.50331 228.033 45.2006)" fill="#BABFBF"/>
<circle cx="205.703" cy="48.6795" r="0.955419" transform="rotate(5.50331 205.703 48.6795)" fill="#BABFBF"/>
<circle cx="222.585" cy="44.6757" r="0.955419" transform="rotate(5.50331 222.585 44.6757)" fill="#BABFBF"/>
<circle cx="217.136" cy="44.1495" r="0.955419" transform="rotate(5.50331 217.136 44.1495)" fill="#BABFBF"/>
<circle cx="211.688" cy="43.6264" r="0.955419" transform="rotate(5.50331 211.688 43.6264)" fill="#BABFBF"/>
<circle cx="206.239" cy="43.1017" r="0.955419" transform="rotate(5.50331 206.239 43.1017)" fill="#BABFBF"/>
<path d="M126.002 235.319L120.454 219.677L106.871 219.178L97.8699 235.838L126.002 235.319Z" fill="#BABFBF"/>
<path d="M9.28223 235.837H258.326" stroke="#BABFBF" stroke-width="3" stroke-linecap="round"/>
</svg>
