<svg width="8" height="14" viewBox="0 0 8 14" fill="none" xmlns="http://www.w3.org/2000/svg">
<g clip-path="url(#clip0)">
<path d="M2.99842 11.8741V14H5.03951V11.8741H2.99842ZM0.00114926 4.59644H1.56414C1.56414 4.14957 1.61318 3.73461 1.71125 3.35157C1.80932 2.96854 1.96255 2.63657 2.17095 2.35568C2.39161 2.07478 2.6613 1.85134 2.98003 1.68536C3.29876 1.51938 3.67878 1.43639 4.1201 1.43639C4.78207 1.43639 5.30307 1.63429 5.68309 2.0301C6.07537 2.4259 6.29603 2.97492 6.34507 3.67715C6.36958 4.14957 6.31442 4.55176 6.17957 4.88372C6.04473 5.21569 5.86084 5.52212 5.62793 5.80301C5.40727 6.07113 5.16209 6.33288 4.8924 6.58824C4.63497 6.83083 4.38366 7.09895 4.13849 7.39261C3.90557 7.68627 3.7033 8.02462 3.53168 8.40766C3.37231 8.77793 3.28037 9.23119 3.25585 9.76744V10.6676H4.81885V9.92066C4.81885 9.58869 4.86175 9.29503 4.94757 9.03967C5.04564 8.77155 5.16822 8.52896 5.31533 8.3119C5.47469 8.08208 5.64632 7.87141 5.8302 7.67989C6.02634 7.4756 6.22248 7.2777 6.41862 7.08618C6.61476 6.8819 6.80477 6.67123 6.98865 6.45417C7.18479 6.23712 7.35641 6.00091 7.50352 5.74555C7.65063 5.4902 7.76708 5.2093 7.8529 4.90287C7.95097 4.58368 8 4.22617 8 3.83037C8 3.21751 7.90193 2.67487 7.70579 2.20246C7.52191 1.73005 7.25834 1.33424 6.9151 1.01505C6.57185 0.683082 6.16118 0.434108 5.68309 0.268126C5.21726 0.0893753 4.69626 0 4.1201 0C3.48264 0 2.90648 0.114911 2.39161 0.344732C1.87674 0.574554 1.44156 0.900136 1.08605 1.32148C0.730546 1.73005 0.454724 2.21523 0.258584 2.77702C0.0747019 3.3388 -0.0111095 3.94528 0.00114926 4.59644Z" fill="#BABFBF"/>
</g>
<defs>
<clipPath id="clip0">
<rect width="8" height="14" fill="white"/>
</clipPath>
</defs>
</svg>
