<svg width="16" height="16" viewBox="0 0 16 16" fill="none" xmlns="http://www.w3.org/2000/svg">
<path d="M13.1948 0.32373H2.80518C1.25838 0.32373 0 1.58215 0 3.12895V9.53732C0 11.0841 1.25838 12.3425 2.80518 12.3425H9.42283L12.5907 15.5104C12.6981 15.6178 12.8415 15.6747 12.9876 15.6747C13.0598 15.6747 13.1327 15.6607 13.2021 15.632C13.4117 15.5451 13.5485 15.3407 13.5485 15.1137V12.3203C14.929 12.1459 16 10.9644 16 9.53732V3.12895C16 1.58215 14.7416 0.32373 13.1948 0.32373ZM14.8779 9.53736C14.8779 10.4654 14.1229 11.2205 13.1948 11.2205H12.9874C12.6776 11.2205 12.4264 11.4717 12.4264 11.7815V13.7592L10.052 11.3848C9.94675 11.2795 9.80411 11.2205 9.65523 11.2205H2.80518C1.87709 11.2205 1.12207 10.4654 1.12207 9.53736V3.129C1.12207 2.20091 1.87709 1.44589 2.80518 1.44589H13.1948C14.1229 1.44589 14.8779 2.20091 14.8779 3.129V9.53736Z" fill="#3F3C44"/>
<path d="M12.1291 4.29785H3.8706C3.56078 4.29785 3.30957 4.54902 3.30957 4.85889C3.30957 5.16871 3.56078 5.41992 3.8706 5.41992H12.1291C12.4389 5.41992 12.6901 5.16871 12.6901 4.85889C12.6901 4.54902 12.4389 4.29785 12.1291 4.29785Z" fill="#3F3C44"/>
<path d="M12.1295 7.43848H3.87109C3.56126 7.43848 3.31006 7.68965 3.31006 7.99952C3.31006 8.3094 3.56126 8.56057 3.87109 8.56057H12.1295C12.4394 8.56057 12.6906 8.30935 12.6906 7.99952C12.6906 7.68969 12.4394 7.43848 12.1295 7.43848Z" fill="#3F3C44"/>
</svg>
