<svg width="280" height="240" viewBox="0 0 280 240" fill="none" xmlns="http://www.w3.org/2000/svg">
<circle opacity="0.5" cx="62.033" cy="122.034" r="34.5657" fill="#E6ECEC"/>
<path d="M60.754 156.541C46.4809 155.924 35.6795 146.519 34.2475 141.745C35.0388 141.441 37.3952 140.42 39.6269 140.42C41.8587 140.42 48.2551 141.18 61.2308 145.664L89.4727 141.657C88.8022 146.996 75.0272 157.157 60.754 156.541Z" fill="#BABFBF"/>
<path d="M33.9219 142.368C35.8502 140.439 40.6707 138.15 54.0196 143.271C67.3685 148.392 84.1082 152.328 91.5435 139.91" stroke="#3F3C44" stroke-width="3" stroke-linecap="round"/>
<path d="M73.9851 137.003C65.5769 138.112 59.0168 141.9 55.668 143.896C59.182 145.097 67.6029 148.8 77.4961 148.183C85.9043 147.906 92.3928 140.77 92.1301 139.15C91.8674 137.53 82.3932 135.894 73.9851 137.003Z" fill="#3F3C44"/>
<circle cx="223.785" cy="69.775" r="17.694" fill="#BABFBF"/>
<circle opacity="0.5" r="17.0005" transform="matrix(-0.990668 0.136301 0.136301 0.990668 235.071 210.462)" fill="#BABFBF"/>
<path d="M112.33 155.413L199.989 152.072" stroke="#3F3C44" stroke-width="3" stroke-linecap="round"/>
<path d="M106.666 50.6511L111.898 155.091" stroke="#3F3C44" stroke-width="3" stroke-linecap="round"/>
<path d="M106.666 50.1392L194.324 46.798" stroke="#3F3C44" stroke-width="3" stroke-linecap="round"/>
<path d="M161.398 48.6069L161.561 54.1202L135.921 55.2006L135.518 49.7026" stroke="#3F3C44" stroke-width="3" stroke-linecap="round" stroke-linejoin="round"/>
<path d="M194.501 46.856L199.862 151.599" stroke="#3F3C44" stroke-width="3" stroke-linecap="round"/>
<path d="M132.53 48.6043L132.332 43.9352L163.881 42.6982L164.079 47.6764" stroke="#3F3C44" stroke-width="3" stroke-linecap="round" stroke-linejoin="round"/>
<path d="M142.487 43.3639C143.251 42.7096 145.104 39.4384 148.703 39.4384C151.582 39.4384 153.973 41.4739 154.591 42.7097" stroke="#3F3C44" stroke-width="3" stroke-linecap="round" stroke-linejoin="round"/>
<path d="M221.031 217.201C221.274 218.938 249.039 219.37 249.113 217.368C249.187 215.367 220.787 215.464 221.031 217.201Z" fill="#3F3C44"/>
<path d="M167.341 165.408L177.499 206.809" stroke="#3F3C44" stroke-width="2" stroke-linecap="round"/>
<path d="M236.111 92.1647L246.042 109.003" stroke="#3F3C44" stroke-width="2" stroke-linecap="round"/>
<path d="M222.559 70.8266L168.514 95.8962" stroke="#3F3C44" stroke-width="2" stroke-linecap="round"/>
<path d="M238.03 25.752L232.114 44.3841" stroke="#3F3C44" stroke-width="2" stroke-linecap="round"/>
<path d="M270.825 19.1581L233.538 60.0031" stroke="#3F3C44" stroke-width="2" stroke-linecap="round"/>
<path d="M107.686 87.146L14.6787 32.728" stroke="#3F3C44" stroke-width="2" stroke-linecap="round"/>
<path d="M123.213 237.427L115.515 215.725L96.6688 215.032L84.1807 238.147L123.213 237.427Z" fill="#BABFBF"/>
<path d="M2 238.146H251.044" stroke="#BABFBF" stroke-width="3" stroke-linecap="round"/>
<path d="M83.358 191.933L81.4363 182.415L72.6616 179.856L64.9294 187.646L68.2065 197.736L77.0635 199.969L83.358 191.933Z" fill="#BABFBF"/>
<circle cx="167.451" cy="165.41" r="2.95026" transform="rotate(-26.9174 167.451 165.41)" fill="#3F3C44"/>
<circle cx="168.005" cy="95.8254" r="2.95026" fill="#3F3C44"/>
<circle cx="90.3718" cy="38.439" r="1.11715" transform="rotate(14.6401 90.3718 38.439)" fill="#BABFBF"/>
<circle cx="84.1789" cy="36.8198" r="1.11715" transform="rotate(14.6401 84.1789 36.8198)" fill="#BABFBF"/>
<circle cx="77.988" cy="35.2005" r="1.11715" transform="rotate(14.6401 77.988 35.2005)" fill="#BABFBF"/>
<circle cx="71.7946" cy="33.585" r="1.11715" transform="rotate(14.6401 71.7946 33.585)" fill="#BABFBF"/>
<circle cx="92.028" cy="32.0958" r="1.11715" transform="rotate(14.6401 92.028 32.0958)" fill="#BABFBF"/>
<circle cx="65.6047" cy="31.9658" r="1.11715" transform="rotate(14.6401 65.6047 31.9658)" fill="#BABFBF"/>
<circle cx="85.8381" cy="30.4783" r="1.11715" transform="rotate(14.6401 85.8381 30.4783)" fill="#BABFBF"/>
<circle cx="59.4118" cy="30.3485" r="1.11715" transform="rotate(14.6401 59.4118 30.3485)" fill="#BABFBF"/>
<circle cx="79.6437" cy="28.8591" r="1.11715" transform="rotate(14.6401 79.6437 28.8591)" fill="#BABFBF"/>
<circle cx="53.2189" cy="28.7312" r="1.11715" transform="rotate(14.6401 53.2189 28.7312)" fill="#BABFBF"/>
<circle cx="73.4528" cy="27.2418" r="1.11715" transform="rotate(14.6401 73.4528 27.2418)" fill="#BABFBF"/>
<circle cx="93.6862" cy="25.7544" r="1.11715" transform="rotate(14.6401 93.6862 25.7544)" fill="#BABFBF"/>
<circle cx="67.2599" cy="25.6264" r="1.11715" transform="rotate(14.6401 67.2599 25.6264)" fill="#BABFBF"/>
<circle cx="87.4938" cy="24.1331" r="1.11715" transform="rotate(14.6401 87.4938 24.1331)" fill="#BABFBF"/>
<circle cx="61.069" cy="24.0072" r="1.11715" transform="rotate(14.6401 61.069 24.0072)" fill="#BABFBF"/>
<circle cx="81.301" cy="22.5178" r="1.11715" transform="rotate(14.6401 81.301 22.5178)" fill="#BABFBF"/>
<circle cx="54.8757" cy="22.3897" r="1.11715" transform="rotate(14.6401 54.8757 22.3897)" fill="#BABFBF"/>
<circle cx="75.1091" cy="20.8985" r="1.11715" transform="rotate(14.6401 75.1091 20.8985)" fill="#BABFBF"/>
<circle cx="95.342" cy="19.4111" r="1.11715" transform="rotate(14.6401 95.342 19.4111)" fill="#BABFBF"/>
<circle cx="68.9162" cy="19.285" r="1.11715" transform="rotate(14.6401 68.9162 19.285)" fill="#BABFBF"/>
<circle cx="89.1491" cy="17.7957" r="1.11715" transform="rotate(14.6401 89.1491 17.7957)" fill="#BABFBF"/>
<circle cx="62.7248" cy="17.6657" r="1.11715" transform="rotate(14.6401 62.7248 17.6657)" fill="#BABFBF"/>
<circle cx="82.9572" cy="16.1784" r="1.11715" transform="rotate(14.6401 82.9572 16.1784)" fill="#BABFBF"/>
<circle cx="56.5339" cy="16.0465" r="1.11715" transform="rotate(14.6401 56.5339 16.0465)" fill="#BABFBF"/>
<circle cx="76.7653" cy="14.561" r="1.11715" transform="rotate(14.6401 76.7653 14.561)" fill="#BABFBF"/>
<circle cx="96.9992" cy="13.0698" r="1.11715" transform="rotate(14.6401 96.9992 13.0698)" fill="#BABFBF"/>
<circle cx="70.5739" cy="12.9417" r="1.11715" transform="rotate(14.6401 70.5739 12.9417)" fill="#BABFBF"/>
<circle cx="90.8073" cy="11.4525" r="1.11715" transform="rotate(14.6401 90.8073 11.4525)" fill="#BABFBF"/>
<circle cx="64.381" cy="11.3244" r="1.11715" transform="rotate(14.6401 64.381 11.3244)" fill="#BABFBF"/>
<circle cx="84.614" cy="9.83504" r="1.11715" transform="rotate(14.6401 84.614 9.83504)" fill="#BABFBF"/>
<circle cx="58.1891" cy="9.70516" r="1.11715" transform="rotate(14.6401 58.1891 9.70516)" fill="#BABFBF"/>
<circle cx="78.423" cy="8.21773" r="1.11715" transform="rotate(14.6401 78.423 8.21773)" fill="#BABFBF"/>
<circle cx="72.2302" cy="6.59847" r="1.11715" transform="rotate(14.6401 72.2302 6.59847)" fill="#BABFBF"/>
<circle cx="66.0373" cy="4.98311" r="1.11715" transform="rotate(14.6401 66.0373 4.98311)" fill="#BABFBF"/>
<circle cx="59.8449" cy="3.36543" r="1.11715" transform="rotate(14.6401 59.8449 3.36543)" fill="#BABFBF"/>
</svg>
