<svg width="12" height="12" viewBox="0 0 12 12" fill="none" xmlns="http://www.w3.org/2000/svg">
    <path d="M0 4.5V10.5C0 10.9142 0.33577 11.25 0.75 11.25H3V3.75H0.75C0.33577 3.75 0 4.08577 0 4.5Z" fill="#A09DA6"/>
    <path d="M10.615 4.49995H8.39942C8.20569 4.49995 8.10865 4.37068 8.07605 4.31501C8.04346 4.25971 7.97754 4.11213 8.07129 3.94294L8.85242 2.53632C9.0238 2.22834 9.04138 1.86616 8.90112 1.54279C8.76086 1.21906 8.48401 0.984319 8.1416 0.898992L7.59082 0.761297C7.45678 0.727605 7.31469 0.770452 7.22131 0.87409L4.23083 4.19636C3.92065 4.54169 3.75 4.98701 3.75 5.45063V9.37494C3.75 10.4088 4.59118 11.2499 5.625 11.2499L9.35559 11.2496C10.1979 11.2496 10.9417 10.6823 11.1639 9.87042L11.9645 6.19659C11.9879 6.09442 12 5.98968 12 5.88495C12 5.1214 11.3785 4.49994 10.615 4.49994L10.615 4.49995Z" fill="#A09DA6"/>
</svg>