<svg width="282" height="240" viewBox="0 0 282 240" fill="none" xmlns="http://www.w3.org/2000/svg">
<path d="M2 232.996H277.252" stroke="#BABFBF" stroke-width="3" stroke-linecap="round"/>
<path d="M233.834 232.354L227.547 217.41L210.083 217.41L199.514 232.998L233.834 232.354Z" fill="#BABFBF"/>
<path d="M107.625 232.165L91.6779 209.029L55.0036 206.234L40.5437 232.999L107.625 232.165Z" fill="#BABFBF"/>
<path d="M101.751 54.2123L82.8122 80.452L93.4302 80.6996L76.1684 106.654" stroke="#3F3C44" stroke-width="3" stroke-linecap="round" stroke-linejoin="round"/>
<circle cx="194.361" cy="82.1524" r="56.7344" fill="#E6ECEC"/>
<path d="M99.0605 129.301C121.608 166.604 152.869 217.925 152.869 217.925" stroke="#3F3C44" stroke-width="3" stroke-linecap="round"/>
<path opacity="0.6" d="M192.265 138.797C168.838 137.785 151.109 122.348 148.759 114.513C150.057 114.013 153.925 112.338 157.588 112.338C161.251 112.338 171.75 113.584 193.048 120.944L239.402 114.367C238.302 123.131 215.692 139.809 192.265 138.797Z" fill="#BABFBF"/>
<path d="M148.221 115.53C151.386 112.366 159.298 108.607 181.208 117.013C203.118 125.418 230.594 131.879 242.798 111.496" stroke="#3F3C44" stroke-width="3" stroke-linecap="round"/>
<path d="M213.973 106.731C200.172 108.551 189.405 114.769 183.908 118.044C189.676 120.016 203.498 126.094 219.736 125.081C233.537 124.626 243.484 113.841 243.053 111.182C242.622 108.523 227.774 104.911 213.973 106.731Z" fill="#3F3C44"/>
<path d="M145.882 89.2951L125.878 94.3571" stroke="#3F3C44" stroke-width="2" stroke-linecap="round" stroke-linejoin="round"/>
<path d="M181.855 81.7059L122.635 113.943" stroke="#3F3C44" stroke-width="2" stroke-linecap="round" stroke-linejoin="round"/>
<circle opacity="0.5" cx="28.2659" cy="47.4261" r="22.0081" fill="#BABFBF"/>
<path d="M29.0528 58.0593C22.8546 57.956 13.7754 59.6277 11.5176 60.7983C23.979 60.163 33.5078 65.3606 46.378 60.0393C42.0467 57.8118 35.251 58.1626 29.0528 58.0593Z" fill="#3F3C44"/>
<circle cx="81.4325" cy="100.733" r="33.2965" transform="rotate(20.3916 81.4325 100.733)" stroke="#3F3C44" stroke-width="3" stroke-linecap="round"/>
<path d="M223.525 62.9245C230.126 57.2038 237.497 53.0581 243.547 50.1635" stroke="#3F3C44" stroke-width="3" stroke-linecap="round"/>
<path d="M223.525 62.9219H277.738" stroke="#3F3C44" stroke-width="3" stroke-linecap="round"/>
<path d="M277.737 62.9245C271.137 57.2038 263.766 53.0581 257.716 50.1635" stroke="#3F3C44" stroke-width="3" stroke-linecap="round"/>
<path d="M250.707 47.9189C242.443 41.8591 240.131 28.1944 250.25 27.8879C260.369 27.5813 259.888 41.3082 250.707 47.9189Z" stroke="#3F3C44" stroke-width="3" stroke-linecap="round" stroke-linejoin="round"/>
<path d="M230.009 10.1924L213.421 51.1938" stroke="#3F3C44" stroke-width="2" stroke-linecap="round" stroke-linejoin="round"/>
<circle cx="166.992" cy="48.1879" r="1.29354" transform="rotate(14.6401 166.992 48.1879)" fill="#BABFBF"/>
<circle cx="159.82" cy="46.3168" r="1.29354" transform="rotate(14.6401 159.82 46.3168)" fill="#BABFBF"/>
<circle cx="152.648" cy="44.4379" r="1.29354" transform="rotate(14.6401 152.648 44.4379)" fill="#BABFBF"/>
<circle cx="145.48" cy="42.5668" r="1.29354" transform="rotate(14.6401 145.48 42.5668)" fill="#BABFBF"/>
<circle cx="168.909" cy="40.8441" r="1.29354" transform="rotate(14.6401 168.909 40.8441)" fill="#BABFBF"/>
<circle cx="138.31" cy="40.6957" r="1.29354" transform="rotate(14.6401 138.31 40.6957)" fill="#BABFBF"/>
<circle cx="161.74" cy="38.973" r="1.29354" transform="rotate(14.6401 161.74 38.973)" fill="#BABFBF"/>
<circle cx="131.142" cy="38.8285" r="1.29354" transform="rotate(14.6401 131.142 38.8285)" fill="#BABFBF"/>
<circle cx="154.572" cy="37.098" r="1.29354" transform="rotate(14.6401 154.572 37.098)" fill="#BABFBF"/>
<circle cx="123.972" cy="36.9535" r="1.29354" transform="rotate(14.6401 123.972 36.9535)" fill="#BABFBF"/>
<circle cx="147.398" cy="35.2308" r="1.29354" transform="rotate(14.6401 147.398 35.2308)" fill="#BABFBF"/>
<circle cx="170.825" cy="33.5043" r="1.29354" transform="rotate(14.6401 170.825 33.5043)" fill="#BABFBF"/>
<circle cx="140.226" cy="33.3558" r="1.29354" transform="rotate(14.6401 140.226 33.3558)" fill="#BABFBF"/>
<circle cx="163.659" cy="31.6293" r="1.29354" transform="rotate(14.6401 163.659 31.6293)" fill="#BABFBF"/>
<circle cx="133.06" cy="31.4808" r="1.29354" transform="rotate(14.6401 133.06 31.4808)" fill="#BABFBF"/>
<circle cx="156.488" cy="29.7582" r="1.29354" transform="rotate(14.6401 156.488 29.7582)" fill="#BABFBF"/>
<circle cx="125.89" cy="29.6097" r="1.29354" transform="rotate(14.6401 125.89 29.6097)" fill="#BABFBF"/>
<circle cx="149.318" cy="27.8832" r="1.29354" transform="rotate(14.6401 149.318 27.8832)" fill="#BABFBF"/>
<circle cx="172.745" cy="26.1605" r="1.29354" transform="rotate(14.6401 172.745 26.1605)" fill="#BABFBF"/>
<circle cx="142.578" cy="25.5785" r="1.29354" transform="rotate(14.6401 142.578 25.5785)" fill="#BABFBF"/>
<circle cx="165.574" cy="24.2894" r="1.29354" transform="rotate(14.6401 165.574 24.2894)" fill="#BABFBF"/>
<circle cx="134.978" cy="24.1371" r="1.29354" transform="rotate(14.6401 134.978 24.1371)" fill="#BABFBF"/>
<circle cx="158.404" cy="22.4183" r="1.29354" transform="rotate(14.6401 158.404 22.4183)" fill="#BABFBF"/>
<circle cx="127.808" cy="22.2621" r="1.29354" transform="rotate(14.6401 127.808 22.2621)" fill="#BABFBF"/>
<circle cx="151.236" cy="20.5433" r="1.29354" transform="rotate(14.6401 151.236 20.5433)" fill="#BABFBF"/>
<circle cx="174.661" cy="18.8168" r="1.29354" transform="rotate(14.6401 174.661 18.8168)" fill="#BABFBF"/>
<circle cx="144.066" cy="18.6683" r="1.29354" transform="rotate(14.6401 144.066 18.6683)" fill="#BABFBF"/>
<circle cx="167.492" cy="16.9418" r="1.29354" transform="rotate(14.6401 167.492 16.9418)" fill="#BABFBF"/>
<circle cx="136.896" cy="16.7933" r="1.29354" transform="rotate(14.6401 136.896 16.7933)" fill="#BABFBF"/>
<circle cx="160.324" cy="15.0707" r="1.29354" transform="rotate(14.6401 160.324 15.0707)" fill="#BABFBF"/>
<circle cx="129.726" cy="14.9222" r="1.29354" transform="rotate(14.6401 129.726 14.9222)" fill="#BABFBF"/>
<circle cx="153.154" cy="13.1957" r="1.29354" transform="rotate(14.6401 153.154 13.1957)" fill="#BABFBF"/>
<circle cx="145.986" cy="11.3285" r="1.29354" transform="rotate(14.6401 145.986 11.3285)" fill="#BABFBF"/>
<circle cx="138.812" cy="9.45348" r="1.29354" transform="rotate(14.6401 138.812 9.45348)" fill="#BABFBF"/>
<circle cx="131.644" cy="7.58239" r="1.29354" transform="rotate(14.6401 131.644 7.58239)" fill="#BABFBF"/>
</svg>
