<svg width="16" height="14" viewBox="0 0 16 14" fill="none" xmlns="http://www.w3.org/2000/svg">
<path d="M15.7241 0.654297H0.275862C0.123586 0.654297 0 0.777607 0 0.930159V13.0681C0 13.2206 0.123586 13.344 0.275862 13.344H15.7241C15.8764 13.344 16 13.2206 16 13.0681V0.930159C16 0.777607 15.8764 0.654297 15.7241 0.654297ZM4.41379 3.68878C5.26097 3.68878 5.95007 4.37788 5.95007 5.22506C5.95007 6.07195 5.26097 6.76106 4.41379 6.76106C3.56662 6.76106 2.87752 6.07195 2.87752 5.22506C2.87752 4.37788 3.56662 3.68878 4.41379 3.68878ZM14.5481 8.84078C14.4452 8.95278 14.2706 8.96078 14.1583 8.85788L11.0519 6.00988L8.51917 8.7834L9.84524 10.1095C9.9531 10.2173 9.9531 10.3917 9.84524 10.4995C9.73738 10.6074 9.56304 10.6074 9.45517 10.4995L6.61352 7.65816L2.11338 11.6201C2.06097 11.6662 1.99586 11.6888 1.93103 11.6888C1.85462 11.6888 1.77848 11.6573 1.72386 11.5953C1.62317 11.4808 1.63421 11.3064 1.74869 11.2057L6.44303 7.07278C6.55228 6.97678 6.71724 6.98202 6.82041 7.08492L8.12883 8.39333L10.8306 5.43416C10.88 5.38009 10.949 5.34781 11.0221 5.3445C11.0949 5.34285 11.1666 5.3674 11.2207 5.41678L14.531 8.45126C14.6436 8.55388 14.651 8.7285 14.5481 8.84078Z" fill="#DAD9DD"/>
</svg>
