<svg width="41" height="16" viewBox="0 0 41 16" fill="none" xmlns="http://www.w3.org/2000/svg">
<g clip-path="url(#clip0)">
<path d="M1 8.99995C0.447715 8.99995 4.82823e-08 8.55223 0 7.99995C-4.82823e-08 7.44767 0.447715 6.99995 1 6.99995V8.99995ZM40.7071 7.29284C41.0976 7.68336 41.0976 8.31653 40.7071 8.70705L34.3431 15.0711C33.9526 15.4616 33.3195 15.4616 32.9289 15.0711C32.5384 14.6805 32.5384 14.0474 32.9289 13.6569L38.5858 7.99995L32.9289 2.34309C32.5384 1.95257 32.5384 1.3194 32.9289 0.928879C33.3195 0.538355 33.9526 0.538355 34.3431 0.928879L40.7071 7.29284ZM1 6.99995H40V8.99995H1V6.99995Z" fill="#FCFCFC"/>
</g>
<defs>
<clipPath id="clip0">
<rect width="41" height="16" fill="white"/>
</clipPath>
</defs>
</svg>
