<svg width="7" height="11" viewBox="0 0 7 11" fill="none" xmlns="http://www.w3.org/2000/svg">
<path d="M2.35954 9.44562V10.9996H3.91354V9.44562H2.35954ZM0.0775352 4.12562H1.26754C1.26754 3.79895 1.30487 3.49562 1.37954 3.21562C1.4542 2.93562 1.57087 2.69295 1.72954 2.48762C1.89754 2.28229 2.10287 2.11895 2.34554 1.99762C2.5882 1.87629 2.87754 1.81562 3.21354 1.81562C3.71754 1.81562 4.1142 1.96029 4.40354 2.24962C4.7022 2.53895 4.8702 2.94029 4.90754 3.45362C4.9262 3.79895 4.8842 4.09295 4.78154 4.33562C4.67887 4.57829 4.53887 4.80229 4.36154 5.00762C4.19354 5.20362 4.00687 5.39495 3.80154 5.58162C3.60554 5.75895 3.4142 5.95495 3.22754 6.16962C3.0502 6.38429 2.8962 6.63162 2.76554 6.91162C2.6442 7.18229 2.5742 7.51362 2.55554 7.90562V8.56362H3.74554V8.01762C3.74554 7.77495 3.7782 7.56029 3.84354 7.37362C3.9182 7.17762 4.01154 7.00029 4.12354 6.84162C4.24487 6.67362 4.37554 6.51962 4.51554 6.37962C4.66487 6.23029 4.8142 6.08562 4.96354 5.94562C5.11287 5.79629 5.25754 5.64229 5.39754 5.48362C5.54687 5.32495 5.67754 5.15229 5.78954 4.96562C5.90154 4.77895 5.9902 4.57362 6.05554 4.34962C6.1302 4.11629 6.16754 3.85495 6.16754 3.56562C6.16754 3.11762 6.09287 2.72095 5.94354 2.37562C5.80354 2.03029 5.60287 1.74095 5.34154 1.50762C5.0802 1.26495 4.76754 1.08295 4.40354 0.961625C4.04887 0.830958 3.6522 0.765625 3.21354 0.765625C2.7282 0.765625 2.28954 0.849624 1.89754 1.01762C1.50554 1.18562 1.1742 1.42362 0.903535 1.73162C0.632869 2.03029 0.422869 2.38495 0.273535 2.79562C0.133535 3.20629 0.0682019 3.64962 0.0775352 4.12562Z" fill="#3F3C44"/>
</svg>
