<svg width="340" height="340" viewBox="0 0 340 340" fill="none" xmlns="http://www.w3.org/2000/svg">
<path d="M262.059 268.961L262.059 244.64L243.574 248.405L243.574 272.726L262.059 268.961Z" stroke="#1C1158" stroke-width="2" stroke-linecap="round" stroke-linejoin="round"/>
<path d="M299.03 268.961L299.03 244.64L280.545 248.405L280.545 272.726L299.03 268.961Z" stroke="#1C1158" stroke-width="2" stroke-linecap="round" stroke-linejoin="round"/>
<path d="M299.03 268.961L299.03 244.64L317.515 248.405L317.515 272.726L299.03 268.961Z" fill="#F1646A"/>
<path d="M299.03 268.961L299.03 244.64L317.515 248.405L317.515 272.726L299.03 268.961Z" stroke="#1C1158" stroke-width="2" stroke-linecap="round" stroke-linejoin="round"/>
<path d="M336 268.961L336 244.64L317.515 248.405L317.515 272.726L336 268.961Z" stroke="#1C1158" stroke-width="2" stroke-linecap="round" stroke-linejoin="round"/>
<path opacity="0.6" fill-rule="evenodd" clip-rule="evenodd" d="M190.744 49.7918C182.83 31.2449 163.443 19.275 142.382 21.6755C116.695 24.6035 98.2442 47.801 101.172 73.4886C102.577 85.8116 108.646 96.469 117.417 103.9L199.897 183.113C204.04 188.774 211.022 192.114 218.491 191.262C229.57 189.999 237.528 179.994 236.265 168.915C236.088 167.36 235.738 165.866 235.238 164.451L235.603 164.231L190.779 49.7687L190.744 49.7918Z" fill="#C8BBFF"/>
<circle cx="220.076" cy="179.855" r="23.1512" transform="rotate(93.4978 220.076 179.855)" stroke="#1C1158" stroke-width="3" stroke-linecap="round"/>
<path d="M208.904 199.962C192.52 225.459 159.753 276.453 159.753 276.453" stroke="#1C1158" stroke-width="3" stroke-linecap="round"/>
<path d="M235.931 313.701L226.273 286.474L202.629 285.605L186.961 314.605L235.931 313.701Z" fill="#E3DDFF"/>
<path d="M91.1917 314.239L87.284 303.223L77.717 302.871L71.3775 314.605L91.1917 314.239Z" fill="#E3DDFF"/>
<path d="M160.41 79.3086L138.83 109.849" stroke="#1C1158" stroke-width="2" stroke-linecap="round"/>
<path d="M175.827 73.3672L154.246 103.908" stroke="#1C1158" stroke-width="2" stroke-linecap="round"/>
<path d="M55.4933 172.976L61.9749 121.74L99.9132 134.597L93.4316 185.833L55.4933 172.976Z" fill="white" stroke="#1C1158" stroke-width="3" stroke-linecap="round" stroke-linejoin="round"/>
<path d="M71.1402 177.627L72.0816 154.09L96.8741 153.776L89.3423 183.903L71.1402 177.627Z" fill="#1C1158" stroke="#1C1158" stroke-width="3" stroke-linecap="round" stroke-linejoin="round"/>
<path d="M86.7552 202.781L72.3345 153.191L112.257 149.907L126.678 199.497L86.7552 202.781Z" fill="white" stroke="#1C1158" stroke-width="3" stroke-linecap="round" stroke-linejoin="round"/>
<path d="M95.497 202.105L102.392 170.859L119.2 178.617L120.914 202.203L95.497 202.105Z" fill="#1C1158" stroke="#1C1158" stroke-width="3" stroke-linecap="round" stroke-linejoin="round"/>
<path d="M99.6138 221.912L103.189 170.391L141.793 181.083L138.218 232.604L99.6138 221.912Z" fill="white" stroke="#1C1158" stroke-width="3" stroke-linecap="round" stroke-linejoin="round"/>
<path d="M107.529 266.322L120.58 204.575" stroke="#1C1158" stroke-width="2" stroke-linecap="round"/>
<path d="M57.6212 254.369L67.9896 218.243" stroke="#1C1158" stroke-width="2" stroke-linecap="round"/>
<path d="M15.4632 188.899L38.3711 191.157" stroke="#1C1158" stroke-width="2" stroke-linecap="round"/>
<path d="M3.02501 229.661L44.7124 211.862" stroke="#1C1158" stroke-width="2" stroke-linecap="round"/>
<path d="M81.0841 128.015L92.5048 94.5794" stroke="#1C1158" stroke-width="2" stroke-linecap="round"/>
<circle cx="120.85" cy="204.163" r="2.82436" transform="rotate(115.075 120.85 204.163)" fill="#1C1158"/>
<path d="M336.157 271.579C336.967 271.405 337.483 270.608 337.31 269.798C337.137 268.988 336.339 268.472 335.529 268.645L336.157 271.579ZM317.19 274.105L316.88 275.573L317.192 275.639L317.504 275.572L317.19 274.105ZM298.28 270.112L298.59 268.644L298.255 268.573L297.922 268.655L298.28 270.112ZM280.17 272.902C279.364 273.092 278.864 273.9 279.054 274.706C279.245 275.512 280.052 276.012 280.859 275.822L280.17 272.902ZM335.529 268.645L316.876 272.638L317.504 275.572L336.157 271.579L335.529 268.645ZM317.5 272.638L298.59 268.644L297.971 271.579L316.88 275.573L317.5 272.638ZM297.922 268.655C294.905 269.398 290.468 270.459 286.783 271.336C284.941 271.774 283.287 272.165 282.095 272.447C281.498 272.588 281.017 272.702 280.685 272.781C280.519 272.82 280.39 272.85 280.303 272.871C280.26 272.881 280.226 272.889 280.204 272.894C280.193 272.897 280.184 272.899 280.179 272.9C280.176 272.901 280.174 272.901 280.172 272.901C280.172 272.902 280.171 272.902 280.171 272.902C280.171 272.902 280.171 272.902 280.17 272.902C280.17 272.902 280.17 272.902 280.514 274.362C280.859 275.822 280.859 275.822 280.859 275.822C280.859 275.822 280.859 275.822 280.859 275.822C280.86 275.822 280.86 275.822 280.861 275.821C280.862 275.821 280.864 275.821 280.867 275.82C280.873 275.819 280.881 275.817 280.893 275.814C280.915 275.809 280.948 275.801 280.992 275.791C281.079 275.77 281.208 275.739 281.374 275.7C281.707 275.622 282.188 275.508 282.785 275.367C283.979 275.085 285.633 274.693 287.477 274.254C291.162 273.378 295.609 272.314 298.639 271.568L297.922 268.655Z" fill="#1C1158"/>
<path d="M261.539 270.65L244.597 274.164" stroke="#1C1158" stroke-width="3" stroke-linecap="round"/>
<circle opacity="0.5" r="36.1749" transform="matrix(-1 0 0 1 273.447 102.663)" fill="#C8BBFF"/>
<path d="M274.785 138.778C289.723 138.133 301.027 128.29 302.526 123.294C301.697 122.975 299.231 121.907 296.896 121.907C294.56 121.907 287.866 122.702 274.286 127.395L244.729 123.201C245.431 128.789 259.847 139.423 274.785 138.778Z" fill="#F1646A"/>
<path d="M302.117 122.667C297.762 120.833 291.72 120.914 281.942 125.189C272.165 129.465 252.139 133.9 244.358 120.903" stroke="#1C1158" stroke-width="3" stroke-linecap="round"/>
<path d="M262.735 117.862C271.535 119.023 278.401 122.988 281.905 125.076C278.228 126.333 269.415 130.208 259.061 129.563C250.261 129.273 243.471 121.805 243.746 120.109C244.021 118.414 253.936 116.702 262.735 117.862Z" fill="#1C1158"/>
<path d="M35.9941 314.935H304.683" stroke="#E3DDFF" stroke-width="3" stroke-linecap="round"/>
</svg>
