<svg width="400" height="400" viewBox="0 0 400 400" fill="none" xmlns="http://www.w3.org/2000/svg">
<path d="M390.414 248.08L373.795 251.03L356.457 247.653L339.479 251.287L322.269 247.653C316.764 249.007 306.099 251.521 306.099 251.521L289.01 247.867" stroke="#FCFCFC" stroke-linecap="round"/>
<path d="M390.34 244.394L390.34 222.257L373.516 225.684L373.516 247.821L390.34 244.394Z" fill="#E6ECEC"/>
<path d="M390.34 244.394L390.34 222.257L373.516 225.684L373.516 247.821L390.34 244.394Z" stroke="#BABFBF" stroke-width="2" stroke-linecap="round" stroke-linejoin="round"/>
<path d="M356.692 244.394L356.692 222.257L339.868 225.684L339.868 247.821L356.692 244.394Z" fill="#FCFCFC"/>
<path d="M356.692 244.394L356.692 222.257L339.868 225.684L339.868 247.821L356.692 244.394Z" stroke="#BABFBF" stroke-width="2" stroke-linecap="round" stroke-linejoin="round"/>
<path d="M356.692 244.394L356.692 222.257L373.517 225.684L373.517 247.821L356.692 244.394Z" fill="#EAE8EB"/>
<path d="M356.692 244.394L356.692 222.257L373.517 225.684L373.517 247.821L356.692 244.394Z" stroke="#BABFBF" stroke-width="2" stroke-linecap="round" stroke-linejoin="round"/>
<path d="M132.067 352.481L136.947 272.554" stroke="#FCFCFC" stroke-width="2" stroke-linecap="round"/>
<path d="M76.8848 351.736L82.6971 333.337L99.4074 335.517L116.58 352.481L76.8848 351.736Z" fill="#FCFCFC"/>
<path d="M248.555 352.182L270.871 320.163L322.297 308.062L349.522 353.438L248.555 352.182Z" fill="#FCFCFC"/>
<path d="M231.037 351.807L210.021 264.126M174.548 101.964L179.065 124.527" stroke="#FCFCFC" stroke-width="2" stroke-linecap="round"/>
<path d="M160.119 351.808L154.657 269.612M142.291 107.001L143.863 128.246" stroke="#FCFCFC" stroke-width="2" stroke-linecap="round"/>
<path d="M185.075 289.742L182.032 266.222" stroke="white" stroke-width="2" stroke-linecap="round"/>
<path d="M185.075 289.742L182.032 266.222" stroke="#FCFCFC" stroke-width="2" stroke-linecap="round"/>
<path d="M8.69355 298.239C4.84291 290.888 -0.547987 273.035 8.69355 260.433C20.2455 244.68 40.8944 243.503 53.3897 256.829C65.885 270.155 55.7982 303.64 40.1988 303.49C24.5993 303.339 37.5383 266.465 63.3026 278.285C85.3562 291.938 80.8758 322.848 67.5033 323.443C54.1308 324.038 68.4485 289.299 99.1593 306.657" stroke="#FCFCFC" stroke-width="2" stroke-linecap="round"/>
<path opacity="0.5" fill-rule="evenodd" clip-rule="evenodd" d="M16.1129 191.466C17.3662 190.572 19.2974 189.768 21.7466 189.464C24.9566 189.067 28.9826 189.543 33.333 191.752C37.8912 194.067 43.4977 196.406 48.7642 197.123C52.5972 197.644 56.3787 197.316 59.4202 195.378C58.1383 204.988 50.8428 212.923 41.0515 214.328C29.1671 216.033 18.1063 207.473 16.3464 195.208C16.1656 193.947 16.09 192.697 16.1129 191.466ZM59.6183 192.709C59.6265 192.184 59.6169 191.655 59.5888 191.124L44.0675 193.285C42.8063 193.04 40.8303 192.619 38.871 192.131C42.189 193.534 45.7103 194.689 49.0338 195.141C53.2471 195.714 56.965 195.144 59.6183 192.709Z" fill="#E6ECEC"/>
<path d="M125.845 272.554L110.286 132.675L217.186 120.65L231.962 260.726L125.845 272.554Z" stroke="#FCFCFC" stroke-width="2" stroke-linecap="round"/>
<path d="M117.924 263.859L103.417 133.441L215.054 120.889" stroke="#FCFCFC" stroke-width="2" stroke-linecap="round"/>
<path d="M105.204 275.565L248.728 259.756" stroke="#FCFCFC" stroke-width="2" stroke-linecap="round"/>
<path d="M110.363 201.324L63.8493 197.572" stroke="#FCFCFC" stroke-width="2" stroke-linecap="round"/>
<path d="M49.6652 187.945C45.346 188.059 39.4298 189.752 36.9144 191.081C38.9914 192.625 45.4592 195.372 51.7184 195.255C57.346 195.15 59.8948 193.287 59.6882 191.327C59.4817 189.367 53.9844 187.832 49.6652 187.945Z" fill="#BABFBF"/>
<path d="M222.3 158.08L267.688 130.683" stroke="#FCFCFC" stroke-width="2" stroke-linecap="round"/>
<path d="M161.387 126.227L147.66 37.496" stroke="#FCFCFC" stroke-width="2" stroke-linecap="round"/>
<path d="M154.522 128.436L154.971 132.384L169.719 130.923L169.166 126.226" stroke="#FCFCFC" stroke-width="2" stroke-linecap="round"/>
<circle cx="103.779" cy="96.6849" r="1.44628" transform="rotate(14.6401 103.779 96.6849)" fill="#BABFBF"/>
<circle cx="95.7628" cy="94.5899" r="1.44628" transform="rotate(14.6401 95.7628 94.5899)" fill="#BABFBF"/>
<circle cx="87.7472" cy="92.4946" r="1.44628" transform="rotate(14.6401 87.7472 92.4946)" fill="#BABFBF"/>
<circle cx="79.7301" cy="90.4023" r="1.44628" transform="rotate(14.6401 79.7301 90.4023)" fill="#BABFBF"/>
<circle cx="105.925" cy="88.4725" r="1.44628" transform="rotate(14.6401 105.925 88.4725)" fill="#BABFBF"/>
<circle cx="71.7144" cy="88.3073" r="1.44628" transform="rotate(14.6401 71.7144 88.3073)" fill="#BABFBF"/>
<circle cx="97.9083" cy="86.3801" r="1.44628" transform="rotate(14.6401 97.9083 86.3801)" fill="#BABFBF"/>
<circle cx="63.6988" cy="86.2124" r="1.44628" transform="rotate(14.6401 63.6988 86.2124)" fill="#BABFBF"/>
<circle cx="89.8917" cy="84.2854" r="1.44628" transform="rotate(14.6401 89.8917 84.2854)" fill="#BABFBF"/>
<circle cx="55.6812" cy="84.1168" r="1.44628" transform="rotate(14.6401 55.6812 84.1168)" fill="#BABFBF"/>
<circle cx="81.877" cy="82.1902" r="1.44628" transform="rotate(14.6401 81.877 82.1902)" fill="#BABFBF"/>
<circle cx="108.07" cy="80.263" r="1.44628" transform="rotate(14.6401 108.07 80.263)" fill="#BABFBF"/>
<circle cx="73.859" cy="80.0981" r="1.44628" transform="rotate(14.6401 73.859 80.0981)" fill="#BABFBF"/>
<circle cx="100.055" cy="78.1678" r="1.44628" transform="rotate(14.6401 100.055 78.1678)" fill="#BABFBF"/>
<circle cx="65.8433" cy="78.0028" r="1.44628" transform="rotate(14.6401 65.8433 78.0028)" fill="#BABFBF"/>
<circle cx="92.0372" cy="76.0757" r="1.44628" transform="rotate(14.6401 92.0372 76.0757)" fill="#BABFBF"/>
<circle cx="57.8258" cy="75.9076" r="1.44628" transform="rotate(14.6401 57.8258 75.9076)" fill="#BABFBF"/>
<circle cx="84.0206" cy="73.9807" r="1.44628" transform="rotate(14.6401 84.0206 73.9807)" fill="#BABFBF"/>
<circle cx="110.214" cy="72.0536" r="1.44628" transform="rotate(14.6401 110.214 72.0536)" fill="#BABFBF"/>
<circle cx="76.003" cy="71.8883" r="1.44628" transform="rotate(14.6401 76.003 71.8883)" fill="#BABFBF"/>
<circle cx="102.197" cy="69.9612" r="1.44628" transform="rotate(14.6401 102.197 69.9612)" fill="#BABFBF"/>
<circle cx="67.9879" cy="69.7933" r="1.44628" transform="rotate(14.6401 67.9879 69.7933)" fill="#BABFBF"/>
<circle cx="94.1807" cy="67.8662" r="1.44628" transform="rotate(14.6401 94.1807 67.8662)" fill="#BABFBF"/>
<circle cx="59.9723" cy="67.6981" r="1.44628" transform="rotate(14.6401 59.9723 67.6981)" fill="#BABFBF"/>
<circle cx="86.1651" cy="65.7712" r="1.44628" transform="rotate(14.6401 86.1651 65.7712)" fill="#BABFBF"/>
<circle cx="112.359" cy="63.844" r="1.44628" transform="rotate(14.6401 112.359 63.844)" fill="#BABFBF"/>
<circle cx="78.1485" cy="63.6788" r="1.44628" transform="rotate(14.6401 78.1485 63.6788)" fill="#BABFBF"/>
<circle cx="104.342" cy="61.749" r="1.44628" transform="rotate(14.6401 104.342 61.749)" fill="#BABFBF"/>
<circle cx="70.1319" cy="61.5838" r="1.44628" transform="rotate(14.6401 70.1319 61.5838)" fill="#BABFBF"/>
<circle cx="96.3258" cy="59.6567" r="1.44628" transform="rotate(14.6401 96.3258 59.6567)" fill="#BABFBF"/>
<circle cx="62.1153" cy="59.4889" r="1.44628" transform="rotate(14.6401 62.1153 59.4889)" fill="#BABFBF"/>
<circle cx="88.3092" cy="57.5613" r="1.44628" transform="rotate(14.6401 88.3092 57.5613)" fill="#BABFBF"/>
<circle cx="80.294" cy="55.4663" r="1.44628" transform="rotate(14.6401 80.294 55.4663)" fill="#BABFBF"/>
<circle cx="72.2765" cy="53.3744" r="1.44628" transform="rotate(14.6401 72.2765 53.3744)" fill="#BABFBF"/>
<circle cx="64.2598" cy="51.2796" r="1.44628" transform="rotate(14.6401 64.2598 51.2796)" fill="#BABFBF"/>
<path d="M323.042 244.394L323.042 222.257L306.217 225.684L306.217 247.821L323.042 244.394Z" fill="#FCFCFC"/>
<path d="M323.042 244.394L323.042 222.257L339.867 225.684L339.867 247.821L323.042 244.394Z" fill="#FCFCFC"/>
<path d="M323.042 244.394L323.042 222.257L306.217 225.684L306.217 247.821L323.042 244.394Z" stroke="#BABFBF" stroke-width="2" stroke-linecap="round" stroke-linejoin="round"/>
<path d="M323.042 244.394L323.042 222.257L339.867 225.684L339.867 247.821L323.042 244.394Z" stroke="#BABFBF" stroke-width="2" stroke-linecap="round" stroke-linejoin="round"/>
<path d="M289.392 244.394L289.392 222.257L272.567 225.684L272.567 247.821L289.392 244.394Z" stroke="#BABFBF" stroke-width="2" stroke-linecap="round" stroke-linejoin="round"/>
<path d="M289.394 244.394L289.394 222.257L306.218 225.684L306.218 247.821L289.394 244.394Z" fill="#FCFCFC"/>
<path d="M289.394 244.394L289.394 222.257L306.218 225.684L306.218 247.821L289.394 244.394Z" stroke="#BABFBF" stroke-width="2" stroke-linecap="round" stroke-linejoin="round"/>
<circle cx="37.7564" cy="191.559" r="25.9429" stroke="#FCFCFC" stroke-linecap="round"/>
<circle cx="296.798" cy="110.93" r="34.6926" stroke="#FCFCFC" stroke-linecap="round"/>
<path d="M10.9663 352.481H384.047" stroke="#FCFCFC" stroke-width="2" stroke-linecap="round"/>
<path opacity="0.5" fill-rule="evenodd" clip-rule="evenodd" d="M266.377 111.55C266.374 111.554 266.371 111.558 266.368 111.561L266.364 111.557C266.182 111.642 266.004 111.726 265.828 111.808C266.384 128.434 280.036 141.741 296.798 141.741C313.911 141.741 327.785 127.868 327.785 110.754C327.785 110.489 327.781 110.224 327.775 109.961C323.671 114.632 317.52 116.04 311.016 115.759C303.518 115.435 295.307 112.87 288.548 110.187C278.089 106.034 271.303 109.23 266.524 111.481C266.475 111.504 266.426 111.527 266.377 111.55ZM295.499 110.583C300.614 112.254 306.057 113.543 311.102 113.761C318.062 114.062 324.033 112.328 327.502 107.017C326.33 106.268 321.654 103.848 311.785 105.171C302.741 106.383 297.407 109.341 295.499 110.583Z" fill="#BABFBF"/>
</svg>
