<svg width="33" height="30" viewBox="0 0 33 30" fill="none" xmlns="http://www.w3.org/2000/svg">
<g clip-path="url(#clip0)">
<path d="M29.5094 9.76518L29.1242 9.88756C27.9143 10.272 26.5876 9.79807 25.8964 8.73522C25.2053 7.67237 25.3111 6.26679 26.1539 5.31783L26.422 5.01542L23.7173 0.854215C23.4446 0.434734 23.0237 0.146473 22.5317 0.0421338C22.0398 -0.0629132 21.5375 0.0301081 21.1184 0.302806L0.854201 13.4751C0.43472 13.7478 0.146106 14.169 0.0417663 14.661C-0.0625734 15.153 0.0300945 15.6549 0.302792 16.074L3.00749 20.2352L3.39266 20.1128C4.60194 19.7277 5.92935 20.2023 6.62047 21.2652C7.31159 22.328 7.20583 23.7336 6.36298 24.6826L6.09488 24.985L8.79958 29.1462C9.07228 29.5657 9.49317 29.8539 9.98516 29.9583C10.1171 29.9862 10.2497 30 10.3809 30C10.7403 30 11.0915 29.8971 11.3982 29.6976L31.662 16.5253C32.0815 16.2526 32.3701 15.8314 32.4744 15.3394C32.5788 14.8474 32.4861 14.3455 32.2134 13.9264L29.5094 9.76518ZM31.437 15.119C31.3918 15.3334 31.2666 15.5169 31.0844 15.6351L15.8222 25.5562L14.8209 24.0155C14.661 23.7697 14.3324 23.7 14.0869 23.8599C13.8411 24.0194 13.7718 24.3483 13.9313 24.5938L14.9326 26.1345L10.8206 28.8077C10.6388 28.9258 10.4213 28.9665 10.2059 28.9202C9.99117 28.8745 9.80796 28.7497 9.68983 28.5679L7.4131 25.0656C8.33164 23.7785 8.38576 22.033 7.51037 20.6869C6.63497 19.3404 5.01824 18.6825 3.46871 18.998L1.19198 15.4961C1.07385 15.3139 1.03388 15.0961 1.0795 14.8814C1.12478 14.667 1.24998 14.4835 1.43214 14.3653L5.56682 11.6776C5.58097 11.7289 5.60042 11.7791 5.63119 11.8262L6.85568 13.7099C6.95754 13.8663 7.12767 13.9515 7.30098 13.9515C7.40001 13.9515 7.50011 13.9239 7.58959 13.8659C7.83541 13.7064 7.90473 13.3775 7.74522 13.132L6.52073 11.2482C6.49031 11.2012 6.45211 11.1626 6.41108 11.129L21.6963 1.19305C21.8781 1.07492 22.0956 1.03424 22.311 1.08058C22.5257 1.12621 22.7089 1.25106 22.8271 1.43286L25.1038 4.93513C24.1853 6.22223 24.1311 7.9677 25.0065 9.31386C25.8819 10.6607 27.4987 11.3182 29.0482 11.0028L31.3249 14.5047C31.4427 14.6861 31.4827 14.9043 31.437 15.119Z" fill="#FCFCFC"/>
<path d="M19.754 10.2168L18.5381 16.0729" stroke="#FCFCFC" stroke-linecap="round" stroke-linejoin="round"/>
<path d="M22.0763 13.7499L16.2202 12.5339" stroke="#FCFCFC" stroke-linecap="round" stroke-linejoin="round"/>
<path d="M10.5123 17.387L9.2878 15.5033C9.12828 15.2574 8.7997 15.1878 8.55388 15.3476C8.30806 15.5071 8.23874 15.8361 8.39825 16.0815L9.62274 17.9653C9.72461 18.1217 9.89473 18.2069 10.068 18.2069C10.1671 18.2069 10.2672 18.1793 10.3567 18.1213C10.6025 17.9611 10.6718 17.6325 10.5123 17.387Z" fill="#FCFCFC"/>
<path d="M13.2779 21.6448L12.0534 19.7611C11.8936 19.5152 11.5653 19.4456 11.3195 19.6054C11.0737 19.765 11.0044 20.0939 11.1639 20.3394L12.3884 22.2231C12.4902 22.3795 12.6604 22.4647 12.8337 22.4647C12.9327 22.4647 13.0328 22.4371 13.1223 22.3791C13.3681 22.2189 13.4374 21.8903 13.2779 21.6448Z" fill="#FCFCFC"/>
</g>
<defs>
<clipPath id="clip0">
<rect width="33" height="30" fill="white"/>
</clipPath>
</defs>
</svg>
