<svg width="112" height="110" viewBox="0 0 112 110" fill="none" xmlns="http://www.w3.org/2000/svg">
    <path d="M55.9069 72.5052C57.0877 72.5052 58.2201 72.0114 59.0551 71.1325C59.89 70.2535 60.3591 69.0614 60.3591 67.8184V15.9517L78.4649 35.0111C78.8669 35.4554 79.3504 35.8092 79.8861 36.0508C80.4218 36.2925 80.9986 36.4172 81.5815 36.4172C82.1643 36.4172 82.7411 36.2925 83.2768 36.0508C83.8126 35.8092 84.2961 35.4554 84.698 35.0111C85.1244 34.5744 85.4632 34.0522 85.6946 33.4753C85.926 32.8984 86.0452 32.2785 86.0452 31.6523C86.0452 31.0261 85.926 30.4062 85.6946 29.8293C85.4632 29.2524 85.1244 28.7302 84.698 28.2935L59.0235 1.2665C58.6227 0.812824 58.1082 0.487841 57.5394 0.32915C57.0345 0.0637529 56.4682 -0.0446339 55.9069 0.016699C55.3456 -0.0446339 54.7793 0.0637529 54.2744 0.32915C53.7056 0.487841 53.191 0.812824 52.7903 1.2665L27.1157 28.2935C26.6894 28.7302 26.3505 29.2524 26.1192 29.8293C25.8878 30.4062 25.7686 31.0261 25.7686 31.6523C25.7686 32.2785 25.8878 32.8984 26.1192 33.4753C26.3505 34.0522 26.6894 34.5744 27.1157 35.0111C27.5177 35.4554 28.0012 35.8092 28.5369 36.0508C29.0727 36.2925 29.6494 36.4172 30.2323 36.4172C30.8152 36.4172 31.3919 36.2925 31.9277 36.0508C32.4634 35.8092 32.9469 35.4554 33.3489 35.0111L51.4546 15.9517V67.8184C51.4546 69.0614 51.9237 70.2535 52.7587 71.1325C53.5936 72.0114 54.7261 72.5052 55.9069 72.5052Z" fill="white" />
    <path d="M107.257 60.0079C106.076 60.0079 104.944 60.5017 104.109 61.3806C103.274 62.2596 102.805 63.4517 102.805 64.6947V97.502C102.805 98.3307 102.492 99.1254 101.936 99.7113C101.379 100.297 100.624 100.626 99.8367 100.626H11.9793C11.1921 100.626 10.4371 100.297 9.88048 99.7113C9.32384 99.1254 9.01113 98.3307 9.01113 97.502V64.6947C9.01113 63.4517 8.54206 62.2596 7.7071 61.3806C6.87214 60.5017 5.7397 60.0079 4.55889 60.0079C3.96863 59.9861 3.38042 60.0924 2.83087 60.3202C2.28133 60.548 1.7822 60.8925 1.36457 61.3321C0.946932 61.7717 0.619728 62.2971 0.403318 62.8756C0.186909 63.4541 0.0859256 64.0733 0.106656 64.6947V97.502C0.106656 100.817 1.35752 103.996 3.58407 106.339C5.81062 108.683 8.83047 110 11.9793 110H99.8367C102.986 110 106.005 108.683 108.232 106.339C110.459 103.996 111.709 100.817 111.709 97.502V64.6947C111.73 64.0733 111.629 63.4541 111.413 62.8756C111.196 62.2971 110.869 61.7717 110.451 61.3321C110.034 60.8925 109.535 60.548 108.985 60.3202C108.436 60.0924 107.847 59.9861 107.257 60.0079Z" fill="white" />
</svg>