<svg width="36" height="36" viewBox="0 0 36 36" fill="none" xmlns="http://www.w3.org/2000/svg">
<path d="M34.0773 20.01C35.0754 10.7881 26.85 2.29943 19.5786 2.01158C10.051 1.63441 1.05355 10.5303 2.08018 20.01C3.0037 28.5375 10.0054 34.7754 18.5787 34.5087C26.8629 34.2509 33.1855 28.2499 34.0773 20.01Z" stroke="#D6D1D8" stroke-width="2" stroke-linecap="round"/>
<path d="M8.0791 20.5102C8.0791 20.5102 12.0788 27.0096 20.078 26.0097C28.0773 25.0098 28.5773 20.0103 28.5773 20.0103" stroke="#D6D1D8" stroke-width="2" stroke-linecap="round"/>
<path d="M13.5789 14.5107C13.5789 15.339 13.1313 15.5106 12.579 15.5106C12.0268 15.5106 11.5791 15.339 11.5791 14.5107C11.5791 13.6823 12.0268 13.5107 12.579 13.5107C13.1313 13.5107 13.5789 13.6823 13.5789 14.5107Z" fill="#D6D1D8"/>
<path d="M24.4477 15.0048C24.0384 15.725 23.5644 15.653 23.0843 15.3802C22.6041 15.1073 22.2997 14.737 22.7089 14.0168C23.1182 13.2966 23.5921 13.3686 24.0723 13.6415C24.5525 13.9143 24.8569 14.2846 24.4477 15.0048Z" fill="#D6D1D8"/>
</svg>
