<svg width="36" height="36" viewBox="0 0 36 36" fill="none" xmlns="http://www.w3.org/2000/svg">
<path d="M34.0773 20.01C35.0754 10.7881 26.85 2.29943 19.5786 2.01158C10.051 1.63441 1.05355 10.5303 2.08018 20.01C3.0037 28.5375 10.0054 34.7754 18.5787 34.5087C26.8629 34.2509 33.1855 28.2499 34.0773 20.01Z" stroke="#3F3C44" stroke-width="2" stroke-linecap="round"/>
<path d="M10.5176 18.5648C10.5176 18.5648 11.8835 18.9307 12.7494 18.4308C13.6153 17.9308 13.9814 16.5649 13.9814 16.5649" stroke="#3F3C44" stroke-width="2" stroke-linecap="round"/>
<path d="M22.5166 16.5649C22.5166 16.5649 22.8826 17.9308 23.7485 18.4308C24.6144 18.9307 25.9804 18.5648 25.9804 18.5648" stroke="#3F3C44" stroke-width="2" stroke-linecap="round"/>
<path d="M14.0791 26.1144C16.9987 24.9983 20.9984 24.9983 23.5782 26.1144" stroke="#3F3C44" stroke-width="2" stroke-linecap="round"/>
</svg>
