<svg width="36" height="36" viewBox="0 0 36 36" fill="none" xmlns="http://www.w3.org/2000/svg">
<path d="M34.0773 20.01C35.0754 10.7881 26.85 2.29943 19.5786 2.01158C10.051 1.63441 1.05355 10.5303 2.08018 20.01C3.0037 28.5375 10.0054 34.7754 18.5787 34.5087C26.8629 34.2509 33.1855 28.2499 34.0773 20.01Z" stroke="#AFA7B1" stroke-width="2" stroke-linecap="round"/>
<path d="M21.3878 28.8153C14.5057 29.9679 8.90256 25.4141 9.00028 21.9816C9.098 18.5491 14.4856 20.6148 19.3232 20.6148C22.2795 20.6148 28.5714 19.3813 28.9578 21.9816C29.3914 24.8984 26.205 28.0086 21.3878 28.8153Z" stroke="#AFA7B1" stroke-width="2" stroke-linecap="round"/>
<path d="M10.8076 14.3055C10.8076 14.3055 11.3856 14.0149 12.3199 13.6585C13.2541 13.3022 14.5447 13.8802 14.5447 13.8802" stroke="#AFA7B1" stroke-width="2" stroke-linecap="round"/>
<path d="M21.9395 14.0125C21.9395 14.0125 23.19 13.3525 24.1454 13.6479C25.1007 13.9431 25.7607 14.1938 25.7607 14.1938" stroke="#AFA7B1" stroke-width="2" stroke-linecap="round"/>
</svg>
