<?xml version="1.0" standalone="no"?>
<!DOCTYPE svg PUBLIC "-//W3C//DTD SVG 20010904//EN"
 "http://www.w3.org/TR/2001/REC-SVG-20010904/DTD/svg10.dtd">
<svg version="1.0" xmlns="http://www.w3.org/2000/svg"
 width="600.000000pt" height="600.000000pt" viewBox="0 0 600.000000 600.000000"
 preserveAspectRatio="xMidYMid meet">
<metadata>
Created by potrace 1.11, written by Peter Selinger 2001-2013
</metadata>
<g transform="translate(0.000000,600.000000) scale(0.100000,-0.100000)"
fill="#000000" stroke="none">
<path d="M2828 5995 c-1 -2 -32 -6 -68 -9 -372 -32 -751 -141 -1095 -315 -144
-72 -151 -76 -315 -183 -254 -166 -477 -364 -665 -591 -22 -27 -50 -60 -63
-75 -35 -41 -205 -299 -243 -367 -182 -332 -296 -663 -344 -995 -4 -25 -9 -58
-11 -75 -3 -16 -8 -46 -10 -65 -3 -19 -7 -141 -8 -270 -4 -276 -1 -295 87
-555 57 -168 138 -362 189 -450 6 -11 27 -49 46 -85 109 -202 386 -669 470
-790 216 -314 470 -564 778 -767 33 -22 74 -47 90 -55 16 -9 61 -33 100 -55
246 -138 625 -252 929 -281 105 -9 431 -9 520 1 39 5 90 10 115 13 35 3 189
33 310 59 175 38 546 168 710 250 583 289 1061 776 1348 1375 145 301 227 583
278 945 25 178 25 608 -1 770 -20 128 -32 188 -61 310 -36 152 -101 350 -159
485 -44 104 -144 296 -185 357 -17 24 -30 47 -30 50 0 3 -30 48 -67 100 -38
53 -75 105 -83 117 -57 83 -276 319 -391 421 -150 134 -357 277 -559 387 -196
107 -511 224 -735 273 -138 30 -181 38 -275 49 -30 3 -68 9 -85 12 -34 5 -511
14 -517 9z"/>
</g>
</svg>
