<svg width="25" height="25" viewBox="0 0 25 25" fill="none" xmlns="http://www.w3.org/2000/svg">
<path d="M13.4888 4.04644C10.6192 4.70876 11.2068 8.28642 11.9597 9.03931C11.1081 9.676 9.88962 11.0155 10.5482 13.3683C11.2068 15.721 14.8626 16.5755 16.8533 15.0622C19.2058 13.2739 18.265 9.50985 16.2885 9.03934C17.8181 6.83351 16.3585 3.38413 13.4888 4.04644Z" stroke="#FCFCFC" stroke-linecap="round" stroke-linejoin="round"/>
<path d="M17.5693 9.90088C17.5693 9.90088 18.2913 9.16216 19.4364 9.16211C20.8677 9.16204 23.0454 10.5449 22.4853 13.1587C21.9252 15.7724 18.5651 16.0698 17.5694 14.9496" stroke="#FCFCFC" stroke-linecap="round" stroke-linejoin="round"/>
<path d="M22.1186 18.7168L21.3076 19.8661" stroke="#FCFCFC" stroke-linecap="round" stroke-linejoin="round"/>
<path d="M14.0059 11.5654V20.0725" stroke="#FCFCFC" stroke-linecap="round" stroke-linejoin="round"/>
<path d="M0.588867 20.0723H23.5285" stroke="#FCFCFC" stroke-linecap="round" stroke-linejoin="round"/>
<path d="M2.67871 14.7622L9.22084 14.7623" stroke="#FCFCFC" stroke-linecap="round" stroke-linejoin="round"/>
<path d="M2.67871 14.7627V20.0725" stroke="#FCFCFC" stroke-linecap="round" stroke-linejoin="round"/>
<path d="M9.22071 14.7627L9.2207 20.0725" stroke="#FCFCFC" stroke-linecap="round" stroke-linejoin="round"/>
<path d="M1.62207 17.4175H10.4422" stroke="#FCFCFC" stroke-linecap="round" stroke-linejoin="round"/>
<path d="M14.1582 14.1332C14.5753 13.5971 15.4872 12.3252 15.4872 12.3252" stroke="#FCFCFC" stroke-linecap="round" stroke-linejoin="round"/>
<path d="M19.501 13.7358V20.0007" stroke="#FCFCFC" stroke-linecap="round" stroke-linejoin="round"/>
<path d="M4.73897 9.4716C5.29973 9.4716 5.75431 9.01701 5.75431 8.45626C5.75431 7.8955 5.29973 7.44092 4.73897 7.44092C4.17822 7.44092 3.72363 7.8955 3.72363 8.45626C3.72363 9.01701 4.17822 9.4716 4.73897 9.4716Z" stroke="#FCFCFC" stroke-linecap="round" stroke-linejoin="round"/>
</svg>
