<svg width="25" height="25" viewBox="0 0 25 25" fill="none" xmlns="http://www.w3.org/2000/svg">
<path d="M13.0544 3.96338C10.1814 3.96338 7.85241 6.29238 7.85241 9.16536C7.81453 9.66317 7.97128 10.4375 8.1193 11.0133C8.26733 11.5891 12.751 20.9979 12.751 20.9979C13.6455 19.3006 15.7236 15.3898 16.8796 13.3255C18.0356 11.2611 18.2791 9.69192 18.2564 9.16536C18.2564 6.29238 15.9274 3.96338 13.0544 3.96338Z" stroke="#FCFCFC" stroke-linecap="round" stroke-linejoin="round"/>
<path d="M4.10547 14.4556L9.64356 18.9987" stroke="#FCFCFC" stroke-linecap="round" stroke-linejoin="round"/>
<path d="M19.2575 16.4873L13.0527 20.9981" stroke="#FCFCFC" stroke-linecap="round" stroke-linejoin="round"/>
<path d="M13.0554 10.7573C13.9344 10.7573 14.647 10.0448 14.647 9.16577C14.647 8.28678 13.9344 7.57422 13.0554 7.57422C12.1764 7.57422 11.4639 8.28678 11.4639 9.16577C11.4639 10.0448 12.1764 10.7573 13.0554 10.7573Z" stroke="#FCFCFC" stroke-linecap="round" stroke-linejoin="round"/>
</svg>
