<svg width="20" height="21" viewBox="0 0 20 21" fill="none" xmlns="http://www.w3.org/2000/svg">
<path d="M16.4495 7.41439C16.4495 7.8123 16.4495 8.21021 16.4495 8.61028C16.4495 9.5618 16.4495 10.5133 16.4495 11.4649C16.4495 12.6132 16.4495 13.7615 16.4495 14.9098C16.4495 15.8981 16.4495 16.8864 16.4495 17.8747C16.4495 18.3461 16.4535 18.8175 16.4495 19.289C16.4495 19.3236 16.4475 19.3582 16.4436 19.3928C16.4515 19.3344 16.4574 19.2782 16.4653 19.2198C16.4574 19.2674 16.4455 19.3128 16.4277 19.3582C16.4475 19.3063 16.4673 19.2544 16.4871 19.2025C16.4752 19.2284 16.4634 19.2522 16.4515 19.2782C16.4059 19.3755 16.5584 19.1506 16.4713 19.2457C16.3901 19.3344 16.5644 19.1895 16.5129 19.2155C16.4851 19.2284 16.4614 19.2501 16.4336 19.263C16.4812 19.2414 16.5287 19.2198 16.5763 19.1982C16.5347 19.2176 16.4931 19.2306 16.4495 19.2392C16.503 19.2306 16.5545 19.2241 16.6079 19.2155C16.4653 19.2349 16.3148 19.2219 16.1722 19.2219C15.8355 19.2219 15.4988 19.2219 15.1601 19.2219C14.661 19.2219 14.1599 19.2219 13.6608 19.2219C13.0488 19.2219 12.4368 19.2219 11.8268 19.2219C11.1534 19.2219 10.478 19.2219 9.80458 19.2219C9.12722 19.2219 8.44986 19.2219 7.77249 19.2219C7.14068 19.2219 6.51086 19.2219 5.87905 19.2219C5.34429 19.2219 4.80953 19.2219 4.27477 19.2219C3.89449 19.2219 3.51422 19.2219 3.13394 19.2219C2.95767 19.2219 2.7814 19.2241 2.60513 19.2219C2.57146 19.2219 2.53779 19.2198 2.50412 19.2155C2.55759 19.2241 2.60909 19.2306 2.66256 19.2392C2.61899 19.2306 2.5774 19.2176 2.53581 19.1982C2.58334 19.2198 2.63087 19.2414 2.67841 19.263C2.65464 19.2501 2.63285 19.2371 2.60909 19.2241C2.51996 19.1744 2.72594 19.3409 2.6388 19.2457C2.55759 19.1571 2.69029 19.3474 2.66652 19.2911C2.65464 19.2609 2.63483 19.2349 2.62295 19.2046C2.64276 19.2565 2.66256 19.3084 2.68237 19.3603C2.66454 19.3149 2.65266 19.2695 2.64474 19.2219C2.65266 19.2803 2.6586 19.3366 2.66652 19.3949C2.65068 19.2674 2.66058 19.1354 2.66058 19.0078C2.66058 18.7224 2.66058 18.4391 2.66058 18.1536C2.66058 17.2064 2.66058 16.2592 2.66058 15.312C2.66058 14.1637 2.66058 13.0176 2.66058 11.8693C2.66058 10.8745 2.66058 9.8797 2.66058 8.88492C2.66058 8.40051 2.67247 7.91177 2.66058 7.42736C2.66058 7.42087 2.66058 7.41439 2.66058 7.40574C2.56155 7.59172 2.4645 7.77986 2.36547 7.96584C2.84676 7.57874 3.32804 7.18948 3.80933 6.80238C4.1282 6.5472 4.4451 6.29202 4.76397 6.03684C5.36409 5.55459 5.96619 5.07234 6.56631 4.58793C7.26546 4.02566 7.96659 3.4634 8.66574 2.90113C9.05196 2.58973 9.44808 2.28913 9.82835 1.96691C9.83429 1.96258 9.84023 1.95826 9.84617 1.95393C9.64614 1.95393 9.44609 1.95393 9.24605 1.95393C9.56889 2.21344 9.88975 2.47078 10.2126 2.73029C10.8999 3.28174 11.5871 3.83319 12.2744 4.38681C12.9082 4.89717 13.542 5.40537 14.1758 5.91574C14.4233 6.11469 14.6709 6.31365 14.9185 6.5126C15.5087 6.98836 16.0989 7.46413 16.6911 7.93989C16.707 7.95286 16.7248 7.96584 16.7406 7.98098C16.8575 8.07397 17.0655 8.08694 17.1982 8.04585C17.3368 8.00477 17.4853 7.88799 17.5527 7.74742C17.626 7.59604 17.6616 7.41439 17.6121 7.24787C17.5626 7.07703 17.4695 6.96458 17.3388 6.86077C16.7941 6.42394 16.2495 5.98494 15.7048 5.54594C15.4473 5.33833 15.1918 5.13289 14.9343 4.92745C14.3362 4.44736 13.7381 3.96511 13.1379 3.48502C12.4348 2.9206 11.7317 2.35617 11.0286 1.78958C10.6404 1.47817 10.2562 1.15163 9.86004 0.85103C9.8541 0.846705 9.84816 0.84238 9.84221 0.838055C9.68971 0.714789 9.39658 0.714789 9.24209 0.838055C8.77269 1.21434 8.30527 1.59062 7.83587 1.96691C6.96441 2.66758 6.09295 3.36608 5.22347 4.06675C4.73228 4.4625 4.23912 4.85825 3.74793 5.25183C3.13394 5.74489 2.52194 6.23796 1.90994 6.73102C1.86042 6.76995 1.81289 6.80887 1.76337 6.84996C1.58314 6.99701 1.47223 7.16569 1.46827 7.42304C1.46628 7.47494 1.46827 7.52684 1.46827 7.57874C1.46827 7.83825 1.46827 8.09775 1.46827 8.35726C1.46827 9.32176 1.46827 10.2863 1.46827 11.2529C1.46827 12.4618 1.46827 13.6707 1.46827 14.8795C1.46827 15.9111 1.46827 16.9448 1.46827 17.9763C1.46827 18.4196 1.45836 18.8651 1.46827 19.3084C1.48213 19.981 1.96539 20.5065 2.58136 20.5216C2.60711 20.5216 2.63483 20.5216 2.66058 20.5216C2.83289 20.5216 3.00719 20.5216 3.1795 20.5216C3.90241 20.5216 4.62533 20.5216 5.34825 20.5216C6.38806 20.5216 7.42589 20.5216 8.4657 20.5216C9.57483 20.5216 10.684 20.5216 11.7911 20.5216C12.7458 20.5216 13.6984 20.5216 14.6531 20.5216C15.2136 20.5216 15.7741 20.5216 16.3346 20.5216C16.6 20.5216 16.8595 20.5087 17.0952 20.3465C17.4319 20.1151 17.6279 19.7237 17.6319 19.289C17.6319 19.2328 17.6319 19.1787 17.6319 19.1225C17.6319 18.4196 17.6319 17.719 17.6319 17.0161C17.6319 15.8743 17.6319 14.7325 17.6319 13.5906C17.6319 12.4229 17.6319 11.2551 17.6319 10.0873C17.6319 9.30662 17.6319 8.5281 17.6319 7.74742C17.6319 7.63713 17.6319 7.529 17.6319 7.41871C17.6319 7.07919 17.3586 6.75481 17.0377 6.76995C16.7208 6.78292 16.4495 7.05108 16.4495 7.41439Z" fill="#FCFCFC"/>
<path d="M16.7425 7.97677C17.1664 8.31845 17.5882 8.65797 18.0121 8.99966C18.0735 9.0494 18.1349 9.09914 18.1963 9.14887C18.3131 9.24186 18.5211 9.25484 18.6538 9.21375C18.7924 9.17266 18.941 9.05589 19.0083 8.91532C19.0816 8.76394 19.1172 8.58229 19.0677 8.41577C19.0182 8.24493 18.9251 8.13464 18.7944 8.02867C18.3706 7.68699 17.9487 7.34747 17.5249 7.00578C17.4635 6.95604 17.4021 6.9063 17.3407 6.85657C17.2238 6.76358 17.0158 6.7506 16.8831 6.79169C16.7445 6.83278 16.596 6.94956 16.5286 7.09012C16.4553 7.2415 16.4197 7.42316 16.4692 7.58967C16.5207 7.75835 16.6118 7.8708 16.7425 7.97677Z" fill="#FCFCFC"/>
<path d="M0.891713 9.14652C1.52946 8.634 2.16523 8.12147 2.80299 7.61111C2.99114 7.45973 3.18128 7.30835 3.36943 7.15481C3.49817 7.051 3.59918 6.94071 3.64276 6.76771C3.68237 6.61201 3.66454 6.40656 3.58334 6.26816C3.42489 5.99784 3.03868 5.82051 2.7713 6.0346C2.09789 6.57524 1.42251 7.11804 0.74911 7.65868C0.596604 7.78195 0.444099 7.90305 0.293573 8.02632C0.164835 8.13012 0.0638246 8.24041 0.0202516 8.41341C-0.0193603 8.56912 -0.00153499 8.77456 0.0796693 8.91297C0.238117 9.18328 0.624332 9.36061 0.891713 9.14652Z" fill="#FCFCFC"/>
<path d="M11.3272 12.0098C11.3272 12.2693 11.3272 12.5309 11.3272 12.7904C11.3272 13.4154 11.3272 14.0404 11.3272 14.6654C11.3272 15.4223 11.3272 16.177 11.3272 16.9339C11.3272 17.5891 11.3272 18.2422 11.3272 18.8975C11.3272 19.2154 11.3193 19.5376 11.3272 19.8555C11.3272 19.8598 11.3272 19.8642 11.3272 19.8706C11.5253 19.6544 11.7234 19.4381 11.9214 19.2219C11.3886 19.2219 10.8559 19.2219 10.3231 19.2219C9.47342 19.2219 8.62375 19.2219 7.77407 19.2219C7.57799 19.2219 7.38191 19.2219 7.18782 19.2219C7.38588 19.4381 7.58393 19.6544 7.78199 19.8706C7.78199 19.609 7.78199 19.3451 7.78199 19.0835C7.78199 18.4498 7.78199 17.8184 7.78199 17.1847C7.78199 16.4257 7.78199 15.6645 7.78199 14.9054C7.78199 14.2523 7.78199 13.5992 7.78199 12.9483C7.78199 12.6391 7.77803 12.3298 7.78199 12.0227C7.78199 11.9903 7.78397 11.9579 7.78794 11.9254C7.78001 11.9838 7.77407 12.04 7.76615 12.0984C7.77407 12.0422 7.78794 11.9881 7.80774 11.9341C7.78794 11.986 7.76813 12.0379 7.74832 12.0898C7.76219 12.0552 7.78001 12.0249 7.79586 11.9925C7.84141 11.9038 7.68296 12.1244 7.78199 12.0162C7.88102 11.9081 7.679 12.0811 7.76021 12.0314C7.78992 12.0141 7.81963 11.9946 7.84933 11.9795C7.8018 12.0011 7.75427 12.0227 7.70673 12.0444C7.75625 12.0227 7.80378 12.0076 7.85726 11.9989C7.80378 12.0076 7.75228 12.0141 7.69881 12.0227C7.83349 12.0054 7.97213 12.0162 8.10681 12.0162C8.39202 12.0162 8.67524 12.0162 8.96045 12.0162C9.61206 12.0162 10.2617 12.0162 10.9133 12.0162C11.0777 12.0162 11.248 12.0011 11.4104 12.0227C11.3569 12.0141 11.3054 12.0076 11.252 11.9989C11.3035 12.0076 11.353 12.0227 11.4025 12.0444C11.355 12.0227 11.3074 12.0011 11.2599 11.9795C11.2916 11.9946 11.3193 12.0141 11.349 12.0314C11.4322 12.0768 11.2302 11.9038 11.3272 12.0098C11.4263 12.12 11.2698 11.8995 11.3134 11.9881C11.3292 12.0206 11.347 12.053 11.3609 12.0854C11.3411 12.0335 11.3213 11.9816 11.3015 11.9297C11.3213 11.9838 11.3352 12.0357 11.3431 12.0941C11.3352 12.0357 11.3292 11.9795 11.3213 11.9211C11.3253 11.9514 11.3272 11.9795 11.3272 12.0098C11.3352 12.3493 11.5946 12.6737 11.9214 12.6585C12.2383 12.6434 12.5235 12.3731 12.5156 12.0098C12.5017 11.2939 11.9848 10.7274 11.3292 10.7144C11.2381 10.7122 11.145 10.7144 11.0539 10.7144C10.5568 10.7144 10.0616 10.7144 9.56453 10.7144C9.0674 10.7144 8.57027 10.7144 8.07116 10.7144C7.97411 10.7144 7.87706 10.7122 7.78001 10.7144C7.14028 10.7274 6.64117 11.2593 6.59364 11.9514C6.57977 12.1438 6.59166 12.3406 6.59166 12.5331C6.59166 12.9872 6.59166 13.4414 6.59166 13.8955C6.59166 15.1087 6.59166 16.3241 6.59166 17.5372C6.59166 18.3028 6.58373 19.0683 6.59166 19.8317C6.59166 19.8425 6.59166 19.8555 6.59166 19.8663C6.59166 20.2167 6.863 20.5151 7.18584 20.5151C7.71861 20.5151 8.25139 20.5151 8.78417 20.5151C9.63385 20.5151 10.4835 20.5151 11.3332 20.5151C11.5293 20.5151 11.7253 20.5151 11.9194 20.5151C12.2403 20.5151 12.5136 20.2188 12.5136 19.8663C12.5136 19.6068 12.5136 19.3451 12.5136 19.0856C12.5136 18.4607 12.5136 17.8357 12.5136 17.2107C12.5136 16.4538 12.5136 15.6991 12.5136 14.9422C12.5136 14.2869 12.5136 13.6338 12.5136 12.9786C12.5136 12.6607 12.5196 12.3406 12.5136 12.0206C12.5136 12.0162 12.5136 12.0119 12.5136 12.0054C12.5136 11.6659 12.2403 11.3415 11.9194 11.3567C11.6006 11.3761 11.3272 11.6464 11.3272 12.0098Z" fill="#FCFCFC"/>
</svg>
