<svg width="28" height="28" viewBox="0 0 28 28" fill="none" xmlns="http://www.w3.org/2000/svg">
<path d="M14.0001 8.9043L8.92798 13.841H3.05859V26.135H13.976" stroke="#FCFCFC" stroke-width="1.16667" stroke-linecap="round" stroke-linejoin="round"/>
<path d="M14 8.9043L19.0722 13.841H24.9416V26.135H14.0241" stroke="#FCFCFC" stroke-width="1.16667" stroke-linecap="round" stroke-linejoin="round"/>
<path d="M19.1055 13.8477V25.6373" stroke="#FCFCFC" stroke-width="1.16667" stroke-linecap="round" stroke-linejoin="round"/>
<path d="M8.89453 13.8477V25.6373" stroke="#FCFCFC" stroke-width="1.16667" stroke-linecap="round" stroke-linejoin="round"/>
<path d="M12.5254 21.1211V26.1353H15.4748V21.1211H12.5254Z" stroke="#FCFCFC" stroke-width="1.16667" stroke-linecap="round" stroke-linejoin="round"/>
<path d="M14 8.64045V1.86426" stroke="#FCFCFC" stroke-width="1.16667" stroke-linecap="round" stroke-linejoin="round"/>
<path d="M14.168 1.86426C14.6148 1.86426 15.6968 1.86426 16.4512 1.86426C17.3942 1.86426 17.5928 3.41336 18.9826 3.41336C18.9826 4.91483 18.9826 6.22364 18.9826 6.69036C18.6185 6.69036 18.1685 6.69036 17.5928 6.69036C16.8731 6.69036 16.6497 5.17103 15.7067 5.17103C14.8578 5.17103 14.3196 5.17103 14.168 5.17103" stroke="#FCFCFC" stroke-width="1.16667" stroke-linecap="round" stroke-linejoin="round"/>
<path d="M13.9998 18.1109C15.1517 18.1109 16.0855 17.1771 16.0855 16.0252C16.0855 14.8733 15.1517 13.9395 13.9998 13.9395C12.8479 13.9395 11.9141 14.8733 11.9141 16.0252C11.9141 17.1771 12.8479 18.1109 13.9998 18.1109Z" stroke="#FCFCFC" stroke-width="1.16667" stroke-linecap="round" stroke-linejoin="round"/>
</svg>
